<svg xmlns="http://www.w3.org/2000/svg" width="48" height="48" viewBox="0 0 48 48">
  <g id="Group_638" data-name="Group 638" transform="translate(-191.5 -2617.066)">
    <g id="Group_636" data-name="Group 636" transform="translate(192.5 2618.066)">
      <path id="Path_2847" data-name="Path 2847" d="M205.5,2620.066h6a2,2,0,0,1,2,2v10" transform="translate(-179.5 -2616.066)" fill="none" stroke="#000" stroke-linecap="round" stroke-linejoin="round" stroke-width="2"/>
      <path id="Path_2848" data-name="Path 2848" d="M200.5,2620.066h-6a2,2,0,0,0-2,2v38a2,2,0,0,0,2,2h30a2,2,0,0,0,2-2v-16" transform="translate(-192.5 -2616.066)" fill="none" stroke="#000" stroke-linecap="round" stroke-linejoin="round" stroke-width="2"/>
      <path id="Path_2849" data-name="Path 2849" d="M208.316,2620.066a2.982,2.982,0,0,0-5.632,0H198.5a2,2,0,0,0-2,2v2h18v-2a2,2,0,0,0-2-2Z" transform="translate(-188.5 -2618.066)" fill="none" stroke="#000" stroke-linecap="round" stroke-linejoin="round" stroke-width="2"/>
      <line id="Line_5" data-name="Line 5" x2="15" transform="translate(12 22.001)" fill="none" stroke="#000" stroke-linecap="round" stroke-linejoin="round" stroke-width="2"/>
      <line id="Line_6" data-name="Line 6" x2="18" transform="translate(12 14.001)" fill="none" stroke="#000" stroke-linecap="round" stroke-linejoin="round" stroke-width="2"/>
      <line id="Line_7" data-name="Line 7" x2="8" transform="translate(12 30.001)" fill="none" stroke="#000" stroke-linecap="round" stroke-linejoin="round" stroke-width="2"/>
      <line id="Line_8" data-name="Line 8" x2="6" transform="translate(12 38.001)" fill="none" stroke="#000" stroke-linecap="round" stroke-linejoin="round" stroke-width="2"/>
      <circle id="Ellipse_122" data-name="Ellipse 122" cx="2" cy="2" r="2" transform="translate(4 36.001)" stroke-width="2" stroke="#000" stroke-linecap="round" stroke-linejoin="round" fill="none"/>
      <circle id="Ellipse_123" data-name="Ellipse 123" cx="2" cy="2" r="2" transform="translate(4 28.001)" stroke-width="2" stroke="#000" stroke-linecap="round" stroke-linejoin="round" fill="none"/>
      <circle id="Ellipse_124" data-name="Ellipse 124" cx="2" cy="2" r="2" transform="translate(4 20.001)" stroke-width="2" stroke="#000" stroke-linecap="round" stroke-linejoin="round" fill="none"/>
      <circle id="Ellipse_125" data-name="Ellipse 125" cx="2" cy="2" r="2" transform="translate(4 12.001)" stroke-width="2" stroke="#000" stroke-linecap="round" stroke-linejoin="round" fill="none"/>
    </g>
    <g id="Group_637" data-name="Group 637" transform="translate(210.5 2628.066)">
      <path id="Path_2850" data-name="Path 2850" d="M201.5,2651.066l2-8,18.758-18.758a4.247,4.247,0,0,1,3-1.242h0a4.241,4.241,0,0,1,4.24,4.24v0a4.232,4.232,0,0,1-1.242,3L209.5,2649.066Z" transform="translate(-201.5 -2623.066)" fill="none" stroke="#000" stroke-linecap="round" stroke-linejoin="round" stroke-width="2"/>
      <line id="Line_9" data-name="Line 9" x2="6" y2="6" transform="translate(18 4.001)" fill="none" stroke="#000" stroke-linecap="round" stroke-linejoin="round" stroke-width="2"/>
      <path id="Path_2851" data-name="Path 2851" d="M202.5,2633.066a7.071,7.071,0,0,1,6,6" transform="translate(-200.5 -2613.066)" fill="none" stroke="#000" stroke-linecap="round" stroke-linejoin="round" stroke-width="2"/>
    </g>
  </g>
</svg>
