<svg xmlns="http://www.w3.org/2000/svg" width="48" height="36" viewBox="0 0 48 36">
  <g id="Group_639" data-name="Group 639" transform="translate(-767.5 -2594.5)">
    <path id="Path_2852" data-name="Path 2852" d="M770.5,2625.25c1.742-1.77,6.969-2.125,9.409-2.125s8.146.842,9.409,2.125v-27.625c-1.263-1.284-6.969-2.125-9.409-2.125s-7.667.355-9.409,2.125Z" transform="translate(2.182 0)" fill="none" stroke="#000" stroke-linecap="round" stroke-linejoin="round" stroke-width="2"/>
    <path id="Path_2853" data-name="Path 2853" d="M779.5,2625.25c1.742-1.77,6.969-2.125,9.409-2.125s8.146.842,9.409,2.125v-27.625c-1.263-1.284-6.969-2.125-9.409-2.125s-7.667.355-9.409,2.125Z" transform="translate(12 0)" fill="none" stroke="#000" stroke-linecap="round" stroke-linejoin="round" stroke-width="2"/>
    <path id="Path_2854" data-name="Path 2854" d="M772.5,2600.562a12.768,12.768,0,0,1,5.227-1.062,10.717,10.717,0,0,1,5.227,1.063" transform="translate(4.364 4.5)" fill="none" stroke="#000" stroke-linecap="round" stroke-linejoin="round" stroke-width="2"/>
    <path id="Path_2855" data-name="Path 2855" d="M772.5,2603.563a12.768,12.768,0,0,1,5.227-1.062,10.717,10.717,0,0,1,5.227,1.063" transform="translate(4.364 7.875)" fill="none" stroke="#000" stroke-linecap="round" stroke-linejoin="round" stroke-width="2"/>
    <path id="Path_2856" data-name="Path 2856" d="M772.5,2606.562a12.768,12.768,0,0,1,5.227-1.062,10.717,10.717,0,0,1,5.227,1.063" transform="translate(4.364 11.25)" fill="none" stroke="#000" stroke-linecap="round" stroke-linejoin="round" stroke-width="2"/>
    <path id="Path_2857" data-name="Path 2857" d="M772.682,2597l-4.182,1.063v29.75l18.818-2.125c0,1.173,1.871,2.125,4.182,2.125s4.182-.952,4.182-2.125l18.818,2.125v-29.75L810.318,2597" transform="translate(0 1.688)" fill="none" stroke="#000" stroke-linecap="round" stroke-linejoin="round" stroke-width="2"/>
    <line id="Line_10" data-name="Line 10" y1="3.188" transform="translate(787.318 2624.188)" fill="none" stroke="#000" stroke-linecap="round" stroke-linejoin="round" stroke-width="2"/>
    <line id="Line_11" data-name="Line 11" y1="3.188" transform="translate(795.682 2624.188)" fill="none" stroke="#000" stroke-linecap="round" stroke-linejoin="round" stroke-width="2"/>
    <path id="Path_2858" data-name="Path 2858" d="M781.5,2596v20.187l4.182-4.25,4.182,4.25V2596" transform="translate(14.182 0.562)" fill="none" stroke="#000" stroke-linecap="round" stroke-linejoin="round" stroke-width="2"/>
  </g>
</svg>
