<svg xmlns="http://www.w3.org/2000/svg" xmlns:xlink="http://www.w3.org/1999/xlink" width="189.87" height="159.261" viewBox="0 0 189.87 159.261">
  <defs>
    <filter id="Path_3923" x="0" y="0" width="189.87" height="159.261" filterUnits="userSpaceOnUse">
      <feOffset dx="10" dy="5" input="SourceAlpha"/>
      <feGaussianBlur result="blur"/>
      <feFlood flood-opacity="0.098"/>
      <feComposite operator="in" in2="blur"/>
      <feComposite in="SourceGraphic"/>
    </filter>
  </defs>
  <g id="Group_1664" data-name="Group 1664" transform="matrix(0.985, 0.174, -0.174, 0.985, -366.494, -562.854)">
    <g transform="matrix(0.98, -0.17, 0.17, 0.98, 458.66, 490.66)" filter="url(#Path_3923)">
      <path id="Path_3923-2" data-name="Path 3923" d="M605.778,486.79H515.246a33.373,33.373,0,0,0-8.656,1.177,34.346,34.346,0,0,0-25.963,33.446v39.068a34.527,34.527,0,0,0,3.982,16.375,12.387,12.387,0,0,0,1.635,3.037c1.4,1.872,2.8,3.509,4.207,5.152a35.444,35.444,0,0,0,24.8,10.058h14.04v13.563a1.5,1.5,0,0,0,.225.945v1.158c.242.245.242.477.475.707v.237c0,.233.235.465.467.935a.5.5,0,0,0,.467.467v.233a1.84,1.84,0,0,1,.7.467l.232.232c.235,0,.235,0,.7.468h0a.864.864,0,0,1,.7.235v.232h.935v.237h2.812a.977.977,0,0,0,.69-.237h.47s.475-.232.475-.467h.235c.232,0,.467-.233.7-.468h.233a3.286,3.286,0,0,1,.935-.7L558.755,595.1h47.024a34.9,34.9,0,0,0,34.849-34.621V521.413c0-18.949-15.909-34.623-34.849-34.623Z" transform="matrix(0.98, 0.17, -0.17, 0.98, -366.49, -562.85)" fill="#ffca00" fill-rule="evenodd"/>
    </g>
    <g id="Group_1665" data-name="Group 1665" transform="translate(535.027 514.79)">
      <path id="Path_3924" data-name="Path 3924" d="M415.207,164.487a31.514,31.514,0,0,1-13.916,2.689c-12.555,0-23.6-8.891-23.6-23.535,0-15.241,11.267-28.465,28.285-28.465,13.388,0,22.915,9.041,22.915,21.592,0,10.982-6.2,17.856-14.369,17.856-3.555,0-6.127-1.868-6.5-5.753h-.151c-2.42,3.736-5.747,5.753-9.832,5.753-4.84,0-8.47-3.66-8.47-9.787,0-9.19,6.88-17.409,17.773-17.409a22.775,22.775,0,0,1,9,1.794l-2.268,13.9c-.758,4.409-.227,6.426,1.891,6.5,3.253.149,7.335-3.96,7.335-12.629,0-9.786-6.353-17.258-18.076-17.258-11.644,0-21.7,8.889-21.7,23.236,0,12.552,8.015,19.574,19.285,19.574a26.254,26.254,0,0,0,11.041-2.316Zm-6.73-30.857a9.981,9.981,0,0,0-2.347-.3c-4.991,0-8.923,4.856-8.923,10.608,0,2.839,1.287,4.633,3.781,4.633,2.8,0,5.748-3.512,6.428-7.844Z" transform="translate(-377.695 -115.176)" fill="#fff"/>
    </g>
  </g>
</svg>
