<svg xmlns="http://www.w3.org/2000/svg" xmlns:xlink="http://www.w3.org/1999/xlink" width="204.276" height="180.406" viewBox="0 0 204.276 180.406">
  <defs>
    <filter id="Path_3923" x="0" y="0" width="204.276" height="180.406" filterUnits="userSpaceOnUse">
      <feOffset dx="-10" dy="-5" input="SourceAlpha"/>
      <feGaussianBlur result="blur"/>
      <feFlood flood-opacity="0.102"/>
      <feComposite operator="in" in2="blur"/>
      <feComposite in="SourceGraphic"/>
    </filter>
  </defs>
  <g id="Group_1666" data-name="Group 1666" transform="matrix(0.94, -0.342, 0.342, 0.94, -608.133, -233.326)">
    <g transform="matrix(0.94, 0.34, -0.34, 0.94, 491.66, 427.25)" filter="url(#Path_3923)">
      <path id="Path_3923-2" data-name="Path 3923" d="M605.778,486.79H515.246a33.373,33.373,0,0,0-8.656,1.177,34.346,34.346,0,0,0-25.963,33.446v39.068a34.527,34.527,0,0,0,3.982,16.375,12.387,12.387,0,0,0,1.635,3.037c1.4,1.872,2.8,3.509,4.207,5.152a35.444,35.444,0,0,0,24.8,10.058h14.04v13.563a1.5,1.5,0,0,0,.225.945v1.158c.242.245.242.477.475.707v.237c0,.233.235.465.467.935a.5.5,0,0,0,.467.467v.233a1.84,1.84,0,0,1,.7.467l.232.232c.235,0,.235,0,.7.468h0a.864.864,0,0,1,.7.235v.232h.935v.237h2.812a.977.977,0,0,0,.69-.237h.47s.475-.232.475-.467h.235c.232,0,.467-.233.7-.468h.233a3.286,3.286,0,0,1,.935-.7L558.755,595.1h47.024a34.9,34.9,0,0,0,34.849-34.621V521.413c0-18.949-15.909-34.623-34.849-34.623Z" transform="matrix(0.94, -0.34, 0.34, 0.94, -608.13, -233.33)" fill="#ffca00" fill-rule="evenodd"/>
    </g>
    <g id="icon_1_" data-name="icon (1)" transform="translate(541.416 504.828)">
      <path id="Path_3931" data-name="Path 3931" d="M34.546,0H5.094A5.1,5.1,0,0,0,0,5.1V64.906A5.092,5.092,0,0,0,5.094,70H34.546a5.1,5.1,0,0,0,5.094-5.094V5.1A5.1,5.1,0,0,0,34.546,0ZM12.553,3.1h14.54c.367,0,.666.548.666,1.227s-.3,1.23-.666,1.23H12.553c-.37,0-.663-.551-.663-1.23S12.183,3.1,12.553,3.1Zm7.27,61.87a3.252,3.252,0,1,1,3.247-3.255A3.257,3.257,0,0,1,19.823,64.967Zm16-11.145H3.819V8.6H35.824V53.823Z" transform="translate(0 0)" fill="#fff"/>
    </g>
  </g>
</svg>
