<svg xmlns="http://www.w3.org/2000/svg" width="369.816" height="580.874" viewBox="0 0 369.816 580.874">
  <g id="Big_Map" data-name="Big Map" transform="translate(-462.559 -1130.536)">
    <path id="Path_1068" data-name="Path 1068" d="M533.847,1379.568l.122,15.278,9.575,6.675,4.98,12.042,8.583,2.414v3.989l10.122-1.83,2.139,4.8H575.9l4.589,2.44h6.9l5.212,2.043-2.48,6.668,6.359,6.969-2.088,6.639,2.088,4.881-9.092,3.272h-5.063l-9.532-5.52h-6.669l-1.633,1.117v4.4l16,11.3,4.149-1.558h2.752l5.212,6.334-7.964,6.032-4.149-1.75-8.7,8.317h12.852L598.9,1493.5v-15.545l20.474-9.09,6.58-3.276,1.955,3.276,22.484,7.341h13.417l13.458,15.019,6.727,7.161,2.281,8.843-9.008,6.333,3.331,4.118,18.327-4.118,10.845,4.118h13.216l2.971,4.624,11.243,3.59,15.61-3.59,1.868,3.59h-4.042l2.175,6.292h-8.633l3.284,11.591,5.348,4.109v12.907H757v-33.2h5.614V1522.3l16.426-3.128,4.8,5.267-2.011,6.1,9.173,1.648,9.892-1.648,9.263,1.648,2.433-6.292v-5.028l-5.108-7.3V1489.58l5.108-22.463,17.484-26.065v-25.075l-22.592-4.228-23.643-19.865-18.805-7.41-24.912,7.41-30.356,13.84-40.04,6.025-62.783-19.865-49.837-7.41Z" fill="#d1e0a8"/>
    <path id="Path_1173" data-name="Path 1173" d="M723.214,1666.71l-4.718-7.373-25.417,13.8,16.127,20.324,1.678-3.609h2.824l-1.372-12.728,1.372-3.987Z" fill="#d1e0a8"/>
    <path id="Path_1108" data-name="Path 1108" d="M586.785,1528.146l8.8,6.878,9.377,13.842,14.948-6.541v6.541l6.457-2.1,26.864,1.52,10.032-.594,10.8-2.669-4.378,10.5-5.6-4.364H651.123l-13-1.684-12.645.623-5.133,3.6v15.591l-8.955-5.453-8.236-9.219-5.071-11.03-13.557-11.669Z" fill="#d1e0a8"/>
    <path id="Path_1109" data-name="Path 1109" d="M604.862,1548.713l-6.457-11.915-10.17-8.915-26.073-11.117-11.643-7.908-3.877-8.656,2.341-7.213,11.665-6.237,16.37-2.141,13.523,2.938,8.779,6.308v-15.532l25.977-11.849,25.125,9.934h13.644l20.6,23.108,1.264,8.053-9.008,6.633,4.513,4.055,17.5-4.664,10.86,4.664h13.354l3.165,4.841,11.1,3.036,15.438-3.036,1.026,3.036h-3.169l1.277,6.041h-7.718l3.174,11.888,4.544,3.084.866,13.562,2.785.919,2.471-.919L756.7,1550.2l.638-22.426h5.269v-5.43l16.373-3.18,4.761,5.627-1.92,5.924,10.4,2.16,7.267-2.16,9.845,1.465-8.684,16.041-1.817,15.89-4.49,13.64-6.134,12.475-2.614,14.443,6.957,15.679,9.867,8.643-2.154,2.836L778.3,1633.3l-8.93,4.973-10.737,8.6-2.7,2.46,16.285,13.938,1.516,5.087-4.368,3.365-1.752,5.142,1.752,7.561,5.1,3.518-2.747,3.974-25.551,2.94-9.79.973-4.092.982-10.139,4.955-2.124,2.374-10.7-11.19,1.258-3.4,3.04.836-1.459-14.135,1.879-3.343,4.276-2.349,4.858-3.948-4.858-7.631-22.261,12.577-2.913,1.351-10.224-13.238-8.21-13.052-1.491-9.847-22.716-25.554,2.693-4.3,5.085,5.08h2.918l12.02,14.238,2.607.6,8.4,14,.941,3.993,9.152-3.993,4.922-4.967-.936-2.493h-2.2l6.3-7.139,5.886,3.307v2.924h10.548l4.33-5.635-55.694-34.808-15.7-9.3-22.11-4.971-9.05-8.823v-15.069l5.848-3.932,9.895-.6,11.921,1.428,8.279,1.048h7.723l5.336,5.159,4.475-10.935-8.9,1.3H651.786l-16.939-1.3-15.112,2.693.891-7.334Z" fill="#f3e2ac" stroke="#c8c29d" stroke-linecap="round" stroke-linejoin="round" stroke-width="2"/>
    <path id="Path_1172" data-name="Path 1172" d="M621.435,1569.915l-6.729-3.236v11.846l8.94,12.051,21.385,15.873,5.586,5.267,3.056-4.489,4.691,4.489,3.756,1.263,10.561,13.035,4.047,1.442,7.97,14.993,14.369-6.193v-2.637h-2.795l6.459-7.605,5.482,3.815v2.934l10.967-.8,4.032-4.506L652.3,1583.662l-21.288-5.137Z" fill="#eaeaea"/>
    <path id="Path_1133" data-name="Path 1133" d="M576.894,1504.148l.479,6.036,7.67,1.22v-4.31Z" fill="#d1e0a8"/>
    <path id="Path_1132" data-name="Path 1132" d="M628.463,1514.647l10.362.1-.765-7.532h-9.6Z" fill="#d1e0a8"/>
    <path id="Path_1131" data-name="Path 1131" d="M669.829,1491.6l-2.156,2.14h-3.046l-3.648,2.948-9.16,1.365,7.313-15.94,6.423,3.2.866,4.49Z" fill="#d1e0a8"/>
    <path id="Path_1102" data-name="Path 1102" d="M587.846,1525.623l-10.259-1.561-15.673-6.176-12.165-8.579-4.22-9,2.094-6.388,12.317-7.833.541-2.158-11.591,2.158-6.808-1.242,1.332,10.876H534.1l1.082,2.111-7,4.121,20.715,11.975,13.023,12.764,10.749,19.248,10.922-14.978Z" fill="#d1e0a8"/>
    <path id="Path_1147" data-name="Path 1147" d="M699.024,1548.75l-27.58,42.6" fill="none" stroke="#fff" stroke-linecap="round" stroke-width="2"/>
    <path id="Path_1148" data-name="Path 1148" d="M682.631,1599.013l32.324-50.048-10.78-7.464-1.5,1.635,4.526,3.042.944-.661-3.966-2.38" fill="none" stroke="#fff" stroke-linecap="round" stroke-linejoin="round" stroke-width="2"/>
    <path id="Path_1149" data-name="Path 1149" d="M760.477,1646.075,682.4,1598.766" fill="none" stroke="#fff" stroke-linecap="round" stroke-width="2"/>
    <path id="Path_1150" data-name="Path 1150" d="M768.882,1639.636l-68.465-42.4,4.431-6.34-10.6-7.07" fill="none" stroke="#fff" stroke-linecap="round" stroke-linejoin="round" stroke-width="2"/>
    <path id="Path_1151" data-name="Path 1151" d="M707.62,1615.2l10.061-16.856" fill="none" stroke="#fff" stroke-linecap="round" stroke-linejoin="round" stroke-width="2"/>
    <path id="Path_1152" data-name="Path 1152" d="M704.771,1590.85l12.948,7.491" fill="none" stroke="#fff" stroke-linecap="round" stroke-width="2"/>
    <path id="Path_1153" data-name="Path 1153" d="M717.681,1620.916l12.382-19.966-4.4-3.267,24.222,15.539,29.043,18.352,3.785-3.739-5.15-3.281,7.791-11.332-25.572-17.38" fill="none" stroke="#fff" stroke-linecap="round" stroke-linejoin="round" stroke-width="2"/>
    <path id="Path_1154" data-name="Path 1154" d="M737.315,1632.221l23.222-35.894" fill="none" stroke="#fff" stroke-linecap="round" stroke-linejoin="round" stroke-width="2"/>
    <path id="Path_1155" data-name="Path 1155" d="M756.769,1602.4l35.985,22.443v6.061" fill="none" stroke="#fff" stroke-linecap="round" stroke-linejoin="round" stroke-width="2"/>
    <path id="Path_1156" data-name="Path 1156" d="M746.745,1637.918l23.042-35.2" fill="none" stroke="#fff" stroke-linecap="round" stroke-linejoin="round" stroke-width="2"/>
    <path id="Path_1157" data-name="Path 1157" d="M777.2,1607.923l-17.332,26.342" fill="none" stroke="#fff" stroke-linecap="round" stroke-linejoin="round" stroke-width="2"/>
    <path id="Path_1158" data-name="Path 1158" d="M753.779,1607.343l-25.266-14.61,11.039-18.245-14.981-9.035-12.394,16.652" fill="none" stroke="#fff" stroke-linecap="round" stroke-linejoin="round" stroke-width="2"/>
    <path id="Path_1159" data-name="Path 1159" d="M736.277,1604.2l15.484-22.24,5.457,3.466-3.918,5.856,7.487,5.375" fill="none" stroke="#fff" stroke-linecap="round" stroke-linejoin="round" stroke-width="2"/>
    <path id="Path_1160" data-name="Path 1160" d="M808.707,1536.863l-12.148-.951-4.746,5.584v7.812l1.849,7.163-8.489,21.632-11.595,17.383" fill="none" stroke="#c8c29c" stroke-linecap="round" stroke-linejoin="round" stroke-width="2"/>
    <path id="Path_1161" data-name="Path 1161" d="M788.237,1589.895l-19.466-29.2v-17.072l1.762-5.42,1.236-7.833,12.388-1.627-12.388,1.627-9.459-3.578" fill="none" stroke="#c8c29c" stroke-linecap="round" stroke-linejoin="round" stroke-width="2"/>
    <path id="Path_1162" data-name="Path 1162" d="M792.754,1540.612l-21.4-6.352" fill="none" stroke="#c8c29c" stroke-linecap="round" stroke-linejoin="round" stroke-width="2"/>
    <path id="Path_1163" data-name="Path 1163" d="M757.827,1538.884l11.959,1.15,22.359,7.514" fill="none" stroke="#c8c29c" stroke-linecap="round" stroke-linejoin="round" stroke-width="2"/>
    <path id="Path_1164" data-name="Path 1164" d="M777.2,1589.895l-8.873-12.945.836-15.8-.836,15.8-8.447.533" fill="none" stroke="#c8c29c" stroke-linecap="round" stroke-linejoin="round" stroke-width="2"/>
    <path id="Path_892" data-name="Path 892" d="M3367.1-1038.425l27.732,9.629,32.51,1.788,54.516,15.9,22.967,5.095,25.717,3.406,32.6-5.672,33.89-15.031,11.079-3.695v-11.416h6.463l1.493-7.012h-2.993l-1.461-10.856-3.5-5.516,21.107-20.674-40.875-22.666-39.6-18.423-1.589-6.034-6.257-4.617h-7.832l7.832-23.985,27.143-3.223v-15.511l12,1.85,19.9-5.012,3.117-18.924,19.3,4.637v3.85L3653.2-1180.1l4.481-16.94-30.475-36.884-39.937-46.525-27.117,5.585-19.261,13.783,4.459,11.171-6.777,3.969-18.32-5.3-19.648,8.517L3477.97-1226.6l-19.4,33.668-9.3,22.589-3.815,24.243-8.552,19.924-17.5,27.737-21.3,20.516-14.614,2.405-12.764,23.375Z" transform="translate(-2848 2413)" fill="#b0e0a8"/>
    <path id="Path_1118" data-name="Path 1118" d="M600.8,1482.653l13.622-5.513v-6.115l3.359,27.556" fill="none" stroke="#c8c29d" stroke-linecap="round" stroke-linejoin="round" stroke-width="2"/>
    <path id="Path_1119" data-name="Path 1119" d="M609.363,1496.38l-1.169-20.985,1.169,22.377h8.162" fill="none" stroke="#c8c29d" stroke-linecap="round" stroke-linejoin="round" stroke-width="2"/>
    <path id="Path_1069" data-name="Path 1069" d="M648.506,1432.814l-2.752-4.267-15.024-6.5-11.073,1.9V1438.3l6.035,4.705,10.951,2.251,7.573-3.947Z" fill="#f3e2ac" stroke="#c8c29d" stroke-linejoin="round" stroke-width="2"/>
    <path id="Path_1089" data-name="Path 1089" d="M518.649,1379.568l14.581.875v14.07l-9.386.9-13.612,14.276-8.116,3.412h-8.6l-2.691-2.161,23.242-18.594Z" fill="#f3e2ac" stroke="#c8c29d" stroke-linecap="round" stroke-linejoin="round" stroke-width="2"/>
    <path id="Path_1070" data-name="Path 1070" d="M739.579,1445.405l-76.755-20.154-10.049,5.157-9.892,16.515,19.941,9.551,3.512,3.311h7.005l4.08,3.69,7.608,2.409,6.292,7.695,6.8-5.043h3.367l-1.657,10.226,3.972,6.708,11.466-1.561,16.2,5.493,8.11-5.493,2.7,1.561,3.8-10.037L762,1492.219h6.747l1.771,4.381h7.667l5.687,11.972,4.392-3.576,7.48,3.576,9.242-10.208V1489.4l-9.242-1.522,9.242-3.971-7.664-18.023-13.45-6.1L772.532,1442.4l-18.136-5.411-1.963,9.931Z" fill="#f5e7b8" stroke="#c8c29d" stroke-linecap="round" stroke-linejoin="round" stroke-width="2"/>
    <path id="Path_1081" data-name="Path 1081" d="M3546.583-1004.576V-993.7l18.434,2.427L3563.6-988.5,3553.25-987l5.435,12.244,26.746,7.221h12.835l4.876-23.737-2.913-13.3-14.8-6.514-3.663-4.558-18.172,6.99Z" transform="translate(-2848 2413)" fill="#eaeaea" stroke="#d1d1d1" stroke-linecap="round" stroke-linejoin="round" stroke-width="2"/>
    <path id="Path_1106" data-name="Path 1106" d="M3432.444-881.525,3445.77-869.4l6.823,13.792h-16.519l-10.8-3.238-3.57-8.227Z" transform="translate(-2848 2413)" fill="#f5e7b8" stroke="#c8c29d" stroke-linecap="round" stroke-linejoin="round" stroke-width="2"/>
    <path id="Path_1101" data-name="Path 1101" d="M492.183,1479.29l11.169,5.89-3.035,7.825-16.166-6.813-1.482-11.156Z" fill="#d1e0a8"/>
    <path id="Path_1084" data-name="Path 1084" d="M785.114,1391.864l-6.752,6.849,14.568,5.449v1.339l-13.741-4.755-.827,5.866,13.386,2.7v1.522l-12.009-2.359v3.616l10.784,2.084v1.227l-10.784-2.074.349,3.866,28.364,3.594,3.08-8.7-18.6-13.375-3.145-3.913Z" fill="#fff"/>
    <path id="Path_1085" data-name="Path 1085" d="M827.5,1416.7l-4.468,5.324-12.727-.9v2.774l9.5,3.053.6,2.506,4.065-1.552-.444-1.546,3.472-.3,2.178-1.018v-7.788Z" fill="#fff"/>
    <path id="Path_1042" data-name="Path 1042" d="M718.729,1340.3l2.247,8.855" fill="none" stroke="#fff" stroke-linecap="round" stroke-linejoin="round" stroke-width="2"/>
    <path id="Path_1045" data-name="Path 1045" d="M651.538,1286.825l-9.91,9.141,5.1-1.9,11.355,12.73-5.212,2.672-15.665-11.42-10.856-3.981,10.033,4.878.823,5,4.422,5.031,5.1,4.921,6.665-3.094-9.833-6.858,8.55,6.858-8.55-5.266,7.266,5.266-7.266-4.007,6.74,4.871-7.214-3.732,6,4.335-6.67-3.294,5.089,4" fill="none" stroke="#fff" stroke-linecap="round" stroke-linejoin="round" stroke-width="2"/>
    <g id="Path_1046" data-name="Path 1046" fill="none" stroke-linecap="round" stroke-linejoin="round">
      <path d="M654.412,1312.021l9.287-1.673,5.2,4.956,2.309,6.259s3.51-1.828,4.68-1.279,1.17,2.607,0,3.477-3.818-.77-4.68,0-.09,2.31,1.232,3.08,3.344-.978,4.056,0a2.891,2.891,0,0,1-1.206,3.913c-1.627.978-5.3,0-5.3,0s-.043,2.681-1.09,3.575a2.342,2.342,0,0,1-3.1,0c-.775-.663,0-2.651,0-2.651h-2.1l-4.949,1.013-1.326-8.93Z" stroke="none"/>
      <path d="M 663.698974609375 1310.348266601562 L 668.894287109375 1315.304565429688 L 671.203125 1321.5634765625 C 671.203125 1321.5634765625 673.8560180664062 1320.181884765625 675.3179931640625 1320.181640625 C 675.5377807617188 1320.181640625 675.7304077148438 1320.212890625 675.88330078125 1320.28466796875 C 677.0533447265625 1320.834106445312 677.0533447265625 1322.89208984375 675.88330078125 1323.76123046875 C 675.62451171875 1323.953491210938 675.2932739257812 1324.023071289062 674.9251708984375 1324.023071289062 C 673.9637451171875 1324.023071289062 672.7499389648438 1323.548950195312 671.9132080078125 1323.548950195312 C 671.6219482421875 1323.548950195312 671.37646484375 1323.606323242188 671.203125 1323.76123046875 C 670.3411865234375 1324.531372070312 671.1134033203125 1326.071533203125 672.435546875 1326.841674804688 C 672.6878051757812 1326.988647460938 672.965576171875 1327.0439453125 673.2548217773438 1327.0439453125 C 674.1320190429688 1327.0439453125 675.115234375 1326.535766601562 675.8150634765625 1326.53564453125 C 676.0938110351562 1326.53564453125 676.3274536132812 1326.6162109375 676.49169921875 1326.841674804688 C 677.2042236328125 1327.81982421875 676.9124755859375 1329.7763671875 675.28564453125 1330.754516601562 C 674.743408203125 1331.08056640625 673.9735107421875 1331.189208984375 673.188232421875 1331.189208984375 C 671.617431640625 1331.189208984375 669.984375 1330.754516601562 669.984375 1330.754516601562 C 669.984375 1330.754516601562 669.9415283203125 1333.435424804688 668.894287109375 1334.3291015625 C 668.4088745117188 1334.743286132812 667.8740844726562 1334.916015625 667.3629150390625 1334.916015625 C 666.7711791992188 1334.916015625 666.2110595703125 1334.684692382812 665.79541015625 1334.3291015625 C 665.0206909179688 1333.666259765625 665.79541015625 1331.677978515625 665.79541015625 1331.677978515625 L 663.698974609375 1331.677978515625 L 658.749755859375 1332.690795898438 L 657.423583984375 1323.76123046875 L 654.411865234375 1312.020874023438 L 663.698974609375 1310.348266601562 Z" stroke="none" fill="#fff"/>
    </g>
    <path id="Path_1062" data-name="Path 1062" d="M800.253,1342.378,781.092,1331.4l-6.246,3.7-6.375,7.284-5.814,10.968,3.945,7.238v13.622l10.558,3.519v9.394l14.291,7.754Z" fill="#f5e7b8"/>
    <path id="Path_1051" data-name="Path 1051" d="M555.319,1362.7l-25.738-16.47,5.771-8.715,20.687,9.77L540.8,1365.058l-14.542,6.924-6.37-5.14" fill="none" stroke="#fff" stroke-linecap="round" stroke-linejoin="round" stroke-width="2"/>
    <path id="Path_1047" data-name="Path 1047" d="M597.069,1276.982l-.252,5.682.252,6.282,3.125,3.563h9.459l-10.4,1.1v4.728l-1.066-4.728-7.569,7.8-.623,5.881" fill="none" stroke="#fff" stroke-linecap="round" stroke-linejoin="round" stroke-width="2"/>
    <path id="Path_1048" data-name="Path 1048" d="M581.7,1313.959,595,1283.047l-5.749,5.988,3.42,13.937-.681-9.446-.781-5.332" fill="none" stroke="#fff" stroke-linecap="round" stroke-linejoin="round" stroke-width="2"/>
    <path id="Path_886" data-name="Path 886" stroke="#7e20ff" d="M3421.946-867.693l14.118-21.007-26.889-9.961s-12.2-8.432-14.1-15.643c-.692-2.632,1.639-2.707,2.358-4.535.934-2.411,1.686-4.959,11.74-7.544,5.087-1.308,8.083-.548,12.714-.475,3.9.063,9.374-.529,19.281-4.349,20.055-7.734,22.138-10.716,34.251-19.436s1.6-19.7,10.611-17.249,14.588,11.744,26.51,18.608,11.379,4.566,17.374,7.9,3.779,6.652,8.717,9.2,7.51-1.044,11.037.98,0,9.793,0,9.793" fill="none" transform="translate(-2848 2413)" stroke-linecap="round" stroke-linejoin="round" stroke-width="4" stroke-dasharray="8"/>
    <path id="Path_888" data-name="Path 888" stroke="#7e20ff" d="M3487-967.595s-16.018-.1-18.679-7.572-.37-17.792,5.758-22.977,10.259,2.184,15.833,0,6.465-8.735,6.465-8.735" fill="none" transform="translate(-2848 2413)" stroke-linecap="round" stroke-linejoin="round" stroke-width="4" stroke-dasharray="8"/>
    <path id="Path_1044" data-name="Path 1044" d="M629.022,1283.788l6.434,3.27,27.1-1.753,8.575,10.062-7.018,16.224" fill="none" stroke="#fff" stroke-linecap="round" stroke-linejoin="round" stroke-width="2"/>
    <path id="Path_1043" data-name="Path 1043" d="M599.55,1274.826l-10.035,8.2h19.707l9.4-2.126v5.481l1.652-5.481,8.714,2.126-6.12,3.355v3.765" fill="none" stroke="#fff" stroke-linecap="round" stroke-linejoin="round" stroke-width="2"/>
    <path id="Path_893" data-name="Path 893" d="M3549.448-1021.083l2.6,2.171,12.872-4.757,5.169,3.673,1.836-6.869-10.955-3.681,10.955-9.658-13.544-12.449-6.332-15.533-36.154,6.9v6.188l-5.639,5.772-4.8-7.964,8.143-18.148-11.477-4.117,3.333-13.252-3.333-8.623-22.475,8.623-7.42-10.876-1.929-9.174-8.588-7.19-16.341,21.025-7.116-4.661-6.783,7.861,1.5,5.2h5.279l-3.362,8.62-6.9-2.776-8.65-9.656-1.564,3.813-2.562,2.153,2.562,3.69-14.463,33.192,37.989,22.572,10.167-11.191-6.1-7.491,1.6-6.117,4.505-3.479,30.678,15.7,2.837,22.676,25.262,8.5,20.511,2.79,1.76-2.79-12.584-2.859,7.951-7.813,10.79,7.813Z" transform="translate(-2848 2413)" fill="#f5e7b8" stroke="#fff" stroke-linecap="round" stroke-linejoin="round" stroke-width="4"/>
    <path id="Path_912" data-name="Path 912" d="M3507.491-1048.288l-7.923-13.043-6.127-4.174-5.921,9.078,3.384,3.639v12.377l5.637.5,2.51,3.393Z" transform="translate(-2849 2415)" fill="#dedede" stroke="#c8c29d" stroke-linecap="round" stroke-linejoin="round" stroke-width="2"/>
    <path id="Path_1056" data-name="Path 1056" d="M601.162,1358.117l3.791,3.729,6.81-.649-6.81,1.519.647,4.069,5.049,3.049,8.674-4.295,6.654,4.295-.773,10.108,8.009-6.638,2.91,17.611-7.879,1.614v-1.614l5.607-1.145-.638-1.37-4.969,1.37,2.422-7.332-6.9.5v-8.921" fill="none" stroke="#fff" stroke-linecap="round" stroke-linejoin="round" stroke-width="2"/>
    <path id="Path_1099" data-name="Path 1099" d="M499.862,1495.034l4.37-11.631,14.17,9.118,16.322,4.8-7.509,4.041-13.323-4.041Z" fill="#f3e2ac" stroke="#c8c29d" stroke-linecap="round" stroke-linejoin="round" stroke-width="2"/>
    <g id="Path_1057" data-name="Path 1057" fill="none" stroke-linecap="round" stroke-linejoin="round">
      <path d="M603.471,1373.6l5.059,5.064-2.01,5.642-7.936-4.961,1.7-2.079Z" stroke="none"/>
      <path d="M 603.471435546875 1373.60107421875 L 608.530517578125 1378.665161132812 L 606.520751953125 1384.307006835938 L 598.5849609375 1379.346313476562 L 600.280029296875 1377.267700195312 L 603.471435546875 1373.60107421875 Z" stroke="none" fill="#fff"/>
    </g>
    <path id="Path_1058" data-name="Path 1058" d="M610.672,1370.1l-3.656,13.484,9.562,4.533,8.026-5.211Z" fill="none" stroke="#fff" stroke-linecap="round" stroke-linejoin="round" stroke-width="2"/>
    <path id="Path_1059" data-name="Path 1059" d="M623.483,1376.917l-8.365-8.98" fill="none" stroke="#fff" stroke-linecap="round" stroke-linejoin="round" stroke-width="2"/>
    <path id="Path_1060" data-name="Path 1060" d="M596.169,1382.5l13.658,7.418,2.228-3.462,4.375,1.735,1.563,4.979,11.026-.576-1.286-1.73-9.739.937v-1.883h9.739" fill="none" stroke="#fff" stroke-linecap="round" stroke-linejoin="round" stroke-width="2"/>
    <path id="Path_1174" data-name="Path 1174" d="M720.442,1704.136l-25.766-28.32,1.587,13L703.9,1705l5.715,4.936Z" fill="#79d7f5" stroke="#c8c29d" stroke-width="2"/>
    <path id="Path_1105" data-name="Path 1105" d="M538.163,1475.036l-.984,2.664H527.8l-10.5,8.75-11.047-5.965-2.849,1.081,15.806,10.546,12.078,4.2,1.857-7.84,9.611-11.373Z" fill="#d1e0a8"/>
    <path id="Path_1061" data-name="Path 1061" d="M780.574,1330.545l-10.167,8.744-9.1,13.473,4.7,7.255v14.364h-5.706l-1.417,10.677h9.876l10.657,2.828,12.446,8.044" fill="none" stroke="#fff" stroke-linecap="round" stroke-linejoin="round" stroke-width="4"/>
    <path id="Path_1095" data-name="Path 1095" d="M479.182,1420.3l9.246-8.669,4.548,3.525h8.909l10.482-4.676,12.812-13.734,9.082-.819,9.657,6.138,3.672,8.416-3.672,12.167,1.7,9.11-4.745,5.262-9.809,1.28-1.809-3.551,2.963-1.379,6.154-6.373v-8.281l-4.116-3.561,4.116-8.017-1.614-1.991H525.179v6.484l-7.46-1.151L511.6,1414.3l-9.716,2.963-1.321,7.987h-5.026l-3.986-7.987-5.54,1.461-6.83,5.291,2.849,2.99,10.945,1.163,5.06,7.572,13.565,5.233,3.507,2.032h7.243v4.949H518.57l-4.229-2.542H500.564l-3.912.779-3.676,4.08v5.156l6.829.848,6.641,4.9-7.646-1.706-2.147,1.706,9.794,9.094v10.027l-4.172,4.846-9.3-3.776-12.638-16.1.819-4.09,7.891-3.591-.62-2.919-1.073-5.014v-2.85l-7.017-8.492v-4.931l-4.8-1.612-1.894,9.207,5.54,10.959,5.893,7.536-4.736,10.057,5.673,16.336-15.882-14.224-4.44-1.368,5.832-4.08,4.013-7.876-7.022-10.359-.947-9.646Z" fill="#d1e0a8"/>
    <path id="Path_911" data-name="Path 911" d="M3487-1055.071,3465.141-1061l-8.649-.779-5.355,1.593-4.654,4.47-3.292,7.775,5.631,7.75" transform="translate(-2849.043 2413)" fill="none" stroke="#c8c29d" stroke-linecap="round" stroke-width="2"/>
    <path id="Path_1029" data-name="Path 1029" d="M601.174,1273.648l5.174-17.406,22.674-9.327L619.814,1244s-10.929,11.336-11.223,11.24" fill="none" stroke="#fff" stroke-linecap="round" stroke-linejoin="round" stroke-width="2"/>
    <path id="Path_898" data-name="Path 898" d="M3432.813-1035.312l4.825-7.66,4.675-28.731-8.291-2.294-1.209,3.589-10.67-4.422-13.127,25.494" transform="translate(-2848 2413)" fill="none" stroke="#c8c29d" stroke-width="2"/>
    <path id="Path_894" data-name="Path 894" d="M3414.725-1078.44l18.147,7.581a118.416,118.416,0,0,0-6.108,21.336,118.527,118.527,0,0,0-1.354,22.157" transform="translate(-2848 2413)" fill="none" stroke="#fff" stroke-linecap="round" stroke-linejoin="round" stroke-width="4"/>
    <path id="Path_895" data-name="Path 895" d="M3446.523-1052.9l-36.023-15.642" transform="translate(-2848 2413)" fill="none" stroke="#fff" stroke-linecap="round" stroke-width="4"/>
    <path id="Path_896" data-name="Path 896" d="M3446.523-1045.279l-8.681,1.184-31.713-14.86" transform="translate(-2848 2413)" fill="none" stroke="#fff" stroke-linecap="round" stroke-width="2"/>
    <path id="Path_1033" data-name="Path 1033" d="M663.833,1276.452l11.9,1.743,17.832,12.8,4.2,2.66,8.423-2.66" fill="none" stroke="#fff" stroke-linecap="round" stroke-linejoin="round" stroke-width="2"/>
    <path id="Path_1034" data-name="Path 1034" d="M690.2,1289.674l.188,7.77,7.9,9.869,4.565,15.736H697.04l-10.812,10.384v3.691l-21.107,4.455" fill="none" stroke="#fff" stroke-linecap="round" stroke-linejoin="round" stroke-width="2"/>
    <path id="Path_1054" data-name="Path 1054" d="M539.659,1366.329l-1.868,8.451-17.478-2.33" fill="none" stroke="#fff" stroke-linecap="round" stroke-linejoin="round" stroke-width="2"/>
    <path id="Path_897" data-name="Path 897" d="M3462.176-1118.552s-11.644,11.26-18.848,23.206a102.618,102.618,0,0,0-10.4,24.519" transform="translate(-2848 2413)" fill="none" stroke="#fff" stroke-linecap="round" stroke-width="4"/>
    <path id="Path_899" data-name="Path 899" d="M3442.313-1070.826h10.9l19.7-28.013-8.908-6.624-4.138-5.567" transform="translate(-2848 2413)" fill="none" stroke="#c8c29d" stroke-linecap="round" stroke-linejoin="round" stroke-width="2"/>
    <path id="Path_1063" data-name="Path 1063" d="M793.861,1336.416l-13.2,9.095-4.043,10.35V1386l-1.16-8.541-10.391-3.11" fill="none" stroke="#fff" stroke-linecap="round" stroke-linejoin="round" stroke-width="2"/>
    <path id="Path_1064" data-name="Path 1064" d="M796.3,1375.984l-8.29,2.313H776.057" fill="none" stroke="#fff" stroke-linecap="round" stroke-linejoin="round" stroke-width="2"/>
    <path id="Path_1065" data-name="Path 1065" d="M786.18,1342.378l1.987,15.659-1.987,12.388,4.069,7.026" fill="none" stroke="#fff" stroke-linecap="round" stroke-linejoin="round" stroke-width="2"/>
    <path id="Path_1066" data-name="Path 1066" d="M798.375,1358.976l-21.336-4.01L770.213,1348l11.861-15.646" fill="none" stroke="#fff" stroke-linecap="round" stroke-linejoin="round" stroke-width="2"/>
    <path id="Path_1067" data-name="Path 1067" d="M774.319,1352.3l-7.329,12.551" fill="none" stroke="#fff" stroke-linecap="round" stroke-linejoin="round" stroke-width="2"/>
    <path id="Path_900" data-name="Path 900" d="M3450.3-1060.724l-8.682-5.763" transform="translate(-2848 2413)" fill="none" stroke="#c8c29d" stroke-linecap="round" stroke-width="2"/>
    <path id="Path_901" data-name="Path 901" d="M3458.252-1056.79l-5.124-13.9" transform="translate(-2848 2413)" fill="none" stroke="#c8c29d" stroke-linecap="round" stroke-width="2"/>
    <path id="Path_902" data-name="Path 902" d="M3465.281-1070.338l-7.644-6.36Z" transform="translate(-2848 2413)" fill="none" stroke="#c8c29d" stroke-linecap="round" stroke-width="2"/>
    <path id="Path_1107" data-name="Path 1107" d="M597.694,1562.989l2.629-5.358h5.21l9.872,10.785.611,6.2-8.5-7.139Z" transform="translate(-1)" fill="#f5e7b8" stroke="#c8c29d" stroke-width="2"/>
    <path id="Path_903" data-name="Path 903" d="M3464.847-1061.349v-8.761l13.844-17.472,11.317-5.516H3502.2" transform="translate(-2848 2413)" fill="none" stroke="#c8c29d" stroke-linecap="round" stroke-linejoin="round" stroke-width="2"/>
    <path id="Path_904" data-name="Path 904" d="M3498.154-1074.831,3488.087-1083l-13.873-6.512-22.838-13.667" transform="translate(-2848 2413)" fill="none" stroke="#c8c29d" stroke-width="2"/>
    <path id="Path_905" data-name="Path 905" d="M3494.565-1099.955v10.235l-2.848,8.724" transform="translate(-2848 2413)" fill="none" stroke="#c8c29d" stroke-width="2"/>
    <path id="Path_907" data-name="Path 907" d="M3503.912-1089.134l-4.981,14-6.408,12.235" transform="translate(-2848 2413)" fill="none" stroke="#c8c29d" stroke-width="2"/>
    <path id="Path_908" data-name="Path 908" d="M3481.906-1070.826l-4.486,7.265v6.176" transform="translate(-2848 2413)" fill="none" stroke="#c8c29d" stroke-linecap="round" stroke-linejoin="round" stroke-width="2"/>
    <path id="Path_906" data-name="Path 906" d="M3491.717-1063.741l-55.291-39.954" transform="translate(-2848 2413)" fill="none" stroke="#fff" stroke-linecap="round" stroke-linejoin="round" stroke-width="4"/>
    <path id="Path_909" data-name="Path 909" d="M3487.331-1054.523l5.138-10.085Z" transform="translate(-2848 2413)" fill="none" stroke="#fff" stroke-linecap="round" stroke-linejoin="round" stroke-width="4"/>
    <path id="Path_1035" data-name="Path 1035" d="M697.712,1306.185l20.854-2.414,8.946,6.314,8.2,12.532,12.358-10.206,13.073,6.8-.677,11.193,2.645,17.771-5.35-6.161H744.935l-6.58,3.943-2.642,8.986,1.717,12.037-3.928,13.234" fill="none" stroke="#fff" stroke-linecap="round" stroke-linejoin="round" stroke-width="2"/>
    <path id="Path_910" data-name="Path 910" d="M3478.593-1044.1v-6.463l-20.23-6.054" transform="translate(-2848 2413)" fill="none" stroke="#c8c29d" stroke-width="2"/>
    <path id="Path_913" data-name="Path 913" d="M3493.218-1019.156l1.121-8.979,3.928-7.055" transform="translate(-2848 2413)" fill="none" stroke="#c8c29d" stroke-linecap="round" stroke-width="2"/>
    <path id="Path_914" data-name="Path 914" d="M3509.133-1013.691v-6.98l-14.29-6.6" transform="translate(-2848 2413)" fill="none" stroke="#c8c29d" stroke-linecap="round" stroke-width="2"/>
    <path id="Path_1037" data-name="Path 1037" d="M698.151,1307.18l9.068,12.351,1.543,4.919,5.661,6.974,5.812,5.615-7.5,12.761-5.518-1.4" fill="none" stroke="#fff" stroke-linecap="round" stroke-linejoin="round" stroke-width="2"/>
    <path id="Path_915" data-name="Path 915" d="M3515.946-1012.193v-5.139l21.064-33.078,11.084-8.017,4.469,8.017,7.886,4.969" transform="translate(-2848 2413)" fill="none" stroke="#c8c29d" stroke-linecap="round" stroke-width="2"/>
    <path id="Path_916" data-name="Path 916" d="M3548.074-1058.574l-.81-5.891-27.582,5.3,1.026,6.146h11.663v-2.857l12.478-7.238" transform="translate(-2848 2413)" fill="none" stroke="#c8c29d" stroke-linecap="round" stroke-width="2"/>
    <path id="Path_917" data-name="Path 917" d="M3522.038-1045.173v-7.838" transform="translate(-2848 2413)" fill="none" stroke="#c8c29d" stroke-linecap="round" stroke-width="2"/>
    <path id="Path_918" data-name="Path 918" d="M3509.133-1021.458l9.318-13.633v-10.128h3.782" transform="translate(-2848 2413)" fill="none" stroke="#c8c29d" stroke-linecap="round" stroke-width="2"/>
    <path id="Path_1104" data-name="Path 1104" d="M545.813,1432.526l8.521,1.188,4.383,5.554-2.5,7.693-8.446-2.711-2.8,2.711-6.356,9.013v3.326h-5.72l-4.87-4.626-.736-4.945,3.8-3.953,13.056-4.873v-5.511Z" fill="#d1e0a8"/>
    <path id="Path_919" data-name="Path 919" d="M3539.243-1019.936l-7.739-4.6-11.582,1.5-21.613-11.411" transform="translate(-2848 2413)" fill="none" stroke="#c8c29d" stroke-linecap="round" stroke-width="2"/>
    <path id="Path_920" data-name="Path 920" d="M3554.546-1031.517l1.765-7.155-3.349-7.772" transform="translate(-2848 2413)" fill="none" stroke="#c8c29d" stroke-linecap="round" stroke-width="2"/>
    <path id="Path_887" data-name="Path 887" stroke="#7e20ff" d="M3582-1016.042s-21.019,11.008-45.476,12.794S3484-1010.11,3484-1010.11s-28.221-9.989-50.012-14.973c-13.628-3.117-23.448-1.425-34.948-4.283-29.338-7.289-32.391-9.9-32.391-9.9" fill="none" transform="translate(-2848 2413)" stroke-linecap="round" stroke-linejoin="round" stroke-width="4" stroke-dasharray="8"/>
    <path id="Path_921" data-name="Path 921" d="M3540.061-1019.524l14.244-11.789" transform="translate(-2848 2413)" fill="none" stroke="#c6bba0" stroke-linecap="round" stroke-width="2"/>
    <path id="Path_922" data-name="Path 922" d="M786.69,1187.094a39.011,39.011,0,0,1-22.051-7.185c-10.7-7.634-13.9-19.626-20.737-23.351-9.794-5.339-31.266-9.836-31.266-9.836l2.483,9.836" fill="none" stroke="#fff" stroke-width="2"/>
    <path id="Path_889" data-name="Path 889" stroke="#7e20ff" d="M3587.579-1020.359s-14.2-17.67-24.2-29.062-5.864-16.644-12.074-18.325-51.266,6.344-61.824,11.966-4.3,44.377-4.3,44.377" fill="none" transform="translate(-2848 2413)" stroke-linecap="round" stroke-linejoin="round" stroke-width="4" stroke-dasharray="8"/>
    <path id="Path_1103" data-name="Path 1103" d="M556.936,1447.975l-9.187-2.842-4.305,6.085-3.8,4.243,2.772,5.945,8.794-2.907Z" fill="#fff" stroke="#fff" stroke-linecap="round" stroke-linejoin="round" stroke-width="2"/>
    <path id="Path_1026" data-name="Path 1026" d="M603.376,1239.146l25.615,7.755,14.652,3.183,24.178,8.139,1.442-10.451,4.235,8.859h7.983l6.873,4.669" fill="none" stroke="#fff" stroke-linecap="round" stroke-linejoin="round" stroke-width="2"/>
    <path id="Path_1024" data-name="Path 1024" d="M696.966,1175.666l.245-12.052" fill="none" stroke="#fff" stroke-linecap="round" stroke-width="2"/>
    <path id="Path_1015" data-name="Path 1015" d="M753.326,1221.229l-2.471-9.969-9.516-18.139-4.641-8.139-9.005-7.343-9.984,2.849-10.206-2.849H696.966l6.28-11.611,11.269-9.4,8.374-14.408,6.43-1.847v-6.694" fill="none" stroke="#fff" stroke-linecap="round" stroke-linejoin="round" stroke-width="2"/>
    <path id="Path_1016" data-name="Path 1016" d="M736.591,1184.854l2.478-7.6-2.478-8.241,6.947-14.154,3.668,2.523L736.591,1132.4l-4.923,12.655-8.422,4.018" fill="none" stroke="#fff" stroke-linecap="round" stroke-linejoin="round" stroke-width="2"/>
    <path id="Path_1017" data-name="Path 1017" d="M740.324,1191.121l20.662-14.223,3.063-1.582,7.328-3.785-8.742-12.34V1176.9" fill="none" stroke="#fff" stroke-linecap="round" stroke-linejoin="round" stroke-width="2"/>
    <path id="Path_1018" data-name="Path 1018" d="M620.477,1198.932l45.98-15.378,18.611-8.769,4.366,4.3,7.457-1.592-5.653,13.662,28.91,44.661" fill="none" stroke="#fff" stroke-linecap="round" stroke-linejoin="round" stroke-width="2"/>
    <path id="Path_1019" data-name="Path 1019" d="M720.149,1238.726l-16.337,2.043-8.166-5.072,3.443-2.867h-7.9l-6.223-9.988-8.861-5.623-3.212-17.576,18.3-8.654" fill="none" stroke="#fff" stroke-linecap="round" stroke-linejoin="round" stroke-width="2"/>
    <path id="Path_1020" data-name="Path 1020" d="M641.9,1177.453l-1.064,14.44,3.525,6.243-2.461,10v7.975l5.993,7.291,5.156,2.4" fill="none" stroke="#fff" stroke-linecap="round" stroke-linejoin="round" stroke-width="2"/>
    <path id="Path_1096" data-name="Path 1096" d="M495.955,1425.764l-4.484-8.355-4.123.892-7.159,6.089,1.445,2.729,11.631,1.342,4.714,7.113,10.778,4.265,6,2.444,7.139,1.271v4.275h-4.109l-4.5-2.074H497.134l-3.869,5.827v4.328h7.261l6.739,4.953-8.223-1.424-1.908,1.424,10.131,11.125v8.222l9.762,6.7,10.4-9.08h10.19l2.292-6.631-1.334-11.763h-5.417l-5.731-5.422v-5.151l3.416-3.11,13.443-4.491v-7.316l-11.127,5.02-4.243-3.394,9.66-8.454V1418.3l-4.167-3.15,4.167-8.109-.958-2.115-11.877.759v6.177l-7.09-1.117-15.79,6.663-2.339,8.355Z" fill="#f3e2ac" stroke="#c8c29d" stroke-linecap="round" stroke-linejoin="round" stroke-width="2"/>
    <path id="Path_1021" data-name="Path 1021" d="M672.893,1199.442l-8.193,1.338-15.2-11.831,3.247-7.452-6.32-1.438-1.334,2.989,5.78,2.458" fill="none" stroke="#fff" stroke-linecap="round" stroke-linejoin="round" stroke-width="2"/>
    <path id="Path_1022" data-name="Path 1022" d="M649.129,1189.5l-8.025-4.033" fill="none" stroke="#fff" stroke-linecap="round" stroke-linejoin="round" stroke-width="2"/>
    <path id="Path_1023" data-name="Path 1023" d="M681.182,1183.928l-1.7,7.057v5.664" fill="none" stroke="#fff" stroke-linecap="round" stroke-linejoin="round" stroke-width="2"/>
    <path id="Path_1077" data-name="Path 1077" d="M641.879,1443.657l17.767-20,76.7,21.79h14.377l-11.736.533.828,13.276,9.683,6.3-1.053-5.622v-8.181s2.124-5.638,2.277-6.3" fill="none" stroke="#fff" stroke-linecap="round" stroke-linejoin="round" stroke-width="2"/>
    <path id="Path_1078" data-name="Path 1078" d="M743.748,1448.522l.059,9.227" fill="none" stroke="#fff" stroke-linecap="round" stroke-linejoin="round" stroke-width="2"/>
    <path id="Path_1079" data-name="Path 1079" d="M777.963,1490.269l-7.322-16.412-9.126-6.623-11.992-2.147" fill="none" stroke="#fff" stroke-linecap="round" stroke-linejoin="round" stroke-width="2"/>
    <path id="Path_1080" data-name="Path 1080" d="M777.963,1489.438l4.249-1.365-1.4-3.551h-5.137" fill="none" stroke="#fff" stroke-linecap="round" stroke-linejoin="round" stroke-width="2"/>
    <path id="Path_1025" data-name="Path 1025" d="M753.326,1189.5l-2.854-4.516H736.8" fill="none" stroke="#fff" stroke-linecap="round" stroke-linejoin="round" stroke-width="2"/>
    <path id="Path_1027" data-name="Path 1027" d="M619.544,1243.741l4.869-5.382,8.768,1.113-7.554-12.459-1.214-10.477" fill="none" stroke="#fff" stroke-linecap="round" stroke-linejoin="round" stroke-width="2"/>
    <path id="Path_1028" data-name="Path 1028" d="M649.129,1248.081l-5.713,1.551v-4.318l-11.123-6.115" fill="none" stroke="#fff" stroke-linecap="round" stroke-linejoin="round" stroke-width="2"/>
    <path id="Path_1030" data-name="Path 1030" d="M603.376,1266.973l24.263-11.283" fill="none" stroke="#fff" stroke-linecap="round" stroke-linejoin="round" stroke-width="2"/>
    <path id="Path_1031" data-name="Path 1031" d="M638.8,1253.608l25.032,18.191-1.107,13.2" fill="none" stroke="#fff" stroke-linecap="round" stroke-linejoin="round" stroke-width="2"/>
    <path id="Path_1032" data-name="Path 1032" d="M667.946,1258.821l-1.688,12.982" transform="translate(0 -2)" fill="none" stroke="#fff" stroke-linecap="round" stroke-linejoin="round" stroke-width="2"/>
    <path id="Path_1036" data-name="Path 1036" d="M735.639,1322.181l2.037,7.656,3.448,7.715,5.056,4.826" fill="none" stroke="#fff" stroke-linecap="round" stroke-linejoin="round" stroke-width="2"/>
    <path id="Path_1038" data-name="Path 1038" d="M712.448,1349.8l3.307,8.925,5.551,2.663v4.76l1.237-5.429,4.644-1.994h2.125V1343.76l1.982-4.729v-9.29l-8.751-10.311-3.507-6.639v-8.324" fill="none" stroke="#fff" stroke-linecap="round" stroke-linejoin="round" stroke-width="2"/>
    <path id="Path_1039" data-name="Path 1039" d="M706.3,1305.308l8.081,4.689,3.409,11.313-14.391,1.619" fill="none" stroke="#fff" stroke-linecap="round" stroke-linejoin="round" stroke-width="2"/>
    <path id="Path_1040" data-name="Path 1040" d="M728.693,1311.8l-1.263,14.44-3.232,3.784-1.7,4.413-8.579-3.729" fill="none" stroke="#fff" stroke-linecap="round" stroke-linejoin="round" stroke-width="2"/>
    <path id="Path_1041" data-name="Path 1041" d="M740.91,1337.186l-5.126,3.125h-7.572l-5.649-5.826" fill="none" stroke="#fff" stroke-linecap="round" stroke-linejoin="round" stroke-width="2"/>
    <path id="Union_2" data-name="Union 2" d="M-2848,2495.028l1.076-6.519,8.979-10.9,11.349,3.1,1.81-1.91-12.3-4.108-.858-13.9,8.864-2.515,5.176-10.16,3.8,1.467-3.8-1.746,2.529-8.91-4.355-5.6-7.858-.974-1.409-11.257,2.6-8.094,9.643,2.937v4.038l10.036-2.012,2.58,5.587,6.68-.736,5.01,2.494h5.976l4.955,2.028-2.116,7.1,6.453,6.943-2.17,6.452,2.17,5.129-13.452,3.464-10.126-5.9-12.547-.64,3.266,1.26v5.531l13.8,4.107,2.268,7.6,6.523-3.237,5.6,6.779-7.993,5.681-3.357-1.8-12.6,11.4-10.578-3.572-10.483,2.514-6.266-2.514,2.036,11.775Z" transform="translate(3380.056 -999.993)" fill="#f3e2ac" stroke="#c8c29d" stroke-linecap="round" stroke-linejoin="round" stroke-width="2"/>
    <path id="Path_1049" data-name="Path 1049" d="M582.957,1327.026l-1.723-12.547L578.4,1311.1l4.561-6.6" fill="none" stroke="#fff" stroke-linecap="round" stroke-linejoin="round" stroke-width="2"/>
    <path id="Path_1050" data-name="Path 1050" d="M581.7,1318.311l-3.306-2.571-5.489-.725" fill="none" stroke="#fff" stroke-linecap="round" stroke-linejoin="round" stroke-width="2"/>
    <path id="Path_1052" data-name="Path 1052" d="M544.064,1361.474l-8.81-3.828" fill="none" stroke="#fff" stroke-linecap="round" stroke-linejoin="round" stroke-width="2"/>
    <path id="Path_1053" data-name="Path 1053" d="M540.682,1365.317l7.882,5.9" fill="none" stroke="#fff" stroke-linecap="round" stroke-linejoin="round" stroke-width="2"/>
    <path id="Path_1086" data-name="Path 1086" d="M771.141,1392.841l5.618,6.013-1.582.615-5-5.419-1.287,1.435,5.048,5.425" fill="none" stroke="#fff" stroke-linecap="round" stroke-linejoin="round" stroke-width="2"/>
    <path id="Path_1087" data-name="Path 1087" d="M770.907,1433.9l11.133,3.214-2.865,5.3H774.71l-3.264-3.6Z" fill="#fff"/>
    <path id="Path_1055" data-name="Path 1055" d="M561.016,1366.329l-4.14,7.82" fill="none" stroke="#fff" stroke-linecap="round" stroke-linejoin="round" stroke-width="2"/>
    <path id="Path_1071" data-name="Path 1071" d="M654.412,1429.821l23.635,7.49,26.063,8.1,3.232-8.1,5.173,1.717-4.207,11.822-6.116,17.187,7.832-17.187,10.767,4.294-8.276,27.99-10.323-3.743" fill="none" stroke="#c8c29d" stroke-linecap="round" stroke-linejoin="round" stroke-width="2"/>
    <path id="Path_1072" data-name="Path 1072" d="M727.213,1442.509l-1.957,8.436,13.589,3.412" fill="none" stroke="#c8c29d" stroke-linecap="round" stroke-linejoin="round" stroke-width="2"/>
    <path id="Path_1073" data-name="Path 1073" d="M770.919,1442.509,767.2,1447.7l11.446,12.464H765.668l-2.907,6.7" fill="none" stroke="#c8c29d" stroke-linecap="round" stroke-linejoin="round" stroke-width="2"/>
    <path id="Path_1074" data-name="Path 1074" d="M786.18,1485.868l-2.113-5.66h-2.505l-5.51-14.463,2.048-5.318" fill="none" stroke="#c8c29d" stroke-linecap="round" stroke-linejoin="round" stroke-width="2"/>
    <path id="Path_1075" data-name="Path 1075" d="M793.523,1462.651l-1.594,7.682,7.233,15.939" fill="none" stroke="#c8c29d" stroke-linecap="round" stroke-linejoin="round" stroke-width="2"/>
    <path id="Path_1076" data-name="Path 1076" d="M777.409,1463.309l7.572,2.343,5,13.295-5.844,1.417,5.844-1.417,2.838,7.446" fill="none" stroke="#c8c29d" stroke-linecap="round" stroke-linejoin="round" stroke-width="2"/>
    <path id="Path_1082" data-name="Path 1082" d="M741.13,1445.255l-.435-21.071,4.568-5h6.011l-1.185,7.305-8.959-1.406,8.262.709,1.091-6.113h-5.22l-4.133,4.828,7.853.576.773-4.95h-4.493l-3.067,4.05h6.455l.332-3.542h-3.72l-1.618,2.974h4.5v-2.367h-2.587l-.78,1.74h2.892v-1.22h-1.639v.7h1.062" fill="none" stroke="#fff" stroke-linecap="round" stroke-linejoin="round" stroke-width="2"/>
    <path id="Path_1090" data-name="Path 1090" d="M489.889,1411.747l3.342,3.416,10.02-.637,7.644-2.779,14.3-15.062,9.991-1.083v-16.009" fill="none" stroke="#fff" stroke-linecap="round" stroke-linejoin="round" stroke-width="2"/>
    <path id="Path_1091" data-name="Path 1091" d="M547.758,1444.716,543.706,1422l4.123-10.783-4.123-9.646-8.954-6" fill="none" stroke="#fff" stroke-linecap="round" stroke-linejoin="round" stroke-width="2"/>
    <path id="Path_1092" data-name="Path 1092" d="M543.443,1389.7l4.521,8.127,9.544.631,48.222,15.234,2.526-2.481,6.512,2.272-2.021,3.281,8.082-3.008,9.59-6.093-8.911-2.46-22.107-3.042-14.429-5.572-26.5-6.1-6.69-3.634Z" fill="#eaeaea" stroke="#d1d1d1" stroke-linecap="round" stroke-linejoin="round" stroke-width="2"/>
    <path id="Path_1093" data-name="Path 1093" d="M548.689,1399.992l-2.1,4.04,2.365,1.717,1.775-.717L555.14,1413l14.886,1.316,13.438,7.88,21.159,1.345,4.148,2.568,3.467-2.568h5.614l1.1-3.766-59.737-19.018Z" fill="#bcbcbc" stroke="#bcbcbc" stroke-linecap="round" stroke-linejoin="round" stroke-width="2"/>
    <path id="Path_1094" data-name="Path 1094" d="M535.1,1387.133l9.067,2.792v5.989l4.6,4.56,8.337-.9,54.364,17.259.82-1-6.381-1.864,1.167-.845,6.1,1.9v-1.058l-4.62-1.419" fill="none" stroke="#fff" stroke-linecap="round" stroke-linejoin="round" stroke-width="2"/>
    <path id="Path_1097" data-name="Path 1097" d="M479.131,1432.535l7.966,14.19v6.478l1.788,3.94-1.788,4.807-9.482-11.222-3.862-7.911,1.039-8.351Z" fill="#f3e2ac" stroke="#c8c29d" stroke-linecap="round" stroke-linejoin="round" stroke-width="2"/>
    <path id="Path_1098" data-name="Path 1098" d="M480.189,1470.178l4.407-6.123,7.588,13.971-3.039,5.291Z" fill="#f3e2ac" stroke="#c8c29d" stroke-linecap="round" stroke-linejoin="round" stroke-width="2"/>
    <g id="Ellipse_42" data-name="Ellipse 42" transform="translate(544 1444)" fill="#fff" stroke="#c8c29d" stroke-linejoin="round" stroke-width="2">
      <circle cx="4" cy="4" r="4" stroke="none"/>
      <circle cx="4" cy="4" r="3" fill="none"/>
    </g>
    <path id="Path_1110" data-name="Path 1110" d="M551.707,1492.383l23.493,11.076,9.97,3.387,67.759.776v-5.685l-4.409-7.2h-5.635l3.735-7.608,3.3-10.781-13.226-4.034-2.022,6.542.834,4.9,1.188,12.733,1.181,10.359" fill="none" stroke="#c8c29d" stroke-width="2"/>
    <path id="Path_1111" data-name="Path 1111" d="M565.715,1487.566l-.378,26.136" fill="none" stroke="#c8c29d" stroke-linecap="round" stroke-linejoin="round" stroke-width="2"/>
    <path id="Path_1112" data-name="Path 1112" d="M554.188,1497.829l22.859-.444,9.129.444,7.173,7.45.839,26.629" fill="none" stroke="#c8c29d" stroke-linecap="round" stroke-linejoin="round" stroke-width="2"/>
    <path id="Path_1113" data-name="Path 1113" d="M576.262,1486.75l1.263,31.489" fill="none" stroke="#c8c29d" stroke-linecap="round" stroke-linejoin="round" stroke-width="2"/>
    <path id="Path_1114" data-name="Path 1114" d="M576.262,1489.967l12.67.727,10.12,6.03,6.336,10.184" fill="none" stroke="#c8c29d" stroke-linecap="round" stroke-linejoin="round" stroke-width="2"/>
    <path id="Path_1115" data-name="Path 1115" d="M586.925,1498.438,590,1491.6" fill="none" stroke="#c8c29d" stroke-linecap="round" stroke-linejoin="round" stroke-width="2"/>
    <path id="Path_1116" data-name="Path 1116" d="M561.126,1508.571l15.686,1.664,10.893,1.512,11.293,5.3,29.466-1.474-3.812-40.347,2.975-5.754" fill="none" stroke="#c8c29d" stroke-linecap="round" stroke-linejoin="round" stroke-width="2"/>
    <path id="Path_1117" data-name="Path 1117" d="M584.527,1511.984l-.22,10.539" fill="none" stroke="#c8c29d" stroke-linecap="round" stroke-linejoin="round" stroke-width="2"/>
    <path id="Path_1136" data-name="Path 1136" d="M648.46,1514.448l-.46,11.483" fill="none" stroke="#c8c29c" stroke-linecap="round" stroke-linejoin="round" stroke-width="2"/>
    <path id="Path_1120" data-name="Path 1120" d="M616.242,1483.134l19.8-.733,18.969,6,2.149-6-8.455-3.1" transform="translate(1 1)" fill="none" stroke="#c8c29d" stroke-linecap="round" stroke-linejoin="round" stroke-width="2"/>
    <path id="Path_1121" data-name="Path 1121" d="M659.6,1475.395l-.6,8.129" transform="translate(-1 1)" fill="none" stroke="#c8c29d" stroke-linecap="round" stroke-linejoin="round" stroke-width="2"/>
    <path id="Path_1122" data-name="Path 1122" d="M620.786,1541.5l-3.036-44.068" fill="none" stroke="#c8c29d" stroke-linecap="round" stroke-linejoin="round" stroke-width="2"/>
    <path id="Path_1123" data-name="Path 1123" d="M597.692,1538.4l7.088-11.375,6.129,5.313,11.582.936,9.253-2.34-2.952-15.009,3.757,15.009,7.356-.8-1.709-22.293,1.709,22.293,4.852,9.166L655,1542.448l1.149.353-.759-17.762h-7.33v11.227l-3.305,3.034-.8,6.9s.766-7.11.8-6.9l11.394,3.5,9.559-.353,1.11-9.17-2.763-8.239s-8.268.091-8.664,0" fill="none" stroke="#c8c29d" stroke-linecap="round" stroke-linejoin="round" stroke-width="2"/>
    <path id="Path_1184" data-name="Path 1184" d="M690.115,1512.474l8.089-12.451,9.1-2.183,7.383-3.025,8.608,3.779,21.006-1.737,6.24,5.528-15.594,5.776,3.872,6.448H711.069l-11.536-4.793Z" fill="#79d7f5" stroke="#79d7f5" stroke-linecap="round" stroke-linejoin="round" stroke-width="2"/>
    <path id="Path_884" data-name="Path 884" stroke="#7e20ff" d="M3602.3-911.343s2.852-9.214,1.562-15.6-4.132-.225-6.723-9.938-2.412-12.569-1.122-24.391,5.2-12.88,6.283-22.9,1.271-15.317-2.17-20.162-8.842-2.837-13.417-6.083-4.883-6.9-4.883-6.9,17.737-10.447,32.106-10.447,26.78,11.762,26.78,11.762" fill="none" transform="translate(-2848 2413)" stroke-linecap="round" stroke-linejoin="round" stroke-width="4" stroke-dasharray="8"/>
    <path id="Path_1140" data-name="Path 1140" d="M661.222,1585.167l8.972-24.858,9.689-23.383" fill="none" stroke="#fff" stroke-linecap="round" stroke-linejoin="round" stroke-width="2"/>
    <path id="Path_1124" data-name="Path 1124" d="M659.837,1497.772l5.2,7.734-2.238,7.548,1.02,11.792" fill="none" stroke="#c8c29d" stroke-linecap="round" stroke-linejoin="round" stroke-width="2"/>
    <path id="Path_1125" data-name="Path 1125" d="M658.6,1481.79l7.629,3.952v3.993l3.6,1.209-1.88,3.381h-3.6l-3.74,2.782-9,1.007" fill="none" stroke="#c8c29d" stroke-linecap="round" stroke-linejoin="round" stroke-width="2"/>
    <path id="Path_1126" data-name="Path 1126" d="M676.693,1513.532l2.679-7.369-.8-8.348-5.8-6.733-.723-3.61-5.1-1.4" fill="none" stroke="#c8c29d" stroke-linecap="round" stroke-linejoin="round" stroke-width="2"/>
    <path id="Path_1127" data-name="Path 1127" d="M676.866,1529.53l-7.126-12.927-2.285-22.064" fill="none" stroke="#c8c29c" stroke-linecap="round" stroke-linejoin="round" stroke-width="2"/>
    <path id="Path_1128" data-name="Path 1128" d="M582.046,1521.883l12.638,2.6h24.831l10.359-8.691-10.359,8.691-8.968,8.844-6.039,17.439" fill="none" stroke="#fff" stroke-linecap="round" stroke-linejoin="round" stroke-width="2"/>
    <path id="Path_1129" data-name="Path 1129" d="M678.177,1514.073l-39.557.391" fill="none" stroke="#fff" stroke-linecap="round" stroke-linejoin="round" stroke-width="2"/>
    <path id="Path_1130" data-name="Path 1130" d="M655.615,1489.967l-4.491,7.2" fill="none" stroke="#c8c29d" stroke-linecap="round" stroke-linejoin="round" stroke-width="2"/>
    <path id="Path_1134" data-name="Path 1134" d="M585.043,1506.909l-.286,4.722" fill="none" stroke="#c8c29d" stroke-width="2"/>
    <path id="Path_1135" data-name="Path 1135" d="M630.216,1515.53l8.885-1.082" fill="none" stroke="#fff" stroke-linecap="round" stroke-linejoin="round" stroke-width="2"/>
    <path id="Path_1137" data-name="Path 1137" d="M681.735,1518.652l5.441,8.15-4.258,9.7" fill="none" stroke="#c8c29c" stroke-linecap="round" stroke-linejoin="round" stroke-width="2"/>
    <path id="Path_1138" data-name="Path 1138" d="M682.881,1536.469l-6.176-7.1" fill="none" stroke="#c8c29c" stroke-linecap="round" stroke-width="2"/>
    <path id="Path_1139" data-name="Path 1139" d="M785.117,1602.967l-104.982-66.1" fill="none" stroke="#fff" stroke-linecap="round" stroke-linejoin="round" stroke-width="2"/>
    <path id="Path_1141" data-name="Path 1141" d="M675.348,1548.351l28.365,17.441L682.8,1598.955l-23.934-14.306" fill="none" stroke="#fff" stroke-linecap="round" stroke-linejoin="round" stroke-width="2"/>
    <path id="Path_1142" data-name="Path 1142" d="M703.762,1565.754l-28.6-17.438" fill="none" stroke="#fff" stroke-linecap="round" stroke-linejoin="round" stroke-width="2"/>
    <path id="Path_1143" data-name="Path 1143" d="M698.873,1573.653l-27.3-16.589" fill="none" stroke="#fff" stroke-linecap="round" stroke-linejoin="round" stroke-width="2"/>
    <path id="Path_1144" data-name="Path 1144" d="M692.942,1582.886l-25.016-14.847" fill="none" stroke="#fff" stroke-linecap="round" stroke-linejoin="round" stroke-width="2"/>
    <path id="Path_1145" data-name="Path 1145" d="M689.253,1588.387l-10.959-7.135" fill="none" stroke="#fff" stroke-linecap="round" stroke-linejoin="round" stroke-width="2"/>
    <path id="Path_1146" data-name="Path 1146" d="M675.838,1584.1l-11.689-7.113" fill="none" stroke="#fff" stroke-linecap="round" stroke-linejoin="round" stroke-width="2"/>
    <path id="Path_1165" data-name="Path 1165" d="M723.932,1526.791l11.14,3.56,7.653,8.1v8.031l4.89,6.938v5.69" fill="none" stroke="#c8c29c" stroke-linecap="round" stroke-linejoin="round" stroke-width="2"/>
    <path id="Path_1166" data-name="Path 1166" d="M750.511,1526.791l-9.882,1.223-4.26,3.465" fill="none" stroke="#c8c29c" stroke-linecap="round" stroke-linejoin="round" stroke-width="2"/>
    <path id="Path_1167" data-name="Path 1167" d="M719.553,1550.085l4.519-9.517V1527.1" fill="none" stroke="#c8c29c" stroke-linecap="round" stroke-linejoin="round" stroke-width="2"/>
    <path id="Path_1168" data-name="Path 1168" d="M742.733,1546.469l-9.353-5.622-9.159-.617" fill="none" stroke="#c8c29c" stroke-width="2"/>
    <path id="Path_1169" data-name="Path 1169" d="M723.932,1558.343l-4.941-3.892.454-4.114,6.525-.578,3.206-4.967,10.637,6.264-.559,3.932h-8.377l-1.7,3.355Z" fill="#d1e0a8" stroke="#c8c29c" stroke-linecap="round" stroke-linejoin="round" stroke-width="2"/>
    <path id="Path_1170" data-name="Path 1170" d="M707.62,1568.039l-4.158,8.593,7.742,6.061v4.536l14.087,10.921,9.035-13.668-13.576-7.85-13.13-8.593" transform="translate(-1)" fill="#d1e0a8" stroke="#fefcf7" stroke-linecap="round" stroke-linejoin="round" stroke-width="2"/>
    <path id="Path_1171" data-name="Path 1171" d="M751.52,1582.886l-10.511,15.547,11.671,8.349,6.754-10.736,2.5-6.817Z" fill="#d1e0a8" stroke="#fff" stroke-width="2"/>
    <path id="Path_883" data-name="Path 883" stroke="#7e20ff" d="M3632.98-810.6s-16.46-5.834-22.854-12.213-3.131-6.693-2.721-13.3-.338-2.36-2.539-18.465c-1.2-8.754.482-27.436,0-34.1-.321-4.443-4.007-6.2-4.611-8.92-1.614-7.28-.414-8.17,2.073-10.324,3.28-2.842,5.746,3.124,11.824,4.937s8.141-1.571,13.389,1.18,2.06,6.826,7.6,9.825c1.834.993,5.254-.524,7.343,0,3.338.842,5.116,2.954,7.225,2.171,3.152-1.17,5.468-6.6,5.468-6.6" fill="none" transform="translate(-2848 2413)" stroke-linecap="round" stroke-linejoin="round" stroke-width="4" stroke-dasharray="8"/>
    <path id="Path_1175" data-name="Path 1175" d="M631.948,1531.238l2.339,14.578" fill="none" stroke="#c8c29d" stroke-linecap="round" stroke-linejoin="round" stroke-width="2"/>
    <path id="Path_1177" data-name="Path 1177" d="M665.525,1542.273l8.757,3.039" fill="none" stroke="#c8c29d" stroke-linecap="round" stroke-width="2"/>
    <path id="Path_1176" data-name="Path 1176" d="M655.615,1542.643l-2.331,4.585" fill="none" stroke="#c8c29d" stroke-linecap="round" stroke-linejoin="round" stroke-width="2"/>
    <path id="Path_1181" data-name="Path 1181" d="M661.222,1566.679l-6.6-3.263-5.795,4.981,6.922,5.183Z" fill="#d1e0a8"/>
    <path id="Path_885" data-name="Path 885" stroke="#7e20ff" d="M3597.826-935.666s-3.455,11.495-15.217,14.815c-5.116,1.444-12.552-2.661-18.776-3.268a28.9,28.9,0,0,0-13.056,1.734s-6.3,1.6-13.7,15.233-6.78,27.718-16.365,38.462-43.729-1.754-52.5,4.517-4.569,25.085-4.569,25.085" fill="none" transform="translate(-2848 2413)" stroke-linecap="round" stroke-linejoin="round" stroke-width="4" stroke-dasharray="8"/>
    <path id="Path_1183" data-name="Path 1183" d="M633.118,1572.136l4.86-2.56-2-5.089-3.819,2.691Z" fill="#d1e0a8"/>
    <path id="Path_1178" data-name="Path 1178" d="M625.2,1551.785,639.92,1565.4l4.272,6.631v8.545" fill="none" stroke="#c8c29d" stroke-linecap="round" stroke-linejoin="round" stroke-width="2"/>
    <path id="Path_1179" data-name="Path 1179" d="M621.14,1561.134l11.633,5.857,11.015-7.7,2.608-8.8-2.608,8.8-7.453-8.8" fill="none" stroke="#c8c29d" stroke-linecap="round" stroke-linejoin="round" stroke-width="2"/>
    <path id="Path_1180" data-name="Path 1180" d="M644.192,1572.216l10.29-9.218v-3.115l10.006,1.059-2.548,5.463s-7.491-3.35-7.458-3.407,7.458,3.407,7.458,3.407l-6.172,6.962-7.709-4.336,7.709,4.336,6.172,5.237-13.881-9.573,2.21-2.626-7.759-6.522" fill="none" stroke="#c8c29d" stroke-linecap="round" stroke-linejoin="round" stroke-width="2"/>
    <path id="Path_1182" data-name="Path 1182" d="M632.256,1566.991l.651,5.146,4.838-2.464-1.613-5.029" fill="none" stroke="#c8c29d" stroke-linecap="round" stroke-linejoin="round" stroke-width="2"/>
    <path id="Path_1185" data-name="Path 1185" d="M597.883,1539.831l9.028,18.579,17.875,14.475,24.732,9,10.758,2.772,43.959,28.05" fill="none" stroke="#fff" stroke-linecap="round" stroke-linejoin="round" stroke-width="2"/>
    <path id="Path_1186" data-name="Path 1186" d="M691.217,1635.567,645.7,1580.218" fill="none" stroke="#fff" stroke-linecap="round" stroke-linejoin="round" stroke-width="2"/>
    <path id="Path_1187" data-name="Path 1187" d="M687.176,1645.329l4.6-5.874,17.733-22.621-5.116,9.23,13.192,6.8-17.531,4.743-8.277,1.848" transform="translate(-2 -1.632)" fill="none" stroke="#fff" stroke-linecap="round" stroke-linejoin="round" stroke-width="2"/>
    <path id="Path_1191" data-name="Path 1191" d="M750.949,1692.875l-4.3-32.043-12.56-13.584,4.474-4.666" fill="none" stroke="#fff" stroke-linecap="round" stroke-linejoin="round" stroke-width="2"/>
    <path id="Path_1188" data-name="Path 1188" d="M741.559,1692.875l-2.584-26.09-9.418-16.132-8.024-9.625-2.63,1.565-5-3.083" fill="none" stroke="#fff" stroke-linecap="round" stroke-linejoin="round" stroke-width="2"/>
    <path id="Path_1189" data-name="Path 1189" d="M739.637,1675.817l-8.532-.262-25.76-39.375" fill="none" stroke="#fff" stroke-linecap="round" stroke-linejoin="round" stroke-width="2"/>
    <path id="Path_1190" data-name="Path 1190" d="M768,1682.947l-44.909,5.994-11.211-6.7v-8.3l12.636-8.375" fill="none" stroke="#fff" stroke-linecap="round" stroke-linejoin="round" stroke-width="2"/>
    <path id="Path_1192" data-name="Path 1192" d="M746.745,1660.883l20.943,21.827" fill="none" stroke="#fff" stroke-linecap="round" stroke-linejoin="round" stroke-width="2"/>
    <path id="Path_1193" data-name="Path 1193" d="M684.786,1645.322,697.271,1669" fill="none" stroke="#fff" stroke-linecap="round" stroke-linejoin="round" stroke-width="2"/>
    <path id="Path_1194" data-name="Path 1194" d="M693.079,1657.8l4.483-1.771,5.412,10.5" fill="none" stroke="#fff" stroke-linecap="round" stroke-linejoin="round" stroke-width="2"/>
    <path id="Path_1195" data-name="Path 1195" d="M708.147,1640.6l-8.656,6.509,9.5,15.792" fill="none" stroke="#fff" stroke-linecap="round" stroke-linejoin="round" stroke-width="2"/>
    <path id="Path_882" data-name="Path 882" stroke="#7e20ff" d="M3524.238-766.429a53.1,53.1,0,0,0,14.311-4.239c5.268-2.393,10.707-7.553,16.967-8.437,14.592-2.061,18.587-.311,27.092,4.432s7.152,8.931,12.319,11.925,8.381-.517,8.381-.517" fill="none" transform="translate(-2848 2413)" stroke-linecap="round" stroke-linejoin="round" stroke-width="4" stroke-dasharray="8"/>
    <path id="Path_881" data-name="Path 881" d="M3603.364-1198.376c3.1-1.862,15.464,2.737,17.271,4.571s-2.753,1.44,5.463,5.277,27.4,10.071,27.4,10.071l5.059-19.919s-26.161-31.166-44.754-51.681-24.466-30.155-29.617-30.378c-13.185-.58-31.336,8.44-38.791,14.308-10.13,7.973,1.6,11.1,0,16.07,0,0,.31,3.806-6.391,3.806s-8.87-6.177-20.413-3.806-22.1,5.609-39.087,23.127-17.666,25.987-26.642,46.773-9.263,36.374-9.263,36.374-8.991,24.734-22.31,41.782a109.2,109.2,0,0,1-30.963,26.411H3383.1s-9.937,12.524-14.436,24.257-.405,13.5-3.557,22.677-1.09,6.193-9.318,14-13.186,7.719-23.593,17.234c-6.879,6.289-11.063,13.528-14.483,19.526-8.361,14.664,4.632,14.007,4.632,21.9s-4.632,9.659-4.632,9.659-3.884.382-4.726,1.6.177,2.461,1.359,3.281,3.367,0,3.367,0,8.667,10.364,12.9,14.114,2.517.809,6.689,3.149,10,6.212,10,6.212,31.642,4.408,50.681,19.33,26.283,39.087,26.283,39.087,24.936,9.857,34.573,16.877-3.65,3.28,9.795,17.2c5.378,5.569,12.267,9.383,18.344,14.118A197.319,197.319,0,0,1,3512.617-787c15.265,16.923,6.626,13.876,11.257,23.208s10.241,12.571,15.9,23.839,2.5,12.165,6.732,21.234,5.867,14.5,12.549,15.115,7.793-8.537,20-12.3,15.809-.908,26.492-2.818,13.292-1.018,16.057-4.113-3.748-3.824-5-8.1-1.117-4.895,0-9.017,7.784-1.769,4.468-7.631-17.733-15.817-17.733-15.817l21.593-16.559s23.933.955,25.289-2.758-15.339-10.226-16.4-26.093,9.141-24.716,12.3-36.31-1.02-8.052,2.632-18.423c1.274-3.62,3.569-6.267,5.45-9.246,3.031-4.8,5.707-9.15,6.524-13.817,1.254-7.169-4.923-10.582-4.923-10.582V-917.1a71.9,71.9,0,0,1,4.923-25.367c5.316-13.988,9.428-12.567,13.84-25.208s3.728-17.156,3.807-25.356-11.024-4.3-20.475-8.6-17.783-13.752-17.783-13.752l7.781-55.823s-48.389-29.243-73.1-42.263-23.686-8.13-25.734-9.818-1.835-6.755-1.835-6.755a6.457,6.457,0,0,0-4.013-4.477c-3.561-1.556-9.931,1.995-10.23-1.746s3.189-17.108,8.494-20.065,18.327-.824,24.731-5.522-1.572-10,.886-13.269,5.246,2.442,13.049.935,12.361-.915,18.165-6.961S3600.268-1196.515,3603.364-1198.376Z" transform="translate(-2848 2413)" fill="none" stroke="#142d4c" stroke-linejoin="round" stroke-width="4"/>
    <path id="Path_891" data-name="Path 891" stroke="#207dff" d="M3627.341-1083.1a31.851,31.851,0,0,0-9.31,7.554c-2.958,3.511-2.817,7.989-6.285,9.6-8.029,3.719-10.138-2.275-16.52-2.275s-8.632-.948-9.959,4.668,2.85,13.145,1.043,16.556-4.814-4.847-8.27-2.911-5.553,10.654-5.553,10.654" fill="none" transform="translate(-2850 2417)" stroke-linecap="round" stroke-linejoin="round" stroke-width="4" stroke-dasharray="8"/>
    <path id="Path_890" data-name="Path 890" stroke="#207dff" d="M3444.115-1143.047s11.135,9.3,21.35,10.74,13.635-5.853,19.507-4.959-1.778,6.321,3.938,8.664,13.938-1.775,20.818,0,1.594,4.862,4.655,7.1,8.383-2.612,10.023,1.855-3.864,9.013-3.463,16.012,3.383,1.664,4.009,10.131-1.9,28.077-1.9,28.077" fill="none" transform="translate(-2848 2415)" stroke-linecap="round" stroke-linejoin="round" stroke-width="4" stroke-dasharray="8"/>
    <g id="Group_177" data-name="Group 177">
      <path id="Path_1433" data-name="Path 1433" d="M811.944,1385.487,784.816,1353.2l-8.874-17.275-29.474,4.01-20.3,4.131-15.62,5.6-4.656,15.278,1.419,12.7,1.963,17.639,33.176,6.531h24.812l17.552-4.6Z" transform="translate(-71 8)" fill="red" opacity="0"/>
      <path id="Path_1200" data-name="Path 1200" d="M826.265,1206.143l17.751,3.841v5.769l31.989,11.575,6.006-21.762-71.866-80.37-23.952,4.074L765.6,1142.852l3.621,11.81-3.621,5.146-16.72-5.146-15.983,2.555-15.3,8.728-21.412,18.8-14.825,25.235-14.171,49.958v5.151l21.378,10.267,17.4-6.7,4.424.8-.907,6.83,2.879,2.784,22.4-1.606,1.8,4.2v3.61l9.742.683,1.583,5.556-4.077,10.156,1.823,6.964,2.253,3.5v12.716l-1.583,15.233,25.018-3.381,6.216,1.259,3.027,9.872,9.792,12.617,4.855,5.412,4.534-7.346,6.621,5.274,1.652-6.956-1.652-8.06,2.467-7.648,9.972-1.042,6.832,4.469,7.631-1.32L840.12,1332l12.673-8.657-54.825-31.821-25.417-9.226-3.661-10.5-12.435-.851,1.225-11.822,7.96-11.251,18.914-2.425,7.264-5.273-1.975-8,1.068-3.463,7.853,2.183,15.171-2.183,8.291-6.031,2.635-9.236Z" transform="translate(-71 8)" fill="#ffeb00" opacity="0"/>
      <path id="Path_1432" data-name="Path 1432" d="M665.309,1264.145l20.314,10.249,10.535-1.563,9.239-4.078,6.241.893-1.87,4.749,1.87,4.627,16.478-1.248,6.886-.584,1.968,7.188,3.761,1.1,5.949-1.1,1.031,6.837-3.284,9.258v6.082l3.284,5.739-1.031,28.06-17.208,3.071-13.8,4.567-6.79,4.943-2.595,11.281v10.567l2.595,20.425-52.936-15.487-36.2-3.672-30.112-8.728,4.087-20.344,12.946-17.838h7.288l26.443-20.41,15.546-24.349Z" transform="translate(-71 8)" fill="#80ff01" opacity="0"/>
      <path id="Path_1435" data-name="Path 1435" d="M465.689,1466.911l4.383-.336,4.7-7.238-2.308-7.555L466.284,1445l3.789-12.066,13.737-16.816,16.288-11.344,15.342-14.4,3.178-15.1,31.843,9.772,34.564,3.042,24.729,7.263,38.587,10.809-3.733,7.759-6.985.969-8.786-1.77-5.619,4.844-3.589,9.455v10.573l4.4,3.757,8.565,2.946,1.9,6.3-3.4,7.808-10.565,8.751-13.633,8.34-23.65,9.246-12.255,1.284H560.621l-10.925,4.865-1.5,6.484v5.371l5.762,5.385,6.05,4.671,9.11,4.035,11.474,3.806,7.445,2.7-4.788,7.168-8.863,14.266-14.9-21.433-15.275-13.727-20.152-8.53-24.428-6.372-10.758-6.751-7.06-2.528-10.439-12.493-1.3-2.015-4.383.962Z" fill="#00ff9d" opacity="0"/>
      <path id="Path_1437" data-name="Path 1437" d="M734.158,1397.07l5.145,5.978,10.74,3.094,3.93,5.281,1.338,7.458-1.338,10.57-1.54,8.369-2.441,4.971-2.271,10.692-.306,8.178.679,11.322,1.9,4.184-3.369,6.885-6.711,6.506-9.228,1.87-10.769-2.57-6.539-.906-8.642,1.236-4.813,2.239,4.407-9.177v-1.861l-4.407-1.476h-8.628l-7.1-8.253-15.227-6.246L652.7,1453.956l-10.43-8.137-12.034-2.246-7.937-3.306-2.572-6.529,3.624-15.392,6-4.422,7.289,1.345,8.215-1.345,3.628-7.259,9.822.86,13.261,2.817h23.042l17.217-4.229Z" fill="#00a7ff" opacity="0"/>
      <path id="Path_1438" data-name="Path 1438" d="M830.076,1416.7l-6.4-2.648-11.578-1.672-15.383-9.763-13.245-11.592-13.007-5.269-12.918,1.073-20.206,7.69-2.148,2.4,4.283,5.7,12.951,3.772,3.768,8.48-1.8,15.353-4.266,13.678-2.437,15.415,1.412,14.953,7.093,11.264-1.8,16.973,9.808,6.019,10.01,1.067,6.23,1.1,4.392,8.369,13.513,3,2.481,1.371,7.678-7.72-1.242-17.083,2.555-19.295,8.324-20.024,8.688-12.242,3.246-12.873Z" fill="#ff0" opacity="0"/>
      <path id="Path_1439" data-name="Path 1439" d="M786.18,1601.76l1.022-12.287,5.881-9.4,5.379-11.635,1.409-11.409V1550.7l6.195-9.841,5.06-8.807,2.893-9.327-5.467-6.44-8.68,7.569-12.113-3.36-4.248-1.123-3.665-8.653-14.559-1.613-10.607-5.867-3.187,5.867v7.18l4.94,5.909v33.368l2.251,15.446.571,7.906-.571,6.545,6.765,8.051,15.289,7.569Z" fill="#ffb100" opacity="0"/>
      <path id="Path_1440" data-name="Path 1440" d="M750.221,1476.622l6.237,9.5-2.817,17.291-2.661,5.375v7.611l5.478,6.07v33.677l2.267,15.242v14.6l7.391,8.265,17.776,7.781,4.073,12.431,13.122,13.1v3.142l-23.694,2.638-20.478,15.271-6.286,2.714-6.464-2.714-8.71-9.9-15.161-5.992-16.34,1.828-13.831,7.953-14.826,4.4-1.918-8.692-12.262-16.6-9.935-8.705L630,1594.7l-10.937-7.571-4.888-7.476,1.809-6.072-.939-16.051,4.017-6.787,6.517-3.725,22.724,1.531,13.915.518,9.459-3.25,5.436-4.928,5.688-17.347,5.682-14.964,4.041-8.242,8.476-8.357,13.16-3.023,13.16,2.593,7.921.431,5.461-1.81,6.745-7.181Z" fill="#ff00b1" opacity="0"/>
      <path id="Path_1441" data-name="Path 1441" d="M773.855,1669l-.256-4.535-18.072-15.039-6.994,1.784-4.485-2.4-7.37-8.5-3.719-3.054L719.88,1633l-15.8,1.721-13.591,7.808-15.321,4.762,8.908,14.5,7.556,10.736,4.447,11.761,2.057,10.1,5.944,10.1,6.135,5.374,6.567-2.245,8.045-7.791,14.066-4.9h12.429l19.355-2.695,4.221-3.687-4.221-3.12-3.02-5.293.5-5.5,1.847-3.127Z" fill="#0062ff" opacity="0"/>
      <path id="Path_1434" data-name="Path 1434" d="M792.716,1393.476l7.549-51.31-18.549-10.311-12.021,7.279-6.043,10.75-4.968,2.534-7.708-1.266-5.935-2.33h-6.52l-3.053,5.723,1.666,11.243v5.133l-5.862-1.5-2.38-2.67-5.231,6.069,16.479,19.546,13.774-5.34,9.739-2.078,11.785,2.078,8.323,3.951,7.7,5.742Z" fill="#d801ff" opacity="0"/>
      <path id="Path_1436" data-name="Path 1436" d="M702.462,1487.566l1.6-5.462-2.721-1.641H691.157l-8.054-8.838-10.384-3.48-9.4-5.384-11.694-8.467-8.9-7.447-8.158-1.631v10.2l-13.417,12.732-19,10.615-21.738,7.735-14.749.59-6.937.683-8.757,4.7-1.406,7.71,1.922,4.8,15.178,10.286,17.217,5.69,6.883,3.13-14.257,20.576,1.957,8.08,15.331,7.089,14.653,7.672,8.887,6.847-1.612-6.847v-11.253l3.877-5.236,6.213-4.281,12.881.5,8.863.716,15.825.79,11.552-4.169,3.168-6.611,7.549-21.442,6.5-14.388,4.823-6.149Z" fill="#00ff14" opacity="0"/>
    </g>
  </g>
</svg>
