<svg xmlns="http://www.w3.org/2000/svg" xmlns:xlink="http://www.w3.org/1999/xlink" width="771.63" height="360.001" viewBox="0 0 771.63 360.001">
  <defs>
    <filter id="Subtraction_2" x="0" y="0" width="771.63" height="360.001" filterUnits="userSpaceOnUse">
      <feOffset dy="5" input="SourceAlpha"/>
      <feGaussianBlur stdDeviation="15" result="blur"/>
      <feFlood flood-color="#d6d6d6"/>
      <feComposite operator="in" in2="blur"/>
      <feComposite in="SourceGraphic"/>
    </filter>
  </defs>
  <g id="Group_628" data-name="Group 628" transform="translate(-334 -860)">
    <g transform="matrix(1, 0, 0, 1, 334, 860)" filter="url(#Subtraction_2)">
      <path id="Subtraction_2-2" data-name="Subtraction 2" d="M-3958,2083a353.365,353.365,0,0,1-60.756-5.255,348.6,348.6,0,0,1-57.344-15.172,349.276,349.276,0,0,1-53.046-24.2A351.725,351.725,0,0,1-4177,2006.031a353.139,353.139,0,0,1-41.784-39.6,352.376,352.376,0,0,1-34.822-45.963,350.063,350.063,0,0,1-26.972-51.441A348.438,348.438,0,0,1-4298.815,1813h681.63a348.4,348.4,0,0,1-18.234,56.031,350.042,350.042,0,0,1-26.971,51.441,352.364,352.364,0,0,1-34.822,45.963,353.135,353.135,0,0,1-41.784,39.6,351.69,351.69,0,0,1-47.859,32.343,349.245,349.245,0,0,1-53.045,24.2,348.586,348.586,0,0,1-57.344,15.172A353.357,353.357,0,0,1-3958,2083Z" transform="translate(4343.82 -1773)" fill="#d8d8d8"/>
    </g>
    <path id="Subtraction_1" data-name="Subtraction 1" d="M-4158,1963a199.363,199.363,0,0,1-68.838-12.162,199.616,199.616,0,0,1-30.811-14.392,201.012,201.012,0,0,1-27.685-19.212,201.728,201.728,0,0,1-24.018-23.491,201.194,201.194,0,0,1-19.811-27.23,199.769,199.769,0,0,1-15.062-30.427A199.09,199.09,0,0,1-4354,1803h392a199.073,199.073,0,0,1-9.774,33.085,199.814,199.814,0,0,1-15.062,30.427,201.226,201.226,0,0,1-19.811,27.23,201.782,201.782,0,0,1-24.018,23.491,201.05,201.05,0,0,1-27.685,19.212,199.621,199.621,0,0,1-30.811,14.392A199.364,199.364,0,0,1-4158,1963Z" transform="translate(4878 -903)" fill="#fff"/>
  </g>
</svg>
