<svg xmlns="http://www.w3.org/2000/svg" xmlns:xlink="http://www.w3.org/1999/xlink" width="359.477" height="398.539" viewBox="0 0 359.477 398.539">
  <defs>
    <clipPath id="clip-path">
      <path id="Path_1455" data-name="Path 1455" d="M929.235,1302.9a113.743,113.743,0,0,0,11.464,4.035c2.915.777,4.088,1.084,5.082-2.274,3.025-10.226,8-33.983,8-33.983s-59.122-70.279-91.154-106.325-27.607-34.087-60.6-26.205-70.341,24.908-70.341,24.908-47.346,23.9-76.316,54.291-28.874,39.748-39.564,67.266-12.362,22.38-16.244,42.676-6.6,34.018-4.572,38.526c1.253,2.791,6.359,6.409,13.744,10.909a95.821,95.821,0,0,0,16.486,7.518c12.79,4.2,12.852,2.8,21.812.734s12.887-7.419,17.369-7.242-.076,6.331,1.475,9.835,1.8,3.524,6.171,4.684,3.843,0,11.894,0,12.856-2.439,20.31,0c3.355,1.1,3.714,1.09,4.34,2.909.55,1.555,1.443,5.736,3.125,7.8,3.058,3.747,2.579,2.518,6.621,2.522,2.484,0,7.434-1.459,8.371.708,2.189,5.064-5.3,18.572-5.3,18.572a26.97,26.97,0,0,0,.484,11.476c1.64,6.168,4.731,1.594,5.917,12.06s-.909,16.515-1.655,30.5c-.38,7.106-2.448,12.327-.629,13.456,5.213,3.234,33.644-6.2,48.013-3.507,4.4.826,4.731,2.613,5.76,5.75.645,1.947,2.4,5.352,3.024,7.933,1.038,4.263,4.411,8,6.185,10.345,3.613,4.781,10.4,11.462,16.4,18.617,2.4,3.032,5.346-6.977,12.388-8.041,3.056-.462,6.12,4.993,8.779,6.437,2.835,1.538,3.8-.3,5.277-2.448,2.126-3.1-2.954-18.781-2.445-23.132,1.047-8.952,5.192-10.351,5.192-10.351a46.817,46.817,0,0,1,14.166,1.16c3.532.859,7.694,3.718,11.023,4.05,9.649.962,13.235-1.971,13.235-1.971s4.223-4.018,9.96-14.529c3.035-5.56,11.789-11.315,16.06-14.633,3.346-2.591,5.039-4.6-2.9-12.272-16.852-16.284-25.874-18.87-76.053-45.045-10.151-5.3-39.3-26.4-58.01-37.5-2.112-1.252-5.731-.609-9,0-1.322.256-2.233-.143-2.953-2.1-.252-.684-1.416,2.166-1.6,1.117-.886-4.992,2.035-15.305,5.419-21.091,1.913-3.272,3.745-2.475,4.133-5.318.565-4.141,7.516-4.383,15.186-5.281,7.778-.912,16.3-2.29,16.3-2.29s12.711-3.587,15.229-7.751,3.077-8.635,2.115-10.188c-1.043-1.671-4.3-8.282-2.115-8.818,1.738-.427.757-.248,3.329.594s3.849,2.016,6.8,2.182c7.987.446,12.755-.459,19.731-2.182,3.7-.912,9.892-1.365,13.929-4.578,8.864-7.054,11.758-13.3,13.074-20.449.694-3.752,1.869-9.179.679-11.945-2.2-5.113,13.581-.912,24.143,5.228,1.5.87-.358,2.456,1.092,4.1,2.225,2.51,7.212,5.231,7.212,5.231Z" transform="translate(-591.977 -1126.49)" fill="#fff"/>
    </clipPath>
  </defs>
  <g id="Kymlinge" transform="translate(-594.304 -1133.421)">
    <g id="Mask_Group_1" data-name="Mask Group 1" transform="translate(591.977 1126.49)" clip-path="url(#clip-path)">
      <path id="Path_1068" data-name="Path 1068" d="M533.847,1379.568l.2,25.091,15.724,10.963,8.179,19.776,14.1,3.964v6.551l16.623-3,3.512,7.875h10.722l7.536,4.008h11.334l8.56,3.355-4.072,10.951,10.444,11.444-3.429,10.9,3.429,8.015-14.931,5.373H613.46l-15.654-9.065H586.853l-2.682,1.835v7.23l26.27,18.557,6.814-2.558h4.519l8.56,10.4-13.079,9.906-6.814-2.873-14.292,13.658h21.106l23.421,14.744v-25.529L674.3,1526.21l10.805-5.38,3.21,5.38,36.925,12.056h22.033l22.1,24.664,11.047,11.76,3.745,14.523-14.793,10.4,5.47,6.763,30.1-6.763,17.811,6.763h21.7l4.879,7.594,18.464,5.9,25.635-5.9,3.067,5.9h-6.639l3.572,10.333H879.259l5.394,19.036,8.783,6.747v21.2h6.89v-54.524h9.219v-8.684l26.975-5.138,7.882,8.649-3.3,10.01,15.065,2.707,16.245-2.707,15.213,2.707,4-10.333v-8.258l-8.389-12v-39.376l8.389-36.891,28.714-42.805v-41.179l-37.1-6.943L944.4,1399.794l-30.883-12.169-40.912,12.169-49.852,22.729L757,1432.418l-103.106-32.624-81.845-12.169Z" transform="translate(-629.312 -963.948)" fill="#d1e0a8"/>
      <path id="Path_1173" data-name="Path 1173" d="M742.569,1671.445l-7.749-12.109L693.079,1682l26.485,33.378,2.755-5.928h4.637l-2.253-20.9,2.253-6.547Z" transform="translate(-527.044 -784.264)" fill="#d1e0a8"/>
      <path id="Path_1108" data-name="Path 1108" d="M588.235,1528.146l14.459,11.3,15.4,22.733,24.548-10.742v10.742l10.6-3.45,44.117,2.5,16.476-.975,17.741-4.383-7.189,17.237-9.2-7.167h-21.3l-21.35-2.766-20.766,1.024-8.429,5.9v25.6l-14.706-8.956-13.525-15.14-8.327-18.115-22.264-19.163Z" transform="translate(-596.762 -868.523)" fill="#d1e0a8"/>
      <path id="Path_1109" data-name="Path 1109" d="M642.254,1601.53l-10.6-19.567-16.7-14.641-42.818-18.257-19.121-12.987-6.367-14.215,3.844-11.845,19.157-10.243,26.884-3.516,22.208,4.825,14.418,10.359v-25.508l42.66-19.459,41.262,16.315h22.407l33.834,37.95,2.075,13.225L760.6,1544.859l7.411,6.659,28.738-7.66,17.835,7.66h21.932l5.2,7.95,18.237,4.986,25.352-4.986,1.685,4.986h-5.205l2.1,9.921H871.206l5.213,19.523,7.462,5.065,1.423,22.273,4.574,1.51,4.058-1.51-2.318-17.266,1.048-36.829h8.652v-8.918L928.206,1553l7.819,9.241-3.153,9.728,17.084,3.547,11.935-3.547,16.168,2.406L963.8,1600.719l-2.984,26.1-7.374,22.4L943.366,1669.7l-4.293,23.72L950.5,1719.17l16.2,14.195-3.538,4.657-36.079,2.419-14.665,8.167-17.632,14.118-4.428,4.04,26.744,22.89,2.489,8.354-7.173,5.526-2.878,8.444,2.878,12.417,8.384,5.777-4.511,6.526-41.962,4.828-16.077,1.6-6.72,1.613-16.652,8.137-3.488,3.9L813.818,1838.4l2.067-5.58,4.992,1.373-2.4-23.214,3.086-5.491,7.022-3.858,7.978-6.484-7.978-12.532-36.558,20.655-4.784,2.219-16.791-21.74-13.483-21.435-2.448-16.171-37.305-41.967,4.422-7.06,8.351,8.343h4.792l19.74,23.383,4.281.978,13.8,23,1.546,6.557,15.029-6.557,8.084-8.156-1.537-4.095h-3.61l10.351-11.725,9.667,5.43v4.8h17.322l7.111-9.255L745.1,1672.652l-25.787-15.272L683,1649.215l-14.863-14.49v-24.747l9.6-6.457,16.25-.993,19.577,2.346,13.6,1.721h12.683l8.763,8.472,7.349-17.959-14.622,2.131H719.315l-27.819-2.131-24.818,4.422,1.463-12.044Z" transform="translate(-621.094 -908.131)" fill="#f3e2ac" stroke="#c8c29d" stroke-linecap="round" stroke-linejoin="round" stroke-width="2"/>
      <path id="Path_1172" data-name="Path 1172" d="M625.757,1571.994l-11.05-5.314v19.453l14.682,19.79,35.119,26.068,9.174,8.649,5.019-7.372,7.7,7.372,6.169,2.074,17.344,21.407,6.647,2.367,13.089,24.623,23.6-10.171v-4.33h-4.59l10.608-12.49,9,6.265v4.818l18.01-1.316,6.622-7.4L676.448,1594.57l-34.961-8.437Z" transform="translate(-577.379 -843.774)" fill="#eaeaea"/>
      <path id="Path_1133" data-name="Path 1133" d="M576.894,1504.148l.786,9.913,12.6,2v-7.079Z" transform="translate(-601.665 -883.935)" fill="#d1e0a8"/>
      <path id="Path_1132" data-name="Path 1132" d="M628.463,1519.418l17.017.17-1.257-12.369h-15.76Z" transform="translate(-568.544 -881.964)" fill="#d1e0a8"/>
      <path id="Path_1131" data-name="Path 1131" d="M681.4,1497.7l-3.541,3.515h-5l-5.992,4.842-15.043,2.242,12.01-26.178,10.548,5.25,1.422,7.374Z" transform="translate(-553.544 -898.086)" fill="#d1e0a8"/>
      <path id="Path_1102" data-name="Path 1102" d="M626.17,1552.4l-16.848-2.563-25.74-10.143L563.6,1525.609l-6.93-14.782,3.44-10.491,20.228-12.864.888-3.545-19.035,3.545-11.18-2.04,2.187,17.862H537.9l1.777,3.467-11.5,6.767,34.02,19.666,21.387,20.962,17.652,31.611,17.937-24.6Z" transform="translate(-632.955 -896.923)" fill="#d1e0a8"/>
      <path id="Path_1147" data-name="Path 1147" d="M716.738,1548.75,671.444,1618.7" transform="translate(-540.939 -855.289)" fill="none" stroke="#fff" stroke-linecap="round" stroke-width="2"/>
      <path id="Path_1148" data-name="Path 1148" d="M682.631,1635.951l53.085-82.191-17.7-12.259-2.47,2.685,7.432,4.995,1.551-1.086-6.513-3.909" transform="translate(-533.754 -859.945)" fill="none" stroke="#fff" stroke-linecap="round" stroke-linejoin="round" stroke-width="2"/>
      <path id="Path_1149" data-name="Path 1149" d="M810.623,1676.46,682.4,1598.766" transform="translate(-533.903 -823.166)" fill="none" stroke="#fff" stroke-linecap="round" stroke-width="2"/>
      <path id="Path_1150" data-name="Path 1150" d="M816.818,1675.478,704.38,1605.853l7.276-10.413-17.41-11.61" transform="translate(-526.294 -832.759)" fill="none" stroke="#fff" stroke-linecap="round" stroke-linejoin="round" stroke-width="2"/>
      <path id="Path_1151" data-name="Path 1151" d="M707.62,1626.03l16.522-27.683" transform="translate(-517.704 -823.435)" fill="none" stroke="#fff" stroke-linecap="round" stroke-linejoin="round" stroke-width="2"/>
      <path id="Path_1152" data-name="Path 1152" d="M704.771,1590.85l21.264,12.3" transform="translate(-519.534 -828.25)" fill="none" stroke="#fff" stroke-linecap="round" stroke-width="2"/>
      <path id="Path_1153" data-name="Path 1153" d="M717.681,1637.02l20.334-32.789-7.231-5.365,39.779,25.52,47.7,30.138,6.217-6.14-8.458-5.389,12.794-18.609-42-28.543" transform="translate(-511.243 -825.044)" fill="none" stroke="#fff" stroke-linecap="round" stroke-linejoin="round" stroke-width="2"/>
      <path id="Path_1154" data-name="Path 1154" d="M737.315,1655.274l38.137-58.948" transform="translate(-498.632 -824.733)" fill="none" stroke="#fff" stroke-linecap="round" stroke-linejoin="round" stroke-width="2"/>
      <path id="Path_1155" data-name="Path 1155" d="M756.769,1602.4l59.1,36.856v9.954" transform="translate(-486.138 -820.83)" fill="none" stroke="#fff" stroke-linecap="round" stroke-linejoin="round" stroke-width="2"/>
      <path id="Path_1156" data-name="Path 1156" d="M746.745,1660.525l37.841-57.808" transform="translate(-492.576 -820.628)" fill="none" stroke="#fff" stroke-linecap="round" stroke-linejoin="round" stroke-width="2"/>
      <path id="Path_1157" data-name="Path 1157" d="M788.329,1607.923l-28.464,43.26" transform="translate(-484.149 -817.285)" fill="none" stroke="#fff" stroke-linecap="round" stroke-linejoin="round" stroke-width="2"/>
      <path id="Path_1158" data-name="Path 1158" d="M780.5,1634.248,739,1610.254l18.129-29.964-24.6-14.837L712.177,1592.8" transform="translate(-514.778 -844.562)" fill="none" stroke="#fff" stroke-linecap="round" stroke-linejoin="round" stroke-width="2"/>
      <path id="Path_1159" data-name="Path 1159" d="M736.277,1618.482l25.429-36.523,8.961,5.693-6.435,9.618,12.3,8.828" transform="translate(-499.299 -833.961)" fill="none" stroke="#fff" stroke-linecap="round" stroke-linejoin="round" stroke-width="2"/>
      <path id="Path_1160" data-name="Path 1160" d="M831.269,1537.474l-19.951-1.562-7.794,9.17v12.83l3.037,11.764L792.62,1605.2l-19.042,28.547" transform="translate(-475.342 -863.535)" fill="none" stroke="#c8c29c" stroke-linecap="round" stroke-linejoin="round" stroke-width="2"/>
      <path id="Path_1161" data-name="Path 1161" d="M804.889,1630.423l-31.969-47.955v-28.037l2.893-8.9,2.029-12.865,20.344-2.672-20.344,2.672-15.535-5.875" transform="translate(-482.58 -869.393)" fill="none" stroke="#c8c29c" stroke-linecap="round" stroke-linejoin="round" stroke-width="2"/>
      <path id="Path_1162" data-name="Path 1162" d="M806.5,1544.692l-35.147-10.431" transform="translate(-476.772 -864.596)" fill="none" stroke="#c8c29c" stroke-linecap="round" stroke-linejoin="round" stroke-width="2"/>
      <path id="Path_1163" data-name="Path 1163" d="M757.827,1538.884l19.64,1.888,36.719,12.34" transform="translate(-485.458 -861.626)" fill="none" stroke="#c8c29c" stroke-linecap="round" stroke-linejoin="round" stroke-width="2"/>
      <path id="Path_1164" data-name="Path 1164" d="M788.322,1608.358,773.75,1587.1l1.374-25.953L773.75,1587.1l-13.873.875" transform="translate(-484.142 -847.327)" fill="none" stroke="#c8c29c" stroke-linecap="round" stroke-linejoin="round" stroke-width="2"/>
      <path id="Path_892" data-name="Path 892" d="M3367.1-882.98l45.542,15.813,53.39,2.936,89.529,26.108,37.717,8.367,42.234,5.593,53.532-9.315,55.656-24.685,18.2-6.068V-882.98h10.614l2.453-11.516h-4.916l-2.4-17.828-5.752-9.059,34.664-33.953-67.127-37.223-37.58-20.406-27.452-9.85-2.61-9.909-3.938-5.418-6.338-2.165h-12.862l4.53-22.2,10.109-16.1,41.962-7.138.835-24.714,15.59,4.091,19.279-4.091,15.787-6.892,6.857-29.379,30.5,9.244,1.2,4.694,47.751,18,2.909-.863,7.484-29.606-50.174-58.788-65.587-76.406-20.251,2.726-24.282,6.446-31.632,22.635,7.323,18.346-11.13,6.517-30.085-8.7-32.268,13.987-10.472,5.426-26.706,21.053-20,29.679-11.868,25.613-15.28,37.1-7.882,34.069v6.719l-12.428,31.746-28.737,45.551L3418-947.852l-24,3.95-20.963,38.388Z" transform="translate(-3486.783 1290.4)" fill="#b0e0a8"/>
      <path id="Path_1118" data-name="Path 1118" d="M600.8,1490.122l22.371-9.055v-10.043l5.517,45.254" transform="translate(-586.312 -905.21)" fill="none" stroke="#c8c29d" stroke-linecap="round" stroke-linejoin="round" stroke-width="2"/>
      <path id="Path_1119" data-name="Path 1119" d="M610.113,1509.858l-1.919-34.463,1.919,36.749h13.4" transform="translate(-581.562 -902.403)" fill="none" stroke="#c8c29d" stroke-linecap="round" stroke-linejoin="round" stroke-width="2"/>
      <path id="Path_1069" data-name="Path 1069" d="M667.035,1439.732l-4.52-7.008-24.674-10.681-18.185,3.122v23.574l9.911,7.727,17.984,3.7,12.436-6.482Z" transform="translate(-574.2 -936.668)" fill="#f3e2ac" stroke="#c8c29d" stroke-linejoin="round" stroke-width="2"/>
      <path id="Path_1089" data-name="Path 1089" d="M536.522,1379.568,560.468,1381v23.107l-15.414,1.474L522.7,1429.031l-13.329,5.6h-14.13l-4.42-3.548,38.17-30.537Z" transform="translate(-656.946 -963.948)" fill="#f3e2ac" stroke="#c8c29d" stroke-linecap="round" stroke-linejoin="round" stroke-width="2"/>
      <path id="Path_1070" data-name="Path 1070" d="M801.683,1458.349l-126.052-33.1-16.5,8.47-16.245,27.123,32.749,15.685,5.767,5.437h11.5l6.7,6.06,12.494,3.957,10.333,12.636,11.172-8.283h5.529l-2.721,16.794,6.523,11.015,18.83-2.564,26.6,9.021,13.319-9.021,4.439,2.564,6.244-16.483,26.133,27.565h11.08l2.908,7.195h12.59l9.339,19.661,7.213-5.873,12.284,5.873,15.178-16.764V1530.6l-15.178-2.5,15.178-6.521-12.586-29.6-22.089-10.017L855.8,1453.421l-29.784-8.887-3.224,16.31Z" transform="translate(-559.283 -934.608)" fill="#f5e7b8" stroke="#c8c29d" stroke-linecap="round" stroke-linejoin="round" stroke-width="2"/>
      <path id="Path_1081" data-name="Path 1081" d="M3546.583-997.465V-979.6l30.273,3.986-2.333,4.554-16.993,2.462,8.926,20.108,43.925,11.859h21.079l8.007-38.983-4.784-21.849-24.3-10.7-6.016-7.485-29.842,11.479Z" transform="translate(-3371.508 1460.474)" fill="#eaeaea" stroke="#d1d1d1" stroke-linecap="round" stroke-linejoin="round" stroke-width="2"/>
      <path id="Path_1106" data-name="Path 1106" d="M3439.34-881.525l21.885,19.907,11.2,22.649H3445.3l-17.731-5.318-5.863-13.511Z" transform="translate(-3451.711 1546.615)" fill="#f5e7b8" stroke="#c8c29d" stroke-linecap="round" stroke-linejoin="round" stroke-width="2"/>
      <path id="Path_1101" data-name="Path 1101" d="M498.294,1482.022l18.342,9.673-4.984,12.851L485.1,1493.357l-2.434-18.321Z" transform="translate(-662.182 -902.633)" fill="#d1e0a8"/>
      <path id="Path_1084" data-name="Path 1084" d="M789.451,1391.864l-11.089,11.248,23.925,8.948v2.2l-22.567-7.809-1.358,9.634,21.983,4.428v2.5l-19.722-3.873v5.939l17.71,3.422v2.015l-17.71-3.407.573,6.349,46.581,5.9,5.059-14.281-30.548-21.966-5.165-6.426Z" transform="translate(-472.27 -956.051)" fill="#fff"/>
      <path id="Path_1085" data-name="Path 1085" d="M838.542,1416.7l-7.338,8.744-20.9-1.481v4.555l15.606,5.014.983,4.115,6.677-2.549-.729-2.54,5.7-.5,3.577-1.672V1417.6Z" transform="translate(-451.755 -940.1)" fill="#fff"/>
      <path id="Path_1042" data-name="Path 1042" d="M718.729,1340.3l3.691,14.542" transform="translate(-510.569 -989.167)" fill="none" stroke="#fff" stroke-linecap="round" stroke-linejoin="round" stroke-width="2"/>
      <path id="Path_1045" data-name="Path 1045" d="M667.716,1286.825l-16.275,15.011,8.375-3.121,18.647,20.905-8.559,4.388-25.726-18.755-17.828-6.538,16.478,8.011,1.351,8.213,7.263,8.262,8.375,8.081,10.946-5.081-16.149-11.262,14.041,11.262-14.041-8.648,11.933,8.648-11.933-6.581,11.069,8-11.847-6.128,9.849,7.119-10.954-5.41,8.358,6.568" transform="translate(-569.901 -1023.514)" fill="none" stroke="#fff" stroke-linecap="round" stroke-linejoin="round" stroke-width="2"/>
      <g id="Path_1046" data-name="Path 1046" transform="translate(-551.878 -1008.406)" fill="none" stroke-linecap="round" stroke-linejoin="round">
        <path d="M654.412,1313.1l15.252-2.747,8.532,8.139,3.792,10.279s5.765-3,7.686-2.1,1.922,4.282,0,5.709-6.271-1.265-7.686,0-.147,3.794,2.024,5.059,5.491-1.606,6.661,0,.691,4.82-1.981,6.426-8.706,0-8.706,0-.07,4.4-1.79,5.871a3.846,3.846,0,0,1-5.089,0c-1.272-1.089,0-4.354,0-4.354h-3.443l-8.128,1.663-2.178-14.665Z" stroke="none"/>
        <path d="M 667.4048461914062 1317.867797851562 L 663.0498657226562 1318.652099609375 L 666.2819213867188 1331.34765625 L 667.3739624023438 1338.70068359375 L 668.2603149414062 1338.519287109375 C 668.72216796875 1338.4248046875 669.1923828125 1338.377197265625 669.6637573242188 1338.377197265625 L 673.1066284179688 1338.377197265625 C 673.8355102539062 1338.377197265625 674.544677734375 1338.510131835938 675.2151489257812 1338.751953125 C 675.3361206054688 1338.639038085938 675.4613647460938 1338.530029296875 675.5908203125 1338.425170898438 C 674.9666748046875 1337.23486328125 674.56689453125 1335.966064453125 674.4373168945312 1334.685302734375 C 674.2809448242188 1333.139526367188 674.5103149414062 1331.634155273438 675.0838012695312 1330.277587890625 L 672.1898803710938 1322.432739257812 L 667.4048461914062 1317.867797851562 M 669.6637573242188 1310.348388671875 L 678.1957397460938 1318.48779296875 L 681.9874877929688 1328.7666015625 C 681.9874877929688 1328.7666015625 686.3441772460938 1326.49755859375 688.7451171875 1326.497436523438 C 689.1060180664062 1326.497314453125 689.4224243164062 1326.548583984375 689.6735229492188 1326.66650390625 C 691.5950317382812 1327.56884765625 691.5950317382812 1330.948486328125 689.6735229492188 1332.3759765625 C 689.2484741210938 1332.691650390625 688.7046508789062 1332.805786132812 688.10009765625 1332.805786132812 C 686.5211791992188 1332.805786132812 684.5278930664062 1332.027221679688 683.1537475585938 1332.027221679688 C 682.6754150390625 1332.027221679688 682.2721557617188 1332.12158203125 681.9874877929688 1332.3759765625 C 680.5719604492188 1333.640625 681.8401489257812 1336.169921875 684.0114135742188 1337.434814453125 C 684.4257202148438 1337.676147460938 684.8818359375 1337.766845703125 685.3568725585938 1337.766845703125 C 686.7974853515625 1337.766845703125 688.412109375 1336.932250976562 689.5613403320312 1336.93212890625 C 690.0191650390625 1336.93212890625 690.4028930664062 1337.064453125 690.6726684570312 1337.434814453125 C 691.8428344726562 1339.041259765625 691.3637084960938 1342.25439453125 688.6920776367188 1343.860595703125 C 687.8015747070312 1344.39599609375 686.5372314453125 1344.574584960938 685.2474975585938 1344.574584960938 C 682.6678466796875 1344.574584960938 679.9860229492188 1343.860595703125 679.9860229492188 1343.860595703125 C 679.9860229492188 1343.860595703125 679.9155883789062 1348.263427734375 678.1957397460938 1349.731201171875 C 677.3986206054688 1350.411376953125 676.5203857421875 1350.69482421875 675.680908203125 1350.69482421875 C 674.7091674804688 1350.69482421875 673.7892456054688 1350.315063476562 673.1066284179688 1349.731201171875 C 671.8342895507812 1348.642578125 673.1066284179688 1345.377197265625 673.1066284179688 1345.377197265625 L 669.6637573242188 1345.377197265625 L 661.5358276367188 1347.04052734375 L 659.3578491210938 1332.3759765625 L 654.4119262695312 1313.09521484375 L 669.6637573242188 1310.348388671875 Z" stroke="none" fill="#fff"/>
      </g>
      <path id="Path_1062" data-name="Path 1062" d="M824.4,1349.43,792.932,1331.4l-10.258,6.068-10.469,11.963-9.548,18.012,6.479,11.887V1401.7l17.338,5.779v15.427l23.469,12.734Z" transform="translate(-482.356 -994.885)" fill="#f5e7b8"/>
      <path id="Path_1051" data-name="Path 1051" d="M578.075,1378.878l-42.269-27.049,9.477-14.313,33.973,16.045-25.025,29.186-23.883,11.372-10.461-8.441" transform="translate(-638.277 -990.956)" fill="none" stroke="#fff" stroke-linecap="round" stroke-linejoin="round" stroke-width="2"/>
      <path id="Path_1047" data-name="Path 1047" d="M601.613,1276.982l-.414,9.331.414,10.316,5.133,5.851h15.535l-17.085,1.8v7.764l-1.75-7.764-12.431,12.806-1.022,9.658" transform="translate(-593.252 -1029.836)" fill="none" stroke="#fff" stroke-linecap="round" stroke-linejoin="round" stroke-width="2"/>
      <path id="Path_1048" data-name="Path 1048" d="M581.7,1333.812l21.834-50.764-9.442,9.833,5.617,22.887-1.118-15.513-1.283-8.757" transform="translate(-598.577 -1025.94)" fill="none" stroke="#fff" stroke-linecap="round" stroke-linejoin="round" stroke-width="2"/>
      <path id="Path_886" data-name="Path 886" stroke="#7e20ff" d="M3439.284-803.116l23.185-34.5-44.158-16.358s-20.037-13.848-23.152-25.69c-1.137-4.322,2.691-4.446,3.873-7.447,1.534-3.959,2.768-8.144,19.28-12.389,8.354-2.148,13.275-.9,20.88-.78,6.406.1,15.4-.869,31.665-7.143,32.936-12.7,36.356-17.6,56.249-31.919s2.631-32.346,17.426-28.327,23.958,19.286,43.536,30.559,18.688,7.5,28.533,12.977,6.206,10.924,14.315,15.1,12.333-1.714,18.125,1.609,0,16.082,0,16.082" fill="none" transform="translate(-3468.896 1490.922)" stroke-linecap="round" stroke-linejoin="round" stroke-width="4" stroke-dasharray="8"/>
      <path id="Path_888" data-name="Path 888" stroke="#7e20ff" d="M3499.7-942.365s-26.305-.165-30.676-12.435-.608-29.218,9.456-37.734,16.847,3.586,26,0,10.618-14.345,10.618-14.345" fill="none" transform="translate(-3422.477 1466.106)" stroke-linecap="round" stroke-linejoin="round" stroke-width="4" stroke-dasharray="8"/>
      <path id="Path_1044" data-name="Path 1044" d="M629.022,1283.788l10.566,5.37,44.511-2.878,14.083,16.524-11.526,26.645" transform="translate(-568.185 -1025.464)" fill="none" stroke="#fff" stroke-linecap="round" stroke-linejoin="round" stroke-width="2"/>
      <path id="Path_1043" data-name="Path 1043" d="M606,1274.826l-16.479,13.47H621.88l15.442-3.491v9l2.713-9,14.311,3.491-10.051,5.51v6.182" transform="translate(-593.558 -1031.22)" fill="none" stroke="#fff" stroke-linecap="round" stroke-linejoin="round" stroke-width="2"/>
      <path id="Path_893" data-name="Path 893" d="M3643.3-957.521l4.266,3.566,21.139-7.813,8.489,6.032,3.015-11.281-17.991-6.045,17.991-15.861-22.244-20.445-10.4-25.51-59.374,11.33v10.163l-9.261,9.479-7.876-13.08,13.373-29.8-18.848-6.761,5.475-21.763-5.475-14.161-36.91,14.161-12.185-17.862-3.167-15.067-14.1-11.807-26.835,34.528-11.686-7.654-11.14,12.909,2.471,8.545h8.669l-5.521,14.156-11.326-4.56-14.205-15.858-2.568,6.262-4.207,3.536,4.207,6.06-23.752,54.51,62.388,37.07,16.7-18.379-10.025-12.3,2.626-10.046,7.4-5.713,50.382,25.79,4.659,37.24,41.487,13.96,33.685,4.582,2.89-4.582-20.666-4.7,13.058-12.831,17.719,12.831Z" transform="translate(-3463.521 1393.421)" fill="#f5e7b8" stroke="#fff" stroke-linecap="round" stroke-linejoin="round" stroke-width="4"/>
      <path id="Path_912" data-name="Path 912" d="M3520.318-1037.23l-13.011-21.421-10.062-6.855-9.723,14.909,5.557,5.976v20.326l9.258.826,4.122,5.573Z" transform="translate(-3411.084 1431.737)" fill="#dedede" stroke="#c8c29d" stroke-linecap="round" stroke-linejoin="round" stroke-width="2"/>
      <path id="Path_1056" data-name="Path 1056" d="M601.162,1358.117l6.226,6.124,11.184-1.066-11.184,2.495,1.063,6.682,8.292,5.008,14.244-7.053,10.927,7.053-1.27,16.6,13.153-10.9,4.778,28.922-12.94,2.651v-2.651l9.208-1.88-1.047-2.25-8.161,2.25,3.978-12.041-11.333.824v-14.65" transform="translate(-586.078 -977.725)" fill="none" stroke="#fff" stroke-linecap="round" stroke-linejoin="round" stroke-width="2"/>
      <path id="Path_1099" data-name="Path 1099" d="M499.862,1502.5l7.177-19.1,23.27,14.975,26.805,7.885-12.332,6.636-21.879-6.636Z" transform="translate(-651.139 -897.259)" fill="#f3e2ac" stroke="#c8c29d" stroke-linecap="round" stroke-linejoin="round" stroke-width="2"/>
      <g id="Path_1057" data-name="Path 1057" transform="translate(-587.733 -967.781)" fill="none" stroke-linecap="round" stroke-linejoin="round">
        <path d="M606.61,1373.6l8.308,8.317-3.3,9.265-13.033-8.147,2.784-3.414Z" stroke="none"/>
        <path d="M 606.8112182617188 1379.46240234375 L 604.5570068359375 1382.052368164062 L 609.51904296875 1385.154052734375 L 610.3018798828125 1382.95654296875 L 606.8112182617188 1379.46240234375 M 606.6098022460938 1373.60107421875 L 614.9181518554688 1381.917724609375 L 611.6176147460938 1391.18310546875 L 598.5849609375 1383.036376953125 L 601.3687133789062 1379.622802734375 L 606.6098022460938 1373.60107421875 Z" stroke="none" fill="#fff"/>
      </g>
      <path id="Path_1058" data-name="Path 1058" d="M613.02,1370.1l-6,22.144,15.7,7.444,13.181-8.557Z" transform="translate(-582.318 -970.028)" fill="none" stroke="#fff" stroke-linecap="round" stroke-linejoin="round" stroke-width="2"/>
      <path id="Path_1059" data-name="Path 1059" d="M628.855,1382.685l-13.737-14.748" transform="translate(-577.115 -971.418)" fill="none" stroke="#fff" stroke-linecap="round" stroke-linejoin="round" stroke-width="2"/>
      <path id="Path_1060" data-name="Path 1060" d="M596.169,1382.5l22.43,12.183,3.659-5.686,7.186,2.849,2.566,8.177,18.107-.946L648,1396.231l-15.994,1.539v-3.092H648" transform="translate(-589.285 -962.068)" fill="none" stroke="#fff" stroke-linecap="round" stroke-linejoin="round" stroke-width="2"/>
      <path id="Path_1174" data-name="Path 1174" d="M736.991,1722.325l-42.315-46.508,2.607,21.35,12.536,26.574,9.385,8.107Z" transform="translate(-526.018 -773.68)" fill="#79d7f5" stroke="#c8c29d" stroke-width="2"/>
      <path id="Path_1105" data-name="Path 1105" d="M560.483,1475.036l-1.617,4.375H543.472l-17.239,14.371-18.142-9.8-4.679,1.775,25.957,17.319,19.836,6.9,3.05-12.875,15.783-18.678Z" transform="translate(-648.86 -902.633)" fill="#d1e0a8"/>
      <path id="Path_1061" data-name="Path 1061" d="M794.5,1330.545l-16.7,14.359-14.942,22.125,7.722,11.915v23.59h-9.37l-2.328,17.535h16.22l17.5,4.644,20.439,13.21" transform="translate(-484.777 -995.434)" fill="none" stroke="#fff" stroke-linecap="round" stroke-linejoin="round" stroke-width="4"/>
      <path id="Path_1095" data-name="Path 1095" d="M487.848,1435.958l15.185-14.237,7.469,5.788h14.631l17.214-7.679,21.04-22.555,14.914-1.346,15.859,10.08,6.031,13.821-6.031,19.982,2.8,14.962-7.793,8.642-16.109,2.1-2.971-5.832,4.866-2.265,10.107-10.466v-13.6l-6.76-5.848,6.76-13.167-2.65-3.27H563.386v10.649l-12.252-1.891-10.045,6.262-15.957,4.865-2.17,13.117h-8.254l-6.546-13.117-9.1,2.4-11.216,8.689,4.679,4.91,17.975,1.91,8.31,12.435,22.278,8.594,5.76,3.338h11.895v8.127h-6.211l-6.945-4.175H522.963l-6.424,1.28-6.037,6.7v8.467l11.215,1.392,10.906,8.049-12.557-2.8-3.527,2.8,16.084,14.935v16.467l-6.851,7.958-15.271-6.2-20.754-26.44,1.344-6.717,12.959-5.9-1.018-4.793-1.762-8.235v-4.68l-11.524-13.947v-8.1l-7.888-2.647-3.11,15.12,9.1,18,9.677,12.377-7.778,16.516,9.317,26.827-26.083-23.359-7.292-2.247,9.578-6.7,6.591-12.935-11.532-17.012-1.555-15.84Z" transform="translate(-673.087 -953.44)" fill="#d1e0a8"/>
      <path id="Path_911" data-name="Path 911" d="M3515.137-1050.765l-35.9-9.731-14.2-1.28-8.794,2.615-7.644,7.341-5.407,12.769,9.248,12.728" transform="translate(-3439.626 1430.848)" fill="none" stroke="#c8c29d" stroke-linecap="round" stroke-width="2"/>
      <path id="Path_1029" data-name="Path 1029" d="M601.174,1292.692l8.5-28.585,37.236-15.318L631.785,1244s-17.949,18.617-18.432,18.458" transform="translate(-586.07 -1051.021)" fill="none" stroke="#fff" stroke-linecap="round" stroke-linejoin="round" stroke-width="2"/>
      <path id="Path_898" data-name="Path 898" d="M3448.1-1009.931l7.924-12.58,7.678-47.184-13.617-3.768-1.986,5.895-17.522-7.262-21.558,41.868" transform="translate(-3459.862 1422.463)" fill="none" stroke="#c8c29d" stroke-width="2"/>
      <path id="Path_894" data-name="Path 894" d="M3414.725-1078.44l29.8,12.449a194.459,194.459,0,0,0-10.031,35.04,194.673,194.673,0,0,0-2.225,36.387" transform="translate(-3456.196 1420.145)" fill="none" stroke="#fff" stroke-linecap="round" stroke-linejoin="round" stroke-width="4"/>
      <path id="Path_895" data-name="Path 895" d="M3469.659-1042.857l-59.159-25.689" transform="translate(-3458.909 1426.5)" fill="none" stroke="#fff" stroke-linecap="round" stroke-width="4"/>
      <path id="Path_896" data-name="Path 896" d="M3472.467-1036.5l-14.257,1.944-52.082-24.4" transform="translate(-3461.717 1432.659)" fill="none" stroke="#fff" stroke-linecap="round" stroke-width="2"/>
      <path id="Path_1033" data-name="Path 1033" d="M663.834,1276.452l19.541,2.862,29.284,21.02,6.9,4.368,13.832-4.368" transform="translate(-545.827 -1030.176)" fill="none" stroke="#fff" stroke-linecap="round" stroke-linejoin="round" stroke-width="2"/>
      <path id="Path_1034" data-name="Path 1034" d="M706.3,1289.674l.308,12.76,12.973,16.208,7.5,25.842h-9.54l-17.756,17.052v6.062l-34.663,7.316" transform="translate(-545 -1021.683)" fill="none" stroke="#fff" stroke-linecap="round" stroke-linejoin="round" stroke-width="2"/>
      <path id="Path_1054" data-name="Path 1054" d="M552.084,1366.329l-3.067,13.879-28.7-3.827" transform="translate(-638.004 -972.451)" fill="none" stroke="#fff" stroke-linecap="round" stroke-linejoin="round" stroke-width="2"/>
      <path id="Path_897" data-name="Path 897" d="M3480.963-1118.552s-19.123,18.492-30.953,38.111a168.532,168.532,0,0,0-17.086,40.267" transform="translate(-3444.507 1394.382)" fill="none" stroke="#fff" stroke-linecap="round" stroke-width="4"/>
      <path id="Path_899" data-name="Path 899" d="M3442.313-1045h17.9l32.353-46-14.63-10.879-6.8-9.142" transform="translate(-3438.477 1399.213)" fill="none" stroke="#c8c29d" stroke-linecap="round" stroke-linejoin="round" stroke-width="2"/>
      <path id="Path_1063" data-name="Path 1063" d="M812.357,1336.416l-21.686,14.936-6.64,17v49.491l-1.906-14.026-17.065-5.107" transform="translate(-480.812 -991.663)" fill="none" stroke="#fff" stroke-linecap="round" stroke-linejoin="round" stroke-width="2"/>
      <path id="Path_1064" data-name="Path 1064" d="M809.3,1375.984l-13.614,3.8H776.057" transform="translate(-473.75 -966.25)" fill="none" stroke="#fff" stroke-linecap="round" stroke-linejoin="round" stroke-width="2"/>
      <path id="Path_1065" data-name="Path 1065" d="M786.18,1342.378l3.263,25.717-3.263,20.344,6.682,11.538" transform="translate(-467.249 -987.834)" fill="none" stroke="#fff" stroke-linecap="round" stroke-linejoin="round" stroke-width="2"/>
      <path id="Path_1066" data-name="Path 1066" d="M816.462,1376.073l-35.04-6.586-11.209-11.438,19.479-25.694" transform="translate(-477.504 -994.271)" fill="none" stroke="#fff" stroke-linecap="round" stroke-linejoin="round" stroke-width="2"/>
      <path id="Path_1067" data-name="Path 1067" d="M779.026,1352.3l-12.036,20.612" transform="translate(-479.574 -981.463)" fill="none" stroke="#fff" stroke-linecap="round" stroke-linejoin="round" stroke-width="2"/>
      <path id="Path_900" data-name="Path 900" d="M3455.878-1057.023l-14.259-9.464" transform="translate(-3438.922 1427.822)" fill="none" stroke="#c8c29d" stroke-linecap="round" stroke-width="2"/>
      <path id="Path_901" data-name="Path 901" d="M3461.543-1047.861l-8.415-22.831" transform="translate(-3431.531 1425.121)" fill="none" stroke="#c8c29d" stroke-linecap="round" stroke-width="2"/>
      <path id="Path_902" data-name="Path 902" d="M3470.191-1066.253l-12.554-10.445Z" transform="translate(-3428.635 1421.264)" fill="none" stroke="#c8c29d" stroke-linecap="round" stroke-width="2"/>
      <path id="Path_1107" data-name="Path 1107" d="M597.694,1566.43l4.317-8.8h8.557l16.212,17.712,1,10.188-13.965-11.724Z" transform="translate(-589.948 -849.586)" fill="#f5e7b8" stroke="#c8c29d" stroke-width="2"/>
      <path id="Path_903" data-name="Path 903" d="M3464.847-1040.958v-14.388l22.735-28.693,18.586-9.059h20.022" transform="translate(-3424.004 1410.73)" fill="none" stroke="#c8c29d" stroke-linecap="round" stroke-linejoin="round" stroke-width="2"/>
      <path id="Path_904" data-name="Path 904" d="M3528.2-1056.624l-16.533-13.416-22.783-10.695-37.505-22.445" transform="translate(-3432.656 1404.256)" fill="none" stroke="#c8c29d" stroke-width="2"/>
      <path id="Path_905" data-name="Path 905" d="M3496.394-1099.955v16.809l-4.677,14.327" transform="translate(-3406.747 1406.326)" fill="none" stroke="#c8c29d" stroke-width="2"/>
      <path id="Path_907" data-name="Path 907" d="M3511.227-1089.134l-8.181,22.987-10.523,20.094" transform="translate(-3406.229 1413.277)" fill="none" stroke="#c8c29d" stroke-width="2"/>
      <path id="Path_908" data-name="Path 908" d="M3484.787-1070.826l-7.366,11.931v10.143" transform="translate(-3415.929 1425.035)" fill="none" stroke="#c8c29d" stroke-linecap="round" stroke-linejoin="round" stroke-width="2"/>
      <path id="Path_906" data-name="Path 906" d="M3527.228-1038.08l-90.8-65.614" transform="translate(-3442.258 1403.925)" fill="none" stroke="#fff" stroke-linecap="round" stroke-linejoin="round" stroke-width="4"/>
      <path id="Path_909" data-name="Path 909" d="M3487.331-1048.046l8.438-16.562Z" transform="translate(-3409.564 1429.029)" fill="none" stroke="#fff" stroke-linecap="round" stroke-linejoin="round" stroke-width="4"/>
      <path id="Path_1035" data-name="Path 1035" d="M697.712,1307.735l34.247-3.964,14.691,10.369,13.469,20.582,20.3-16.761,21.47,11.168-1.112,18.382,4.344,29.185-8.785-10.119H775.265l-10.807,6.476-4.339,14.758,2.819,19.768-6.451,21.734" transform="translate(-524.068 -1012.63)" fill="none" stroke="#fff" stroke-linecap="round" stroke-linejoin="round" stroke-width="2"/>
      <path id="Path_910" data-name="Path 910" d="M3491.586-1036.057v-10.613l-33.223-9.942" transform="translate(-3428.169 1434.164)" fill="none" stroke="#c8c29d" stroke-width="2"/>
      <path id="Path_913" data-name="Path 913" d="M3493.218-1008.857l1.841-14.747,6.451-11.586" transform="translate(-3405.783 1447.922)" fill="none" stroke="#c8c29d" stroke-linecap="round" stroke-width="2"/>
      <path id="Path_914" data-name="Path 914" d="M3518.31-1004.97v-11.462l-23.467-10.839" transform="translate(-3404.739 1453.008)" fill="none" stroke="#c8c29d" stroke-linecap="round" stroke-width="2"/>
      <path id="Path_1037" data-name="Path 1037" d="M698.151,1307.181l14.892,20.283,2.534,8.078,9.3,11.452,9.544,9.222L722.1,1377.172l-9.062-2.3" transform="translate(-523.786 -1010.44)" fill="none" stroke="#fff" stroke-linecap="round" stroke-linejoin="round" stroke-width="2"/>
      <path id="Path_915" data-name="Path 915" d="M3515.946-982.5v-8.439l34.593-54.322,18.2-13.166,7.338,13.166,12.951,8.16" transform="translate(-3391.186 1432.999)" fill="none" stroke="#c8c29d" stroke-linecap="round" stroke-width="2"/>
      <path id="Path_916" data-name="Path 916" d="M3566.308-1054.79l-1.329-9.675-45.3,8.7,1.685,10.094h19.154v-4.692l20.492-11.887" transform="translate(-3388.786 1429.12)" fill="none" stroke="#c8c29d" stroke-linecap="round" stroke-width="2"/>
      <path id="Path_917" data-name="Path 917" d="M3522.038-1040.139v-12.872" transform="translate(-3387.273 1436.477)" fill="none" stroke="#c8c29d" stroke-linecap="round" stroke-width="2"/>
      <path id="Path_918" data-name="Path 918" d="M3509.133-1006.2l15.3-22.389v-16.633h6.211" transform="translate(-3395.562 1441.481)" fill="none" stroke="#c8c29d" stroke-linecap="round" stroke-width="2"/>
      <path id="Path_1104" data-name="Path 1104" d="M557.711,1432.526l13.994,1.951,7.2,9.122-4.11,12.635-13.87-4.452-4.6,4.452-10.438,14.8v5.462h-9.394l-8-7.6-1.208-8.12,6.235-6.491,21.442-8v-9.051Z" transform="translate(-633.525 -929.935)" fill="#d1e0a8"/>
      <path id="Path_919" data-name="Path 919" d="M3565.533-1010.618l-12.709-7.555-19.021,2.467-35.494-18.739" transform="translate(-3402.513 1448.401)" fill="none" stroke="#c8c29d" stroke-linecap="round" stroke-width="2"/>
      <path id="Path_920" data-name="Path 920" d="M3555.563-1021.93l2.9-11.75-5.5-12.764" transform="translate(-3367.412 1440.694)" fill="none" stroke="#c8c29d" stroke-linecap="round" stroke-width="2"/>
      <path id="Path_887" data-name="Path 887" stroke="#7e20ff" d="M3720.309-1001.126s-34.519,18.078-74.684,21.01-86.253-11.268-86.253-11.268-46.346-16.405-82.133-24.59c-22.382-5.119-38.508-2.341-57.395-7.033-48.181-11.971-53.2-16.26-53.2-16.26" fill="none" transform="translate(-3487.073 1445.304)" stroke-linecap="round" stroke-linejoin="round" stroke-width="4" stroke-dasharray="8"/>
      <path id="Path_921" data-name="Path 921" d="M3540.061-1011.952l23.393-19.36" transform="translate(-3375.698 1450.413)" fill="none" stroke="#c6bba0" stroke-linecap="round" stroke-width="2"/>
      <path id="Path_922" data-name="Path 922" d="M834.252,1213.024a64.066,64.066,0,0,1-36.214-11.8c-17.567-12.537-22.836-32.232-34.055-38.348-16.084-8.768-51.347-16.153-51.347-16.153l4.078,16.153" transform="translate(-514.483 -1113.496)" fill="none" stroke="#fff" stroke-width="2"/>
      <path id="Path_889" data-name="Path 889" stroke="#7e20ff" d="M3653.262-988.6s-22.056-30.2-38.479-48.909-9.63-27.333-19.829-30.094-84.192,10.418-101.531,19.651-7.064,72.878-7.064,72.878" fill="none" transform="translate(-3412.129 1426.867)" stroke-linecap="round" stroke-linejoin="round" stroke-width="4" stroke-dasharray="8"/>
      <path id="Path_1103" data-name="Path 1103" d="M568.04,1449.8l-15.088-4.667-7.07,9.993-6.235,6.969,4.552,9.763,14.443-4.774Z" transform="translate(-625.587 -921.838)" fill="#fff" stroke="#fff" stroke-linecap="round" stroke-linejoin="round" stroke-width="2"/>
      <path id="Path_1026" data-name="Path 1026" d="M603.376,1239.146l42.067,12.736,24.062,5.228,39.707,13.365,2.369-17.164,6.954,14.548h13.11l11.288,7.667" transform="translate(-584.656 -1054.136)" fill="none" stroke="#fff" stroke-linecap="round" stroke-linejoin="round" stroke-width="2"/>
      <path id="Path_1024" data-name="Path 1024" d="M696.966,1183.407l.4-19.793" transform="translate(-524.547 -1102.647)" fill="none" stroke="#fff" stroke-linecap="round" stroke-width="2"/>
      <path id="Path_1015" data-name="Path 1015" d="M789.524,1277.46l-4.057-16.372L769.838,1231.3l-7.621-13.366-14.789-12.06-16.4,4.679-16.76-4.679H696.966l10.314-19.069,18.507-15.44,13.752-23.662,10.56-3.033v-10.993" transform="translate(-524.547 -1121.875)" fill="none" stroke="#fff" stroke-linecap="round" stroke-linejoin="round" stroke-width="2"/>
      <path id="Path_1016" data-name="Path 1016" d="M745.162,1218.545l4.07-12.485-4.07-13.534,11.409-23.244,6.024,4.143L745.162,1132.4l-8.085,20.783-13.831,6.6" transform="translate(-507.668 -1122.696)" fill="none" stroke="#fff" stroke-linecap="round" stroke-linejoin="round" stroke-width="2"/>
      <path id="Path_1017" data-name="Path 1017" d="M740.324,1211.629l33.932-23.357,5.03-2.6,12.034-6.216-14.356-20.265v29.079" transform="translate(-496.7 -1105.487)" fill="none" stroke="#fff" stroke-linecap="round" stroke-linejoin="round" stroke-width="2"/>
      <path id="Path_1018" data-name="Path 1018" d="M620.477,1214.44l75.511-25.254,30.564-14.4,7.171,7.056,12.246-2.615-9.284,22.437,47.478,73.344" transform="translate(-573.673 -1095.472)" fill="none" stroke="#fff" stroke-linecap="round" stroke-linejoin="round" stroke-width="2"/>
      <path id="Path_1019" data-name="Path 1019" d="M750.5,1269.386l-26.829,3.355-13.41-8.33,5.655-4.708H702.94l-10.22-16.4-14.552-9.235-5.275-28.864,30.048-14.212" transform="translate(-540.008 -1085.066)" fill="none" stroke="#fff" stroke-linecap="round" stroke-linejoin="round" stroke-width="2"/>
      <path id="Path_1020" data-name="Path 1020" d="M642.583,1177.453l-1.748,23.714,5.789,10.252-4.041,16.43v13.1l9.842,11.974,8.467,3.935" transform="translate(-560.598 -1093.759)" fill="none" stroke="#fff" stroke-linecap="round" stroke-linejoin="round" stroke-width="2"/>
      <path id="Path_1096" data-name="Path 1096" d="M506.082,1439.146l-7.365-13.721-6.772,1.466-11.757,10,2.373,4.483,19.1,2.2,7.742,11.681,17.7,7,9.847,4.013,11.725,2.088v7.02h-6.748l-7.391-3.407H508.017l-6.354,9.569v7.108h11.924l11.068,8.134-13.5-2.339-3.133,2.339,16.637,18.27v13.5l16.032,11.008,17.087-14.912h16.735l3.764-10.89-2.191-19.318h-8.9l-9.412-8.905v-8.459l5.61-5.107,22.076-7.376v-12.015l-18.274,8.245-6.969-5.573,15.864-13.884v-14.481l-6.844-5.173,6.844-13.318-1.573-3.473-19.5,1.247v10.144l-11.644-1.835-25.931,10.942-3.841,13.721Z" transform="translate(-663.775 -947.661)" fill="#f3e2ac" stroke="#c8c29d" stroke-linecap="round" stroke-linejoin="round" stroke-width="2"/>
      <path id="Path_1021" data-name="Path 1021" d="M690.75,1211.891l-13.455,2.2-24.969-19.429,5.333-12.238-10.379-2.361-2.19,4.909,9.492,4.037" transform="translate(-557.865 -1092.085)" fill="none" stroke="#fff" stroke-linecap="round" stroke-linejoin="round" stroke-width="2"/>
      <path id="Path_1022" data-name="Path 1022" d="M654.283,1192.092l-13.179-6.623" transform="translate(-560.425 -1088.61)" fill="none" stroke="#fff" stroke-linecap="round" stroke-linejoin="round" stroke-width="2"/>
      <path id="Path_1023" data-name="Path 1023" d="M682.273,1183.928l-2.791,11.589v9.3" transform="translate(-535.776 -1089.6)" fill="none" stroke="#fff" stroke-linecap="round" stroke-linejoin="round" stroke-width="2"/>
      <path id="Path_1077" data-name="Path 1077" d="M641.879,1456.5l29.178-32.851,125.954,35.784h23.611l-19.273.876,1.36,21.8,15.9,10.342-1.729-9.234v-13.435s3.488-9.259,3.74-10.352" transform="translate(-559.927 -935.634)" fill="none" stroke="#fff" stroke-linecap="round" stroke-linejoin="round" stroke-width="2"/>
      <path id="Path_1078" data-name="Path 1078" d="M743.748,1448.522l.1,15.153" transform="translate(-494.501 -919.662)" fill="none" stroke="#fff" stroke-linecap="round" stroke-linejoin="round" stroke-width="2"/>
      <path id="Path_1079" data-name="Path 1079" d="M796.228,1506.442,784.2,1479.49l-14.987-10.876-19.694-3.526" transform="translate(-490.791 -909.022)" fill="none" stroke="#fff" stroke-linecap="round" stroke-linejoin="round" stroke-width="2"/>
      <path id="Path_1080" data-name="Path 1080" d="M779.433,1492.6l6.978-2.242-2.3-5.832h-8.436" transform="translate(-473.996 -896.54)" fill="none" stroke="#fff" stroke-linecap="round" stroke-linejoin="round" stroke-width="2"/>
      <path id="Path_1025" data-name="Path 1025" d="M763.941,1192.4l-4.686-7.417H736.8" transform="translate(-498.964 -1088.921)" fill="none" stroke="#fff" stroke-linecap="round" stroke-linejoin="round" stroke-width="2"/>
      <path id="Path_1027" data-name="Path 1027" d="M619.544,1261.214l8-8.839,14.4,1.827-12.405-20.462-1.994-17.207" transform="translate(-574.272 -1068.658)" fill="none" stroke="#fff" stroke-linecap="round" stroke-linejoin="round" stroke-width="2"/>
      <path id="Path_1028" data-name="Path 1028" d="M659.941,1253.786l-9.382,2.546v-7.09L632.293,1239.2" transform="translate(-566.084 -1054.102)" fill="none" stroke="#fff" stroke-linecap="round" stroke-linejoin="round" stroke-width="2"/>
      <path id="Path_1030" data-name="Path 1030" d="M603.376,1274.22l39.846-18.529" transform="translate(-584.656 -1043.51)" fill="none" stroke="#fff" stroke-linecap="round" stroke-linejoin="round" stroke-width="2"/>
      <path id="Path_1031" data-name="Path 1031" d="M638.8,1253.608l41.11,29.874-1.819,21.673" transform="translate(-561.904 -1044.848)" fill="none" stroke="#fff" stroke-linecap="round" stroke-linejoin="round" stroke-width="2"/>
      <path id="Path_1032" data-name="Path 1032" d="M669.03,1258.821l-2.772,21.321" transform="translate(-544.27 -1044.784)" fill="none" stroke="#fff" stroke-linecap="round" stroke-linejoin="round" stroke-width="2"/>
      <path id="Path_1036" data-name="Path 1036" d="M735.639,1322.181l3.346,12.573,5.663,12.67,8.3,7.926" transform="translate(-499.709 -1000.806)" fill="none" stroke="#fff" stroke-linecap="round" stroke-linejoin="round" stroke-width="2"/>
      <path id="Path_1038" data-name="Path 1038" d="M712.448,1378.915l5.431,14.658,9.115,4.373v7.817l2.032-8.916,7.627-3.274h3.489V1369l3.256-7.767v-15.257l-14.372-16.933-5.76-10.9v-13.671" transform="translate(-514.603 -1012.184)" fill="none" stroke="#fff" stroke-linecap="round" stroke-linejoin="round" stroke-width="2"/>
      <path id="Path_1039" data-name="Path 1039" d="M708.168,1305.308l13.271,7.7,5.6,18.578-23.633,2.659" transform="translate(-520.412 -1011.643)" fill="none" stroke="#fff" stroke-linecap="round" stroke-linejoin="round" stroke-width="2"/>
      <path id="Path_1040" data-name="Path 1040" d="M738.184,1311.8l-2.074,23.714-5.307,6.215-2.8,7.248-14.088-6.124" transform="translate(-513.66 -1007.471)" fill="none" stroke="#fff" stroke-linecap="round" stroke-linejoin="round" stroke-width="2"/>
      <path id="Path_1041" data-name="Path 1041" d="M752.693,1338.921l-8.418,5.133H731.841l-9.277-9.568" transform="translate(-508.107 -992.903)" fill="none" stroke="#fff" stroke-linecap="round" stroke-linejoin="round" stroke-width="2"/>
      <path id="Union_2" data-name="Union 2" d="M0,134.711l1.768-10.706,14.747-17.9L35.152,111.2l2.972-3.136-20.2-6.746L16.515,78.48,31.071,74.35l8.5-16.686,6.241,2.409-6.234-2.867,4.153-14.633L36.579,33.38l-12.9-1.6L21.359,13.293,25.634,0,41.471,4.823v6.632l16.481-3.3,4.236,9.176,10.97-1.209,8.229,4.1H91.2l8.138,3.33L95.864,35.207l10.6,11.4-3.563,10.6,3.563,8.423L84.369,71.318,67.74,61.634l-20.606-1.05,5.363,2.07v9.083L75.155,78.48,78.88,90.963l10.713-5.316,9.2,11.133L85.67,106.108l-5.513-2.963-20.7,18.715-17.371-5.866L24.87,120.121l-10.29-4.128,3.343,19.337Z" transform="translate(-98.405 470.535)" fill="#f3e2ac" stroke="#c8c29d" stroke-linecap="round" stroke-linejoin="round" stroke-width="2"/>
      <path id="Path_1049" data-name="Path 1049" d="M585.886,1341.491l-2.83-20.605-4.661-5.543,7.491-10.837" transform="translate(-600.7 -1012.158)" fill="none" stroke="#fff" stroke-linecap="round" stroke-linejoin="round" stroke-width="2"/>
      <path id="Path_1050" data-name="Path 1050" d="M587.35,1320.428l-5.43-4.222-9.014-1.191" transform="translate(-604.225 -1005.408)" fill="none" stroke="#fff" stroke-linecap="round" stroke-linejoin="round" stroke-width="2"/>
      <path id="Path_1052" data-name="Path 1052" d="M549.723,1363.933l-14.469-6.286" transform="translate(-628.409 -978.028)" fill="none" stroke="#fff" stroke-linecap="round" stroke-linejoin="round" stroke-width="2"/>
      <path id="Path_1053" data-name="Path 1053" d="M540.682,1365.317l12.944,9.691" transform="translate(-624.922 -973.101)" fill="none" stroke="#fff" stroke-linecap="round" stroke-linejoin="round" stroke-width="2"/>
      <path id="Path_1086" data-name="Path 1086" d="M772.584,1392.841l9.227,9.875-2.6,1.011-8.205-8.9-2.113,2.357,8.291,8.909" transform="translate(-478.35 -955.424)" fill="none" stroke="#fff" stroke-linecap="round" stroke-linejoin="round" stroke-width="2"/>
      <path id="Path_1087" data-name="Path 1087" d="M770.907,1433.9l18.283,5.278-4.7,8.7h-7.332l-5.361-5.905Z" transform="translate(-477.058 -929.054)" fill="#fff"/>
      <path id="Path_1055" data-name="Path 1055" d="M563.675,1366.329l-6.8,12.843" transform="translate(-614.521 -972.451)" fill="none" stroke="#fff" stroke-linecap="round" stroke-linejoin="round" stroke-width="2"/>
      <path id="Path_1071" data-name="Path 1071" d="M654.412,1429.821l38.815,12.3,42.8,13.31,5.308-13.31,8.5,2.82-6.909,19.415-10.044,28.226,12.863-28.226,17.682,7.052-13.591,45.967-16.953-6.148" transform="translate(-551.878 -931.673)" fill="none" stroke="#c8c29d" stroke-linecap="round" stroke-linejoin="round" stroke-width="2"/>
      <path id="Path_1072" data-name="Path 1072" d="M728.47,1442.509l-3.214,13.854,22.317,5.6" transform="translate(-506.378 -923.524)" fill="none" stroke="#c8c29d" stroke-linecap="round" stroke-linejoin="round" stroke-width="2"/>
      <path id="Path_1073" data-name="Path 1073" d="M776.159,1442.509l-6.111,8.525,18.8,20.469H767.536l-4.774,11" transform="translate(-482.289 -923.524)" fill="none" stroke="#c8c29d" stroke-linecap="round" stroke-linejoin="round" stroke-width="2"/>
      <path id="Path_1074" data-name="Path 1074" d="M792.684,1502.208l-3.47-9.3H785.1l-9.048-23.752,3.364-8.733" transform="translate(-473.753 -912.015)" fill="none" stroke="#c8c29d" stroke-linecap="round" stroke-linejoin="round" stroke-width="2"/>
      <path id="Path_1075" data-name="Path 1075" d="M794.547,1462.651l-2.619,12.616,11.878,26.176" transform="translate(-463.556 -910.588)" fill="none" stroke="#c8c29d" stroke-linecap="round" stroke-linejoin="round" stroke-width="2"/>
      <path id="Path_1076" data-name="Path 1076" d="M777.409,1463.309l12.435,3.848,8.213,21.833-9.6,2.328,9.6-2.328,4.661,12.228" transform="translate(-472.882 -910.165)" fill="none" stroke="#c8c29d" stroke-linecap="round" stroke-linejoin="round" stroke-width="2"/>
      <path id="Path_1082" data-name="Path 1082" d="M741.409,1462l-.714-34.6,7.5-8.209h9.871l-1.947,12-14.713-2.309,13.569,1.164L756.77,1420H748.2l-6.788,7.928,12.9.946,1.27-8.13H748.2l-5.037,6.651h10.6l.545-5.817H748.2l-2.657,4.885h7.384v-3.887h-4.248l-1.281,2.858h4.749v-2h-2.691v1.152H751.2" transform="translate(-496.462 -938.504)" fill="none" stroke="#fff" stroke-linecap="round" stroke-linejoin="round" stroke-width="2"/>
      <path id="Path_1083" data-name="Path 1083" d="M857.867,1442.537l-70.3-18.854" transform="translate(-466.355 -935.615)" fill="none" stroke="#000" stroke-linecap="round" stroke-linejoin="round" stroke-width="2"/>
      <path id="Path_1090" data-name="Path 1090" d="M489.889,1432.4l5.488,5.611,16.456-1.046,12.553-4.564,23.487-24.737,16.407-1.778v-26.291" transform="translate(-657.545 -963.932)" fill="none" stroke="#fff" stroke-linecap="round" stroke-linejoin="round" stroke-width="2"/>
      <path id="Path_1091" data-name="Path 1091" d="M556.112,1476.282l-6.655-37.313,6.771-17.708-6.771-15.841-14.7-9.853" transform="translate(-628.731 -953.672)" fill="none" stroke="#fff" stroke-linecap="round" stroke-linejoin="round" stroke-width="2"/>
      <path id="Path_1092" data-name="Path 1092" d="M543.443,1391.523l7.424,13.347,15.674,1.037,79.193,25.018,4.148-4.075,10.694,3.731-3.318,5.389,13.272-4.939,15.749-10.006-14.634-4.041-36.306-5-23.7-9.151-43.522-10.011-10.987-5.969Z" transform="translate(-623.149 -959.266)" fill="#eaeaea" stroke="#d1d1d1" stroke-linecap="round" stroke-linejoin="round" stroke-width="2"/>
      <path id="Path_1093" data-name="Path 1093" d="M550.039,1399.992l-3.451,6.634,3.884,2.821,2.914-1.178,7.247,13.094,24.447,2.162,22.068,12.941,34.749,2.208,6.812,4.218,5.693-4.218h9.22l1.811-6.185-98.1-31.232Z" transform="translate(-621.129 -950.831)" fill="#bcbcbc" stroke="#bcbcbc" stroke-linecap="round" stroke-linejoin="round" stroke-width="2"/>
      <path id="Path_1094" data-name="Path 1094" d="M535.1,1387.133l14.891,4.585v9.835l7.56,7.488,13.692-1.473,89.28,28.344,1.346-1.643-10.479-3.061,1.916-1.388,10.017,3.126v-1.738l-7.588-2.33" transform="translate(-628.506 -959.09)" fill="none" stroke="#fff" stroke-linecap="round" stroke-linejoin="round" stroke-width="2"/>
      <path id="Path_1097" data-name="Path 1097" d="M482.586,1432.535l13.082,23.3v10.638l2.936,6.471-2.936,7.9-15.572-18.43-6.343-12.992,1.707-13.714Z" transform="translate(-667.908 -929.93)" fill="#f3e2ac" stroke="#c8c29d" stroke-linecap="round" stroke-linejoin="round" stroke-width="2"/>
      <path id="Path_1098" data-name="Path 1098" d="M480.189,1474.11l7.237-10.055L499.887,1487l-4.991,8.689Z" transform="translate(-663.775 -909.685)" fill="#f3e2ac" stroke="#c8c29d" stroke-linecap="round" stroke-linejoin="round" stroke-width="2"/>
      <g id="Ellipse_42" data-name="Ellipse 42" transform="translate(-78.791 521.434)" fill="#fff" stroke="#c8c29d" stroke-linejoin="round" stroke-width="2">
        <circle cx="6.569" cy="6.569" r="6.569" stroke="none"/>
        <circle cx="6.569" cy="6.569" r="5.569" fill="none"/>
      </g>
      <path id="Path_1110" data-name="Path 1110" d="M551.707,1505.273l38.581,18.19,16.374,5.562L717.94,1530.3v-9.336l-7.24-11.827h-9.254l6.133-12.494,5.427-17.706-21.721-6.625-3.321,10.745,1.37,8.044,1.951,20.911,1.939,17.013" transform="translate(-617.841 -904.382)" fill="none" stroke="#c8c29d" stroke-width="2"/>
      <path id="Path_1111" data-name="Path 1111" d="M565.957,1487.566l-.62,42.923" transform="translate(-609.087 -894.586)" fill="none" stroke="#c8c29d" stroke-linecap="round" stroke-linejoin="round" stroke-width="2"/>
      <path id="Path_1112" data-name="Path 1112" d="M554.188,1498.114l37.54-.729,14.993.729,11.78,12.235,1.378,43.731" transform="translate(-616.248 -888.279)" fill="none" stroke="#c8c29d" stroke-linecap="round" stroke-linejoin="round" stroke-width="2"/>
      <path id="Path_1113" data-name="Path 1113" d="M576.262,1486.75l2.074,51.713" transform="translate(-602.071 -895.109)" fill="none" stroke="#c8c29d" stroke-linecap="round" stroke-linejoin="round" stroke-width="2"/>
      <path id="Path_1114" data-name="Path 1114" d="M576.262,1489.967l20.807,1.194,16.62,9.9,10.4,16.725" transform="translate(-602.071 -893.043)" fill="none" stroke="#c8c29d" stroke-linecap="round" stroke-linejoin="round" stroke-width="2"/>
      <path id="Path_1115" data-name="Path 1115" d="M586.925,1502.828l5.052-11.225" transform="translate(-595.222 -891.993)" fill="none" stroke="#c8c29d" stroke-linecap="round" stroke-linejoin="round" stroke-width="2"/>
      <path id="Path_1116" data-name="Path 1116" d="M561.126,1533.684l25.761,2.733,17.888,2.483,18.546,8.7,48.39-2.42-6.261-66.26,4.886-9.449" transform="translate(-611.792 -906.208)" fill="none" stroke="#c8c29d" stroke-linecap="round" stroke-linejoin="round" stroke-width="2"/>
      <path id="Path_1117" data-name="Path 1117" d="M584.669,1511.984l-.362,17.307" transform="translate(-596.904 -878.903)" fill="none" stroke="#c8c29d" stroke-linecap="round" stroke-linejoin="round" stroke-width="2"/>
      <path id="Path_1136" data-name="Path 1136" d="M648.755,1514.448,648,1533.306" transform="translate(-555.997 -877.321)" fill="none" stroke="#c8c29c" stroke-linecap="round" stroke-linejoin="round" stroke-width="2"/>
      <path id="Path_1120" data-name="Path 1120" d="M616.242,1485.6l32.511-1.2,31.151,9.846,3.529-9.846-13.885-5.1" transform="translate(-574.75 -898.255)" fill="none" stroke="#c8c29d" stroke-linecap="round" stroke-linejoin="round" stroke-width="2"/>
      <path id="Path_1121" data-name="Path 1121" d="M659.989,1475.395l-.987,13.35" transform="translate(-550.572 -900.76)" fill="none" stroke="#c8c29d" stroke-linecap="round" stroke-linejoin="round" stroke-width="2"/>
      <path id="Path_1122" data-name="Path 1122" d="M622.736,1569.806l-4.986-72.372" transform="translate(-575.425 -888.247)" fill="none" stroke="#c8c29d" stroke-linecap="round" stroke-linejoin="round" stroke-width="2"/>
      <path id="Path_1123" data-name="Path 1123" d="M597.692,1558.032l11.64-18.681,10.065,8.725,19.02,1.538,15.2-3.844-4.848-24.648,6.17,24.648,12.081-1.32-2.807-36.61,2.807,36.61,7.968,15.053,16.825,5.171,1.888.58-1.246-29.17H680.412v18.437l-5.428,4.983-1.321,11.324s1.259-11.677,1.321-11.324l18.712,5.751,15.7-.58,1.823-15.06-4.538-13.53s-13.578.149-14.229,0" transform="translate(-588.307 -881.564)" fill="none" stroke="#c8c29d" stroke-linecap="round" stroke-linejoin="round" stroke-width="2"/>
      <path id="Path_1184" data-name="Path 1184" d="M690.115,1523.816l13.284-20.448,14.95-3.586,12.125-4.967,14.137,6.206,34.5-2.853,10.248,9.078-25.61,9.486,6.358,10.59H724.528l-18.945-7.871Z" transform="translate(-528.947 -889.93)" fill="#79d7f5" stroke="#79d7f5" stroke-linecap="round" stroke-linejoin="round" stroke-width="2"/>
      <path id="Path_884" data-name="Path 884" stroke="#7e20ff" d="M3615.449-836.571s4.684-15.131,2.565-25.616-6.787-.369-11.042-16.321-3.961-20.641-1.842-40.057,8.537-21.152,10.319-37.606,2.088-25.155-3.564-33.111-14.521-4.659-22.034-9.99-8.02-11.335-8.02-11.335,29.128-17.157,52.726-17.157,43.979,19.316,43.979,19.316" fill="none" transform="translate(-3348.871 1452.692)" stroke-linecap="round" stroke-linejoin="round" stroke-width="4" stroke-dasharray="8"/>
      <path id="Path_1140" data-name="Path 1140" d="M661.222,1616.15l14.734-40.824,15.911-38.4" transform="translate(-547.504 -862.884)" fill="none" stroke="#fff" stroke-linecap="round" stroke-linejoin="round" stroke-width="2"/>
      <path id="Path_1124" data-name="Path 1124" d="M659.837,1497.772l8.535,12.7-3.676,12.4,1.675,19.365" transform="translate(-548.393 -888.031)" fill="none" stroke="#c8c29d" stroke-linecap="round" stroke-linejoin="round" stroke-width="2"/>
      <path id="Path_1125" data-name="Path 1125" d="M663.09,1481.79l12.529,6.49v6.558l5.907,1.985-3.087,5.553h-5.906l-6.143,4.568-14.774,1.653" transform="translate(-553.673 -898.295)" fill="none" stroke="#c8c29d" stroke-linecap="round" stroke-linejoin="round" stroke-width="2"/>
      <path id="Path_1126" data-name="Path 1126" d="M682.953,1531.168l4.4-12.1-1.313-13.71-9.532-11.057-1.187-5.929-8.374-2.3" transform="translate(-543.828 -895.544)" fill="none" stroke="#c8c29d" stroke-linecap="round" stroke-linejoin="round" stroke-width="2"/>
      <path id="Path_1127" data-name="Path 1127" d="M682.91,1552l-11.7-21.229-3.752-36.235" transform="translate(-543.501 -890.107)" fill="none" stroke="#c8c29c" stroke-linecap="round" stroke-linejoin="round" stroke-width="2"/>
      <path id="Path_1128" data-name="Path 1128" d="M582.046,1525.793l20.756,4.276h40.779l17.013-14.273-17.013,14.273-14.727,14.525-9.917,28.64" transform="translate(-598.356 -876.455)" fill="none" stroke="#fff" stroke-linecap="round" stroke-linejoin="round" stroke-width="2"/>
      <path id="Path_1129" data-name="Path 1129" d="M703.583,1514.073l-64.963.642" transform="translate(-562.021 -877.561)" fill="none" stroke="#fff" stroke-linecap="round" stroke-linejoin="round" stroke-width="2"/>
      <path id="Path_1130" data-name="Path 1130" d="M658.5,1489.967l-7.376,11.821" transform="translate(-553.99 -893.043)" fill="none" stroke="#c8c29d" stroke-linecap="round" stroke-linejoin="round" stroke-width="2"/>
      <path id="Path_1134" data-name="Path 1134" d="M585.226,1506.909l-.469,7.754" transform="translate(-596.614 -882.163)" fill="none" stroke="#c8c29d" stroke-width="2"/>
      <path id="Path_1135" data-name="Path 1135" d="M630.216,1516.224l14.591-1.777" transform="translate(-567.418 -877.321)" fill="none" stroke="#fff" stroke-linecap="round" stroke-linejoin="round" stroke-width="2"/>
      <path id="Path_1137" data-name="Path 1137" d="M681.735,1518.652l8.936,13.385-6.992,15.927" transform="translate(-534.329 -874.621)" fill="none" stroke="#c8c29c" stroke-linecap="round" stroke-linejoin="round" stroke-width="2"/>
      <path id="Path_1138" data-name="Path 1138" d="M686.848,1541.031l-10.142-11.666" transform="translate(-537.56 -867.74)" fill="none" stroke="#c8c29c" stroke-linecap="round" stroke-width="2"/>
      <path id="Path_1139" data-name="Path 1139" d="M852.543,1645.423l-172.408-108.56" transform="translate(-535.357 -862.924)" fill="none" stroke="#fff" stroke-linecap="round" stroke-linejoin="round" stroke-width="2"/>
      <path id="Path_1141" data-name="Path 1141" d="M685.932,1548.351l46.583,28.643-34.341,54.462-39.306-23.494" transform="translate(-549.015 -855.546)" fill="none" stroke="#fff" stroke-linecap="round" stroke-linejoin="round" stroke-width="2"/>
      <path id="Path_1142" data-name="Path 1142" d="M722.131,1576.953l-46.97-28.638" transform="translate(-538.551 -855.568)" fill="none" stroke="#fff" stroke-linecap="round" stroke-linejoin="round" stroke-width="2"/>
      <path id="Path_1143" data-name="Path 1143" d="M716.41,1584.307l-44.841-27.244" transform="translate(-540.859 -849.95)" fill="none" stroke="#fff" stroke-linecap="round" stroke-linejoin="round" stroke-width="2"/>
      <path id="Path_1144" data-name="Path 1144" d="M709.008,1592.421l-41.083-24.382" transform="translate(-543.199 -842.901)" fill="none" stroke="#fff" stroke-linecap="round" stroke-linejoin="round" stroke-width="2"/>
      <path id="Path_1145" data-name="Path 1145" d="M696.291,1592.97l-18-11.718" transform="translate(-536.539 -834.415)" fill="none" stroke="#fff" stroke-linecap="round" stroke-linejoin="round" stroke-width="2"/>
      <path id="Path_1146" data-name="Path 1146" d="M683.345,1588.667l-19.2-11.681" transform="translate(-545.625 -837.155)" fill="none" stroke="#fff" stroke-linecap="round" stroke-linejoin="round" stroke-width="2"/>
      <path id="Path_1165" data-name="Path 1165" d="M723.932,1526.791l18.295,5.846,12.569,13.3v13.189l8.031,11.394v9.344" transform="translate(-507.228 -869.393)" fill="none" stroke="#c8c29c" stroke-linecap="round" stroke-linejoin="round" stroke-width="2"/>
      <path id="Path_1166" data-name="Path 1166" d="M759.594,1526.791l-16.229,2.009-7,5.691" transform="translate(-499.24 -869.393)" fill="none" stroke="#c8c29c" stroke-linecap="round" stroke-linejoin="round" stroke-width="2"/>
      <path id="Path_1167" data-name="Path 1167" d="M719.553,1564.848l7.422-15.63V1527.1" transform="translate(-510.04 -869.195)" fill="none" stroke="#c8c29c" stroke-linecap="round" stroke-linejoin="round" stroke-width="2"/>
      <path id="Path_1168" data-name="Path 1168" d="M754.623,1550.475l-15.361-9.232-15.041-1.013" transform="translate(-507.042 -860.761)" fill="none" stroke="#c8c29c" stroke-width="2"/>
      <path id="Path_1169" data-name="Path 1169" d="M727.106,1567.046l-8.115-6.392.745-6.757,10.716-.949,5.265-8.157,17.469,10.287-.918,6.458H738.51l-2.793,5.51Z" transform="translate(-510.401 -857.832)" fill="#d1e0a8" stroke="#c8c29c" stroke-linecap="round" stroke-linejoin="round" stroke-width="2"/>
      <path id="Path_1170" data-name="Path 1170" d="M710.291,1568.039l-6.829,14.112,12.715,9.954v7.449l23.134,17.936,14.838-22.447-22.295-12.892-21.563-14.112" transform="translate(-522.017 -842.901)" fill="#d1e0a8" stroke="#fefcf7" stroke-linecap="round" stroke-linejoin="round" stroke-width="2"/>
      <path id="Path_1171" data-name="Path 1171" d="M758.271,1582.886l-17.262,25.532,19.167,13.712,11.092-17.631,4.108-11.2Z" transform="translate(-496.26 -833.365)" fill="#d1e0a8" stroke="#fff" stroke-width="2"/>
      <path id="Path_883" data-name="Path 883" stroke="#7e20ff" d="M3654.47-747.6s-27.031-9.58-37.532-20.057-5.142-10.992-4.469-21.85-.555-3.875-4.169-30.324c-1.965-14.376.792-45.057,0-56-.528-7.3-6.58-10.187-7.573-14.648-2.651-11.956-.679-13.417,3.4-16.955,5.387-4.667,9.436,5.131,19.418,8.107s13.37-2.581,21.989,1.938,3.383,11.21,12.485,16.135c3.013,1.63,8.629-.86,12.059,0,5.482,1.383,8.4,4.852,11.865,3.566,5.176-1.922,8.98-10.842,8.98-10.842" fill="none" transform="translate(-3337.509 1529.176)" stroke-linecap="round" stroke-linejoin="round" stroke-width="4" stroke-dasharray="8"/>
      <path id="Path_1175" data-name="Path 1175" d="M631.948,1531.237l3.841,23.942" transform="translate(-566.305 -866.537)" fill="none" stroke="#c8c29d" stroke-linecap="round" stroke-linejoin="round" stroke-width="2"/>
      <path id="Path_1177" data-name="Path 1177" d="M665.525,1542.273l14.381,4.99" transform="translate(-544.74 -859.449)" fill="none" stroke="#c8c29d" stroke-linecap="round" stroke-width="2"/>
      <path id="Path_1176" data-name="Path 1176" d="M657.112,1542.643l-3.828,7.529" transform="translate(-552.603 -859.212)" fill="none" stroke="#c8c29d" stroke-linecap="round" stroke-linejoin="round" stroke-width="2"/>
      <path id="Path_1181" data-name="Path 1181" d="M669.185,1568.775l-10.844-5.358-9.516,8.181,11.368,8.512Z" transform="translate(-555.466 -845.87)" fill="#d1e0a8"/>
      <path id="Path_885" data-name="Path 885" stroke="#7e20ff" d="M3684.655-935.666s-5.674,18.878-24.991,24.331c-8.4,2.372-20.613-4.37-30.834-5.366a47.452,47.452,0,0,0-21.441,2.848s-10.342,2.633-22.5,25.017-11.135,45.52-26.876,63.165-71.814-2.881-86.224,7.418-7.5,41.2-7.5,41.2" fill="none" transform="translate(-3425.427 1511.843)" stroke-linecap="round" stroke-linejoin="round" stroke-width="4" stroke-dasharray="8"/>
      <path id="Path_1183" data-name="Path 1183" d="M633.731,1577.049l7.982-4.2-3.279-8.358-6.272,4.419Z" transform="translate(-566.168 -845.182)" fill="#d1e0a8"/>
      <path id="Path_1178" data-name="Path 1178" d="M625.2,1551.786l24.172,22.366,7.016,10.89v14.033" transform="translate(-570.639 -853.34)" fill="none" stroke="#c8c29d" stroke-linecap="round" stroke-linejoin="round" stroke-width="2"/>
      <path id="Path_1179" data-name="Path 1179" d="M621.14,1567.974l19.1,9.618,18.089-12.646,4.283-14.459-4.283,14.459-12.24-14.459" transform="translate(-573.247 -854.175)" fill="none" stroke="#c8c29d" stroke-linecap="round" stroke-linejoin="round" stroke-width="2"/>
      <path id="Path_1180" data-name="Path 1180" d="M645.273,1585.662l16.9-15.139v-5.116l16.432,1.739-4.184,8.972s-12.3-5.5-12.248-5.595,12.248,5.595,12.248,5.595l-10.136,11.434-12.661-7.121,12.661,7.121,10.136,8.6-22.8-15.721,3.63-4.312-12.743-10.711" transform="translate(-559.522 -853.664)" fill="none" stroke="#c8c29d" stroke-linecap="round" stroke-linejoin="round" stroke-width="2"/>
      <path id="Path_1182" data-name="Path 1182" d="M632.256,1568.5l1.068,8.45,7.945-4.047-2.649-8.26" transform="translate(-566.108 -845.082)" fill="none" stroke="#c8c29d" stroke-linecap="round" stroke-linejoin="round" stroke-width="2"/>
      <path id="Path_1185" data-name="Path 1185" d="M597.883,1539.831l14.826,30.512,29.356,23.772,40.616,14.787,17.667,4.552,72.193,46.066" transform="translate(-588.184 -861.018)" fill="none" stroke="#fff" stroke-linecap="round" stroke-linejoin="round" stroke-width="2"/>
      <path id="Path_1186" data-name="Path 1186" d="M720.453,1671.115l-74.758-90.9" transform="translate(-557.476 -835.079)" fill="none" stroke="#fff" stroke-linecap="round" stroke-linejoin="round" stroke-width="2"/>
      <path id="Path_1187" data-name="Path 1187" d="M687.176,1663.63l7.562-9.646,29.121-37.149-8.4,15.158,21.664,11.166-28.79,7.789-13.594,3.035" transform="translate(-534.119 -814.241)" fill="none" stroke="#fff" stroke-linecap="round" stroke-linejoin="round" stroke-width="2"/>
      <path id="Path_1191" data-name="Path 1191" d="M761.777,1725.177l-7.06-52.624-20.627-22.309,7.348-7.662" transform="translate(-500.704 -795.025)" fill="none" stroke="#fff" stroke-linecap="round" stroke-linejoin="round" stroke-width="2"/>
      <path id="Path_1188" data-name="Path 1188" d="M759.324,1727.15,755.08,1684.3l-15.467-26.493L726.436,1642l-4.32,2.569-8.218-5.063" transform="translate(-513.672 -796.998)" fill="none" stroke="#fff" stroke-linecap="round" stroke-linejoin="round" stroke-width="2"/>
      <path id="Path_1189" data-name="Path 1189" d="M761.662,1701.274l-14.012-.43-42.305-64.664" transform="translate(-519.166 -799.136)" fill="none" stroke="#fff" stroke-linecap="round" stroke-linejoin="round" stroke-width="2"/>
      <path id="Path_1190" data-name="Path 1190" d="M804.045,1694.11l-73.753,9.843-18.412-11.008v-13.626l20.752-13.753" transform="translate(-514.968 -780.264)" fill="none" stroke="#fff" stroke-linecap="round" stroke-linejoin="round" stroke-width="2"/>
      <path id="Path_1192" data-name="Path 1192" d="M746.745,1660.882l34.393,35.845" transform="translate(-492.576 -783.271)" fill="none" stroke="#fff" stroke-linecap="round" stroke-linejoin="round" stroke-width="2"/>
      <path id="Path_1193" data-name="Path 1193" d="M684.786,1645.322l20.5,38.883" transform="translate(-532.37 -793.265)" fill="none" stroke="#fff" stroke-linecap="round" stroke-linejoin="round" stroke-width="2"/>
      <path id="Path_1194" data-name="Path 1194" d="M693.079,1658.938l7.363-2.908,8.888,17.244" transform="translate(-527.044 -786.388)" fill="none" stroke="#fff" stroke-linecap="round" stroke-linejoin="round" stroke-width="2"/>
      <path id="Path_1195" data-name="Path 1195" d="M713.706,1640.6l-14.215,10.689,15.6,25.935" transform="translate(-522.925 -796.297)" fill="none" stroke="#fff" stroke-linecap="round" stroke-linejoin="round" stroke-width="2"/>
      <path id="Path_882" data-name="Path 882" stroke="#7e20ff" d="M3524.238-757.74a87.207,87.207,0,0,0,23.5-6.962c8.651-3.929,17.583-12.4,27.864-13.856,23.964-3.385,30.525-.51,44.491,7.278s11.746,14.668,20.232,19.585,13.764-.849,13.764-.849" fill="none" transform="translate(-3385.86 1611.848)" stroke-linecap="round" stroke-linejoin="round" stroke-width="4" stroke-dasharray="8"/>
      <path id="Path_1196" data-name="Path 1196" stroke="#142d4c" d="M500.508,1382.285l4.5,26.18,56.664,42.16,135.91,32.2h109.98l124.76,89.144,88.194,109.576" fill="none" transform="translate(-650.724 -962.203)" stroke-linecap="round" stroke-linejoin="round" stroke-width="2" stroke-dasharray="10"/>
      <path id="Path_1198" data-name="Path 1198" d="M500.508,1393.085l21.822,55.466,32.054,32.44,76.086,44.506,78.679,46.33,48.287,48.69,62.67,32.025,63.235,47.547,24.6,78.454,10,47.888-10,70.228" transform="translate(-650.724 -955.267)" fill="none" stroke="#142d4c" stroke-linejoin="round" stroke-width="2" stroke-dasharray="10"/>
      <path id="Path_1199" data-name="Path 1199" stroke="#142d4c" d="M877.995,1712.651l-112.918-76.572-51-23.861-28.63-5.251-46.4-22.751-69.489-30.995" fill="none" transform="translate(-606.374 -852.418)" stroke-linecap="round" stroke-linejoin="round" stroke-width="2" stroke-dasharray="10"/>
      <path id="Path_881" data-name="Path 881" d="M3790.06-1145.656c5.084-3.057,25.4,4.495,28.364,7.507s-4.521,2.365,8.971,8.667,45,16.539,45,16.539l8.309-32.712s-42.963-51.183-73.5-84.874-40.18-49.522-48.639-49.889c-21.653-.952-51.461,13.86-63.705,23.5-16.636,13.094,2.624,18.231,0,26.391,0,0,.51,6.25-10.5,6.25s-14.567-10.144-33.523-6.25-36.3,9.212-64.19,37.981-29.012,42.677-43.753,76.814S3527.683-1056,3527.683-1056s-14.766,40.619-36.638,68.617S3440.2-944.01,3440.2-944.01H3428.33s-16.319,20.567-23.707,39.837-.665,22.17-5.842,37.241-1.791,10.17-15.3,22.994-21.655,12.676-38.746,28.3c-11.3,10.328-18.169,22.217-23.785,32.066-13.731,24.082,7.607,23,7.607,35.958s-7.607,15.862-7.607,15.862-6.378.628-7.761,2.633.292,4.041,2.231,5.388,5.529,0,5.529,0,14.232,17.02,21.188,23.179,4.134,1.328,10.985,5.171,16.417,10.2,16.417,10.2,51.964,7.24,83.232,31.744,43.164,64.191,43.164,64.191,40.952,16.188,56.778,27.716-5.994,5.387,16.086,28.25c8.832,9.145,20.146,15.409,30.125,23.185,14.021,10.924,27.065,23.341,42.107,40.016,25.069,27.792,10.882,22.787,18.486,38.114s16.819,20.644,26.111,39.149,4.1,19.978,11.056,34.871,9.636,23.809,20.609,24.823,12.8-14.021,32.846-20.2,25.962-1.491,43.507-4.627,21.83-1.673,26.371-6.754-6.155-6.28-8.206-13.309-1.834-8.039,0-14.808,12.784-2.905,7.337-12.532-29.122-25.976-29.122-25.976l35.461-27.194s39.3,1.568,41.53-4.529-25.191-16.794-26.932-42.852,15.011-40.591,20.192-59.631-1.675-13.223,4.322-30.256c2.093-5.944,5.86-10.293,8.951-15.184,4.977-7.882,9.373-15.026,10.714-22.691,2.06-11.773-8.085-17.379-8.085-17.379v-32.694s-.645-18.688,8.085-41.66,15.484-20.638,22.729-41.4,6.122-28.174,6.252-41.641-18.1-7.054-33.625-14.128-29.2-22.585-29.2-22.585l12.778-91.675s-79.468-48.024-120.045-69.407-38.9-13.351-42.262-16.125-3.013-11.094-3.013-11.094-.743-4.8-6.591-7.353-16.309,3.276-16.8-2.867,5.237-28.1,13.949-32.952,30.1-1.353,40.615-9.068-1.464-15.328,2.572-20.7,7.5,2.917,20.314.443,20.3-1.5,29.832-11.432S3784.975-1142.6,3790.06-1145.656Z" transform="translate(-3521.736 1290.394)" fill="none" stroke="#142d4c" stroke-linejoin="round" stroke-width="4"/>
      <path id="Path_891" data-name="Path 891" stroke="#207dff" d="M3662.572-1083.1a52.306,52.306,0,0,0-15.289,12.406c-4.857,5.767-4.626,13.12-10.322,15.758-13.186,6.107-16.649-3.736-27.13-3.736s-14.177-1.556-16.355,7.666,4.681,21.588,1.713,27.189-7.906-7.96-13.582-4.781-9.119,17.5-9.119,17.5" fill="none" transform="translate(-3358.156 1423.723)" stroke-linecap="round" stroke-linejoin="round" stroke-width="4" stroke-dasharray="8"/>
      <path id="Path_890" data-name="Path 890" stroke="#207dff" d="M3444.115-1143.047s18.287,15.265,35.062,17.638,22.393-9.612,32.035-8.145-2.919,10.381,6.468,14.229,22.89-2.915,34.188,0,2.619,7.985,7.645,11.662,13.767-4.289,16.46,3.046-6.346,14.8-5.687,26.3,5.556,2.734,6.583,16.637-3.126,46.11-3.126,46.11" fill="none" transform="translate(-3438.32 1382.934)" stroke-linecap="round" stroke-linejoin="round" stroke-width="4" stroke-dasharray="8"/>
      <path id="Path_1433" data-name="Path 1433" d="M880.055,1417.321,835.5,1364.293l-14.574-28.371-48.4,6.585-33.335,6.785-25.653,9.189-7.646,25.09,2.33,20.859,3.223,28.967,54.484,10.726h40.748l28.825-7.547Z" transform="translate(-635.413 -978.842)" fill="red" opacity="0"/>
      <path id="Path_1435" data-name="Path 1435" d="M465.689,1525.769l7.2-.552,7.715-11.886-3.79-12.408-10.147-11.145,6.222-19.815,22.559-27.616,26.749-18.629,25.195-23.655,5.219-24.792,52.294,16.048,56.763,5,40.612,11.927,63.37,17.752-6.131,12.743-11.472,1.592-14.428-2.907-9.228,7.955L718.5,1460.9v17.363l7.23,6.169,14.067,4.838,3.123,10.339-5.585,12.823-17.35,14.371-22.389,13.7-38.84,15.184-20.126,2.109H621.592l-17.942,7.99-2.464,10.649v8.821l9.462,8.843,9.936,7.672,14.96,6.626,18.843,6.25,12.227,4.436-7.863,11.771L644.2,1654.283l-24.474-35.2-25.085-22.544-33.1-14.008-40.117-10.464-17.668-11.088-11.595-4.151-17.143-20.517-2.132-3.31-7.2,1.58Z" transform="translate(-673.087 -966.708)" fill="#00ff9d" opacity="0"/>
      <path id="Path_1437" data-name="Path 1437" d="M807.654,1397.07l8.45,9.818,17.638,5.081,6.455,8.672,2.2,12.248-2.2,17.358-2.528,13.744-4.009,8.164-3.729,17.558-.5,13.431,1.115,18.593,3.116,6.871-5.533,11.306L817.106,1550.6l-15.154,3.072-17.685-4.22-10.739-1.487-14.193,2.03-7.9,3.677,7.237-15.072v-3.056l-7.237-2.425H737.26l-11.666-13.554-25.006-10.257-26.712-18.818-17.129-13.363-19.763-3.688-13.034-5.429-4.224-10.723,5.952-25.278,9.853-7.262,11.971,2.208,13.491-2.208,5.958-11.922,16.131,1.413,21.778,4.626H742.7l28.275-6.945Z" transform="translate(-574.155 -952.707)" fill="#00a7ff" opacity="0"/>
      <path id="Path_1438" data-name="Path 1438" d="M891.015,1436.575l-10.5-4.348-19.014-2.746-25.263-16.034-21.752-19.037-21.361-8.654-21.215,1.763-33.184,12.629-3.527,3.943,7.033,9.356,21.269,6.195,6.187,13.926-2.96,25.214-7.006,22.462-4,25.315,2.319,24.556,11.648,18.5-2.96,27.874,16.107,9.884,16.44,1.752,10.231,1.812,7.212,13.744,22.192,4.934,4.075,2.251,12.609-12.679-2.04-28.055,4.2-31.687,13.67-32.884,14.268-20.1,5.331-21.141Z" transform="translate(-499.994 -959.974)" fill="#ff0" opacity="0"/>
      <path id="Path_1439" data-name="Path 1439" d="M808.458,1665.035l1.678-20.178,9.658-15.441,8.834-19.107,2.313-18.736v-10.384l10.173-16.161,8.309-14.464,4.752-15.318-8.978-10.577-14.255,12.43-19.892-5.518-6.976-1.844-6.019-14.211-23.91-2.649-17.419-9.635-5.234,9.635v11.792l8.113,9.7v54.8l3.7,25.367.937,12.984-.937,10.748,11.11,13.221,25.109,12.431Z" transform="translate(-489.527 -884.518)" fill="#ffb100" opacity="0"/>
      <path id="Path_1440" data-name="Path 1440" d="M837.6,1476.622l10.242,15.594-4.626,28.4-4.37,8.828v12.5l9,9.968v55.306l3.723,25.031v23.97l12.139,13.573,29.193,12.779,6.688,20.414,21.55,21.515v5.161l-38.911,4.332-33.63,25.079-10.323,4.457-10.616-4.457-14.3-16.26-24.9-9.84-26.835,3L738.9,1749.031l-24.348,7.234-3.149-14.274-20.138-27.26-16.316-14.3-34.787-29.9L622.2,1658.106l-8.027-12.278,2.971-9.972L615.6,1609.5l6.6-11.146,10.7-6.118,37.318,2.515,22.852.85,15.534-5.338,8.928-8.094,9.341-28.488,9.331-24.574,6.636-13.536,13.92-13.724,21.612-4.965,21.612,4.258,13.009.707,8.968-2.972,11.076-11.793Z" transform="translate(-577.721 -901.615)" fill="#ff00b1" opacity="0"/>
      <path id="Path_1441" data-name="Path 1441" d="M837.239,1692.12l-.421-7.448-29.679-24.7-11.487,2.93-7.366-3.934-12.1-13.965-6.108-5.015L748.6,1633l-25.95,2.827-22.32,12.822-25.161,7.821L689.8,1680.28l12.409,17.631,7.3,19.314,3.378,16.594,9.761,16.593,10.076,8.825,10.785-3.686,13.212-12.794,23.1-8.052h20.412l31.786-4.426,6.932-6.054-6.932-5.124-4.96-8.693.813-9.027,3.034-5.135Z" transform="translate(-538.548 -801.18)" fill="#0062ff" opacity="0"/>
      <path id="Path_1434" data-name="Path 1434" d="M837.068,1433.053l12.4-84.265L819,1331.855l-19.741,11.954-9.925,17.655-8.158,4.161-12.659-2.08-9.747-3.827H748.065l-5.014,9.4,2.735,18.464v8.429l-9.627-2.461-3.908-4.385-8.591,9.968,27.063,32.1,22.62-8.769,15.994-3.412,19.354,3.412,13.668,6.489L835,1438.379Z" transform="translate(-507.402 -994.593)" fill="#d801ff" opacity="0"/>
      <path id="Path_1436" data-name="Path 1436" d="M801.3,1514.766l2.623-8.971-4.468-2.7h-16.72l-13.226-14.515-17.053-5.715-15.436-8.841-19.205-13.9-14.608-12.23-13.4-2.679v16.745l-22.034,20.91L636.569,1500.3l-35.7,12.7-24.221.969-11.393,1.122-14.381,7.712-2.309,12.662,3.156,7.882,24.926,16.892,28.275,9.344,11.3,5.141-23.414,33.791,3.214,13.27,25.177,11.641,24.064,12.6,14.594,11.244-2.648-11.244v-18.48l6.366-8.6,10.2-7.03,21.155.816,14.555,1.176,25.989,1.3,18.971-6.846,5.2-10.857,12.4-35.213,10.682-23.628,7.921-10.1Z" transform="translate(-619.859 -921.786)" fill="#00ff14" opacity="0"/>
    </g>
  </g>
</svg>
