<svg xmlns="http://www.w3.org/2000/svg" xmlns:xlink="http://www.w3.org/1999/xlink" width="298.409" height="274.341" viewBox="0 0 298.409 274.341">
  <defs>
    <clipPath id="clip-path">
      <path id="Path_1464" data-name="Path 1464" d="M-700.672-1681.336a5.666,5.666,0,0,1,1.466,5.2l4.871,12.315,20.92,23.682-4.252,7.233-38.9,2.97-30.979,20.828-7.421,4.813a11.406,11.406,0,0,1-9.384-1.224c-4.786-2.949-8.039-9.29-12.651-13.37a56.2,56.2,0,0,0-16.015-9.972c-6.928-3.026-9.669-3.182-18.25-3.246s-11.551.125-21.1,3.947-9.092,5.992-18.905,10.636a92.868,92.868,0,0,1-21.269,6.549l-4.951,1.409-2.8-5.271v-7l-2.909-6.611-12.525-15.971-19.9-19.8-19.992-17.157-19.588-13.951-10.891-10.34s-4.692-5.506-5.559-10.019,1.921-2.723,1.84-11.978-1.147-13.87-.218-23.01,1.682-9.211,6.187-13.255,2.593-2.928,8.1-4.917,8.44-1.4,17.554-1.469,10.4,1.486,19.439,2.076,14.948,1.464,14.948,1.464,9.621.178,14.669-1.73,6.934-3.155,10.427-6.52,5.415-6.284,8.347-13.818a114.4,114.4,0,0,0,5.551-16.44c2.723-9.642,2.682-11.014,7.336-21.845s7.211-13.024,13.124-20.828,12.665-9.7,12.665-9.7a63.758,63.758,0,0,1,11.513-2.436c6.171-.679,8.247.076,15.394,1.193s7.8,3.227,13.418,4.046a17.269,17.269,0,0,0,9.063-.772,25.461,25.461,0,0,0,9.72-4.969c4.37-3.747,9.171-10.51,9.171-10.51s1.309-7.028,4.164-7.028,1.589,3.987,4.55,7.028,4.424,3.091,6.61,6.961,1.422,5.834,1.248,12.341-2.93,14.834-2.93,14.834-4.588,8.244-3.633,15.666,4.706,7.391,6.817,16.406.506,8.466.492,21.22-1.5,17.269-.356,30.636,3.277,14.306,4.109,25.239-1.725,12.1-1.518,17.936,4.321,7.536,4.321,7.536l15.784,10.078,15.5,7.372S-702.931-1683.522-700.672-1681.336Z" transform="translate(973.416 1878.873)" fill="#fff"/>
    </clipPath>
  </defs>
  <g id="Centrala_Sundgyberg" data-name="Centrala Sundgyberg" transform="translate(-613.175 -1475.866)">
    <g id="Mask_Group_10" data-name="Mask Group 10" transform="translate(611.584 1475.127)" clip-path="url(#clip-path)">
      <path id="Path_1068" data-name="Path 1068" d="M533.847,1379.568l.189,23.666,14.831,10.34,7.715,18.652,13.3,3.739v6.179l15.679-2.834,3.313,7.428h10.113l7.108,3.78h10.69l8.073,3.165-3.841,10.329,9.85,10.794-3.234,10.283,3.234,7.56-14.083,5.068h-7.843l-14.765-8.55H583.842l-2.529,1.731v6.819l24.777,17.5,6.427-2.413h4.263l8.073,9.811-12.336,9.344-6.427-2.71-13.48,12.882h19.907l22.091,13.907V1531.96l31.713-14.081,10.192-5.074,3.028,5.074,34.828,11.371H735.15L756,1552.514l10.42,11.092,3.532,13.7L756,1587.113l5.159,6.379,28.387-6.379,16.8,6.379h20.471l4.6,7.162,17.415,5.561,24.918-4.808,1.422,5.33-5.53-.522,1.971,10.035-11.974-.289,5.087,17.954,7.217,6.647,1.068,19.709,7.266,1.368-.767-52.795h8.7v-8.191l25.443-4.846,7.434,8.158-3.115,9.441,14.209,2.553,15.323-2.553,14.348,2.553,3.769-9.746v-7.789l-7.912-11.314v-37.139l7.912-34.795L992.7,1474.8v-38.84l-34.995-6.549-36.622-30.771-29.129-11.477-38.588,11.477-47.02,21.438-62.021,9.333-97.249-30.771-77.2-11.477Z" transform="translate(-654.259 -1527.586)" fill="#d1e0a8"/>
      <path id="Path_1173" data-name="Path 1173" d="M739.757,1670.757l-7.308-11.421-39.37,21.373,24.98,31.482,2.6-5.591h4.374l-2.125-19.715,2.125-6.176Z" transform="translate(-566.846 -1374.002)" fill="#d1e0a8"/>
      <path id="Path_1108" data-name="Path 1108" d="M588.025,1528.146l13.637,10.654,14.525,21.441,23.154-10.132v10.132l10-3.254,26.255-.032,30.9,1.467,16.733-4.134-7.168,17.222-8.29-7.724H687.681l-20.137-2.609-19.586.966-7.95,5.569v24.15l-13.87-8.447-12.757-14.28-7.854-17.085-21-18.074Z" transform="translate(-626.438 -1446.021)" fill="#d1e0a8"/>
      <path id="Path_1109" data-name="Path 1109" d="M636.823,1593.858l-10-18.456-15.753-13.809-40.386-17.22-18.035-12.249-6.005-13.407,3.626-11.172,18.069-9.661,25.357-3.317,20.946,4.551,13.6,9.77V1484.83l40.237-18.354,38.918,15.388H728.53l31.912,35.794,1.957,12.474-13.952,10.274,6.99,6.281,27.105-7.225,16.822,7.225h20.686l4.9,7.5,17.2,4.7,23.912-4.7,1.589,4.7h-4.909l1.979,9.357H852.768l4.917,18.414,7.038,4.777,1.342,21.008,4.314,1.424,3.827-1.424-2.187-16.286.989-34.737h8.161v-8.411l25.361-4.926,7.375,8.716-2.974,9.176,16.114,3.346,11.257-3.346,15.25,2.269L940.1,1593.093l-2.814,24.613-6.955,21.128-9.5,19.323-4.049,22.372,3.854,12.176,6.923,12.11,15.284,13.388L939.5,1722.6l-34.26,1.743-13.6,8.241L875.011,1745.9l-4.176,3.811,25.225,21.59,2.348,7.88-6.765,5.212-2.714,7.964,2.714,11.712,7.907,5.449-4.255,6.155-39.578,4.554-15.164,1.507-6.338,1.521-15.706,7.675-3.29,3.677-16.578-17.333,1.949-5.263,4.709,1.295-2.26-21.9,2.911-5.179,6.623-3.638,7.524-6.116-7.524-11.82-34.481,19.482-4.512,2.093-15.837-20.505-12.717-20.217-2.309-15.252-11.694-14.7-23.492-24.881,4.171-6.659,7.877,7.869h4.52l18.618,22.054,4.038.922,12.68,22.942.845,2.328,9.54-4.8,15.408-10.336h-7.054l9.763-11.059,9.118,5.122v4.53h16.338l6.707-8.729-72.047-44.032-15.057-9.6-23.487-14.69-34.248-7.7-14.019-13.667v-23.342l9.059-6.09,15.327-.937,18.465,2.213,12.824,1.623h11.963l8.266,7.99,6.931-16.938-13.791,2.01H709.505l-26.238-2.01-23.408,4.171,1.38-11.36Z" transform="translate(-647.235 -1479.876)" fill="#f3e2ac" stroke="#c8c29d" stroke-linecap="round" stroke-linejoin="round" stroke-width="2"/>
      <path id="Path_1172" data-name="Path 1172" d="M625.129,1571.692l-11.663-7.839,1.24,21.175,13.848,18.666,33.124,24.587,8.652,8.158,4.734-6.953,7.267,6.953,5.818,1.956,16.358,20.19,6.269,2.233,12.345,23.224,22.257-9.593v-4.084h-4.329l10.005-11.78,8.492,5.909v4.545l16.987-1.241,6.245-6.98-111.921-68.9-30.9-6.893Z" transform="translate(-609.87 -1424.868)" fill="#eaeaea"/>
      <path id="Path_1133" data-name="Path 1133" d="M576.894,1504.148l.742,9.35,11.881,1.89v-6.677Z" transform="translate(-630.628 -1459.195)" fill="#d1e0a8"/>
      <path id="Path_1132" data-name="Path 1132" d="M628.463,1518.725l16.05.16-1.186-11.667H628.463Z" transform="translate(-602.318 -1457.51)" fill="#d1e0a8"/>
      <path id="Path_1131" data-name="Path 1131" d="M679.716,1496.811l-3.34,3.315h-4.718l-5.651,4.566-14.188,2.115,11.328-24.691,9.949,4.952,1.341,6.954Z" transform="translate(-589.497 -1471.29)" fill="#d1e0a8"/>
      <path id="Path_1102" data-name="Path 1102" d="M620.6,1548.514l-15.891-2.417-24.277-9.566-18.843-13.289-6.536-13.943,3.244-9.9,19.079-12.133.837-3.344-17.953,3.344-10.545-1.925,2.063,16.847H537.346l1.676,3.27-10.847,6.383,32.087,18.549,20.173,19.771,16.649,29.815,16.918-23.2Z" transform="translate(-657.373 -1470.297)" fill="#d1e0a8"/>
      <path id="Path_1147" data-name="Path 1147" d="M714.165,1548.75l-42.721,65.979" transform="translate(-578.723 -1434.711)" fill="none" stroke="#fff" stroke-linecap="round" stroke-width="2"/>
      <path id="Path_1148" data-name="Path 1148" d="M682.631,1630.586l50.069-77.522L716,1541.5l-2.33,2.532,7.01,4.711,1.462-1.024L716,1544.033" transform="translate(-572.582 -1438.69)" fill="none" stroke="#fff" stroke-linecap="round" stroke-linejoin="round" stroke-width="2"/>
      <path id="Path_1149" data-name="Path 1149" d="M803.339,1672.047,682.4,1598.766" transform="translate(-572.709 -1407.253)" fill="none" stroke="#fff" stroke-linecap="round" stroke-width="2"/>
      <path id="Path_1150" data-name="Path 1150" d="M809.854,1670.272,703.8,1604.6l6.863-9.821-16.421-10.951" transform="translate(-566.205 -1415.453)" fill="none" stroke="#fff" stroke-linecap="round" stroke-linejoin="round" stroke-width="2"/>
      <path id="Path_1151" data-name="Path 1151" d="M707.62,1624.457l15.584-26.11" transform="translate(-558.863 -1407.484)" fill="none" stroke="#fff" stroke-linecap="round" stroke-linejoin="round" stroke-width="2"/>
      <path id="Path_1152" data-name="Path 1152" d="M704.771,1590.85l20.056,11.6" transform="translate(-560.428 -1411.599)" fill="none" stroke="#fff" stroke-linecap="round" stroke-width="2"/>
      <path id="Path_1153" data-name="Path 1153" d="M717.681,1634.68l19.179-30.926-6.82-5.061,37.519,24.07,44.987,28.426,5.863-5.791-7.978-5.083,12.067-17.552-39.611-26.922" transform="translate(-553.34 -1408.859)" fill="none" stroke="#fff" stroke-linecap="round" stroke-linejoin="round" stroke-width="2"/>
      <path id="Path_1154" data-name="Path 1154" d="M737.315,1651.926l35.971-55.6" transform="translate(-542.562 -1408.593)" fill="none" stroke="#fff" stroke-linecap="round" stroke-linejoin="round" stroke-width="2"/>
      <path id="Path_1155" data-name="Path 1155" d="M756.769,1602.4l55.74,34.763v9.388" transform="translate(-531.883 -1405.257)" fill="none" stroke="#fff" stroke-linecap="round" stroke-linejoin="round" stroke-width="2"/>
      <path id="Path_1156" data-name="Path 1156" d="M746.745,1657.241l35.692-54.524" transform="translate(-537.385 -1405.084)" fill="none" stroke="#fff" stroke-linecap="round" stroke-linejoin="round" stroke-width="2"/>
      <path id="Path_1157" data-name="Path 1157" d="M786.712,1607.923l-26.847,40.8" transform="translate(-530.182 -1402.226)" fill="none" stroke="#fff" stroke-linecap="round" stroke-linejoin="round" stroke-width="2"/>
      <path id="Path_1158" data-name="Path 1158" d="M776.617,1630.339l-39.136-22.63,17.1-28.261-23.205-13.994-19.2,25.794" transform="translate(-556.362 -1425.541)" fill="none" stroke="#fff" stroke-linecap="round" stroke-linejoin="round" stroke-width="2"/>
      <path id="Path_1159" data-name="Path 1159" d="M736.277,1616.408l23.985-34.449,8.452,5.369-6.07,9.072,11.6,8.326" transform="translate(-543.132 -1416.48)" fill="none" stroke="#fff" stroke-linecap="round" stroke-linejoin="round" stroke-width="2"/>
      <path id="Path_1160" data-name="Path 1160" d="M827.991,1537.385l-18.818-1.473-7.352,8.649v12.1l2.865,11.1-13.149,33.508-17.96,26.926" transform="translate(-522.655 -1441.758)" fill="none" stroke="#c8c29c" stroke-linecap="round" stroke-linejoin="round" stroke-width="2"/>
      <path id="Path_1161" data-name="Path 1161" d="M802.47,1624.536l-30.153-45.231v-26.444l2.729-8.395,1.914-12.134,19.188-2.521-19.188,2.521-14.652-5.542" transform="translate(-528.842 -1446.765)" fill="none" stroke="#c8c29c" stroke-linecap="round" stroke-linejoin="round" stroke-width="2"/>
      <path id="Path_1162" data-name="Path 1162" d="M804.5,1544.1l-33.15-9.839" transform="translate(-523.876 -1442.665)" fill="none" stroke="#c8c29c" stroke-linecap="round" stroke-linejoin="round" stroke-width="2"/>
      <path id="Path_1163" data-name="Path 1163" d="M757.827,1538.884l18.524,1.781,34.633,11.639" transform="translate(-531.301 -1440.127)" fill="none" stroke="#c8c29c" stroke-linecap="round" stroke-linejoin="round" stroke-width="2"/>
      <path id="Path_1164" data-name="Path 1164" d="M786.706,1605.676l-13.744-20.051,1.3-24.479-1.3,24.479-13.084.825" transform="translate(-530.176 -1427.905)" fill="none" stroke="#c8c29c" stroke-linecap="round" stroke-linejoin="round" stroke-width="2"/>
      <path id="Path_892" data-name="Path 892" d="M3367.1-905.56l42.955,14.914,50.357,2.769,84.443,24.625,35.575,7.891,39.835,5.275,50.491-8.786,52.495-23.282,17.162-5.723V-905.56h10.011l2.313-10.861H3748.1l-2.263-16.816-5.425-8.544,32.694-32.024-63.314-35.108-61.338-28.537-2.462-9.346-9.692-7.152H3624.17L3636.3-1091.1l42.043-4.992v-24.026l18.586,2.866,30.83-7.763,4.829-29.313,29.894,7.182v5.964l47.782,16.167,6.941-26.24L3770-1208.388l-61.861-72.065-42,8.651-29.835,21.349,6.907,17.3-10.5,6.147-28.376-8.207-30.435,13.192-35.065,24.974-30.057,52.151-14.412,34.99-5.91,37.552-13.247,30.862-27.1,42.963-33,31.778-22.637,3.726L3372.7-926.813Z" transform="translate(-3510.355 749.807)" fill="#b0e0a8"/>
      <path id="Path_1118" data-name="Path 1118" d="M600.8,1489.036l21.1-8.54v-9.472l5.2,42.683" transform="translate(-617.505 -1477.38)" fill="none" stroke="#c8c29d" stroke-linecap="round" stroke-linejoin="round" stroke-width="2"/>
      <path id="Path_1119" data-name="Path 1119" d="M610,1507.9l-1.81-32.506,1.81,34.661h12.642" transform="translate(-613.445 -1474.98)" fill="none" stroke="#c8c29d" stroke-linecap="round" stroke-linejoin="round" stroke-width="2"/>
      <path id="Path_1069" data-name="Path 1069" d="M664.344,1438.727l-4.263-6.61-23.272-10.074-17.152,2.945v22.235l9.348,7.288L645.967,1458l11.73-6.114Z" transform="translate(-607.153 -1504.269)" fill="#f3e2ac" stroke="#c8c29d" stroke-linejoin="round" stroke-width="2"/>
      <path id="Path_1089" data-name="Path 1089" d="M533.926,1379.568l22.586,1.355v21.795l-14.538,1.39-21.084,22.114-12.572,5.285H494.99l-4.169-3.347,36-28.8Z" transform="translate(-677.879 -1527.586)" fill="#f3e2ac" stroke="#c8c29d" stroke-linecap="round" stroke-linejoin="round" stroke-width="2"/>
      <path id="Path_1070" data-name="Path 1070" d="M792.662,1456.469l-118.891-31.218L658.2,1433.24l-15.323,25.582,30.889,14.794,5.44,5.128h10.851l6.32,5.716,11.784,3.732,9.746,11.919,10.538-7.812h5.215l-2.566,15.84,6.153,10.39,17.761-2.418,25.088,8.508,12.562-8.508,4.187,2.418,5.89-15.547,24.649,26h10.451l2.742,6.786h11.875l8.809,18.544,6.8-5.54,11.586,5.54,14.315-15.812v-13.881l-14.315-2.357,14.315-6.151L882.1,1488.192l-20.834-9.448-17.558-26.924-28.092-8.382-3.04,15.384Z" transform="translate(-594.402 -1502.507)" fill="#f5e7b8" stroke="#c8c29d" stroke-linecap="round" stroke-linejoin="round" stroke-width="2"/>
      <path id="Path_1081" data-name="Path 1081" d="M3546.583-998.5v16.848l28.553,3.76-2.2,4.3-16.027,2.322,8.418,18.966,41.429,11.185h19.881l7.553-36.768-4.512-20.607-22.922-10.09-5.673-7.06-28.147,10.827Z" transform="translate(-3411.825 895.177)" fill="#eaeaea" stroke="#d1d1d1" stroke-linecap="round" stroke-linejoin="round" stroke-width="2"/>
      <path id="Path_1106" data-name="Path 1106" d="M3438.338-881.525l20.642,18.777,10.568,21.363H3443.96l-16.724-5.016-5.53-12.744Z" transform="translate(-3480.378 968.806)" fill="#f5e7b8" stroke="#c8c29d" stroke-linecap="round" stroke-linejoin="round" stroke-width="2"/>
      <path id="Path_1101" data-name="Path 1101" d="M497.407,1481.625l17.3,9.124-4.7,12.121-25.041-10.553-2.3-17.28Z" transform="translate(-682.354 -1475.177)" fill="#d1e0a8"/>
      <path id="Path_1084" data-name="Path 1084" d="M788.821,1391.864l-10.459,10.609,22.566,8.44v2.074l-21.285-7.365-1.281,9.086,20.734,4.177v2.358l-18.6-3.653v5.6l16.7,3.228v1.9l-16.7-3.213.54,5.988,43.935,5.567,4.771-13.47-28.813-20.718-4.871-6.061Z" transform="translate(-520.029 -1520.836)" fill="#fff"/>
      <path id="Path_1085" data-name="Path 1085" d="M836.938,1416.7l-6.921,8.247-19.713-1.4v4.3l14.72,4.729.927,3.881,6.3-2.4-.687-2.4,5.377-.469,3.374-1.577v-12.064Z" transform="translate(-502.494 -1507.202)" fill="#fff"/>
      <path id="Path_1042" data-name="Path 1042" d="M718.729,1340.3l3.481,13.716" transform="translate(-552.765 -1549.141)" fill="none" stroke="#fff" stroke-linecap="round" stroke-linejoin="round" stroke-width="2"/>
      <path id="Path_1045" data-name="Path 1045" d="M665.366,1286.825l-15.35,14.159,7.9-2.944,17.588,19.718-8.073,4.138-24.265-17.689-16.815-6.167,15.541,7.556,1.274,7.746,6.85,7.792,7.9,7.622,10.324-4.792-15.232-10.622,13.243,10.622-13.243-8.157,11.255,8.157-11.255-6.207,10.44,7.546-11.174-5.78,9.29,6.714-10.332-5.1,7.883,6.2" transform="translate(-603.478 -1578.499)" fill="none" stroke="#fff" stroke-linecap="round" stroke-linejoin="round" stroke-width="2"/>
      <g id="Path_1046" data-name="Path 1046" transform="translate(-588.073 -1565.585)" fill="none" stroke-linecap="round" stroke-linejoin="round">
        <path d="M654.412,1312.939l14.385-2.591,8.047,7.677,3.576,9.695s5.437-2.832,7.25-1.981,1.812,4.039,0,5.385-5.914-1.193-7.25,0-.139,3.578,1.909,4.771,5.179-1.515,6.283,0,.652,4.546-1.868,6.061-8.212,0-8.212,0-.066,4.153-1.688,5.537a3.627,3.627,0,0,1-4.8,0c-1.2-1.027,0-4.106,0-4.106H668.8l-7.666,1.569-2.054-13.832Z" stroke="none"/>
        <path d="M 666.5382690429688 1317.867553710938 L 663.049072265625 1318.495971679688 L 666.0009765625 1330.09619140625 L 666.9692993164062 1336.6162109375 L 667.393798828125 1336.529296875 C 667.8556518554688 1336.434814453125 668.3258056640625 1336.38720703125 668.7972412109375 1336.38720703125 L 672.0445556640625 1336.38720703125 C 672.6652221679688 1336.38720703125 673.2725830078125 1336.479614257812 673.8544311523438 1336.65185546875 C 673.3458862304688 1335.59033203125 673.0182495117188 1334.471557617188 672.904052734375 1333.342651367188 C 672.7552490234375 1331.8720703125 672.9603271484375 1330.43798828125 673.4823608398438 1329.13671875 L 670.8387451171875 1321.97021484375 L 666.5382690429688 1317.867553710938 M 668.7972412109375 1310.34814453125 L 676.8446044921875 1318.025390625 L 680.4208984375 1327.72021484375 C 680.4208984375 1327.72021484375 684.5301513671875 1325.580200195312 686.7947387695312 1325.579956054688 C 687.1351318359375 1325.579956054688 687.43359375 1325.628295898438 687.67041015625 1325.739501953125 C 689.482666015625 1326.59033203125 689.482666015625 1329.778076171875 687.67041015625 1331.12451171875 C 687.26953125 1331.422241210938 686.756591796875 1331.529907226562 686.1864013671875 1331.529907226562 C 684.6971435546875 1331.529907226562 682.8170166015625 1330.795532226562 681.5209350585938 1330.795532226562 C 681.0697631835938 1330.795532226562 680.6893920898438 1330.884521484375 680.4208984375 1331.12451171875 C 679.0858154296875 1332.3173828125 680.281982421875 1334.702880859375 682.3299560546875 1335.89599609375 C 682.720703125 1336.12353515625 683.1509399414062 1336.209228515625 683.5989379882812 1336.209228515625 C 684.9576416015625 1336.209228515625 686.4805908203125 1335.422119140625 687.5645751953125 1335.421875 C 687.9964599609375 1335.421875 688.3583374023438 1335.546752929688 688.61279296875 1335.89599609375 C 689.7164306640625 1337.4111328125 689.2645263671875 1340.441650390625 686.74462890625 1341.956787109375 C 685.9047241210938 1342.461791992188 684.7122192382812 1342.630126953125 683.4957275390625 1342.630126953125 C 681.0626220703125 1342.630126953125 678.5330810546875 1341.956787109375 678.5330810546875 1341.956787109375 C 678.5330810546875 1341.956787109375 678.466796875 1346.109375 676.8446044921875 1347.49365234375 C 676.0927124023438 1348.13525390625 675.2642211914062 1348.402709960938 674.472412109375 1348.402709960938 C 673.5558471679688 1348.402709960938 672.6883544921875 1348.044555664062 672.0445556640625 1347.49365234375 C 670.844482421875 1346.467041015625 672.0445556640625 1343.38720703125 672.0445556640625 1343.38720703125 L 668.7972412109375 1343.38720703125 L 661.131103515625 1344.9560546875 L 659.076904296875 1331.12451171875 L 654.411865234375 1312.93896484375 L 668.7972412109375 1310.34814453125 Z" stroke="none" fill="#fff"/>
      </g>
      <path id="Path_1062" data-name="Path 1062" d="M820.892,1348.405l-29.68-17.007-9.675,5.724-9.875,11.283-9.006,16.989,6.111,11.212v21.1l16.354,5.451v14.55l22.136,12.01Z" transform="translate(-528.65 -1554.029)" fill="#f5e7b8"/>
      <path id="Path_1051" data-name="Path 1051" d="M574.769,1376.529,534.9,1351.016l8.939-13.5,32.043,15.134-23.6,27.528L529.755,1390.9l-9.866-7.962" transform="translate(-661.922 -1550.671)" fill="none" stroke="#fff" stroke-linecap="round" stroke-linejoin="round" stroke-width="2"/>
      <path id="Path_1047" data-name="Path 1047" d="M600.953,1276.981l-.39,8.8.39,9.73,4.841,5.519h14.652l-16.114,1.7v7.323l-1.651-7.323-11.725,12.078-.964,9.11" transform="translate(-623.437 -1583.903)" fill="none" stroke="#fff" stroke-linecap="round" stroke-linejoin="round" stroke-width="2"/>
      <path id="Path_1048" data-name="Path 1048" d="M581.7,1330.928l20.593-47.88-8.905,9.274,5.3,21.587-1.054-14.632-1.21-8.26" transform="translate(-627.989 -1580.573)" fill="none" stroke="#fff" stroke-linecap="round" stroke-linejoin="round" stroke-width="2"/>
      <path id="Path_886" data-name="Path 886" stroke="#7e20ff" d="M3436.766-812.5l21.868-32.539-41.65-15.429s-18.9-13.061-21.837-24.23c-1.073-4.077,2.538-4.194,3.652-7.024,1.447-3.734,2.611-7.681,18.185-11.685,7.88-2.026,12.521-.848,19.693-.736,6.042.1,14.521-.819,29.867-6.737,31.064-11.98,34.291-16.6,53.054-30.106s2.481-30.509,16.436-26.718,22.6,18.191,41.063,28.823,17.625,7.072,26.912,12.24,5.853,10.3,13.5,14.244,11.633-1.616,17.1,1.518,0,15.168,0,15.168" fill="none" transform="translate(-3495.066 921.203)" stroke-linecap="round" stroke-linejoin="round" stroke-width="4" stroke-dasharray="8"/>
      <path id="Path_888" data-name="Path 888" stroke="#7e20ff" d="M3497.855-946.029s-24.811-.156-28.934-11.729-.574-27.559,8.919-35.59,15.89,3.382,24.525,0,10.015-13.53,10.015-13.53" fill="none" transform="translate(-3455.389 899.991)" stroke-linecap="round" stroke-linejoin="round" stroke-width="4" stroke-dasharray="8"/>
      <path id="Path_1044" data-name="Path 1044" d="M629.022,1283.788l9.965,5.065,41.983-2.715,13.283,15.586-10.871,25.131" transform="translate(-602.011 -1580.166)" fill="none" stroke="#fff" stroke-linecap="round" stroke-linejoin="round" stroke-width="2"/>
      <path id="Path_1043" data-name="Path 1043" d="M605.059,1274.826l-15.543,12.7h30.526l14.564-3.293v8.49l2.559-8.49,13.5,3.293-9.48,5.2v5.831" transform="translate(-623.699 -1585.086)" fill="none" stroke="#fff" stroke-linecap="round" stroke-linejoin="round" stroke-width="2"/>
      <path id="Path_893" data-name="Path 893" d="M3629.667-966.754l4.024,3.364,19.938-7.369,8.007,5.689,2.844-10.64-16.969-5.7,16.969-14.96-20.98-19.283-9.808-24.061-56,10.686v9.586l-8.735,8.941-7.429-12.337,12.613-28.111-17.777-6.377,5.164-20.527-5.164-13.356-34.813,13.356-11.493-16.847-2.987-14.211-13.3-11.137-25.311,32.567-11.022-7.219-10.507,12.176,2.33,8.06h8.177l-5.208,13.352-10.682-4.3-13.4-14.958-2.422,5.906-3.968,3.335,3.968,5.716-22.4,51.413,58.844,34.964,15.748-17.335-9.456-11.6,2.477-9.475,6.979-5.389,47.52,24.325,4.395,35.125,39.13,13.167,31.771,4.322,2.726-4.322-19.492-4.429,12.315-12.1,16.713,12.1Z" transform="translate(-3490.472 837.864)" fill="#f5e7b8" stroke="#fff" stroke-linecap="round" stroke-linejoin="round" stroke-width="4"/>
      <path id="Path_912" data-name="Path 912" d="M3518.455-1038.836l-12.272-20.2-9.491-6.465-9.171,14.062,5.241,5.637v19.171l8.732.779,3.888,5.256Z" transform="translate(-3445.797 870.905)" fill="#dedede" stroke="#c8c29d" stroke-linecap="round" stroke-linejoin="round" stroke-width="2"/>
      <path id="Path_1056" data-name="Path 1056" d="M601.162,1358.117l5.872,5.776,10.549-1.005-10.549,2.353,1,6.3,7.821,4.723,13.435-6.652,10.307,6.652-1.2,15.657,12.406-10.281,4.507,27.279-12.2,2.5v-2.5l8.685-1.773-.988-2.123-7.7,2.123,3.752-11.357-10.69.778v-13.818" transform="translate(-617.306 -1539.362)" fill="none" stroke="#fff" stroke-linecap="round" stroke-linejoin="round" stroke-width="2"/>
      <path id="Path_1099" data-name="Path 1099" d="M499.862,1501.419l6.769-18.016,21.948,14.124,25.282,7.437-11.631,6.259-20.636-6.259Z" transform="translate(-672.916 -1470.584)" fill="#f3e2ac" stroke="#c8c29d" stroke-linecap="round" stroke-linejoin="round" stroke-width="2"/>
      <g id="Path_1057" data-name="Path 1057" transform="translate(-618.72 -1530.862)" fill="none" stroke-linecap="round" stroke-linejoin="round">
        <path d="M606.154,1373.6l7.836,7.844-3.113,8.739-12.292-7.684,2.626-3.22Z" stroke="none"/>
        <path d="M 606.3553466796875 1379.462280273438 L 604.5639038085938 1381.5205078125 L 608.7786865234375 1384.155151367188 L 609.3739624023438 1382.48388671875 L 606.3553466796875 1379.462280273438 M 606.1539306640625 1373.60107421875 L 613.990234375 1381.445068359375 L 610.877197265625 1390.18408203125 L 598.5849609375 1382.500244140625 L 601.2105712890625 1379.280517578125 L 606.1539306640625 1373.60107421875 Z" stroke="none" fill="#fff"/>
      </g>
      <path id="Path_1058" data-name="Path 1058" d="M612.679,1370.1l-5.663,20.886,14.812,7.021,12.432-8.071Z" transform="translate(-614.092 -1532.783)" fill="none" stroke="#fff" stroke-linecap="round" stroke-linejoin="round" stroke-width="2"/>
      <path id="Path_1059" data-name="Path 1059" d="M628.075,1381.847l-12.957-13.91" transform="translate(-609.644 -1533.971)" fill="none" stroke="#fff" stroke-linecap="round" stroke-linejoin="round" stroke-width="2"/>
      <path id="Path_1060" data-name="Path 1060" d="M596.169,1382.5l21.156,11.491,3.451-5.363,6.778,2.687,2.42,7.713,17.078-.892-1.993-2.68-15.086,1.451v-2.916H645.06" transform="translate(-620.047 -1525.979)" fill="none" stroke="#fff" stroke-linecap="round" stroke-linejoin="round" stroke-width="2"/>
      <path id="Path_1174" data-name="Path 1174" d="M734.587,1719.683l-39.911-43.866,2.458,20.137,11.824,25.064,8.852,7.646Z" transform="translate(-565.969 -1364.955)" fill="#79d7f5" stroke="#c8c29d" stroke-width="2"/>
      <path id="Path_1105" data-name="Path 1105" d="M557.241,1475.036l-1.525,4.126H541.2l-16.26,13.554-17.112-9.24-4.413,1.674,24.482,16.335L546.6,1508l2.876-12.143,14.886-17.617Z" transform="translate(-670.967 -1475.177)" fill="#d1e0a8"/>
      <path id="Path_1061" data-name="Path 1061" d="M792.479,1330.545l-15.748,13.544-14.093,20.868,7.284,11.239v22.25h-8.838l-2.2,16.539h15.3l16.508,4.38,19.278,12.46" transform="translate(-530.719 -1554.498)" fill="none" stroke="#fff" stroke-linecap="round" stroke-linejoin="round" stroke-width="4"/>
      <path id="Path_1095" data-name="Path 1095" d="M486.589,1433.683l14.322-13.428,7.044,5.459h13.8l16.236-7.243,19.845-21.274,14.067-1.269,14.958,9.507,5.688,13.036-5.688,18.847,2.641,14.112-7.35,8.151-15.194,1.983-2.8-5.5,4.59-2.136,9.533-9.871V1431.23l-6.375-5.515,6.375-12.419-2.5-3.084H557.836v10.044l-11.556-1.783-9.475,5.906-15.05,4.589-2.047,12.372h-7.785l-6.174-12.372-8.582,2.263-10.579,8.2,4.413,4.631,16.954,1.8,7.838,11.729,21.012,8.105,5.432,3.148h11.219v7.665H547.6l-6.551-3.938h-21.34l-6.059,1.207-5.694,6.32v7.986l10.578,1.313,10.287,7.591-11.844-2.643-3.326,2.643,15.17,14.087V1526.6l-6.462,7.506-14.4-5.85-19.575-24.938,1.268-6.336,12.223-5.562-.96-4.521-1.662-7.767v-4.415l-10.869-13.155v-7.637l-7.44-2.5-2.933,14.261,8.582,16.975,9.127,11.674-7.336,15.578,8.788,25.3-24.6-22.032-6.877-2.12,9.034-6.32,6.217-12.2-10.877-16.045-1.466-14.94Z" transform="translate(-691.675 -1518.604)" fill="#d1e0a8"/>
      <path id="Path_911" data-name="Path 911" d="M3511.05-1051.391l-33.858-9.178-13.4-1.207-8.295,2.467-7.209,6.924-5.1,12.044,8.722,12" transform="translate(-3470.199 869.854)" fill="none" stroke="#c8c29d" stroke-linecap="round" stroke-width="2"/>
      <path id="Path_1029" data-name="Path 1029" d="M601.174,1289.926l8.014-26.961,35.121-14.448L630.046,1244s-16.929,17.56-17.385,17.41" transform="translate(-617.299 -1602.011)" fill="none" stroke="#fff" stroke-linecap="round" stroke-linejoin="round" stroke-width="2"/>
      <path id="Path_898" data-name="Path 898" d="M3445.876-1013.618l7.474-11.866,7.242-44.5-12.843-3.554-1.873,5.56-16.527-6.85-20.333,39.49" transform="translate(-3487.344 862.687)" fill="none" stroke="#c8c29d" stroke-width="2"/>
      <path id="Path_894" data-name="Path 894" d="M3414.724-1078.44l28.109,11.742a183.436,183.436,0,0,0-9.461,33.049,183.615,183.615,0,0,0-2.1,34.32" transform="translate(-3484.21 860.706)" fill="none" stroke="#fff" stroke-linecap="round" stroke-linejoin="round" stroke-width="4"/>
      <path id="Path_895" data-name="Path 895" d="M3466.3-1044.316l-55.8-24.229" transform="translate(-3486.53 866.138)" fill="none" stroke="#fff" stroke-linecap="round" stroke-width="4"/>
      <path id="Path_896" data-name="Path 896" d="M3468.7-1037.772l-13.447,1.834-49.123-23.018" transform="translate(-3488.929 871.402)" fill="none" stroke="#fff" stroke-linecap="round" stroke-width="2"/>
      <path id="Path_1033" data-name="Path 1033" d="M663.833,1276.452l18.431,2.7,27.62,19.825,6.505,4.12,13.046-4.12" transform="translate(-582.901 -1584.194)" fill="none" stroke="#fff" stroke-linecap="round" stroke-linejoin="round" stroke-width="2"/>
      <path id="Path_1034" data-name="Path 1034" d="M703.963,1289.674l.291,12.035L716.489,1317l7.072,24.374h-9l-16.747,16.084v5.718l-32.694,6.9" transform="translate(-582.194 -1576.935)" fill="none" stroke="#fff" stroke-linecap="round" stroke-linejoin="round" stroke-width="2"/>
      <path id="Path_1054" data-name="Path 1054" d="M550.279,1366.329l-2.893,13.091-27.073-3.61" transform="translate(-661.689 -1534.854)" fill="none" stroke="#fff" stroke-linecap="round" stroke-linejoin="round" stroke-width="2"/>
      <path id="Path_897" data-name="Path 897" d="M3478.235-1118.552s-18.037,17.442-29.195,35.946a158.947,158.947,0,0,0-16.115,37.98" transform="translate(-3474.219 838.686)" fill="none" stroke="#fff" stroke-linecap="round" stroke-width="4"/>
      <path id="Path_899" data-name="Path 899" d="M3442.313-1048.756h16.881l30.515-43.391-13.8-10.261-6.409-8.623" transform="translate(-3469.065 842.815)" fill="none" stroke="#c8c29d" stroke-linecap="round" stroke-linejoin="round" stroke-width="2"/>
      <path id="Path_1063" data-name="Path 1063" d="M809.671,1336.416,789.217,1350.5l-6.262,16.032v46.679l-1.8-13.229-16.1-4.817" transform="translate(-527.33 -1551.275)" fill="none" stroke="#fff" stroke-linecap="round" stroke-linejoin="round" stroke-width="2"/>
      <path id="Path_1064" data-name="Path 1064" d="M807.416,1375.984l-12.841,3.583H776.057" transform="translate(-521.294 -1529.554)" fill="none" stroke="#fff" stroke-linecap="round" stroke-linejoin="round" stroke-width="2"/>
      <path id="Path_1065" data-name="Path 1065" d="M786.18,1342.378l3.078,24.256-3.078,19.189,6.3,10.882" transform="translate(-515.737 -1548.002)" fill="none" stroke="#fff" stroke-linecap="round" stroke-linejoin="round" stroke-width="2"/>
      <path id="Path_1066" data-name="Path 1066" d="M813.835,1373.59l-33.049-6.212-10.572-10.788,18.372-24.235" transform="translate(-524.502 -1553.504)" fill="none" stroke="#fff" stroke-linecap="round" stroke-linejoin="round" stroke-width="2"/>
      <path id="Path_1067" data-name="Path 1067" d="M778.342,1352.3,766.99,1371.74" transform="translate(-526.272 -1542.556)" fill="none" stroke="#fff" stroke-linecap="round" stroke-linejoin="round" stroke-width="2"/>
      <path id="Path_900" data-name="Path 900" d="M3455.068-1057.561l-13.449-8.927" transform="translate(-3469.446 867.268)" fill="none" stroke="#c8c29d" stroke-linecap="round" stroke-width="2"/>
      <path id="Path_901" data-name="Path 901" d="M3461.065-1049.157l-7.937-21.535" transform="translate(-3463.128 864.959)" fill="none" stroke="#c8c29d" stroke-linecap="round" stroke-width="2"/>
      <path id="Path_902" data-name="Path 902" d="M3469.478-1066.846l-11.84-9.852Z" transform="translate(-3460.653 861.663)" fill="none" stroke="#c8c29d" stroke-linecap="round" stroke-width="2"/>
      <path id="Path_1107" data-name="Path 1107" d="M597.694,1565.93l4.072-8.3h8.07l15.291,16.706.947,9.61L612.9,1572.888Z" transform="translate(-620.758 -1429.836)" fill="#f5e7b8" stroke="#c8c29d" stroke-width="2"/>
      <path id="Path_903" data-name="Path 903" d="M3464.847-1043.92v-13.571l21.443-27.063,17.53-8.544h18.884" transform="translate(-3456.695 852.659)" fill="none" stroke="#c8c29d" stroke-linecap="round" stroke-linejoin="round" stroke-width="2"/>
      <path id="Path_904" data-name="Path 904" d="M3523.833-1059.268l-15.594-12.654-21.488-10.087-35.375-21.17" transform="translate(-3464.089 847.125)" fill="none" stroke="#c8c29d" stroke-width="2"/>
      <path id="Path_905" data-name="Path 905" d="M3496.128-1099.955v15.854l-4.411,13.513" transform="translate(-3441.944 848.895)" fill="none" stroke="#c8c29d" stroke-width="2"/>
      <path id="Path_907" data-name="Path 907" d="M3510.164-1089.134l-7.716,21.681-9.926,18.952" transform="translate(-3441.502 854.835)" fill="none" stroke="#c8c29d" stroke-width="2"/>
      <path id="Path_908" data-name="Path 908" d="M3484.368-1070.826l-6.948,11.253v9.566" transform="translate(-3449.792 864.886)" fill="none" stroke="#c8c29d" stroke-linecap="round" stroke-linejoin="round" stroke-width="2"/>
      <path id="Path_906" data-name="Path 906" d="M3522.07-1041.807l-85.644-61.887" transform="translate(-3472.297 846.842)" fill="none" stroke="#fff" stroke-linecap="round" stroke-linejoin="round" stroke-width="4"/>
      <path id="Path_909" data-name="Path 909" d="M3487.33-1048.987l7.959-15.621Z" transform="translate(-3444.352 868.3)" fill="none" stroke="#fff" stroke-linecap="round" stroke-linejoin="round" stroke-width="4"/>
      <path id="Path_1035" data-name="Path 1035" d="M697.712,1307.51l32.3-3.739,13.856,9.78,12.7,19.412,19.143-15.809,20.25,10.533-1.049,17.338,4.1,27.527-8.286-9.544h-19.87l-10.193,6.108-4.093,13.92,2.659,18.645-6.085,20.5" transform="translate(-564.303 -1569.196)" fill="none" stroke="#fff" stroke-linecap="round" stroke-linejoin="round" stroke-width="2"/>
      <path id="Path_910" data-name="Path 910" d="M3489.7-1037.224v-10.01l-31.336-9.377" transform="translate(-3460.255 872.689)" fill="none" stroke="#c8c29d" stroke-width="2"/>
      <path id="Path_913" data-name="Path 913" d="M3493.217-1010.353l1.736-13.909,6.085-10.928" transform="translate(-3441.12 884.449)" fill="none" stroke="#c8c29d" stroke-linecap="round" stroke-width="2"/>
      <path id="Path_914" data-name="Path 914" d="M3516.977-1006.236v-10.811l-22.134-10.224" transform="translate(-3440.228 888.796)" fill="none" stroke="#c8c29d" stroke-linecap="round" stroke-width="2"/>
      <path id="Path_1037" data-name="Path 1037" d="M698.151,1307.18l14.046,19.131,2.39,7.619,8.769,10.8,9,8.7L720.743,1373.2l-8.547-2.168" transform="translate(-564.062 -1567.324)" fill="none" stroke="#fff" stroke-linecap="round" stroke-linejoin="round" stroke-width="2"/>
      <path id="Path_915" data-name="Path 915" d="M3515.945-986.812v-7.96l32.628-51.236,17.169-12.418,6.921,12.418,12.215,7.7" transform="translate(-3428.643 871.693)" fill="none" stroke="#c8c29d" stroke-linecap="round" stroke-width="2"/>
      <path id="Path_916" data-name="Path 916" d="M3563.66-1055.34l-1.254-9.125-42.724,8.21,1.589,9.521h18.066v-4.425l19.328-11.212" transform="translate(-3426.592 868.378)" fill="none" stroke="#c8c29d" stroke-linecap="round" stroke-width="2"/>
      <path id="Path_917" data-name="Path 917" d="M3522.038-1040.871v-12.141" transform="translate(-3425.299 874.665)" fill="none" stroke="#c8c29d" stroke-linecap="round" stroke-width="2"/>
      <path id="Path_918" data-name="Path 918" d="M3509.132-1008.414l14.433-21.117v-15.688h5.858" transform="translate(-3432.383 878.943)" fill="none" stroke="#c8c29d" stroke-linecap="round" stroke-width="2"/>
      <path id="Path_1104" data-name="Path 1104" d="M555.983,1432.526l13.2,1.84,6.789,8.6-3.876,11.917-13.082-4.2-4.338,4.2-9.845,13.961V1474h-8.86l-7.544-7.166-1.14-7.659,5.881-6.122,20.224-7.549v-8.537Z" transform="translate(-657.861 -1498.514)" fill="#d1e0a8"/>
      <path id="Path_919" data-name="Path 919" d="M3561.714-1011.971l-11.988-7.126-17.94,2.327-33.478-17.674" transform="translate(-3438.326 884.858)" fill="none" stroke="#c8c29d" stroke-linecap="round" stroke-width="2"/>
      <path id="Path_920" data-name="Path 920" d="M3555.416-1023.322l2.733-11.083-5.187-12.039" transform="translate(-3408.323 878.271)" fill="none" stroke="#c8c29d" stroke-linecap="round" stroke-width="2"/>
      <path id="Path_887" data-name="Path 887" stroke="#7e20ff" d="M3700.219-1003.293s-32.558,17.051-70.441,19.817-81.354-10.627-81.354-10.627-43.713-15.473-77.467-23.193c-21.11-4.829-36.32-2.208-54.134-6.634-45.443-11.291-50.173-15.336-50.173-15.336" fill="none" transform="translate(-3510.602 882.211)" stroke-linecap="round" stroke-linejoin="round" stroke-width="4" stroke-dasharray="8"/>
      <path id="Path_921" data-name="Path 921" d="M3540.061-1013.052l22.064-18.26" transform="translate(-3415.405 886.578)" fill="none" stroke="#c6bba0" stroke-linecap="round" stroke-width="2"/>
      <path id="Path_922" data-name="Path 922" d="M827.343,1209.258a60.427,60.427,0,0,1-34.157-11.13c-16.569-11.825-21.538-30.4-32.12-36.17-15.17-8.27-48.431-15.236-48.431-15.236l3.847,15.236" transform="translate(-556.11 -1655.411)" fill="none" stroke="#fff" stroke-width="2"/>
      <path id="Path_889" data-name="Path 889" stroke="#7e20ff" d="M3644.8-994.221s-22-27.37-37.489-45.016-9.083-25.781-18.7-28.385-79.409,9.826-95.764,18.535-6.663,68.739-6.663,68.739" fill="none" transform="translate(-3446.545 866.452)" stroke-linecap="round" stroke-linejoin="round" stroke-width="4" stroke-dasharray="8"/>
      <path id="Path_1103" data-name="Path 1103" d="M566.427,1449.535l-14.231-4.4-6.669,9.425-5.88,6.573,4.293,9.208,13.622-4.5Z" transform="translate(-651.075 -1491.593)" fill="#fff" stroke="#fff" stroke-linecap="round" stroke-linejoin="round" stroke-width="2"/>
      <path id="Path_1026" data-name="Path 1026" d="M603.376,1239.146l39.677,12.012,22.7,4.931L703.2,1268.7l2.234-16.189,6.559,13.721h12.365l10.646,7.232" transform="translate(-616.09 -1604.673)" fill="none" stroke="#fff" stroke-linecap="round" stroke-linejoin="round" stroke-width="2"/>
      <path id="Path_1024" data-name="Path 1024" d="M696.966,1182.282l.379-18.669" transform="translate(-564.712 -1646.138)" fill="none" stroke="#fff" stroke-linecap="round" stroke-width="2"/>
      <path id="Path_1015" data-name="Path 1015" d="M784.266,1269.292l-3.827-15.442-14.74-28.1-7.188-12.607-13.949-11.375-15.464,4.413-15.808-4.413H696.966l9.728-17.986,17.455-14.563,12.971-22.318,9.961-2.86v-10.369" transform="translate(-564.712 -1662.572)" fill="none" stroke="#fff" stroke-linecap="round" stroke-linejoin="round" stroke-width="2"/>
      <path id="Path_1016" data-name="Path 1016" d="M743.917,1213.651l3.838-11.776-3.838-12.766,10.761-21.924,5.682,3.908-16.443-38.7-7.626,19.6-13.045,6.224" transform="translate(-550.285 -1663.274)" fill="none" stroke="#fff" stroke-linecap="round" stroke-linejoin="round" stroke-width="2"/>
      <path id="Path_1017" data-name="Path 1017" d="M740.324,1208.65l32.005-22.03,4.744-2.45,11.35-5.863-13.541-19.114v27.427" transform="translate(-540.91 -1648.565)" fill="none" stroke="#fff" stroke-linecap="round" stroke-linejoin="round" stroke-width="2"/>
      <path id="Path_1018" data-name="Path 1018" d="M620.477,1212.188l71.222-23.82,28.828-13.582,6.764,6.655,11.55-2.466-8.756,21.162,44.781,69.178" transform="translate(-606.702 -1640.005)" fill="none" stroke="#fff" stroke-linecap="round" stroke-linejoin="round" stroke-width="2"/>
      <path id="Path_1019" data-name="Path 1019" d="M746.091,1264.932l-25.3,3.165-12.648-7.857,5.333-4.44H701.233l-9.64-15.471-13.726-8.71-4.975-27.224,28.341-13.4" transform="translate(-577.928 -1631.11)" fill="none" stroke="#fff" stroke-linecap="round" stroke-linejoin="round" stroke-width="2"/>
      <path id="Path_1020" data-name="Path 1020" d="M642.484,1177.453l-1.649,22.366,5.46,9.67-3.811,15.5v12.353l9.283,11.294,7.986,3.712" transform="translate(-595.526 -1638.541)" fill="none" stroke="#fff" stroke-linecap="round" stroke-linejoin="round" stroke-width="2"/>
      <path id="Path_1096" data-name="Path 1096" d="M504.611,1437.2l-6.946-12.942-6.387,1.382-11.089,9.431,2.238,4.228,18.016,2.079,7.3,11.017L524.44,1459l9.287,3.785,11.059,1.969v6.621h-6.365l-6.971-3.213H506.436l-5.994,9.025v6.7H511.69l10.439,7.672-12.737-2.206-2.955,2.206,15.692,17.231v12.736l15.121,10.383,16.116-14.064H569.15l3.55-10.271-2.067-18.221h-8.39l-8.877-8.4v-7.979l5.291-4.817,20.822-6.957v-11.332l-17.236,7.776-6.573-5.256,14.963-13.1v-13.659l-6.455-4.879,6.455-12.561-1.484-3.276-18.4,1.177v9.567l-10.982-1.731-24.458,10.321L511.69,1437.2Z" transform="translate(-683.716 -1513.665)" fill="#f3e2ac" stroke="#c8c29d" stroke-linecap="round" stroke-linejoin="round" stroke-width="2"/>
      <path id="Path_1021" data-name="Path 1021" d="M688.156,1210.082l-12.691,2.073-23.55-18.326,5.03-11.543-9.789-2.227-2.066,4.63,8.952,3.808" transform="translate(-593.191 -1637.109)" fill="none" stroke="#fff" stroke-linecap="round" stroke-linejoin="round" stroke-width="2"/>
      <path id="Path_1022" data-name="Path 1022" d="M653.534,1191.715l-12.43-6.246" transform="translate(-595.379 -1634.14)" fill="none" stroke="#fff" stroke-linecap="round" stroke-linejoin="round" stroke-width="2"/>
      <path id="Path_1023" data-name="Path 1023" d="M682.115,1183.928l-2.633,10.93v8.773" transform="translate(-574.31 -1634.986)" fill="none" stroke="#fff" stroke-linecap="round" stroke-linejoin="round" stroke-width="2"/>
      <path id="Path_1077" data-name="Path 1077" d="M641.879,1454.638l27.521-30.984L788.2,1457.4h22.27l-18.178.826,1.283,20.565,15,9.754-1.631-8.709v-12.672s3.29-8.733,3.527-9.763" transform="translate(-594.953 -1503.384)" fill="none" stroke="#fff" stroke-linecap="round" stroke-linejoin="round" stroke-width="2"/>
      <path id="Path_1078" data-name="Path 1078" d="M743.748,1448.522l.091,14.292" transform="translate(-539.031 -1489.732)" fill="none" stroke="#fff" stroke-linecap="round" stroke-linejoin="round" stroke-width="2"/>
      <path id="Path_1079" data-name="Path 1079" d="M793.575,1504.093l-11.341-25.421L768.1,1468.414l-18.575-3.326" transform="translate(-535.86 -1480.639)" fill="none" stroke="#fff" stroke-linecap="round" stroke-linejoin="round" stroke-width="2"/>
      <path id="Path_1080" data-name="Path 1080" d="M779.219,1492.137l6.582-2.115-2.171-5.5h-7.957" transform="translate(-521.504 -1469.97)" fill="none" stroke="#fff" stroke-linecap="round" stroke-linejoin="round" stroke-width="2"/>
      <path id="Path_1025" data-name="Path 1025" d="M762.4,1191.981l-4.42-7H736.8" transform="translate(-542.845 -1634.406)" fill="none" stroke="#fff" stroke-linecap="round" stroke-linejoin="round" stroke-width="2"/>
      <path id="Path_1027" data-name="Path 1027" d="M619.544,1258.676l7.542-8.337,13.581,1.723-11.7-19.3-1.88-16.229" transform="translate(-607.214 -1617.086)" fill="none" stroke="#fff" stroke-linecap="round" stroke-linejoin="round" stroke-width="2"/>
      <path id="Path_1028" data-name="Path 1028" d="M658.371,1252.957l-8.849,2.4v-6.688l-17.228-9.472" transform="translate(-600.215 -1604.644)" fill="none" stroke="#fff" stroke-linecap="round" stroke-linejoin="round" stroke-width="2"/>
      <path id="Path_1030" data-name="Path 1030" d="M603.376,1273.167l37.583-17.477" transform="translate(-616.09 -1595.591)" fill="none" stroke="#fff" stroke-linecap="round" stroke-linejoin="round" stroke-width="2"/>
      <path id="Path_1031" data-name="Path 1031" d="M638.8,1253.608l38.774,28.177-1.715,20.442" transform="translate(-596.643 -1596.734)" fill="none" stroke="#fff" stroke-linecap="round" stroke-linejoin="round" stroke-width="2"/>
      <path id="Path_1032" data-name="Path 1032" d="M668.872,1258.821l-2.614,20.109" transform="translate(-581.57 -1596.97)" fill="none" stroke="#fff" stroke-linecap="round" stroke-linejoin="round" stroke-width="2"/>
      <path id="Path_1036" data-name="Path 1036" d="M735.639,1322.181l3.156,11.858,5.342,11.951,7.832,7.475" transform="translate(-543.482 -1559.09)" fill="none" stroke="#fff" stroke-linecap="round" stroke-linejoin="round" stroke-width="2"/>
      <path id="Path_1038" data-name="Path 1038" d="M712.448,1374.686l5.122,13.825,8.6,4.125v7.373l1.917-8.41,7.194-3.089h3.291v-23.18l3.071-7.325v-14.39l-13.555-15.971-5.433-10.284v-12.894" transform="translate(-556.213 -1568.815)" fill="none" stroke="#fff" stroke-linecap="round" stroke-linejoin="round" stroke-width="2"/>
      <path id="Path_1039" data-name="Path 1039" d="M707.9,1305.308l12.517,7.263,5.281,17.523L703.4,1332.6" transform="translate(-561.178 -1568.352)" fill="none" stroke="#fff" stroke-linecap="round" stroke-linejoin="round" stroke-width="2"/>
      <path id="Path_1040" data-name="Path 1040" d="M736.805,1311.8l-1.956,22.367-5.006,5.861-2.639,6.836-13.288-5.776" transform="translate(-555.407 -1564.787)" fill="none" stroke="#fff" stroke-linecap="round" stroke-linejoin="round" stroke-width="2"/>
      <path id="Path_1041" data-name="Path 1041" d="M750.981,1338.669l-7.939,4.841H731.314l-8.75-9.025" transform="translate(-550.66 -1552.335)" fill="none" stroke="#fff" stroke-linecap="round" stroke-linejoin="round" stroke-width="2"/>
      <path id="Union_2" data-name="Union 2" d="M0,127.058l1.667-10.1L15.577,100.08l17.579,4.8,2.8-2.958L16.9,95.558,15.577,74.022l13.73-3.9,8.017-15.738,5.886,2.272-5.881-2.7,3.917-13.8L34.5,31.483,22.329,29.975,20.146,12.538,24.178,0,39.115,4.549V10.8L54.66,7.687l4,8.654L69,15.2l7.761,3.863H86.02L93.7,22.2l-3.277,11,10,10.755-3.361,9.994,3.361,7.945L79.577,67.267,63.892,58.133l-19.436-.991,5.059,1.952v8.567l21.371,6.361L74.4,85.8l10.1-5.014,8.681,10.5L80.8,100.08l-5.2-2.795L56.08,114.937,39.7,109.4,23.457,113.3,13.751,109.4,16.9,127.642Z" transform="translate(-123.185 -96.222)" fill="#f3e2ac" stroke="#c8c29d" stroke-linecap="round" stroke-linejoin="round" stroke-width="2"/>
      <path id="Path_1049" data-name="Path 1049" d="M585.461,1339.389l-2.669-19.435-4.4-5.228,7.065-10.221" transform="translate(-629.804 -1568.793)" fill="none" stroke="#fff" stroke-linecap="round" stroke-linejoin="round" stroke-width="2"/>
      <path id="Path_1050" data-name="Path 1050" d="M586.53,1320.12l-5.121-3.982-8.5-1.123" transform="translate(-632.817 -1563.023)" fill="none" stroke="#fff" stroke-linecap="round" stroke-linejoin="round" stroke-width="2"/>
      <path id="Path_1052" data-name="Path 1052" d="M548.9,1363.576l-13.647-5.929" transform="translate(-653.487 -1539.62)" fill="none" stroke="#fff" stroke-linecap="round" stroke-linejoin="round" stroke-width="2"/>
      <path id="Path_1053" data-name="Path 1053" d="M540.682,1365.317l12.209,9.141" transform="translate(-650.507 -1535.409)" fill="none" stroke="#fff" stroke-linecap="round" stroke-linejoin="round" stroke-width="2"/>
      <path id="Path_1086" data-name="Path 1086" d="M772.374,1392.841l8.7,9.315-2.45.953-7.739-8.394-1.993,2.223,7.82,8.4" transform="translate(-525.225 -1520.299)" fill="none" stroke="#fff" stroke-linecap="round" stroke-linejoin="round" stroke-width="2"/>
      <path id="Path_1087" data-name="Path 1087" d="M770.907,1433.9l17.244,4.978-4.437,8.208H776.8l-5.057-5.57Z" transform="translate(-524.121 -1497.76)" fill="#fff"/>
      <path id="Path_1055" data-name="Path 1055" d="M563.289,1366.329l-6.413,12.113" transform="translate(-641.617 -1534.854)" fill="none" stroke="#fff" stroke-linecap="round" stroke-linejoin="round" stroke-width="2"/>
      <path id="Path_1071" data-name="Path 1071" d="M654.412,1429.82l36.61,11.6,40.371,12.554,5.007-12.554,8.013,2.66-6.517,18.313-9.474,26.622,12.132-26.622,16.677,6.652L744.413,1512.4l-15.99-5.8" transform="translate(-588.073 -1499.999)" fill="none" stroke="#c8c29d" stroke-linecap="round" stroke-linejoin="round" stroke-width="2"/>
      <path id="Path_1072" data-name="Path 1072" d="M728.288,1442.509l-3.032,13.067,21.049,5.285" transform="translate(-549.182 -1493.033)" fill="none" stroke="#c8c29d" stroke-linecap="round" stroke-linejoin="round" stroke-width="2"/>
      <path id="Path_1073" data-name="Path 1073" d="M775.4,1442.509l-5.764,8.041,17.729,19.307h-20.1l-4.5,10.379" transform="translate(-528.593 -1493.033)" fill="none" stroke="#c8c29d" stroke-linecap="round" stroke-linejoin="round" stroke-width="2"/>
      <path id="Path_1074" data-name="Path 1074" d="M791.739,1499.834l-3.273-8.767h-3.88l-8.534-22.4,3.173-8.237" transform="translate(-521.297 -1483.197)" fill="none" stroke="#c8c29d" stroke-linecap="round" stroke-linejoin="round" stroke-width="2"/>
      <path id="Path_1075" data-name="Path 1075" d="M794.4,1462.651l-2.47,11.9,11.2,24.689" transform="translate(-512.581 -1481.976)" fill="none" stroke="#c8c29d" stroke-linecap="round" stroke-linejoin="round" stroke-width="2"/>
      <path id="Path_1076" data-name="Path 1076" d="M777.409,1463.309l11.729,3.629,7.746,20.593-9.052,2.2,9.052-2.2,4.4,11.533" transform="translate(-520.552 -1481.615)" fill="none" stroke="#c8c29d" stroke-linecap="round" stroke-linejoin="round" stroke-width="2"/>
      <path id="Path_1082" data-name="Path 1082" d="M741.369,1459.566l-.674-32.638,7.076-7.743h9.31l-1.836,11.316-13.877-2.178,12.8,1.1,1.69-9.468h-8.086l-6.4,7.478,12.164.893,1.2-7.668h-6.96l-4.751,6.273h10l.514-5.487h-5.762l-2.506,4.607h6.965v-3.666h-4.007l-1.208,2.7h4.479v-1.89h-2.538v1.086H750.6" transform="translate(-540.707 -1505.837)" fill="none" stroke="#fff" stroke-linecap="round" stroke-linejoin="round" stroke-width="2"/>
      <path id="Path_1083" data-name="Path 1083" d="M853.873,1441.465l-66.3-17.783" transform="translate(-514.973 -1503.368)" fill="none" stroke="#000" stroke-linecap="round" stroke-linejoin="round" stroke-width="2"/>
      <path id="Path_1090" data-name="Path 1090" d="M489.889,1429.4l5.176,5.292,15.521-.987,11.84-4.305,22.153-23.331,15.475-1.677v-24.8" transform="translate(-678.391 -1527.572)" fill="none" stroke="#fff" stroke-linecap="round" stroke-linejoin="round" stroke-width="2"/>
      <path id="Path_1091" data-name="Path 1091" d="M554.9,1471.7l-6.277-35.193,6.387-16.7-6.387-14.941-13.869-9.293" transform="translate(-653.762 -1518.803)" fill="none" stroke="#fff" stroke-linecap="round" stroke-linejoin="round" stroke-width="2"/>
      <path id="Path_1092" data-name="Path 1092" d="M543.443,1391.258l7,12.589,14.783.978,74.694,23.6,3.913-3.843,10.087,3.519-3.13,5.083,12.518-4.659,14.854-9.437-13.8-3.811-34.244-4.712-22.35-8.631-41.05-9.443-10.363-5.629Z" transform="translate(-648.991 -1523.583)" fill="#eaeaea" stroke="#d1d1d1" stroke-linecap="round" stroke-linejoin="round" stroke-width="2"/>
      <path id="Path_1093" data-name="Path 1093" d="M549.843,1399.992l-3.255,6.257,3.664,2.66L553,1407.8l6.835,12.35,23.058,2.039,20.814,12.206,32.775,2.083,6.425,3.978,5.37-3.978h8.7l1.708-5.834-92.53-29.458Z" transform="translate(-647.265 -1516.374)" fill="#bcbcbc" stroke="#bcbcbc" stroke-linecap="round" stroke-linejoin="round" stroke-width="2"/>
      <path id="Path_1094" data-name="Path 1094" d="M535.1,1387.132l14.045,4.325v9.277l7.131,7.063,12.914-1.389,84.208,26.734,1.27-1.55-9.884-2.887,1.807-1.309,9.448,2.948v-1.639l-7.157-2.2" transform="translate(-653.57 -1523.433)" fill="none" stroke="#fff" stroke-linecap="round" stroke-linejoin="round" stroke-width="2"/>
      <path id="Path_1097" data-name="Path 1097" d="M482.084,1432.535l12.339,21.979v10.033l2.769,6.1-2.769,7.447-14.688-17.383-5.982-12.254,1.61-12.935Z" transform="translate(-687.249 -1498.509)" fill="#f3e2ac" stroke="#c8c29d" stroke-linecap="round" stroke-linejoin="round" stroke-width="2"/>
      <path id="Path_1098" data-name="Path 1098" d="M480.189,1473.539l6.826-9.484,11.753,21.641-4.707,8.2Z" transform="translate(-683.716 -1481.205)" fill="#f3e2ac" stroke="#c8c29d" stroke-linecap="round" stroke-linejoin="round" stroke-width="2"/>
      <g id="Ellipse_42" data-name="Ellipse 42" transform="translate(-104.686 -48.215)" fill="#fff" stroke="#c8c29d" stroke-linejoin="round" stroke-width="2">
        <circle cx="6.196" cy="6.196" r="6.196" stroke="none"/>
        <circle cx="6.196" cy="6.196" r="5.196" fill="none"/>
      </g>
      <path id="Path_1110" data-name="Path 1110" d="M551.707,1503.4l36.389,17.156,15.444,5.246,104.957,1.2V1518.2l-6.829-11.155H692.94l5.785-11.784,5.119-16.7-20.487-6.248-3.132,10.134,1.292,7.587,1.84,19.723,1.829,16.046" transform="translate(-644.455 -1476.672)" fill="none" stroke="#c8c29d" stroke-width="2"/>
      <path id="Path_1111" data-name="Path 1111" d="M565.922,1487.566l-.585,40.485" transform="translate(-636.972 -1468.299)" fill="none" stroke="#c8c29d" stroke-linecap="round" stroke-linejoin="round" stroke-width="2"/>
      <path id="Path_1112" data-name="Path 1112" d="M554.188,1498.073l35.408-.687,14.141.687,11.111,11.54,1.3,41.247" transform="translate(-643.093 -1462.908)" fill="none" stroke="#c8c29d" stroke-linecap="round" stroke-linejoin="round" stroke-width="2"/>
      <path id="Path_1113" data-name="Path 1113" d="M576.262,1486.75l1.957,48.775" transform="translate(-630.975 -1468.746)" fill="none" stroke="#c8c29d" stroke-linecap="round" stroke-linejoin="round" stroke-width="2"/>
      <path id="Path_1114" data-name="Path 1114" d="M576.262,1489.967l19.625,1.126,15.676,9.341,9.814,15.775" transform="translate(-630.975 -1466.981)" fill="none" stroke="#c8c29d" stroke-linecap="round" stroke-linejoin="round" stroke-width="2"/>
      <path id="Path_1115" data-name="Path 1115" d="M586.924,1502.19l4.765-10.587" transform="translate(-625.121 -1466.083)" fill="none" stroke="#c8c29d" stroke-linecap="round" stroke-linejoin="round" stroke-width="2"/>
      <path id="Path_1116" data-name="Path 1116" d="M561.126,1530.036l24.3,2.578,16.872,2.342,17.493,8.2,45.641-2.282-5.905-62.5,4.608-8.913" transform="translate(-639.284 -1478.233)" fill="none" stroke="#c8c29d" stroke-linecap="round" stroke-linejoin="round" stroke-width="2"/>
      <path id="Path_1117" data-name="Path 1117" d="M584.648,1511.984l-.341,16.324" transform="translate(-626.559 -1454.894)" fill="none" stroke="#c8c29d" stroke-linecap="round" stroke-linejoin="round" stroke-width="2"/>
      <path id="Path_1136" data-name="Path 1136" d="M648.712,1514.448,648,1532.235" transform="translate(-591.593 -1453.542)" fill="none" stroke="#c8c29c" stroke-linecap="round" stroke-linejoin="round" stroke-width="2"/>
      <path id="Path_1120" data-name="Path 1120" d="M616.242,1485.241l30.664-1.136,29.382,9.286,3.329-9.286-13.1-4.809" transform="translate(-607.478 -1471.29)" fill="none" stroke="#c8c29d" stroke-linecap="round" stroke-linejoin="round" stroke-width="2"/>
      <path id="Path_1121" data-name="Path 1121" d="M659.933,1475.395,659,1487.986" transform="translate(-587.102 -1473.432)" fill="none" stroke="#c8c29d" stroke-linecap="round" stroke-linejoin="round" stroke-width="2"/>
      <path id="Path_1122" data-name="Path 1122" d="M622.453,1565.7l-4.7-68.26" transform="translate(-608.199 -1462.881)" fill="none" stroke="#c8c29d" stroke-linecap="round" stroke-linejoin="round" stroke-width="2"/>
      <path id="Path_1123" data-name="Path 1123" d="M597.692,1555.181l10.979-17.619,9.493,8.229,17.939,1.45,14.333-3.625-4.572-23.248,5.82,23.248,11.394-1.245-2.647-34.531,2.647,34.531,7.515,14.2,15.869,4.877,1.78.547-1.175-27.513H675.713v17.389l-5.12,4.7-1.246,10.681s1.187-11.014,1.246-10.681l17.649,5.424,14.806-.547,1.719-14.2-4.28-12.761s-12.807.141-13.421,0" transform="translate(-619.21 -1457.169)" fill="none" stroke="#c8c29d" stroke-linecap="round" stroke-linejoin="round" stroke-width="2"/>
      <path id="Path_1184" data-name="Path 1184" d="M690.115,1522.168l12.529-19.286,14.1-3.382,11.436-4.685,13.334,5.853,32.537-2.691,9.666,8.562-24.155,8.947,6,9.989H722.573L704.7,1518.05Z" transform="translate(-568.473 -1464.319)" fill="#79d7f5" stroke="#79d7f5" stroke-linecap="round" stroke-linejoin="round" stroke-width="2"/>
      <path id="Path_884" data-name="Path 884" stroke="#7e20ff" d="M3613.539-847.432s4.418-14.272,2.419-24.161-6.4-.348-10.415-15.394-3.737-19.469-1.738-37.781,8.052-19.95,9.733-35.47,1.97-23.726-3.362-31.23-13.7-4.394-20.782-9.423-7.564-10.691-7.564-10.691,27.474-16.182,49.731-16.182,41.48,18.219,41.48,18.219" fill="none" transform="translate(-3392.475 888.525)" stroke-linecap="round" stroke-linejoin="round" stroke-width="4" stroke-dasharray="8"/>
      <path id="Path_1140" data-name="Path 1140" d="M661.222,1611.65l13.9-38.5,15.007-36.219" transform="translate(-584.334 -1441.202)" fill="none" stroke="#fff" stroke-linecap="round" stroke-linejoin="round" stroke-width="2"/>
      <path id="Path_1124" data-name="Path 1124" d="M659.837,1497.772l8.05,11.979-3.467,11.691,1.58,18.265" transform="translate(-585.095 -1462.696)" fill="none" stroke="#c8c29d" stroke-linecap="round" stroke-linejoin="round" stroke-width="2"/>
      <path id="Path_1125" data-name="Path 1125" d="M662.438,1481.79l11.818,6.122v6.186l5.571,1.872-2.912,5.237h-5.57l-5.794,4.309-13.935,1.559" transform="translate(-589.608 -1471.469)" fill="none" stroke="#c8c29d" stroke-linecap="round" stroke-linejoin="round" stroke-width="2"/>
      <path id="Path_1126" data-name="Path 1126" d="M682.043,1528.606l4.15-11.415-1.239-12.931-8.99-10.429-1.12-5.593-7.9-2.166" transform="translate(-581.192 -1469.118)" fill="none" stroke="#c8c29d" stroke-linecap="round" stroke-linejoin="round" stroke-width="2"/>
      <path id="Path_1127" data-name="Path 1127" d="M682.032,1548.739l-11.039-20.023-3.539-34.177" transform="translate(-580.913 -1464.471)" fill="none" stroke="#c8c29c" stroke-linecap="round" stroke-linejoin="round" stroke-width="2"/>
      <path id="Path_1128" data-name="Path 1128" d="M582.046,1525.225l19.577,4.033h38.463l16.046-13.462-16.046,13.462-13.891,13.7-9.354,27.013" transform="translate(-627.8 -1452.801)" fill="none" stroke="#fff" stroke-linecap="round" stroke-linejoin="round" stroke-width="2"/>
      <path id="Path_1129" data-name="Path 1129" d="M699.893,1514.073l-61.273.606" transform="translate(-596.742 -1453.747)" fill="none" stroke="#fff" stroke-linecap="round" stroke-linejoin="round" stroke-width="2"/>
      <path id="Path_1130" data-name="Path 1130" d="M658.08,1489.967l-6.957,11.15" transform="translate(-589.878 -1466.981)" fill="none" stroke="#c8c29d" stroke-linecap="round" stroke-linejoin="round" stroke-width="2"/>
      <path id="Path_1134" data-name="Path 1134" d="M585.2,1506.909l-.443,7.314" transform="translate(-626.311 -1457.68)" fill="none" stroke="#c8c29d" stroke-width="2"/>
      <path id="Path_1135" data-name="Path 1135" d="M630.216,1516.124l13.762-1.676" transform="translate(-601.356 -1453.542)" fill="none" stroke="#fff" stroke-linecap="round" stroke-linejoin="round" stroke-width="2"/>
      <path id="Path_1137" data-name="Path 1137" d="M681.735,1518.651l8.429,12.625-6.6,15.022" transform="translate(-573.074 -1451.234)" fill="none" stroke="#c8c29c" stroke-linecap="round" stroke-linejoin="round" stroke-width="2"/>
      <path id="Path_1138" data-name="Path 1138" d="M686.272,1540.369l-9.566-11" transform="translate(-575.834 -1445.352)" fill="none" stroke="#c8c29c" stroke-linecap="round" stroke-width="2"/>
      <path id="Path_1139" data-name="Path 1139" d="M842.749,1639.256,680.135,1536.863" transform="translate(-573.952 -1441.236)" fill="none" stroke="#fff" stroke-linecap="round" stroke-linejoin="round" stroke-width="2"/>
      <path id="Path_1141" data-name="Path 1141" d="M684.395,1548.35l43.937,27.016-32.39,51.368-37.073-22.159" transform="translate(-585.626 -1434.93)" fill="none" stroke="#fff" stroke-linecap="round" stroke-linejoin="round" stroke-width="2"/>
      <path id="Path_1142" data-name="Path 1142" d="M719.463,1575.326l-44.3-27.011" transform="translate(-576.682 -1434.949)" fill="none" stroke="#fff" stroke-linecap="round" stroke-linejoin="round" stroke-width="2"/>
      <path id="Path_1143" data-name="Path 1143" d="M713.862,1582.76l-42.293-25.7" transform="translate(-578.654 -1430.147)" fill="none" stroke="#fff" stroke-linecap="round" stroke-linejoin="round" stroke-width="2"/>
      <path id="Path_1144" data-name="Path 1144" d="M706.674,1591.036l-38.749-23" transform="translate(-580.654 -1424.122)" fill="none" stroke="#fff" stroke-linecap="round" stroke-linejoin="round" stroke-width="2"/>
      <path id="Path_1145" data-name="Path 1145" d="M695.269,1592.3l-16.975-11.052" transform="translate(-574.963 -1416.868)" fill="none" stroke="#fff" stroke-linecap="round" stroke-linejoin="round" stroke-width="2"/>
      <path id="Path_1146" data-name="Path 1146" d="M682.255,1588l-18.106-11.018" transform="translate(-582.728 -1419.21)" fill="none" stroke="#fff" stroke-linecap="round" stroke-linejoin="round" stroke-width="2"/>
      <path id="Path_1165" data-name="Path 1165" d="M723.932,1526.791l17.255,5.514,11.855,12.544v12.439l7.574,10.747v8.813" transform="translate(-549.909 -1446.765)" fill="none" stroke="#c8c29c" stroke-linecap="round" stroke-linejoin="round" stroke-width="2"/>
      <path id="Path_1166" data-name="Path 1166" d="M758.274,1526.791l-15.307,1.9-6.6,5.368" transform="translate(-543.081 -1446.765)" fill="none" stroke="#c8c29c" stroke-linecap="round" stroke-linejoin="round" stroke-width="2"/>
      <path id="Path_1167" data-name="Path 1167" d="M719.553,1562.7l7-14.742V1527.1" transform="translate(-552.313 -1446.596)" fill="none" stroke="#c8c29c" stroke-linecap="round" stroke-linejoin="round" stroke-width="2"/>
      <path id="Path_1168" data-name="Path 1168" d="M752.9,1549.893l-14.488-8.708-14.187-.955" transform="translate(-549.75 -1439.388)" fill="none" stroke="#c8c29c" stroke-width="2"/>
      <path id="Path_1169" data-name="Path 1169" d="M726.645,1565.782l-7.654-6.029.7-6.373,10.107-.9,4.966-7.693,16.477,9.7-.866,6.091H737.4l-2.635,5.2Z" transform="translate(-552.621 -1436.884)" fill="#d1e0a8" stroke="#c8c29c" stroke-linecap="round" stroke-linejoin="round" stroke-width="2"/>
      <path id="Path_1170" data-name="Path 1170" d="M709.9,1568.039l-6.441,13.31,11.993,9.388v7.026l21.82,16.917,13.995-21.172-21.028-12.16-20.338-13.31" transform="translate(-562.695 -1424.122)" fill="#d1e0a8" stroke="#fefcf7" stroke-linecap="round" stroke-linejoin="round" stroke-width="2"/>
      <path id="Path_1171" data-name="Path 1171" d="M757.29,1582.886l-16.281,24.082,18.079,12.933,10.462-16.629,3.875-10.56Z" transform="translate(-540.534 -1415.971)" fill="#d1e0a8" stroke="#fff" stroke-width="2"/>
      <path id="Path_883" data-name="Path 883" stroke="#7e20ff" d="M3651.348-756.753s-25.5-9.036-35.4-18.917-4.85-10.367-4.215-20.608-.523-3.655-3.932-28.6c-1.853-13.559.747-42.5,0-52.821-.5-6.882-6.207-9.608-7.142-13.816-2.5-11.277-.641-12.655,3.21-15.991,5.081-4.4,8.9,4.839,18.315,7.647s12.611-2.434,20.74,1.828,3.19,10.573,11.776,15.218c2.841,1.538,8.138-.811,11.374,0,5.171,1.3,7.925,4.576,11.191,3.363,4.882-1.813,8.47-10.226,8.47-10.226" fill="none" transform="translate(-3382.764 953.899)" stroke-linecap="round" stroke-linejoin="round" stroke-width="4" stroke-dasharray="8"/>
      <path id="Path_1175" data-name="Path 1175" d="M631.948,1531.238l3.623,22.581" transform="translate(-600.405 -1444.324)" fill="none" stroke="#c8c29d" stroke-linecap="round" stroke-linejoin="round" stroke-width="2"/>
      <path id="Path_1177" data-name="Path 1177" d="M665.525,1542.273l13.564,4.707" transform="translate(-581.972 -1438.266)" fill="none" stroke="#c8c29d" stroke-linecap="round" stroke-width="2"/>
      <path id="Path_1176" data-name="Path 1176" d="M656.894,1542.643l-3.611,7.1" transform="translate(-588.693 -1438.063)" fill="none" stroke="#c8c29d" stroke-linecap="round" stroke-linejoin="round" stroke-width="2"/>
      <path id="Path_1181" data-name="Path 1181" d="M668.028,1568.47l-10.228-5.053-8.976,7.716,10.722,8.029Z" transform="translate(-591.14 -1426.659)" fill="#d1e0a8"/>
      <path id="Path_885" data-name="Path 885" stroke="#7e20ff" d="M3672.042-935.666s-5.352,17.805-23.571,22.949c-7.925,2.237-19.442-4.122-29.083-5.062a44.756,44.756,0,0,0-20.223,2.686s-9.754,2.484-21.221,23.6-10.5,42.934-25.349,59.577-67.735-2.718-81.326,7-7.078,38.855-7.078,38.855" fill="none" transform="translate(-3457.91 939.084)" stroke-linecap="round" stroke-linejoin="round" stroke-width="4" stroke-dasharray="8"/>
      <path id="Path_1183" data-name="Path 1183" d="M633.642,1576.336l7.529-3.966-3.092-7.883-5.916,4.168Z" transform="translate(-600.287 -1426.071)" fill="#d1e0a8"/>
      <path id="Path_1178" data-name="Path 1178" d="M625.2,1551.785l22.8,21.1,6.618,10.272v13.236" transform="translate(-604.109 -1433.044)" fill="none" stroke="#c8c29d" stroke-linecap="round" stroke-linejoin="round" stroke-width="2"/>
      <path id="Path_1179" data-name="Path 1179" d="M621.14,1566.98l18.018,9.072,17.062-11.928,4.04-13.638-4.04,13.638-11.544-13.638" transform="translate(-606.338 -1433.758)" fill="none" stroke="#c8c29d" stroke-linecap="round" stroke-linejoin="round" stroke-width="2"/>
      <path id="Path_1180" data-name="Path 1180" d="M645.116,1583.709l15.939-14.279V1564.6l15.5,1.64-3.947,8.463s-11.6-5.189-11.552-5.277,11.552,5.277,11.552,5.277l-9.56,10.784-11.941-6.717,11.941,6.717,9.56,8.112-21.5-14.829,3.423-4.067-12.019-10.1" transform="translate(-594.607 -1433.321)" fill="none" stroke="#c8c29d" stroke-linecap="round" stroke-linejoin="round" stroke-width="2"/>
      <path id="Path_1182" data-name="Path 1182" d="M632.256,1568.28l1.008,7.97,7.494-3.817-2.5-7.79" transform="translate(-600.236 -1425.986)" fill="none" stroke="#c8c29d" stroke-linecap="round" stroke-linejoin="round" stroke-width="2"/>
      <path id="Path_1185" data-name="Path 1185" d="M597.883,1539.831l13.983,28.778,27.689,22.422,38.309,13.947,16.663,4.293,68.091,43.449" transform="translate(-619.106 -1439.607)" fill="none" stroke="#fff" stroke-linecap="round" stroke-linejoin="round" stroke-width="2"/>
      <path id="Path_1186" data-name="Path 1186" d="M716.206,1665.951,645.7,1580.218" transform="translate(-592.858 -1417.436)" fill="none" stroke="#fff" stroke-linecap="round" stroke-linejoin="round" stroke-width="2"/>
      <path id="Path_1187" data-name="Path 1187" d="M687.176,1660.972l7.132-9.1,27.467-35.039-7.924,14.3,20.433,10.532-27.155,7.347-12.822,2.863" transform="translate(-573.184 -1399.861)" fill="none" stroke="#fff" stroke-linecap="round" stroke-linejoin="round" stroke-width="2"/>
      <path id="Path_1191" data-name="Path 1191" d="M760.2,1720.485l-6.659-49.634-19.455-21.042,6.931-7.227" transform="translate(-544.332 -1383.2)" fill="none" stroke="#fff" stroke-linecap="round" stroke-linejoin="round" stroke-width="2"/>
      <path id="Path_1188" data-name="Path 1188" d="M756.743,1722.172l-4-40.413-14.588-24.988-12.429-14.908-4.074,2.423-7.751-4.776" transform="translate(-555.417 -1384.886)" fill="none" stroke="#fff" stroke-linecap="round" stroke-linejoin="round" stroke-width="2"/>
      <path id="Path_1189" data-name="Path 1189" d="M758.463,1697.576l-13.216-.406-39.9-60.99" transform="translate(-560.113 -1386.714)" fill="none" stroke="#fff" stroke-linecap="round" stroke-linejoin="round" stroke-width="2"/>
      <path id="Path_1190" data-name="Path 1190" d="M798.81,1692.488l-69.563,9.284-17.366-10.383v-12.852l19.573-12.972" transform="translate(-556.525 -1370.583)" fill="none" stroke="#fff" stroke-linecap="round" stroke-linejoin="round" stroke-width="2"/>
      <path id="Path_1192" data-name="Path 1192" d="M746.745,1660.882l32.439,33.809" transform="translate(-537.385 -1373.153)" fill="none" stroke="#fff" stroke-linecap="round" stroke-linejoin="round" stroke-width="2"/>
      <path id="Path_1193" data-name="Path 1193" d="M684.786,1645.322,704.125,1682" transform="translate(-571.398 -1381.696)" fill="none" stroke="#fff" stroke-linecap="round" stroke-linejoin="round" stroke-width="2"/>
      <path id="Path_1194" data-name="Path 1194" d="M693.079,1658.772l6.944-2.743,8.383,16.264" transform="translate(-566.846 -1375.818)" fill="none" stroke="#fff" stroke-linecap="round" stroke-linejoin="round" stroke-width="2"/>
      <path id="Path_1195" data-name="Path 1195" d="M712.9,1640.6l-13.407,10.082,14.716,24.462" transform="translate(-563.326 -1384.287)" fill="none" stroke="#fff" stroke-linecap="round" stroke-linejoin="round" stroke-width="2"/>
      <path id="Path_882" data-name="Path 882" stroke="#7e20ff" d="M3524.238-759a82.252,82.252,0,0,0,22.167-6.567c8.16-3.706,16.584-11.7,26.281-13.068,22.6-3.193,28.791-.481,41.964,6.865s11.078,13.834,19.082,18.472,12.982-.8,12.982-.8" fill="none" transform="translate(-3424.091 1024.563)" stroke-linecap="round" stroke-linejoin="round" stroke-width="4" stroke-dasharray="8"/>
      <path id="Path_1197" data-name="Path 1197" stroke="#142d4c" d="M762.585,1289.16l-29.9,65.2-51.007,75.282v54.6l15.611,39.722,48.115,42.929" fill="none" transform="translate(-573.106 -1577.217)" stroke-linecap="round" stroke-linejoin="round" stroke-width="2" stroke-dasharray="10"/>
      <path id="Path_881" data-name="Path 881" d="M3762.94-1153.314c4.8-2.883,23.954,4.239,26.753,7.081s-4.264,2.231,8.461,8.174,42.439,15.6,42.439,15.6l7.837-30.854s-40.522-48.275-69.322-80.052-37.9-46.709-45.876-47.055c-20.423-.9-48.538,13.073-60.086,22.163-15.69,12.35,2.475,17.2,0,24.892,0,0,.481,5.9-9.9,5.9s-13.739-9.568-31.619-5.9-34.238,8.688-60.544,35.823-27.364,40.252-41.268,72.45-14.349,56.342-14.349,56.342-13.927,38.312-34.557,64.719-47.961,40.909-47.961,40.909H3421.76s-15.393,19.4-22.36,37.574-.627,20.91-5.51,35.125-1.688,9.592-14.433,21.688-20.425,11.956-36.545,26.694c-10.655,9.741-17.137,20.955-22.434,30.245-12.951,22.714,7.175,21.7,7.175,33.916s-7.175,14.961-7.175,14.961-6.016.592-7.32,2.483.275,3.811,2.1,5.082,5.215,0,5.215,0,13.424,16.053,19.984,21.862,3.9,1.253,10.361,4.878,15.485,9.622,15.485,9.622,49.012,6.828,78.5,29.941,40.712,60.544,40.712,60.544,38.625,15.268,53.553,26.142-5.653,5.081,15.172,26.645c8.33,8.626,19,14.534,28.414,21.868,13.224,10.3,25.527,22.015,39.715,37.743,23.645,26.213,10.264,21.493,17.436,35.949s15.864,19.472,24.628,36.925,3.867,18.843,10.428,32.89,9.088,22.456,19.438,23.412,12.071-13.224,30.98-19.048,24.487-1.406,41.035-4.364,20.589-1.578,24.873-6.371-5.8-5.923-7.74-12.553-1.73-7.582,0-13.967,12.058-2.74,6.921-11.82-27.467-24.5-27.467-24.5l33.447-25.649s37.071,1.479,39.171-4.271-23.76-15.84-25.4-40.418,14.159-38.285,19.045-56.243-1.58-12.472,4.077-28.537c1.974-5.607,5.527-9.708,8.442-14.321,4.694-7.434,8.841-14.173,10.105-21.4,1.943-11.1-7.626-16.392-7.626-16.392v-30.837s-.608-17.626,7.626-39.293,14.6-19.466,21.438-39.046,5.773-26.574,5.9-39.276-17.076-6.654-31.716-13.325-27.545-21.3-27.545-21.3l12.052-86.467s-74.954-45.3-113.226-65.464-36.688-12.593-39.862-15.209-2.842-10.464-2.842-10.464-.7-4.525-6.216-6.935-15.382,3.09-15.847-2.7,4.94-26.5,13.157-31.08,28.388-1.276,38.308-8.553-2.434-15.489,1.373-20.553,8.125,3.782,20.213,1.449,19.146-1.417,28.137-10.783S3758.145-1150.43,3762.94-1153.314Z" transform="translate(-3540.23 749.803)" fill="none" stroke="#142d4c" stroke-linejoin="round" stroke-width="4"/>
      <path id="Path_891" data-name="Path 891" stroke="#207dff" d="M3657.454-1083.1a49.342,49.342,0,0,0-14.42,11.7c-4.581,5.439-4.363,12.375-9.736,14.863-12.437,5.76-15.7-3.524-25.589-3.524s-13.371-1.468-15.426,7.23,4.415,20.361,1.616,25.645-7.457-7.508-12.81-4.51-8.6,16.5-8.6,16.5" fill="none" transform="translate(-3400.702 864.345)" stroke-linecap="round" stroke-linejoin="round" stroke-width="4" stroke-dasharray="8"/>
      <path id="Path_890" data-name="Path 890" stroke="#207dff" d="M3444.115-1143.047s17.249,14.4,33.07,16.636,21.121-9.066,30.215-7.682-2.753,9.792,6.1,13.42,21.59-2.75,32.247,0,2.47,7.532,7.21,11,12.984-4.046,15.525,2.873-5.985,13.96-5.364,24.8,5.24,2.578,6.209,15.692-2.948,43.491-2.948,43.491" fill="none" transform="translate(-3468.076 828.336)" stroke-linecap="round" stroke-linejoin="round" stroke-width="4" stroke-dasharray="8"/>
    </g>
  </g>
</svg>
