<svg xmlns="http://www.w3.org/2000/svg" xmlns:xlink="http://www.w3.org/1999/xlink" width="287.424" height="219.05" viewBox="0 0 287.424 219.05">
  <defs>
    <clipPath id="clip-path">
      <path id="Path_1465" data-name="Path 1465" d="M-909.067-1680.79s16.162-1.937,25.848-3.96,6.408-1.692,12.894-4.133,4.11-1.033,13.05-5.632,22.593-13.839,22.593-13.839a73.358,73.358,0,0,1,29.667-9.93c17.82-2.052,23.815-2.024,42.753,1.754s33.238,16.368,33.238,16.368,3.526,1.842,12.4,9.72c3.495,3.1,5.455,8.381,8.258,12.034a25.858,25.858,0,0,0,14.828,9.757c10.6,2.777,8.092-10.935,27.217-.6s29.294,29.26,41.323,43.736c2.827,3.4,2.269,6.2,2.067,8.325-.488,5.6-10.553,4.293-12.245,8.153-1.535,3.5-10.746,14.153-3.093,28.223,3.164,5.817,12.583,10.694,16.274,19.27s-22.331,15.132-22.331,15.132-24.661,2.749-44.419,5.457-23.582-1.343-39.186,1.771-19.518,1.768-34.919,12.508-19.355,17.5-32.271,25.11c-3.694,2.177-7.712,0-7.712,0s-6.137-1.987-12.487-3.678a81,81,0,0,1-15.376-5.792l-16.9-32.641-9.013-37.886-19.208-36.97-32.457-46.709Z" transform="translate(913.949 1723.105)" fill="#fff"/>
    </clipPath>
  </defs>
  <g id="La_Alby" data-name="La Alby" transform="translate(-675.933 -1634.354)">
    <g id="Mask_Group_11" data-name="Mask Group 11" transform="translate(671.051 1630.895)" clip-path="url(#clip-path)">
      <path id="Path_1068" data-name="Path 1068" d="M533.847,1379.568l.342,42.782L561,1441.042l13.946,33.719,24.035,6.759v11.17l28.344-5.123,5.989,13.427H651.6l12.849,6.833h19.325l14.595,5.721-6.944,18.672,17.807,19.513-5.846,18.59,5.846,13.667-25.459,9.161H669.593L642.9,1577.7H624.226l-4.572,3.129v12.327l44.792,31.64,11.619-4.361h7.706l14.595,17.736-22.3,16.891-11.619-4.9-24.369,23.288h35.988L716,1698.588v-43.529l57.33-25.455,18.424-9.172,5.473,9.172,62.96,20.556h37.569l37.686,42.055,18.837,20.052,6.386,24.763-25.223,17.732,9.326,11.532,51.318-11.532,30.369,11.532h37.007l8.319,12.948,31.482,10.054,43.71-10.054,5.23,10.054h-11.32l6.09,17.618H1122.8l9.2,32.457,14.976,11.5v36.141h11.748v-92.968h15.72v-14.807l45.994-8.76,13.439,14.748-5.63,17.067,25.686,4.616,27.7-4.616,25.939,4.616,6.814-17.618v-14.08l-14.3-20.453v-67.14l14.3-62.9,48.959-72.986V1481.52l-63.262-11.839-66.2-55.627-52.658-20.749-69.759,20.749-85,38.756-112.119,16.871-175.8-55.627-139.552-20.749Z" transform="translate(-918.042 -2083.329)" fill="#d1e0a8"/>
      <path id="Path_1173" data-name="Path 1173" d="M777.463,1679.983l-13.212-20.647-71.171,38.637,45.159,56.912,4.7-10.107h7.907L747,1709.137l3.841-11.164Z" transform="translate(-631.397 -1579.696)" fill="#d1e0a8"/>
      <path id="Path_1108" data-name="Path 1108" d="M590.85,1528.146l24.653,19.26,26.259,38.761,41.856-18.315v18.315l18.081-5.882,75.223,4.256,28.093-1.662,30.25-7.474L823.006,1604.8l-15.685-12.22H771.006l-36.4-4.716-35.408,1.746-14.372,10.067v43.657l-25.074-15.27-23.061-25.815-14.2-30.887-37.962-32.674Z" transform="translate(-826.81 -1815.862)" fill="#d1e0a8"/>
      <path id="Path_1109" data-name="Path 1109" d="M709.667,1696.754l-18.079-33.364-28.478-24.963L590.1,1607.3l-32.6-22.144-10.856-24.237,6.555-20.2,32.665-17.465,45.84-6,37.866,8.227,24.584,17.663v-43.493l72.739-33.179,70.355,27.818h38.206L933.142,1559l3.538,22.55-25.223,18.573,12.637,11.354,49-13.06,30.41,13.06h37.4l8.862,13.556,31.1,8.5,43.228-8.5,2.873,8.5h-8.875l3.577,16.916h-21.612l8.889,33.289,12.723,8.636,2.426,37.977,7.8,2.574,6.918-2.574-3.953-29.44,1.787-62.8h14.753v-15.205l45.847-8.906,13.332,15.757-5.377,16.587,29.13,6.048,20.35-6.048,27.568,4.1-24.318,44.918-5.088,44.494-12.573,38.195-17.175,34.931-7.321,40.444,19.481,43.9,27.629,24.2-6.032,7.941-61.518,4.125-25,13.924-30.064,24.072-7.55,6.889,45.6,39.029,4.244,14.245-12.23,9.422-4.907,14.4,4.907,21.173,14.295,9.851-7.692,11.127-71.548,8.233-27.413,2.725-11.458,2.75-16.3,5.677-12.089,8.2-5.948,6.648-29.969-31.334,3.523-9.516,8.512,2.341-4.085-39.582,5.262-9.362,11.973-6.577,13.6-11.057-13.6-21.368-62.334,35.218-8.156,3.784-28.629-37.068-22.99-36.548-4.175-27.573-63.608-71.556,7.541-12.038,14.24,14.225h8.171l33.658,39.869,7.3,1.667,23.529,39.213,2.635,11.18,25.626-11.18,13.783-13.907-2.621-6.982h-6.156l17.649-19.992,16.483,9.259v8.188h29.535l12.124-15.78-155.953-97.47-43.969-26.041-61.912-13.921-25.342-24.707v-42.2l16.376-11.009,27.707-1.693,33.381,4,23.183,2.935h21.626l14.942,14.445,12.53-30.621-24.932,3.633H841.061l-47.433-3.633-42.317,7.54,2.495-20.537Z" transform="translate(-895.008 -1926.879)" fill="#f3e2ac" stroke="#c8c29d" stroke-linecap="round" stroke-linejoin="round" stroke-width="2"/>
      <path id="Path_1172" data-name="Path 1172" d="M633.548,1575.741l-18.842-9.062v33.17l25.033,33.744,59.88,44.448,15.642,14.748,8.558-12.569,13.137,12.569,10.519,3.536,29.572,36.5,11.333,4.037,22.317,41.984,40.236-17.342v-7.383h-7.826l18.088-21.3,15.352,10.682v8.216l30.709-2.243,11.29-12.618L719.98,1614.234l-59.611-14.385Z" transform="translate(-772.481 -1746.495)" fill="#eaeaea"/>
      <path id="Path_1133" data-name="Path 1133" d="M576.894,1504.148l1.341,16.9,21.479,3.417V1512.4Z" transform="translate(-840.551 -1859.062)" fill="#d1e0a8"/>
      <path id="Path_1132" data-name="Path 1132" d="M628.463,1528.02l29.016.29-2.143-21.09H628.463Z" transform="translate(-747.717 -1853.536)" fill="#d1e0a8"/>
      <path id="Path_1131" data-name="Path 1131" d="M702.251,1508.681l-6.038,5.993h-8.529l-10.216,8.255-25.649,3.824,20.478-44.636,17.985,8.953,2.425,12.572Z" transform="translate(-705.674 -1898.724)" fill="#d1e0a8"/>
      <path id="Path_1102" data-name="Path 1102" d="M695.264,1600.686l-28.728-4.37-43.888-17.294L588.584,1555l-11.816-25.205,5.865-17.889,34.49-21.935,1.514-6.044-32.456,6.044-19.063-3.479,3.729,30.455H544.754l3.031,5.911L528.175,1534.4l58.006,33.532,36.467,35.742,30.1,53.9,30.583-41.941Z" transform="translate(-928.253 -1895.466)" fill="#d1e0a8"/>
      <path id="Path_1147" data-name="Path 1147" d="M748.673,1548.75l-77.229,119.274" transform="translate(-670.344 -1778.771)" fill="none" stroke="#fff" stroke-linecap="round" stroke-width="2"/>
      <path id="Path_1148" data-name="Path 1148" d="M682.631,1702.546,773.145,1562.4l-30.185-20.9-4.212,4.578,12.673,8.517,2.644-1.851-11.1-6.666" transform="translate(-650.205 -1791.82)" fill="none" stroke="#fff" stroke-linecap="round" stroke-linejoin="round" stroke-width="2"/>
      <path id="Path_1149" data-name="Path 1149" d="M901.03,1731.24,682.4,1598.767" transform="translate(-650.622 -1688.733)" fill="none" stroke="#fff" stroke-linecap="round" stroke-width="2"/>
      <path id="Path_1150" data-name="Path 1150" d="M903.239,1740.1,711.526,1621.381l12.407-17.754-29.686-19.8" transform="translate(-629.295 -1715.621)" fill="none" stroke="#fff" stroke-linecap="round" stroke-linejoin="round" stroke-width="2"/>
      <path id="Path_1151" data-name="Path 1151" d="M707.62,1645.548l28.172-47.2" transform="translate(-605.22 -1689.488)" fill="none" stroke="#fff" stroke-linecap="round" stroke-linejoin="round" stroke-width="2"/>
      <path id="Path_1152" data-name="Path 1152" d="M704.771,1590.85l36.257,20.977" transform="translate(-610.349 -1702.984)" fill="none" stroke="#fff" stroke-linecap="round" stroke-width="2"/>
      <path id="Path_1153" data-name="Path 1153" d="M717.681,1666.053l34.671-55.907L740.023,1601l67.826,43.513,81.326,51.388,10.6-10.469-14.422-9.188,21.815-31.73-71.607-48.668" transform="translate(-587.109 -1693.997)" fill="none" stroke="#fff" stroke-linecap="round" stroke-linejoin="round" stroke-width="2"/>
      <path id="Path_1154" data-name="Path 1154" d="M737.315,1696.837l65.027-100.511" transform="translate(-551.764 -1693.126)" fill="none" stroke="#fff" stroke-linecap="round" stroke-linejoin="round" stroke-width="2"/>
      <path id="Path_1155" data-name="Path 1155" d="M756.769,1602.4l100.765,62.843v16.972" transform="translate(-516.744 -1682.186)" fill="none" stroke="#fff" stroke-linecap="round" stroke-linejoin="round" stroke-width="2"/>
      <path id="Path_1156" data-name="Path 1156" d="M746.745,1701.284l64.522-98.566" transform="translate(-534.789 -1681.62)" fill="none" stroke="#fff" stroke-linecap="round" stroke-linejoin="round" stroke-width="2"/>
      <path id="Path_1157" data-name="Path 1157" d="M808.4,1607.923l-48.533,73.761" transform="translate(-511.169 -1672.249)" fill="none" stroke="#fff" stroke-linecap="round" stroke-linejoin="round" stroke-width="2"/>
      <path id="Path_1158" data-name="Path 1158" d="M828.669,1682.753l-70.75-40.911,30.912-51.09-41.95-25.3-34.7,46.63" transform="translate(-597.018 -1748.702)" fill="none" stroke="#fff" stroke-linecap="round" stroke-linejoin="round" stroke-width="2"/>
      <path id="Path_1159" data-name="Path 1159" d="M736.277,1644.234l43.359-62.275,15.28,9.707-10.972,16.4,20.964,15.052" transform="translate(-553.633 -1718.989)" fill="none" stroke="#fff" stroke-linecap="round" stroke-linejoin="round" stroke-width="2"/>
      <path id="Path_1160" data-name="Path 1160" d="M871.945,1538.576l-34.018-2.664-13.29,15.636v21.876l5.178,20.058-23.77,60.574-32.467,48.675" transform="translate(-486.484 -1801.881)" fill="none" stroke="#c8c29c" stroke-linecap="round" stroke-linejoin="round" stroke-width="2"/>
      <path id="Path_1161" data-name="Path 1161" d="M834.912,1703.492,780.4,1621.725v-47.8l4.933-15.176,3.46-21.935,34.688-4.556-34.688,4.556-26.488-10.018" transform="translate(-506.772 -1818.301)" fill="none" stroke="#c8c29c" stroke-linecap="round" stroke-linejoin="round" stroke-width="2"/>
      <path id="Path_1162" data-name="Path 1162" d="M831.28,1552.047l-59.927-17.787" transform="translate(-490.491 -1804.855)" fill="none" stroke="#c8c29c" stroke-linecap="round" stroke-linejoin="round" stroke-width="2"/>
      <path id="Path_1163" data-name="Path 1163" d="M757.827,1538.884l33.488,3.219,62.609,21.04" transform="translate(-514.838 -1796.532)" fill="none" stroke="#c8c29c" stroke-linecap="round" stroke-linejoin="round" stroke-width="2"/>
      <path id="Path_1164" data-name="Path 1164" d="M808.377,1641.646,783.531,1605.4l2.342-44.251-2.342,44.251-23.654,1.491" transform="translate(-511.148 -1756.455)" fill="none" stroke="#c8c29c" stroke-linecap="round" stroke-linejoin="round" stroke-width="2"/>
      <path id="Path_892" data-name="Path 892" d="M3367.1-602.732l77.653,26.962,91.033,5.006,152.655,44.516,64.311,14.266,72.012,9.536,91.276-15.883,94.9-42.089,31.023-10.346v-31.968h18.1l4.181-19.635h-8.381l-4.09-30.4-9.809-15.447,59.1-57.891L3986.61-789.572,3875.726-841.16l-4.451-16.9-17.521-12.929h-21.931l21.931-67.162,76-9.024V-990.6l33.6,5.18,55.733-14.033,8.729-52.991,54.04,12.983v10.782l86.379,29.226,12.548-47.436-85.336-103.283-111.831-130.277-75.932,15.639-53.936,38.594,12.486,31.281-18.978,11.113-51.3-14.836-55.019,23.849-63.391,45.148-54.335,94.277-26.055,63.253-10.684,67.885-23.947,55.792-49,77.668-59.65,57.448-40.922,6.735-35.743,65.455Z" transform="translate(-3792.59 -115.011)" fill="#b0e0a8"/>
      <path id="Path_1118" data-name="Path 1118" d="M600.8,1503.587l38.144-15.438v-17.124l9.406,77.161" transform="translate(-797.519 -1918.692)" fill="none" stroke="#c8c29d" stroke-linecap="round" stroke-linejoin="round" stroke-width="2"/>
      <path id="Path_1119" data-name="Path 1119" d="M611.466,1534.157l-3.273-58.763,3.273,62.66h22.855" transform="translate(-784.205 -1910.824)" fill="none" stroke="#c8c29d" stroke-linecap="round" stroke-linejoin="round" stroke-width="2"/>
      <path id="Path_1069" data-name="Path 1069" d="M700.441,1452.2l-7.707-11.949-42.07-18.212-31.006,5.324v40.195l16.9,13.176,30.665,6.3,21.2-11.052Z" transform="translate(-763.571 -2006.866)" fill="#f3e2ac" stroke="#c8c29d" stroke-linejoin="round" stroke-width="2"/>
      <path id="Path_1089" data-name="Path 1089" d="M568.744,1379.568l40.83,2.449v39.4l-26.282,2.513-38.115,39.976-22.728,9.555H498.357l-7.536-6.05,65.082-52.068Z" transform="translate(-995.496 -2083.329)" fill="#f3e2ac" stroke="#c8c29d" stroke-linecap="round" stroke-linejoin="round" stroke-width="2"/>
      <path id="Path_1070" data-name="Path 1070" d="M913.65,1481.686l-214.928-56.434-28.14,14.442-27.7,46.246,55.839,26.744,9.833,9.271h19.616l11.426,10.333,21.3,6.747,17.619,21.546,19.05-14.123H807l-4.639,28.635,11.123,18.782,32.107-4.372,45.354,15.381,22.71-15.381,7.569,4.372,10.647-28.1,44.56,47h18.892l4.958,12.267h21.468l15.924,33.523,12.3-10.014,20.945,10.014,25.879-28.584v-25.093l-25.879-4.262,25.879-11.119-21.46-50.469-37.663-17.08-31.741-48.672-50.783-15.153-5.5,27.81Z" transform="translate(-721.76 -2001.09)" fill="#f5e7b8" stroke="#c8c29d" stroke-linecap="round" stroke-linejoin="round" stroke-width="2"/>
      <path id="Path_1081" data-name="Path 1081" d="M3546.583-984.644v30.457l51.618,6.8-3.979,7.765-28.973,4.2,15.219,34.286,74.895,20.22h35.941l13.652-66.468-8.156-37.253-41.437-18.241-10.257-12.763-50.884,19.572Z" transform="translate(-3469.489 361.686)" fill="#eaeaea" stroke="#d1d1d1" stroke-linecap="round" stroke-linejoin="round" stroke-width="2"/>
      <path id="Path_1106" data-name="Path 1106" d="M3451.772-881.526l37.316,33.944,19.1,38.619h-46.257l-30.232-9.068-10-23.038Z" transform="translate(-3694.289 603.13)" fill="#f5e7b8" stroke="#c8c29d" stroke-linecap="round" stroke-linejoin="round" stroke-width="2"/>
      <path id="Path_1101" data-name="Path 1101" d="M509.311,1486.947l31.274,16.494-8.5,21.912-45.268-19.078-4.15-31.238Z" transform="translate(-1010.173 -1911.469)" fill="#d1e0a8"/>
      <path id="Path_1084" data-name="Path 1084" d="M797.269,1391.864l-18.907,19.179,40.793,15.258v3.749l-38.478-13.315-2.315,16.426,37.482,7.55v4.262l-33.628-6.6V1448.5l30.2,5.835v3.435l-30.2-5.808.976,10.826,79.424,10.063,8.625-24.351-52.087-37.453-8.806-10.957Z" transform="translate(-477.873 -2061.195)" fill="#fff"/>
      <path id="Path_1085" data-name="Path 1085" d="M858.452,1416.7l-12.512,14.909-35.637-2.526v7.768l26.61,8.549,1.676,7.016,11.384-4.346-1.242-4.33,9.721-.847,6.1-2.851v-21.809Z" transform="translate(-420.372 -2016.484)" fill="#fff"/>
      <path id="Path_1042" data-name="Path 1042" d="M718.73,1340.3l6.293,24.794" transform="translate(-585.222 -2154.013)" fill="none" stroke="#fff" stroke-linecap="round" stroke-linejoin="round" stroke-width="2"/>
      <path id="Path_1045" data-name="Path 1045" d="M696.882,1286.825l-27.75,25.6,14.281-5.322,31.8,35.645-14.594,7.481-43.865-31.978-30.4-11.148,28.1,13.66,2.3,14,12.383,14.087,14.281,13.779,18.663-8.664-27.536-19.2,23.941,19.2-23.941-14.746,20.347,14.746-20.347-11.221,18.873,13.641-20.2-10.449,16.794,12.138-18.678-9.225,14.251,11.2" transform="translate(-751.521 -2250.283)" fill="none" stroke="#fff" stroke-linecap="round" stroke-linejoin="round" stroke-width="2"/>
      <g id="Path_1046" data-name="Path 1046" transform="translate(-701.005 -2207.937)" fill="none" stroke-linecap="round" stroke-linejoin="round">
        <path d="M654.412,1315.032l26.006-4.684,14.548,13.878,6.465,17.526s9.829-5.119,13.105-3.581,3.276,7.3,0,9.735-10.692-2.156-13.105,0-.251,6.469,3.451,8.626,9.363-2.739,11.358,0,1.178,8.218-3.377,10.957-14.844,0-14.844,0-.12,7.507-3.052,10.01a6.557,6.557,0,0,1-8.677,0c-2.169-1.856,0-7.424,0-7.424h-5.87l-13.859,2.836-3.714-25Z" stroke="none"/>
        <path d="M 678.1585693359375 1317.867797851562 L 663.0553588867188 1320.587890625 L 669.769287109375 1346.878662109375 L 672.3969116210938 1364.571655273438 L 679.01416015625 1363.217529296875 C 679.4759521484375 1363.123046875 679.9461059570312 1363.075439453125 680.41748046875 1363.075439453125 L 686.287841796875 1363.075439453125 C 688.2306518554688 1363.075439453125 690.0631103515625 1363.896484375 691.3731689453125 1365.29248046875 C 691.814697265625 1363.9638671875 692.6513671875 1362.78125 693.7923583984375 1361.915283203125 C 695.0220947265625 1360.98193359375 696.513916015625 1360.492553710938 698.0275268554688 1360.492553710938 C 698.1830444335938 1360.492553710938 698.3390502929688 1360.497680664062 698.4947509765625 1360.508178710938 C 695.6572265625 1357.98486328125 693.8046264648438 1354.680053710938 693.4673461914062 1351.348388671875 C 693.2218017578125 1348.922729492188 693.7932739257812 1346.588745117188 695.0624389648438 1344.659545898438 C 694.990234375 1344.501342773438 694.9236450195312 1344.339965820312 694.863037109375 1344.175537109375 L 688.9593505859375 1328.171752929688 L 678.1585693359375 1317.867797851562 M 680.41748046875 1310.348388671875 L 694.9652099609375 1324.226806640625 L 701.430419921875 1341.7529296875 C 701.430419921875 1341.7529296875 708.8589477539062 1337.884033203125 712.9527587890625 1337.8837890625 C 713.568115234375 1337.883666992188 714.1076049804688 1337.971069335938 714.5357666015625 1338.172119140625 C 717.81201171875 1339.71044921875 717.81201171875 1345.473388671875 714.5357666015625 1347.906982421875 C 713.81103515625 1348.4453125 712.8834228515625 1348.640014648438 711.8526611328125 1348.640014648438 C 709.1604614257812 1348.640014648438 705.76171875 1347.3125 703.4187622070312 1347.3125 C 702.6030883789062 1347.3125 701.9158325195312 1347.473266601562 701.430419921875 1347.906982421875 C 699.016845703125 1350.0634765625 701.17919921875 1354.376220703125 704.88134765625 1356.53271484375 C 705.5877075195312 1356.944213867188 706.3658447265625 1357.098999023438 707.1757202148438 1357.098999023438 C 709.63232421875 1357.098999023438 712.3851318359375 1355.675903320312 714.3447265625 1355.67578125 C 715.1251220703125 1355.67578125 715.779541015625 1355.901489257812 716.2393798828125 1356.53271484375 C 718.2344970703125 1359.271728515625 717.4176025390625 1364.75048828125 712.8621826171875 1367.489501953125 C 711.3438110351562 1368.402465820312 709.1880493164062 1368.706787109375 706.9889526367188 1368.706787109375 C 702.5905151367188 1368.706787109375 698.0177001953125 1367.489501953125 698.0177001953125 1367.489501953125 C 698.0177001953125 1367.489501953125 697.897705078125 1374.99658203125 694.9652099609375 1377.4990234375 C 693.6060791015625 1378.658935546875 692.1085815429688 1379.142333984375 690.6771240234375 1379.142333984375 C 689.0202026367188 1379.142333984375 687.45166015625 1378.494750976562 686.287841796875 1377.4990234375 C 684.1185302734375 1375.642822265625 686.287841796875 1370.075439453125 686.287841796875 1370.075439453125 L 680.41748046875 1370.075439453125 L 666.5587158203125 1372.911376953125 L 662.84521484375 1347.906982421875 L 654.411865234375 1315.031982421875 L 680.41748046875 1310.348388671875 Z" stroke="none" fill="#fff"/>
      </g>
      <path id="Path_1062" data-name="Path 1062" d="M867.932,1362.143,814.278,1331.4l-17.49,10.347-17.851,20.4-16.28,30.711,11.047,20.269v38.144l29.563,9.853v26.3l40.017,21.712Z" transform="translate(-506.144 -2170.042)" fill="#f5e7b8"/>
      <path id="Path_1051" data-name="Path 1051" d="M619.1,1408.042l-72.071-46.12,16.159-24.4,57.927,27.358-42.669,49.764-40.721,19.389-17.836-14.393" transform="translate(-943.17 -2159.029)" fill="none" stroke="#fff" stroke-linecap="round" stroke-linejoin="round" stroke-width="2"/>
      <path id="Path_1047" data-name="Path 1047" d="M609.806,1276.981l-.706,15.911.706,17.59,8.752,9.976h26.488l-29.13,3.071v13.238l-2.984-13.238-21.2,21.835-1.743,16.468" transform="translate(-816.97 -2268.002)" fill="none" stroke="#fff" stroke-linecap="round" stroke-linejoin="round" stroke-width="2"/>
      <path id="Path_1048" data-name="Path 1048" d="M581.7,1369.6l37.228-86.557-16.1,16.766,9.577,39.025-1.906-26.451-2.187-14.931" transform="translate(-831.896 -2257.083)" fill="none" stroke="#fff" stroke-linecap="round" stroke-linejoin="round" stroke-width="2"/>
      <path id="Path_886" data-name="Path 886" stroke="#7e20ff" d="M3470.543-686.691l39.532-58.823-75.294-27.892s-34.164-23.612-39.476-43.8c-1.938-7.37,4.589-7.581,6.6-12.7,2.616-6.75,4.72-13.885,32.873-21.125,14.246-3.663,22.636-1.533,35.6-1.33,10.924.177,26.25-1.481,53.992-12.179,56.157-21.656,61.99-30.008,95.909-54.425s4.485-55.153,29.712-48.3,40.85,32.885,74.232,52.1,31.864,12.784,48.651,22.126,10.58,18.627,24.408,25.75,21.029-2.922,30.9,2.743,0,27.421,0,27.421" fill="none" transform="translate(-3742.455 447.03)" stroke-linecap="round" stroke-linejoin="round" stroke-width="4" stroke-dasharray="8"/>
      <path id="Path_888" data-name="Path 888" stroke="#7e20ff" d="M3522.6-896.878s-44.852-.281-52.306-21.2-1.037-49.82,16.124-64.339,28.726,6.115,44.336,0,18.1-24.459,18.1-24.459" fill="none" transform="translate(-3612.347 377.473)" stroke-linecap="round" stroke-linejoin="round" stroke-width="4" stroke-dasharray="8"/>
      <path id="Path_1044" data-name="Path 1044" d="M629.022,1283.788l18.015,9.156,75.9-4.908,24.013,28.175-19.652,45.432" transform="translate(-746.711 -2255.75)" fill="none" stroke="#fff" stroke-linecap="round" stroke-linejoin="round" stroke-width="2"/>
      <path id="Path_1043" data-name="Path 1043" d="M617.614,1274.826l-28.1,22.967H644.7l26.329-5.953v15.347l4.626-15.347,24.4,5.953-17.137,9.395v10.542" transform="translate(-817.829 -2271.883)" fill="none" stroke="#fff" stroke-linecap="round" stroke-linejoin="round" stroke-width="2"/>
      <path id="Path_893" data-name="Path 893" d="M3812.505-842.926l7.274,6.081,36.043-13.321,14.475,10.285,5.14-19.235-30.675-10.308,30.675-27.045-37.927-34.86-17.73-43.5-101.236,19.318v17.329l-15.791,16.163-13.431-22.3,22.8-50.818-32.136-11.529,9.334-37.107-9.334-24.145-62.934,24.145-20.777-30.455-5.4-25.69-24.05-20.133-45.756,58.873-19.926-13.051-18.994,22.011,4.212,14.57h14.782l-9.415,24.137-19.311-7.774-24.221-27.04-4.379,10.677-7.173,6.03,7.173,10.333-40.5,92.944L3509.7-865.132l28.469-31.338-17.094-20.977,4.478-17.129,12.616-9.741,85.905,43.974,7.943,63.5,70.739,23.8,57.434,7.813,4.928-7.812-35.236-8.007,22.264-21.877,30.213,21.877Z" transform="translate(-3727.389 173.746)" fill="#f5e7b8" stroke="#fff" stroke-linecap="round" stroke-linejoin="round" stroke-width="4"/>
      <path id="Path_912" data-name="Path 912" d="M3543.442-1017.294l-22.186-36.524-17.157-11.688-16.579,25.421,9.475,10.19v34.657l15.785,1.408,7.028,9.5Z" transform="translate(-3578.611 277.534)" fill="#dedede" stroke="#c8c29d" stroke-linecap="round" stroke-linejoin="round" stroke-width="2"/>
      <path id="Path_1056" data-name="Path 1056" d="M601.162,1358.117l10.616,10.442,19.069-1.817L611.777,1371l1.813,11.393,14.138,8.539,24.288-12.026,18.632,12.026-2.166,28.3,22.427-18.587,8.148,49.314-22.063,4.52v-4.52l15.7-3.206-1.786-3.837-13.915,3.837,6.782-20.53-19.324,1.406v-24.98" transform="translate(-796.864 -2121.944)" fill="none" stroke="#fff" stroke-linecap="round" stroke-linejoin="round" stroke-width="2"/>
      <path id="Path_1099" data-name="Path 1099" d="M499.862,1515.972,512.1,1483.4l39.678,25.533,45.7,13.444-21.027,11.315-37.305-11.315Z" transform="translate(-979.221 -1896.408)" fill="#f3e2ac" stroke="#c8c29d" stroke-linecap="round" stroke-linejoin="round" stroke-width="2"/>
      <g id="Path_1057" data-name="Path 1057" transform="translate(-801.503 -2094.071)" fill="none" stroke-linecap="round" stroke-linejoin="round">
        <path d="M612.268,1373.6l14.166,14.18-5.628,15.8-22.222-13.891,4.747-5.821Z" stroke="none"/>
        <path d="M 612.4694213867188 1379.462524414062 L 606.3907470703125 1386.4462890625 L 604.5516357421875 1388.701538085938 L 618.7080688476562 1397.55078125 L 621.8180541992188 1388.8203125 L 612.4694213867188 1379.462524414062 M 612.26806640625 1373.601318359375 L 626.434326171875 1387.781494140625 L 620.806640625 1403.579833984375 L 598.5849609375 1389.68896484375 L 603.33154296875 1383.868408203125 L 612.26806640625 1373.601318359375 Z" stroke="none" fill="#fff"/>
      </g>
      <path id="Path_1058" data-name="Path 1058" d="M617.253,1370.1l-10.237,37.757,26.776,12.693,22.474-14.591Z" transform="translate(-786.326 -2100.37)" fill="none" stroke="#fff" stroke-linecap="round" stroke-linejoin="round" stroke-width="2"/>
      <path id="Path_1059" data-name="Path 1059" d="M638.541,1393.083l-23.423-25.146" transform="translate(-771.74 -2104.266)" fill="none" stroke="#fff" stroke-linecap="round" stroke-linejoin="round" stroke-width="2"/>
      <path id="Path_1060" data-name="Path 1060" d="M596.169,1382.5l38.245,20.773,6.239-9.694,12.252,4.857,4.375,13.943,30.874-1.612-3.6-4.845-27.272,2.624v-5.271h27.272" transform="translate(-805.852 -2078.059)" fill="none" stroke="#fff" stroke-linecap="round" stroke-linejoin="round" stroke-width="2"/>
      <path id="Path_1174" data-name="Path 1174" d="M766.409,1753.8l-78.647-88.92,9.362,31.464,2,15.874L720.5,1757.53l16,13.823L750.463,1765Z" transform="translate(-628.522 -1550.028)" fill="#79d7f5" stroke="#c8c29d" stroke-width="2"/>
      <path id="Path_1105" data-name="Path 1105" d="M600.722,1475.036l-2.756,7.459H571.717L542.323,1507l-30.934-16.7-7.977,3.026,44.259,29.529,33.822,11.771,5.2-21.952,26.911-31.847Z" transform="translate(-972.832 -1911.469)" fill="#d1e0a8"/>
      <path id="Path_1061" data-name="Path 1061" d="M819.613,1330.545l-28.469,24.484-25.477,37.725,13.167,20.316v40.223H762.858l-3.969,29.9h27.656l29.842,7.918,34.85,22.524" transform="translate(-512.928 -2171.579)" fill="none" stroke="#fff" stroke-linecap="round" stroke-linejoin="round" stroke-width="4"/>
      <path id="Path_1095" data-name="Path 1095" d="M503.471,1464.181l25.891-24.275,12.735,9.869h24.947l29.351-13.094,35.875-38.458,25.43-2.294,27.041,17.186,10.283,23.566-10.283,34.071,4.774,25.51L676.227,1511l-27.467,3.585-5.065-9.944,8.3-3.862,17.233-17.845v-23.187l-11.526-9.97,11.526-22.45-4.518-5.576H632.27v18.157l-20.891-3.224-17.128,10.677-27.207,8.3-3.7,22.365H549.27l-11.161-22.365-15.514,4.091-19.125,14.815,7.977,8.373,30.649,3.257,14.169,21.2,37.986,14.652,9.82,5.691h20.281v13.857h-10.59l-11.842-7.119H563.344l-10.953,2.181L542.1,1548.08v14.436l19.123,2.374,18.6,13.723-21.411-4.778-6.013,4.778,27.425,25.466v28.077l-11.681,13.568L542.1,1635.149l-35.388-45.083L509,1578.613l22.1-10.055-1.735-8.173-3-14.041v-7.98l-19.649-23.78v-13.806l-13.45-4.514-5.3,25.781,15.514,30.687,16.5,21.1L506.709,1602l15.886,45.743-44.473-39.829-12.433-3.832,16.331-11.425,11.238-22.055L473.6,1541.593l-2.651-27.009Z" transform="translate(-1040.739 -2053.876)" fill="#d1e0a8"/>
      <path id="Path_911" data-name="Path 911" d="M3565.865-1043l-61.208-16.592-24.219-2.182-15,4.459L3452.41-1044.8l-9.219,21.772,15.768,21.7" transform="translate(-3658.533 278.647)" fill="none" stroke="#c8c29d" stroke-linecap="round" stroke-width="2"/>
      <path id="Path_1029" data-name="Path 1029" d="M601.174,1327.027l14.488-48.74,63.49-26.118L653.368,1244s-30.6,31.744-31.427,31.473" transform="translate(-796.842 -2327.384)" fill="none" stroke="#fff" stroke-linecap="round" stroke-linejoin="round" stroke-width="2"/>
      <path id="Path_898" data-name="Path 898" d="M3475.651-964.172l13.511-21.45,13.092-80.452-23.217-6.425-3.386,10.051-29.878-12.382-36.757,71.388" transform="translate(-3717.134 255.146)" fill="none" stroke="#c8c29d" stroke-width="2"/>
      <path id="Path_894" data-name="Path 894" d="M3414.725-1078.44l50.815,21.227s-11.88,29.3-17.1,59.746-3.793,62.043-3.793,62.043" transform="translate(-3706.858 248.649)" fill="none" stroke="#fff" stroke-linecap="round" stroke-linejoin="round" stroke-width="4"/>
      <path id="Path_895" data-name="Path 895" d="M3511.37-1024.744l-100.87-43.8" transform="translate(-3714.462 266.461)" fill="none" stroke="#fff" stroke-linecap="round" stroke-width="4"/>
      <path id="Path_896" data-name="Path 896" d="M3519.24-1020.66l-24.309,3.315-88.8-41.61" transform="translate(-3722.333 283.724)" fill="none" stroke="#fff" stroke-linecap="round" stroke-width="2"/>
      <path id="Path_1033" data-name="Path 1033" d="M663.833,1276.452l33.319,4.88,49.931,35.84,11.76,7.448,23.585-7.448" transform="translate(-684.044 -2268.957)" fill="none" stroke="#fff" stroke-linecap="round" stroke-linejoin="round" stroke-width="2"/>
      <path id="Path_1034" data-name="Path 1034" d="M735.338,1289.674l.525,21.757,22.119,27.636,12.784,44.063H754.5l-30.276,29.076v10.336l-59.1,12.475" transform="translate(-681.726 -2245.154)" fill="none" stroke="#fff" stroke-linecap="round" stroke-linejoin="round" stroke-width="2"/>
      <path id="Path_1054" data-name="Path 1054" d="M574.485,1366.329l-5.23,23.665-48.942-6.525" transform="translate(-942.406 -2107.161)" fill="none" stroke="#fff" stroke-linecap="round" stroke-linejoin="round" stroke-width="2"/>
      <path id="Path_897" data-name="Path 897" d="M3514.835-1118.552s-32.605,31.531-52.777,64.981-29.133,68.659-29.133,68.659" transform="translate(-3674.094 176.441)" fill="none" stroke="#fff" stroke-linecap="round" stroke-width="4"/>
      <path id="Path_899" data-name="Path 899" d="M3442.313-998.452h30.517l55.164-78.44-24.945-18.549-11.587-15.589" transform="translate(-3657.193 189.981)" fill="none" stroke="#c8c29d" stroke-linecap="round" stroke-linejoin="round" stroke-width="2"/>
      <path id="Path_1063" data-name="Path 1063" d="M845.7,1336.416l-36.976,25.467-11.321,28.982v84.386l-3.249-23.916-29.1-8.707" transform="translate(-501.816 -2161.01)" fill="none" stroke="#fff" stroke-linecap="round" stroke-linejoin="round" stroke-width="2"/>
      <path id="Path_1064" data-name="Path 1064" d="M832.746,1375.984l-23.214,6.477H776.057" transform="translate(-482.021 -2089.781)" fill="none" stroke="#fff" stroke-linecap="round" stroke-linejoin="round" stroke-width="2"/>
      <path id="Path_1065" data-name="Path 1065" d="M786.18,1342.378l5.564,43.849-5.564,34.689,11.394,19.673" transform="translate(-463.799 -2150.277)" fill="none" stroke="#fff" stroke-linecap="round" stroke-linejoin="round" stroke-width="2"/>
      <path id="Path_1066" data-name="Path 1066" d="M849.071,1406.9l-59.746-11.23-19.113-19.5,33.213-43.811" transform="translate(-492.542 -2168.32)" fill="none" stroke="#fff" stroke-linecap="round" stroke-linejoin="round" stroke-width="2"/>
      <path id="Path_1067" data-name="Path 1067" d="M787.512,1352.3l-20.523,35.145" transform="translate(-498.345 -2132.419)" fill="none" stroke="#fff" stroke-linecap="round" stroke-linejoin="round" stroke-width="2"/>
      <path id="Path_900" data-name="Path 900" d="M3465.932-1050.35l-24.312-16.137" transform="translate(-3658.441 270.167)" fill="none" stroke="#c8c29d" stroke-linecap="round" stroke-width="2"/>
      <path id="Path_901" data-name="Path 901" d="M3467.477-1031.763l-14.35-38.929" transform="translate(-3637.725 262.597)" fill="none" stroke="#c8c29d" stroke-linecap="round" stroke-width="2"/>
      <path id="Path_902" data-name="Path 902" d="M3479.042-1058.888l-21.405-17.809Z" transform="translate(-3629.608 251.786)" fill="none" stroke="#c8c29d" stroke-linecap="round" stroke-width="2"/>
      <path id="Path_1107" data-name="Path 1107" d="M597.694,1572.634l7.361-15h14.589l27.642,30.2L649,1605.2l-23.812-19.99Z" transform="translate(-805.907 -1762.785)" fill="#f5e7b8" stroke="#c8c29d" stroke-width="2"/>
      <path id="Path_903" data-name="Path 903" d="M3464.848-1004.195v-24.533l38.765-48.925,31.69-15.446h34.139" transform="translate(-3616.628 222.262)" fill="none" stroke="#c8c29d" stroke-linecap="round" stroke-linejoin="round" stroke-width="2"/>
      <path id="Path_904" data-name="Path 904" d="M3582.362-1023.8l-28.189-22.876-38.846-18.235-63.95-38.27" transform="translate(-3640.878 204.114)" fill="none" stroke="#c8c29d" stroke-width="2"/>
      <path id="Path_905" data-name="Path 905" d="M3499.691-1099.955v28.66l-7.974,24.429" transform="translate(-3568.258 209.918)" fill="none" stroke="#c8c29d" stroke-width="2"/>
      <path id="Path_907" data-name="Path 907" d="M3524.414-1089.134l-13.948,39.194-17.943,34.261" transform="translate(-3566.807 229.399)" fill="none" stroke="#c8c29d" stroke-width="2"/>
      <path id="Path_908" data-name="Path 908" d="M3489.981-1070.827l-12.561,20.343v17.294" transform="translate(-3593.994 262.355)" fill="none" stroke="#c8c29d" stroke-linecap="round" stroke-linejoin="round" stroke-width="2"/>
      <path id="Path_906" data-name="Path 906" d="M3591.251-991.817l-154.825-111.878" transform="translate(-3667.792 203.186)" fill="none" stroke="#fff" stroke-linecap="round" stroke-linejoin="round" stroke-width="4"/>
      <path id="Path_909" data-name="Path 909" d="M3487.331-1036.369l14.389-28.239Z" transform="translate(-3576.154 273.55)" fill="none" stroke="#fff" stroke-linecap="round" stroke-linejoin="round" stroke-width="4"/>
      <path id="Path_1035" data-name="Path 1035" d="M697.712,1310.53l58.394-6.759,25.049,17.68,22.965,35.093,34.606-28.579,36.607,19.042-1.9,31.343,7.407,49.762-14.98-17.253h-35.92L811.52,1421.9l-7.4,25.164,4.807,33.706-11,37.058" transform="translate(-623.057 -2219.777)" fill="none" stroke="#fff" stroke-linecap="round" stroke-linejoin="round" stroke-width="2"/>
      <path id="Path_910" data-name="Path 910" d="M3515.011-1021.564v-18.1l-56.648-16.952" transform="translate(-3628.302 287.943)" fill="none" stroke="#c8c29d" stroke-width="2"/>
      <path id="Path_913" data-name="Path 913" d="M3493.218-990.291l3.139-25.144,11-19.755" transform="translate(-3565.556 326.507)" fill="none" stroke="#c8c29d" stroke-linecap="round" stroke-width="2"/>
      <path id="Path_914" data-name="Path 914" d="M3534.857-989.245v-19.544l-40.014-18.482" transform="translate(-3562.63 340.762)" fill="none" stroke="#c8c29d" stroke-linecap="round" stroke-width="2"/>
      <path id="Path_1037" data-name="Path 1037" d="M698.151,1307.18l25.392,34.584,4.321,13.773,15.853,19.527,16.273,15.723-21,35.733-15.451-3.919" transform="translate(-622.267 -2213.639)" fill="none" stroke="#fff" stroke-linecap="round" stroke-linejoin="round" stroke-width="2"/>
      <path id="Path_915" data-name="Path 915" d="M3515.946-928.965v-14.39l58.984-92.623,31.037-22.448,12.513,22.448,22.082,13.913" transform="translate(-3524.642 284.677)" fill="none" stroke="#c8c29d" stroke-linecap="round" stroke-width="2"/>
      <path id="Path_916" data-name="Path 916" d="M3599.184-1047.969l-2.267-16.5-77.234,14.842,2.872,17.211h32.658v-8l34.94-20.269" transform="translate(-3517.915 273.806)" fill="none" stroke="#c8c29d" stroke-linecap="round" stroke-width="2"/>
      <path id="Path_917" data-name="Path 917" d="M3522.038-1031.064v-21.948" transform="translate(-3513.675 294.425)" fill="none" stroke="#c8c29d" stroke-linecap="round" stroke-width="2"/>
      <path id="Path_918" data-name="Path 918" d="M3509.133-978.684l26.092-38.176v-28.361h10.59" transform="translate(-3536.907 308.451)" fill="none" stroke="#c8c29d" stroke-linecap="round" stroke-width="2"/>
      <path id="Path_1104" data-name="Path 1104" d="M579.163,1432.526l23.862,3.326,12.273,15.553-7.007,21.543-23.649-7.591-7.842,7.591L559,1498.187v9.313H542.984l-13.637-12.954-2.06-13.846,10.632-11.068,36.56-13.646v-15.433Z" transform="translate(-929.853 -1987.995)" fill="#d1e0a8"/>
      <path id="Path_919" data-name="Path 919" d="M3612.932-993.818,3591.26-1006.7l-32.431,4.207-60.521-31.952" transform="translate(-3556.391 327.848)" fill="none" stroke="#c8c29d" stroke-linecap="round" stroke-width="2"/>
      <path id="Path_920" data-name="Path 920" d="M3557.4-1004.645l4.941-20.035-9.377-21.764" transform="translate(-3458.007 306.247)" fill="none" stroke="#c8c29d" stroke-linecap="round" stroke-width="2"/>
      <path id="Path_887" data-name="Path 887" stroke="#7e20ff" d="M3969.667-974.234s-58.857,30.825-127.342,35.824-147.068-19.212-147.068-19.212-79.023-27.972-140.044-41.928c-38.161-8.729-65.658-3.991-97.861-11.993-82.151-20.411-90.7-27.724-90.7-27.724" fill="none" transform="translate(-3793.401 319.168)" stroke-linecap="round" stroke-linejoin="round" stroke-width="4" stroke-dasharray="8"/>
      <path id="Path_921" data-name="Path 921" d="M3540.061-998.3l39.887-33.01" transform="translate(-3481.23 333.487)" fill="none" stroke="#c6bba0" stroke-linecap="round" stroke-width="2"/>
      <path id="Path_922" data-name="Path 922" d="M920,1259.772s-31.794,1.256-61.747-20.12-38.937-54.958-58.066-65.387c-27.424-14.951-87.551-27.542-87.551-27.542l6.954,27.542" transform="translate(-596.191 -2502.493)" fill="none" stroke="#fff" stroke-width="2"/>
      <path id="Path_889" data-name="Path 889" stroke="#7e20ff" d="M3775.234-934.646s-39.77-49.478-67.771-81.378-16.42-46.605-33.811-51.313-143.554,17.763-173.118,33.507-12.045,124.263-12.045,124.263" fill="none" transform="translate(-3583.345 267.491)" stroke-linecap="round" stroke-linejoin="round" stroke-width="4" stroke-dasharray="8"/>
      <path id="Path_1103" data-name="Path 1103" d="M588.059,1453.091l-25.726-7.957-12.055,17.038-10.63,11.882,7.761,16.647,24.626-8.14Z" transform="translate(-907.602 -1965.299)" fill="#fff" stroke="#fff" stroke-linecap="round" stroke-linejoin="round" stroke-width="2"/>
      <path id="Path_1026" data-name="Path 1026" d="M603.376,1239.146l71.727,21.715,41.028,8.913,67.7,22.789,4.039-29.265,11.858,24.805h22.353l19.246,13.073" transform="translate(-792.877 -2336.113)" fill="none" stroke="#fff" stroke-linecap="round" stroke-linejoin="round" stroke-width="2"/>
      <path id="Path_1024" data-name="Path 1024" d="M696.966,1197.362l.685-33.748" transform="translate(-624.4 -2472.085)" fill="none" stroke="#fff" stroke-linecap="round" stroke-width="2"/>
      <path id="Path_1015" data-name="Path 1015" d="M854.784,1378.838l-6.918-27.915-26.647-50.792-12.995-22.79-25.217-20.563-27.956,7.978-28.578-7.978H696.966l17.586-32.514,31.555-26.326,23.448-40.346,18.006-5.171v-18.745" transform="translate(-624.4 -2525.977)" fill="none" stroke="#fff" stroke-linecap="round" stroke-linejoin="round" stroke-width="2"/>
      <path id="Path_1016" data-name="Path 1016" d="M760.615,1279.286,767.553,1258l-6.939-23.077,19.453-39.633,10.271,7.064L760.615,1132.4l-13.786,35.437-23.582,11.251" transform="translate(-577.09 -2528.279)" fill="none" stroke="#fff" stroke-linecap="round" stroke-linejoin="round" stroke-width="2"/>
      <path id="Path_1017" data-name="Path 1017" d="M740.324,1248.6l57.858-39.825,8.576-4.43,20.519-10.6L802.8,1159.192v49.583" transform="translate(-546.347 -2480.045)" fill="none" stroke="#fff" stroke-linecap="round" stroke-linejoin="round" stroke-width="2"/>
      <path id="Path_1018" data-name="Path 1018" d="M620.478,1242.4l128.752-43.061,52.114-24.553,12.227,12.031,20.88-4.458-15.83,38.257,80.954,125.057" transform="translate(-762.093 -2451.973)" fill="none" stroke="#fff" stroke-linecap="round" stroke-linejoin="round" stroke-width="2"/>
      <path id="Path_1019" data-name="Path 1019" d="M805.218,1324.662l-45.746,5.721-22.865-14.2,9.641-8.027H724.126L706.7,1280.183l-24.813-15.746-8.995-49.216,51.234-24.232" transform="translate(-667.736 -2422.806)" fill="none" stroke="#fff" stroke-linecap="round" stroke-linejoin="round" stroke-width="2"/>
      <path id="Path_1020" data-name="Path 1020" d="M643.816,1177.453l-2.98,40.433,9.87,17.481-6.89,28.015v22.331L660.6,1306.13l14.437,6.71" transform="translate(-725.445 -2447.172)" fill="none" stroke="#fff" stroke-linecap="round" stroke-linejoin="round" stroke-width="2"/>
      <path id="Path_1096" data-name="Path 1096" d="M524.338,1463.273l-12.557-23.4-11.546,2.5-20.046,17.049,4.047,7.643,32.568,3.757,13.2,19.916,30.18,11.943,16.79,6.843,19.992,3.561v11.97H585.461l-12.6-5.809h-45.22L516.8,1535.565v12.119h20.332l18.871,13.869-23.026-3.988-5.343,3.988,28.368,31.151v23.023l27.335,18.77,29.134-25.425H641.01l6.418-18.567-3.736-32.939H628.524l-16.048-15.184v-14.424l9.565-8.709,37.642-12.577v-20.486l-31.159,14.058-11.882-9.5,27.049-23.674v-24.692l-11.67-8.82,11.67-22.708-2.682-5.922-33.257,2.126v17.3L587.9,1421.22l-44.214,18.657-6.549,23.4Z" transform="translate(-1014.637 -2037.678)" fill="#f3e2ac" stroke="#c8c29d" stroke-linecap="round" stroke-linejoin="round" stroke-width="2"/>
      <path id="Path_1021" data-name="Path 1021" d="M722.943,1234.334,700,1238.081l-42.574-33.129,9.092-20.867-17.7-4.026-3.735,8.37,16.184,6.884" transform="translate(-717.787 -2442.479)" fill="none" stroke="#fff" stroke-linecap="round" stroke-linejoin="round" stroke-width="2"/>
      <path id="Path_1022" data-name="Path 1022" d="M663.575,1196.761,641.1,1185.469" transform="translate(-724.962 -2432.741)" fill="none" stroke="#fff" stroke-linecap="round" stroke-linejoin="round" stroke-width="2"/>
      <path id="Path_1023" data-name="Path 1023" d="M684.242,1183.928l-4.76,19.76v15.86" transform="translate(-655.874 -2435.515)" fill="none" stroke="#fff" stroke-linecap="round" stroke-linejoin="round" stroke-width="2"/>
      <path id="Path_1077" data-name="Path 1077" d="M641.879,1479.666l49.751-56.012,214.761,61.015H946.65l-32.862,1.493,2.319,37.176,27.114,17.633-2.948-15.744v-22.908s5.948-15.788,6.377-17.65" transform="translate(-723.565 -2003.967)" fill="none" stroke="#fff" stroke-linecap="round" stroke-linejoin="round" stroke-width="2"/>
      <path id="Path_1078" data-name="Path 1078" d="M743.748,1448.522l.164,25.836" transform="translate(-540.185 -1959.199)" fill="none" stroke="#fff" stroke-linecap="round" stroke-linejoin="round" stroke-width="2"/>
      <path id="Path_1079" data-name="Path 1079" d="M829.159,1535.6l-20.5-45.956L783.1,1471.1l-33.58-6.013" transform="translate(-529.787 -1929.378)" fill="none" stroke="#fff" stroke-linecap="round" stroke-linejoin="round" stroke-width="2"/>
      <path id="Path_1080" data-name="Path 1080" d="M782.083,1498.289l11.9-3.823-3.924-9.943H775.674" transform="translate(-482.711 -1894.393)" fill="none" stroke="#fff" stroke-linecap="round" stroke-linejoin="round" stroke-width="2"/>
      <path id="Path_1025" data-name="Path 1025" d="M783.078,1197.632l-7.99-12.646H736.8" transform="translate(-552.694 -2433.613)" fill="none" stroke="#fff" stroke-linecap="round" stroke-linejoin="round" stroke-width="2"/>
      <path id="Path_1027" data-name="Path 1027" d="M619.544,1292.717l13.635-15.071,24.551,3.115-21.152-34.889-3.4-29.338" transform="translate(-763.773 -2376.818)" fill="none" stroke="#fff" stroke-linecap="round" stroke-linejoin="round" stroke-width="2"/>
      <path id="Path_1028" data-name="Path 1028" d="M679.435,1264.07l-16,4.342v-12.09L632.294,1239.2" transform="translate(-740.822 -2336.018)" fill="none" stroke="#fff" stroke-linecap="round" stroke-linejoin="round" stroke-width="2"/>
      <path id="Path_1030" data-name="Path 1030" d="M603.376,1287.284l67.941-31.594" transform="translate(-792.877 -2306.33)" fill="none" stroke="#fff" stroke-linecap="round" stroke-linejoin="round" stroke-width="2"/>
      <path id="Path_1031" data-name="Path 1031" d="M638.8,1253.608l70.1,50.938-3.1,36.955" transform="translate(-729.107 -2310.08)" fill="none" stroke="#fff" stroke-linecap="round" stroke-linejoin="round" stroke-width="2"/>
      <path id="Path_1032" data-name="Path 1032" d="M670.984,1258.822l-4.726,36.353" transform="translate(-679.68 -2306.295)" fill="none" stroke="#fff" stroke-linecap="round" stroke-linejoin="round" stroke-width="2"/>
      <path id="Path_1036" data-name="Path 1036" d="M735.639,1322.181l5.705,21.438,9.656,21.6,14.159,13.514" transform="translate(-554.781 -2186.635)" fill="none" stroke="#fff" stroke-linecap="round" stroke-linejoin="round" stroke-width="2"/>
      <path id="Path_1038" data-name="Path 1038" d="M712.449,1431.408l9.26,24.992,15.542,7.457v13.329l3.465-15.2,13-5.583h5.949v-41.9l5.551-13.243V1375.24l-24.505-28.873-9.821-18.592v-23.31" transform="translate(-596.529 -2218.526)" fill="none" stroke="#fff" stroke-linecap="round" stroke-linejoin="round" stroke-width="2"/>
      <path id="Path_1039" data-name="Path 1039" d="M711.527,1305.308l22.628,13.13,9.546,31.678-40.3,4.534" transform="translate(-612.81 -2217.01)" fill="none" stroke="#fff" stroke-linecap="round" stroke-linejoin="round" stroke-width="2"/>
      <path id="Path_1040" data-name="Path 1040" d="M755.294,1311.8l-3.536,40.435-9.049,10.6-4.77,12.358-24.022-10.441" transform="translate(-593.886 -2205.319)" fill="none" stroke="#fff" stroke-linecap="round" stroke-linejoin="round" stroke-width="2"/>
      <path id="Path_1041" data-name="Path 1041" d="M773.936,1342.049l-14.353,8.752h-21.2l-15.818-16.315" transform="translate(-578.319 -2164.486)" fill="none" stroke="#fff" stroke-linecap="round" stroke-linejoin="round" stroke-width="2"/>
      <path id="Union_2" data-name="Union 2" d="M0,229.692l3.014-18.253,25.144-30.517L59.937,189.6,65,184.249l-34.445-11.5-2.4-38.932,24.821-7.044,14.493-28.45,10.641,4.108L67.482,97.54l7.082-24.949-12.2-15.676-22-2.727L36.419,22.666,43.708,0l27,8.224V19.531l28.1-5.634,7.223,15.645,18.7-2.062,14.03,6.983H155.5l13.876,5.678L163.456,60.03l18.069,19.442L175.449,97.54l6.076,14.362-37.669,9.7L115.5,105.091,80.367,103.3l9.145,3.529v15.487l38.634,11.5L134.5,155.1l18.266-9.065,15.693,18.982-22.382,15.907-9.4-5.053-35.295,31.91-29.619-10L42.4,204.816l-17.545-7.039,5.7,32.971Z" transform="translate(-389.209 -610.126)" fill="#f3e2ac" stroke="#c8c29d" stroke-linecap="round" stroke-linejoin="round" stroke-width="2"/>
      <path id="Path_1049" data-name="Path 1049" d="M591.168,1367.568l-4.826-35.134-7.947-9.451,12.772-18.477" transform="translate(-837.848 -2218.455)" fill="none" stroke="#fff" stroke-linecap="round" stroke-linejoin="round" stroke-width="2"/>
      <path id="Path_1050" data-name="Path 1050" d="M597.534,1324.244l-9.258-7.2-15.369-2.03" transform="translate(-847.728 -2199.536)" fill="none" stroke="#fff" stroke-linecap="round" stroke-linejoin="round" stroke-width="2"/>
      <path id="Path_1052" data-name="Path 1052" d="M559.924,1368.365l-24.67-10.719" transform="translate(-915.511 -2122.791)" fill="none" stroke="#fff" stroke-linecap="round" stroke-linejoin="round" stroke-width="2"/>
      <path id="Path_1053" data-name="Path 1053" d="M540.682,1365.317l22.071,16.524" transform="translate(-905.738 -2108.983)" fill="none" stroke="#fff" stroke-linecap="round" stroke-linejoin="round" stroke-width="2"/>
      <path id="Path_1086" data-name="Path 1086" d="M775.185,1392.841l15.733,16.839-4.429,1.724-13.99-15.176-3.6,4.019,14.136,15.19" transform="translate(-494.914 -2059.434)" fill="none" stroke="#fff" stroke-linecap="round" stroke-linejoin="round" stroke-width="2"/>
      <path id="Path_1087" data-name="Path 1087" d="M770.907,1433.9l31.174,9-8.022,14.838h-12.5l-9.141-10.069Z" transform="translate(-491.293 -1985.524)" fill="#fff"/>
      <path id="Path_1055" data-name="Path 1055" d="M568.469,1366.329l-11.592,21.9" transform="translate(-876.586 -2107.161)" fill="none" stroke="#fff" stroke-linecap="round" stroke-linejoin="round" stroke-width="2"/>
      <path id="Path_1071" data-name="Path 1071" d="M654.412,1429.821l66.183,20.972,72.982,22.695,9.051-22.695,14.485,4.809-11.781,33.1-17.126,48.127,21.932-48.127,30.149,12.025-23.174,78.376-28.907-10.482" transform="translate(-701.005 -1992.865)" fill="none" stroke="#c8c29d" stroke-linecap="round" stroke-linejoin="round" stroke-width="2"/>
      <path id="Path_1072" data-name="Path 1072" d="M730.737,1442.509l-5.481,23.622,38.053,9.553" transform="translate(-573.473 -1970.024)" fill="none" stroke="#c8c29d" stroke-linecap="round" stroke-linejoin="round" stroke-width="2"/>
      <path id="Path_1073" data-name="Path 1073" d="M785.606,1442.509l-10.419,14.535,32.05,34.9H770.9l-8.141,18.764" transform="translate(-505.957 -1970.024)" fill="none" stroke="#c8c29d" stroke-linecap="round" stroke-linejoin="round" stroke-width="2"/>
      <path id="Path_1074" data-name="Path 1074" d="M804.411,1531.667l-5.917-15.849H791.48l-15.428-40.5,5.736-14.89" transform="translate(-482.031 -1937.767)" fill="none" stroke="#c8c29d" stroke-linecap="round" stroke-linejoin="round" stroke-width="2"/>
      <path id="Path_1075" data-name="Path 1075" d="M796.393,1462.651l-4.465,21.512,20.253,44.632" transform="translate(-453.45 -1933.765)" fill="none" stroke="#c8c29d" stroke-linecap="round" stroke-linejoin="round" stroke-width="2"/>
      <path id="Path_1076" data-name="Path 1076" d="M777.409,1463.31l21.2,6.561,14,37.228-16.365,3.969,16.365-3.969,7.947,20.85" transform="translate(-479.589 -1932.58)" fill="none" stroke="#c8c29d" stroke-linecap="round" stroke-linejoin="round" stroke-width="2"/>
      <path id="Path_1082" data-name="Path 1082" d="M741.913,1492.184l-1.218-59,12.792-14h16.831L767,1439.641l-25.086-3.937,23.136,1.985,3.056-17.116H753.487l-11.574,13.518,21.99,1.613,2.166-13.862H753.487l-8.589,11.341h18.076l.93-9.919H753.487l-4.53,8.329h12.591v-6.628H754.3l-2.184,4.873h8.1v-3.417H755.63v1.964H758.6" transform="translate(-545.68 -2012.011)" fill="none" stroke="#fff" stroke-linecap="round" stroke-linejoin="round" stroke-width="2"/>
      <path id="Path_1083" data-name="Path 1083" d="M907.43,1455.83l-119.859-32.147" transform="translate(-461.294 -2003.914)" fill="none" stroke="#000" stroke-linecap="round" stroke-linejoin="round" stroke-width="2"/>
      <path id="Path_1090" data-name="Path 1090" d="M489.889,1469.63l9.357,9.566,28.058-1.784,21.4-7.782,40.047-42.178,27.976-3.031v-44.827" transform="translate(-997.175 -2083.284)" fill="none" stroke="#fff" stroke-linecap="round" stroke-linejoin="round" stroke-width="2"/>
      <path id="Path_1091" data-name="Path 1091" d="M571.172,1533.192l-11.348-63.621,11.546-30.193-11.546-27.01-25.072-16.8" transform="translate(-916.414 -2054.526)" fill="none" stroke="#fff" stroke-linecap="round" stroke-linejoin="round" stroke-width="2"/>
      <path id="Path_1092" data-name="Path 1092" d="M543.443,1394.811l12.658,22.758,26.725,1.768,135.031,42.658,7.073-6.948,18.235,6.362-5.658,9.188,22.63-8.422,26.853-17.06-24.952-6.889-61.9-8.518-40.4-15.6-74.209-17.071-18.734-10.177Z" transform="translate(-900.768 -2070.205)" fill="#eaeaea" stroke="#d1d1d1" stroke-linecap="round" stroke-linejoin="round" stroke-width="2"/>
      <path id="Path_1093" data-name="Path 1093" d="M552.472,1399.992l-5.885,11.312,6.623,4.809,4.969-2.009,12.356,22.326,41.684,3.686,37.627,22.066,59.25,3.766,11.614,7.192,9.708-7.192h15.72l3.088-10.546-167.274-53.253Z" transform="translate(-895.108 -2046.562)" fill="#bcbcbc" stroke="#bcbcbc" stroke-linecap="round" stroke-linejoin="round" stroke-width="2"/>
      <path id="Path_1094" data-name="Path 1094" d="M535.1,1387.133l25.39,7.819v16.77l12.891,12.768,23.346-2.511,152.229,48.329,2.295-2.8-17.868-5.219,3.266-2.366,17.08,5.33v-2.963l-12.938-3.973" transform="translate(-915.783 -2069.711)" fill="none" stroke="#fff" stroke-linecap="round" stroke-linejoin="round" stroke-width="2"/>
      <path id="Path_1097" data-name="Path 1097" d="M488.813,1432.535l22.306,39.734v18.138l5.006,11.034-5.006,13.462-26.552-31.424-10.814-22.152,2.91-23.384Z" transform="translate(-1026.223 -1987.979)" fill="#f3e2ac" stroke="#c8c29d" stroke-linecap="round" stroke-linejoin="round" stroke-width="2"/>
      <path id="Path_1098" data-name="Path 1098" d="M480.189,1481.2l12.34-17.145,21.247,39.123-8.51,14.815Z" transform="translate(-1014.637 -1931.236)" fill="#f3e2ac" stroke="#c8c29d" stroke-linecap="round" stroke-linejoin="round" stroke-width="2"/>
      <g id="Ellipse_42" data-name="Ellipse 42" transform="translate(-355.766 -523.34)" fill="#fff" stroke="#c8c29d" stroke-linejoin="round" stroke-width="2">
        <circle cx="11.201" cy="11.201" r="11.201" stroke="none"/>
        <circle cx="11.201" cy="11.201" r="10.201" fill="none"/>
      </g>
      <path id="Path_1110" data-name="Path 1110" d="M551.707,1528.513l65.784,31.015,27.919,9.483,189.737,2.174v-15.919L822.8,1535.1H807.023l10.458-21.3,9.253-30.189L789.7,1472.313l-5.662,18.32,2.336,13.715L789.7,1540,793,1569.011" transform="translate(-885.891 -1916.372)" fill="none" stroke="#c8c29d" stroke-width="2"/>
      <path id="Path_1111" data-name="Path 1111" d="M566.395,1487.566l-1.058,73.187" transform="translate(-861.355 -1888.914)" fill="none" stroke="#c8c29d" stroke-linecap="round" stroke-linejoin="round" stroke-width="2"/>
      <path id="Path_1112" data-name="Path 1112" d="M554.188,1498.628l64.009-1.242,25.564,1.242,20.086,20.861,2.35,74.565" transform="translate(-881.426 -1871.236)" fill="none" stroke="#c8c29d" stroke-linecap="round" stroke-linejoin="round" stroke-width="2"/>
      <path id="Path_1113" data-name="Path 1113" d="M576.262,1486.75l3.537,88.174" transform="translate(-841.688 -1890.381)" fill="none" stroke="#c8c29d" stroke-linecap="round" stroke-linejoin="round" stroke-width="2"/>
      <path id="Path_1114" data-name="Path 1114" d="M576.262,1489.967,611.74,1492l28.338,16.886,17.741,28.518" transform="translate(-841.688 -1884.591)" fill="none" stroke="#c8c29d" stroke-linecap="round" stroke-linejoin="round" stroke-width="2"/>
      <path id="Path_1115" data-name="Path 1115" d="M586.925,1510.743l8.615-19.14" transform="translate(-822.494 -1881.646)" fill="none" stroke="#c8c29d" stroke-linecap="round" stroke-linejoin="round" stroke-width="2"/>
      <path id="Path_1116" data-name="Path 1116" d="M561.126,1578.96l43.924,4.66,30.5,4.234,31.623,14.831,82.509-4.126-10.675-112.978,8.331-16.112" transform="translate(-868.936 -1921.49)" fill="none" stroke="#c8c29d" stroke-linecap="round" stroke-linejoin="round" stroke-width="2"/>
      <path id="Path_1117" data-name="Path 1117" d="M584.924,1511.984l-.617,29.51" transform="translate(-827.207 -1844.957)" fill="none" stroke="#c8c29d" stroke-linecap="round" stroke-linejoin="round" stroke-width="2"/>
      <path id="Path_1136" data-name="Path 1136" d="M649.289,1514.448,648,1546.6" transform="translate(-712.548 -1840.522)" fill="none" stroke="#c8c29c" stroke-linecap="round" stroke-linejoin="round" stroke-width="2"/>
      <path id="Path_1120" data-name="Path 1120" d="M616.242,1490.042l55.434-2.054,53.115,16.788,6.017-16.788-23.675-8.692" transform="translate(-766.916 -1901.001)" fill="none" stroke="#c8c29d" stroke-linecap="round" stroke-linejoin="round" stroke-width="2"/>
      <path id="Path_1121" data-name="Path 1121" d="M660.685,1475.395,659,1498.157" transform="translate(-695.542 -1908.024)" fill="none" stroke="#c8c29d" stroke-linecap="round" stroke-linejoin="round" stroke-width="2"/>
      <path id="Path_1122" data-name="Path 1122" d="M626.252,1620.834l-8.5-123.4" transform="translate(-767.003 -1871.147)" fill="none" stroke="#c8c29d" stroke-linecap="round" stroke-linejoin="round" stroke-width="2"/>
      <path id="Path_1123" data-name="Path 1123" d="M597.692,1593.422l19.847-31.852,17.161,14.876,32.43,2.622,25.911-6.554-8.266-42.027,10.521,42.027,20.6-2.25-4.785-62.423,4.785,62.423,13.585,25.667,28.688,8.816,3.218.989L759.262,1556H738.736v31.437l-9.255,8.5-2.252,19.309s2.146-19.91,2.252-19.309l31.906,9.806,26.766-.989,3.108-25.679L783.524,1556s-23.152.254-24.262,0" transform="translate(-803.111 -1852.416)" fill="none" stroke="#c8c29d" stroke-linecap="round" stroke-linejoin="round" stroke-width="2"/>
      <path id="Path_1184" data-name="Path 1184" d="M690.115,1544.264l22.65-34.866,25.49-6.114,20.674-8.469,24.1,10.581,58.82-4.865,17.474,15.479-43.667,16.174,10.841,18.056H748.791l-32.3-13.421Z" transform="translate(-636.733 -1875.864)" fill="#79d7f5" stroke="#79d7f5" stroke-linecap="round" stroke-linejoin="round" stroke-width="2"/>
      <path id="Path_884" data-name="Path 884" stroke="#7e20ff" d="M3639.152-701.765s7.986-25.8,4.373-43.677-11.57-.629-18.826-27.829-6.755-35.195-3.142-68.3,14.557-36.065,17.595-64.122,3.561-42.89-6.077-56.458-24.759-7.944-37.57-17.034-13.674-19.328-13.674-19.328,49.665-29.254,89.9-29.254,74.987,32.936,74.987,32.936" fill="none" transform="translate(-3406.038 339.874)" stroke-linecap="round" stroke-linejoin="round" stroke-width="4" stroke-dasharray="8"/>
      <path id="Path_1140" data-name="Path 1140" d="M661.223,1672.01l25.123-69.608,27.13-65.477" transform="translate(-688.745 -1800.058)" fill="none" stroke="#fff" stroke-linecap="round" stroke-linejoin="round" stroke-width="2"/>
      <path id="Path_1124" data-name="Path 1124" d="M659.838,1497.772l14.552,21.656-6.268,21.135,2.856,33.02" transform="translate(-691.238 -1870.541)" fill="none" stroke="#c8c29d" stroke-linecap="round" stroke-linejoin="round" stroke-width="2"/>
      <path id="Path_1125" data-name="Path 1125" d="M671.179,1481.79l21.364,11.066v11.183l10.071,3.384-5.264,9.468H687.281l-10.474,7.789-25.191,2.818" transform="translate(-706.037 -1899.311)" fill="none" stroke="#c8c29d" stroke-linecap="round" stroke-linejoin="round" stroke-width="2"/>
      <path id="Path_1126" data-name="Path 1126" d="M694.239,1562.963l7.5-20.636-2.24-23.376L683.249,1500.1l-2.024-10.11-14.279-3.915" transform="translate(-678.441 -1891.6)" fill="none" stroke="#c8c29d" stroke-linecap="round" stroke-linejoin="round" stroke-width="2"/>
      <path id="Path_1127" data-name="Path 1127" d="M693.807,1592.521l-19.955-36.2-6.4-61.784" transform="translate(-677.525 -1876.36)" fill="none" stroke="#c8c29c" stroke-linecap="round" stroke-linejoin="round" stroke-width="2"/>
      <path id="Path_1128" data-name="Path 1128" d="M582.046,1532.842l35.39,7.29h69.532l29.008-24.336-29.008,24.336L661.856,1564.9l-16.91,48.833" transform="translate(-831.276 -1838.095)" fill="none" stroke="#fff" stroke-linecap="round" stroke-linejoin="round" stroke-width="2"/>
      <path id="Path_1129" data-name="Path 1129" d="M749.387,1514.073l-110.767,1.1" transform="translate(-729.433 -1841.195)" fill="none" stroke="#fff" stroke-linecap="round" stroke-linejoin="round" stroke-width="2"/>
      <path id="Path_1130" data-name="Path 1130" d="M663.7,1489.967l-12.576,20.156" transform="translate(-706.925 -1884.591)" fill="none" stroke="#c8c29d" stroke-linecap="round" stroke-linejoin="round" stroke-width="2"/>
      <path id="Path_1134" data-name="Path 1134" d="M585.557,1506.909l-.8,13.222" transform="translate(-826.396 -1854.093)" fill="none" stroke="#c8c29d" stroke-width="2"/>
      <path id="Path_1135" data-name="Path 1135" d="M630.216,1517.477l24.879-3.03" transform="translate(-744.562 -1840.522)" fill="none" stroke="#fff" stroke-linecap="round" stroke-linejoin="round" stroke-width="2"/>
      <path id="Path_1137" data-name="Path 1137" d="M681.735,1518.652l15.237,22.822-11.923,27.156" transform="translate(-651.818 -1832.954)" fill="none" stroke="#c8c29c" stroke-linecap="round" stroke-linejoin="round" stroke-width="2"/>
      <path id="Path_1138" data-name="Path 1138" d="M694,1549.257l-17.293-19.892" transform="translate(-660.872 -1813.667)" fill="none" stroke="#c8c29c" stroke-linecap="round" stroke-width="2"/>
      <path id="Path_1139" data-name="Path 1139" d="M974.1,1721.966l-293.969-185.1" transform="translate(-654.698 -1800.169)" fill="none" stroke="#fff" stroke-linecap="round" stroke-linejoin="round" stroke-width="2"/>
      <path id="Path_1141" data-name="Path 1141" d="M705.014,1548.351l79.428,48.839-58.553,92.862-67.02-40.059" transform="translate(-692.982 -1779.49)" fill="none" stroke="#fff" stroke-linecap="round" stroke-linejoin="round" stroke-width="2"/>
      <path id="Path_1142" data-name="Path 1142" d="M755.248,1597.146l-80.087-48.83" transform="translate(-663.651 -1779.553)" fill="none" stroke="#fff" stroke-linecap="round" stroke-linejoin="round" stroke-width="2"/>
      <path id="Path_1143" data-name="Path 1143" d="M748.026,1603.517l-76.457-46.454" transform="translate(-670.119 -1763.806)" fill="none" stroke="#fff" stroke-linecap="round" stroke-linejoin="round" stroke-width="2"/>
      <path id="Path_1144" data-name="Path 1144" d="M737.975,1609.613l-70.049-41.574" transform="translate(-676.677 -1744.047)" fill="none" stroke="#fff" stroke-linecap="round" stroke-linejoin="round" stroke-width="2"/>
      <path id="Path_1145" data-name="Path 1145" d="M708.98,1601.232l-30.686-19.98" transform="translate(-658.013 -1720.262)" fill="none" stroke="#fff" stroke-linecap="round" stroke-linejoin="round" stroke-width="2"/>
      <path id="Path_1146" data-name="Path 1146" d="M696.88,1596.9l-32.732-19.918" transform="translate(-683.477 -1727.942)" fill="none" stroke="#fff" stroke-linecap="round" stroke-linejoin="round" stroke-width="2"/>
      <path id="Path_1165" data-name="Path 1165" d="M723.932,1526.792l31.194,9.968,21.431,22.676v22.488l13.693,19.427v15.933" transform="translate(-575.856 -1818.301)" fill="none" stroke="#c8c29c" stroke-linecap="round" stroke-linejoin="round" stroke-width="2"/>
      <path id="Path_1166" data-name="Path 1166" d="M775.969,1526.792l-27.671,3.425-11.928,9.7" transform="translate(-553.467 -1818.301)" fill="none" stroke="#c8c29c" stroke-linecap="round" stroke-linejoin="round" stroke-width="2"/>
      <path id="Path_1167" data-name="Path 1167" d="M719.553,1591.464l12.655-26.651V1527.1" transform="translate(-583.739 -1817.746)" fill="none" stroke="#c8c29c" stroke-linecap="round" stroke-linejoin="round" stroke-width="2"/>
      <path id="Path_1168" data-name="Path 1168" d="M776.058,1557.7l-26.191-15.742-25.647-1.727" transform="translate(-575.336 -1794.108)" fill="none" stroke="#c8c29c" stroke-width="2"/>
      <path id="Path_1169" data-name="Path 1169" d="M732.827,1582.738l-13.836-10.9,1.27-11.521,18.272-1.618,8.978-13.908,29.786,17.54-1.566,11.011H752.273l-4.763,9.395Z" transform="translate(-584.751 -1785.897)" fill="#d1e0a8" stroke="#c8c29c" stroke-linecap="round" stroke-linejoin="round" stroke-width="2"/>
      <path id="Path_1170" data-name="Path 1170" d="M715.106,1568.039,703.462,1592.1l21.68,16.972v12.7l39.446,30.582,25.3-38.273L751.873,1592.1l-36.767-24.062" transform="translate(-615.506 -1744.047)" fill="#d1e0a8" stroke="#fefcf7" stroke-linecap="round" stroke-linejoin="round" stroke-width="2"/>
      <path id="Path_1171" data-name="Path 1171" d="M770.442,1582.886l-29.433,43.534,32.682,23.38,18.914-30.062,7-19.089Z" transform="translate(-545.114 -1717.321)" fill="#d1e0a8" stroke="#fff" stroke-width="2"/>
      <path id="Path_883" data-name="Path 883" stroke="#7e20ff" d="M3693.214-634.032s-46.09-16.335-63.993-34.2-8.769-18.741-7.621-37.255-.945-6.607-7.108-51.705c-3.35-24.511,1.351-76.826,0-95.489-.9-12.442-11.22-17.369-12.912-24.977-4.52-20.386-1.158-22.877,5.8-28.909,9.186-7.957,16.089,8.749,33.109,13.824s22.8-4.4,37.492,3.3,5.769,19.113,21.288,27.511c5.137,2.78,14.713-1.466,20.562,0,9.348,2.358,14.326,8.272,20.23,6.08,8.826-3.277,15.313-18.486,15.313-18.486" fill="none" transform="translate(-3374.193 554.249)" stroke-linecap="round" stroke-linejoin="round" stroke-width="4" stroke-dasharray="8"/>
      <path id="Path_1175" data-name="Path 1175" d="M631.948,1531.238l6.55,40.822" transform="translate(-741.443 -1810.297)" fill="none" stroke="#c8c29d" stroke-linecap="round" stroke-linejoin="round" stroke-width="2"/>
      <path id="Path_1177" data-name="Path 1177" d="M665.525,1542.273l24.521,8.509" transform="translate(-680.999 -1790.431)" fill="none" stroke="#c8c29d" stroke-linecap="round" stroke-width="2"/>
      <path id="Path_1176" data-name="Path 1176" d="M659.811,1542.643l-6.527,12.837" transform="translate(-703.036 -1789.765)" fill="none" stroke="#c8c29d" stroke-linecap="round" stroke-linejoin="round" stroke-width="2"/>
      <path id="Path_1181" data-name="Path 1181" d="M683.541,1572.552l-18.49-9.136-16.226,13.949,19.384,14.514Z" transform="translate(-711.063 -1752.368)" fill="#d1e0a8"/>
      <path id="Path_885" data-name="Path 885" stroke="#7e20ff" d="M3841.2-935.666s-9.675,32.188-42.61,41.486c-14.327,4.045-35.147-7.452-52.576-9.15a80.914,80.914,0,0,0-36.559,4.856s-17.633,4.49-38.361,42.656-18.985,77.615-45.825,107.7-122.449-4.913-147.019,12.647-12.795,70.242-12.795,70.242" fill="none" transform="translate(-3620.615 505.667)" stroke-linecap="round" stroke-linejoin="round" stroke-width="4" stroke-dasharray="8"/>
      <path id="Path_1183" data-name="Path 1183" d="M634.837,1585.907l13.61-7.169-5.59-14.251-10.695,7.535Z" transform="translate(-741.057 -1750.442)" fill="#d1e0a8"/>
      <path id="Path_1178" data-name="Path 1178" d="M625.2,1551.785l41.215,38.135,11.963,18.569v23.928" transform="translate(-753.589 -1773.307)" fill="none" stroke="#c8c29d" stroke-linecap="round" stroke-linejoin="round" stroke-width="2"/>
      <path id="Path_1179" data-name="Path 1179" d="M621.14,1580.3l32.573,16.4,30.844-21.562,7.3-24.655-7.3,24.655-20.869-24.655" transform="translate(-760.9 -1775.646)" fill="none" stroke="#c8c29d" stroke-linecap="round" stroke-linejoin="round" stroke-width="2"/>
      <path id="Path_1180" data-name="Path 1180" d="M647.221,1609.9l28.814-25.813v-8.723l28.017,2.965-7.134,15.3s-20.977-9.381-20.883-9.54,20.883,9.54,20.883,9.54l-17.282,19.5-21.587-12.143,21.587,12.143,17.282,14.664-38.87-26.807,6.189-7.353-21.727-18.263" transform="translate(-722.431 -1774.214)" fill="none" stroke="#c8c29d" stroke-linecap="round" stroke-linejoin="round" stroke-width="2"/>
      <path id="Path_1182" data-name="Path 1182" d="M632.256,1571.218l1.822,14.409,13.547-6.9-4.517-14.083" transform="translate(-740.89 -1750.161)" fill="none" stroke="#c8c29d" stroke-linecap="round" stroke-linejoin="round" stroke-width="2"/>
      <path id="Path_1185" data-name="Path 1185" d="M597.883,1539.831l25.279,52.024,50.055,40.533L742.47,1657.6l30.123,7.762,123.094,78.546" transform="translate(-802.767 -1794.827)" fill="none" stroke="#fff" stroke-linecap="round" stroke-linejoin="round" stroke-width="2"/>
      <path id="Path_1186" data-name="Path 1186" d="M773.163,1735.2,645.7,1580.218" transform="translate(-716.696 -1722.123)" fill="none" stroke="#fff" stroke-linecap="round" stroke-linejoin="round" stroke-width="2"/>
      <path id="Path_1187" data-name="Path 1187" d="M687.176,1696.625l12.894-16.447,49.654-63.342L735.4,1642.681l36.939,19.04L723.248,1675l-23.178,5.175" transform="translate(-647.623 -1660.775)" fill="none" stroke="#fff" stroke-linecap="round" stroke-linejoin="round" stroke-width="2"/>
      <path id="Path_1191" data-name="Path 1191" d="M781.3,1783.413l-12.038-89.727-35.17-38.039,12.529-13.064" transform="translate(-557.571 -1609.857)" fill="none" stroke="#fff" stroke-linecap="round" stroke-linejoin="round" stroke-width="2"/>
      <path id="Path_1188" data-name="Path 1188" d="M791.352,1788.944l-7.236-73.058-26.372-45.173-22.468-26.951-7.365,4.381L713.9,1639.51" transform="translate(-593.918 -1615.388)" fill="none" stroke="#fff" stroke-linecap="round" stroke-linejoin="round" stroke-width="2"/>
      <path id="Path_1189" data-name="Path 1189" d="M801.37,1747.169l-23.892-.733L705.345,1636.18" transform="translate(-609.316 -1621.381)" fill="none" stroke="#fff" stroke-linecap="round" stroke-linejoin="round" stroke-width="2"/>
      <path id="Path_1190" data-name="Path 1190" d="M869.028,1714.237l-125.754,16.783-31.394-18.77v-23.233l35.384-23.45" transform="translate(-597.551 -1568.483)" fill="none" stroke="#fff" stroke-linecap="round" stroke-linejoin="round" stroke-width="2"/>
      <path id="Path_1192" data-name="Path 1192" d="M746.745,1660.883,805.388,1722" transform="translate(-534.789 -1576.913)" fill="none" stroke="#fff" stroke-linecap="round" stroke-linejoin="round" stroke-width="2"/>
      <path id="Path_1193" data-name="Path 1193" d="M684.786,1645.322l34.959,66.3" transform="translate(-646.325 -1604.924)" fill="none" stroke="#fff" stroke-linecap="round" stroke-linejoin="round" stroke-width="2"/>
      <path id="Path_1194" data-name="Path 1194" d="M693.079,1660.989l12.554-4.959,15.154,29.4" transform="translate(-631.397 -1585.649)" fill="none" stroke="#fff" stroke-linecap="round" stroke-linejoin="round" stroke-width="2"/>
      <path id="Path_1195" data-name="Path 1195" d="M723.728,1640.6l-24.237,18.226,26.6,44.222" transform="translate(-619.854 -1613.421)" fill="none" stroke="#fff" stroke-linecap="round" stroke-linejoin="round" stroke-width="2"/>
      <path id="Path_882" data-name="Path 882" stroke="#7e20ff" d="M3524.238-742.074a148.7,148.7,0,0,0,40.073-11.871c14.751-6.7,29.98-21.149,47.511-23.625,40.86-5.771,52.047-.869,75.86,12.41s20.027,25.009,34.5,33.393,23.469-1.447,23.469-1.447" fill="none" transform="translate(-3509.714 785.969)" stroke-linecap="round" stroke-linejoin="round" stroke-width="4" stroke-dasharray="8"/>
      <path id="Path_1196" data-name="Path 1196" stroke="#142d4c" d="M500.508,1382.285l7.679,44.639L604.8,1498.81l231.737,54.91h187.524l212.726,152,150.378,186.835" fill="none" transform="translate(-978.059 -2078.437)" stroke-linecap="round" stroke-linejoin="round" stroke-width="2" stroke-dasharray="10"/>
      <path id="Path_1197" data-name="Path 1197" stroke="#142d4c" d="M827.941,1289.16l-54.057,117.859-92.209,136.093v98.706l28.22,71.809,86.981,77.606" fill="none" transform="translate(-651.925 -2246.079)" stroke-linecap="round" stroke-linejoin="round" stroke-width="2" stroke-dasharray="10"/>
      <path id="Path_1199" data-name="Path 1199" stroke="#142d4c" d="M1095.463,1825.061,902.93,1694.5l-86.959-40.685-48.817-8.954-79.108-38.793L569.562,1553.22" fill="none" transform="translate(-853.75 -1770.724)" stroke-linecap="round" stroke-linejoin="round" stroke-width="2" stroke-dasharray="10"/>
      <path id="Path_881" data-name="Path 881" d="M4126.648-1050.607c8.67-5.213,43.3,7.664,48.363,12.8s-7.708,4.033,15.3,14.777,76.721,28.2,76.721,28.2l14.167-55.777s-73.255-87.271-125.318-144.716-68.509-84.439-82.934-85.064c-36.92-1.623-87.745,23.633-108.621,40.065-28.365,22.327,4.474,31.085,0,45,0,0,.868,10.657-17.9,10.657s-24.838-17.3-57.159-10.657-61.895,15.707-109.45,64.761-49.467,72.767-74.6,130.974-25.938,101.853-25.938,101.853-25.178,69.259-62.471,117-86.7,73.954-86.7,73.954h-20.231s-27.826,35.069-40.422,67.924-1.135,37.8-9.962,63.5-3.052,17.341-26.091,39.206-36.924,21.614-66.064,48.257c-19.263,17.61-30.979,37.881-40.556,54.675-23.412,41.061,12.971,39.222,12.971,61.312s-12.971,27.046-12.971,27.046-10.875,1.07-13.232,4.489.5,6.89,3.8,9.186,9.428,0,9.428,0,24.268,29.02,36.127,39.522,7.049,2.264,18.729,8.817,27.993,17.4,27.993,17.4,88.6,12.344,141.917,54.126,73.6,109.45,73.6,109.45,69.826,27.6,96.811,47.258-10.22,9.186,27.428,48.168c15.06,15.593,34.351,26.274,51.366,39.532,23.906,18.626,46.148,39.8,71.795,68.23,42.745,47.387,18.556,38.854,31.521,64.987s28.678,35.2,44.521,66.752,6.99,34.065,18.852,59.458,16.43,40.6,35.141,42.325,21.821-23.906,56-34.435,44.267-2.543,74.182-7.89,37.221-2.852,44.964-11.516-10.494-10.707-13.992-22.693-3.127-13.706,0-25.249,21.8-4.953,12.512-21.368-49.655-44.291-49.655-44.291l60.465-46.368s67.016,2.673,70.813-7.722-42.953-28.635-45.921-73.066,25.595-69.21,34.429-101.675-2.855-22.547,7.37-51.589c3.568-10.135,9.992-17.55,15.261-25.889,8.486-13.44,15.981-25.621,18.269-38.689,3.513-20.074-13.786-29.632-13.786-29.632v-55.747s-1.1-31.864,13.786-71.032,26.4-35.19,38.756-70.586,10.438-48.039,10.661-71-30.868-12.028-57.335-24.089-49.795-38.509-49.795-38.509l21.788-156.313s-135.5-81.884-204.687-118.344-66.324-22.764-72.061-27.493-5.138-18.917-5.138-18.917-1.267-8.181-11.237-12.537-27.808,5.586-28.647-4.888,8.93-47.9,23.784-56.186,51.318-2.307,69.252-15.461-4.4-28,2.481-37.155,14.688,6.838,36.54,2.619,34.612-2.561,50.865-19.493S4117.979-1045.394,4126.648-1050.607Z" transform="translate(-3890.557 -115.026)" fill="none" stroke="#142d4c" stroke-linejoin="round" stroke-width="4"/>
      <path id="Path_891" data-name="Path 891" stroke="#207dff" d="M3726.088-1083.1a89.178,89.178,0,0,0-26.069,21.153c-8.281,9.833-7.888,22.37-17.6,26.868-22.481,10.413-28.387-6.371-46.26-6.371s-24.172-2.653-27.886,13.071,7.98,36.809,2.922,46.36-13.48-13.573-23.158-8.153-15.549,29.833-15.549,29.833" fill="none" transform="translate(-3428.457 251.465)" stroke-linecap="round" stroke-linejoin="round" stroke-width="4" stroke-dasharray="8"/>
      <path id="Path_890" data-name="Path 890" stroke="#207dff" d="M3444.115-1143.048s31.182,26.028,59.783,30.075,38.182-16.39,54.622-13.887-4.978,17.7,11.028,24.261,39.028-4.971,58.294,0,4.465,13.615,13.034,19.885,23.474-7.313,28.065,5.194-10.819,25.237-9.7,44.836,9.473,4.661,11.226,28.368-5.331,78.621-5.331,78.621" fill="none" transform="translate(-3653.949 137.944)" stroke-linecap="round" stroke-linejoin="round" stroke-width="4" stroke-dasharray="8"/>
    </g>
  </g>
</svg>
