<svg xmlns="http://www.w3.org/2000/svg" xmlns:xlink="http://www.w3.org/1999/xlink" width="298.448" height="248.452" viewBox="0 0 298.448 248.452">
  <defs>
    <clipPath id="clip-path">
      <path id="Path_1456" data-name="Path 1456" d="M-528-2233.133l-17.889,34.42-27.977,44.527-29.786,27.513-17.522,10.04H-637.6l-15.834,25.746-11.074,20.444-4.993,16.808v11.573l12.07,5,21.773,6.92,25.187,7.208,25.268,4.145,18.783,1.021,23.821,3.094,22.525,5.742,28.55,8.392,27.651,8.83,21.085,7.03-3.548-26.2-1.169-27.714,1.665-16.685,5.882-13.593,12.027-5.906,18.794-5.167,28.358-5.891,6.044-1.264,2.633-22.461,1.051-27.872-1.051-8.744-4.933-3.92-1.631-5.524.389-8.777,6.793-15.745-2.027-9.824-4.765-2.255-2.212.447-11.576-.447v-8.458l-5.972-5.132-7.441-1.264-22.721,2.624s-9.342.862-12.165-1.877.764-9.9.764-9.9v-2.149l-4.54-3.518-4.482-.4-8.511,2.243-12.872,7.639-13.234.531-12.553-4.214-15.3-8.219-10.9-8.114Z" transform="translate(669.504 2235.227)" fill="#fff"/>
    </clipPath>
  </defs>
  <g id="Stora_Ursvik" data-name="Stora Ursvik" transform="translate(-515.496 -1270.867)">
    <g id="Mask_Group_2" data-name="Mask Group 2" transform="translate(515.496 1268.774)" clip-path="url(#clip-path)">
      <path id="Path_1068" data-name="Path 1068" d="M533.847,1379.568l.223,28.028,17.528,12.246,9.117,22.091,15.713,4.428v7.318l18.53-3.356,3.915,8.8h11.952l8.4,4.477h12.634l9.541,3.748-4.539,12.233,11.642,12.784-3.822,12.179,3.822,8.954-16.643,6h-9.269l-17.449-10.126H592.932l-2.989,2.05v8.076l29.283,20.729,7.6-2.858h5.038l9.541,11.62-14.579,11.066-7.6-3.21L603.295,1572.1h23.527l26.108,16.47v-28.518l37.479-16.677,12.045-6.009,3.578,6.009,41.16,13.467h24.56l24.637,27.552,12.315,13.137,4.175,16.223-16.489,11.617,6.1,7.555,33.549-7.555,19.854,7.555h24.193l5.439,8.483L906.1,1648l28.575-6.586L938.1,1648h-7.4l3.981,11.542h-15.8l6.013,21.264,9.79,7.537v23.677h7.68v-60.907h10.277v-9.7l30.069-5.739,8.786,9.662-3.681,11.182,16.792,3.024,18.109-3.024,16.957,3.024,4.455-11.542v-9.224l-9.351-13.4v-43.986l9.351-41.209,32.007-47.816v-46l-41.358-7.756-43.281-36.444-34.425-13.593-45.6,13.593-55.57,25.391-73.3,11.053L667.66,1402.161l-91.231-13.593Z" transform="translate(-500.253 -1176.314)" fill="#d1e0a8"/>
      <path id="Path_1173" data-name="Path 1173" d="M748.244,1672.863l-8.637-13.527-46.528,25.313,29.523,37.285,3.071-6.622h5.169l-2.511-23.35,2.511-7.314Z" transform="translate(-367.994 -942.842)" fill="#d1e0a8"/>
      <path id="Path_1108" data-name="Path 1108" d="M588.661,1528.146l16.117,12.618,17.166,25.394,27.364-12v12l11.82-3.854,49.177,2.788L728.67,1564l19.776-4.9-8.014,19.255-10.254-8.006H706.437l-23.8-3.09-23.148,1.144-9.4,6.6v28.6l-16.392-10-15.076-16.913-9.282-20.235-24.817-21.406Z" transform="translate(-458.158 -1052.323)" fill="#d1e0a8"/>
      <path id="Path_1109" data-name="Path 1109" d="M653.22,1617.341,641.4,1595.483l-18.617-16.355-47.729-20.394-21.314-14.508-7.1-15.879,4.285-13.231,21.355-11.442,29.968-3.928,24.755,5.39,16.071,11.571v-28.494l47.553-21.737,45.994,18.225H761.6l37.715,42.393,2.313,14.773-16.489,12.168,8.261,7.438,32.033-8.556,19.88,8.556h24.447l5.793,8.881,20.328,5.57,28.26-5.57,1.878,5.57h-5.8l2.338,11.082H908.429l5.811,21.809,8.318,5.658,1.586,24.88,5.1,1.686,4.523-1.686-2.584-19.288,1.168-41.141h9.645v-9.962l29.973-5.834,8.716,10.323-3.515,10.867,19.043,3.963,13.3-3.963,18.022,2.687-15.9,29.428-3.326,29.15-8.219,25.023-11.228,22.885-4.786,26.5,12.736,28.763,18.062,15.857-3.943,5.2-40.217,2.7-16.347,9.122-19.654,15.771-4.936,4.513,29.811,25.57,2.774,9.332-8,6.173-3.208,9.432,3.208,13.871,9.345,6.453-5.029,7.29-46.774,5.394-17.921,1.785-7.49,1.8-18.561,9.09-3.888,4.355-19.592-20.529,2.3-6.234,5.565,1.533-2.671-25.932,3.44-6.133,7.827-4.309,8.892-7.244-8.892-14L820.173,1842.7l-5.332,2.479-18.716-24.285-15.03-23.945-2.729-18.064L736.782,1732l4.93-7.887,9.309,9.319h5.342l22,26.12,4.772,1.092,15.382,25.69,1.723,7.324,16.753-7.324,9.011-9.111-1.713-4.574h-4.025l11.538-13.1,10.776,6.066v5.365H861.89l7.926-10.338-101.953-63.857-28.745-17.06-40.475-9.12-16.568-16.187v-27.644l10.706-7.213,18.113-1.109,21.822,2.62L747.872,1623H762.01l9.768,9.464,8.191-20.061-16.3,2.38H739.118l-31.009-2.38-27.664,4.94,1.631-13.454Z" transform="translate(-489.625 -1103.787)" fill="#f3e2ac" stroke="#c8c29d" stroke-linecap="round" stroke-linejoin="round" stroke-width="2"/>
      <path id="Path_1172" data-name="Path 1172" d="M627.024,1572.616l-12.318-5.937v21.731l16.365,22.107,39.147,29.12,10.226,9.662,5.6-8.234,8.588,8.234,6.876,2.317,19.333,23.913,7.409,2.645,14.59,27.505,26.3-11.361v-4.837h-5.117l11.825-13.952,10.036,7v5.383l20.076-1.47,7.381-8.267-129.812-80.338-38.97-9.424Z" transform="translate(-433.091 -1020.166)" fill="#eaeaea"/>
      <path id="Path_1133" data-name="Path 1133" d="M576.894,1504.149l.876,11.074,14.041,2.238v-7.907Z" transform="translate(-464.499 -1072.349)" fill="#d1e0a8"/>
      <path id="Path_1132" data-name="Path 1132" d="M628.463,1520.846l18.969.19-1.4-13.818H628.463Z" transform="translate(-421.665 -1069.787)" fill="#d1e0a8"/>
      <path id="Path_1131" data-name="Path 1131" d="M684.789,1499.52l-3.947,3.926h-5.576l-6.679,5.408-16.768,2.505,13.388-29.243,11.758,5.865,1.585,8.236Z" transform="translate(-402.266 -1090.735)" fill="#d1e0a8"/>
      <path id="Path_1102" data-name="Path 1102" d="M637.409,1560.421l-18.781-2.863-28.692-11.33-22.269-15.739-7.725-16.513,3.834-11.72,22.548-14.37.99-3.96-21.218,3.96-12.462-2.279,2.438,19.953H539.013l1.981,3.873-12.819,7.559,37.921,21.968,23.84,23.416,19.676,35.311,19.994-27.477Z" transform="translate(-504.964 -1089.225)" fill="#d1e0a8"/>
      <path id="Path_1147" data-name="Path 1147" d="M721.932,1548.75l-50.488,78.142" transform="translate(-385.965 -1035.128)" fill="none" stroke="#fff" stroke-linecap="round" stroke-width="2"/>
      <path id="Path_1148" data-name="Path 1148" d="M682.631,1647.009l59.173-91.814L722.07,1541.5l-2.753,3,8.285,5.579,1.728-1.213-7.26-4.367" transform="translate(-376.673 -1041.177)" fill="none" stroke="#fff" stroke-linecap="round" stroke-linejoin="round" stroke-width="2"/>
      <path id="Path_1149" data-name="Path 1149" d="M825.328,1685.556,682.4,1598.766" transform="translate(-376.865 -993.388)" fill="none" stroke="#fff" stroke-linecap="round" stroke-width="2"/>
      <path id="Path_1150" data-name="Path 1150" d="M830.875,1686.207l-125.332-77.776,8.111-11.632-19.407-12.97" transform="translate(-367.025 -1005.853)" fill="none" stroke="#fff" stroke-linecap="round" stroke-linejoin="round" stroke-width="2"/>
      <path id="Path_1151" data-name="Path 1151" d="M707.62,1629.271l18.417-30.924" transform="translate(-355.917 -993.738)" fill="none" stroke="#fff" stroke-linecap="round" stroke-linejoin="round" stroke-width="2"/>
      <path id="Path_1152" data-name="Path 1152" d="M704.771,1590.85l23.7,13.743" transform="translate(-358.283 -999.995)" fill="none" stroke="#fff" stroke-linecap="round" stroke-width="2"/>
      <path id="Path_1153" data-name="Path 1153" d="M717.681,1641.84l22.666-36.627-8.06-5.994,44.341,28.507,53.167,33.667,6.93-6.859-9.428-6.02,14.261-20.788-46.813-31.885" transform="translate(-347.56 -995.829)" fill="none" stroke="#fff" stroke-linecap="round" stroke-linejoin="round" stroke-width="2"/>
      <path id="Path_1154" data-name="Path 1154" d="M737.315,1662.175l42.511-65.849" transform="translate(-331.252 -995.425)" fill="none" stroke="#fff" stroke-linecap="round" stroke-linejoin="round" stroke-width="2"/>
      <path id="Path_1155" data-name="Path 1155" d="M756.769,1602.4l65.875,41.171v11.119" transform="translate(-315.094 -990.354)" fill="none" stroke="#fff" stroke-linecap="round" stroke-linejoin="round" stroke-width="2"/>
      <path id="Path_1156" data-name="Path 1156" d="M746.745,1667.293l42.181-64.575" transform="translate(-323.419 -990.091)" fill="none" stroke="#fff" stroke-linecap="round" stroke-linejoin="round" stroke-width="2"/>
      <path id="Path_1157" data-name="Path 1157" d="M791.594,1607.923l-31.728,48.324" transform="translate(-312.521 -985.747)" fill="none" stroke="#fff" stroke-linecap="round" stroke-linejoin="round" stroke-width="2"/>
      <path id="Path_1158" data-name="Path 1158" d="M788.333,1642.3l-46.252-26.8,20.209-33.471-27.425-16.574L712.177,1596" transform="translate(-352.132 -1021.189)" fill="none" stroke="#fff" stroke-linecap="round" stroke-linejoin="round" stroke-width="2"/>
      <path id="Path_1159" data-name="Path 1159" d="M736.277,1622.758l28.346-40.8,9.989,6.359-7.173,10.744,13.705,9.861" transform="translate(-332.114 -1007.415)" fill="none" stroke="#fff" stroke-linecap="round" stroke-linejoin="round" stroke-width="2"/>
      <path id="Path_1160" data-name="Path 1160" d="M837.885,1537.657l-22.239-1.745-8.688,10.244v14.332l3.385,13.141-15.54,39.684L773.578,1645.2" transform="translate(-301.132 -1045.841)" fill="none" stroke="#c8c29c" stroke-linecap="round" stroke-linejoin="round" stroke-width="2"/>
      <path id="Path_1161" data-name="Path 1161" d="M809.773,1642.556l-35.635-53.569v-31.319l3.225-9.942,2.262-14.371,22.677-2.985-22.677,2.985-17.317-6.563" transform="translate(-310.493 -1053.453)" fill="none" stroke="#c8c29c" stroke-linecap="round" stroke-linejoin="round" stroke-width="2"/>
      <path id="Path_1162" data-name="Path 1162" d="M810.53,1545.913l-39.177-11.653" transform="translate(-302.98 -1047.22)" fill="none" stroke="#c8c29c" stroke-linecap="round" stroke-linejoin="round" stroke-width="2"/>
      <path id="Path_1163" data-name="Path 1163" d="M757.827,1538.884l21.893,2.109,40.93,13.784" transform="translate(-314.214 -1043.362)" fill="none" stroke="#c8c29c" stroke-linecap="round" stroke-linejoin="round" stroke-width="2"/>
      <path id="Path_1164" data-name="Path 1164" d="M791.584,1613.885l-16.243-23.747,1.531-28.991-1.531,28.991-15.464.977" transform="translate(-312.512 -1024.782)" fill="none" stroke="#c8c29c" stroke-linecap="round" stroke-linejoin="round" stroke-width="2"/>
      <path id="Path_892" data-name="Path 892" d="M3367.1-836.448l6.226,3.435,44.54,14.229,56.809,6.311L3579.811-783.7l39.408,6.7,47.078,6.247,59.672-10.405,62.039-27.574,20.282-6.778v-20.944h11.832l2.733-12.864h-5.479l-2.674-19.916-6.412-10.12,38.639-37.927-74.826-41.58-72.491-33.8-2.909-11.069-11.455-8.47h-14.336l14.336-44,49.688-5.912v-28.455l21.965,3.394,36.436-9.194,5.707-34.716,35.329,8.506v7.064l56.47,19.147,8.2-31.077-55.788-67.665-73.109-85.35-49.64,10.246-35.26,25.285,8.163,20.494-12.407,7.28-33.536-9.72-35.968,15.624-41.442,29.578-35.521,61.765-17.032,41.44-6.985,44.474-15.655,36.552-32.032,50.884-41.392,36.214-12.592,4.806-11.765,1.03-19.635,29.713-8.509,18.28Z" transform="translate(-3360.502 1030.542)" fill="#b0e0a8"/>
      <path id="Path_1118" data-name="Path 1118" d="M600.8,1492.357l24.937-10.115v-11.219l6.149,50.552" transform="translate(-444.644 -1099.992)" fill="none" stroke="#c8c29d" stroke-linecap="round" stroke-linejoin="round" stroke-width="2"/>
      <path id="Path_1119" data-name="Path 1119" d="M610.333,1513.893l-2.139-38.5,2.139,41.051h14.941" transform="translate(-438.501 -1096.345)" fill="none" stroke="#c8c29d" stroke-linecap="round" stroke-linejoin="round" stroke-width="2"/>
      <path id="Path_1069" data-name="Path 1069" d="M672.469,1441.8l-5.039-7.828-27.5-11.932-20.27,3.488v26.333L630.7,1460.5l20.047,4.129,13.862-7.241Z" transform="translate(-428.98 -1140.867)" fill="#f3e2ac" stroke="#c8c29d" stroke-linejoin="round" stroke-width="2"/>
      <path id="Path_1089" data-name="Path 1089" d="M541.763,1379.568l26.693,1.6v25.813l-17.182,1.646-24.918,26.19-14.858,6.26h-15.75l-4.926-3.963,42.547-34.112Z" transform="translate(-535.991 -1176.314)" fill="#f3e2ac" stroke="#c8c29d" stroke-linecap="round" stroke-linejoin="round" stroke-width="2"/>
      <path id="Path_1070" data-name="Path 1070" d="M819.9,1462.224l-140.508-36.972-18.4,9.461-18.109,30.3,36.5,17.521,6.429,6.074h12.824l7.469,6.77,13.927,4.42,11.518,14.116,12.453-9.252h6.164l-3.033,18.76,7.271,12.3,20.99-2.864,29.65,10.077L819.9,1532.86l4.948,2.864,6.96-18.413,29.131,30.792h12.351l3.241,8.037h14.034l10.41,21.963,8.04-6.561L922.7,1578.1l16.918-18.727v-16.439l-16.918-2.792,16.918-7.285L925.593,1499.8l-24.622-11.19-20.751-31.887-33.2-9.927-3.593,18.219Z" transform="translate(-409.688 -1138.19)" fill="#f5e7b8" stroke="#c8c29d" stroke-linecap="round" stroke-linejoin="round" stroke-width="2"/>
      <path id="Path_1081" data-name="Path 1081" d="M3546.583-995.336v19.954l33.745,4.453-2.6,5.087-18.941,2.75,9.949,22.462,48.962,13.247h23.5l8.926-43.546-5.332-24.407-27.089-11.95-6.706-8.362-33.265,12.822Z" transform="translate(-3211.422 1251.527)" fill="#eaeaea" stroke="#d1d1d1" stroke-linecap="round" stroke-linejoin="round" stroke-width="2"/>
      <path id="Path_1106" data-name="Path 1106" d="M3441.362-881.525l24.4,22.238,12.489,25.3h-30.24l-19.764-5.941-6.535-15.093Z" transform="translate(-3315.146 1363.455)" fill="#f5e7b8" stroke="#c8c29d" stroke-linecap="round" stroke-linejoin="round" stroke-width="2"/>
      <path id="Path_1101" data-name="Path 1101" d="M500.086,1482.839l20.445,10.806L514.976,1508l-29.594-12.5-2.713-20.466Z" transform="translate(-542.763 -1096.644)" fill="#d1e0a8"/>
      <path id="Path_1084" data-name="Path 1084" d="M790.722,1391.864l-12.361,12.565,26.668,10v2.456l-25.155-8.723-1.514,10.761,24.5,4.947v2.792l-21.984-4.327v6.634l19.742,3.823v2.25l-19.742-3.805.638,7.092,51.923,6.593,5.639-15.953-34.052-24.537-5.757-7.179Z" transform="translate(-297.158 -1166.053)" fill="#fff"/>
      <path id="Path_1085" data-name="Path 1085" d="M841.781,1416.7l-8.18,9.767-23.3-1.655v5.089l17.4,5.6,1.1,4.6,7.442-2.848-.812-2.837,6.355-.555,3.987-1.868V1417.7Z" transform="translate(-270.627 -1145.326)" fill="#fff"/>
      <path id="Path_1042" data-name="Path 1042" d="M718.729,1340.3l4.114,16.244" transform="translate(-346.689 -1209.081)" fill="none" stroke="#fff" stroke-linecap="round" stroke-linejoin="round" stroke-width="2"/>
      <path id="Path_1045" data-name="Path 1045" d="M672.46,1286.825l-18.141,16.769,9.336-3.487,20.786,23.353-9.541,4.9-28.676-20.95-19.873-7.3,18.367,8.95,1.506,9.174,8.1,9.229,9.336,9.028,12.2-5.676-18-12.58,15.651,12.58-15.651-9.661,13.3,9.661-13.3-7.352,12.338,8.937-13.206-6.846,10.979,7.953-12.211-6.044,9.317,7.337" transform="translate(-423.42 -1253.709)" fill="none" stroke="#fff" stroke-linecap="round" stroke-linejoin="round" stroke-width="2"/>
      <g id="Path_1046" data-name="Path 1046" transform="translate(-400.112 -1234.079)" fill="none" stroke-linecap="round" stroke-linejoin="round">
        <path d="M654.412,1313.417l17-3.069,9.511,9.093,4.227,11.482s6.426-3.354,8.568-2.346,2.142,4.783,0,6.378-6.99-1.413-8.568,0-.164,4.238,2.256,5.651,6.121-1.795,7.425,0,.77,5.384-2.208,7.178-9.7,0-9.7,0-.078,4.918-2,6.558a4.28,4.28,0,0,1-5.673,0c-1.418-1.216,0-4.864,0-4.864h-3.838l-9.06,1.858-2.428-16.381Z" stroke="none"/>
        <path d="M 669.1505737304688 1317.86962890625 L 663.0467529296875 1318.971313476562 L 666.8495483398438 1333.928344726562 L 668.19287109375 1342.99267578125 L 670.0067138671875 1342.620727539062 C 670.4694213867188 1342.52587890625 670.9405517578125 1342.47802734375 671.4129028320312 1342.47802734375 L 675.2506713867188 1342.47802734375 C 676.13232421875 1342.47802734375 676.9806518554688 1342.690551757812 677.7653198242188 1343.0595703125 C 678.0465087890625 1342.753295898438 678.3565673828125 1342.469970703125 678.6928100585938 1342.21435546875 C 678.81689453125 1342.119995117188 678.9435424804688 1342.0302734375 679.07275390625 1341.945068359375 C 678.2279052734375 1340.534790039062 677.6895751953125 1339.001098632812 677.5328979492188 1337.453002929688 C 677.3610229492188 1335.755737304688 677.6419677734375 1334.106201171875 678.3234252929688 1332.640991210938 L 674.9144287109375 1323.380126953125 L 669.1505737304688 1317.86962890625 M 671.4129028320312 1310.34814453125 L 680.9235229492188 1319.440673828125 L 685.1500854492188 1330.922729492188 C 685.1500854492188 1330.922729492188 690.0064697265625 1328.388061523438 692.6828002929688 1328.387817382812 C 693.0850830078125 1328.387817382812 693.437744140625 1328.445068359375 693.7176513671875 1328.576782226562 C 695.8595581054688 1329.584716796875 695.8595581054688 1333.360229492188 693.7176513671875 1334.95458984375 C 693.243896484375 1335.307250976562 692.637451171875 1335.434814453125 691.963623046875 1335.434814453125 C 690.20361328125 1335.434814453125 687.981689453125 1334.565185546875 686.4500122070312 1334.565185546875 C 685.916748046875 1334.565185546875 685.4674072265625 1334.670532226562 685.1500854492188 1334.95458984375 C 683.5722045898438 1336.367309570312 684.9857788085938 1339.192749023438 687.4061889648438 1340.605834960938 C 687.8677978515625 1340.875244140625 688.3765258789062 1340.976684570312 688.9058227539062 1340.976684570312 C 690.51171875 1340.976684570312 692.3113403320312 1340.04443359375 693.5925903320312 1340.044311523438 C 694.1029052734375 1340.044189453125 694.5307006835938 1340.192138671875 694.8314208984375 1340.605834960938 C 696.1356811523438 1342.400146484375 695.6016235351562 1345.989501953125 692.6235961914062 1347.783813476562 C 691.6309814453125 1348.381958007812 690.2216186523438 1348.581420898438 688.7839965820312 1348.581420898438 C 685.908447265625 1348.581420898438 682.9189453125 1347.783813476562 682.9189453125 1347.783813476562 C 682.9189453125 1347.783813476562 682.840576171875 1352.701904296875 680.9235229492188 1354.341674804688 C 680.034912109375 1355.1015625 679.0559692382812 1355.418212890625 678.1201782226562 1355.418212890625 C 677.0369873046875 1355.418212890625 676.011474609375 1354.994018554688 675.2506713867188 1354.341674804688 C 673.8324584960938 1353.125610351562 675.2506713867188 1349.47802734375 675.2506713867188 1349.47802734375 L 671.4129028320312 1349.47802734375 L 662.3529052734375 1351.3359375 L 659.9251708984375 1334.95458984375 L 654.411865234375 1313.416748046875 L 671.4129028320312 1310.34814453125 Z" stroke="none" fill="#fff"/>
      </g>
      <path id="Path_1062" data-name="Path 1062" d="M831.48,1351.541,796.4,1331.4l-11.434,6.779-11.67,13.363-10.643,20.12,7.222,13.279v24.99l19.327,6.456v17.233l26.161,14.224Z" transform="translate(-310.203 -1216.512)" fill="#f5e7b8"/>
      <path id="Path_1051" data-name="Path 1051" d="M584.748,1383.72l-47.116-30.215,10.564-15.989,37.87,17.923-27.895,32.6-26.622,12.7-11.66-9.429" transform="translate(-511.847 -1211.407)" fill="none" stroke="#fff" stroke-linecap="round" stroke-linejoin="round" stroke-width="2"/>
      <path id="Path_1047" data-name="Path 1047" d="M602.946,1276.982l-.461,10.424.461,11.523,5.721,6.536h17.317l-19.044,2.012v8.673l-1.951-8.673-13.857,14.305-1.14,10.789" transform="translate(-453.618 -1261.924)" fill="none" stroke="#fff" stroke-linecap="round" stroke-linejoin="round" stroke-width="2"/>
      <path id="Path_1048" data-name="Path 1048" d="M581.7,1339.755l24.338-56.707-10.525,10.984,6.261,25.567-1.246-17.329-1.43-9.782" transform="translate(-460.505 -1256.862)" fill="none" stroke="#fff" stroke-linecap="round" stroke-linejoin="round" stroke-width="2"/>
      <path id="Path_886" data-name="Path 886" stroke="#7e20ff" d="M3444.369-783.785l25.844-38.537L3420.99-840.6s-22.335-15.469-25.807-28.7c-1.268-4.828,3-4.967,4.316-8.319,1.71-4.422,3.086-9.1,21.491-13.84,9.313-2.4,14.8-1,23.274-.871,7.141.116,17.16-.97,35.3-7.979,36.712-14.188,40.526-19.659,62.7-35.656s2.933-36.133,19.424-31.644,26.705,21.544,48.53,34.136,20.831,8.376,31.805,14.5,6.917,12.2,15.957,16.87,13.749-1.914,20.2,1.8,0,17.965,0,17.965" fill="none" transform="translate(-3337.37 1291.091)" stroke-linecap="round" stroke-linejoin="round" stroke-width="4" stroke-dasharray="8"/>
      <path id="Path_888" data-name="Path 888" stroke="#7e20ff" d="M3503.425-934.812S3474.1-935,3469.23-948.7s-.678-32.639,10.541-42.151,18.779,4.006,28.984,0,11.836-16.024,11.836-16.024" fill="none" transform="translate(-3277.338 1258.846)" stroke-linecap="round" stroke-linejoin="round" stroke-width="4" stroke-dasharray="8"/>
      <path id="Path_1044" data-name="Path 1044" d="M629.022,1283.788l11.777,6,49.616-3.216,15.7,18.459-12.848,29.764" transform="translate(-421.201 -1256.244)" fill="none" stroke="#fff" stroke-linecap="round" stroke-linejoin="round" stroke-width="2"/>
      <path id="Path_1043" data-name="Path 1043" d="M607.885,1274.826l-18.369,15.047h36.076l17.213-3.9v10.055l3.024-10.055,15.953,3.9-11.2,6.154v6.906" transform="translate(-454.015 -1263.723)" fill="none" stroke="#fff" stroke-linecap="round" stroke-linejoin="round" stroke-width="2"/>
      <path id="Path_893" data-name="Path 893" d="M3670.823-938.494l4.755,3.984,23.563-8.727,9.462,6.738,3.361-12.6-20.054-6.753,20.054-17.718L3687.17-996.41l-11.591-28.5-66.183,12.656v11.353l-10.324,10.589-8.78-14.611,14.906-33.293-21.009-7.553,6.1-24.311-6.1-15.818-41.143,15.818-13.583-19.953-3.531-16.831-15.722-13.19-29.913,38.57-13.026-8.55-12.418,14.42,2.754,9.546h9.664l-6.155,15.813-12.625-5.093-15.834-17.715-2.863,6.995-4.689,3.95,4.689,6.77-26.477,60.892,69.543,41.409,18.611-20.531L3480.3-987.315l2.928-11.222,8.248-6.382,56.16,28.809,5.193,41.6,46.245,15.595,37.548,5.118,3.221-5.118-23.036-5.246,14.555-14.333,19.751,14.333Z" transform="translate(-3330.419 1164.403)" fill="#f5e7b8" stroke="#fff" stroke-linecap="round" stroke-linejoin="round" stroke-width="4"/>
      <path id="Path_912" data-name="Path 912" d="M3524.08-1033.92l-14.5-23.928-11.216-7.657-10.838,16.654,6.194,6.676v22.705l10.319.923,4.594,6.225Z" transform="translate(-3262.311 1213.59)" fill="#dedede" stroke="#c8c29d" stroke-linecap="round" stroke-linejoin="round" stroke-width="2"/>
      <path id="Path_1056" data-name="Path 1056" d="M601.162,1358.117l6.94,6.841,12.467-1.191-12.467,2.787,1.185,7.464,9.243,5.594,15.878-7.878,12.18,7.878-1.416,18.544,14.661-12.177,5.326,32.308-14.424,2.961v-2.961l10.265-2.1-1.167-2.514-9.1,2.514,4.434-13.45-12.633.921v-16.366" transform="translate(-444.341 -1194.215)" fill="none" stroke="#fff" stroke-linecap="round" stroke-linejoin="round" stroke-width="2"/>
      <path id="Path_1099" data-name="Path 1099" d="M499.862,1504.741l8-21.338,25.939,16.728,29.879,8.808-13.746,7.413-24.388-7.413Z" transform="translate(-528.481 -1089.661)" fill="#f3e2ac" stroke="#c8c29d" stroke-linecap="round" stroke-linejoin="round" stroke-width="2"/>
      <g id="Path_1057" data-name="Path 1057" transform="translate(-446.482 -1181.293)" fill="none" stroke-linecap="round" stroke-linejoin="round">
        <path d="M607.53,1373.6l9.261,9.29-3.679,10.35-14.527-9.1,3.1-3.813Z" stroke="none"/>
        <path d="M 607.7317504882812 1379.468872070312 L 604.75 1382.90185546875 L 604.544677734375 1383.154296875 L 611.012451171875 1387.205932617188 L 612.1774291992188 1383.928588867188 L 607.7317504882812 1379.468872070312 M 607.5302124023438 1373.600952148438 L 616.7913818359375 1382.891357421875 L 613.1121826171875 1393.241333007812 L 598.5849609375 1384.140869140625 L 601.6878662109375 1380.327514648438 L 607.5302124023438 1373.600952148438 Z" stroke="none" fill="#fff"/>
      </g>
      <path id="Path_1058" data-name="Path 1058" d="M613.709,1370.1l-6.693,24.736,17.5,8.315,14.693-9.559Z" transform="translate(-439.479 -1184.214)" fill="none" stroke="#fff" stroke-linecap="round" stroke-linejoin="round" stroke-width="2"/>
      <path id="Path_1059" data-name="Path 1059" d="M630.431,1384.411l-15.312-16.474" transform="translate(-432.749 -1186.02)" fill="none" stroke="#fff" stroke-linecap="round" stroke-linejoin="round" stroke-width="2"/>
      <path id="Path_1060" data-name="Path 1060" d="M596.169,1382.5l25,13.609,4.079-6.351,8.01,3.182,2.86,9.135,20.184-1.057-2.355-3.174-17.829,1.719V1396.1h17.829" transform="translate(-448.489 -1173.871)" fill="none" stroke="#fff" stroke-linecap="round" stroke-linejoin="round" stroke-width="2"/>
      <path id="Path_1174" data-name="Path 1174" d="M741.844,1727.77l-47.168-51.953,2.906,23.849,13.974,29.685,10.462,9.056Z" transform="translate(-366.668 -929.089)" fill="#79d7f5" stroke="#c8c29d" stroke-width="2"/>
      <path id="Path_1105" data-name="Path 1105" d="M567.028,1475.036l-1.8,4.887h-17.16l-19.216,16.053-20.223-10.943-5.215,1.983,28.934,19.346,22.111,7.712,3.4-14.382,17.593-20.865Z" transform="translate(-525.534 -1096.644)" fill="#d1e0a8"/>
      <path id="Path_1061" data-name="Path 1061" d="M798.587,1330.545l-18.611,16.041L763.32,1371.3l8.608,13.31v26.352H761.483l-2.595,19.588h18.08l19.509,5.188,22.783,14.756" transform="translate(-313.333 -1217.225)" fill="none" stroke="#fff" stroke-linecap="round" stroke-linejoin="round" stroke-width="4"/>
      <path id="Path_1095" data-name="Path 1095" d="M490.389,1440.644l16.926-15.9,8.325,6.466H531.95l19.188-8.578,23.453-25.2,16.625-1.5,17.678,11.26,6.722,15.439-6.722,22.322,3.121,16.713-8.687,9.654-17.957,2.349-3.311-6.515,5.424-2.531,11.266-11.691v-15.191l-7.535-6.532,7.535-14.708-2.954-3.653H574.591v11.9l-13.657-2.112-11.2,6.995-17.787,5.435-2.419,14.652h-9.2l-7.3-14.652-10.142,2.68-12.5,9.706,5.215,5.485,20.037,2.133,9.263,13.891,24.833,9.6,6.42,3.729h13.259v9.078h-6.923l-7.742-4.664h-25.22l-7.161,1.429-6.73,7.485v9.458l12.5,1.555,12.157,8.991-14-3.13-3.931,3.13L540.3,1532.3v18.394l-7.637,8.889-17.022-6.928-23.135-29.536,1.5-7.5,14.445-6.587-1.134-5.354-1.964-9.2v-5.228l-12.846-15.58v-9.045l-8.793-2.957-3.466,16.89,10.142,20.1,10.787,13.826-8.67,18.45,10.386,29.968-29.074-26.094-8.128-2.51,10.677-7.485,7.347-14.449-12.855-19-1.733-17.695Z" transform="translate(-556.865 -1162.66)" fill="#d1e0a8"/>
      <path id="Path_911" data-name="Path 911" d="M3523.388-1049.476l-40.015-10.87-15.833-1.43-9.8,2.922-8.521,8.2-6.027,14.264,10.308,14.217" transform="translate(-3299.21 1213.033)" fill="none" stroke="#c8c29d" stroke-linecap="round" stroke-width="2"/>
      <path id="Path_1029" data-name="Path 1029" d="M601.174,1298.393l9.472-31.932,41.506-17.111L635.3,1244s-20.007,20.8-20.546,20.619" transform="translate(-444.331 -1289.452)" fill="none" stroke="#fff" stroke-linecap="round" stroke-linejoin="round" stroke-width="2"/>
      <path id="Path_898" data-name="Path 898" d="M3452.579-1002.333l8.833-14.053,8.558-52.708-15.178-4.209-2.213,6.585-19.532-8.112-24.03,46.77" transform="translate(-3325.687 1202.138)" fill="none" stroke="#c8c29d" stroke-width="2"/>
      <path id="Path_894" data-name="Path 894" d="M3414.725-1078.44l33.22,13.907s-7.766,19.195-11.181,39.142-2.479,40.647-2.479,40.647" transform="translate(-3320.945 1199.126)" fill="none" stroke="#fff" stroke-linecap="round" stroke-linejoin="round" stroke-width="4"/>
      <path id="Path_895" data-name="Path 895" d="M3476.444-1039.849l-65.943-28.7" transform="translate(-3324.454 1207.384)" fill="none" stroke="#fff" stroke-linecap="round" stroke-width="4"/>
      <path id="Path_896" data-name="Path 896" d="M3480.075-1033.866l-15.892,2.172-58.054-27.261" transform="translate(-3328.086 1215.386)" fill="none" stroke="#fff" stroke-linecap="round" stroke-width="2"/>
      <path id="Path_1033" data-name="Path 1033" d="M663.833,1276.452l21.782,3.2,32.643,23.48,7.688,4.88,15.418-4.88" transform="translate(-392.286 -1262.366)" fill="none" stroke="#fff" stroke-linecap="round" stroke-linejoin="round" stroke-width="2"/>
      <path id="Path_1034" data-name="Path 1034" d="M711.025,1289.674l.343,14.254,14.46,18.105,8.358,28.867H723.552L703.76,1369.95v6.772l-38.638,8.173" transform="translate(-391.216 -1251.332)" fill="none" stroke="#fff" stroke-linecap="round" stroke-linejoin="round" stroke-width="2"/>
      <path id="Path_1054" data-name="Path 1054" d="M555.728,1366.329l-3.419,15.5-32-4.275" transform="translate(-511.495 -1187.362)" fill="none" stroke="#fff" stroke-linecap="round" stroke-linejoin="round" stroke-width="2"/>
      <path id="Path_897" data-name="Path 897" d="M3486.473-1118.552s-21.316,20.657-34.5,42.572A188.49,188.49,0,0,0,3432.925-1031" transform="translate(-3305.828 1165.652)" fill="none" stroke="#fff" stroke-linecap="round" stroke-width="4"/>
      <path id="Path_899" data-name="Path 899" d="M3442.313-1037.275h19.95l36.063-51.39-16.308-12.153-7.575-10.213" transform="translate(-3298.03 1171.929)" fill="none" stroke="#c8c29d" stroke-linecap="round" stroke-linejoin="round" stroke-width="2"/>
      <path id="Path_1063" data-name="Path 1063" d="M817.782,1336.416,793.609,1353.1l-7.4,18.988v55.285l-2.124-15.668-19.022-5.7" transform="translate(-308.206 -1212.325)" fill="none" stroke="#fff" stroke-linecap="round" stroke-linejoin="round" stroke-width="2"/>
      <path id="Path_1064" data-name="Path 1064" d="M813.117,1375.984l-15.176,4.244H776.057" transform="translate(-299.072 -1179.305)" fill="none" stroke="#fff" stroke-linecap="round" stroke-linejoin="round" stroke-width="2"/>
      <path id="Path_1065" data-name="Path 1065" d="M786.18,1342.378l3.638,28.727-3.638,22.726,7.448,12.888" transform="translate(-290.665 -1207.349)" fill="none" stroke="#fff" stroke-linecap="round" stroke-linejoin="round" stroke-width="2"/>
      <path id="Path_1066" data-name="Path 1066" d="M821.766,1381.192l-39.059-7.357-12.495-12.777,21.713-28.7" transform="translate(-303.927 -1215.714)" fill="none" stroke="#fff" stroke-linecap="round" stroke-linejoin="round" stroke-width="2"/>
      <path id="Path_1067" data-name="Path 1067" d="M780.406,1352.3l-13.417,23.025" transform="translate(-306.604 -1199.071)" fill="none" stroke="#fff" stroke-linecap="round" stroke-linejoin="round" stroke-width="2"/>
      <path id="Path_900" data-name="Path 900" d="M3457.514-1055.915l-15.894-10.572" transform="translate(-3298.606 1209.101)" fill="none" stroke="#c8c29d" stroke-linecap="round" stroke-width="2"/>
      <path id="Path_901" data-name="Path 901" d="M3462.508-1045.188l-9.38-25.5" transform="translate(-3289.048 1205.592)" fill="none" stroke="#c8c29d" stroke-linecap="round" stroke-width="2"/>
      <path id="Path_902" data-name="Path 902" d="M3471.63-1065.03l-13.993-11.668Z" transform="translate(-3285.302 1200.58)" fill="none" stroke="#c8c29d" stroke-linecap="round" stroke-width="2"/>
      <path id="Path_1107" data-name="Path 1107" d="M597.694,1567.46l4.812-9.83h9.538l18.071,19.786,1.119,11.381-15.567-13.1Z" transform="translate(-449.052 -1027.717)" fill="#f5e7b8" stroke="#c8c29d" stroke-width="2"/>
      <path id="Path_903" data-name="Path 903" d="M3464.847-1034.854v-16.072l25.342-32.052,20.718-10.119h22.318" transform="translate(-3279.313 1186.894)" fill="none" stroke="#c8c29d" stroke-linecap="round" stroke-linejoin="round" stroke-width="2"/>
      <path id="Path_904" data-name="Path 904" d="M3537.008-1051.173l-18.429-14.987-25.4-11.947-41.807-25.072" transform="translate(-3290.502 1178.481)" fill="none" stroke="#c8c29d" stroke-width="2"/>
      <path id="Path_905" data-name="Path 905" d="M3496.93-1099.955v18.776l-5.213,16" transform="translate(-3256.995 1181.171)" fill="none" stroke="#c8c29d" stroke-width="2"/>
      <path id="Path_907" data-name="Path 907" d="M3513.372-1089.134l-9.119,25.678-11.73,22.446" transform="translate(-3256.326 1190.202)" fill="none" stroke="#c8c29d" stroke-width="2"/>
      <path id="Path_908" data-name="Path 908" d="M3485.632-1070.826l-8.211,13.328v11.33" transform="translate(-3268.87 1205.48)" fill="none" stroke="#c8c29d" stroke-linecap="round" stroke-linejoin="round" stroke-width="2"/>
      <path id="Path_906" data-name="Path 906" d="M3537.642-1030.4l-101.216-73.3" transform="translate(-3302.921 1178.051)" fill="none" stroke="#fff" stroke-linecap="round" stroke-linejoin="round" stroke-width="4"/>
      <path id="Path_909" data-name="Path 909" d="M3487.33-1046.107l9.407-18.5Z" transform="translate(-3260.638 1210.67)" fill="none" stroke="#fff" stroke-linecap="round" stroke-linejoin="round" stroke-width="4"/>
      <path id="Path_1035" data-name="Path 1035" d="M697.712,1308.2l38.175-4.428,16.376,11.583,15.014,22.991,22.623-18.723,23.932,12.475-1.239,20.534,4.842,32.6-9.793-11.3H784.159l-12.046,7.234-4.837,16.486,3.142,22.082-7.191,24.278" transform="translate(-364.146 -1239.568)" fill="none" stroke="#fff" stroke-linecap="round" stroke-linejoin="round" stroke-width="2"/>
      <path id="Path_910" data-name="Path 910" d="M3495.4-1033.651v-11.856l-37.033-11.106" transform="translate(-3284.699 1217.342)" fill="none" stroke="#c8c29d" stroke-width="2"/>
      <path id="Path_913" data-name="Path 913" d="M3493.217-1005.775l2.052-16.473,7.192-12.942" transform="translate(-3255.748 1235.219)" fill="none" stroke="#c8c29d" stroke-linecap="round" stroke-width="2"/>
      <path id="Path_914" data-name="Path 914" d="M3521-1002.359v-12.8l-26.158-12.108" transform="translate(-3254.399 1241.828)" fill="none" stroke="#c8c29d" stroke-linecap="round" stroke-width="2"/>
      <path id="Path_1037" data-name="Path 1037" d="M698.151,1307.181l16.6,22.657,2.825,9.024,10.364,12.793,10.639,10.3-13.726,23.41-10.1-2.567" transform="translate(-363.782 -1236.723)" fill="none" stroke="#fff" stroke-linecap="round" stroke-linejoin="round" stroke-width="2"/>
      <path id="Path_915" data-name="Path 915" d="M3515.946-973.61v-9.427l38.561-60.682,20.29-14.707,8.18,14.707,14.436,9.115" transform="translate(-3236.871 1215.828)" fill="none" stroke="#c8c29d" stroke-linecap="round" stroke-width="2"/>
      <path id="Path_916" data-name="Path 916" d="M3571.656-1053.658l-1.482-10.807-50.491,9.723,1.878,11.276h21.351v-5.241l22.842-13.279" transform="translate(-3233.766 1210.789)" fill="none" stroke="#c8c29d" stroke-linecap="round" stroke-width="2"/>
      <path id="Path_917" data-name="Path 917" d="M3522.038-1038.632v-14.379" transform="translate(-3231.811 1220.347)" fill="none" stroke="#c8c29d" stroke-linecap="round" stroke-width="2"/>
      <path id="Path_918" data-name="Path 918" d="M3509.132-1001.629l17.058-25.01v-18.58h6.923" transform="translate(-3242.529 1226.849)" fill="none" stroke="#c8c29d" stroke-linecap="round" stroke-width="2"/>
      <path id="Path_1104" data-name="Path 1104" d="M561.2,1432.526l15.6,2.179,8.023,10.19-4.581,14.114-15.461-4.973-5.127,4.973-11.635,16.534v6.1H537.549l-8.915-8.486-1.347-9.071,6.951-7.251,23.9-8.94v-10.111Z" transform="translate(-505.703 -1132.119)" fill="#d1e0a8"/>
      <path id="Path_919" data-name="Path 919" d="M3573.243-1007.829l-14.168-8.439-21.2,2.756-39.565-20.933" transform="translate(-3251.52 1235.841)" fill="none" stroke="#c8c29d" stroke-linecap="round" stroke-width="2"/>
      <path id="Path_920" data-name="Path 920" d="M3555.862-1019.06l3.23-13.126-6.13-14.258" transform="translate(-3206.125 1225.828)" fill="none" stroke="#c8c29d" stroke-linecap="round" stroke-width="2"/>
      <path id="Path_887" data-name="Path 887" stroke="#7e20ff" d="M3760.869-996.661s-38.477,20.195-83.249,23.47-96.146-12.587-96.146-12.587-51.661-18.326-91.553-27.469c-24.948-5.719-42.924-2.615-63.976-7.857-53.706-13.372-59.3-18.163-59.3-18.163" fill="none" transform="translate(-3360.877 1231.817)" stroke-linecap="round" stroke-linejoin="round" stroke-width="4" stroke-dasharray="8"/>
      <path id="Path_921" data-name="Path 921" d="M3540.06-1009.686l26.076-21.626" transform="translate(-3216.84 1238.455)" fill="none" stroke="#c6bba0" stroke-linecap="round" stroke-width="2"/>
      <path id="Path_922" data-name="Path 922" d="M848.2,1220.786a71.3,71.3,0,0,1-40.367-13.182c-19.582-14-25.455-36.005-37.96-42.838-17.928-9.795-57.236-18.044-57.236-18.044l4.546,18.044" transform="translate(-351.751 -1370.628)" fill="none" stroke="#fff" stroke-width="2"/>
      <path id="Path_889" data-name="Path 889" stroke="#7e20ff" d="M3674.163-980.624s-26-32.415-44.3-53.314-10.734-30.534-22.1-33.618-93.848,11.638-113.175,21.952-7.875,81.41-7.875,81.41" fill="none" transform="translate(-3263.956 1207.861)" stroke-linecap="round" stroke-linejoin="round" stroke-width="4" stroke-dasharray="8"/>
      <path id="Path_1103" data-name="Path 1103" d="M571.3,1450.347l-16.818-5.213L546.6,1456.3l-6.95,7.785,5.074,10.906,16.1-5.333Z" transform="translate(-495.436 -1121.598)" fill="#fff" stroke="#fff" stroke-linecap="round" stroke-linejoin="round" stroke-width="2"/>
      <path id="Path_1026" data-name="Path 1026" d="M603.376,1239.146l46.891,14.227,26.822,5.839,44.261,14.93,2.641-19.173,7.752,16.251h14.613l12.582,8.565" transform="translate(-442.502 -1293.499)" fill="none" stroke="#fff" stroke-linecap="round" stroke-linejoin="round" stroke-width="2"/>
      <path id="Path_1024" data-name="Path 1024" d="M696.966,1185.724l.448-22.11" transform="translate(-364.766 -1356.532)" fill="none" stroke="#fff" stroke-linecap="round" stroke-width="2"/>
      <path id="Path_1015" data-name="Path 1015" d="M800.139,1294.293,795.616,1276l-17.42-33.276-8.5-14.931-16.485-13.472-18.276,5.227-18.683-5.227H696.966l11.5-21.3,20.629-17.247,15.329-26.432,11.772-3.388v-12.28" transform="translate(-364.766 -1381.515)" fill="none" stroke="#fff" stroke-linecap="round" stroke-linejoin="round" stroke-width="2"/>
      <path id="Path_1016" data-name="Path 1016" d="M747.676,1228.63l4.536-13.947-4.536-15.119,12.718-25.965,6.714,4.628-19.432-45.83-9.013,23.217-15.417,7.371" transform="translate(-342.937 -1382.582)" fill="none" stroke="#fff" stroke-linecap="round" stroke-linejoin="round" stroke-width="2"/>
      <path id="Path_1017" data-name="Path 1017" d="M740.324,1217.767l37.824-26.091,5.607-2.9,13.414-6.944-16-22.637v32.484" transform="translate(-328.752 -1360.222)" fill="none" stroke="#fff" stroke-linecap="round" stroke-linejoin="round" stroke-width="2"/>
      <path id="Path_1018" data-name="Path 1018" d="M620.477,1219.083l84.172-28.211,34.069-16.086,7.993,7.882,13.65-2.921-10.349,25.063,52.924,81.931" transform="translate(-428.298 -1347.208)" fill="none" stroke="#fff" stroke-linecap="round" stroke-linejoin="round" stroke-width="2"/>
      <path id="Path_1019" data-name="Path 1019" d="M759.4,1278.564l-29.906,3.748-14.948-9.305,6.3-5.259H706.387l-11.393-18.324-16.221-10.316-5.88-32.243,33.494-15.876" transform="translate(-384.762 -1333.687)" fill="none" stroke="#fff" stroke-linecap="round" stroke-linejoin="round" stroke-width="2"/>
      <path id="Path_1020" data-name="Path 1020" d="M642.784,1177.453l-1.948,26.49,6.453,11.453-4.5,18.354v14.63l10.971,13.376,9.438,4.4" transform="translate(-411.388 -1344.983)" fill="none" stroke="#fff" stroke-linecap="round" stroke-linejoin="round" stroke-width="2"/>
      <path id="Path_1096" data-name="Path 1096" d="M509.051,1443.152l-8.209-15.328-7.548,1.637-13.105,11.17,2.645,5.007,21.292,2.462,8.63,13.048,19.73,7.824,10.976,4.484,13.069,2.332v7.842H549.01l-8.238-3.806H511.209l-7.083,10.689v7.94h13.292l12.337,9.086-15.053-2.612-3.493,2.612,18.546,20.408v15.084l17.87,12.3,19.046-16.657h18.654l4.2-12.164-2.443-21.58h-9.916l-10.492-9.947v-9.45l6.253-5.706,24.608-8.24v-13.421l-20.37,9.21-7.768-6.226,17.684-15.51v-16.177l-7.629-5.778,7.629-14.877-1.753-3.88-21.742,1.393v11.331L550.6,1415.6l-28.9,12.223-4.282,15.328Z" transform="translate(-544.822 -1155.151)" fill="#f3e2ac" stroke="#c8c29d" stroke-linecap="round" stroke-linejoin="round" stroke-width="2"/>
      <path id="Path_1021" data-name="Path 1021" d="M695.986,1215.617l-15,2.455-27.832-21.7L659.1,1182.7l-11.569-2.637-2.442,5.484,10.58,4.51" transform="translate(-407.855 -1342.807)" fill="none" stroke="#fff" stroke-linecap="round" stroke-linejoin="round" stroke-width="2"/>
      <path id="Path_1022" data-name="Path 1022" d="M655.794,1192.867l-14.69-7.4" transform="translate(-411.165 -1338.293)" fill="none" stroke="#fff" stroke-linecap="round" stroke-linejoin="round" stroke-width="2"/>
      <path id="Path_1023" data-name="Path 1023" d="M682.594,1183.928l-3.112,12.945v10.39" transform="translate(-379.288 -1339.579)" fill="none" stroke="#fff" stroke-linecap="round" stroke-linejoin="round" stroke-width="2"/>
      <path id="Path_1077" data-name="Path 1077" d="M641.879,1460.35l32.525-36.7,140.4,39.973h26.319l-21.483.978,1.516,24.356,17.725,11.552-1.927-10.315V1475.19s3.888-10.343,4.169-11.563" transform="translate(-410.521 -1139.523)" fill="none" stroke="#fff" stroke-linecap="round" stroke-linejoin="round" stroke-width="2"/>
      <path id="Path_1078" data-name="Path 1078" d="M743.748,1448.522l.107,16.926" transform="translate(-325.909 -1118.77)" fill="none" stroke="#fff" stroke-linecap="round" stroke-linejoin="round" stroke-width="2"/>
      <path id="Path_1079" data-name="Path 1079" d="M801.585,1511.284l-13.4-30.108-16.706-12.149-21.953-3.939" transform="translate(-321.111 -1104.946)" fill="none" stroke="#fff" stroke-linecap="round" stroke-linejoin="round" stroke-width="2"/>
      <path id="Path_1080" data-name="Path 1080" d="M779.864,1493.541l7.779-2.5-2.565-6.514h-9.4" transform="translate(-299.391 -1088.727)" fill="none" stroke="#fff" stroke-linecap="round" stroke-linejoin="round" stroke-width="2"/>
      <path id="Path_1025" data-name="Path 1025" d="M767.053,1193.271l-5.224-8.285H736.8" transform="translate(-331.681 -1338.697)" fill="none" stroke="#fff" stroke-linecap="round" stroke-linejoin="round" stroke-width="2"/>
      <path id="Path_1027" data-name="Path 1027" d="M619.544,1266.445l8.914-9.874,16.05,2.041-13.828-22.857-2.222-19.221" transform="translate(-429.073 -1312.368)" fill="none" stroke="#fff" stroke-linecap="round" stroke-linejoin="round" stroke-width="2"/>
      <path id="Path_1028" data-name="Path 1028" d="M663.112,1255.493l-10.457,2.844v-7.92L632.294,1239.2" transform="translate(-418.483 -1293.454)" fill="none" stroke="#fff" stroke-linecap="round" stroke-linejoin="round" stroke-width="2"/>
      <path id="Path_1030" data-name="Path 1030" d="M603.376,1276.389l44.416-20.7" transform="translate(-442.502 -1279.692)" fill="none" stroke="#fff" stroke-linecap="round" stroke-linejoin="round" stroke-width="2"/>
      <path id="Path_1031" data-name="Path 1031" d="M638.8,1253.608l45.825,33.372-2.027,24.211" transform="translate(-413.078 -1281.43)" fill="none" stroke="#fff" stroke-linecap="round" stroke-linejoin="round" stroke-width="2"/>
      <path id="Path_1032" data-name="Path 1032" d="M669.347,1258.821l-3.09,23.817" transform="translate(-390.272 -1280.748)" fill="none" stroke="#fff" stroke-linecap="round" stroke-linejoin="round" stroke-width="2"/>
      <path id="Path_1036" data-name="Path 1036" d="M735.639,1322.181l3.73,14.045,6.313,14.154,9.256,8.854" transform="translate(-332.644 -1224.204)" fill="none" stroke="#fff" stroke-linecap="round" stroke-linejoin="round" stroke-width="2"/>
      <path id="Path_1038" data-name="Path 1038" d="M712.448,1387.631,718.5,1404l10.161,4.885v8.733l2.265-9.96,8.5-3.658h3.889v-27.453l3.629-8.676v-17.042l-16.02-18.916-6.421-12.18v-15.271" transform="translate(-351.906 -1238.988)" fill="none" stroke="#fff" stroke-linecap="round" stroke-linejoin="round" stroke-width="2"/>
      <path id="Path_1039" data-name="Path 1039" d="M708.714,1305.308l14.793,8.6,6.241,20.754-26.344,2.97" transform="translate(-359.418 -1238.286)" fill="none" stroke="#fff" stroke-linecap="round" stroke-linejoin="round" stroke-width="2"/>
      <path id="Path_1040" data-name="Path 1040" d="M740.967,1311.8l-2.312,26.49-5.916,6.942-3.119,8.1-15.7-6.84" transform="translate(-350.687 -1232.865)" fill="none" stroke="#fff" stroke-linecap="round" stroke-linejoin="round" stroke-width="2"/>
      <path id="Path_1041" data-name="Path 1041" d="M756.148,1339.44l-9.383,5.734H732.9l-10.341-10.689" transform="translate(-343.504 -1213.936)" fill="none" stroke="#fff" stroke-linecap="round" stroke-linejoin="round" stroke-width="2"/>
      <path id="Union_2" data-name="Union 2" d="M0,150.482l1.97-11.959L18.408,118.53l20.776,5.683,3.313-3.5-22.518-7.536-1.57-25.506,16.227-4.614,9.475-18.639,6.956,2.691-6.95-3.2,4.63-16.345-7.973-10.27L26.388,35.5,23.809,14.85,28.574,0,46.227,5.388V12.8L64.6,9.1l4.723,10.25L81.549,18l9.172,4.575h10.94l9.071,3.72-3.873,13.03,11.813,12.738L114.7,63.9l3.972,9.409L94.045,79.667,75.509,68.85,52.539,67.676l5.978,2.312V80.134l25.257,7.534,4.152,13.943,11.941-5.939,10.259,12.436L95.495,118.53l-6.146-3.31L66.276,136.125l-19.364-6.553-19.191,4.611-11.47-4.611,3.727,21.6Z" transform="translate(30.316 264.599)" fill="#f3e2ac" stroke="#c8c29d" stroke-linecap="round" stroke-linejoin="round" stroke-width="2"/>
      <path id="Path_1049" data-name="Path 1049" d="M586.745,1345.821,583.59,1322.8l-5.2-6.192,8.35-12.105" transform="translate(-463.252 -1238.955)" fill="none" stroke="#fff" stroke-linecap="round" stroke-linejoin="round" stroke-width="2"/>
      <path id="Path_1050" data-name="Path 1050" d="M589.007,1321.061l-6.053-4.716-10.047-1.33" transform="translate(-467.81 -1230.184)" fill="none" stroke="#fff" stroke-linecap="round" stroke-linejoin="round" stroke-width="2"/>
      <path id="Path_1052" data-name="Path 1052" d="M551.382,1364.669l-16.128-7.023" transform="translate(-499.085 -1194.608)" fill="none" stroke="#fff" stroke-linecap="round" stroke-linejoin="round" stroke-width="2"/>
      <path id="Path_1053" data-name="Path 1053" d="M540.682,1365.317l14.429,10.826" transform="translate(-494.576 -1188.206)" fill="none" stroke="#fff" stroke-linecap="round" stroke-linejoin="round" stroke-width="2"/>
      <path id="Path_1086" data-name="Path 1086" d="M773.007,1392.841l10.285,11.032L780.4,1405l-9.146-9.942-2.355,2.633,9.241,9.952" transform="translate(-305.021 -1165.237)" fill="none" stroke="#fff" stroke-linecap="round" stroke-linejoin="round" stroke-width="2"/>
      <path id="Path_1087" data-name="Path 1087" d="M770.907,1433.9l20.38,5.9-5.244,9.721h-8.173l-5.976-6.6Z" transform="translate(-303.35 -1130.974)" fill="#fff"/>
      <path id="Path_1055" data-name="Path 1055" d="M564.455,1366.329l-7.578,14.346" transform="translate(-481.125 -1187.362)" fill="none" stroke="#fff" stroke-linecap="round" stroke-linejoin="round" stroke-width="2"/>
      <path id="Path_1071" data-name="Path 1071" d="M654.412,1429.821l43.267,13.74,47.712,14.868,5.917-14.868,9.469,3.15-7.7,21.688-11.2,31.53,14.338-31.53,19.71,7.878-15.15,51.348-18.9-6.867" transform="translate(-400.112 -1134.377)" fill="none" stroke="#c8c29d" stroke-linecap="round" stroke-linejoin="round" stroke-width="2"/>
      <path id="Path_1072" data-name="Path 1072" d="M728.839,1442.509l-3.583,15.476,24.877,6.259" transform="translate(-341.268 -1123.788)" fill="none" stroke="#c8c29d" stroke-linecap="round" stroke-linejoin="round" stroke-width="2"/>
      <path id="Path_1073" data-name="Path 1073" d="M777.7,1442.509l-6.812,9.523,20.952,22.866H768.083l-5.322,12.293" transform="translate(-310.116 -1123.788)" fill="none" stroke="#c8c29d" stroke-linecap="round" stroke-linejoin="round" stroke-width="2"/>
      <path id="Path_1074" data-name="Path 1074" d="M794.592,1507.1l-3.868-10.383h-4.586l-10.086-26.533,3.75-9.755" transform="translate(-299.077 -1108.835)" fill="none" stroke="#c8c29d" stroke-linecap="round" stroke-linejoin="round" stroke-width="2"/>
      <path id="Path_1075" data-name="Path 1075" d="M794.847,1462.651l-2.919,14.093,13.241,29.241" transform="translate(-285.89 -1106.98)" fill="none" stroke="#c8c29d" stroke-linecap="round" stroke-linejoin="round" stroke-width="2"/>
      <path id="Path_1076" data-name="Path 1076" d="M777.409,1463.309l13.861,4.3L800.424,1492l-10.7,2.6,10.7-2.6,5.2,13.659" transform="translate(-297.95 -1106.43)" fill="none" stroke="#c8c29d" stroke-linecap="round" stroke-linejoin="round" stroke-width="2"/>
      <path id="Path_1082" data-name="Path 1082" d="M741.491,1467.01l-.8-38.655,8.363-9.171h11l-2.17,13.4-16.4-2.579,15.125,1.3,2-11.214h-9.556l-7.566,8.856,14.376,1.057,1.416-9.082h-8.226l-5.615,7.43H755.26l.608-6.5h-6.81l-2.961,5.457h8.231v-4.342h-4.735l-1.427,3.193h5.293v-2.238h-3v1.286H752.4" transform="translate(-328.445 -1143.252)" fill="none" stroke="#fff" stroke-linecap="round" stroke-linejoin="round" stroke-width="2"/>
      <path id="Path_1083" data-name="Path 1083" d="M865.929,1444.744l-78.358-21.061" transform="translate(-289.509 -1139.499)" fill="none" stroke="#000" stroke-linecap="round" stroke-linejoin="round" stroke-width="2"/>
      <path id="Path_1090" data-name="Path 1090" d="M489.889,1438.58l6.117,6.267,18.343-1.169,13.993-5.1,26.18-27.632,18.289-1.986v-29.369" transform="translate(-536.765 -1176.293)" fill="none" stroke="#fff" stroke-linecap="round" stroke-linejoin="round" stroke-width="2"/>
      <path id="Path_1091" data-name="Path 1091" d="M558.561,1485.732l-7.418-41.681,7.548-19.781-7.548-17.7-16.391-11.006" transform="translate(-499.502 -1162.962)" fill="none" stroke="#fff" stroke-linecap="round" stroke-linejoin="round" stroke-width="2"/>
      <path id="Path_1092" data-name="Path 1092" d="M543.443,1392.069l8.275,14.91,17.471,1.158,88.276,27.947,4.624-4.552,11.921,4.168-3.7,6.02,14.794-5.517,17.555-11.177-16.312-4.514-40.47-5.58-26.413-10.222-48.514-11.184-12.248-6.667Z" transform="translate(-492.283 -1170.229)" fill="#eaeaea" stroke="#d1d1d1" stroke-linecap="round" stroke-linejoin="round" stroke-width="2"/>
      <path id="Path_1093" data-name="Path 1093" d="M550.435,1399.992l-3.847,7.411,4.33,3.151,3.249-1.316,8.078,14.626,27.251,2.415,24.6,14.456,38.734,2.467,7.593,4.711,6.346-4.711h10.277l2.019-6.909L569.708,1401.4Z" transform="translate(-489.671 -1159.269)" fill="#bcbcbc" stroke="#bcbcbc" stroke-linecap="round" stroke-linejoin="round" stroke-width="2"/>
      <path id="Path_1094" data-name="Path 1094" d="M535.1,1387.133l16.6,5.123v10.987l8.427,8.365,15.262-1.645,99.519,31.662,1.5-1.836-11.681-3.419,2.135-1.55,11.166,3.491v-1.941l-8.458-2.6" transform="translate(-499.211 -1170.001)" fill="none" stroke="#fff" stroke-linecap="round" stroke-linejoin="round" stroke-width="2"/>
      <path id="Path_1097" data-name="Path 1097" d="M483.6,1432.535l14.583,26.032v11.883l3.273,7.229-3.273,8.82-17.358-20.588-7.07-14.513,1.9-15.32Z" transform="translate(-550.168 -1132.112)" fill="#f3e2ac" stroke="#c8c29d" stroke-linecap="round" stroke-linejoin="round" stroke-width="2"/>
      <path id="Path_1098" data-name="Path 1098" d="M480.189,1475.287l8.067-11.232,13.89,25.631-5.563,9.706Z" transform="translate(-544.822 -1105.807)" fill="#f3e2ac" stroke="#c8c29d" stroke-linecap="round" stroke-linejoin="round" stroke-width="2"/>
      <g id="Ellipse_42" data-name="Ellipse 42" transform="translate(52.18 321.456)" fill="#fff" stroke="#c8c29d" stroke-linejoin="round" stroke-width="2">
        <ellipse cx="7.322" cy="7.338" rx="7.322" ry="7.338" stroke="none"/>
        <ellipse cx="7.322" cy="7.338" rx="6.322" ry="6.338" fill="none"/>
      </g>
      <path id="Path_1110" data-name="Path 1110" d="M551.707,1509.132l43.006,20.319,18.252,6.213,124.04,1.424v-10.43l-8.07-13.211H718.619l6.837-13.957,6.049-19.778-24.212-7.4-3.7,12,1.527,8.985,2.174,23.359,2.162,19" transform="translate(-485.419 -1098.917)" fill="none" stroke="#c8c29d" stroke-width="2"/>
      <path id="Path_1111" data-name="Path 1111" d="M566.029,1487.566l-.691,47.948" transform="translate(-474.098 -1086.188)" fill="none" stroke="#c8c29d" stroke-linecap="round" stroke-linejoin="round" stroke-width="2"/>
      <path id="Path_1112" data-name="Path 1112" d="M554.188,1498.2l41.846-.814,16.712.814,13.131,13.667,1.536,48.851" transform="translate(-483.358 -1077.993)" fill="none" stroke="#c8c29d" stroke-linecap="round" stroke-linejoin="round" stroke-width="2"/>
      <path id="Path_1113" data-name="Path 1113" d="M576.262,1486.75l2.312,57.767" transform="translate(-465.023 -1086.868)" fill="none" stroke="#c8c29d" stroke-linecap="round" stroke-linejoin="round" stroke-width="2"/>
      <path id="Path_1114" data-name="Path 1114" d="M576.262,1489.967l23.194,1.333,18.526,11.063,11.6,18.684" transform="translate(-465.023 -1084.183)" fill="none" stroke="#c8c29d" stroke-linecap="round" stroke-linejoin="round" stroke-width="2"/>
      <path id="Path_1115" data-name="Path 1115" d="M586.925,1504.142l5.632-12.539" transform="translate(-456.167 -1082.818)" fill="none" stroke="#c8c29d" stroke-linecap="round" stroke-linejoin="round" stroke-width="2"/>
      <path id="Path_1116" data-name="Path 1116" d="M561.126,1541.2l28.715,3.053,19.94,2.774,20.673,9.716,53.94-2.7-6.979-74.016,5.446-10.556" transform="translate(-477.596 -1101.289)" fill="none" stroke="#c8c29d" stroke-linecap="round" stroke-linejoin="round" stroke-width="2"/>
      <path id="Path_1117" data-name="Path 1117" d="M584.71,1511.984l-.4,19.334" transform="translate(-458.341 -1065.81)" fill="none" stroke="#c8c29d" stroke-linecap="round" stroke-linejoin="round" stroke-width="2"/>
      <path id="Path_1136" data-name="Path 1136" d="M648.842,1514.448,648,1535.514" transform="translate(-405.438 -1063.754)" fill="none" stroke="#c8c29c" stroke-linecap="round" stroke-linejoin="round" stroke-width="2"/>
      <path id="Path_1120" data-name="Path 1120" d="M616.242,1486.337l36.24-1.345,34.724,11,3.934-11-15.477-5.7" transform="translate(-429.985 -1091.254)" fill="none" stroke="#c8c29d" stroke-linecap="round" stroke-linejoin="round" stroke-width="2"/>
      <path id="Path_1121" data-name="Path 1121" d="M660.1,1475.395l-1.1,14.913" transform="translate(-398.13 -1094.51)" fill="none" stroke="#c8c29d" stroke-linecap="round" stroke-linejoin="round" stroke-width="2"/>
      <path id="Path_1122" data-name="Path 1122" d="M623.308,1578.279l-5.558-80.844" transform="translate(-430.563 -1077.952)" fill="none" stroke="#c8c29d" stroke-linecap="round" stroke-linejoin="round" stroke-width="2"/>
      <path id="Path_1123" data-name="Path 1123" d="M597.692,1563.909l12.975-20.868,11.219,9.746,21.2,1.718,16.939-4.294-5.4-27.534,6.878,27.534,13.466-1.474-3.128-40.9,3.128,40.9,8.881,16.815,18.754,5.776,2.1.648-1.389-32.586H689.9v20.6l-6.05,5.566-1.472,12.651s1.4-13.044,1.472-12.651l20.858,6.424,17.5-.648,2.032-16.823-5.058-15.115s-15.136.167-15.861,0" transform="translate(-447.224 -1069.268)" fill="none" stroke="#c8c29d" stroke-linecap="round" stroke-linejoin="round" stroke-width="2"/>
      <path id="Path_1184" data-name="Path 1184" d="M690.115,1527.211l14.807-22.842,16.664-4.005,13.516-5.549,15.759,6.932,38.453-3.187,11.424,10.141-28.547,10.6,7.087,11.83h-50.8l-21.117-8.793Z" transform="translate(-370.457 -1080.138)" fill="#79d7f5" stroke="#79d7f5" stroke-linecap="round" stroke-linejoin="round" stroke-width="2"/>
      <path id="Path_884" data-name="Path 884" stroke="#7e20ff" d="M3619.3-814.188s5.221-16.9,2.859-28.615-7.565-.412-12.308-18.232-4.416-23.057-2.053-44.746,9.516-23.628,11.5-42.009,2.328-28.1-3.973-36.988-16.186-5.2-24.562-11.16-8.939-12.662-8.939-12.662,32.469-19.166,58.773-19.166,49.022,21.578,49.022,21.578" fill="none" transform="translate(-3182.146 1241.416)" stroke-linecap="round" stroke-linejoin="round" stroke-width="4" stroke-dasharray="8"/>
      <path id="Path_1140" data-name="Path 1140" d="M661.222,1625.425l16.424-45.6,17.736-42.9" transform="translate(-394.455 -1044.996)" fill="none" stroke="#fff" stroke-linecap="round" stroke-linejoin="round" stroke-width="2"/>
      <path id="Path_1124" data-name="Path 1124" d="M659.837,1497.772l9.513,14.188-4.1,13.846,1.867,21.632" transform="translate(-395.605 -1077.67)" fill="none" stroke="#c8c29d" stroke-linecap="round" stroke-linejoin="round" stroke-width="2"/>
      <path id="Path_1125" data-name="Path 1125" d="M664.406,1481.79l13.967,7.25v7.326l6.584,2.217-3.441,6.2h-6.583l-6.847,5.1-16.468,1.847" transform="translate(-402.434 -1091.008)" fill="none" stroke="#c8c29d" stroke-linecap="round" stroke-linejoin="round" stroke-width="2"/>
      <path id="Path_1126" data-name="Path 1126" d="M684.788,1536.448l4.9-13.519-1.464-15.315L677.6,1495.262l-1.323-6.624-9.335-2.565" transform="translate(-389.701 -1087.433)" fill="none" stroke="#c8c29d" stroke-linecap="round" stroke-linejoin="round" stroke-width="2"/>
      <path id="Path_1127" data-name="Path 1127" d="M684.683,1558.731l-13.046-23.715-4.182-40.477" transform="translate(-389.278 -1080.368)" fill="none" stroke="#c8c29c" stroke-linecap="round" stroke-linejoin="round" stroke-width="2"/>
      <path id="Path_1128" data-name="Path 1128" d="M582.046,1526.963l23.136,4.776h45.456L669.6,1515.8l-18.964,15.943-16.416,16.225-11.055,31.992" transform="translate(-460.219 -1062.629)" fill="none" stroke="#fff" stroke-linecap="round" stroke-linejoin="round" stroke-width="2"/>
      <path id="Path_1129" data-name="Path 1129" d="M711.033,1514.074l-72.413.718" transform="translate(-413.229 -1064.066)" fill="none" stroke="#fff" stroke-linecap="round" stroke-linejoin="round" stroke-width="2"/>
      <path id="Path_1130" data-name="Path 1130" d="M659.345,1489.967l-8.222,13.205" transform="translate(-402.843 -1084.183)" fill="none" stroke="#c8c29d" stroke-linecap="round" stroke-linejoin="round" stroke-width="2"/>
      <path id="Path_1134" data-name="Path 1134" d="M585.28,1506.909l-.523,8.662" transform="translate(-457.967 -1070.046)" fill="none" stroke="#c8c29d" stroke-width="2"/>
      <path id="Path_1135" data-name="Path 1135" d="M630.216,1516.432l16.265-1.985" transform="translate(-420.209 -1063.754)" fill="none" stroke="#fff" stroke-linecap="round" stroke-linejoin="round" stroke-width="2"/>
      <path id="Path_1137" data-name="Path 1137" d="M681.735,1518.652,691.7,1533.6l-7.794,17.791" transform="translate(-377.417 -1060.246)" fill="none" stroke="#c8c29c" stroke-linecap="round" stroke-linejoin="round" stroke-width="2"/>
      <path id="Path_1138" data-name="Path 1138" d="M688.011,1542.4l-11.305-13.032" transform="translate(-381.594 -1051.305)" fill="none" stroke="#c8c29c" stroke-linecap="round" stroke-width="2"/>
      <path id="Path_1139" data-name="Path 1139" d="M872.316,1658.132,680.135,1536.864" transform="translate(-378.746 -1045.048)" fill="none" stroke="#fff" stroke-linecap="round" stroke-linejoin="round" stroke-width="2"/>
      <path id="Path_1141" data-name="Path 1141" d="M689.036,1548.351l51.926,32-38.279,60.838-43.814-26.244" transform="translate(-396.41 -1035.462)" fill="none" stroke="#fff" stroke-linecap="round" stroke-linejoin="round" stroke-width="2"/>
      <path id="Path_1142" data-name="Path 1142" d="M727.518,1580.306l-52.356-31.99" transform="translate(-382.877 -1035.491)" fill="none" stroke="#fff" stroke-linecap="round" stroke-linejoin="round" stroke-width="2"/>
      <path id="Path_1143" data-name="Path 1143" d="M721.552,1587.5l-49.983-30.434" transform="translate(-385.861 -1028.191)" fill="none" stroke="#fff" stroke-linecap="round" stroke-linejoin="round" stroke-width="2"/>
      <path id="Path_1144" data-name="Path 1144" d="M713.72,1595.276l-45.794-27.237" transform="translate(-388.887 -1019.031)" fill="none" stroke="#fff" stroke-linecap="round" stroke-linejoin="round" stroke-width="2"/>
      <path id="Path_1145" data-name="Path 1145" d="M698.355,1594.342l-20.061-13.09" transform="translate(-380.275 -1008.005)" fill="none" stroke="#fff" stroke-linecap="round" stroke-linejoin="round" stroke-width="2"/>
      <path id="Path_1146" data-name="Path 1146" d="M685.547,1590.035l-21.4-13.049" transform="translate(-392.024 -1011.565)" fill="none" stroke="#fff" stroke-linecap="round" stroke-linejoin="round" stroke-width="2"/>
      <path id="Path_1165" data-name="Path 1165" d="M723.932,1526.791l20.393,6.53,14.01,14.856v14.733l8.951,12.728v10.438" transform="translate(-342.368 -1053.453)" fill="none" stroke="#c8c29c" stroke-linecap="round" stroke-linejoin="round" stroke-width="2"/>
      <path id="Path_1166" data-name="Path 1166" d="M762.257,1526.791l-18.09,2.244-7.8,6.357" transform="translate(-332.037 -1053.453)" fill="none" stroke="#c8c29c" stroke-linecap="round" stroke-linejoin="round" stroke-width="2"/>
      <path id="Path_1167" data-name="Path 1167" d="M719.553,1569.267l8.273-17.46V1527.1" transform="translate(-346.005 -1053.196)" fill="none" stroke="#c8c29c" stroke-linecap="round" stroke-linejoin="round" stroke-width="2"/>
      <path id="Path_1168" data-name="Path 1168" d="M758.109,1551.675l-17.122-10.313-16.766-1.132" transform="translate(-342.128 -1042.238)" fill="none" stroke="#c8c29c" stroke-width="2"/>
      <path id="Path_1169" data-name="Path 1169" d="M728.036,1569.651l-9.045-7.14.83-7.548,11.945-1.06,5.869-9.112,19.473,11.491-1.023,7.214H740.749l-3.114,6.154Z" transform="translate(-346.472 -1038.431)" fill="#d1e0a8" stroke="#c8c29c" stroke-linecap="round" stroke-linejoin="round" stroke-width="2"/>
      <path id="Path_1170" data-name="Path 1170" d="M711.074,1568.039l-7.613,15.764,14.173,11.119v8.321l25.788,20.035,16.539-25.075-24.852-14.4-24.036-15.764" transform="translate(-361.201 -1019.031)" fill="#d1e0a8" stroke="#fefcf7" stroke-linecap="round" stroke-linejoin="round" stroke-width="2"/>
      <path id="Path_1171" data-name="Path 1171" d="M760.251,1582.886l-19.241,28.521,21.366,15.317,12.365-19.695,4.579-12.506Z" transform="translate(-328.183 -1006.641)" fill="#d1e0a8" stroke="#fff" stroke-width="2"/>
      <path id="Path_883" data-name="Path 883" stroke="#7e20ff" d="M3660.772-728.746s-30.131-10.7-41.835-22.405-5.732-12.278-4.982-24.407-.618-4.329-4.647-33.874c-2.189-16.058.883-50.332,0-62.559-.588-8.151-7.335-11.379-8.441-16.363-2.955-13.356-.758-14.988,3.794-18.94,6.005-5.213,10.518,5.732,21.646,9.056s14.9-2.883,24.51,2.164,3.771,12.522,13.917,18.024c3.358,1.821,9.618-.961,13.442,0,6.111,1.545,9.366,5.42,13.226,3.983,5.77-2.147,10.01-12.111,10.01-12.111" fill="none" transform="translate(-3167.453 1340.795)" stroke-linecap="round" stroke-linejoin="round" stroke-width="4" stroke-dasharray="8"/>
      <path id="Path_1175" data-name="Path 1175" d="M631.948,1531.238l4.282,26.744" transform="translate(-418.77 -1049.743)" fill="none" stroke="#c8c29d" stroke-linecap="round" stroke-linejoin="round" stroke-width="2"/>
      <path id="Path_1177" data-name="Path 1177" d="M665.525,1542.273l16.03,5.574" transform="translate(-390.881 -1040.534)" fill="none" stroke="#c8c29d" stroke-linecap="round" stroke-width="2"/>
      <path id="Path_1176" data-name="Path 1176" d="M657.551,1542.643l-4.267,8.411" transform="translate(-401.049 -1040.224)" fill="none" stroke="#c8c29d" stroke-linecap="round" stroke-linejoin="round" stroke-width="2"/>
      <path id="Path_1181" data-name="Path 1181" d="M671.52,1569.4l-12.088-5.985-10.608,9.139,12.672,9.509Z" transform="translate(-404.752 -1022.889)" fill="#d1e0a8"/>
      <path id="Path_885" data-name="Path 885" stroke="#7e20ff" d="M3710.118-935.666s-6.325,21.088-27.857,27.179c-9.366,2.65-22.977-4.882-34.371-5.994a52.79,52.79,0,0,0-23.9,3.181s-11.527,2.942-25.079,27.946-12.412,50.849-29.958,70.56-80.051-3.219-96.113,8.286-8.365,46.018-8.365,46.018" fill="none" transform="translate(-3281.153 1318.274)" stroke-linecap="round" stroke-linejoin="round" stroke-width="4" stroke-dasharray="8"/>
      <path id="Path_1183" data-name="Path 1183" d="M633.911,1578.52l8.9-4.7-3.655-9.337-6.992,4.937Z" transform="translate(-418.592 -1021.995)" fill="#d1e0a8"/>
      <path id="Path_1178" data-name="Path 1178" d="M625.2,1551.785l26.944,24.984,7.821,12.165v15.676" transform="translate(-424.374 -1032.595)" fill="none" stroke="#c8c29d" stroke-linecap="round" stroke-linejoin="round" stroke-width="2"/>
      <path id="Path_1179" data-name="Path 1179" d="M621.14,1570.021l21.295,10.744,20.164-14.127,4.774-16.152-4.774,16.152-13.643-16.152" transform="translate(-427.747 -1033.679)" fill="none" stroke="#c8c29d" stroke-linecap="round" stroke-linejoin="round" stroke-width="2"/>
      <path id="Path_1180" data-name="Path 1180" d="M645.59,1589.687l18.837-16.911v-5.715L682.743,1569l-4.664,10.023s-13.714-6.146-13.652-6.25,13.652,6.25,13.652,6.25l-11.3,12.772-14.112-7.955,14.112,7.955,11.3,9.607-25.411-17.562,4.046-4.817-14.2-11.965" transform="translate(-409.998 -1033.015)" fill="none" stroke="#c8c29d" stroke-linecap="round" stroke-linejoin="round" stroke-width="2"/>
      <path id="Path_1182" data-name="Path 1182" d="M632.256,1568.951l1.191,9.439,8.856-4.521-2.953-9.226" transform="translate(-418.515 -1021.865)" fill="none" stroke="#c8c29d" stroke-linecap="round" stroke-linejoin="round" stroke-width="2"/>
      <path id="Path_1185" data-name="Path 1185" d="M597.883,1539.831l16.526,34.083,32.723,26.555,45.274,16.518,19.693,5.085,80.472,51.459" transform="translate(-447.065 -1042.571)" fill="none" stroke="#fff" stroke-linecap="round" stroke-linejoin="round" stroke-width="2"/>
      <path id="Path_1186" data-name="Path 1186" d="M729.027,1681.756,645.7,1580.218" transform="translate(-407.352 -1008.867)" fill="none" stroke="#fff" stroke-linecap="round" stroke-linejoin="round" stroke-width="2"/>
      <path id="Path_1187" data-name="Path 1187" d="M687.176,1669.109l8.429-10.776,32.461-41.5-9.365,16.933,24.149,12.474-32.092,8.7-15.153,3.391" transform="translate(-376.559 -981.303)" fill="none" stroke="#fff" stroke-linecap="round" stroke-linejoin="round" stroke-width="2"/>
      <path id="Path_1191" data-name="Path 1191" d="M764.952,1734.846l-7.87-58.784-22.993-24.921,8.191-8.559" transform="translate(-333.931 -956.823)" fill="none" stroke="#fff" stroke-linecap="round" stroke-linejoin="round" stroke-width="2"/>
      <path id="Path_1188" data-name="Path 1188" d="M764.534,1737.41l-4.73-47.863-17.241-29.595L727.874,1642.3l-4.815,2.87-9.16-5.656" transform="translate(-350.702 -959.387)" fill="none" stroke="#fff" stroke-linecap="round" stroke-linejoin="round" stroke-width="2"/>
      <path id="Path_1189" data-name="Path 1189" d="M768.121,1708.894l-15.619-.48-47.157-72.233" transform="translate(-357.807 -962.166)" fill="none" stroke="#fff" stroke-linecap="round" stroke-linejoin="round" stroke-width="2"/>
      <path id="Path_1190" data-name="Path 1190" d="M814.615,1697.452l-82.211,11-20.524-12.3v-15.221l23.132-15.363" transform="translate(-352.378 -937.643)" fill="none" stroke="#fff" stroke-linecap="round" stroke-linejoin="round" stroke-width="2"/>
      <path id="Path_1192" data-name="Path 1192" d="M746.745,1660.883l38.338,40.042" transform="translate(-323.419 -941.551)" fill="none" stroke="#fff" stroke-linecap="round" stroke-linejoin="round" stroke-width="2"/>
      <path id="Path_1193" data-name="Path 1193" d="M684.786,1645.322l22.854,43.435" transform="translate(-374.882 -954.537)" fill="none" stroke="#fff" stroke-linecap="round" stroke-linejoin="round" stroke-width="2"/>
      <path id="Path_1194" data-name="Path 1194" d="M693.079,1659.278l8.207-3.249,9.907,19.263" transform="translate(-367.994 -945.602)" fill="none" stroke="#fff" stroke-linecap="round" stroke-linejoin="round" stroke-width="2"/>
      <path id="Path_1195" data-name="Path 1195" d="M715.336,1640.6l-15.845,11.94,17.392,28.972" transform="translate(-362.669 -958.476)" fill="none" stroke="#fff" stroke-linecap="round" stroke-linejoin="round" stroke-width="2"/>
      <path id="Path_882" data-name="Path 882" stroke="#7e20ff" d="M3524.238-755.139a97.043,97.043,0,0,0,26.2-7.777c9.643-4.389,19.6-13.856,31.059-15.478,26.713-3.781,34.026-.57,49.594,8.13s13.092,16.385,22.552,21.877,15.343-.948,15.343-.948" fill="none" transform="translate(-3229.983 1448.215)" stroke-linecap="round" stroke-linejoin="round" stroke-width="4" stroke-dasharray="8"/>
      <path id="Path_1196" data-name="Path 1196" stroke="#142d4c" d="M500.508,1382.285l5.02,29.245,63.163,47.1,151.5,35.974H842.781l139.069,99.58,98.309,122.4" fill="none" transform="translate(-527.945 -1174.046)" stroke-linecap="round" stroke-linejoin="round" stroke-width="2" stroke-dasharray="10"/>
      <path id="Path_1197" data-name="Path 1197" stroke="#142d4c" d="M777.3,1289.16l-35.339,77.215-60.281,89.161V1520.2l18.449,47.045,56.863,50.844" fill="none" transform="translate(-377.466 -1251.761)" stroke-linecap="round" stroke-linejoin="round" stroke-width="2" stroke-dasharray="10"/>
      <path id="Path_1198" data-name="Path 1198" d="M500.508,1393.085l24.324,61.959,35.73,36.238L645.374,1541l87.7,51.753,53.825,54.39,69.858,35.774,70.488,53.113,27.422,87.639,11.148,53.494-11.148,78.449" transform="translate(-527.945 -1165.034)" fill="none" stroke="#142d4c" stroke-linejoin="round" stroke-width="2" stroke-dasharray="10"/>
      <path id="Path_1199" data-name="Path 1199" stroke="#142d4c" d="M913.368,1731.315,787.5,1645.779l-56.849-26.654-31.914-5.866-51.717-25.415-77.458-34.623" fill="none" transform="translate(-470.589 -1031.398)" stroke-linecap="round" stroke-linejoin="round" stroke-width="2" stroke-dasharray="10"/>
      <path id="Path_881" data-name="Path 881" d="M3844.809-1129.874c5.667-3.415,28.309,5.021,31.617,8.386s-5.039,2.642,10,9.681,50.156,18.475,50.156,18.475l9.262-36.542s-47.89-57.175-81.926-94.81-44.788-55.32-54.217-55.729c-24.136-1.063-57.364,15.483-71.011,26.249-18.543,14.627,2.925,20.365,0,29.481,0,0,.568,6.982-11.7,6.982s-16.238-11.331-37.368-6.982-40.462,10.29-71.552,42.428-32.339,47.673-48.771,85.807-16.957,66.728-16.957,66.728-16.46,45.375-40.84,76.65-56.681,48.451-56.681,48.451h-13.227s-18.191,22.975-26.426,44.5-.741,24.765-6.512,41.6-2,11.361-17.057,25.686-24.138,14.16-43.189,31.615c-12.593,11.537-20.253,24.818-26.513,35.82-15.305,26.9,8.48,25.7,8.48,40.168s-8.48,17.719-8.48,17.719-7.11.7-8.65,2.941.325,4.514,2.488,6.018,6.163,0,6.163,0,15.865,19.012,23.618,25.893,4.608,1.483,12.245,5.777,18.3,11.4,18.3,11.4,57.924,8.087,92.778,35.461,48.114,71.706,48.114,71.706,45.648,18.083,63.29,30.961-6.681,6.018,17.931,31.557c9.845,10.216,22.457,17.213,33.581,25.9,15.628,12.2,30.168,26.073,46.936,44.7,27.944,31.045,12.13,25.455,20.607,42.576s18.748,23.061,29.1,43.733,4.571,22.317,12.325,38.953,10.741,26.6,22.973,27.729,14.266-15.662,36.613-22.56,28.939-1.666,48.5-5.169,24.333-1.869,29.4-7.545-6.86-7.015-9.147-14.867-2.045-8.98,0-16.541,14.25-3.245,8.179-14-32.461-29.017-32.461-29.017l39.528-30.378s43.811,1.751,46.293-5.059-28.081-18.76-30.021-47.869,16.732-45.343,22.508-66.612-1.867-14.771,4.818-33.8c2.333-6.64,6.533-11.5,9.977-16.961,5.548-8.805,10.448-16.786,11.942-25.347,2.3-13.151-9.013-19.413-9.013-19.413V-613.87s-.719-20.875,9.013-46.537,17.26-23.054,25.336-46.244,6.824-31.472,6.97-46.516-20.18-7.88-37.482-15.782-32.554-25.229-32.554-25.229l14.244-102.408s-88.582-53.646-133.812-77.532-43.36-14.914-47.11-18.012-3.358-12.393-3.358-12.393-.829-5.36-7.347-8.213-18.179,3.66-18.728-3.2,5.838-31.384,15.548-36.809,33.549-1.512,45.273-10.13-2.877-18.344,1.622-24.342,9.6,4.479,23.888,1.716,22.628-1.678,33.253-12.771S3839.141-1126.459,3844.809-1129.874Z" transform="translate(-3405.705 1030.535)" fill="none" stroke="#142d4c" stroke-linejoin="round" stroke-width="4"/>
      <path id="Path_891" data-name="Path 891" stroke="#207dff" d="M3672.9-1083.1a58.326,58.326,0,0,0-17.042,13.858c-5.414,6.442-5.157,14.656-11.506,17.6-14.7,6.822-18.558-4.173-30.242-4.173s-15.8-1.739-18.231,8.563,5.218,24.115,1.91,30.372-8.813-8.892-15.139-5.341-10.166,19.545-10.166,19.545" fill="none" transform="translate(-3193.568 1202.578)" stroke-linecap="round" stroke-linejoin="round" stroke-width="4" stroke-dasharray="8"/>
      <path id="Path_890" data-name="Path 890" stroke="#207dff" d="M3444.115-1143.047s20.385,17.052,39.083,19.7,24.961-10.738,35.709-9.1-3.254,11.6,7.21,15.895,25.515-3.257,38.109,0,2.918,8.92,8.521,13.027,15.345-4.792,18.348,3.4-7.074,16.534-6.339,29.374,6.193,3.053,7.338,18.585-3.484,51.508-3.484,51.508" fill="none" transform="translate(-3296.534 1148.879)" stroke-linecap="round" stroke-linejoin="round" stroke-width="4" stroke-dasharray="8"/>
      <path id="Path_1433" data-name="Path 1433" d="M900.029,1426.85l-49.66-59.235-16.245-31.692-53.955,7.356-37.158,7.579-28.595,10.265-8.522,28.027,2.6,23.3,3.593,32.358,60.732,11.981h45.421l32.131-8.43Z" transform="translate(-487.323 -1198.061)" fill="red" opacity="0"/>
      <path id="Path_1200" data-name="Path 1200" d="M958.394,1273.695l32.5,7.047v10.584l58.559,21.235,10.994-39.924L928.885,1125.2l-43.847,7.473-37.7,24.917,6.629,21.665-6.629,9.441-30.607-9.441-29.259,4.687-28.009,16.012-39.2,34.5-27.138,46.294-25.942,91.649v9.449l39.134,18.835,31.853-12.286,8.1,1.469-1.661,12.529,5.27,5.108,41.005-2.947,3.3,7.707v6.623l17.835,1.253,2.9,10.193-7.463,18.631,3.338,12.775,4.125,6.417v23.328l-2.9,27.945,45.8-6.2,11.378,2.309,5.542,18.11,17.925,23.146,8.889,9.928,8.3-13.476,12.121,9.676L925,1550.149l-3.024-14.787,4.515-14.031,18.255-1.911,12.507,8.2,13.969-2.421,12.531-20.617,23.2-15.881-100.363-58.376L860.064,1413.4l-6.7-19.267-22.763-1.561,2.243-21.687,14.572-20.64,34.623-4.448,13.3-9.673-3.615-14.667,1.955-6.353,14.376,4.005,27.771-4.005L951,1304.039l4.823-16.944Z" transform="translate(-519.471 -1373.916)" fill="#ffeb00" opacity="0"/>
      <path id="Path_1435" data-name="Path 1435" d="M465.689,1543.387l8.023-.617,8.6-13.278-4.224-13.86-11.31-12.45,6.935-22.135,25.146-30.849,29.817-20.81,28.084-26.424,5.818-27.694L620.87,1393.2l63.273,5.582,45.27,13.323,70.637,19.83-6.834,14.234-12.787,1.778-16.083-3.248-10.286,8.886-6.571,17.345v19.4l8.059,6.892,15.68,5.4,3.482,11.549-6.225,14.324-19.34,16.053-24.957,15.3-43.294,16.962-22.434,2.356H639.472l-20,8.925-2.747,11.9v9.854l10.548,9.878,11.075,8.57,16.676,7.4,21,6.982,13.629,4.955-8.765,13.149-16.224,26.17-27.281-39.32-27.962-25.183L572.535,1606.8l-44.718-11.689-19.694-12.386-12.925-4.637-19.109-22.919-2.377-3.7-8.023,1.765Z" transform="translate(-556.865 -1179.9)" fill="#00ff9d" opacity="0"/>
      <path id="Path_1437" data-name="Path 1437" d="M829.207,1397.07l9.419,10.967,19.661,5.675,7.2,9.688,2.45,13.682-2.45,19.39-2.818,15.353-4.469,9.12-4.156,19.614-.56,15,1.243,20.77,3.473,7.676-6.168,12.63-12.285,11.936-16.892,3.431-19.713-4.715-11.97-1.661-15.821,2.268-8.811,4.108,8.067-16.836v-3.413l-8.067-2.708H750.739l-13-15.141-27.874-11.458-29.775-21.021L660.993,1486.5l-22.03-4.12-14.529-6.064-4.708-11.978,6.634-28.237,10.983-8.112,13.344,2.467,15.038-2.467,6.641-13.318,17.981,1.578,24.276,5.168H756.8l31.518-7.757Z" transform="translate(-428.922 -1161.708)" fill="#00a7ff" opacity="0"/>
      <path id="Path_1438" data-name="Path 1438" d="M908.885,1442.524l-11.708-4.857-21.195-3.068-28.16-17.911-24.247-21.265-23.81-9.667-23.648,1.969-36.99,14.108-3.932,4.4,7.84,10.451,23.708,6.92,6.9,15.557-3.3,28.165-7.81,25.092-4.46,28.278,2.585,27.431,12.984,20.664-3.3,31.137,17.954,11.041,18.325,1.957,11.4,2.024,8.039,15.353,24.737,5.512,4.542,2.515L869.4,1624.17l-2.274-31.339,4.678-35.4,15.237-36.734,15.9-22.458,5.942-23.616Z" transform="translate(-333.012 -1171.15)" fill="#ff0" opacity="0"/>
      <path id="Path_1439" data-name="Path 1439" d="M814.992,1683.976l1.87-22.54,10.766-17.249,9.847-21.344,2.579-20.93v-11.6l11.34-18.053,9.262-16.157,5.3-17.111-10.008-11.815-15.89,13.885L817.88,1534.9l-7.776-2.06-6.709-15.875L776.743,1514l-19.417-10.763L751.492,1514v13.173l9.043,10.84v61.214l4.12,28.337,1.044,14.5-1.044,12.007,12.385,14.769,27.988,13.886Z" transform="translate(-319.476 -1073.106)" fill="#ffb100" opacity="0"/>
      <path id="Path_1440" data-name="Path 1440" d="M863.222,1476.622l11.417,17.42-5.156,31.72-4.871,9.861v13.963l10.027,11.135V1622.5l4.15,27.961v26.776l13.531,15.162,32.541,14.275,7.456,22.8,24.021,24.034v5.765l-43.374,4.839-37.487,28.015-11.507,4.979-11.833-4.979-15.945-18.164-27.754-10.992-29.912,3.354-25.319,14.59L726.064,1789l-3.511-15.945-22.448-30.451-18.187-15.97-38.776-33.395-20.021-13.888-8.948-13.715,3.312-11.139-1.718-29.447,7.354-12.452,11.931-6.834,41.6,2.809,25.472.95,17.316-5.963,9.952-9.041L739.8,1562.7l10.4-27.451,7.4-15.121,15.517-15.33,24.09-5.546,24.091,4.756,14.5.79,10-3.32,12.347-13.174Z" transform="translate(-433.533 -1095.32)" fill="#ff00b1" opacity="0"/>
      <path id="Path_1441" data-name="Path 1441" d="M855.827,1699.042l-.469-8.319-33.083-27.589-12.8,3.273-8.211-4.395-13.491-15.6-6.808-5.6L757.02,1633l-28.926,3.158-24.88,14.323-28.046,8.736,16.307,26.6,13.832,19.7,8.141,21.576,3.766,18.536,10.881,18.535,11.231,9.858,12.022-4.118,14.727-14.292,25.75-8.994h22.753l35.431-4.944,7.727-6.763-7.727-5.724-5.529-9.711.907-10.084,3.381-5.736Z" transform="translate(-382.873 -964.821)" fill="#0062ff" opacity="0"/>
      <path id="Path_1434" data-name="Path 1434" d="M850.074,1444.9l13.82-94.13-33.956-18.916-22.005,13.353-11.063,19.721-9.094,4.648-14.111-2.323L762.8,1362.98H750.864l-5.589,10.5,3.049,20.625v9.416l-10.732-2.749-4.356-4.9-9.576,11.134,30.167,35.858,25.214-9.8,17.828-3.811,21.574,3.811,15.236,7.249,14.1,10.533Z" transform="translate(-342.594 -1216.131)" fill="#d801ff" opacity="0"/>
      <path id="Path_1436" data-name="Path 1436" d="M830.288,1522.908l2.924-10.021-4.981-3.011H809.594l-14.743-16.214-19.009-6.384-17.206-9.876-21.408-15.532-16.283-13.662-14.935-2.993v18.705l-24.561,23.357-34.787,19.473-39.794,14.191-27,1.082-12.7,1.253-16.03,8.615-2.574,14.145,3.518,8.8,27.784,18.87,31.518,10.439,12.6,5.742-26.1,37.747,3.583,14.823,28.065,13,26.824,14.075,16.268,12.56-2.951-12.56V1648.9l7.1-9.6,11.374-7.853,23.581.911,16.224,1.313,28.97,1.45,21.147-7.648,5.8-12.128L797.687,1576l11.907-26.395,8.829-11.28Z" transform="translate(-488.028 -1121.53)" fill="#00ff14" opacity="0"/>
    </g>
  </g>
</svg>
