<svg xmlns="http://www.w3.org/2000/svg" xmlns:xlink="http://www.w3.org/1999/xlink" width="380.299" height="237.616" viewBox="0 0 380.299 237.616">
  <defs>
    <clipPath id="clip-path">
      <path id="Path_1457" data-name="Path 1457" d="M-962.686-1801.087l75.451,16.015,64.738,6.664,60.807-1.291,57-10.886,28.589-8.675,32.386-11.461,32.061-14.806-.352-5.068,21.279-10.868-13.414-17.257-38.289-46.485-14.861-17.631-28.967-33.773-12.2-18.194-13.93-34.369-6.812-3.938-10.222-2.913-44.859,2.909-43.168,7.058-85.924,19.032-35.549,10.491-16,8.9-12.13,22.291-3.976,27.808v39.042l3.528,47.056,2.366,20.575Z" transform="translate(976.969 2022.618)" fill="#fff"/>
    </clipPath>
  </defs>
  <g id="Lilla_Ursvik" data-name="Lilla Ursvik" transform="translate(-638.973 -1348.977)">
    <g id="Mask_Group_3" data-name="Mask Group 3" transform="translate(633.031 1342.382)" clip-path="url(#clip-path)">
      <path id="Path_1068" data-name="Path 1068" d="M533.847,1379.569l.438,54.811,34.362,23.948,17.874,43.2,30.805,8.659V1524.5l36.328-6.564,7.675,17.2h23.432l16.468,8.755H726l18.706,7.329-8.9,23.922,22.823,25-7.493,23.817,7.493,17.51L726,1653.207H707.827l-34.209-19.8H649.683l-5.86,4.009v15.793l57.408,40.537,14.892-5.588H726l18.706,22.723-28.582,21.64-14.892-6.276L670,1756.079h46.124l51.184,32.209v-55.769l73.477-32.611,23.613-11.752,7.015,11.752,80.694,26.335h48.15l48.3,53.879,24.143,25.691,8.185,31.725-32.327,22.718,11.953,14.774,65.772-14.774,38.923,14.774h47.43l10.662,16.588,40.349,12.88,56.021-12.88,6.7,12.88h-14.508l7.805,22.572h-30.981l11.787,41.583,19.194,14.739v46.3h15.057V1910.589h20.147v-18.97l58.949-11.223,17.224,18.895-7.216,21.867,32.921,5.914,35.5-5.914,33.244,5.914,8.733-22.572V1886.46l-18.332-26.2v-86.018l18.332-80.587,62.748-93.508v-89.957l-81.081-15.168-84.851-71.267-67.49-26.583-89.407,26.583L1165.2,1473.4l-143.7,21.615-225.32-71.267-178.858-26.583Z" transform="translate(-889.806 -1246.165)" fill="#d1e0a8"/>
      <path id="Path_1173" data-name="Path 1173" d="M801.23,1685.789,784.3,1659.337l-91.218,49.5,57.878,72.913,6.021-12.949h10.134l-4.922-45.661,4.922-14.3Z" transform="translate(-477.575 -522.261)" fill="#d1e0a8"/>
      <path id="Path_1108" data-name="Path 1108" d="M592.631,1528.146l31.6,24.676,33.654,49.659,53.646-23.465v23.465l23.173-7.536,96.411,5.453,36.005-2.129,38.77-9.575-15.711,37.654-20.1-15.656H823.53l-46.657-6.043-45.381,2.236-18.42,12.9v55.932l-32.137-19.563-29.556-33.074-18.2-39.571-48.654-41.862Z" transform="translate(-758.603 -861.718)" fill="#d1e0a8"/>
      <path id="Path_1109" data-name="Path 1109" d="M755.585,1761.5l-23.172-42.745-36.5-31.983-93.572-39.882-41.786-28.37-13.914-31.052,8.4-25.875,41.865-22.375,58.751-7.682,48.531,10.54,31.508,22.629v-55.722l93.227-42.509,90.172,35.64h48.967l73.939,82.9,4.535,28.89-32.327,23.8,16.2,14.546,62.8-16.732,38.975,16.732h47.928l11.358,17.368,39.854,10.893,55.4-10.893,3.682,10.893h-11.375l4.584,21.671h-27.7l11.392,42.649,16.307,11.065,3.109,48.654,10,3.3,8.867-3.3-5.066-37.718,2.29-80.454h18.908V1666.9l58.761-11.41,17.087,20.188-6.891,21.251,37.334,7.75,26.082-7.75,35.332,5.255-31.167,57.548-6.521,57.005-16.114,48.934-22.013,44.753-9.382,51.815,24.968,56.248,35.411,31.008-7.731,10.174-78.845,5.285-32.048,17.839-38.532,30.841-9.676,8.826,58.444,50,5.439,18.25-15.675,12.072-6.289,18.446,6.289,27.126,18.321,12.621-9.859,14.256-91.7,10.548-35.134,3.49-14.685,3.523-36.389,17.777-7.623,8.517-38.409-40.145,4.516-12.191,10.91,3-5.236-50.711,6.744-11.994,15.345-8.427,17.434-14.165-17.434-27.377-79.891,45.121-10.454,4.848-36.693-47.491-29.465-46.825-5.351-35.326-81.524-91.676,9.664-15.423,18.25,18.225h10.472l43.137,51.078,9.355,2.136,30.156,50.239,3.378,14.323,32.844-14.323,17.666-17.818-3.359-8.946h-7.89l22.62-25.612,21.126,11.863v10.491h37.854l15.539-20.217L980.341,1916.866,923.987,1883.5l-79.35-17.835-32.481-31.653v-54.061l20.988-14.1,35.511-2.169,42.783,5.125,29.713,3.759h27.717l19.151,18.506,16.059-39.23-31.954,4.655H923.987l-60.793-4.655-54.235,9.66,3.2-26.311Z" transform="translate(-856.68 -1021.289)" fill="#f3e2ac" stroke="#c8c29d" stroke-linecap="round" stroke-linejoin="round" stroke-width="2"/>
      <path id="Path_1172" data-name="Path 1172" d="M638.855,1578.289l-24.149-11.609v42.5l32.084,43.232,76.746,56.946,20.047,18.894,10.969-16.1,16.837,16.1,13.481,4.531,37.9,46.762,14.525,5.172,28.6,53.788,51.569-22.218v-9.459H907.44l23.182-27.284,19.676,13.686v10.526l39.358-2.874,14.47-16.166-254.5-157.107-76.4-18.43Z" transform="translate(-680.472 -762.012)" fill="#eaeaea"/>
      <path id="Path_1133" data-name="Path 1133" d="M576.894,1504.148l1.718,21.656,27.528,4.377v-15.463Z" transform="translate(-778.365 -923.811)" fill="#d1e0a8"/>
      <path id="Path_1132" data-name="Path 1132" d="M628.463,1533.868l37.188.371-2.747-27.021H628.463Z" transform="translate(-644.857 -915.868)" fill="#d1e0a8"/>
      <path id="Path_1131" data-name="Path 1131" d="M716.456,1516.15l-7.738,7.677H697.786L684.692,1534.4l-32.874,4.9,26.246-57.186,23.051,11.469,3.108,16.107Z" transform="translate(-584.394 -980.821)" fill="#d1e0a8"/>
      <path id="Path_1102" data-name="Path 1102" d="M742.327,1633.516l-36.819-5.6-56.25-22.157L605.6,1574.982l-15.144-32.292,7.517-22.919,44.2-28.1,1.94-7.744-41.6,7.744-24.432-4.457,4.779,39.019H549.423l3.884,7.573-25.132,14.783,74.344,42.961,46.739,45.792,38.575,69.053,39.2-53.734Z" transform="translate(-904.491 -976.137)" fill="#d1e0a8"/>
      <path id="Path_1147" data-name="Path 1147" d="M770.426,1548.75l-98.982,152.811" transform="translate(-533.585 -808.404)" fill="none" stroke="#fff" stroke-linecap="round" stroke-width="2"/>
      <path id="Path_1148" data-name="Path 1148" d="M682.631,1747.828l116.008-179.547L759.951,1541.5l-5.4,5.865,16.242,10.911,3.388-2.372-14.232-8.54" transform="translate(-504.623 -827.161)" fill="none" stroke="#fff" stroke-linecap="round" stroke-linejoin="round" stroke-width="2"/>
      <path id="Path_1149" data-name="Path 1149" d="M962.61,1768.489,682.4,1598.767" transform="translate(-505.223 -678.987)" fill="none" stroke="#fff" stroke-linecap="round" stroke-width="2"/>
      <path id="Path_1150" data-name="Path 1150" d="M962.1,1784.036l-245.712-152.1,15.9-22.746-38.047-25.363" transform="translate(-474.552 -717.635)" fill="none" stroke="#fff" stroke-linecap="round" stroke-linejoin="round" stroke-width="2"/>
      <path id="Path_1151" data-name="Path 1151" d="M707.62,1658.821l36.107-60.473" transform="translate(-439.93 -680.072)" fill="none" stroke="#fff" stroke-linecap="round" stroke-linejoin="round" stroke-width="2"/>
      <path id="Path_1152" data-name="Path 1152" d="M704.771,1590.85l46.469,26.875" transform="translate(-447.306 -699.47)" fill="none" stroke="#fff" stroke-linecap="round" stroke-width="2"/>
      <path id="Path_1153" data-name="Path 1153" d="M717.681,1685.8l44.436-71.627-15.8-11.72,86.93,55.748,104.233,65.836,13.585-13.413-18.484-11.772,27.959-40.651-91.776-62.353" transform="translate(-413.884 -686.554)" fill="none" stroke="#fff" stroke-linecap="round" stroke-linejoin="round" stroke-width="2"/>
      <path id="Path_1154" data-name="Path 1154" d="M737.315,1725.1l83.342-128.772" transform="translate(-363.053 -685.3)" fill="none" stroke="#fff" stroke-linecap="round" stroke-linejoin="round" stroke-width="2"/>
      <path id="Path_1155" data-name="Path 1155" d="M756.769,1602.4l129.147,80.513v21.744" transform="translate(-312.691 -669.577)" fill="none" stroke="#fff" stroke-linecap="round" stroke-linejoin="round" stroke-width="2"/>
      <path id="Path_1156" data-name="Path 1156" d="M746.745,1729l82.7-126.281" transform="translate(-338.641 -668.763)" fill="none" stroke="#fff" stroke-linecap="round" stroke-linejoin="round" stroke-width="2"/>
      <path id="Path_1157" data-name="Path 1157" d="M822.068,1607.924l-62.2,94.5" transform="translate(-304.673 -655.293)" fill="none" stroke="#fff" stroke-linecap="round" stroke-linejoin="round" stroke-width="2"/>
      <path id="Path_1158" data-name="Path 1158" d="M861.481,1715.735,770.8,1663.321l39.619-65.456-53.766-32.412-44.48,59.741" transform="translate(-428.133 -765.184)" fill="none" stroke="#fff" stroke-linecap="round" stroke-linejoin="round" stroke-width="2"/>
      <path id="Path_1159" data-name="Path 1159" d="M736.277,1661.745l55.572-79.785,19.584,12.436-14.063,21.01,26.869,19.284" transform="translate(-365.74 -722.476)" fill="none" stroke="#fff" stroke-linecap="round" stroke-linejoin="round" stroke-width="2"/>
      <path id="Path_1160" data-name="Path 1160" d="M899.651,1539.325l-43.6-3.412-17.033,20.032v28.026l6.637,25.7-30.465,77.605-41.612,62.361" transform="translate(-269.173 -841.622)" fill="none" stroke="#c8c29c" stroke-linecap="round" stroke-linejoin="round" stroke-width="2"/>
      <path id="Path_1161" data-name="Path 1161" d="M855.363,1753.175,785.5,1648.417v-61.246l6.323-19.443,4.434-28.1,44.459-5.837-44.459,5.837-33.949-12.834" transform="translate(-298.349 -865.223)" fill="none" stroke="#c8c29c" stroke-linecap="round" stroke-linejoin="round" stroke-width="2"/>
      <path id="Path_1162" data-name="Path 1162" d="M848.16,1557.048l-76.807-22.787" transform="translate(-274.935 -845.897)" fill="none" stroke="#c8c29c" stroke-linecap="round" stroke-linejoin="round" stroke-width="2"/>
      <path id="Path_1163" data-name="Path 1163" d="M757.827,1538.885l42.92,4.125,80.243,26.956" transform="translate(-309.949 -833.933)" fill="none" stroke="#c8c29c" stroke-linecap="round" stroke-linejoin="round" stroke-width="2"/>
      <path id="Path_1164" data-name="Path 1164" d="M822.038,1664.28l-31.844-46.439,3-56.693-3,56.693-30.316,1.911" transform="translate(-304.643 -776.328)" fill="none" stroke="#c8c29c" stroke-linecap="round" stroke-linejoin="round" stroke-width="2"/>
      <path id="Path_892" data-name="Path 892" d="M3367.1-412.175l99.526,34.543,116.673,6.413,195.651,57.033,80.7,22.108,51.336,6.811,42.68,1.575,116.985-20.348,121.627-53.923,39.763-13.255v-40.956h23.2l5.358-25.156h-10.741l-5.242-38.946-12.57-19.79,75.751-74.169-146.7-81.313-142.117-66.094-5.7-21.646-22.457-16.565h-28.107l28.107-86.046,97.413-11.561v-55.645l43.063,6.637,71.432-17.979,11.188-67.89,69.262,16.634v13.814l110.709,37.443,16.081-60.774L4300.6-1113.546l-143.328-166.908-97.319,20.036-69.127,49.447,16,40.077-24.322,14.237-65.748-19.008-70.514,30.554L3765-1087.268,3695.36-966.483l-33.393,81.039-13.693,86.972-30.692,71.479-62.8,99.506-76.452,73.6-52.448,8.629L3380.073-461.4Z" transform="translate(-3775.986 527.665)" fill="#b0e0a8"/>
      <path id="Path_1118" data-name="Path 1118" d="M600.8,1512.743l48.888-19.78v-21.939l12.055,98.857" transform="translate(-716.48 -1009.521)" fill="none" stroke="#c8c29d" stroke-linecap="round" stroke-linejoin="round" stroke-width="2"/>
      <path id="Path_1119" data-name="Path 1119" d="M612.388,1550.681l-4.194-75.286,4.194,80.278H641.68" transform="translate(-697.332 -998.213)" fill="none" stroke="#c8c29d" stroke-linecap="round" stroke-linejoin="round" stroke-width="2"/>
      <path id="Path_1069" data-name="Path 1069" d="M723.194,1460.685l-9.878-15.309-53.92-23.333-39.74,6.821v51.5l21.659,16.88,39.3,8.074,27.177-14.16Z" transform="translate(-667.657 -1136.26)" fill="#f3e2ac" stroke="#c8c29d" stroke-linejoin="round" stroke-width="2"/>
      <path id="Path_1089" data-name="Path 1089" d="M590.692,1379.569l52.331,3.138v50.478l-33.684,3.22-48.851,51.217-29.129,12.241H500.48l-9.658-7.751,83.413-66.707Z" transform="translate(-1001.195 -1246.165)" fill="#f3e2ac" stroke="#c8c29d" stroke-linecap="round" stroke-linejoin="round" stroke-width="2"/>
      <path id="Path_1070" data-name="Path 1070" d="M989.914,1497.554l-275.465-72.3-36.066,18.5-35.5,59.25,71.567,34.264,12.6,11.878h25.14l14.644,13.238,27.3,8.644,22.581,27.6,24.415-18.093H853.22l-5.946,36.686,14.255,24.063,41.15-5.6,58.128,19.706,29.106-19.706,9.7,5.6,13.646-36.007,57.11,60.216h24.214l6.354,15.716h27.514l20.409,42.948,15.763-12.83,26.845,12.83,33.168-36.621v-32.148l-33.168-5.46,33.168-14.246-27.5-64.659-48.271-21.882-40.682-62.357-65.087-19.414L1036.049,1503Z" transform="translate(-607.528 -1127.958)" fill="#f5e7b8" stroke="#c8c29d" stroke-linecap="round" stroke-linejoin="round" stroke-width="2"/>
      <path id="Path_1081" data-name="Path 1081" d="M3546.584-975.927v39.021l66.157,8.707-5.1,9.949-37.134,5.377,19.506,43.926L3686-843.042h46.064l17.5-85.157-10.454-47.728L3686-999.3l-13.145-16.352-65.216,25.075Z" transform="translate(-3311.325 1212.853)" fill="#eaeaea" stroke="#d1d1d1" stroke-linecap="round" stroke-linejoin="round" stroke-width="2"/>
      <path id="Path_1106" data-name="Path 1106" d="M3460.241-881.526l47.827,43.488,24.486,49.477h-59.287l-38.747-11.618-12.812-29.516Z" transform="translate(-3634.617 1559.896)" fill="#f5e7b8" stroke="#c8c29d" stroke-linecap="round" stroke-linejoin="round" stroke-width="2"/>
      <path id="Path_1101" data-name="Path 1101" d="M516.816,1490.3l40.083,21.131L546.007,1539.5l-58.019-24.442-5.319-40.022Z" transform="translate(-1022.302 -999.139)" fill="#d1e0a8"/>
      <path id="Path_1084" data-name="Path 1084" d="M802.595,1391.864l-24.233,24.571,52.283,19.548v4.8l-49.315-17.059-2.968,21.044,48.04,9.673v5.461l-43.1-8.461v12.973l38.7,7.476v4.4l-38.7-7.442,1.251,13.87,101.8,12.893,11.055-31.2-66.758-47.983L819.359,1402.4Z" transform="translate(-256.788 -1214.35)" fill="#fff"/>
      <path id="Path_1085" data-name="Path 1085" d="M872.014,1416.7l-16.036,19.1-45.674-3.236v9.951l34.1,10.952,2.148,8.989,14.59-5.568-1.592-5.547,12.459-1.086,7.817-3.653v-27.941Z" transform="translate(-174.095 -1150.085)" fill="#fff"/>
      <path id="Path_1042" data-name="Path 1042" d="M718.73,1340.3l8.065,31.766" transform="translate(-411.169 -1347.763)" fill="none" stroke="#fff" stroke-linecap="round" stroke-linejoin="round" stroke-width="2"/>
      <path id="Path_1045" data-name="Path 1045" d="M716.748,1286.825l-35.565,32.792,18.3-6.818,40.751,45.667-18.705,9.585-56.22-40.97L626.35,1312.8l36.009,17.5,2.952,17.941,15.871,18.047,18.3,17.654,23.92-11.1-35.291-24.6,30.684,24.6-30.684-18.892,26.078,18.892-26.078-14.376,24.189,17.477-25.891-13.387,21.524,15.551L684,1366.289l18.265,14.348" transform="translate(-650.328 -1486.139)" fill="none" stroke="#fff" stroke-linecap="round" stroke-linejoin="round" stroke-width="2"/>
      <g id="Path_1046" data-name="Path 1046" transform="translate(-577.68 -1425.272)" fill="none" stroke-linecap="round" stroke-linejoin="round">
        <path d="M654.412,1316.349l33.33-6,18.645,17.781,8.286,22.454s12.6-6.559,16.8-4.588,4.2,9.354,0,12.472-13.7-2.763-16.8,0-.322,8.288,4.423,11.051,12-3.509,14.557,0,1.51,10.528-4.328,14.038-19.025,0-19.025,0-.154,9.618-3.912,12.824a8.406,8.406,0,0,1-11.121,0c-2.78-2.378,0-9.511,0-9.511h-7.524L669.98,1390.5l-4.759-32.035Z" stroke="none"/>
        <path d="M 685.484130859375 1317.867797851562 L 663.0581665039062 1321.905151367188 L 672.1449584960938 1357.439086914062 L 675.818115234375 1382.163330078125 L 686.339599609375 1380.011108398438 C 686.80126953125 1379.916748046875 687.271240234375 1379.869140625 687.742431640625 1379.869140625 L 695.2662963867188 1379.869140625 C 697.578125 1379.869140625 699.7407836914062 1381.010498046875 701.0453491210938 1382.919067382812 C 702.349853515625 1384.82763671875 702.6279296875 1387.257202148438 701.7883911132812 1389.411254882812 C 701.5791015625 1389.9482421875 701.35888671875 1390.731201171875 701.2094116210938 1391.449584960938 C 701.3493041992188 1391.414184570312 701.5171508789062 1391.343994140625 701.691650390625 1391.204956054688 C 702.44189453125 1390.251220703125 703.2391967773438 1386.399169921875 703.3012084960938 1383.427978515625 C 703.3460083007812 1381.283569335938 704.3766479492188 1379.2705078125 706.0888671875 1377.978637695312 C 707.319091796875 1377.050537109375 708.8087158203125 1376.560546875 710.3194580078125 1376.560546875 C 710.9113159179688 1376.560546875 711.5066528320312 1376.635864257812 712.090576171875 1376.789428710938 C 712.1410522460938 1376.802612304688 717.1883544921875 1378.116088867188 721.798095703125 1378.116088867188 C 724.754638671875 1378.116088867188 725.7100830078125 1377.562377929688 725.7192993164062 1377.556884765625 C 726.2158813476562 1377.258422851562 726.6085815429688 1376.921142578125 726.9181518554688 1376.572631835938 C 725.435302734375 1376.940673828125 723.7836303710938 1377.244384765625 722.037353515625 1377.244384765625 C 719.6591796875 1377.244384765625 717.4848022460938 1376.680419921875 715.5748291015625 1375.568237304688 C 710.4356079101562 1372.576049804688 706.9312744140625 1367.636840820312 706.429443359375 1362.67822265625 C 706.12060546875 1359.627075195312 706.9922485351562 1356.713500976562 708.8456420898438 1354.459838867188 C 708.546142578125 1354.010009765625 708.2971801757812 1353.523071289062 708.106689453125 1353.006958007812 L 700.3823852539062 1332.075317382812 L 685.484130859375 1317.867797851562 M 687.742431640625 1310.348754882812 L 706.3876953125 1328.12939453125 L 714.673828125 1350.58349609375 C 714.673828125 1350.58349609375 724.1949462890625 1345.626831054688 729.4418334960938 1345.626220703125 C 730.2305297851562 1345.626098632812 730.9217529296875 1345.738037109375 731.470458984375 1345.99560546875 C 735.669677734375 1347.966918945312 735.669677734375 1355.349853515625 731.470458984375 1358.4677734375 C 730.5416259765625 1359.157470703125 729.3528442382812 1359.406860351562 728.03173828125 1359.406860351562 C 724.581298828125 1359.406860351562 720.2252807617188 1357.706176757812 717.2223510742188 1357.706176757812 C 716.177001953125 1357.706176757812 715.2959594726562 1357.912109375 714.673828125 1358.4677734375 C 711.5803833007812 1361.23046875 714.3518676757812 1366.756225585938 719.096923828125 1369.518920898438 C 720.0022583007812 1370.046142578125 720.9993286132812 1370.244384765625 722.037353515625 1370.244384765625 C 725.1856079101562 1370.244384765625 728.7141723632812 1368.42138671875 731.2256469726562 1368.421020507812 C 732.2261352539062 1368.4208984375 733.0645141601562 1368.7099609375 733.6539916992188 1369.518920898438 C 736.211181640625 1373.028076171875 735.1640625 1380.047119140625 729.3255004882812 1383.556518554688 C 727.3794555664062 1384.726196289062 724.6165161132812 1385.116088867188 721.798095703125 1385.116088867188 C 716.1607666015625 1385.116088867188 710.300048828125 1383.556518554688 710.300048828125 1383.556518554688 C 710.300048828125 1383.556518554688 710.146240234375 1393.17431640625 706.3876953125 1396.380126953125 C 704.6456298828125 1397.8662109375 702.726318359375 1398.485595703125 700.8916625976562 1398.485595703125 C 698.7681274414062 1398.485595703125 696.7579345703125 1397.656005859375 695.2662963867188 1396.380126953125 C 692.4860229492188 1394.00244140625 695.2662963867188 1386.869140625 695.2662963867188 1386.869140625 L 687.742431640625 1386.869140625 L 669.980224609375 1390.50244140625 L 665.220947265625 1358.4677734375 L 654.412109375 1316.34912109375 L 687.742431640625 1310.348754882812 Z" stroke="none" fill="#fff"/>
      </g>
      <path id="Path_1062" data-name="Path 1062" d="M897.584,1370.787,828.818,1331.4,806.4,1344.655l-22.879,26.132-20.866,39.347,14.158,25.967v48.869l37.89,12.624v33.7l51.288,27.817Z" transform="translate(-297.446 -1370.803)" fill="#f5e7b8"/>
      <path id="Path_1051" data-name="Path 1051" d="M647.044,1427.872l-92.371-59.088,20.711-31.267,74.243,35.051-54.687,63.756-52.191,24.841-22.86-18.44" transform="translate(-925.943 -1354.974)" fill="none" stroke="#fff" stroke-linecap="round" stroke-linejoin="round" stroke-width="2"/>
      <path id="Path_1047" data-name="Path 1047" d="M615.387,1276.982l-.9,20.385.9,22.535,11.217,12.782h33.949l-37.335,3.934v16.96l-3.825-16.96-27.165,27.974-2.234,21.1" transform="translate(-744.452 -1511.609)" fill="none" stroke="#fff" stroke-linecap="round" stroke-linejoin="round" stroke-width="2"/>
      <path id="Path_1048" data-name="Path 1048" d="M581.7,1393.943l47.714-110.895-20.633,21.481,12.275,50-2.443-33.888-2.8-19.129" transform="translate(-765.917 -1495.913)" fill="none" stroke="#fff" stroke-linecap="round" stroke-linejoin="round" stroke-width="2"/>
      <path id="Path_886" data-name="Path 886" stroke="#207dff" d="M3491.835-607.528,3542.5-682.89,3446-718.625s-43.787-30.251-50.594-56.119c-2.486-9.442,5.881-9.713,8.462-16.268,3.353-8.647,6.05-17.789,42.132-27.064,18.258-4.693,29.012-1.964,45.63-1.7,14,.228,33.644-1.9,69.2-15.6,71.975-27.746,79.451-38.445,122.923-69.727s5.75-70.66,38.081-61.881,52.356,42.131,95.142,66.755,40.839,16.379,62.354,28.348,13.561,23.864,31.283,32.991,26.952-3.744,39.609,3.515,0,35.131,0,35.131" fill="none" transform="translate(-3703.885 1335.523)" stroke-linecap="round" stroke-linejoin="round" stroke-width="4" stroke-dasharray="8"/>
      <path id="Path_888" data-name="Path 888" stroke="#207dff" d="M3538.2-865.949s-57.485-.36-67.039-27.165-1.329-63.828,20.666-82.429,36.816,7.834,56.823,0,23.2-31.336,23.2-31.336" fill="none" transform="translate(-3516.774 1235.544)" stroke-linecap="round" stroke-linejoin="round" stroke-width="4" stroke-dasharray="8"/>
      <path id="Path_1044" data-name="Path 1044" d="M629.022,1283.788l23.09,11.73,97.272-6.288,30.776,36.1-25.188,58.206" transform="translate(-643.412 -1493.998)" fill="none" stroke="#fff" stroke-linecap="round" stroke-linejoin="round" stroke-width="2"/>
      <path id="Path_1043" data-name="Path 1043" d="M625.529,1274.827l-36.013,29.425h70.727l33.745-7.626v19.662l5.929-19.662,31.275,7.626-21.964,12.036v13.506" transform="translate(-745.687 -1517.185)" fill="none" stroke="#fff" stroke-linecap="round" stroke-linejoin="round" stroke-width="2"/>
      <path id="Path_893" data-name="Path 893" d="M3927.757-765.007l9.323,7.79,46.194-17.067,18.552,13.177,6.588-24.643L3969.1-798.957l39.315-34.649-48.609-44.661-22.725-55.726-129.751,24.75v22.2l-20.239,20.708-17.212-28.573,29.224-65.106-41.188-14.77,11.964-47.541-11.964-30.933-80.659,30.933-26.629-39.018-6.922-32.913-30.822-25.793-58.645,75.426-25.538-16.72-24.345,28.2,5.4,18.667H3528.7l-12.067,30.924-24.75-9.96-31.043-34.643-5.612,13.679-9.193,7.725,9.193,13.238-51.908,119.077,136.339,80.979,36.486-40.149-21.908-26.875,5.739-21.945,16.169-12.481,110.1,56.339,10.182,81.351,90.663,30.5,73.612,10.009,6.316-10.009-45.162-10.258,28.535-28.028,38.722,28.028Z" transform="translate(-3682.218 942.714)" fill="#f5e7b8" stroke="#fff" stroke-linecap="round" stroke-linejoin="round" stroke-width="4"/>
      <path id="Path_912" data-name="Path 912" d="M3559.194-1003.738l-28.435-46.793-21.99-14.974-21.249,32.569,12.143,13.055v44.4l20.231,1.8L3528.9-961.5Z" transform="translate(-3467.82 1091.022)" fill="#dedede" stroke="#c8c29d" stroke-linecap="round" stroke-linejoin="round" stroke-width="2"/>
      <path id="Path_1056" data-name="Path 1056" d="M601.162,1358.117l13.605,13.378,24.441-2.329-24.441,5.45,2.324,14.6,18.12,10.94,31.128-15.407,23.88,15.407-2.776,36.263,28.743-23.813,10.442,63.18-28.277,5.791v-5.791l20.123-4.107-2.289-4.916-17.835,4.916,8.693-26.3-24.767,1.8v-32" transform="translate(-715.537 -1301.669)" fill="none" stroke="#fff" stroke-linecap="round" stroke-linejoin="round" stroke-width="2"/>
      <path id="Path_1099" data-name="Path 1099" d="M499.862,1525.13l15.683-41.727,50.853,32.712,58.578,17.224-26.949,14.5-47.813-14.5Z" transform="translate(-977.79 -977.491)" fill="#f3e2ac" stroke="#c8c29d" stroke-linecap="round" stroke-linejoin="round" stroke-width="2"/>
      <g id="Path_1057" data-name="Path 1057" transform="translate(-722.209 -1261.604)" fill="none" stroke-linecap="round" stroke-linejoin="round">
        <path d="M616.122,1373.6l18.156,18.167-7.213,20.24-28.48-17.8,6.083-7.457Z" stroke="none"/>
        <path d="M 616.3235473632812 1379.461547851562 L 607.7274780273438 1389.333862304688 L 604.5531005859375 1393.22509765625 L 624.9674682617188 1405.9814453125 L 629.6619262695312 1392.80810546875 L 616.3235473632812 1379.461547851562 M 616.1221923828125 1373.6015625 L 634.2786254882812 1391.76904296875 L 627.0657348632812 1412.00927734375 L 598.5852661132812 1394.212646484375 L 604.6685791015625 1386.755615234375 L 616.1221923828125 1373.6015625 Z" stroke="none" fill="#fff"/>
      </g>
      <path id="Path_1058" data-name="Path 1058" d="M620.137,1370.1l-13.121,48.373,34.318,16.261,28.8-18.693Z" transform="translate(-700.382 -1270.66)" fill="none" stroke="#fff" stroke-linecap="round" stroke-linejoin="round" stroke-width="2"/>
      <path id="Path_1059" data-name="Path 1059" d="M645.138,1400.153l-30.02-32.216" transform="translate(-679.406 -1276.259)" fill="none" stroke="#fff" stroke-linecap="round" stroke-linejoin="round" stroke-width="2"/>
      <path id="Path_1060" data-name="Path 1060" d="M596.169,1382.5l49.018,26.614,8-12.42,15.7,6.223,5.608,17.863,39.57-2.066-4.617-6.208-34.953,3.361v-6.754h34.953" transform="translate(-728.463 -1238.59)" fill="none" stroke="#fff" stroke-linecap="round" stroke-linejoin="round" stroke-width="2"/>
      <path id="Path_1174" data-name="Path 1174" d="M787.148,1777.415l-92.472-101.6,5.7,46.638,27.4,58.051,20.51,17.709Z" transform="translate(-473.441 -479.618)" fill="#79d7f5" stroke="#c8c29d" stroke-width="2"/>
      <path id="Path_1105" data-name="Path 1105" d="M628.131,1475.036l-3.533,9.557H590.956l-37.674,31.393-39.647-21.4-10.224,3.877,56.725,37.832,43.348,15.081,6.664-28.125,34.491-40.8Z" transform="translate(-968.602 -999.139)" fill="#d1e0a8"/>
      <path id="Path_1061" data-name="Path 1061" d="M836.717,1330.545l-36.487,31.369-32.653,48.333,16.875,26.029v51.532H763.976l-5.087,38.306h35.445l38.248,10.145,44.665,28.858" transform="translate(-307.203 -1373.013)" fill="none" stroke="#fff" stroke-linecap="round" stroke-linejoin="round" stroke-width="4"/>
      <path id="Path_1095" data-name="Path 1095" d="M514.112,1483.372l33.184-31.1,16.322,12.644h31.974l37.618-16.775,45.98-49.272,32.592-2.939,34.658,22.019,13.179,30.192-13.179,43.651,6.118,32.684-17.03,18.879-35.2,4.592-6.492-12.74,10.634-4.948,22.087-22.862v-29.707l-14.772-12.774,14.772-28.762-5.791-7.144H679.189v23.262l-26.775-4.13-21.952,13.679-34.871,10.628L590.85,1501.1H572.812l-14.3-28.654-19.883,5.242-24.512,18.98,10.224,10.727,39.281,4.172,18.16,27.165,48.685,18.772,12.586,7.292h25.994v17.753H655.47l-15.177-9.121H590.85l-14.038,2.795-13.194,14.637v18.5l24.509,3.041,23.834,17.582-27.442-6.121-7.707,6.121,35.149,32.626v35.971l-14.972,17.384-33.371-13.548-45.355-57.759,2.938-14.674L549.52,1617.1l-2.224-10.47-3.85-17.989v-10.224l-25.183-30.467v-17.688l-17.238-5.783-6.8,33.03,19.883,39.316,21.148,27.037-17,36.08,20.361,58.6-57-51.028-15.934-4.909,20.931-14.637,14.4-28.256-25.2-37.162-3.4-34.6Z" transform="translate(-1066.259 -1203.831)" fill="#d1e0a8"/>
      <path id="Path_911" data-name="Path 911" d="M3600.418-1037.723l-78.448-21.257-31.041-2.8-19.219,5.713-16.7,16.037-11.816,27.894,20.208,27.8" transform="translate(-3582.739 1093.495)" fill="none" stroke="#c8c29d" stroke-linecap="round" stroke-width="2"/>
      <path id="Path_1029" data-name="Path 1029" d="M601.174,1350.374l18.569-62.444,81.373-33.462L668.07,1244s-39.223,40.67-40.279,40.323" transform="translate(-715.506 -1596.961)" fill="none" stroke="#fff" stroke-linecap="round" stroke-linejoin="round" stroke-width="2"/>
      <path id="Path_898" data-name="Path 898" d="M3494.42-933.058l17.317-27.481,16.779-103.073-29.757-8.231-4.34,12.877-38.293-15.864-47.11,91.461" transform="translate(-3667.47 1059.716)" fill="none" stroke="#c8c29d" stroke-width="2"/>
      <path id="Path_894" data-name="Path 894" d="M3414.726-1078.441l65.128,27.2s-15.226,37.536-21.921,76.544-4.861,79.489-4.861,79.489" transform="translate(-3652.692 1050.378)" fill="none" stroke="#fff" stroke-linecap="round" stroke-linejoin="round" stroke-width="4"/>
      <path id="Path_895" data-name="Path 895" d="M3539.782-1012.429,3410.5-1068.546" transform="translate(-3663.63 1075.98)" fill="none" stroke="#fff" stroke-linecap="round" stroke-width="4"/>
      <path id="Path_896" data-name="Path 896" d="M3551.1-1009.892l-31.156,4.246-113.814-53.31" transform="translate(-3674.948 1100.793)" fill="none" stroke="#fff" stroke-linecap="round" stroke-width="2"/>
      <path id="Path_1033" data-name="Path 1033" d="M663.834,1276.452l42.7,6.251,64,45.917,15.072,9.543,30.228-9.543" transform="translate(-553.288 -1512.98)" fill="none" stroke="#fff" stroke-linecap="round" stroke-linejoin="round" stroke-width="2"/>
      <path id="Path_1034" data-name="Path 1034" d="M755.115,1289.674l.673,27.875,28.349,35.407,16.385,56.452H779.675l-38.8,37.251V1459.9l-75.75,15.982" transform="translate(-549.954 -1478.766)" fill="none" stroke="#fff" stroke-linecap="round" stroke-linejoin="round" stroke-width="2"/>
      <path id="Path_1054" data-name="Path 1054" d="M589.743,1366.329l-6.7,30.32-62.726-8.36" transform="translate(-924.845 -1280.42)" fill="none" stroke="#fff" stroke-linecap="round" stroke-linejoin="round" stroke-width="2"/>
      <path id="Path_897" data-name="Path 897" d="M3537.906-1118.552s-41.789,40.4-67.643,83.252-37.338,87.964-37.338,87.964" transform="translate(-3605.575 946.587)" fill="none" stroke="#fff" stroke-linecap="round" stroke-width="4"/>
      <path id="Path_899" data-name="Path 899" d="M3442.313-966.8h39.112l70.7-100.5-31.971-23.765-14.851-19.972" transform="translate(-3581.268 966.049)" fill="none" stroke="#c8c29d" stroke-linecap="round" stroke-linejoin="round" stroke-width="2"/>
      <path id="Path_1063" data-name="Path 1063" d="M868.419,1336.417l-47.391,32.627-14.51,37.132v108.113l-4.165-30.639-37.292-11.156" transform="translate(-291.221 -1357.821)" fill="none" stroke="#fff" stroke-linecap="round" stroke-linejoin="round" stroke-width="2"/>
      <path id="Path_1064" data-name="Path 1064" d="M848.713,1375.984l-29.752,8.3h-42.9" transform="translate(-262.754 -1255.439)" fill="none" stroke="#fff" stroke-linecap="round" stroke-linejoin="round" stroke-width="2"/>
      <path id="Path_1065" data-name="Path 1065" d="M786.18,1342.379l7.131,56.178L786.18,1443l14.6,25.2" transform="translate(-236.549 -1342.394)" fill="none" stroke="#fff" stroke-linecap="round" stroke-linejoin="round" stroke-width="2"/>
      <path id="Path_1066" data-name="Path 1066" d="M871.282,1427.858l-76.574-14.387-24.5-24.986,42.567-56.129" transform="translate(-277.885 -1368.328)" fill="none" stroke="#fff" stroke-linecap="round" stroke-linejoin="round" stroke-width="2"/>
      <path id="Path_1067" data-name="Path 1067" d="M793.293,1352.3l-26.3,45.027" transform="translate(-286.23 -1316.725)" fill="none" stroke="#fff" stroke-linecap="round" stroke-linejoin="round" stroke-width="2"/>
      <path id="Path_900" data-name="Path 900" d="M3472.781-1045.813l-31.16-20.675" transform="translate(-3583.064 1081.306)" fill="none" stroke="#c8c29d" stroke-linecap="round" stroke-width="2"/>
      <path id="Path_901" data-name="Path 901" d="M3471.519-1020.817l-18.391-49.875" transform="translate(-3553.271 1070.425)" fill="none" stroke="#c8c29d" stroke-linecap="round" stroke-width="2"/>
      <path id="Path_902" data-name="Path 902" d="M3485.072-1053.881l-27.435-22.817Z" transform="translate(-3541.597 1054.886)" fill="none" stroke="#c8c29d" stroke-linecap="round" stroke-width="2"/>
      <path id="Path_1107" data-name="Path 1107" d="M597.694,1576.853l9.434-19.223h18.7l35.428,38.692,2.193,22.257-30.519-25.61Z" transform="translate(-728.104 -785.426)" fill="#f5e7b8" stroke="#c8c29d" stroke-width="2"/>
      <path id="Path_903" data-name="Path 903" d="M3464.849-979.2v-31.431l49.683-62.681,40.616-19.789H3598.9" transform="translate(-3522.93 1012.449)" fill="none" stroke="#c8c29d" stroke-linecap="round" stroke-linejoin="round" stroke-width="2"/>
      <path id="Path_904" data-name="Path 904" d="M3619.257-1001.479l-36.129-29.308-49.788-23.363-81.962-49.03" transform="translate(-3557.805 986.365)" fill="none" stroke="#c8c29d" stroke-width="2"/>
      <path id="Path_905" data-name="Path 905" d="M3501.938-1099.956v36.719l-10.219,31.3" transform="translate(-3453.368 994.706)" fill="none" stroke="#c8c29d" stroke-width="2"/>
      <path id="Path_907" data-name="Path 907" d="M3533.4-1089.134l-17.877,50.214-23,43.895" transform="translate(-3451.283 1022.707)" fill="none" stroke="#c8c29d" stroke-width="2"/>
      <path id="Path_908" data-name="Path 908" d="M3493.52-1070.827l-16.1,26.063v22.156" transform="translate(-3490.38 1070.078)" fill="none" stroke="#c8c29d" stroke-linecap="round" stroke-linejoin="round" stroke-width="2"/>
      <path id="Path_906" data-name="Path 906" d="M3634.86-960.36l-198.434-143.334" transform="translate(-3596.51 985.031)" fill="none" stroke="#fff" stroke-linecap="round" stroke-linejoin="round" stroke-width="4"/>
      <path id="Path_909" data-name="Path 909" d="M3487.331-1028.428l18.441-36.179Z" transform="translate(-3464.724 1086.169)" fill="none" stroke="#fff" stroke-linecap="round" stroke-linejoin="round" stroke-width="4"/>
      <path id="Path_1035" data-name="Path 1035" d="M697.712,1312.43l74.842-8.659,32.1,22.651,29.434,44.96,44.353-36.614,46.918,24.4-2.43,40.156,9.494,63.753-19.2-22.1H867.191l-23.616,14.146-9.483,32.239,6.16,43.183-14.1,47.478" transform="translate(-465.581 -1442.29)" fill="none" stroke="#fff" stroke-linecap="round" stroke-linejoin="round" stroke-width="2"/>
      <path id="Path_910" data-name="Path 910" d="M3530.968-1011.71v-23.184l-72.6-21.719" transform="translate(-3539.72 1106.857)" fill="none" stroke="#c8c29d" stroke-width="2"/>
      <path id="Path_913" data-name="Path 913" d="M3493.218-977.667l4.022-32.214,14.1-25.31" transform="translate(-3449.483 1162.287)" fill="none" stroke="#c8c29d" stroke-linecap="round" stroke-width="2"/>
      <path id="Path_914" data-name="Path 914" d="M3546.127-978.554v-25.039l-51.283-23.679" transform="translate(-3445.275 1182.777)" fill="none" stroke="#c8c29d" stroke-linecap="round" stroke-width="2"/>
      <path id="Path_1037" data-name="Path 1037" d="M698.151,1307.181l32.544,44.308,5.539,17.646,20.318,25.018,20.857,20.144L750.5,1460.076l-19.8-5.02" transform="translate(-464.445 -1433.468)" fill="none" stroke="#fff" stroke-linecap="round" stroke-linejoin="round" stroke-width="2"/>
      <path id="Path_915" data-name="Path 915" d="M3515.947-892.564V-911l75.6-118.666,39.779-28.76,16.037,28.76,28.3,17.824" transform="translate(-3390.643 1102.163)" fill="none" stroke="#c8c29d" stroke-linecap="round" stroke-width="2"/>
      <path id="Path_916" data-name="Path 916" d="M3621.577-1043.331l-2.905-21.134-98.988,19.015,3.681,22.05h41.858v-10.249L3610-1059.617" transform="translate(-3380.969 1086.537)" fill="none" stroke="#c8c29d" stroke-linecap="round" stroke-width="2"/>
      <path id="Path_917" data-name="Path 917" d="M3522.038-1024.892v-28.12" transform="translate(-3374.871 1116.174)" fill="none" stroke="#c8c29d" stroke-linecap="round" stroke-width="2"/>
      <path id="Path_918" data-name="Path 918" d="M3509.133-959.976l33.441-48.909v-36.335h13.573" transform="translate(-3408.281 1136.335)" fill="none" stroke="#c8c29d" stroke-linecap="round" stroke-width="2"/>
      <path id="Path_1104" data-name="Path 1104" d="M593.775,1432.526l30.583,4.262,15.729,19.927-8.981,27.6-30.31-9.726-10.051,9.726-22.811,32.334v11.931H547.406l-17.478-16.6-2.641-17.739,13.626-14.18,46.857-17.483V1442.81Z" transform="translate(-906.792 -1109.134)" fill="#d1e0a8"/>
      <path id="Path_919" data-name="Path 919" d="M3645.217-982.4l-27.775-16.5-41.565,5.39-77.566-40.936" transform="translate(-3436.303 1164.215)" fill="none" stroke="#c8c29d" stroke-linecap="round" stroke-width="2"/>
      <path id="Path_920" data-name="Path 920" d="M3558.647-992.893l6.334-25.669-12.019-27.883" transform="translate(-3294.813 1133.167)" fill="none" stroke="#c8c29d" stroke-linecap="round" stroke-width="2"/>
      <path id="Path_887" data-name="Path 887" stroke="#207dff" d="M4139.514-955.95s-75.436,39.492-163.21,45.9-188.492-24.614-188.492-24.614-101.28-35.837-179.487-53.717c-48.911-11.183-84.152-5.114-125.426-15.365-105.291-26.15-116.249-35.519-116.249-35.519" fill="none" transform="translate(-3777.153 1151.738)" stroke-linecap="round" stroke-linejoin="round" stroke-width="4" stroke-dasharray="8"/>
      <path id="Path_921" data-name="Path 921" d="M3540.062-989.021l51.122-42.292" transform="translate(-3328.213 1172.321)" fill="none" stroke="#c6bba0" stroke-linecap="round" stroke-width="2"/>
      <path id="Path_922" data-name="Path 922" d="M978.408,1291.558s-40.749,1.61-79.139-25.778-49.9-70.41-74.421-83.771c-35.148-19.155-112.211-35.287-112.211-35.287l8.913,35.287" transform="translate(-426.945 -1848.656)" fill="none" stroke="#fff" stroke-width="2"/>
      <path id="Path_889" data-name="Path 889" stroke="#207dff" d="M3857.451-897.158s-50.971-63.39-86.859-104.26-21.045-59.71-43.333-65.741-183.986,22.758-221.879,42.928-15.438,159.2-15.438,159.2" fill="none" transform="translate(-3475.065 1077.46)" stroke-linecap="round" stroke-linejoin="round" stroke-width="4" stroke-dasharray="8"/>
      <path id="Path_1103" data-name="Path 1103" d="M601.695,1455.328l-32.972-10.194-15.451,21.829-13.625,15.224,9.947,21.328,31.562-10.429Z" transform="translate(-874.792 -1076.513)" fill="#fff" stroke="#fff" stroke-linecap="round" stroke-linejoin="round" stroke-width="2"/>
      <path id="Path_1026" data-name="Path 1026" d="M603.377,1239.147l91.93,27.821,52.584,11.419,86.773,29.2,5.177-37.494,15.2,31.78h28.649l24.667,16.749" transform="translate(-709.804 -1609.508)" fill="none" stroke="#fff" stroke-linecap="round" stroke-linejoin="round" stroke-width="2"/>
      <path id="Path_1024" data-name="Path 1024" d="M696.966,1206.852l.878-43.238" transform="translate(-467.512 -1804.949)" fill="none" stroke="#fff" stroke-linecap="round" stroke-width="2"/>
      <path id="Path_1015" data-name="Path 1015" d="M899.236,1447.771l-8.867-35.764-34.152-65.073-16.655-29.2-32.319-26.345-35.83,10.221-36.627-10.221H696.966l22.539-41.656,40.443-33.728L790,1164.318l23.078-6.625v-24.015" transform="translate(-467.512 -1882.411)" fill="none" stroke="#fff" stroke-linecap="round" stroke-linejoin="round" stroke-width="2"/>
      <path id="Path_1016" data-name="Path 1016" d="M771.14,1320.587l8.893-27.274-8.893-29.566,24.933-50.776,13.164,9.05-38.1-89.622-17.669,45.4-30.224,14.414" transform="translate(-399.475 -1885.72)" fill="none" stroke="#fff" stroke-linecap="round" stroke-linejoin="round" stroke-width="2"/>
      <path id="Path_1017" data-name="Path 1017" d="M740.324,1273.74l74.154-51.023,10.992-5.676,26.3-13.579L820.4,1159.192v63.524" transform="translate(-355.263 -1816.39)" fill="none" stroke="#fff" stroke-linecap="round" stroke-linejoin="round" stroke-width="2"/>
      <path id="Path_1018" data-name="Path 1018" d="M620.478,1261.412l165.017-55.168,66.792-31.457,15.671,15.413,26.76-5.712L874.43,1233.5l103.756,160.22" transform="translate(-665.532 -1776.041)" fill="none" stroke="#fff" stroke-linecap="round" stroke-linejoin="round" stroke-width="2"/>
      <path id="Path_1019" data-name="Path 1019" d="M842.489,1362.247l-58.63,7.33-29.3-18.2L766.91,1341.1H738.557l-22.335-35.833-31.8-20.174-11.528-63.054,65.664-31.046" transform="translate(-529.835 -1734.116)" fill="none" stroke="#fff" stroke-linecap="round" stroke-linejoin="round" stroke-width="2"/>
      <path id="Path_1020" data-name="Path 1020" d="M644.655,1177.453l-3.82,51.8,12.65,22.4-8.831,35.892v28.61l21.508,26.157,18.5,8.6" transform="translate(-612.827 -1769.14)" fill="none" stroke="#fff" stroke-linecap="round" stroke-linejoin="round" stroke-width="2"/>
      <path id="Path_1096" data-name="Path 1096" d="M536.773,1479.679l-16.094-29.974-14.8,3.2-25.693,21.843,5.186,9.792,41.742,4.814,16.919,25.516,38.681,15.3,21.518,8.767,25.622,4.562v15.335H615.112l-16.151-7.442H541l-13.887,20.9v15.527h26.059l24.186,17.769-29.511-5.109L541,1605.594l36.358,39.909V1675l35.035,24.047,37.34-32.574h36.57l8.226-23.788-4.788-42.2H670.3l-20.568-19.453v-18.48L662,1551.395l48.244-16.113v-26.246L670.3,1527.046l-15.229-12.174,34.668-30.33v-31.634l-14.957-11.3,14.957-29.092-3.437-7.586-42.624,2.724v22.159l-25.445-4.009-56.668,23.9-8.394,29.974Z" transform="translate(-1028.722 -1180.549)" fill="#f3e2ac" stroke="#c8c29d" stroke-linecap="round" stroke-linejoin="round" stroke-width="2"/>
      <path id="Path_1021" data-name="Path 1021" d="M744.872,1249.594l-29.4,4.8L660.9,1211.952l11.653-26.734-22.681-5.158-4.787,10.724,20.742,8.819" transform="translate(-601.814 -1762.394)" fill="none" stroke="#fff" stroke-linecap="round" stroke-linejoin="round" stroke-width="2"/>
      <path id="Path_1022" data-name="Path 1022" d="M669.9,1199.937l-28.8-14.467" transform="translate(-612.133 -1748.398)" fill="none" stroke="#fff" stroke-linecap="round" stroke-linejoin="round" stroke-width="2"/>
      <path id="Path_1023" data-name="Path 1023" d="M685.582,1183.929l-6.1,25.315v20.319" transform="translate(-512.776 -1752.385)" fill="none" stroke="#fff" stroke-linecap="round" stroke-linejoin="round" stroke-width="2"/>
      <path id="Path_1077" data-name="Path 1077" d="M641.879,1495.416l63.764-71.762,275.251,78.171h51.6l-42.118,1.913,2.972,47.629,34.751,22.591-3.778-20.17v-29.349s7.623-20.227,8.173-22.613" transform="translate(-610.125 -1132.093)" fill="none" stroke="#fff" stroke-linecap="round" stroke-linejoin="round" stroke-width="2"/>
      <path id="Path_1078" data-name="Path 1078" d="M743.748,1448.523l.21,33.1" transform="translate(-346.4 -1067.745)" fill="none" stroke="#fff" stroke-linecap="round" stroke-linejoin="round" stroke-width="2"/>
      <path id="Path_1079" data-name="Path 1079" d="M851.589,1555.427l-26.276-58.877-32.751-23.759-43.038-7.7" transform="translate(-331.447 -1024.881)" fill="none" stroke="#fff" stroke-linecap="round" stroke-linejoin="round" stroke-width="2"/>
      <path id="Path_1080" data-name="Path 1080" d="M783.889,1502.16l15.25-4.9-5.029-12.739H775.674" transform="translate(-263.747 -974.594)" fill="none" stroke="#fff" stroke-linecap="round" stroke-linejoin="round" stroke-width="2"/>
      <path id="Path_1025" data-name="Path 1025" d="M796.113,1201.188l-10.241-16.2H736.8" transform="translate(-364.39 -1749.65)" fill="none" stroke="#fff" stroke-linecap="round" stroke-linejoin="round" stroke-width="2"/>
      <path id="Path_1027" data-name="Path 1027" d="M619.544,1314.138l17.476-19.308,31.466,3.991-27.109-44.7-4.356-37.588" transform="translate(-667.948 -1668.016)" fill="none" stroke="#fff" stroke-linecap="round" stroke-linejoin="round" stroke-width="2"/>
      <path id="Path_1028" data-name="Path 1028" d="M692.713,1271.064l-20.5,5.563v-15.49L632.294,1239.2" transform="translate(-634.941 -1609.371)" fill="none" stroke="#fff" stroke-linecap="round" stroke-linejoin="round" stroke-width="2"/>
      <path id="Path_1030" data-name="Path 1030" d="M603.377,1296.168l87.077-40.477" transform="translate(-709.804 -1566.699)" fill="none" stroke="#fff" stroke-linecap="round" stroke-linejoin="round" stroke-width="2"/>
      <path id="Path_1031" data-name="Path 1031" d="M638.8,1253.608l89.839,65.261-3.974,47.345" transform="translate(-618.094 -1572.088)" fill="none" stroke="#fff" stroke-linecap="round" stroke-linejoin="round" stroke-width="2"/>
      <path id="Path_1032" data-name="Path 1032" d="M672.315,1258.821l-6.057,46.575" transform="translate(-547.012 -1565.773)" fill="none" stroke="#fff" stroke-linecap="round" stroke-linejoin="round" stroke-width="2"/>
      <path id="Path_1036" data-name="Path 1036" d="M735.639,1322.182l7.312,27.465,12.376,27.679,18.147,17.313" transform="translate(-367.393 -1394.655)" fill="none" stroke="#fff" stroke-linecap="round" stroke-linejoin="round" stroke-width="2"/>
      <path id="Path_1038" data-name="Path 1038" d="M712.448,1467.1l11.868,32.02,19.92,9.553v17.077l4.44-19.477,16.668-7.153h7.625v-53.687l7.115-16.966V1395.14l-31.407-36.991L736.09,1334.33v-29.864" transform="translate(-427.43 -1440.493)" fill="none" stroke="#fff" stroke-linecap="round" stroke-linejoin="round" stroke-width="2"/>
      <path id="Path_1039" data-name="Path 1039" d="M713.815,1305.308l29,16.821,12.235,40.584-51.646,5.809" transform="translate(-450.844 -1438.314)" fill="none" stroke="#fff" stroke-linecap="round" stroke-linejoin="round" stroke-width="2"/>
      <path id="Path_1040" data-name="Path 1040" d="M766.949,1311.8l-4.533,51.8-11.6,13.575-6.114,15.833-30.788-13.377" transform="translate(-423.629 -1421.508)" fill="none" stroke="#fff" stroke-linecap="round" stroke-linejoin="round" stroke-width="2"/>
      <path id="Path_1041" data-name="Path 1041" d="M788.406,1344.176l-18.4,11.213H742.838l-20.273-20.9" transform="translate(-401.242 -1362.817)" fill="none" stroke="#fff" stroke-linecap="round" stroke-linejoin="round" stroke-width="2"/>
      <path id="Union_2" data-name="Union 2" d="M0,294.275,3.863,270.89l32.226-39.1,40.73,11.114,6.5-6.851L39.167,221.319,36.089,171.44,67.9,162.416l18.576-36.449,13.638,5.263L86.49,124.966,95.566,93,79.936,72.918l-28.2-3.492L46.677,29.039,56.018,0,90.627,10.536V25.023L126.645,17.8,135.9,37.847l23.973-2.641,17.981,8.947H199.3l17.784,7.275-7.593,25.482,23.159,24.909-7.787,23.147,7.787,18.4-48.279,12.427-36.34-21.154L103,132.345l11.72,4.522v19.841l49.516,14.733,8.14,27.267,23.411-11.614L215.9,211.412l-28.686,20.38-12.048-6.473L129.933,266.2,91.971,253.386,54.348,262.4l-22.488-9.018,7.306,42.242Z" transform="translate(-362.386 253.367)" fill="#f3e2ac" stroke="#c8c29d" stroke-linecap="round" stroke-linejoin="round" stroke-width="2"/>
      <path id="Path_1049" data-name="Path 1049" d="M594.765,1385.3l-6.185-45.013L578.4,1328.179l16.37-23.673" transform="translate(-774.477 -1440.39)" fill="none" stroke="#fff" stroke-linecap="round" stroke-linejoin="round" stroke-width="2"/>
      <path id="Path_1050" data-name="Path 1050" d="M604.471,1326.84l-11.866-9.224-19.7-2.6" transform="translate(-788.687 -1413.197)" fill="none" stroke="#fff" stroke-linecap="round" stroke-linejoin="round" stroke-width="2"/>
      <path id="Path_1052" data-name="Path 1052" d="M566.873,1371.379l-31.619-13.732" transform="translate(-886.166 -1302.887)" fill="none" stroke="#fff" stroke-linecap="round" stroke-linejoin="round" stroke-width="2"/>
      <path id="Path_1053" data-name="Path 1053" d="M540.683,1365.317l28.287,21.171" transform="translate(-872.111 -1283.04)" fill="none" stroke="#fff" stroke-linecap="round" stroke-linejoin="round" stroke-width="2"/>
      <path id="Path_1086" data-name="Path 1086" d="M776.957,1392.842l20.164,21.573-5.676,2.208-17.931-19.442-4.618,5.148,18.118,19.461" transform="translate(-281.296 -1211.82)" fill="none" stroke="#fff" stroke-linecap="round" stroke-linejoin="round" stroke-width="2"/>
      <path id="Path_1087" data-name="Path 1087" d="M770.907,1433.9l39.954,11.529-10.281,19.01H784.557l-11.716-12.9Z" transform="translate(-276.089 -1105.584)" fill="#fff"/>
      <path id="Path_1055" data-name="Path 1055" d="M571.734,1366.329l-14.858,28.055" transform="translate(-830.188 -1280.42)" fill="none" stroke="#fff" stroke-linecap="round" stroke-linejoin="round" stroke-width="2"/>
      <path id="Path_1071" data-name="Path 1071" d="M654.412,1429.821l84.824,26.869,93.539,29.076,11.6-29.076,18.565,6.161-15.1,42.413-21.95,61.659L854,1505.263l38.641,15.406-29.7,100.414-37.049-13.429" transform="translate(-577.68 -1116.136)" fill="none" stroke="#c8c29d" stroke-linecap="round" stroke-linejoin="round" stroke-width="2"/>
      <path id="Path_1072" data-name="Path 1072" d="M732.281,1442.51l-7.025,30.264,48.771,12.239" transform="translate(-394.273 -1083.305)" fill="none" stroke="#c8c29d" stroke-linecap="round" stroke-linejoin="round" stroke-width="2"/>
      <path id="Path_1073" data-name="Path 1073" d="M792.04,1442.51l-13.354,18.622,41.077,44.716H773.2l-10.434,24.04" transform="translate(-297.176 -1083.305)" fill="none" stroke="#c8c29d" stroke-linecap="round" stroke-linejoin="round" stroke-width="2"/>
      <path id="Path_1074" data-name="Path 1074" d="M812.4,1551.7l-7.583-20.306h-8.991l-19.773-51.886,7.351-19.077" transform="translate(-262.768 -1036.939)" fill="none" stroke="#c8c29d" stroke-linecap="round" stroke-linejoin="round" stroke-width="2"/>
      <path id="Path_1075" data-name="Path 1075" d="M797.651,1462.651l-5.723,27.56,25.958,57.182" transform="translate(-221.666 -1031.187)" fill="none" stroke="#c8c29d" stroke-linecap="round" stroke-linejoin="round" stroke-width="2"/>
      <path id="Path_1076" data-name="Path 1076" d="M777.409,1463.31l27.174,8.406,17.948,47.695-20.974,5.085,20.974-5.085,10.185,26.712" transform="translate(-259.256 -1029.483)" fill="none" stroke="#c8c29d" stroke-linecap="round" stroke-linejoin="round" stroke-width="2"/>
      <path id="Path_1082" data-name="Path 1082" d="M742.256,1512.71l-1.562-75.59,16.4-17.934h21.572l-4.254,26.208-32.152-5.044,29.652,2.543,3.917-21.93H757.09l-14.834,17.319,28.184,2.067,2.776-17.76H757.09l-11.008,14.53h23.167l1.192-12.708H757.09l-5.806,10.67h16.137v-8.491h-9.283l-2.8,6.243h10.378v-4.377h-5.881v2.516h3.812" transform="translate(-354.303 -1143.655)" fill="none" stroke="#fff" stroke-linecap="round" stroke-linejoin="round" stroke-width="2"/>
      <path id="Path_1083" data-name="Path 1083" d="M941.19,1464.87l-153.619-41.186" transform="translate(-232.947 -1132.018)" fill="none" stroke="#000" stroke-linecap="round" stroke-linejoin="round" stroke-width="2"/>
      <path id="Path_1090" data-name="Path 1090" d="M489.889,1494.946l11.992,12.256,35.962-2.285,27.433-9.971,51.326-54.037,35.855-3.884v-57.432" transform="translate(-1003.61 -1246.1)" fill="none" stroke="#fff" stroke-linecap="round" stroke-linejoin="round" stroke-width="2"/>
      <path id="Path_1091" data-name="Path 1091" d="M581.43,1571.889l-14.544-81.509,14.8-38.682-14.8-34.605-32.134-21.524" transform="translate(-887.464 -1204.765)" fill="none" stroke="#fff" stroke-linecap="round" stroke-linejoin="round" stroke-width="2"/>
      <path id="Path_1092" data-name="Path 1092" d="M543.443,1397.047l16.224,29.157,34.252,2.265,173.063,54.652,9.065-8.9,23.371,8.151-7.251,11.772,29-10.79,34.417-21.857-31.98-8.827-79.341-10.912-51.783-19.99-95.111-21.87-24.011-13.038Z" transform="translate(-864.964 -1227.3)" fill="#eaeaea" stroke="#d1d1d1" stroke-linecap="round" stroke-linejoin="round" stroke-width="2"/>
      <path id="Path_1093" data-name="Path 1093" d="M554.13,1399.993l-7.542,14.492,8.489,6.161,6.369-2.573,15.836,28.6,53.425,4.722,48.226,28.27,75.938,4.824,14.886,9.214,12.442-9.214h20.148l3.958-13.511-214.388-68.226Z" transform="translate(-856.824 -1193.318)" fill="#bcbcbc" stroke="#bcbcbc" stroke-linecap="round" stroke-linejoin="round" stroke-width="2"/>
      <path id="Path_1094" data-name="Path 1094" d="M535.1,1387.133l32.542,10.017v21.486l16.521,16.358,29.921-3.218,195.106,61.918,2.941-3.59-22.9-6.686,4.186-3.031,21.891,6.828v-3.8l-16.582-5.091" transform="translate(-886.557 -1226.591)" fill="none" stroke="#fff" stroke-linecap="round" stroke-linejoin="round" stroke-width="2"/>
      <path id="Path_1097" data-name="Path 1097" d="M493.055,1432.535l28.589,50.906v23.238l6.416,14.136-6.416,17.247-34.03-40.26-13.861-28.381,3.73-29.959Z" transform="translate(-1045.383 -1109.113)" fill="#f3e2ac" stroke="#c8c29d" stroke-linecap="round" stroke-linejoin="round" stroke-width="2"/>
      <path id="Path_1098" data-name="Path 1098" d="M480.189,1486.021,496,1464.056l27.232,50.123-10.907,18.981Z" transform="translate(-1028.722 -1027.553)" fill="#f3e2ac" stroke="#c8c29d" stroke-linecap="round" stroke-linejoin="round" stroke-width="2"/>
      <g id="Ellipse_42" data-name="Ellipse 42" transform="translate(-319.522 364.554)" fill="#fff" stroke="#c8c29d" stroke-linejoin="round" stroke-width="2">
        <ellipse cx="14.356" cy="14.35" rx="14.356" ry="14.35" stroke="none"/>
        <ellipse cx="14.356" cy="14.35" rx="13.356" ry="13.35" fill="none"/>
      </g>
      <path id="Path_1110" data-name="Path 1110" d="M551.707,1544.316l84.313,39.735L671.8,1596.2l243.179,2.785v-20.4l-15.822-25.835H878.936l13.4-27.293,11.859-38.678-47.468-14.471-7.257,23.471,2.994,17.571,4.263,45.68,4.238,37.165" transform="translate(-843.569 -1006.188)" fill="none" stroke="#c8c29d" stroke-width="2"/>
      <path id="Path_1111" data-name="Path 1111" d="M566.693,1487.566l-1.355,93.765" transform="translate(-808.283 -966.719)" fill="none" stroke="#c8c29d" stroke-linecap="round" stroke-linejoin="round" stroke-width="2"/>
      <path id="Path_1112" data-name="Path 1112" d="M554.188,1498.977l82.038-1.591,32.764,1.591,25.743,26.727,3.011,95.531" transform="translate(-837.147 -941.311)" fill="none" stroke="#c8c29d" stroke-linecap="round" stroke-linejoin="round" stroke-width="2"/>
      <path id="Path_1113" data-name="Path 1113" d="M576.262,1486.75l4.533,112.967" transform="translate(-780 -968.828)" fill="none" stroke="#c8c29d" stroke-linecap="round" stroke-linejoin="round" stroke-width="2"/>
      <path id="Path_1114" data-name="Path 1114" d="M576.262,1489.968l45.471,2.608,36.32,21.633,22.738,36.537" transform="translate(-780 -960.506)" fill="none" stroke="#c8c29d" stroke-linecap="round" stroke-linejoin="round" stroke-width="2"/>
      <path id="Path_1115" data-name="Path 1115" d="M586.925,1516.124l11.041-24.521" transform="translate(-752.396 -956.273)" fill="none" stroke="#c8c29d" stroke-linecap="round" stroke-linejoin="round" stroke-width="2"/>
      <path id="Path_1116" data-name="Path 1116" d="M561.126,1609.747l56.3,5.971,39.092,5.425,40.53,19,105.748-5.286-13.682-144.744,10.677-20.642" transform="translate(-819.186 -1013.543)" fill="none" stroke="#c8c29d" stroke-linecap="round" stroke-linejoin="round" stroke-width="2"/>
      <path id="Path_1117" data-name="Path 1117" d="M585.1,1511.985l-.791,37.808" transform="translate(-759.174 -903.537)" fill="none" stroke="#c8c29d" stroke-linecap="round" stroke-linejoin="round" stroke-width="2"/>
      <path id="Path_1136" data-name="Path 1136" d="M649.652,1514.448l-1.653,41.2" transform="translate(-594.281 -897.162)" fill="none" stroke="#c8c29c" stroke-linecap="round" stroke-linejoin="round" stroke-width="2"/>
      <path id="Path_1120" data-name="Path 1120" d="M616.243,1493.065l71.048-2.631,68.076,21.508,7.712-21.508L732.735,1479.3" transform="translate(-672.907 -984.53)" fill="none" stroke="#c8c29d" stroke-linecap="round" stroke-linejoin="round" stroke-width="2"/>
      <path id="Path_1121" data-name="Path 1121" d="M661.159,1475.4,659,1504.558" transform="translate(-569.386 -994.625)" fill="none" stroke="#c8c29d" stroke-linecap="round" stroke-linejoin="round" stroke-width="2"/>
      <path id="Path_1122" data-name="Path 1122" d="M628.646,1655.531l-10.9-158.1" transform="translate(-672.593 -941.183)" fill="none" stroke="#c8c29d" stroke-linecap="round" stroke-linejoin="round" stroke-width="2"/>
      <path id="Path_1123" data-name="Path 1123" d="M597.692,1617.485l25.438-40.808,21.995,19.059,41.565,3.359,33.209-8.4L709.3,1536.856l13.484,53.844,26.4-2.883-6.133-79.975,6.133,79.975L766.6,1620.7l36.768,11.3,4.125,1.268-2.723-63.723H778.462v40.276L766.6,1620.7l-2.886,24.739s2.75-25.508,2.886-24.739l40.893,12.563,34.305-1.268,3.983-32.9-9.917-29.557s-29.673.326-31.1,0" transform="translate(-724.521 -914.258)" fill="none" stroke="#c8c29d" stroke-linecap="round" stroke-linejoin="round" stroke-width="2"/>
      <path id="Path_1184" data-name="Path 1184" d="M690.115,1558.168l29.03-44.669,32.67-7.833,26.5-10.85,30.894,13.556,75.388-6.232,22.4,19.831-55.967,20.722,13.895,23.134h-99.6l-41.4-17.2Z" transform="translate(-485.249 -947.962)" fill="#79d7f5" stroke="#79d7f5" stroke-linecap="round" stroke-linejoin="round" stroke-width="2"/>
      <path id="Path_884" data-name="Path 884" stroke="#207dff" d="M3655.3-610.1s10.236-33.055,5.605-55.957-14.83-.806-24.13-35.654-8.657-45.09-4.025-87.5,18.655-46.206,22.55-82.15,4.563-54.95-7.789-72.332-31.732-10.178-48.152-21.824-17.525-24.762-17.525-24.762,63.654-37.479,115.224-37.479,96.108,42.2,96.108,42.2" fill="none" transform="translate(-3220.075 1181.5)" stroke-linecap="round" stroke-linejoin="round" stroke-width="4" stroke-dasharray="8"/>
      <path id="Path_1140" data-name="Path 1140" d="M661.222,1709.992l32.2-89.18,34.772-83.887" transform="translate(-560.048 -839.001)" fill="none" stroke="#fff" stroke-linecap="round" stroke-linejoin="round" stroke-width="2"/>
      <path id="Path_1124" data-name="Path 1124" d="M659.838,1497.772l18.651,27.745-8.033,27.078,3.66,42.3" transform="translate(-563.634 -940.311)" fill="none" stroke="#c8c29d" stroke-linecap="round" stroke-linejoin="round" stroke-width="2"/>
      <path id="Path_1125" data-name="Path 1125" d="M676.69,1481.791l27.381,14.177v14.327l12.908,4.336-6.747,12.13H697.327L683.9,1536.74l-32.286,3.611" transform="translate(-584.916 -981.664)" fill="none" stroke="#c8c29d" stroke-linecap="round" stroke-linejoin="round" stroke-width="2"/>
      <path id="Path_1126" data-name="Path 1126" d="M701.926,1584.583l9.615-26.437-2.87-29.949-20.83-24.155-2.594-12.952-18.3-5.016" transform="translate(-545.231 -970.581)" fill="none" stroke="#c8c29d" stroke-linecap="round" stroke-linejoin="round" stroke-width="2"/>
      <path id="Path_1127" data-name="Path 1127" d="M701.23,1620.071,675.654,1573.7l-8.2-79.156" transform="translate(-543.914 -948.675)" fill="none" stroke="#c8c29c" stroke-linecap="round" stroke-linejoin="round" stroke-width="2"/>
      <path id="Path_1128" data-name="Path 1128" d="M582.046,1537.635l45.358,9.34H716.52L753.7,1515.8l-37.179,31.178L684.336,1578.7l-21.672,62.564" transform="translate(-765.026 -893.674)" fill="none" stroke="#fff" stroke-linecap="round" stroke-linejoin="round" stroke-width="2"/>
      <path id="Path_1129" data-name="Path 1129" d="M780.586,1514.074l-141.966,1.4" transform="translate(-618.563 -898.13)" fill="none" stroke="#fff" stroke-linecap="round" stroke-linejoin="round" stroke-width="2"/>
      <path id="Path_1130" data-name="Path 1130" d="M667.242,1489.968l-16.119,25.823" transform="translate(-586.193 -960.506)" fill="none" stroke="#c8c29d" stroke-linecap="round" stroke-linejoin="round" stroke-width="2"/>
      <path id="Path_1134" data-name="Path 1134" d="M585.782,1506.909l-1.025,16.94" transform="translate(-758.007 -916.669)" fill="none" stroke="#c8c29d" stroke-width="2"/>
      <path id="Path_1135" data-name="Path 1135" d="M630.216,1518.33l31.886-3.882" transform="translate(-640.32 -897.162)" fill="none" stroke="#fff" stroke-linecap="round" stroke-linejoin="round" stroke-width="2"/>
      <path id="Path_1137" data-name="Path 1137" d="M681.735,1518.652l19.529,29.24-15.281,34.791" transform="translate(-506.944 -886.285)" fill="none" stroke="#c8c29c" stroke-linecap="round" stroke-linejoin="round" stroke-width="2"/>
      <path id="Path_1138" data-name="Path 1138" d="M698.87,1554.85l-22.164-25.485" transform="translate(-519.964 -858.562)" fill="none" stroke="#c8c29c" stroke-linecap="round" stroke-width="2"/>
      <path id="Path_1139" data-name="Path 1139" d="M1056.9,1774.012,680.135,1536.864" transform="translate(-511.085 -839.161)" fill="none" stroke="#fff" stroke-linecap="round" stroke-linejoin="round" stroke-width="2"/>
      <path id="Path_1141" data-name="Path 1141" d="M718.012,1548.351l101.8,62.571-75.046,118.972-85.9-51.322" transform="translate(-566.142 -809.438)" fill="none" stroke="#fff" stroke-linecap="round" stroke-linejoin="round" stroke-width="2"/>
      <path id="Path_1142" data-name="Path 1142" d="M777.806,1610.875l-102.644-62.559" transform="translate(-523.961 -809.528)" fill="none" stroke="#fff" stroke-linecap="round" stroke-linejoin="round" stroke-width="2"/>
      <path id="Path_1143" data-name="Path 1143" d="M769.561,1616.579l-97.991-59.515" transform="translate(-533.262 -786.894)" fill="none" stroke="#fff" stroke-linecap="round" stroke-linejoin="round" stroke-width="2"/>
      <path id="Path_1144" data-name="Path 1144" d="M757.7,1621.3l-89.779-53.263" transform="translate(-542.694 -758.494)" fill="none" stroke="#fff" stroke-linecap="round" stroke-linejoin="round" stroke-width="2"/>
      <path id="Path_1145" data-name="Path 1145" d="M717.624,1606.85l-39.33-25.6" transform="translate(-515.852 -724.306)" fill="none" stroke="#fff" stroke-linecap="round" stroke-linejoin="round" stroke-width="2"/>
      <path id="Path_1146" data-name="Path 1146" d="M706.1,1602.5l-41.951-25.518" transform="translate(-552.473 -735.345)" fill="none" stroke="#fff" stroke-linecap="round" stroke-linejoin="round" stroke-width="2"/>
      <path id="Path_1165" data-name="Path 1165" d="M723.932,1526.792l39.98,12.771,27.467,29.052v28.811l17.549,24.89v20.412" transform="translate(-397.7 -865.223)" fill="none" stroke="#c8c29c" stroke-linecap="round" stroke-linejoin="round" stroke-width="2"/>
      <path id="Path_1166" data-name="Path 1166" d="M787.122,1526.792l-35.465,4.389-15.288,12.432" transform="translate(-365.502 -865.223)" fill="none" stroke="#c8c29c" stroke-linecap="round" stroke-linejoin="round" stroke-width="2"/>
      <path id="Path_1167" data-name="Path 1167" d="M719.553,1609.562l16.219-34.144V1527.1" transform="translate(-409.037 -864.425)" fill="none" stroke="#c8c29c" stroke-linecap="round" stroke-linejoin="round" stroke-width="2"/>
      <path id="Path_1168" data-name="Path 1168" d="M790.659,1562.611l-33.568-20.168-32.87-2.213" transform="translate(-396.953 -830.449)" fill="none" stroke="#c8c29c" stroke-width="2"/>
      <path id="Path_1169" data-name="Path 1169" d="M736.724,1593.407l-17.733-13.963,1.628-14.761,23.418-2.073,11.506-17.819,38.176,22.472-2.007,14.108H761.648l-6.1,12.035Z" transform="translate(-410.492 -818.646)" fill="#d1e0a8" stroke="#c8c29c" stroke-linecap="round" stroke-linejoin="round" stroke-width="2"/>
      <path id="Path_1170" data-name="Path 1170" d="M718.386,1568.039l-14.924,30.828,27.787,21.744v16.273l50.556,39.18,32.426-49.035-48.722-28.163-47.122-30.828" transform="translate(-454.285 -758.494)" fill="#d1e0a8" stroke="#fefcf7" stroke-linecap="round" stroke-linejoin="round" stroke-width="2"/>
      <path id="Path_1171" data-name="Path 1171" d="M778.732,1582.887l-37.723,55.774,41.887,29.953,24.241-38.514,8.978-24.456Z" transform="translate(-353.489 -720.078)" fill="#d1e0a8" stroke="#fff" stroke-width="2"/>
      <path id="Path_883" data-name="Path 883" stroke="#207dff" d="M3719.6-556.809s-59.072-20.928-82.018-43.814-11.238-24.011-9.768-47.73-1.212-8.466-9.111-66.243c-4.293-31.4,1.73-98.428,0-122.338-1.152-15.94-14.379-22.253-16.548-32-5.793-26.118-1.485-29.31,7.438-37.037,11.772-10.194,20.62,11.209,42.434,17.711s29.219-5.637,48.053,4.233,7.392,24.487,27.283,35.247c6.584,3.561,18.857-1.879,26.353,0,11.981,3.021,18.362,10.6,25.93,7.789,11.311-4.2,19.625-23.683,19.625-23.683" fill="none" transform="translate(-3174.278 1489.636)" stroke-linecap="round" stroke-linejoin="round" stroke-width="4" stroke-dasharray="8"/>
      <path id="Path_1175" data-name="Path 1175" d="M631.949,1531.238l8.395,52.3" transform="translate(-635.835 -853.718)" fill="none" stroke="#c8c29d" stroke-linecap="round" stroke-linejoin="round" stroke-width="2"/>
      <path id="Path_1177" data-name="Path 1177" d="M665.525,1542.273l31.427,10.9" transform="translate(-548.909 -825.163)" fill="none" stroke="#c8c29d" stroke-linecap="round" stroke-width="2"/>
      <path id="Path_1176" data-name="Path 1176" d="M661.649,1542.644l-8.366,16.447" transform="translate(-580.601 -824.206)" fill="none" stroke="#c8c29d" stroke-linecap="round" stroke-linejoin="round" stroke-width="2"/>
      <path id="Path_1181" data-name="Path 1181" d="M693.319,1575.122l-23.7-11.7-20.8,17.871,24.844,18.6Z" transform="translate(-592.144 -770.454)" fill="#d1e0a8"/>
      <path id="Path_885" data-name="Path 885" stroke="#207dff" d="M3947.825-935.667s-12.4,41.238-54.612,53.151c-18.363,5.182-45.047-9.547-67.385-11.722a103.732,103.732,0,0,0-46.854,6.221s-22.6,5.753-49.167,54.649-24.332,99.437-58.733,137.985-156.937-6.294-188.427,16.2-16.4,89.992-16.4,89.992" fill="none" transform="translate(-3528.664 1419.806)" stroke-linecap="round" stroke-linejoin="round" stroke-width="4" stroke-dasharray="8"/>
      <path id="Path_1183" data-name="Path 1183" d="M635.591,1591.93l17.444-9.184-7.165-18.258-13.707,9.654Z" transform="translate(-635.28 -767.684)" fill="#d1e0a8"/>
      <path id="Path_1178" data-name="Path 1178" d="M625.2,1551.786l52.824,48.858,15.332,23.79v30.655" transform="translate(-653.303 -800.55)" fill="none" stroke="#c8c29d" stroke-linecap="round" stroke-linejoin="round" stroke-width="2"/>
      <path id="Path_1179" data-name="Path 1179" d="M621.14,1588.688l41.748,21.01,39.531-27.625,9.359-31.587-9.359,31.587-26.748-31.587" transform="translate(-663.816 -803.913)" fill="none" stroke="#c8c29d" stroke-linecap="round" stroke-linejoin="round" stroke-width="2"/>
      <path id="Path_1180" data-name="Path 1180" d="M648.548,1626.385l36.93-33.071v-11.176l35.909,3.8-9.144,19.6s-26.886-12.019-26.765-12.223,26.765,12.223,26.765,12.223l-22.15,24.976-27.667-15.556,27.667,15.556,22.15,18.787-49.818-34.344,7.932-9.42-27.847-23.4" transform="translate(-608.492 -801.854)" fill="none" stroke="#c8c29d" stroke-linecap="round" stroke-linejoin="round" stroke-width="2"/>
      <path id="Path_1182" data-name="Path 1182" d="M632.256,1573.067l2.335,18.459,17.363-8.84-5.789-18.043" transform="translate(-635.039 -767.282)" fill="none" stroke="#c8c29d" stroke-linecap="round" stroke-linejoin="round" stroke-width="2"/>
      <path id="Path_1185" data-name="Path 1185" d="M597.883,1539.831l32.4,66.652,64.153,51.931,88.76,32.3,38.608,9.944L979.566,1801.29" transform="translate(-724.027 -831.482)" fill="none" stroke="#fff" stroke-linecap="round" stroke-linejoin="round" stroke-width="2"/>
      <path id="Path_1186" data-name="Path 1186" d="M809.066,1778.782,645.7,1580.218" transform="translate(-600.246 -726.98)" fill="none" stroke="#fff" stroke-linecap="round" stroke-linejoin="round" stroke-width="2"/>
      <path id="Path_1187" data-name="Path 1187" d="M687.177,1719.06l16.525-21.072,63.64-81.152-18.36,33.113,47.343,24.393-62.916,17.016-29.707,6.63" transform="translate(-500.034 -638.088)" fill="none" stroke="#fff" stroke-linecap="round" stroke-linejoin="round" stroke-width="2"/>
      <path id="Path_1191" data-name="Path 1191" d="M794.6,1823.01l-15.429-114.956-45.076-48.734,16.058-16.738" transform="translate(-371.404 -565.613)" fill="none" stroke="#fff" stroke-linecap="round" stroke-linejoin="round" stroke-width="2"/>
      <path id="Path_1188" data-name="Path 1188" d="M813.168,1830.96l-9.274-93.6-33.8-57.875-28.8-34.529-9.44,5.613L713.9,1639.51" transform="translate(-423.676 -573.562)" fill="none" stroke="#fff" stroke-linecap="round" stroke-linejoin="round" stroke-width="2"/>
      <path id="Path_1189" data-name="Path 1189" d="M828.416,1778.377l-30.621-.939-92.451-141.257" transform="translate(-445.82 -582.178)" fill="none" stroke="#fff" stroke-linecap="round" stroke-linejoin="round" stroke-width="2"/>
      <path id="Path_1190" data-name="Path 1190" d="M913.291,1727.921l-161.174,21.5-40.236-24.048v-29.766l45.35-30.043" transform="translate(-428.9 -506.143)" fill="none" stroke="#fff" stroke-linecap="round" stroke-linejoin="round" stroke-width="2"/>
      <path id="Path_1192" data-name="Path 1192" d="M746.745,1660.884l75.161,78.3" transform="translate(-338.641 -518.261)" fill="none" stroke="#fff" stroke-linecap="round" stroke-linejoin="round" stroke-width="2"/>
      <path id="Path_1193" data-name="Path 1193" d="M684.786,1645.323l44.806,84.94" transform="translate(-499.044 -558.523)" fill="none" stroke="#fff" stroke-linecap="round" stroke-linejoin="round" stroke-width="2"/>
      <path id="Path_1194" data-name="Path 1194" d="M693.079,1662.383l16.089-6.353,19.423,37.67" transform="translate(-477.575 -530.818)" fill="none" stroke="#fff" stroke-linecap="round" stroke-linejoin="round" stroke-width="2"/>
      <path id="Path_1195" data-name="Path 1195" d="M730.555,1640.6l-31.064,23.35,34.1,56.655" transform="translate(-460.975 -570.737)" fill="none" stroke="#fff" stroke-linecap="round" stroke-linejoin="round" stroke-width="2"/>
      <path id="Path_882" data-name="Path 882" stroke="#207dff" d="M3524.238-731.423a190.635,190.635,0,0,0,51.361-15.209c18.905-8.583,38.424-27.1,60.892-30.268,52.37-7.394,66.707-1.114,97.228,15.9s25.667,32.041,44.214,42.782,30.078-1.854,30.078-1.854" fill="none" transform="translate(-3369.175 1822.702)" stroke-linecap="round" stroke-linejoin="round" stroke-width="4" stroke-dasharray="8"/>
      <path id="Path_1196" data-name="Path 1196" stroke="#142d4c" d="M500.508,1382.286l9.841,57.19,123.83,92.1,297.008,70.349H1171.53l272.643,194.734,192.734,239.369" fill="none" transform="translate(-976.118 -1239.134)" stroke-linecap="round" stroke-linejoin="round" stroke-width="2" stroke-dasharray="10"/>
      <path id="Path_1197" data-name="Path 1197" stroke="#142d4c" d="M869.139,1289.16l-69.282,151L681.676,1614.517v126.46l36.169,92,111.48,99.427" fill="none" transform="translate(-507.097 -1480.096)" stroke-linecap="round" stroke-linejoin="round" stroke-width="2" stroke-dasharray="10"/>
      <path id="Path_1198" data-name="Path 1198" d="M500.508,1393.085,548.2,1514.251l70.048,70.866,166.273,97.223,171.939,101.207,105.522,106.362,136.955,69.958,138.19,103.866,53.76,171.383,21.855,104.611-21.855,153.413" transform="translate(-976.118 -1211.19)" fill="none" stroke="#142d4c" stroke-linejoin="round" stroke-width="2" stroke-dasharray="10"/>
      <path id="Path_1199" data-name="Path 1199" stroke="#142d4c" d="M1243.589,1901.5,996.826,1734.224,885.375,1682.1l-62.567-11.472-101.39-49.7s-151.855-67.707-151.855-67.707" fill="none" transform="translate(-797.346 -796.838)" stroke-linecap="round" stroke-linejoin="round" stroke-width="2" stroke-dasharray="10"/>
      <path id="Path_881" data-name="Path 881" d="M4355.912-985.978c11.112-6.679,55.5,9.818,61.984,16.4s-9.879,5.167,19.605,18.932,98.33,36.129,98.33,36.129l18.157-71.46s-93.888-111.81-160.616-185.406-87.8-108.18-106.292-108.982c-47.319-2.08-112.46,30.278-139.217,51.331-36.354,28.6,5.733,39.825,0,57.651,0,0,1.113,13.653-22.935,13.653s-31.834-22.158-73.26-13.653-79.326,20.123-140.277,82.97-63.4,93.227-95.615,167.8-33.245,130.491-33.245,130.491-32.27,88.732-80.066,149.893-111.123,94.748-111.123,94.748h-25.93s-35.664,44.929-51.807,87.023-1.454,48.43-12.767,81.353-3.913,22.217-33.44,50.231-47.324,27.691-84.673,61.825c-24.687,22.562-39.706,48.533-51.978,70.049-30.007,52.606,16.624,50.25,16.624,78.551s-16.624,34.65-16.624,34.65-13.939,1.371-16.96,5.751.637,8.827,4.876,11.769,12.083,0,12.083,0,31.1,37.18,46.3,50.635,9.035,2.9,24,11.3,35.879,22.286,35.879,22.286,113.558,15.815,181.889,69.345,94.327,140.224,94.327,140.224,89.494,35.362,124.08,60.545-13.1,11.769,35.153,61.712c19.3,19.977,44.025,33.661,65.834,50.647,30.639,23.863,59.146,50.988,92.017,87.415,54.784,60.711,23.781,49.779,40.4,83.26s36.755,45.1,57.061,85.521,8.96,43.643,24.163,76.176,21.058,52.011,45.038,54.225,27.967-30.628,71.779-44.117,56.735-3.258,95.076-10.108,47.7-3.654,57.627-14.755-13.449-13.718-17.932-29.073-4.009-17.561,0-32.348,27.936-6.346,16.035-27.377-63.641-56.745-63.641-56.745l77.495-59.405s85.891,3.425,90.758-9.893-55.051-36.686-58.855-93.61,32.8-88.67,44.126-130.263-3.66-28.886,9.445-66.094c4.574-12.985,12.807-22.485,19.561-33.169,10.875-17.219,20.482-32.825,23.412-49.568,4.5-25.719-17.668-37.964-17.668-37.964V23.1s-1.41-40.823,17.668-91.005,33.838-45.084,49.672-90.433,13.378-61.547,13.664-90.965-39.562-15.41-73.482-30.862-63.82-49.336-63.82-49.336l27.924-200.264S4342.074-634.675,4253.4-681.385s-85.005-29.166-92.357-35.224-6.585-24.235-6.585-24.235-1.624-10.481-14.4-16.062-35.64,7.156-36.716-6.263,11.445-61.373,30.482-71.984,65.773-2.956,88.758-19.809-5.641-35.872,3.18-47.6,18.826,8.76,46.832,3.356,44.362-3.281,65.192-24.974S4344.8-979.3,4355.912-985.978Z" transform="translate(-3916.875 527.643)" fill="none" stroke="#142d4c" stroke-linejoin="round" stroke-width="4"/>
      <path id="Path_891" data-name="Path 891" stroke="#207dff" d="M3769.352-1083.1a114.309,114.309,0,0,0-33.412,27.1c-10.614,12.6-10.109,28.66-22.557,34.423-28.815,13.341-36.383-8.161-59.29-8.161s-30.98-3.4-35.741,16.746,10.229,47.158,3.745,59.4-17.278-17.389-29.68-10.445-19.929,38.221-19.929,38.221" fill="none" transform="translate(-3251.441 1052.676)" stroke-linecap="round" stroke-linejoin="round" stroke-width="4" stroke-dasharray="8"/>
      <path id="Path_890" data-name="Path 890" stroke="#207dff" d="M3444.117-1143.048s39.964,33.346,76.621,38.531,48.936-21,70.007-17.792-6.38,22.678,14.134,31.083,50.022-6.369,74.713,0,5.722,17.444,16.706,25.476,30.084-9.37,35.971,6.654-13.868,32.333-12.428,57.443,12.141,5.971,14.387,36.344-6.832,100.728-6.832,100.728" fill="none" transform="translate(-3576.604 890.379)" stroke-linecap="round" stroke-linejoin="round" stroke-width="4" stroke-dasharray="8"/>
      <path id="Path_1200" data-name="Path 1200" d="M1238.092,1415.594l63.707,13.78v20.7l114.8,41.527,21.553-78.073L1180.24,1125.2l-85.961,14.614-73.9,48.727,13,42.368-13,18.463L960.372,1230.9l-57.362,9.165L848.1,1271.382l-76.845,67.463-53.2,90.53L667.19,1608.6v18.478l76.722,36.833,62.447-24.026,15.878,2.872-3.256,24.5,10.331,9.989,80.391-5.763,6.471,15.072v12.952l34.964,2.451,5.683,19.933-14.631,36.435,6.544,24.983,8.087,12.548v45.619l-5.683,54.648,89.787-12.131,22.307,4.516,10.864,35.416,35.141,45.264,17.426,19.415,16.273-26.353,23.763,18.922,5.928-24.956L1166.7,1927.3l8.852-27.439,35.789-3.737,24.52,16.034,27.386-4.735,24.567-40.319,45.483-31.056-196.76-114.158-91.22-33.1-13.139-37.678-44.626-3.053,4.4-42.411,28.567-40.363,67.879-8.7,26.07-18.917-7.088-28.683,3.833-12.423,28.184,7.832,54.446-7.832,29.757-21.636,9.456-33.135Z" transform="translate(-799.408 -1875.654)" fill="#ffeb00" opacity="0"/>
      <path id="Path_1432" data-name="Path 1432" d="M861.233,1264.146l72.9,36.768,37.808-5.609,33.156-14.631,22.4,3.2-6.71,17.036,6.71,16.6,59.139-4.476,24.715-2.1,7.061,25.787,13.5,3.936,21.349-3.936,3.7,24.529-11.786,33.212v21.82l11.786,20.588-3.7,100.664-61.759,11.016-49.542,16.382-24.368,17.732-9.313,40.469v37.909l9.313,73.273L827.61,1678.764,697.7,1665.591l-108.069-31.313,14.667-72.984,46.463-63.992h26.155l94.9-73.222,55.792-87.351Z" transform="translate(-1000.2 -1516.123)" fill="#80ff01" opacity="0"/>
      <path id="Path_1435" data-name="Path 1435" d="M465.69,1704.033l15.73-1.206,16.859-25.965L490,1649.756l-22.174-24.347,13.6-43.286,49.3-60.326,58.455-40.695,55.059-51.675,11.406-54.157,114.28,35.057,124.045,10.915,88.751,26.055,138.483,38.779-13.4,27.837-25.069,3.477-31.53-6.351-20.166,17.377-12.882,33.919v37.929l15.8,13.477,30.74,10.569,6.825,22.585-12.2,28.012L1021.4,1706.3l-48.928,29.921-84.878,33.169L843.611,1774H806.388l-39.209,17.454-5.385,23.263v19.27l20.678,19.318,21.713,16.758,32.693,14.474,41.178,13.654,26.719,9.69-17.183,25.714-31.807,51.178L802.3,1907.88l-54.819-49.247-72.324-30.6-87.669-22.858-38.609-24.221-25.339-9.068-37.464-44.82-4.659-7.23-15.73,3.452Z" transform="translate(-1066.259 -1257.285)" fill="#00ff9d" opacity="0"/>
      <path id="Path_1437" data-name="Path 1437" d="M1030.41,1397.071s18.466,21.447,18.466,21.447l38.545,11.1,14.106,18.944,4.8,26.755-4.8,37.918L1096,1543.259l-8.761,17.834-8.149,38.357-1.1,29.34,2.438,40.616,6.81,15.011-12.091,24.7-24.084,23.341-33.118,6.71-38.648-9.22-23.468-3.248-31.016,4.435-17.274,8.033,15.816-32.925v-6.675l-15.816-5.3H876.576l-25.494-29.608-54.646-22.406-58.374-41.107-37.433-29.191L657.44,1563.9l-28.484-11.859-9.23-23.424,13.007-55.219,21.532-15.864,26.161,4.824,29.482-4.824,13.019-26.043,35.251,3.087,47.592,10.105h82.7l61.791-15.17Z" transform="translate(-667.477 -1200.877)" fill="#00a7ff" opacity="0"/>
      <path id="Path_1438" data-name="Path 1438" d="M1075.711,1496.769l-22.953-9.5-41.552-6L956,1446.246l-47.536-41.586-46.68-18.9-46.361,3.851L742.9,1417.2l-7.708,8.612,15.37,20.438,46.479,13.532,13.521,30.422-6.469,55.079-15.311,49.069-8.744,55.3,5.069,53.643,25.455,40.408L804.1,1804.59l35.2,21.592,35.926,3.828,22.358,3.957,15.761,30.023,48.5,10.778,8.906,4.917,27.555-27.7L993.84,1790.7l9.17-69.22,29.873-71.835,31.179-43.918,11.649-46.182Z" transform="translate(-368.54 -1230.153)" fill="#ff0" opacity="0"/>
      <path id="Path_1439" data-name="Path 1439" d="M875.982,1856.679l3.667-44.079,21.106-33.732,19.305-41.739,5.056-40.93v-22.684l22.232-35.3,18.158-31.6,10.384-33.462-19.621-23.105L925.117,1577.2l-43.471-12.053-15.245-4.028-13.152-31.044L801,1524.29l-38.067-21.048-11.438,21.048v25.759l17.729,21.2v119.708l8.078,55.413,2.048,28.364-2.048,23.48,24.28,28.881,54.871,27.155Z" transform="translate(-326.351 -926.158)" fill="#ffb100" opacity="0"/>
      <path id="Path_1440" data-name="Path 1440" d="M1102.429,1476.623l22.382,34.065-10.109,62.03-9.55,19.285v27.3l19.658,21.775V1761.9l8.136,54.679v52.363l26.527,29.649,63.8,27.914,14.617,44.6,47.093,47v11.273l-85.034,9.464-73.492,54.785-22.56,9.737-23.2-9.737-31.261-35.52-54.411-21.5-58.643,6.559L886.742,2071.7l-53.209,15.8-6.883-31.182-44.009-59.549-35.655-31.23-76.021-65.306-39.251-27.159-17.541-26.821,6.492-21.783-3.369-57.585,14.418-24.35,23.39-13.365,81.553,5.493,49.939,1.858,33.947-11.661,19.51-17.681,20.413-62.231,20.391-53.682,14.5-29.569,30.421-29.98,47.228-10.846,47.23,9.3,28.428,1.545,19.6-6.493,24.206-25.762Z" transform="translate(-681.851 -995.036)" fill="#ff00b1" opacity="0"/>
      <path id="Path_1441" data-name="Path 1441" d="M1029.349,1762.15l-.919-16.269-64.858-53.951-25.1,6.4-16.1-8.594-26.449-30.505-13.348-10.955L835.638,1633l-56.71,6.175-48.778,28.01-54.984,17.085,31.97,52.016,27.117,38.515,15.961,42.193,7.383,36.248,21.332,36.247,22.019,19.278,23.569-8.052,28.871-27.949,50.482-17.589h44.607l69.463-9.668,15.149-13.226-15.149-11.194L1007.1,1802.1l1.778-19.719,6.629-11.217Z" transform="translate(-523.948 -590.41)" fill="#0062ff" opacity="0"/>
      <path id="Path_1434" data-name="Path 1434" d="M971.493,1552.922l27.094-184.076-66.571-36.991-43.141,26.114-21.689,38.566-17.829,9.089-27.664-4.543-21.3-8.359h-23.4l-10.958,20.53,5.977,40.333V1472l-21.039-5.375-8.54-9.58-18.773,21.774L782.8,1548.94l49.432-19.156,34.951-7.454,42.3,7.454,29.869,14.176,27.633,20.6Z" transform="translate(-398.404 -1369.622)" fill="#d801ff" opacity="0"/>
      <path id="Path_1436" data-name="Path 1436" d="M1100.879,1597.149l5.733-19.6-9.764-5.888h-36.539l-28.9-31.708-37.267-12.484-33.733-19.313-41.97-30.375-31.923-26.715-29.28-5.853V1481.8l-48.151,45.677-68.2,38.081L662.866,1593.3l-52.931,2.116s-24.9,2.451-24.9,2.451l-31.426,16.846-5.046,27.661,6.9,17.218,54.471,36.9,61.791,20.413,24.7,11.229-51.167,73.817,7.024,28.988,55.02,25.43L759.9,1883.9l31.893,24.562L786,1883.9v-40.369l13.913-18.783,22.3-15.357,46.23,1.782,31.807,2.568,56.795,2.835L998.5,1801.62l11.369-23.716,27.093-76.923,23.344-51.616,17.31-22.059Z" transform="translate(-851.702 -1076.302)" fill="#00ff14" opacity="0"/>
    </g>
  </g>
</svg>
