<svg xmlns="http://www.w3.org/2000/svg" xmlns:xlink="http://www.w3.org/1999/xlink" width="377.847" height="326.475" viewBox="0 0 377.847 326.475">
  <defs>
    <clipPath id="clip-path">
      <path id="Path_1458" data-name="Path 1458" d="M-587.621-2023.589c3.913,1.177,23.527,13.982,44.153,26.086,3.074,1.8,5.628,4.377,8.888,6.263,18.424,10.66,33.951,20.385,35.142,22.643.227.431.463,2.173,0,6.387-1.725,15.7-7.755,57.362-13.789,103.74-2.526,19.421-6.2,40.312-8.782,59.869-2.973,22.531-4.855,43.4-7.227,60.919-3.32,24.521-5.441,33.457-6.965,39.723-6.02,3.178-19.6-14.57-47.045-28.421-14.08-7.106-19.743-9.592-28.326-13.16a155.067,155.067,0,0,0-20.023-6.574,125.8,125.8,0,0,0-17.276-3.439c-33.265-3.845-36.191-2.882-70.461,6.078-16.792,4.39-38.617,11.754-52.55,18.12-4.318,1.973-12.026,4.737-15.308,6.481-6.513,3.46-6.368,4.791-10.142,3.728-3.321-.935-6.159-5.544-12.049-12.276-12.4-14.175-31.11-38.171-44.231-54.208-19.044-23.277-18.2-18.749-21.634-25.3-4.207-8.009.033-14.491,2.846-19.645,4.953-9.074,8.154-13.278,13.642-17.939s8.4-4.837,15.511-1.942S-828.413-1835-828.413-1835s7.736,10.237,11.005,6.145,4.077-5.945,1.9-22.388c-.8-6.018-3.413-14.2-4.816-22.333-2.3-13.319-3.375-26.621-2.782-31.025.936-6.946,1.081-8.3,3.422-14.678s3.147-8.192,5.941-10.829a19.59,19.59,0,0,1,6.881-4.781,24.784,24.784,0,0,1,7.445-2.065l5.5-.289,28.142.576,6.136.813,12.572,4.105,15.735,7.543,9.205,3.781,8.38,1.153,6.884-.689,7.4-1.589,7.623-2.684,6.914-3.648,4.687-5.52,3.641-6.268,3.167-7.322,3.338-7.618,7.919-14.164,5.344-6.418,4.783-5.139,14.566-13.138,6.6-5.162,10.846-7.35,7.64-4.2s3.366-1.413,9.559-4.766S-595.773-2026.041-587.621-2023.589Z" transform="translate(1610 3365.001)" fill="#fff"/>
    </clipPath>
  </defs>
  <g id="Brotorp" transform="translate(-732.981 -1340.94)">
    <g id="Mask_Group_12" data-name="Mask Group 12" clip-path="url(#clip-path)">
      <path id="Path_1068" data-name="Path 1068" d="M533.847,1379.568l.6,75.438,47.258,32.96,24.582,59.457,42.365,11.918v19.7l49.96-9.034,10.556,23.677H741.4l22.648,12.049h34.063l25.726,10.088-12.239,32.926,31.388,34.408-10.3,32.78,10.3,24.1-44.874,16.154H773.117l-47.047-27.254H693.152l-8.059,5.517v21.737l78.952,55.792,20.48-7.691h13.583l25.726,31.275-39.308,29.784-20.48-8.638-42.954,41.064h63.434l70.391,44.33v-76.756l101.052-44.884,32.475-16.175,9.647,16.175,110.976,36.246h66.22l66.427,74.155,33.2,35.359,11.256,43.664-44.458,31.268,16.439,20.335,90.455-20.335,53.53,20.335h65.229l14.664,22.831,55.491,17.728,77.044-17.728,9.218,17.728h-19.952l10.734,31.066h-42.607l16.211,57.233,26.4,20.287v63.728h20.708V2110.429h27.708V2084.32l81.071-15.447,23.688,26.005-9.925,30.1,45.276,8.139,48.824-8.139,45.72,8.139,12.01-31.066v-24.828l-25.212-36.065V1922.765l25.212-110.915,86.3-128.7v-123.81l-111.508-20.876-78.943-77.577-56.748-38.046-38.732-10.658-35.088-8.393-122.958,36.586-149.827,68.339-197.625,29.749-309.877-98.088-245.978-36.586Z" transform="translate(-737.083 203.559)" fill="#d1e0a8"/>
      <path id="Path_1173" data-name="Path 1173" d="M841.816,1695.743l-23.288-36.407-125.449,68.129,79.6,100.354L780.959,1810H794.9l-6.77-62.846,6.77-19.685Z" transform="translate(-110.397 1305.177)" fill="#d1e0a8"/>
      <path id="Path_1108" data-name="Path 1108" d="M595.672,1528.146l43.455,33.962,46.284,68.347,73.777-32.3v32.3l31.87-10.372,132.591,7.505,49.517-2.931,53.319-13.178-21.607,51.824-27.647-21.548h-64.01l-64.166-8.316-62.411,3.078-25.333,17.752v76.981l-44.2-26.926L676.466,1658.8l-25.027-54.463-66.913-57.615Z" transform="translate(-537.623 788.6)" fill="#d1e0a8"/>
      <path id="Path_1109" data-name="Path 1109" d="M833.995,1872.529,802.127,1813.7l-50.2-44.019-128.687-54.891-57.467-39.047L546.643,1633l11.553-35.613,57.576-30.8,80.8-10.572,66.744,14.507,43.332,31.145v-76.692l128.212-58.506,124.01,49.052h67.343l101.687,114.1,6.237,39.763-44.458,32.75,22.274,20.021,86.368-23.029,53.6,23.029h65.914l15.62,23.9,54.81,14.992,76.195-14.992,5.063,14.992h-15.644l6.3,29.827H1522.09l15.667,58.7,22.426,15.229,4.275,66.965,13.747,4.538,12.195-4.538-6.967-51.913,3.15-110.731h26v-26.812l80.812-15.7,23.5,27.785-9.477,29.249,51.345,10.665,35.869-10.665,48.592,7.232-42.863,79.206-8.968,78.458-22.161,67.35-30.273,61.595-12.9,71.315,34.338,77.416,48.7,42.678-10.632,14-108.433,7.273-44.074,24.553-52.992,42.447-13.308,12.147,80.377,68.821,7.481,25.118-21.557,16.615-8.65,25.387,8.65,37.335,25.2,17.37-13.559,19.621-126.113,14.517-48.319,4.8-20.2,4.848-50.045,24.467-10.483,11.722-52.824-55.253,6.211-16.778,15,4.127-7.2-69.795,9.275-16.508,21.1-11.6,23.976-19.5-23.976-37.679-109.872,62.1-14.377,6.673-50.463-65.364-40.523-64.446-7.359-48.62L1059.3,2181.136l13.291-21.227,25.1,25.083h14.4l59.326,70.3,12.866,2.941,41.472,69.146,4.645,19.714,45.169-19.714,24.3-24.523-4.62-12.311H1284.39l31.108-35.252,29.054,16.327v14.439h52.06l21.371-27.825L1143.1,2086.363l-77.5-45.918L956.465,2015.9,911.8,1972.333v-74.406l28.865-19.412,48.837-2.986,58.838,7.053,40.863,5.174h38.118l26.338,25.471,22.085-53.994-43.945,6.406h-66.2l-83.607-6.406L907.4,1872.529l4.4-36.212Z" transform="translate(-686.723 545.769)" fill="#f3e2ac" stroke="#c8c29d" stroke-linecap="round" stroke-linejoin="round" stroke-width="2"/>
      <path id="Path_1172" data-name="Path 1172" d="M647.918,1582.658l-33.211-15.978v58.489l44.125,59.5,105.547,78.376,27.571,26.005,15.085-22.163,23.155,22.163,18.54,6.236,52.125,64.361,19.976,7.118,39.337,74.03,70.921-30.579V1897.2H1017.3l31.882-37.551,27.06,18.836v14.487l54.129-3.956,19.9-22.25-350-216.231-105.073-25.365Z" transform="translate(-418.847 940.33)" fill="#eaeaea"/>
      <path id="Path_1133" data-name="Path 1133" d="M576.894,1504.149l2.363,29.805,37.859,6.024V1518.7Z" transform="translate(-567.667 694.108)" fill="#d1e0a8"/>
      <path id="Path_1132" data-name="Path 1132" d="M628.464,1543.9l51.144.511-3.778-37.19H628.464Z" transform="translate(-364.704 706.197)" fill="#d1e0a8"/>
      <path id="Path_1131" data-name="Path 1131" d="M740.712,1528.958l-10.643,10.567H715.036l-18.008,14.556-45.21,6.742,36.1-78.707,31.7,15.786,4.274,22.169Z" transform="translate(-272.786 607.353)" fill="#d1e0a8"/>
      <path id="Path_1102" data-name="Path 1102" d="M822.692,1689.812l-50.636-7.706L694.7,1651.611l-60.043-42.362-20.827-44.444,10.338-31.544,60.794-38.678,2.668-10.657-57.207,10.657-33.6-6.135,6.572,53.7H557.4l5.342,10.422-34.563,20.346,102.243,59.129,64.278,63.024,53.051,95.041,53.907-73.956Z" transform="translate(-759.406 614.48)" fill="#d1e0a8"/>
      <path id="Path_1147" data-name="Path 1147" d="M807.571,1548.75,671.444,1759.069" transform="translate(-195.546 869.733)" fill="none" stroke="#fff" stroke-linecap="round" stroke-width="2"/>
      <path id="Path_1148" data-name="Path 1148" d="M682.631,1825.475l159.542-247.116L788.968,1541.5l-7.424,8.072,22.337,15.018,4.66-3.264-19.573-11.753" transform="translate(-151.517 841.188)" fill="none" stroke="#fff" stroke-linecap="round" stroke-linejoin="round" stroke-width="2"/>
      <path id="Path_1149" data-name="Path 1149" d="M1067.765,1832.36,682.4,1598.767" transform="translate(-152.429 1066.677)" fill="none" stroke="#fff" stroke-linecap="round" stroke-width="2"/>
      <path id="Path_1150" data-name="Path 1150" d="M1062.624,1859.379,724.7,1650.044l21.868-31.306-52.325-34.908" transform="translate(-105.802 1007.863)" fill="none" stroke="#fff" stroke-linecap="round" stroke-linejoin="round" stroke-width="2"/>
      <path id="Path_1151" data-name="Path 1151" d="M707.62,1681.578l49.657-83.231" transform="translate(-53.168 1065.025)" fill="none" stroke="#fff" stroke-linecap="round" stroke-linejoin="round" stroke-width="2"/>
      <path id="Path_1152" data-name="Path 1152" d="M704.771,1590.85l63.907,36.99" transform="translate(-64.381 1035.506)" fill="none" stroke="#fff" stroke-linecap="round" stroke-width="2"/>
      <path id="Path_1153" data-name="Path 1153" d="M717.681,1719.647l61.112-98.583-21.731-16.131,119.553,76.727,143.348,90.614,18.684-18.461-25.421-16.2,38.452-55.951L925.46,1595.842" transform="translate(-13.572 1055.161)" fill="none" stroke="#fff" stroke-linecap="round" stroke-linejoin="round" stroke-width="2"/>
      <path id="Path_1154" data-name="Path 1154" d="M737.315,1773.559l114.618-177.233" transform="translate(63.702 1057.069)" fill="none" stroke="#fff" stroke-linecap="round" stroke-linejoin="round" stroke-width="2"/>
      <path id="Path_1155" data-name="Path 1155" d="M756.769,1602.4l177.612,110.813v29.927" transform="translate(140.264 1080.997)" fill="none" stroke="#fff" stroke-linecap="round" stroke-linejoin="round" stroke-width="2"/>
      <path id="Path_1156" data-name="Path 1156" d="M746.745,1776.522l113.729-173.8" transform="translate(100.814 1082.235)" fill="none" stroke="#fff" stroke-linecap="round" stroke-linejoin="round" stroke-width="2"/>
      <path id="Path_1157" data-name="Path 1157" d="M845.411,1607.923l-85.545,130.064" transform="translate(152.453 1102.732)" fill="none" stroke="#fff" stroke-linecap="round" stroke-linejoin="round" stroke-width="2"/>
      <path id="Path_1158" data-name="Path 1158" d="M917.51,1772.29,792.8,1700.152l54.486-90.088-73.942-44.61-61.172,82.224" transform="translate(-35.235 935.503)" fill="none" stroke="#fff" stroke-linecap="round" stroke-linejoin="round" stroke-width="2"/>
      <path id="Path_1159" data-name="Path 1159" d="M736.277,1691.771,812.7,1581.959l26.933,17.116-19.34,28.917,36.952,26.542" transform="translate(59.617 1000.496)" fill="none" stroke="#fff" stroke-linecap="round" stroke-linejoin="round" stroke-width="2"/>
      <path id="Path_1160" data-name="Path 1160" d="M946.962,1540.609l-59.961-4.7-23.425,27.571v38.574l9.128,35.369-41.9,106.811-57.228,85.83" transform="translate(206.422 819.182)" fill="none" stroke="#c8c29c" stroke-linecap="round" stroke-linejoin="round" stroke-width="2"/>
      <path id="Path_1161" data-name="Path 1161" d="M890.283,1838.371,794.2,1694.189v-84.295l8.7-26.76,6.1-38.678,61.143-8.034L809,1544.456l-46.689-17.665" transform="translate(162.066 783.267)" fill="none" stroke="#c8c29c" stroke-linecap="round" stroke-linejoin="round" stroke-width="2"/>
      <path id="Path_1162" data-name="Path 1162" d="M876.983,1565.623l-105.63-31.363" transform="translate(197.662 812.677)" fill="none" stroke="#c8c29c" stroke-linecap="round" stroke-linejoin="round" stroke-width="2"/>
      <path id="Path_1163" data-name="Path 1163" d="M757.828,1538.884l59.027,5.677,110.356,37.1" transform="translate(144.431 830.883)" fill="none" stroke="#c8c29c" stroke-linecap="round" stroke-linejoin="round" stroke-width="2"/>
      <path id="Path_1164" data-name="Path 1164" d="M845.365,1703.092l-43.794-63.915,4.128-78.03-4.128,78.03-41.693,2.63" transform="translate(152.499 918.546)" fill="none" stroke="#c8c29c" stroke-linecap="round" stroke-linejoin="round" stroke-width="2"/>
      <path id="Path_892" data-name="Path 892" d="M3367.1-85.414l136.875,47.542,160.457,8.827,269.074,78.5,113.355,25.155,126.932,16.815,160.887-28.006L4501.951-10.8l63.973-20.479-9.29-54.134h31.9l7.371-34.623h-14.773l3.825,1.617v-39.168l-11.034-16.053-11.083-23.007,97.973-106.312L4459.068-414.871l-195.449-90.967-7.844-29.793-30.885-22.8h-38.654l38.654-118.429,133.969-15.912v-76.586l59.225,9.134,98.236-24.745,15.387-93.439,95.254,22.894V-836.5l152.256,51.534,22.115-83.645-150.416-182.121L4453.8-1280.454l-133.838,27.576-95.07,68.054,22.01,55.159-33.451,19.595-90.418-26.161-96.979,42.053-111.734,79.61-95.771,166.241L3772.623-736.79l-18.832,119.7-42.211,98.378-86.365,136.954-105.141,101.3-72.133,11.876-63,115.418Z" transform="translate(-3643.124 1643.885)" fill="#b0e0a8"/>
      <path id="Path_1118" data-name="Path 1118" d="M600.8,1528.443l67.234-27.223v-30.2l16.58,136.06" transform="translate(-473.587 563.677)" fill="none" stroke="#c8c29d" stroke-linecap="round" stroke-linejoin="round" stroke-width="2"/>
      <path id="Path_1119" data-name="Path 1119" d="M613.962,1579.013,608.194,1475.4l5.768,110.49h40.284" transform="translate(-444.479 580.886)" fill="none" stroke="#c8c29d" stroke-linecap="round" stroke-linejoin="round" stroke-width="2"/>
      <path id="Path_1069" data-name="Path 1069" d="M762.049,1475.227l-13.585-21.07-74.155-32.114-54.653,9.387v70.876l29.786,23.233,54.05,11.113,37.375-19.489Z" transform="translate(-399.365 370.808)" fill="#f3e2ac" stroke="#c8c29d" stroke-linejoin="round" stroke-width="2"/>
      <path id="Path_1089" data-name="Path 1089" d="M628.17,1379.568l71.969,4.319v69.474l-46.325,4.432-67.184,70.491-40.06,16.848H504.1l-13.283-10.668,114.716-91.812Z" transform="translate(-906.419 203.559)" fill="#f3e2ac" stroke="#c8c29d" stroke-linecap="round" stroke-linejoin="round" stroke-width="2"/>
      <path id="Path_1070" data-name="Path 1070" d="M1120.146,1524.763l-378.839-99.512-49.6,25.465-48.824,81.547,98.425,47.159,17.333,16.348h34.575l20.139,18.22,37.549,11.9,31.055,37.993,33.577-24.9h16.618l-8.177,50.493,19.605,33.119,56.593-7.71L1080.117,1742l40.029-27.122,13.342,7.71,18.767-49.557,78.542,82.877h33.3l8.739,21.631h37.839l28.068,59.111,21.678-17.658,36.919,17.658,45.615-50.4V1742l-45.615-7.515,45.615-19.607-37.826-88.993-66.386-30.117-55.948-85.825-89.512-26.719-9.688,49.037Z" transform="translate(-307.956 383.442)" fill="#f5e7b8" stroke="#c8c29d" stroke-linecap="round" stroke-linejoin="round" stroke-width="2"/>
      <path id="Path_1081" data-name="Path 1081" d="M3546.585-960.978v53.706l90.982,11.984-7.012,13.692-51.068,7.4,26.824,60.457,132.012,35.655h63.352l24.064-117.2-14.377-65.69-73.039-32.164-18.078-22.505-89.689,34.512Z" transform="translate(-2936.736 2686.586)" fill="#eaeaea" stroke="#d1d1d1" stroke-linecap="round" stroke-linejoin="round" stroke-width="2"/>
      <path id="Path_1106" data-name="Path 1106" d="M3474.7-881.525l65.773,59.853,33.674,68.1h-81.533l-53.289-15.99-17.621-40.623Z" transform="translate(-3428.209 3214.708)" fill="#f5e7b8" stroke="#c8c29d" stroke-linecap="round" stroke-linejoin="round" stroke-width="2"/>
      <path id="Path_1101" data-name="Path 1101" d="M529.63,1496.038l55.125,29.084-14.979,38.637-79.792-33.641-7.316-55.083Z" transform="translate(-938.506 579.475)" fill="#d1e0a8"/>
      <path id="Path_1084" data-name="Path 1084" d="M811.688,1391.864l-33.327,33.818,71.9,26.9v6.611l-67.822-23.478-4.081,28.964L844.43,1478v7.516l-59.274-11.646v17.856l53.227,10.289v6.057l-53.227-10.242,1.721,19.089,140,17.745,15.2-42.938-91.81-66.041-15.521-19.321Z" transform="translate(225.249 251.974)" fill="#fff"/>
      <path id="Path_1085" data-name="Path 1085" d="M895.172,1416.7l-22.054,26.29-62.814-4.453v13.7l46.9,15.074,2.953,12.372,20.066-7.664-2.189-7.635,17.135-1.494,10.751-5.028V1419.4Z" transform="translate(350.962 349.772)" fill="#fff"/>
      <path id="Path_1042" data-name="Path 1042" d="M718.73,1340.3l11.092,43.721" transform="translate(-9.445 48.948)" fill="none" stroke="#fff" stroke-linecap="round" stroke-linejoin="round" stroke-width="2"/>
      <path id="Path_1045" data-name="Path 1045" d="M750.671,1286.825l-48.912,45.133,25.171-9.384,56.043,62.854L757.25,1398.62l-77.318-56.388-53.582-19.658,49.522,24.088,4.06,24.693,21.827,24.839,25.171,24.3,32.9-15.276-48.535-33.86,42.2,33.86-42.2-26,35.864,26-35.864-19.787,33.266,24.053-35.606-18.425,29.6,21.4-32.922-16.266,25.119,19.748" transform="translate(-373.021 -161.628)" fill="none" stroke="#fff" stroke-linecap="round" stroke-linejoin="round" stroke-width="2"/>
      <g id="Path_1046" data-name="Path 1046" transform="translate(-262.579 -69.001)" fill="none" stroke-linecap="round" stroke-linejoin="round">
        <path d="M654.412,1318.607l45.838-8.259,25.643,24.472,11.4,30.9s17.325-9.027,23.1-6.314,5.775,12.875,0,17.166-18.845-3.8-23.1,0-.443,11.407,6.083,15.21,16.5-4.829,20.02,0,2.077,14.491-5.953,19.32-26.166,0-26.166,0-.211,13.238-5.38,17.65a11.554,11.554,0,0,1-15.3,0c-3.824-3.273,0-13.09,0-13.09H700.25l-24.428,5-6.546-44.091Z" stroke="none"/>
        <path d="M 697.9906616210938 1317.867919921875 L 663.0581665039062 1324.16162109375 L 676.2009887695312 1375.548217773438 L 681.6610107421875 1412.32666015625 L 698.8463134765625 1408.808349609375 C 699.3082885742188 1408.713745117188 699.7786254882812 1408.666137695312 700.250244140625 1408.666137695312 L 710.59765625 1408.666137695312 C 712.9091186523438 1408.666137695312 715.0716552734375 1409.807250976562 716.376220703125 1411.715454101562 C 717.6807861328125 1413.62353515625 717.9592895507812 1416.052734375 717.120361328125 1418.206665039062 C 716.4697265625 1419.877075195312 715.8690185546875 1422.548706054688 715.8848876953125 1423.959838867188 C 716.6426391601562 1424.40234375 717.5123291015625 1424.654052734375 718.33447265625 1424.654052734375 C 719.3992919921875 1424.654052734375 720.3849487304688 1424.25439453125 721.3478393554688 1423.432373046875 C 722.7254638671875 1422.25 724.1749267578125 1416.083251953125 724.2740478515625 1410.982543945312 C 724.3158569335938 1408.832397460938 725.3436889648438 1406.814697265625 727.0614624023438 1405.520874023438 C 728.29052734375 1404.59521484375 729.7750854492188 1404.107421875 731.2816162109375 1404.107421875 C 731.880615234375 1404.107421875 732.4832763671875 1404.1845703125 733.074462890625 1404.342041015625 C 733.146240234375 1404.361083984375 740.4353637695312 1406.2529296875 747.0861206054688 1406.2529296875 C 751.4549560546875 1406.2529296875 753.2578735351562 1405.4521484375 753.8305053710938 1405.107666015625 C 756.851318359375 1403.290771484375 757.7703857421875 1400.71044921875 758.0493774414062 1399.334106445312 C 758.177001953125 1398.704223632812 758.211181640625 1398.134033203125 758.1875610351562 1397.64306640625 C 757.5641479492188 1397.806274414062 756.9048461914062 1397.99609375 756.367431640625 1398.150756835938 C 753.7060546875 1398.916625976562 750.6896362304688 1399.78466796875 747.4152221679688 1399.78466796875 C 744.6142578125 1399.78466796875 742.06787109375 1399.12841796875 739.8469848632812 1397.834228515625 C 733.5909423828125 1394.188720703125 729.1619873046875 1388.015380859375 728.5637817382812 1382.107055664062 C 728.1373901367188 1377.896118164062 729.5791015625 1374.078369140625 732.6233520507812 1371.357177734375 C 732.7028198242188 1371.2861328125 732.7831420898438 1371.216552734375 732.8644409179688 1371.148071289062 C 731.9041748046875 1370.365356445312 731.1582641601562 1369.333374023438 730.7205810546875 1368.146484375 L 719.8863525390625 1338.764404296875 L 697.9906616210938 1317.867919921875 M 757.57080078125 1365.90185546875 C 755.0797119140625 1365.913330078125 750.57080078125 1367.437744140625 746.407958984375 1369.190795898438 C 747.363525390625 1369.3818359375 748.3165283203125 1369.595947265625 749.2589111328125 1369.807739257812 C 751.5803833007812 1370.329345703125 753.9808959960938 1370.868774414062 756.2131958007812 1370.95751953125 C 757.0194091796875 1370.3583984375 757.58935546875 1369.166381835938 757.7006225585938 1367.846435546875 C 757.7954711914062 1366.721801757812 757.5121459960938 1365.97021484375 757.57080078125 1365.90185546875 M 700.250244140625 1310.34814453125 L 725.892822265625 1334.820556640625 L 737.288330078125 1365.724731445312 C 737.288330078125 1365.724731445312 750.3822631835938 1358.902465820312 757.5980224609375 1358.90185546875 C 758.6826782226562 1358.901733398438 759.633544921875 1359.055786132812 760.38818359375 1359.410278320312 C 766.163330078125 1362.123168945312 766.163330078125 1372.284912109375 760.38818359375 1376.576171875 C 759.11083984375 1377.525390625 757.4760131835938 1377.868774414062 755.6591186523438 1377.868774414062 C 750.913818359375 1377.868774414062 744.923095703125 1375.52783203125 740.7932739257812 1375.52783203125 C 739.3555908203125 1375.52783203125 738.1439208984375 1375.811401367188 737.288330078125 1376.576171875 C 733.0341796875 1380.37890625 736.845458984375 1387.9833984375 743.371337890625 1391.7861328125 C 744.6163940429688 1392.51171875 745.9876708984375 1392.78466796875 747.4152221679688 1392.78466796875 C 751.7448120117188 1392.78466796875 756.5974731445312 1390.275634765625 760.0513916015625 1390.275024414062 C 761.4273681640625 1390.27490234375 762.5803833007812 1390.6728515625 763.39111328125 1391.7861328125 C 766.907958984375 1396.6162109375 765.468017578125 1406.276733398438 757.4384765625 1411.106201171875 C 754.7621459960938 1412.716186523438 750.9622802734375 1413.2529296875 747.0861206054688 1413.2529296875 C 739.3331909179688 1413.2529296875 731.27294921875 1411.106201171875 731.27294921875 1411.106201171875 C 731.27294921875 1411.106201171875 731.0615234375 1424.34375 725.892822265625 1428.756225585938 C 723.4970092773438 1430.801635742188 720.8576049804688 1431.654052734375 718.33447265625 1431.654052734375 C 715.4138793945312 1431.654052734375 712.6491088867188 1430.512084960938 710.59765625 1428.756225585938 C 706.77392578125 1425.4833984375 710.59765625 1415.666137695312 710.59765625 1415.666137695312 L 700.250244140625 1415.666137695312 L 675.822509765625 1420.667114257812 L 669.27685546875 1376.576171875 L 654.412109375 1318.606689453125 L 700.250244140625 1310.34814453125 Z" stroke="none" fill="#fff"/>
      </g>
      <path id="Path_1062" data-name="Path 1062" d="M948.219,1385.611l-85.525-53.45s-1.107-7.37-11.076-3-28.8,20.483-28.8,20.483l-31.465,35.967-33.312,51.165,22.2,38.675-2.034,3.73,2.034,65.078,45.464,15.391,6.273,45.521,75.765,43.469Z" transform="translate(163.439 13.887)" fill="#f5e7b8"/>
      <path id="Path_1051" data-name="Path 1051" d="M694.762,1461.875,567.727,1380.55l28.483-43.033,102.1,48.241-75.21,87.75-71.777,34.19-31.438-25.38" transform="translate(-792.019 37.976)" fill="none" stroke="#fff" stroke-linecap="round" stroke-linejoin="round" stroke-width="2"/>
      <path id="Path_1047" data-name="Path 1047" d="M624.916,1276.981l-1.243,28.056,1.243,31.016,15.427,17.591h46.689l-51.346,5.415V1382.4l-5.26-23.343-37.36,38.5-3.073,29.039" transform="translate(-516.112 -200.386)" fill="none" stroke="#fff" stroke-linecap="round" stroke-linejoin="round" stroke-width="2"/>
      <path id="Path_1048" data-name="Path 1048" d="M581.7,1435.675l65.619-152.628-28.376,29.564,16.881,68.813-3.36-46.641-3.855-26.328" transform="translate(-548.744 -176.502)" fill="none" stroke="#fff" stroke-linecap="round" stroke-linejoin="round" stroke-width="2"/>
      <path id="Path_886" data-name="Path 886" stroke="#7e20ff" d="M3528.193-471.779,3597.875-575.5l-132.717-49.182s-60.219-41.635-69.58-77.239c-3.418-13,8.088-13.367,11.637-22.391,4.611-11.9,8.32-24.484,57.943-37.249,25.111-6.459,39.9-2.7,62.754-2.345,19.254.313,46.268-2.611,95.168-21.476,98.984-38.187,109.266-52.913,169.051-95.968s7.908-97.252,52.371-85.169,72,57.986,130.846,91.878,56.164,22.543,85.754,39.016,18.65,32.845,43.023,45.406,37.066-5.152,54.473,4.838,0,48.352,0,48.352" fill="none" transform="translate(-3533.514 2873.263)" stroke-linecap="round" stroke-linejoin="round" stroke-width="4" stroke-dasharray="8"/>
      <path id="Path_888" data-name="Path 888" stroke="#7e20ff" d="M3564.827-812.912s-79.057-.5-92.2-37.388-1.828-87.848,28.42-113.45,50.633,10.782,78.148,0,31.91-43.129,31.91-43.129" fill="none" transform="translate(-3249.063 2721.118)" stroke-linecap="round" stroke-linejoin="round" stroke-width="4" stroke-dasharray="8"/>
      <path id="Path_1044" data-name="Path 1044" d="M629.022,1283.788l31.754,16.144,133.776-8.654,42.325,49.682-34.64,80.11" transform="translate(-362.507 -173.587)" fill="none" stroke="#fff" stroke-linecap="round" stroke-linejoin="round" stroke-width="2"/>
      <path id="Path_1043" data-name="Path 1043" d="M639.043,1274.826l-49.527,40.5h97.269l46.408-10.5v27.062l8.154-27.062,43.011,10.5-30.207,16.566v18.588" transform="translate(-517.989 -208.873)" fill="none" stroke="#fff" stroke-linecap="round" stroke-linejoin="round" stroke-width="2"/>
      <path id="Path_893" data-name="Path 893" d="M4124.564-631.393l12.82,10.722,63.531-23.49,25.514,18.136,9.061-33.918-54.07-18.176,54.07-47.689-66.852-61.469-31.254-76.7L3958.943-829.91v30.556l-27.834,28.5-23.674-39.325,40.193-89.608-56.646-20.329,16.453-65.432-16.453-42.575-110.928,42.575-36.623-53.7-9.52-45.3-42.389-35.5-80.652,103.812-35.121-23.013-33.48,38.813,7.426,25.692h26.055l-16.6,42.562-34.037-13.708-42.691-47.68-7.719,18.827-12.645,10.632,12.645,18.221L3403.32-782l187.5,111.454L3641-725.807,3610.871-762.8l7.893-30.2L3641-810.178l151.418,77.541,14,111.966L3931.109-578.7l101.234,13.775,8.686-13.775-62.109-14.119,39.244-38.577,53.254,38.577Z" transform="translate(-3500.577 2275.495)" fill="#f5e7b8" stroke="#fff" stroke-linecap="round" stroke-linejoin="round" stroke-width="4"/>
      <path id="Path_912" data-name="Path 912" d="M3586.091-980.493l-39.105-64.4-30.242-20.609-29.223,44.825,16.7,17.969V-941.6l27.824,2.483,12.387,16.756Z" transform="translate(-3174.121 2500.143)" fill="#dedede" stroke="#c8c29d" stroke-linecap="round" stroke-linejoin="round" stroke-width="2"/>
      <path id="Path_1056" data-name="Path 1056" d="M601.162,1358.118l18.711,18.412,33.612-3.2-33.612,7.5,3.2,20.089,24.921,15.057,42.81-21.205,32.841,21.205-3.817,49.91,39.53-32.774,14.361,86.957-38.889,7.97v-7.97l27.675-5.653-3.147-6.766-24.528,6.766,11.955-36.2-34.062,2.479v-44.048" transform="translate(-472.154 119.093)" fill="none" stroke="#fff" stroke-linecap="round" stroke-linejoin="round" stroke-width="2"/>
      <path id="Path_1099" data-name="Path 1099" d="M499.863,1540.833l21.568-57.431,69.937,45.022,80.561,23.707-37.062,19.952-65.756-19.952Z" transform="translate(-870.837 612.42)" fill="#f3e2ac" stroke="#c8c29d" stroke-linecap="round" stroke-linejoin="round" stroke-width="2"/>
      <g id="Path_1057" data-name="Path 1057" transform="translate(-482.296 180.064)" fill="none" stroke-linecap="round" stroke-linejoin="round">
        <path d="M622.7,1373.6l24.97,25-9.92,27.857-39.168-24.494,8.366-10.263Z" stroke="none"/>
        <path d="M 622.904541015625 1379.463623046875 L 610.0111083984375 1394.282836914062 L 604.5503540039062 1400.981811523438 L 635.6546630859375 1420.432861328125 L 643.0572509765625 1399.644409179688 L 622.904541015625 1379.463623046875 M 622.703125 1373.60107421875 L 647.673095703125 1398.60595703125 L 637.75341796875 1426.463012695312 L 598.5849609375 1401.969116210938 L 606.951171875 1391.705810546875 L 622.703125 1373.60107421875 Z" stroke="none" fill="#fff"/>
      </g>
      <path id="Path_1058" data-name="Path 1058" d="M625.061,1370.1l-18.045,66.578,47.2,22.381,39.614-25.728Z" transform="translate(-449.115 166.283)" fill="none" stroke="#fff" stroke-linecap="round" stroke-linejoin="round" stroke-width="2"/>
      <path id="Path_1059" data-name="Path 1059" d="M656.4,1412.277l-41.286-44.34" transform="translate(-417.227 157.761)" fill="none" stroke="#fff" stroke-linecap="round" stroke-linejoin="round" stroke-width="2"/>
      <path id="Path_1060" data-name="Path 1060" d="M596.169,1382.5l67.413,36.63,11-17.094,21.6,8.565,7.712,24.585,54.419-2.843-6.349-8.544-48.07,4.626v-9.3h48.07" transform="translate(-491.805 215.085)" fill="none" stroke="#fff" stroke-linecap="round" stroke-linejoin="round" stroke-width="2"/>
      <path id="Path_1174" data-name="Path 1174" d="M821.851,1815.649,694.676,1675.816l7.834,64.19,37.677,79.9,28.207,24.373Z" transform="translate(-104.113 1370.071)" fill="#79d7f5" stroke="#c8c29d" stroke-width="2"/>
      <path id="Path_1105" data-name="Path 1105" d="M674.935,1475.036l-4.859,13.153H623.809L572,1531.4l-54.525-29.454-14.061,5.336,78.012,52.07,59.615,20.757L650.2,1541.4l47.435-56.157Z" transform="translate(-856.869 579.475)" fill="#d1e0a8"/>
      <path id="Path_1061" data-name="Path 1061" d="M865.924,1330.545l-50.18,43.174-44.907,66.522,23.208,35.824v70.926H765.885l-7,52.721h48.747l52.6,13.962,61.427,39.718" transform="translate(148.608 10.525)" fill="none" stroke="#fff" stroke-linecap="round" stroke-linejoin="round" stroke-width="4"/>
      <path id="Path_1095" data-name="Path 1095" d="M532.284,1516.279l45.637-42.8,22.447,17.4h43.973l51.734-23.088,63.235-67.814,44.824-4.046,47.664,30.3,18.124,41.555L851.8,1527.867l8.415,44.983-23.422,25.984-48.415,6.321-8.928-17.535,14.625-6.81,30.375-31.466v-40.887l-20.315-17.581,20.315-39.587-7.964-9.832H759.31v32.016l-36.822-5.685-30.19,18.827-47.957,14.628-6.521,39.437H613.012l-19.673-39.437-27.345,7.214-33.71,26.123,14.061,14.764,54.023,5.742,24.975,37.388,66.955,25.837,17.31,10.036h35.749v24.434H726.689l-20.873-12.553h-68l-19.307,3.846-18.145,20.145v25.456l33.706,4.185,32.778,24.2-37.741-8.425-10.6,8.425,48.34,44.9v49.508l-20.59,23.926-45.895-18.647-62.376-79.5,4.04-20.2,38.947-17.73-3.058-14.411-5.295-24.759v-14.072l-34.634-41.932V1580.81l-23.707-7.96-9.346,45.461,27.345,54.111,29.084,37.212-23.376,49.658,28,80.659L487.6,1769.72l-21.914-6.757,28.786-20.145,19.809-38.89-34.659-51.147-4.673-47.626Z" transform="translate(-1005.331 267.981)" fill="#d1e0a8"/>
      <path id="Path_911" data-name="Path 911" d="M3659.419-1028.672l-107.887-29.257-42.689-3.848-26.43,7.863-22.973,22.073-16.25,38.391,27.793,38.267" transform="translate(-3348.801 2504.951)" fill="none" stroke="#c8c29d" stroke-linecap="round" stroke-width="2"/>
      <path id="Path_1029" data-name="Path 1029" d="M601.174,1390.407l25.538-85.944,111.91-46.055L693.174,1244s-53.943,55.975-55.4,55.5" transform="translate(-472.106 -330.274)" fill="none" stroke="#fff" stroke-linecap="round" stroke-linejoin="round" stroke-width="2"/>
      <path id="Path_898" data-name="Path 898" d="M3526.469-879.7l23.816-37.823,23.076-141.863-40.924-11.329L3526.469-1053l-52.662-21.834L3409.018-948.95" transform="translate(-3478.157 2453.547)" fill="none" stroke="#c8c29d" stroke-width="2"/>
      <path id="Path_894" data-name="Path 894" d="M3414.727-1078.44l89.568,37.431s-20.939,51.662-30.146,105.35-6.686,109.4-6.686,109.4" transform="translate(-3455.69 2439.335)" fill="none" stroke="#fff" stroke-linecap="round" stroke-linejoin="round" stroke-width="4"/>
      <path id="Path_895" data-name="Path 895" d="M3588.3-991.31l-177.8-77.235" transform="translate(-3472.316 2478.297)" fill="none" stroke="#fff" stroke-linecap="round" stroke-width="4"/>
      <path id="Path_896" data-name="Path 896" d="M3605.5-991.428l-42.848,5.845-156.527-73.372" transform="translate(-3489.522 2516.058)" fill="none" stroke="#fff" stroke-linecap="round" stroke-width="2"/>
      <path id="Path_1033" data-name="Path 1033" d="M663.834,1276.452l58.729,8.6,88.011,63.2,20.728,13.134,41.571-13.134" transform="translate(-225.499 -202.474)" fill="none" stroke="#fff" stroke-linecap="round" stroke-linejoin="round" stroke-width="2"/>
      <path id="Path_1034" data-name="Path 1034" d="M788.887,1289.674l.925,38.365L828.8,1376.77l22.533,77.7h-28.67l-53.365,51.27v18.226l-104.177,22" transform="translate(-220.43 -150.408)" fill="none" stroke="#fff" stroke-linecap="round" stroke-linejoin="round" stroke-width="2"/>
      <path id="Path_1054" data-name="Path 1054" d="M615.8,1366.329l-9.219,41.73-86.266-11.506" transform="translate(-790.35 151.429)" fill="none" stroke="#fff" stroke-linecap="round" stroke-linejoin="round" stroke-width="2"/>
      <path id="Path_897" data-name="Path 897" d="M3577.3-1118.552s-57.471,55.6-93.027,114.583-51.35,121.067-51.35,121.067" transform="translate(-3384.059 2281.39)" fill="none" stroke="#fff" stroke-linecap="round" stroke-width="4"/>
      <path id="Path_899" data-name="Path 899" d="M3442.314-912.519H3496.1l97.234-138.315-43.971-32.709-20.424-27.488" transform="translate(-3347.109 2311.007)" fill="none" stroke="#c8c29d" stroke-linecap="round" stroke-linejoin="round" stroke-width="2"/>
      <path id="Path_1063" data-name="Path 1063" d="M907.206,1336.417l-65.175,44.906-19.955,51.105v148.8l-5.727-42.17L765.062,1523.7" transform="translate(172.903 33.643)" fill="none" stroke="#fff" stroke-linecap="round" stroke-linejoin="round" stroke-width="2"/>
      <path id="Path_1064" data-name="Path 1064" d="M875.979,1375.984l-40.917,11.421h-59" transform="translate(216.179 189.445)" fill="none" stroke="#fff" stroke-linecap="round" stroke-linejoin="round" stroke-width="2"/>
      <path id="Path_1065" data-name="Path 1065" d="M786.18,1342.378l9.807,77.32-9.807,61.168,20.083,34.689" transform="translate(256.017 57.12)" fill="none" stroke="#fff" stroke-linecap="round" stroke-linejoin="round" stroke-width="2"/>
      <path id="Path_1066" data-name="Path 1066" d="M909.211,1463.8,803.9,1444l-33.688-34.388,58.541-77.252" transform="translate(193.177 17.653)" fill="none" stroke="#fff" stroke-linecap="round" stroke-linejoin="round" stroke-width="2"/>
      <path id="Path_1067" data-name="Path 1067" d="M803.164,1352.3l-36.174,61.972" transform="translate(180.491 96.182)" fill="none" stroke="#fff" stroke-linecap="round" stroke-linejoin="round" stroke-width="2"/>
      <path id="Path_900" data-name="Path 900" d="M3484.474-1038.032l-42.854-28.455" transform="translate(-3349.839 2486.401)" fill="none" stroke="#c8c29d" stroke-linecap="round" stroke-width="2"/>
      <path id="Path_901" data-name="Path 901" d="M3478.42-1002.047l-25.291-68.645" transform="translate(-3304.547 2469.844)" fill="none" stroke="#c8c29d" stroke-linecap="round" stroke-width="2"/>
      <path id="Path_902" data-name="Path 902" d="M3495.368-1045.294l-37.73-31.4Z" transform="translate(-3286.8 2446.196)" fill="none" stroke="#c8c29d" stroke-linecap="round" stroke-width="2"/>
      <path id="Path_1107" data-name="Path 1107" d="M597.694,1584.088l12.974-26.457h25.716l48.723,53.253,3.016,30.633-41.971-35.248Z" transform="translate(-490.738 904.698)" fill="#f5e7b8" stroke="#c8c29d" stroke-width="2"/>
      <path id="Path_903" data-name="Path 903" d="M3464.848-936.333v-43.259l68.328-86.27,55.859-27.236h60.174" transform="translate(-3258.421 2381.617)" fill="none" stroke="#c8c29d" stroke-linecap="round" stroke-linejoin="round" stroke-width="2"/>
      <path id="Path_904" data-name="Path 904" d="M3682.257-963.206l-49.689-40.338L3564.1-1035.7l-112.721-67.481" transform="translate(-3311.438 2341.921)" fill="none" stroke="#c8c29d" stroke-width="2"/>
      <path id="Path_905" data-name="Path 905" d="M3505.772-1099.956v50.537l-14.055,43.076" transform="translate(-3152.671 2354.616)" fill="none" stroke="#c8c29d" stroke-width="2"/>
      <path id="Path_907" data-name="Path 907" d="M3548.735-1089.134l-24.586,69.111-31.627,60.413" transform="translate(-3149.501 2397.228)" fill="none" stroke="#c8c29d" stroke-width="2"/>
      <path id="Path_908" data-name="Path 908" d="M3499.562-1070.826l-22.141,35.871v30.494" transform="translate(-3208.938 2469.315)" fill="none" stroke="#c8c29d" stroke-linecap="round" stroke-linejoin="round" stroke-width="2"/>
      <path id="Path_906" data-name="Path 906" d="M3709.327-906.419l-272.9-197.276" transform="translate(-3370.28 2339.893)" fill="none" stroke="#fff" stroke-linecap="round" stroke-linejoin="round" stroke-width="4"/>
      <path id="Path_909" data-name="Path 909" d="M3487.331-1014.813l25.361-49.794Z" transform="translate(-3169.935 2493.802)" fill="none" stroke="#fff" stroke-linecap="round" stroke-linejoin="round" stroke-width="4"/>
      <path id="Path_1035" data-name="Path 1035" d="M697.712,1315.689l102.927-11.917,44.152,31.176,40.48,61.88,61-50.393,64.525,33.577-3.342,55.269,13.056,87.746L994.1,1492.6H930.792l-32.478,19.469-13.042,44.372,8.472,59.434-19.389,65.345" transform="translate(-92.164 -94.9)" fill="none" stroke="#fff" stroke-linecap="round" stroke-linejoin="round" stroke-width="2"/>
      <path id="Path_910" data-name="Path 910" d="M3558.213-994.811v-31.91l-99.85-29.892" transform="translate(-3283.945 2525.285)" fill="none" stroke="#c8c29d" stroke-width="2"/>
      <path id="Path_913" data-name="Path 913" d="M3493.219-956.019l5.531-44.337,19.391-34.834" transform="translate(-3146.766 2609.636)" fill="none" stroke="#c8c29d" stroke-linecap="round" stroke-width="2"/>
      <path id="Path_914" data-name="Path 914" d="M3565.372-960.219v-34.463l-70.529-32.59" transform="translate(-3140.367 2640.818)" fill="none" stroke="#c8c29d" stroke-linecap="round" stroke-width="2"/>
      <path id="Path_1037" data-name="Path 1037" d="M698.151,1307.181l44.756,60.982,7.617,24.287,27.943,34.433,28.684,27.725-37.009,63.008-27.234-6.909" transform="translate(-90.437 -81.475)" fill="none" stroke="#fff" stroke-linecap="round" stroke-linejoin="round" stroke-width="2"/>
      <path id="Path_915" data-name="Path 915" d="M3515.946-830.145v-25.374l103.967-163.325,54.707-39.583,22.055,39.583L3735.6-994.31" transform="translate(-3057.315 2518.141)" fill="none" stroke="#c8c29d" stroke-linecap="round" stroke-width="2"/>
      <path id="Path_916" data-name="Path 916" d="M3659.813-1035.377l-4-29.088-136.135,26.171,5.063,30.348h57.564v-14.107l61.588-35.739" transform="translate(-3042.608 2494.363)" fill="none" stroke="#c8c29d" stroke-linecap="round" stroke-width="2"/>
      <path id="Path_917" data-name="Path 917" d="M3522.038-1014.31v-38.7" transform="translate(-3033.338 2539.462)" fill="none" stroke="#c8c29d" stroke-linecap="round" stroke-width="2"/>
      <path id="Path_918" data-name="Path 918" d="M3509.133-927.9l45.99-67.316v-50.009h18.666" transform="translate(-3084.129 2570.143)" fill="none" stroke="#c8c29d" stroke-linecap="round" stroke-width="2"/>
      <path id="Path_1104" data-name="Path 1104" d="M618.726,1432.526l42.059,5.866,21.632,27.426L670.066,1503.8l-41.685-13.386L614.559,1503.8l-31.371,44.5v16.421H554.956l-24.037-22.841-3.632-24.415,18.74-19.516,64.441-24.062v-27.214Z" transform="translate(-762.904 412.088)" fill="#d1e0a8"/>
      <path id="Path_919" data-name="Path 919" d="M3700.346-962.807l-38.2-22.714-57.164,7.418-106.676-56.341" transform="translate(-3126.728 2612.571)" fill="none" stroke="#c8c29d" stroke-linecap="round" stroke-width="2"/>
      <path id="Path_920" data-name="Path 920" d="M3560.781-972.74l8.709-35.329-16.527-38.376" transform="translate(-2911.634 2565.322)" fill="none" stroke="#c8c29d" stroke-linecap="round" stroke-width="2"/>
      <path id="Path_887" data-name="Path 887" stroke="#7e20ff" d="M4429.547-924.594S4325.8-870.24,4205.09-861.424,3945.861-895.3,3945.861-895.3s-139.287-49.323-246.844-73.932c-67.266-15.392-115.732-7.038-172.494-21.147-144.8-35.991-159.873-48.886-159.873-48.886" fill="none" transform="translate(-3644.899 2593.584)" stroke-linecap="round" stroke-linejoin="round" stroke-width="4" stroke-dasharray="8"/>
      <path id="Path_921" data-name="Path 921" d="M3540.061-973.1l70.307-58.207" transform="translate(-2962.406 2624.906)" fill="none" stroke="#c6bba0" stroke-linecap="round" stroke-width="2"/>
      <path id="Path_922" data-name="Path 922" d="M1078.144,1346.065s-56.041,2.215-108.838-35.479-68.631-96.907-102.349-115.3c-48.338-26.363-154.321-48.567-154.321-48.567l12.257,48.567" transform="translate(-33.428 -713.297)" fill="none" stroke="#fff" stroke-width="2"/>
      <path id="Path_889" data-name="Path 889" stroke="#7e20ff" d="M3997.845-832.874s-70.1-87.246-119.455-143.5-28.941-82.181-59.594-90.482-253.033,31.322-305.145,59.084-21.232,219.116-21.232,219.116" fill="none" transform="translate(-3185.655 2480.55)" stroke-linecap="round" stroke-linejoin="round" stroke-width="4" stroke-dasharray="8"/>
      <path id="Path_1103" data-name="Path 1103" d="M624.979,1459.165l-45.345-14.03-21.249,30.044-18.738,20.953,13.68,29.354,43.407-14.354Z" transform="translate(-714.258 461.731)" fill="#fff" stroke="#fff" stroke-linecap="round" stroke-linejoin="round" stroke-width="2"/>
      <path id="Path_1026" data-name="Path 1026" d="M603.377,1239.146l126.429,38.291,72.317,15.717,119.337,40.185,7.119-51.6,20.9,43.74h39.4l33.924,23.052" transform="translate(-463.438 -349.368)" fill="none" stroke="#fff" stroke-linecap="round" stroke-linejoin="round" stroke-width="2"/>
      <path id="Path_1024" data-name="Path 1024" d="M696.966,1223.123l1.208-59.509" transform="translate(-95.1 -646.786)" fill="none" stroke="#fff" stroke-linecap="round" stroke-width="2"/>
      <path id="Path_1015" data-name="Path 1015" d="M975.142,1565.974l-12.195-49.223-46.969-89.562L893.074,1387l-44.448-36.259-49.276,14.068-50.373-14.068H696.966l31-57.333,55.62-46.421,41.33-71.143,31.739-9.118v-33.053" transform="translate(-95.1 -764.664)" fill="none" stroke="#fff" stroke-linecap="round" stroke-linejoin="round" stroke-width="2"/>
      <path id="Path_1016" data-name="Path 1016" d="M789.113,1391.408l12.231-37.539-12.231-40.692,34.29-69.886,18.1,12.457L789.113,1132.4l-24.3,62.487-41.566,19.839" transform="translate(8.331 -769.702)" fill="none" stroke="#fff" stroke-linecap="round" stroke-linejoin="round" stroke-width="2"/>
      <path id="Path_1017" data-name="Path 1017" d="M740.324,1316.847l101.982-70.225,15.117-7.812,36.167-18.689-43.146-60.929v87.43" transform="translate(75.544 -664.196)" fill="none" stroke="#fff" stroke-linecap="round" stroke-linejoin="round" stroke-width="2"/>
      <path id="Path_1018" data-name="Path 1018" d="M620.478,1294.011l226.943-75.93,91.857-43.3L960.829,1196l36.8-7.861-27.9,67.459,142.693,220.516" transform="translate(-396.134 -602.794)" fill="none" stroke="#fff" stroke-linecap="round" stroke-linejoin="round" stroke-width="2"/>
      <path id="Path_1019" data-name="Path 1019" d="M906.134,1426.7,825.5,1436.785l-40.3-25.045,16.994-14.154H763.2l-30.717-49.319L688.747,1320.5l-15.854-86.783,90.306-42.729" transform="translate(-189.845 -538.994)" fill="none" stroke="#fff" stroke-linecap="round" stroke-linejoin="round" stroke-width="2"/>
      <path id="Path_1020" data-name="Path 1020" d="M646.089,1177.453l-5.253,71.3,17.4,30.825-12.145,49.4v39.377l29.58,36,25.447,11.831" transform="translate(-316.011 -592.292)" fill="none" stroke="#fff" stroke-linecap="round" stroke-linejoin="round" stroke-width="2"/>
      <path id="Path_1096" data-name="Path 1096" d="M558.008,1507.81l-22.134-41.254-20.351,4.407-35.334,30.063,7.133,13.477,57.406,6.626L568,1556.246l53.2,21.059,29.594,12.067,35.238,6.278v21.107h-20.28l-22.212-10.243H563.825l-19.1,28.77v21.371h35.838l33.263,24.455-40.585-7.031-9.417,7.031,50,54.928v40.6l48.182,33.1,51.352-44.833h50.294l11.313-32.741-6.585-58.082H741.65l-28.287-26.774v-25.434l16.86-15.357,66.349-22.177v-36.123L741.65,1573l-20.944-16.756,47.678-41.744v-43.539l-20.569-15.552,20.569-40.041-4.727-10.442-58.62,3.75v30.5l-34.994-5.517-77.933,32.9-11.544,41.254Z" transform="translate(-948.266 303.413)" fill="#f3e2ac" stroke="#c8c29d" stroke-linecap="round" stroke-linejoin="round" stroke-width="2"/>
      <path id="Path_1021" data-name="Path 1021" d="M782.317,1275.762l-40.437,6.608-75.042-58.417,16.026-36.795-31.193-7.1-6.583,14.759,28.526,12.138" transform="translate(-299.27 -582.027)" fill="none" stroke="#fff" stroke-linecap="round" stroke-linejoin="round" stroke-width="2"/>
      <path id="Path_1022" data-name="Path 1022" d="M680.712,1205.38,641.1,1185.469" transform="translate(-314.956 -560.728)" fill="none" stroke="#fff" stroke-linecap="round" stroke-linejoin="round" stroke-width="2"/>
      <path id="Path_1023" data-name="Path 1023" d="M687.871,1183.928l-8.389,34.843v27.966" transform="translate(-163.91 -566.794)" fill="none" stroke="#fff" stroke-linecap="round" stroke-linejoin="round" stroke-width="2"/>
      <path id="Path_1077" data-name="Path 1077" d="M641.879,1522.422l87.693-98.768,378.545,107.589h70.961l-57.923,2.632,4.087,65.554,47.792,31.093-5.2-27.761v-40.4s10.484-27.839,11.24-31.122" transform="translate(-311.903 377.151)" fill="none" stroke="#fff" stroke-linecap="round" stroke-linejoin="round" stroke-width="2"/>
      <path id="Path_1078" data-name="Path 1078" d="M743.748,1448.522l.289,45.557" transform="translate(89.018 475.074)" fill="none" stroke="#fff" stroke-linecap="round" stroke-linejoin="round" stroke-width="2"/>
      <path id="Path_1079" data-name="Path 1079" d="M889.891,1589.425l-36.137-81.035-45.042-32.7-59.188-10.6" transform="translate(111.751 540.302)" fill="none" stroke="#fff" stroke-linecap="round" stroke-linejoin="round" stroke-width="2"/>
      <path id="Path_1080" data-name="Path 1080" d="M786.971,1508.8l20.973-6.741-6.917-17.534H775.674" transform="translate(214.671 616.828)" fill="none" stroke="#fff" stroke-linecap="round" stroke-linejoin="round" stroke-width="2"/>
      <path id="Path_1025" data-name="Path 1025" d="M818.372,1207.285l-14.084-22.3H736.8" transform="translate(61.67 -562.633)" fill="none" stroke="#fff" stroke-linecap="round" stroke-linejoin="round" stroke-width="2"/>
      <path id="Path_1027" data-name="Path 1027" d="M619.544,1350.869l24.034-26.575,43.274,5.493-37.283-61.52-5.991-51.733" transform="translate(-399.808 -438.404)" fill="none" stroke="#fff" stroke-linecap="round" stroke-linejoin="round" stroke-width="2"/>
      <path id="Path_1466" data-name="Path 1466" d="M274.259,290.715a13.417,13.417,0,0,0-.405-2.65c-.3-.856-.932-.742-.932-.742L267.278,245.5l-47.622-15.652H193.44l-6.857,52.554h47.992Z" transform="translate(721.129 1327.872)" fill="#ededed"/>
      <path id="Path_1028" data-name="Path 1028" d="M715.387,1283.056l-28.2,7.656v-21.318l-54.9-30.194" transform="translate(-349.63 -349.16)" fill="none" stroke="#fff" stroke-linecap="round" stroke-linejoin="round" stroke-width="2"/>
      <path id="Path_1030" data-name="Path 1030" d="M603.377,1311.4l119.754-55.71" transform="translate(-463.438 -284.222)" fill="none" stroke="#fff" stroke-linecap="round" stroke-linejoin="round" stroke-width="2"/>
      <path id="Path_1031" data-name="Path 1031" d="M638.8,1253.608l123.552,89.82-5.466,65.163" transform="translate(-324.018 -292.424)" fill="none" stroke="#fff" stroke-linecap="round" stroke-linejoin="round" stroke-width="2"/>
      <path id="Path_1032" data-name="Path 1032" d="M674.588,1258.821l-8.33,64.1" transform="translate(-215.957 -281.77)" fill="none" stroke="#fff" stroke-linecap="round" stroke-linejoin="round" stroke-width="2"/>
      <path id="Path_1036" data-name="Path 1036" d="M735.639,1322.181l10.056,37.8,17.021,38.094,24.957,23.829" transform="translate(57.105 -22.409)" fill="none" stroke="#fff" stroke-linecap="round" stroke-linejoin="round" stroke-width="2"/>
      <path id="Path_1038" data-name="Path 1038" d="M712.449,1528.305l16.322,44.07,27.4,13.149v23.5l6.107-26.807,22.923-9.845h10.486v-73.891l9.785-23.351v-45.87l-43.193-50.911-17.311-32.783v-41.1" transform="translate(-34.166 -92.165)" fill="none" stroke="#fff" stroke-linecap="round" stroke-linejoin="round" stroke-width="2"/>
      <path id="Path_1039" data-name="Path 1039" d="M717.721,1305.308l39.884,23.152,16.827,55.858-71.028,7.994" transform="translate(-69.76 -88.849)" fill="none" stroke="#fff" stroke-linecap="round" stroke-linejoin="round" stroke-width="2"/>
      <path id="Path_1040" data-name="Path 1040" d="M786.851,1311.8l-6.233,71.3-15.951,18.684-8.408,21.791-42.341-18.411" transform="translate(-28.388 -63.274)" fill="none" stroke="#fff" stroke-linecap="round" stroke-linejoin="round" stroke-width="2"/>
      <path id="Path_1041" data-name="Path 1041" d="M813.115,1347.822l-25.3,15.433H750.446l-27.881-28.769" transform="translate(5.646 26.041)" fill="none" stroke="#fff" stroke-linecap="round" stroke-linejoin="round" stroke-width="2"/>
      <path id="Union_2" data-name="Union 2" d="M0,405.021l5.313-32.187,44.319-53.811,56.015,15.3,8.933-9.428L53.865,304.608l-4.233-68.649,43.75-12.42,25.547-50.167,18.756,7.243-18.738-8.622L131.429,128l-21.5-27.641L71.148,95.552,64.193,39.968,77.04,0l47.6,14.5V34.439L174.17,24.5,186.9,52.091l32.969-3.635L244.6,60.769h29.5l24.457,10.013-10.442,35.071,31.85,34.283-10.71,31.858,10.71,25.326-66.4,17.1-49.978-29.116-61.93-3.158,16.118,6.224v27.308l68.1,20.277,11.194,37.528,32.2-15.985,27.661,33.471-39.45,28.049-16.569-8.91-62.212,56.268-52.208-17.638L74.743,361.156,43.817,348.744l10.048,58.139Z" transform="translate(-212.074 1748.235)" fill="#f3e2ac" stroke="#c8c29d" stroke-linecap="round" stroke-linejoin="round" stroke-width="2"/>
      <path id="Path_1049" data-name="Path 1049" d="M600.908,1415.705l-8.506-61.952L578.4,1337.087l22.513-32.582" transform="translate(-561.757 -92.008)" fill="none" stroke="#fff" stroke-linecap="round" stroke-linejoin="round" stroke-width="2"/>
      <path id="Path_1050" data-name="Path 1050" d="M616.316,1331.289,600,1318.595l-27.09-3.579" transform="translate(-583.358 -50.626)" fill="none" stroke="#fff" stroke-linecap="round" stroke-linejoin="round" stroke-width="2"/>
      <path id="Path_1052" data-name="Path 1052" d="M578.739,1376.547l-43.485-18.9" transform="translate(-731.548 117.24)" fill="none" stroke="#fff" stroke-linecap="round" stroke-linejoin="round" stroke-width="2"/>
      <path id="Path_1053" data-name="Path 1053" d="M540.682,1365.317l38.9,29.138" transform="translate(-710.182 147.444)" fill="none" stroke="#fff" stroke-linecap="round" stroke-linejoin="round" stroke-width="2"/>
      <path id="Path_1086" data-name="Path 1086" d="M779.981,1392.842l27.731,29.692-7.806,3.039-24.66-26.759-6.35,7.086,24.917,26.785" transform="translate(187.991 255.824)" fill="none" stroke="#fff" stroke-linecap="round" stroke-linejoin="round" stroke-width="2"/>
      <path id="Path_1087" data-name="Path 1087" d="M770.907,1433.9l54.948,15.868-14.139,26.165H789.679l-16.112-17.755Z" transform="translate(195.908 417.491)" fill="#fff"/>
      <path id="Path_1055" data-name="Path 1055" d="M577.31,1366.329l-20.433,38.613" transform="translate(-646.449 151.429)" fill="none" stroke="#fff" stroke-linecap="round" stroke-linejoin="round" stroke-width="2"/>
      <path id="Path_1071" data-name="Path 1071" d="M654.412,1429.821l116.656,36.98,128.641,40.018,15.954-40.018,25.531,8.479-20.765,58.374-30.187,84.863,38.658-84.863,53.142,21.2-40.847,138.2-50.952-18.484" transform="translate(-262.579 401.434)" fill="none" stroke="#c8c29d" stroke-linecap="round" stroke-linejoin="round" stroke-width="2"/>
      <path id="Path_1072" data-name="Path 1072" d="M734.917,1442.509l-9.66,41.654,67.073,16.845" transform="translate(16.24 451.396)" fill="none" stroke="#c8c29d" stroke-linecap="round" stroke-linejoin="round" stroke-width="2"/>
      <path id="Path_1073" data-name="Path 1073" d="M803.028,1442.509l-18.365,25.63,56.492,61.544H777.11l-14.349,33.087" transform="translate(163.85 451.396)" fill="none" stroke="#c8c29d" stroke-linecap="round" stroke-linejoin="round" stroke-width="2"/>
      <path id="Path_1074" data-name="Path 1074" d="M826.039,1586.044,815.61,1558.1H803.245l-27.193-71.413,10.11-26.256" transform="translate(216.158 521.953)" fill="none" stroke="#c8c29d" stroke-linecap="round" stroke-linejoin="round" stroke-width="2"/>
      <path id="Path_1075" data-name="Path 1075" d="M799.8,1462.651l-7.87,37.932,35.7,78.7" transform="translate(278.643 530.706)" fill="none" stroke="#c8c29d" stroke-linecap="round" stroke-linejoin="round" stroke-width="2"/>
      <path id="Path_1076" data-name="Path 1076" d="M777.409,1463.31l37.372,11.569,24.683,65.644-28.845,7,28.845-7,14.007,36.764" transform="translate(221.497 533.3)" fill="none" stroke="#c8c29d" stroke-linecap="round" stroke-linejoin="round" stroke-width="2"/>
      <path id="Path_1082" data-name="Path 1082" d="M742.842,1547.907l-2.147-104.039,22.548-24.682H792.91l-5.85,36.071-44.218-6.942,40.78,3.5,5.386-30.182H763.243l-20.4,23.837,38.761,2.845,3.817-24.444H763.243l-15.14,20h31.861l1.639-17.49H763.243l-7.984,14.686h22.192v-11.687H764.684l-3.849,8.592h14.272v-6.025h-8.088v3.462h5.243" transform="translate(77.003 359.556)" fill="none" stroke="#fff" stroke-linecap="round" stroke-linejoin="round" stroke-width="2"/>
      <path id="Path_1083" data-name="Path 1083" d="M998.839,1480.369l-211.268-56.686" transform="translate(261.493 377.266)" fill="none" stroke="#000" stroke-linecap="round" stroke-linejoin="round" stroke-width="2"/>
      <path id="Path_1090" data-name="Path 1090" d="M489.889,1538.356l16.493,16.869,49.457-3.146,37.727-13.723,70.588-74.373,49.311-5.345v-79.045" transform="translate(-910.089 203.657)" fill="none" stroke="#fff" stroke-linecap="round" stroke-linejoin="round" stroke-width="2"/>
      <path id="Path_1091" data-name="Path 1091" d="M598.947,1638.244l-20-112.184,20.351-53.24-20.351-47.628-44.193-29.623" transform="translate(-733.523 266.56)" fill="none" stroke="#fff" stroke-linecap="round" stroke-linejoin="round" stroke-width="2"/>
      <path id="Path_1092" data-name="Path 1092" d="M543.443,1400.881l22.312,40.13,47.106,3.116,238.01,75.22,12.467-12.251,32.141,11.218-9.973,16.2,39.888-14.85,47.333-30.083-43.981-12.148-109.115-15.019L748.414,1434.9l-130.8-30.1-33.022-17.944Z" transform="translate(-699.317 232.266)" fill="#eaeaea" stroke="#d1d1d1" stroke-linecap="round" stroke-linejoin="round" stroke-width="2"/>
      <path id="Path_1093" data-name="Path 1093" d="M556.96,1399.992l-10.373,19.946,11.674,8.48,8.759-3.542,21.779,39.368,73.474,6.5,66.323,38.909,104.435,6.64,20.472,12.682,17.111-12.682h27.709l5.443-18.6-294.842-93.9Z" transform="translate(-686.942 283.98)" fill="#bcbcbc" stroke="#bcbcbc" stroke-linecap="round" stroke-linejoin="round" stroke-width="2"/>
      <path id="Path_1094" data-name="Path 1094" d="M535.1,1387.133l44.754,13.787v29.572l22.721,22.514,41.15-4.428,268.323,85.22,4.045-4.941-31.494-9.2,5.758-4.173,30.106,9.4v-5.226l-22.8-7.006" transform="translate(-732.143 233.345)" fill="none" stroke="#fff" stroke-linecap="round" stroke-linejoin="round" stroke-width="2"/>
      <path id="Path_1097" data-name="Path 1097" d="M500.3,1432.535l39.318,70.063v31.984l8.824,19.456-8.824,23.738-46.8-55.411L473.753,1483.3l5.13-41.233Z" transform="translate(-973.594 412.121)" fill="#f3e2ac" stroke="#c8c29d" stroke-linecap="round" stroke-linejoin="round" stroke-width="2"/>
      <path id="Path_1098" data-name="Path 1098" d="M480.189,1494.287l21.75-30.231,37.452,68.985-15,26.124Z" transform="translate(-948.266 536.237)" fill="#f3e2ac" stroke="#c8c29d" stroke-linecap="round" stroke-linejoin="round" stroke-width="2"/>
      <g id="Ellipse_42" data-name="Ellipse 42" transform="translate(-153.125 1901.267)" fill="#fff" stroke="#c8c29d" stroke-linejoin="round" stroke-width="2">
        <ellipse cx="19.743" cy="19.75" rx="19.743" ry="19.75" stroke="none"/>
        <ellipse cx="19.743" cy="19.75" rx="18.743" ry="18.75" fill="none"/>
      </g>
      <path id="Path_1110" data-name="Path 1110" d="M551.707,1571.413,667.66,1626.1l49.211,16.722,334.437,3.833v-28.071l-21.76-35.558h-27.813l18.433-37.564,16.31-53.234L971.2,1472.313l-9.98,32.3,4.117,24.184,5.862,62.871,5.829,51.151" transform="translate(-666.792 568.75)" fill="none" stroke="#c8c29d" stroke-width="2"/>
      <path id="Path_1111" data-name="Path 1111" d="M567.2,1487.566l-1.864,129.052" transform="translate(-613.149 628.812)" fill="none" stroke="#c8c29d" stroke-linecap="round" stroke-linejoin="round" stroke-width="2"/>
      <path id="Path_1112" data-name="Path 1112" d="M554.188,1499.576l112.824-2.19,45.06,2.19,35.4,36.785,4.142,131.483" transform="translate(-657.028 667.478)" fill="none" stroke="#c8c29d" stroke-linecap="round" stroke-linejoin="round" stroke-width="2"/>
      <path id="Path_1113" data-name="Path 1113" d="M576.262,1486.75,582.5,1642.23" transform="translate(-570.153 625.602)" fill="none" stroke="#c8c29d" stroke-linecap="round" stroke-linejoin="round" stroke-width="2"/>
      <path id="Path_1114" data-name="Path 1114" d="M576.262,1489.967l62.535,3.589,49.95,29.775,31.271,50.286" transform="translate(-570.153 638.268)" fill="none" stroke="#c8c29d" stroke-linecap="round" stroke-linejoin="round" stroke-width="2"/>
      <path id="Path_1115" data-name="Path 1115" d="M586.925,1525.353l15.184-33.75" transform="translate(-528.188 644.708)" fill="none" stroke="#c8c29d" stroke-linecap="round" stroke-linejoin="round" stroke-width="2"/>
      <path id="Path_1116" data-name="Path 1116" d="M561.126,1662.537l77.423,8.218,53.762,7.467,55.74,26.15,145.433-7.275-18.816-199.215,14.684-28.411" transform="translate(-629.724 557.557)" fill="none" stroke="#c8c29d" stroke-linecap="round" stroke-linejoin="round" stroke-width="2"/>
      <path id="Path_1117" data-name="Path 1117" d="M585.395,1511.984l-1.088,52.037" transform="translate(-538.491 724.961)" fill="none" stroke="#c8c29d" stroke-linecap="round" stroke-linejoin="round" stroke-width="2"/>
      <path id="Path_1136" data-name="Path 1136" d="M650.272,1514.448l-2.273,56.7" transform="translate(-287.817 734.662)" fill="none" stroke="#c8c29c" stroke-linecap="round" stroke-linejoin="round" stroke-width="2"/>
      <path id="Path_1120" data-name="Path 1120" d="M616.242,1498.246l97.71-3.621,93.623,29.6,10.606-29.6-41.73-15.328" transform="translate(-407.866 601.187)" fill="none" stroke="#c8c29d" stroke-linecap="round" stroke-linejoin="round" stroke-width="2"/>
      <path id="Path_1121" data-name="Path 1121" d="M661.969,1475.4,659,1515.532" transform="translate(-249.451 585.824)" fill="none" stroke="#c8c29d" stroke-linecap="round" stroke-linejoin="round" stroke-width="2"/>
      <path id="Path_1122" data-name="Path 1122" d="M632.735,1715.027,617.75,1497.436" transform="translate(-406.87 667.673)" fill="none" stroke="#c8c29d" stroke-linecap="round" stroke-linejoin="round" stroke-width="2"/>
      <path id="Path_1123" data-name="Path 1123" d="M597.692,1658.747l34.984-56.165,30.249,26.232,57.163,4.623,45.672-11.556-14.57-74.107,18.544,74.107,36.308-3.968-8.435-110.073,8.435,110.073,23.946,45.257,50.566,15.547,5.673,1.744-3.745-87.7H846.3v55.432l-16.313,14.981-3.969,34.048s3.782-35.108,3.969-34.048l56.239,17.291,47.179-1.744,5.478-45.28-13.638-40.68s-40.809.448-42.764,0" transform="translate(-485.811 708.646)" fill="none" stroke="#c8c29d" stroke-linecap="round" stroke-linejoin="round" stroke-width="2"/>
      <path id="Path_1184" data-name="Path 1184" d="M690.115,1582.009l39.924-61.479,44.93-10.78,36.44-14.934,42.488,18.658,103.678-8.578,30.8,27.294-76.969,28.52,19.109,31.84H793.54L736.6,1568.883Z" transform="translate(-122.064 657.356)" fill="#79d7f5" stroke="#79d7f5" stroke-linecap="round" stroke-linejoin="round" stroke-width="2"/>
      <path id="Path_884" data-name="Path 884" stroke="#7e20ff" d="M3682.867-452.921s14.078-45.494,7.709-77.016-20.4-1.11-33.186-49.071-11.906-62.059-5.535-120.435,25.656-63.595,31.012-113.067,6.275-75.629-10.713-99.553-43.639-14.007-66.221-30.037-24.1-34.081-24.1-34.081,69.952-42.338,136.434-50.177a210.344,210.344,0,0,1,22.031-1.408c70.924,0,132.176,58.076,132.176,58.076" fill="none" transform="translate(-2798.013 2638.875)" stroke-linecap="round" stroke-linejoin="round" stroke-width="4" stroke-dasharray="8"/>
      <path id="Path_1140" data-name="Path 1140" d="M661.223,1775.123l44.282-122.741,47.821-115.457" transform="translate(-235.775 823.171)" fill="none" stroke="#fff" stroke-linecap="round" stroke-linejoin="round" stroke-width="2"/>
      <path id="Path_1124" data-name="Path 1124" d="M659.838,1497.772l25.649,38.186-11.047,37.268,5.033,58.223" transform="translate(-241.226 668.999)" fill="none" stroke="#c8c29d" stroke-linecap="round" stroke-linejoin="round" stroke-width="2"/>
      <path id="Path_1125" data-name="Path 1125" d="M686.1,1481.79l37.656,19.513v19.718l17.752,5.968-9.278,16.7H714.48l-18.462,13.734-44.4,4.97" transform="translate(-273.581 606.069)" fill="none" stroke="#c8c29d" stroke-linecap="round" stroke-linejoin="round" stroke-width="2"/>
      <path id="Path_1126" data-name="Path 1126" d="M715.053,1621.655l13.224-36.387-3.948-41.22L695.683,1510.8l-3.568-17.827-25.169-6.9" transform="translate(-213.25 622.935)" fill="none" stroke="#c8c29d" stroke-linecap="round" stroke-linejoin="round" stroke-width="2"/>
      <path id="Path_1127" data-name="Path 1127" d="M713.905,1667.312l-35.174-63.828L667.455,1494.54" transform="translate(-211.247 656.271)" fill="none" stroke="#c8c29c" stroke-linecap="round" stroke-linejoin="round" stroke-width="2"/>
      <path id="Path_1128" data-name="Path 1128" d="M582.046,1545.853l62.379,12.855H766.985l51.131-42.912-51.131,42.912-44.262,43.671-29.806,86.108" transform="translate(-547.389 739.971)" fill="none" stroke="#fff" stroke-linecap="round" stroke-linejoin="round" stroke-width="2"/>
      <path id="Path_1129" data-name="Path 1129" d="M833.861,1514.074,638.62,1516" transform="translate(-324.731 733.189)" fill="none" stroke="#fff" stroke-linecap="round" stroke-linejoin="round" stroke-width="2"/>
      <path id="Path_1130" data-name="Path 1130" d="M673.291,1489.967l-22.167,35.542" transform="translate(-275.522 638.268)" fill="none" stroke="#c8c29d" stroke-linecap="round" stroke-linejoin="round" stroke-width="2"/>
      <path id="Path_1134" data-name="Path 1134" d="M586.167,1506.909l-1.41,23.315" transform="translate(-536.719 704.977)" fill="none" stroke="#c8c29d" stroke-width="2"/>
      <path id="Path_1135" data-name="Path 1135" d="M630.216,1519.791l43.852-5.343" transform="translate(-357.807 734.662)" fill="none" stroke="#fff" stroke-linecap="round" stroke-linejoin="round" stroke-width="2"/>
      <path id="Path_1137" data-name="Path 1137" d="M681.735,1518.652l26.857,40.243-21.015,47.885" transform="translate(-155.045 751.216)" fill="none" stroke="#c8c29c" stroke-linecap="round" stroke-linejoin="round" stroke-width="2"/>
      <path id="Path_1138" data-name="Path 1138" d="M707.188,1564.441l-30.482-35.076" transform="translate(-174.838 793.402)" fill="none" stroke="#c8c29c" stroke-linecap="round" stroke-width="2"/>
      <path id="Path_1139" data-name="Path 1139" d="M1198.294,1863.259l-518.159-326.4" transform="translate(-161.34 822.927)" fill="none" stroke="#fff" stroke-linecap="round" stroke-linejoin="round" stroke-width="2"/>
      <path id="Path_1141" data-name="Path 1141" d="M740.206,1548.351l140,86.119L777,1798.215l-118.131-70.636" transform="translate(-245.039 868.159)" fill="none" stroke="#fff" stroke-linecap="round" stroke-linejoin="round" stroke-width="2"/>
      <path id="Path_1142" data-name="Path 1142" d="M816.325,1634.418l-141.164-86.1" transform="translate(-180.915 868.022)" fill="none" stroke="#fff" stroke-linecap="round" stroke-linejoin="round" stroke-width="2"/>
      <path id="Path_1143" data-name="Path 1143" d="M806.334,1638.976l-134.765-81.912" transform="translate(-195.055 902.466)" fill="none" stroke="#fff" stroke-linecap="round" stroke-linejoin="round" stroke-width="2"/>
      <path id="Path_1144" data-name="Path 1144" d="M791.4,1641.347l-123.47-73.307" transform="translate(-209.393 945.684)" fill="none" stroke="#fff" stroke-linecap="round" stroke-linejoin="round" stroke-width="2"/>
      <path id="Path_1145" data-name="Path 1145" d="M732.383,1616.483l-54.089-35.231" transform="translate(-168.587 997.711)" fill="none" stroke="#fff" stroke-linecap="round" stroke-linejoin="round" stroke-width="2"/>
      <path id="Path_1146" data-name="Path 1146" d="M721.843,1612.107l-57.694-35.121" transform="translate(-224.259 980.913)" fill="none" stroke="#fff" stroke-linecap="round" stroke-linejoin="round" stroke-width="2"/>
      <path id="Path_1165" data-name="Path 1165" d="M723.932,1526.792l54.983,17.577,37.774,39.986v39.653l24.135,34.257v28.094" transform="translate(11.031 783.267)" fill="none" stroke="#c8c29c" stroke-linecap="round" stroke-linejoin="round" stroke-width="2"/>
      <path id="Path_1166" data-name="Path 1166" d="M806.168,1526.792l-48.773,6.041-21.025,17.11" transform="translate(59.98 783.267)" fill="none" stroke="#c8c29c" stroke-linecap="round" stroke-linejoin="round" stroke-width="2"/>
      <path id="Path_1167" data-name="Path 1167" d="M719.553,1640.594l22.306-46.994v-66.5" transform="translate(-6.205 784.481)" fill="none" stroke="#c8c29c" stroke-linecap="round" stroke-linejoin="round" stroke-width="2"/>
      <path id="Path_1168" data-name="Path 1168" d="M815.591,1571.034l-46.165-27.758-45.206-3.045" transform="translate(12.166 836.184)" fill="none" stroke="#c8c29c" stroke-width="2"/>
      <path id="Path_1169" data-name="Path 1169" d="M743.379,1611.7l-24.388-19.217,2.239-20.315,32.206-2.854,15.824-24.524,52.5,30.929L819,1595.137H777.655l-8.4,16.565Z" transform="translate(-8.416 854.146)" fill="#d1e0a8" stroke="#c8c29c" stroke-linecap="round" stroke-linejoin="round" stroke-width="2"/>
      <path id="Path_1170" data-name="Path 1170" d="M723.987,1568.04l-20.525,42.429,38.214,29.927v22.4l69.529,53.925,44.594-67.489-67.005-38.761-64.806-42.429" transform="translate(-74.47 945.684)" fill="#d1e0a8" stroke="#fefcf7" stroke-linecap="round" stroke-linejoin="round" stroke-width="2"/>
      <path id="Path_1171" data-name="Path 1171" d="M792.888,1582.886l-51.879,76.764,57.606,41.226,33.337-53.008,12.346-33.661Z" transform="translate(78.241 1004.145)" fill="#d1e0a8" stroke="#fff" stroke-width="2"/>
      <path id="Path_883" data-name="Path 883" stroke="#7e20ff" d="M3764.669-424.388s-81.24-28.8-112.8-60.3-15.453-33.047-13.432-65.693-1.666-11.651-12.529-91.173c-5.9-43.221,2.379-135.469,0-168.377-1.586-21.938-19.777-30.627-22.76-44.042-7.967-35.947-2.041-40.341,10.23-50.976,16.189-14.031,28.357,15.427,58.359,24.376s40.182-7.759,66.086,5.825,10.166,33.7,37.521,48.511c9.055,4.9,25.934-2.586,36.242,0,16.477,4.158,25.252,14.586,35.66,10.721,15.557-5.778,26.988-32.6,26.988-32.6" fill="none" transform="translate(-2728.391 3107.788)" stroke-linecap="round" stroke-linejoin="round" stroke-width="4" stroke-dasharray="8"/>
      <path id="Path_1175" data-name="Path 1175" d="M631.948,1531.238l11.545,71.982" transform="translate(-350.989 800.775)" fill="none" stroke="#c8c29d" stroke-linecap="round" stroke-linejoin="round" stroke-width="2"/>
      <path id="Path_1177" data-name="Path 1177" d="M665.525,1542.273l43.221,15" transform="translate(-218.842 844.227)" fill="none" stroke="#c8c29d" stroke-linecap="round" stroke-width="2"/>
      <path id="Path_1176" data-name="Path 1176" d="M664.789,1542.644l-11.505,22.637" transform="translate(-267.02 845.685)" fill="none" stroke="#c8c29d" stroke-linecap="round" stroke-linejoin="round" stroke-width="2"/>
      <path id="Path_1181" data-name="Path 1181" d="M710.016,1579.526l-32.591-16.109-28.6,24.6,34.167,25.594Z" transform="translate(-284.569 927.484)" fill="#d1e0a8"/>
      <path id="Path_885" data-name="Path 885" stroke="#7e20ff" d="M4129.9-935.666s-17.053,56.758-75.107,73.153c-25.252,7.132-61.951-13.14-92.672-16.134-36.5-3.553-64.437,8.563-64.437,8.563s-31.082,7.917-67.617,75.216-33.465,136.859-80.775,189.913-215.832-8.663-259.139,22.3S3467.6-458.8,3467.6-458.8" fill="none" transform="translate(-3267.138 3001.523)" stroke-linecap="round" stroke-linejoin="round" stroke-width="4" stroke-dasharray="8"/>
      <path id="Path_1183" data-name="Path 1183" d="M636.877,1602.257l23.99-12.641-9.853-25.13-18.851,13.287Z" transform="translate(-350.145 931.698)" fill="#d1e0a8"/>
      <path id="Path_1178" data-name="Path 1178" d="M625.2,1551.786l72.647,67.245,21.086,32.743v42.192" transform="translate(-377.543 881.684)" fill="none" stroke="#c8c29d" stroke-linecap="round" stroke-linejoin="round" stroke-width="2"/>
      <path id="Path_1179" data-name="Path 1179" d="M621.14,1603.065l57.415,28.917,54.366-38.022,12.872-43.474-12.872,43.474-36.785-43.474" transform="translate(-393.526 876.567)" fill="none" stroke="#c8c29d" stroke-linecap="round" stroke-linejoin="round" stroke-width="2"/>
      <path id="Path_1180" data-name="Path 1180" d="M650.813,1654.649l50.788-45.516V1593.75l49.385,5.228-12.575,26.976s-36.976-16.542-36.809-16.823,36.809,16.823,36.809,16.823l-30.462,34.376L669.9,1638.919l38.051,21.411,30.462,25.857L669.9,1638.919l10.909-12.964-38.3-32.2" transform="translate(-309.422 879.701)" fill="none" stroke="#c8c29d" stroke-linecap="round" stroke-linejoin="round" stroke-width="2"/>
      <path id="Path_1182" data-name="Path 1182" d="M632.256,1576.237l3.211,25.407,23.878-12.168-7.961-24.833" transform="translate(-349.779 932.312)" fill="none" stroke="#c8c29d" stroke-linecap="round" stroke-linejoin="round" stroke-width="2"/>
      <path id="Path_1185" data-name="Path 1185" d="M597.883,1539.831l44.557,91.736,88.228,71.474L852.737,1747.5l53.1,13.687,216.969,138.5" transform="translate(-485.06 834.613)" fill="none" stroke="#fff" stroke-linecap="round" stroke-linejoin="round" stroke-width="2"/>
      <path id="Path_1186" data-name="Path 1186" d="M870.374,1853.509,645.7,1580.218" transform="translate(-296.885 993.641)" fill="none" stroke="#fff" stroke-linecap="round" stroke-linejoin="round" stroke-width="2"/>
      <path id="Path_1187" data-name="Path 1187" d="M687.176,1757.53l22.727-29,87.522-111.693-25.25,45.575,65.11,33.573L750.758,1719.4l-40.854,9.126" transform="translate(-143.5 1129.768)" fill="none" stroke="#fff" stroke-linecap="round" stroke-linejoin="round" stroke-width="2"/>
      <path id="Path_1191" data-name="Path 1191" d="M817.3,1890.911l-21.219-158.217L734.09,1665.62l22.084-23.037" transform="translate(51.007 1239.206)" fill="none" stroke="#fff" stroke-linecap="round" stroke-linejoin="round" stroke-width="2"/>
      <path id="Path_1188" data-name="Path 1188" d="M850.421,1903.009l-12.754-128.823-46.484-79.655-39.6-47.522-12.983,7.725-24.7-15.224" transform="translate(-28.458 1227.108)" fill="none" stroke="#fff" stroke-linecap="round" stroke-linejoin="round" stroke-width="2"/>
      <path id="Path_1189" data-name="Path 1189" d="M874.6,1831.889l-42.112-1.292L705.345,1636.18" transform="translate(-62.123 1213.998)" fill="none" stroke="#fff" stroke-linecap="round" stroke-linejoin="round" stroke-width="2"/>
      <path id="Path_1190" data-name="Path 1190" d="M988.874,1751.388l-221.657,29.594-55.336-33.1v-40.968l62.368-41.35" transform="translate(-36.4 1329.706)" fill="none" stroke="#fff" stroke-linecap="round" stroke-linejoin="round" stroke-width="2"/>
      <path id="Path_1192" data-name="Path 1192" d="M746.745,1660.882l103.366,107.772" transform="translate(100.814 1311.267)" fill="none" stroke="#fff" stroke-linecap="round" stroke-linejoin="round" stroke-width="2"/>
      <path id="Path_1193" data-name="Path 1193" d="M684.787,1645.323l61.62,116.906" transform="translate(-143.035 1249.995)" fill="none" stroke="#fff" stroke-linecap="round" stroke-linejoin="round" stroke-width="2"/>
      <path id="Path_1194" data-name="Path 1194" d="M693.079,1664.774l22.127-8.744,26.711,51.846" transform="translate(-110.397 1292.156)" fill="none" stroke="#fff" stroke-linecap="round" stroke-linejoin="round" stroke-width="2"/>
      <path id="Path_1195" data-name="Path 1195" d="M742.212,1640.6l-42.721,32.138,46.891,77.977" transform="translate(-85.162 1231.409)" fill="none" stroke="#fff" stroke-linecap="round" stroke-linejoin="round" stroke-width="2"/>
      <path id="Path_882" data-name="Path 882" stroke="#7e20ff" d="M3524.238-713.157s32.807-3.75,70.635-20.932c26-11.814,52.844-37.292,83.742-41.658,72.023-10.177,91.74-1.533,133.715,21.883s35.3,44.1,60.8,58.883,41.367-2.552,41.367-2.552" fill="none" transform="translate(-3024.68 3614.641)" stroke-linecap="round" stroke-linejoin="round" stroke-width="4" stroke-dasharray="8"/>
      <path id="Path_1196" data-name="Path 1196" stroke="#142d4c" d="M500.508,1382.285,514.042,1461l170.3,126.757,408.467,96.823h330.536L1798.3,1952.6l265.062,329.45" fill="none" transform="translate(-868.297 214.258)" stroke-linecap="round" stroke-linejoin="round" stroke-width="2" stroke-dasharray="10"/>
      <path id="Path_1197" data-name="Path 1197" stroke="#142d4c" d="M939.488,1289.161l-95.282,207.823L681.676,1736.96V1911.01l49.742,126.623,153.315,136.845" fill="none" transform="translate(-155.277 -152.432)" stroke-linecap="round" stroke-linejoin="round" stroke-width="2" stroke-dasharray="10"/>
      <path id="Path_1198" data-name="Path 1198" d="M500.508,1393.085l65.583,166.764,96.335,97.535L891.1,1791.195,1127.56,1930.49l145.122,146.39,188.35,96.286,190.049,142.954L1725.015,2552l30.056,143.979-30.056,211.146" transform="translate(-868.297 256.783)" fill="none" stroke="#142d4c" stroke-linejoin="round" stroke-width="2" stroke-dasharray="10"/>
      <path id="Path_1199" data-name="Path 1199" stroke="#142d4c" d="M1496.532,2032.563l-339.366-230.221L1003.89,1730.6l-86.047-15.789-139.439-68.4-208.842-93.188" fill="none" transform="translate(-596.521 887.333)" stroke-linecap="round" stroke-linejoin="round" stroke-width="2" stroke-dasharray="10"/>
      <path id="Path_881" data-name="Path 881" d="M4747.407-875.154c15.281-9.192,76.328,13.513,85.246,22.57s-13.586,7.111,26.963,26.057S4994.845-776.8,4994.845-776.8l24.973-98.352s-129.123-153.887-220.891-255.181-120.756-148.893-146.182-150c-65.076-2.862-154.662,41.673-191.459,70.648-50,39.369,7.885,54.812,0,79.347,0,0,1.531,18.792-31.543,18.792s-43.779-30.5-100.752-18.792-109.1,27.7-192.918,114.195-87.193,128.312-131.5,230.949-45.719,179.6-45.719,179.6-44.379,122.125-110.113,206.3-152.824,130.4-152.824,130.4h-35.662s-49.047,61.837-71.248,119.773-2,66.656-17.559,111.969-5.381,30.577-45.988,69.133-65.084,38.113-116.447,85.092c-33.953,31.052-54.607,66.8-71.485,96.41-41.268,72.4,22.862,69.162,22.862,108.112s-22.862,47.691-22.862,47.691-19.169,1.887-23.324,7.916.876,12.149,6.707,16.2,16.617,0,16.617,0,42.774,51.172,63.679,69.691,12.424,3.992,33.014,15.548,49.342,30.673,49.342,30.673,156.174,21.766,250.146,95.442,129.725,193,129.725,193,123.078,48.67,170.643,83.331-18.014,16.2,48.346,84.937c26.543,27.5,60.547,46.329,90.539,69.707,42.137,32.844,81.342,70.177,126.549,120.312,75.344,83.559,32.705,68.512,55.561,114.593s50.549,62.069,78.475,117.706,12.322,60.067,33.229,104.843,28.959,71.584,61.939,74.632,38.463-42.154,98.717-60.72,78.025-4.483,130.756-13.912,65.605-5.029,79.254-20.307-18.5-18.88-24.664-40.014-5.512-24.169,0-44.521,38.42-8.734,22.053-37.679-87.521-78.1-87.521-78.1l106.576-81.762s118.123,4.714,124.816-13.616-75.711-50.493-80.943-128.839,45.115-122.04,60.688-179.286-5.033-39.757,12.988-90.967c6.291-17.872,17.615-30.946,26.9-45.652,14.959-23.7,28.17-45.178,32.2-68.221,6.191-35.4-24.3-52.251-24.3-52.251v-98.3s-1.937-56.186,24.3-125.253,46.535-62.051,68.311-124.467,18.4-84.708,18.793-125.2-54.41-21.21-101.061-42.477-87.77-67.9-87.77-67.9l38.4-275.63s-238.836-144.388-360.787-208.678-116.9-40.141-127.016-48.48-9.057-33.356-9.057-33.356-2.232-14.425-19.807-22.106-49.016,9.85-50.494-8.62,15.738-84.47,41.922-99.073,90.455-4.068,122.064-27.264-7.756-49.372,4.375-65.516,25.891,12.057,64.406,4.618,61.008-4.516,89.656-34.372S4732.128-865.963,4747.407-875.154Z" transform="translate(-3857.307 1643.852)" fill="none" stroke="#142d4c" stroke-linejoin="round" stroke-width="4"/>
      <path id="Path_891" data-name="Path 891" stroke="#207dff" d="M3843.229-1083.1s-24.6,11.945-45.949,37.3c-14.6,17.337-13.9,39.445-31.023,47.378-39.627,18.361-50.037-11.233-81.539-11.233s-42.605-4.679-49.152,23.048,14.066,64.905,5.15,81.748-23.762-23.933-40.818-14.376-27.408,52.6-27.408,52.6" fill="none" transform="translate(-2844.657 2440.747)" stroke-linecap="round" stroke-linejoin="round" stroke-width="4" stroke-dasharray="8"/>
      <path id="Path_890" data-name="Path 890" stroke="#207dff" d="M3444.115-1143.047s54.961,45.9,105.375,53.031,67.3-28.9,96.279-24.488-8.775,31.212,19.438,42.78,68.795-8.766,102.752,0,7.869,24.008,22.975,35.063,41.375-12.9,49.469,9.158-19.07,44.5-17.092,79.061,16.7,8.219,19.787,50.022-9.4,138.635-9.4,138.635" fill="none" transform="translate(-3340.017 2194.811)" stroke-linecap="round" stroke-linejoin="round" stroke-width="4" stroke-dasharray="8"/>
    </g>
  </g>
</svg>
