<svg xmlns="http://www.w3.org/2000/svg" xmlns:xlink="http://www.w3.org/1999/xlink" width="398.669" height="375.081" viewBox="0 0 398.669 375.081">
  <defs>
    <clipPath id="clip-path">
      <path id="Path_1459" data-name="Path 1459" d="M-1009.119-1982.173l63.406,19.248,28.054,5.838,47.837,3.573,52.943,13.716,49.71,15.39,17.3,5.934,22.975,6.036s3.042,3.513.955,9.761-7.883,12.342-17.908,15.406c-4.3,1.314-12.42-3.393-16.679-4.338-4.972-1.1-6.81-.541-10.679,1.457s-6.992,5.62-10.173,12.634-4.232,6.843-4.869,15.761,2.321,19.912,2.321,19.912a98.851,98.851,0,0,0,12.721,9.253c7.088,4.282,12.31-.043,15.631,7.875s-2.635,23.223-2.635,23.223l-22.613,21.475-59.709,32.23-28.643,9.061-40.293,2.223s-16.843,2.873-22.2,9.6-8.147,10.72-4.839,19.828,26.756,24.834,26.756,24.834,5.095,1.85,19.839,7.239,38.7,14.131,38.7,14.131l-11.706,18.432-17.941,27.309-5.923,8.044-23.684-37.648-35.484-36.623-45.969-21.28L-1043.835-1715l-23.862-15.115-11.078-3.755-27.624-29.839-13.7-4.265-3.779-13.192,12.078-5.084h5.4l6.236-15.272-16.354-19.734v-15.75l16.354-29.632,25.219-30.087,47.092-34.086,10.861-11.955,7.874-18.289Z" transform="translate(1123.878 1982.173)" fill="none" stroke="#707070" stroke-width="1"/>
    </clipPath>
  </defs>
  <g id="Rissne" transform="translate(-461.122 -1371.827)">
    <g id="Mask_Group_5" data-name="Mask Group 5" transform="translate(461.122 1371.827)" clip-path="url(#clip-path)">
      <path id="Path_1068" data-name="Path 1068" d="M533.847,1379.568l.259,32.377,20.29,14.146,8.844,24.773,19.9,5.86v8.453l21.451-3.877,6.108,11.374,12.26-1.213,9.724,5.171h14.625l11.045,4.33-5.255,14.131,13.476,14.768-4.425,14.068,4.425,10.343-19.267,6.933h-10.73l-20.2-11.7H602.245s-4.647-2.494-5.513.43,2.047,12.259,2.047,12.259l33.94,24.435,9.9-4.388,4.685-.394,11.045,13.422-17.557,11.92-8.114-2.844-20.567,18.932,29.844,1.821L671.7,1621v-32.942l43.386-19.264,13.943-6.942,4.142,6.942,47.647,15.556h28.431l28.52,31.826,14.255,15.175,4.833,18.74-19.088,13.42,7.058,8.727,38.837-8.727,22.983,8.727h28.006l6.3,9.8,23.825,7.608,33.079-7.608,3.958,7.608h-8.567l4.609,13.333H979.558l6.96,24.563,11.333,8.707V1763.6h8.891V1693.24h11.9v-11.206l34.808-6.629,10.17,11.161-4.261,12.917,19.439,3.493,20.963-3.493,19.63,3.493,5.157-13.333v-10.656l-10.825-15.479V1612.7l10.825-47.6,37.051-55.235v-53.137l-47.876-8.959-50.1-42.1-39.851-15.7-52.792,15.7L906.646,1435l-84.85,12.768-133.045-42.1-53.729-13.076-51.882-2.626Z" transform="translate(-379.733 -1363.164)" fill="#d1e0a8"/>
      <path id="Path_1173" data-name="Path 1173" d="M756.939,1674.962l-10-15.625-53.861,29.24,34.176,43.07L730.81,1724h5.984l-2.906-26.972,2.906-8.448Z" transform="translate(-201.531 -1050.066)" fill="#d1e0a8"/>
      <path id="Path_1108" data-name="Path 1108" d="M589.312,1528.146l18.657,14.576,19.872,29.334,31.676-13.861v13.861L673.2,1567.6l56.928,3.221,21.26-1.258,22.892-5.656L765,1586.153l-11.87-9.248H725.652l-27.55-3.569-26.8,1.321-10.877,7.619v33.039l-18.976-11.556L624,1584.222l-10.745-23.375-28.729-24.728Z" transform="translate(-323.015 -1196.886)" fill="#d1e0a8"/>
      <path id="Path_1109" data-name="Path 1109" d="M670.017,1640.747,656.335,1615.5l-21.551-18.892-55.252-23.558-24.673-16.758-8.216-18.342,4.96-15.284,24.72-13.217,34.691-4.537,28.656,6.226,18.6,13.367v-32.915l55.048-25.109,53.244,21.052h28.913l43.659,48.97,2.678,17.065-19.088,14.056,9.563,8.593,37.082-9.884,23.013,9.884h28.3l6.707,10.259,23.532,6.434,32.714-6.434,2.174,6.434H979.1l2.707,12.8H965.45l6.727,25.193,9.629,6.536,1.836,28.74,5.9,1.948,5.236-1.948-2.991-22.28,1.352-47.524h11.165v-11.507l34.7-6.74,10.09,11.925-4.069,12.553,22.045,4.577,15.4-4.577,20.863,3.1-18.4,33.994-3.85,33.673-9.515,28.905-13,26.436-5.54,30.607,14.743,33.225,20.909,18.317-4.565,6.01-46.556,3.122-18.923,10.538-22.752,18.218-5.714,5.213,34.51,29.537,3.212,10.781-9.256,7.131-3.714,10.9,3.714,16.023,10.818,7.455-5.821,8.421-54.146,6.23-20.746,2.062-8.671,2.081-21.487,10.5-4.5,5.031L891.4,1946.4l2.667-7.2,6.442,1.771-3.092-29.955,3.982-7.085,9.061-4.978,10.294-8.367-10.294-16.171-47.173,26.653-6.173,2.864-21.666-28.053-17.4-27.659-3.16-20.867-48.138-54.153,5.707-9.11,10.776,10.765h6.183l25.472,30.172,5.524,1.262,17.806,29.676,1.994,8.461,19.394-8.461,10.431-10.525-1.984-5.284h-4.659l13.356-15.129,12.474,7.007v6.2h22.352l9.175-11.942L802.729,1732.52l-33.275-19.707L722.6,1702.278l-19.179-18.7v-31.933l12.393-8.332,20.968-1.281,25.262,3.027,17.544,2.221h16.366l11.308,10.932,9.482-23.173-18.868,2.749H769.454l-35.9-2.749-32.024,5.706,1.888-15.542Z" transform="translate(-365.413 -1265.902)" fill="#f3e2ac" stroke="#c8c29d" stroke-linecap="round" stroke-linejoin="round" stroke-width="2"/>
      <path id="Path_1172" data-name="Path 1172" d="M628.966,1573.537l-14.259-6.857v25.1l18.945,25.537,45.317,33.638,11.837,11.161,6.477-9.512,9.942,9.512,7.96,2.676,22.38,27.623,8.577,3.055,16.889,31.772,30.45-13.124v-5.587h-5.923l13.688-16.116,11.618,8.084v6.218l23.24-1.7,8.544-9.549-150.273-92.8-45.113-10.886Z" transform="translate(-289.241 -1153.762)" fill="#eaeaea"/>
      <path id="Path_1133" data-name="Path 1133" d="M576.894,1504.148l1.015,12.792,16.255,2.585v-9.134Z" transform="translate(-331.558 -1223.742)" fill="#d1e0a8"/>
      <path id="Path_1132" data-name="Path 1132" d="M628.463,1522.96l21.959.219-1.622-15.961H628.463Z" transform="translate(-273.845 -1220.306)" fill="#d1e0a8"/>
      <path id="Path_1131" data-name="Path 1131" d="M689.985,1502.22l-4.569,4.535h-6.455L671.229,1513l-19.411,2.894,15.5-33.78,13.611,6.775,1.835,9.514Z" transform="translate(-247.708 -1248.399)" fill="#d1e0a8"/>
      <path id="Path_1102" data-name="Path 1102" d="M653.805,1577.387l-19.748-8.486-34.2-14.473-25.071-16.949-8.537-19.038,4.711-13.965,25.94-15.485,5.555-.75-5.82-4.315-6.105.206-18.457,4.368-14.426-2.633,2.822,23.048s-21.81-2.409-26.24-1.45,8.517,5.286,8.517,5.286l-15.563,8.637,44.891,26.109,27.6,27.049,15.072,25.785,7.705,15.005,27.649-32.12,3.708-5.439Z" transform="translate(-386.081 -1246.373)" fill="#d1e0a8"/>
      <path id="Path_1147" data-name="Path 1147" d="M729.89,1548.75l-58.446,90.265" transform="translate(-225.744 -1173.826)" fill="none" stroke="#fff" stroke-linecap="round" stroke-width="2"/>
      <path id="Path_1148" data-name="Path 1148" d="M682.631,1663.377l68.5-106.058L728.287,1541.5l-3.187,3.465,9.59,6.445,2-1.4-8.4-5.044" transform="translate(-213.224 -1181.939)" fill="none" stroke="#fff" stroke-linecap="round" stroke-linejoin="round" stroke-width="2"/>
      <path id="Path_1149" data-name="Path 1149" d="M847.856,1699.021,682.4,1598.766" transform="translate(-213.483 -1117.852)" fill="none" stroke="#fff" stroke-linecap="round" stroke-width="2"/>
      <path id="Path_1150" data-name="Path 1150" d="M852.409,1702.09l-145.086-89.843,9.389-13.436-22.466-14.982" transform="translate(-200.225 -1134.568)" fill="none" stroke="#fff" stroke-linecap="round" stroke-linejoin="round" stroke-width="2"/>
      <path id="Path_1151" data-name="Path 1151" d="M707.62,1634.068l21.32-35.721" transform="translate(-185.258 -1118.321)" fill="none" stroke="#fff" stroke-linecap="round" stroke-linejoin="round" stroke-width="2"/>
      <path id="Path_1152" data-name="Path 1152" d="M704.771,1590.85l27.438,15.875" transform="translate(-188.447 -1126.711)" fill="none" stroke="#fff" stroke-linecap="round" stroke-width="2"/>
      <path id="Path_1153" data-name="Path 1153" d="M717.681,1648.977l26.238-42.31-9.33-6.923,51.33,32.93,61.546,38.89,8.022-7.923-10.914-6.954,16.509-24.013-54.191-36.832" transform="translate(-173.999 -1121.125)" fill="none" stroke="#fff" stroke-linecap="round" stroke-linejoin="round" stroke-width="2"/>
      <path id="Path_1154" data-name="Path 1154" d="M737.315,1672.391l49.211-76.065" transform="translate(-152.025 -1120.583)" fill="none" stroke="#fff" stroke-linecap="round" stroke-linejoin="round" stroke-width="2"/>
      <path id="Path_1155" data-name="Path 1155" d="M756.769,1602.4l76.258,47.559v12.844" transform="translate(-130.255 -1113.782)" fill="none" stroke="#fff" stroke-linecap="round" stroke-linejoin="round" stroke-width="2"/>
      <path id="Path_1156" data-name="Path 1156" d="M746.745,1677.311l48.83-74.594" transform="translate(-141.472 -1113.43)" fill="none" stroke="#fff" stroke-linecap="round" stroke-linejoin="round" stroke-width="2"/>
      <path id="Path_1157" data-name="Path 1157" d="M796.594,1607.923l-36.729,55.821" transform="translate(-126.789 -1107.604)" fill="none" stroke="#fff" stroke-linecap="round" stroke-linejoin="round" stroke-width="2"/>
      <path id="Path_1158" data-name="Path 1158" d="M800.336,1654.224l-53.542-30.96,23.394-38.664-31.747-19.146-26.264,35.289" transform="translate(-180.159 -1155.134)" fill="none" stroke="#fff" stroke-linecap="round" stroke-linejoin="round" stroke-width="2"/>
      <path id="Path_1159" data-name="Path 1159" d="M736.277,1629.088l32.813-47.129,11.564,7.345-8.3,12.411,15.866,11.391" transform="translate(-153.187 -1136.662)" fill="none" stroke="#fff" stroke-linecap="round" stroke-linejoin="round" stroke-width="2"/>
      <path id="Path_1160" data-name="Path 1160" d="M848.02,1537.928l-25.744-2.016-10.058,11.833V1564.3l3.919,15.18-17.989,45.841-24.571,36.837" transform="translate(-111.442 -1188.194)" fill="none" stroke="#c8c29c" stroke-linecap="round" stroke-linejoin="round" stroke-width="2"/>
      <path id="Path_1161" data-name="Path 1161" d="M817.254,1660.515,776,1598.635v-36.178l3.733-11.485,2.618-16.6,26.252-3.448-26.252,3.448-20.046-7.581" transform="translate(-124.055 -1198.401)" fill="none" stroke="#c8c29c" stroke-linecap="round" stroke-linejoin="round" stroke-width="2"/>
      <path id="Path_1162" data-name="Path 1162" d="M816.7,1547.721l-45.352-13.46" transform="translate(-113.933 -1190.043)" fill="none" stroke="#c8c29c" stroke-linecap="round" stroke-linejoin="round" stroke-width="2"/>
      <path id="Path_1163" data-name="Path 1163" d="M757.827,1538.884l25.343,2.437,47.381,15.923" transform="translate(-129.07 -1184.868)" fill="none" stroke="#c8c29c" stroke-linecap="round" stroke-linejoin="round" stroke-width="2"/>
      <path id="Path_1164" data-name="Path 1164" d="M796.581,1622.067l-18.8-27.431,1.772-33.489-1.772,33.489-17.9,1.128" transform="translate(-126.776 -1159.953)" fill="none" stroke="#c8c29c" stroke-linecap="round" stroke-linejoin="round" stroke-width="2"/>
      <path id="Path_892" data-name="Path 892" d="M3367.12-757.5l58.747,10.344,68.893,3.789,115.527,33.689,48.669,10.8,54.5,7.217,69.077-12.02,71.817-31.852,23.479-7.83v-24.193h13.7l3.165-14.86h-6.343l-3.1-23.005-7.422-11.69,44.729-43.811-86.619-48.031L3752.02-948l-3.368-12.786-13.259-9.784h-16.6l16.6-50.827,57.519-6.829V-1061.1l25.428,3.92,42.178-10.62,6.606-40.1,40.9,9.826v8.159l65.37,22.117,9.5-35.9-64.581-78.163-84.632-98.592-57.464,11.835-40.817,29.208,9.449,23.673-14.362,8.41-38.821-11.228-41.637,18.048-47.974,34.167-41.12,71.347-19.717,47.869-8.085,51.375L3515-953.526l-37.082,58.778-45.142,43.476-30.969,5.1-27.05,49.535-7.64,26.785Z" transform="translate(-3244.237 773.387)" fill="#b0e0a8"/>
      <path id="Path_1118" data-name="Path 1118" d="M600.8,1495.667l28.867-11.684v-12.959l7.118,58.394" transform="translate(-304.806 -1260.812)" fill="none" stroke="#c8c29d" stroke-linecap="round" stroke-linejoin="round" stroke-width="2"/>
      <path id="Path_1119" data-name="Path 1119" d="M610.67,1519.865l-2.477-44.471,2.477,47.42h17.3" transform="translate(-296.529 -1255.921)" fill="none" stroke="#c8c29d" stroke-linecap="round" stroke-linejoin="round" stroke-width="2"/>
      <path id="Path_1069" data-name="Path 1069" d="M680.793,1444.869l-5.833-9.043-31.838-13.782-23.465,4.029v30.419l12.789,9.971,23.206,4.77,16.047-8.364Z" transform="translate(-283.701 -1315.629)" fill="#f3e2ac" stroke="#c8c29d" stroke-linejoin="round" stroke-width="2"/>
      <path id="Path_1089" data-name="Path 1089" d="M550.65,1379.568,582,1381.5v31.054l-20.179,1.981-29.265,31.509-17.45,7.531h-18.5l-6.827-6.492,51.011-39.315Z" transform="translate(-426.884 -1363.111)" fill="#f3e2ac" stroke="#c8c29d" stroke-linecap="round" stroke-linejoin="round" stroke-width="2"/>
      <path id="Path_1070" data-name="Path 1070" d="M847.8,1467.96l-162.654-42.709-21.3,10.929-20.963,35,42.258,20.24,7.442,7.016h14.845l8.647,7.82,16.122,5.106,13.333,16.306,14.416-10.688h7.135l-3.511,21.671,8.418,14.214,24.3-3.309,34.323,11.64,17.186-11.64,5.728,3.309,8.057-21.269,33.722,35.57h14.3l3.752,9.283H929.6l12.051,25.37,9.307-7.579,15.851,7.579,19.585-21.632v-18.99l-19.585-3.225,19.585-8.415-16.241-38.194-28.5-12.926L917.628,1461.6,879.2,1450.133l-4.16,21.046Z" transform="translate(-257.708 -1312.038)" fill="#f5e7b8" stroke="#c8c29d" stroke-linecap="round" stroke-linejoin="round" stroke-width="2"/>
      <path id="Path_1081" data-name="Path 1081" d="M3546.583-992.185v23.05l39.063,5.143-3.01,5.876-21.927,3.177,11.518,25.947,56.679,15.3h27.2l10.333-50.3-6.173-28.193-31.359-13.8-7.762-9.659-38.508,14.812Z" transform="translate(-3043.372 1069.739)" fill="#eaeaea" stroke="#d1d1d1" stroke-linecap="round" stroke-linejoin="round" stroke-width="2"/>
      <path id="Path_1106" data-name="Path 1106" d="M3444.46-881.525l28.24,25.688,14.458,29.226h-35.007l-22.879-6.863-7.565-17.435Z" transform="translate(-3183.125 1219.84)" fill="#f5e7b8" stroke="#c8c29d" stroke-linecap="round" stroke-linejoin="round" stroke-width="2"/>
      <path id="Path_1101" data-name="Path 1101" d="M502.831,1484.05l23.668,12.482-7.705,19.225-32.985-17.081-3.141-23.641Z" transform="translate(-437.008 -1256.322)" fill="#d1e0a8"/>
      <path id="Path_1084" data-name="Path 1084" d="M792.671,1391.864l-14.309,14.514,30.872,11.547v2.838l-29.119-10.076-1.752,12.431,28.366,5.714v3.226l-25.449-5v7.663l22.853,4.416v2.6l-22.853-4.4.739,8.193,60.107,7.616,6.528-18.428-39.419-28.344-6.664-8.292Z" transform="translate(-106.089 -1349.403)" fill="#fff"/>
      <path id="Path_1085" data-name="Path 1085" d="M846.742,1416.7l-9.469,11.283-26.969-1.911v5.878l20.138,6.469,1.268,5.31,8.615-3.289-.94-3.277,7.357-.641,4.616-2.158v-16.5Z" transform="translate(-70.342 -1321.608)" fill="#fff"/>
      <path id="Path_1042" data-name="Path 1042" d="M718.729,1340.3l4.762,18.764" transform="translate(-172.825 -1407.107)" fill="none" stroke="#fff" stroke-linecap="round" stroke-linejoin="round" stroke-width="2"/>
      <path id="Path_1045" data-name="Path 1045" d="M679.727,1286.825l-21,19.37,10.807-4.028,24.062,26.976-11.045,5.662-33.2-24.2-23.005-8.437,21.262,10.338,1.743,10.6,9.371,10.661,10.807,10.428,14.124-6.557L662.82,1323.1l18.118,14.532-18.118-11.159,15.4,11.159-15.4-8.492,14.283,10.323-15.288-7.908,12.709,9.186-14.135-6.981,10.785,8.475" transform="translate(-276.21 -1466.956)" fill="none" stroke="#fff" stroke-linecap="round" stroke-linejoin="round" stroke-width="2"/>
      <g id="Path_1046" data-name="Path 1046" transform="translate(-244.805 -1440.63)" fill="none" stroke-linecap="round" stroke-linejoin="round">
        <path d="M654.412,1313.893l19.681-3.544,11.01,10.5,4.893,13.263s7.438-3.874,9.918-2.71,2.479,5.525,0,7.367-8.091-1.632-9.918,0-.19,4.9,2.612,6.528,7.086-2.073,8.6,0,.892,6.219-2.556,8.292-11.234,0-11.234,0-.091,5.681-2.31,7.575a4.962,4.962,0,0,1-6.567,0c-1.642-1.4,0-5.618,0-5.618h-4.443l-10.488,2.146-2.81-18.923Z" stroke="none"/>
        <path d="M 671.8335571289062 1317.86767578125 L 663.0527954101562 1319.449096679688 L 667.7181396484375 1337.743774414062 L 669.442626953125 1349.355224609375 L 672.6891479492188 1348.690795898438 C 673.1510009765625 1348.596313476562 673.6211547851562 1348.548706054688 674.092529296875 1348.548706054688 L 678.53515625 1348.548706054688 C 679.7008666992188 1348.548706054688 680.8285522460938 1348.8388671875 681.8275756835938 1349.371337890625 C 682.2127075195312 1348.861572265625 682.6697998046875 1348.40185546875 683.1907348632812 1348.008056640625 C 683.605712890625 1347.6943359375 684.0499267578125 1347.431030273438 684.5144653320312 1347.2197265625 C 683.2682495117188 1345.482543945312 682.4746704101562 1343.524291992188 682.2745971679688 1341.547973632812 C 682.0806884765625 1339.632202148438 682.4420166015625 1337.776611328125 683.2891235351562 1336.162841796875 L 679.09619140625 1324.796264648438 L 671.8335571289062 1317.86767578125 M 674.092529296875 1310.348266601562 L 685.10205078125 1320.851440429688 L 689.9947509765625 1334.114868164062 C 689.9947509765625 1334.114868164062 695.6166381835938 1331.18701171875 698.7147827148438 1331.186645507812 C 699.1804809570312 1331.186645507812 699.5886840820312 1331.252807617188 699.9127197265625 1331.404907226562 C 702.39208984375 1332.569213867188 702.39208984375 1336.930297851562 699.9127197265625 1338.772094726562 C 699.3642578125 1339.179443359375 698.662353515625 1339.326782226562 697.8822631835938 1339.326782226562 C 695.8448486328125 1339.326782226562 693.272705078125 1338.322143554688 691.4995727539062 1338.322143554688 C 690.88232421875 1338.322143554688 690.362060546875 1338.44384765625 689.9947509765625 1338.772094726562 C 688.168212890625 1340.404174804688 689.8046875 1343.667846679688 692.6064453125 1345.299926757812 C 693.1409912109375 1345.611328125 693.729736328125 1345.728515625 694.3426513671875 1345.728515625 C 696.2015991210938 1345.728515625 698.2850952148438 1344.651611328125 699.76806640625 1344.6513671875 C 700.3588256835938 1344.651245117188 700.8538208007812 1344.822143554688 701.201904296875 1345.299926757812 C 702.7119140625 1347.372924804688 702.0936279296875 1351.518920898438 698.6461181640625 1353.591918945312 C 697.4970703125 1354.282836914062 695.8656005859375 1354.51318359375 694.201416015625 1354.51318359375 C 690.8727416992188 1354.51318359375 687.412109375 1353.591918945312 687.412109375 1353.591918945312 C 687.412109375 1353.591918945312 687.3212890625 1359.273071289062 685.10205078125 1361.166870117188 C 684.0734252929688 1362.044677734375 682.940185546875 1362.410522460938 681.8568725585938 1362.410522460938 C 680.6029663085938 1362.410522460938 679.4159545898438 1361.92041015625 678.53515625 1361.166870117188 C 676.8934326171875 1359.762084960938 678.53515625 1355.548706054688 678.53515625 1355.548706054688 L 674.092529296875 1355.548706054688 L 663.6044921875 1357.694946289062 L 660.7940673828125 1338.772094726562 L 654.411865234375 1313.892700195312 L 674.092529296875 1310.348266601562 Z" stroke="none" fill="#fff"/>
      </g>
      <path id="Path_1062" data-name="Path 1062" d="M842.328,1354.665l-40.6-23.267-13.236,7.83-13.51,15.436-12.321,23.242,8.36,15.339v28.867l22.373,7.457v19.906l30.284,16.431Z" transform="translate(-123.665 -1417.072)" fill="#f5e7b8"/>
      <path id="Path_1051" data-name="Path 1051" d="M594.971,1390.889l-54.542-34.9,12.229-18.469,43.839,20.7-32.291,37.66-30.818,14.674-13.5-10.892" transform="translate(-395.354 -1410.225)" fill="none" stroke="#fff" stroke-linecap="round" stroke-linejoin="round" stroke-width="2"/>
      <path id="Path_1047" data-name="Path 1047" d="M604.987,1276.982l-.534,12.041.534,13.312,6.623,7.55h20.046l-22.045,2.324v10.018l-2.258-10.018-16.04,16.524-1.319,12.463" transform="translate(-316.898 -1477.971)" fill="none" stroke="#fff" stroke-linecap="round" stroke-linejoin="round" stroke-width="2"/>
      <path id="Path_1048" data-name="Path 1048" d="M581.7,1348.552l28.174-65.505-12.183,12.688,7.248,29.533-1.442-20.018-1.655-11.3" transform="translate(-326.177 -1471.183)" fill="none" stroke="#fff" stroke-linecap="round" stroke-linejoin="round" stroke-width="2"/>
      <path id="Path_886" data-name="Path 886" stroke="#7e20ff" d="M3452.158-755.168l23.881-35.534,6.036-8.982-56.981-21.108s-25.855-17.869-29.875-33.15c-1.467-5.577,3.473-5.737,5-9.61,1.979-5.108,3.572-10.508,24.878-15.987,10.781-2.772,17.13-1.16,26.943-1.007,8.267.134,19.865-1.121,40.86-9.217,42.5-16.389,46.913-22.709,72.583-41.188s3.4-41.739,22.486-36.553,30.915,24.886,56.178,39.432,24.114,9.675,36.818,16.745,8.007,14.1,18.472,19.487,15.915-2.211,23.388,2.076,0,20.752,0,20.752" fill="none" transform="translate(-3213.069 1122.796)" stroke-linecap="round" stroke-linejoin="round" stroke-width="4" stroke-dasharray="8"/>
      <path id="Path_888" data-name="Path 888" stroke="#7e20ff" d="M3509.131-923.631s-33.943-.213-39.584-16.046-.785-37.7,12.2-48.691,21.739,4.628,33.553,0,13.7-18.51,13.7-18.51" fill="none" transform="translate(-3132.184 1079.554)" stroke-linecap="round" stroke-linejoin="round" stroke-width="4" stroke-dasharray="8"/>
      <path id="Path_1044" data-name="Path 1044" d="M629.022,1283.788l13.634,6.929L700.092,1287l18.172,21.323-14.873,34.382" transform="translate(-273.22 -1470.354)" fill="none" stroke="#fff" stroke-linecap="round" stroke-linejoin="round" stroke-width="2"/>
      <path id="Path_1043" data-name="Path 1043" d="M610.78,1274.826l-21.265,17.381h41.762l19.925-4.5v11.615l3.5-11.615,18.467,4.5-12.969,7.11v7.978" transform="translate(-317.432 -1480.383)" fill="none" stroke="#fff" stroke-linecap="round" stroke-linejoin="round" stroke-width="2"/>
      <path id="Path_893" data-name="Path 893" d="M3712.985-910.327l5.5,4.6,27.277-10.082,10.954,7.783,3.89-14.557-23.215-7.8,23.215-20.467-28.7-26.381-13.418-32.917-76.614,14.62v13.114l-11.951,12.232-10.164-16.878,17.256-38.458-24.32-8.725,7.064-28.082L3612.7-1080.6l-47.627,18.272-15.724-23.048-4.087-19.442-18.2-15.236-34.628,44.554-15.079-9.877-14.375,16.658,3.188,11.027h11.187l-7.125,18.267-14.614-5.884-18.33-20.463-3.314,8.08-5.428,4.563,5.428,7.82-30.65,70.338,80.5,47.834,21.544-23.716-12.936-15.875,3.389-12.963,9.547-7.372,65.012,33.279,6.012,48.054,53.534,18.014,43.465,5.912,3.729-5.912-26.667-6.06,16.849-16.556,22.865,16.556Z" transform="translate(-3203.703 952.901)" fill="#f5e7b8" stroke="#fff" stroke-linecap="round" stroke-linejoin="round" stroke-width="4"/>
      <path id="Path_912" data-name="Path 912" d="M3529.841-1029.02l-16.79-27.64-12.984-8.845-12.546,19.238,7.17,7.712v26.228l11.946,1.066,5.318,7.191Z" transform="translate(-3111.59 1018.181)" fill="#dedede" stroke="#c8c29d" stroke-linecap="round" stroke-linejoin="round" stroke-width="2"/>
      <path id="Path_1056" data-name="Path 1056" d="M601.162,1358.117l8.034,7.9,14.431-1.375-14.431,3.219,1.372,8.622,10.7,6.462,18.38-9.1,14.1,9.1-1.639,21.42,16.972-14.066,6.166,37.32-16.7,3.42v-3.42l11.882-2.426-1.351-2.9-10.531,2.9,5.133-15.537-14.624,1.064v-18.9" transform="translate(-304.399 -1387.17)" fill="none" stroke="#fff" stroke-linecap="round" stroke-linejoin="round" stroke-width="2"/>
      <path id="Path_1099" data-name="Path 1099" d="M499.862,1508.051l9.26-24.648,30.027,19.323,34.589,10.174-15.913,8.563-28.232-8.563Z" transform="translate(-417.766 -1246.959)" fill="#f3e2ac" stroke="#c8c29d" stroke-linecap="round" stroke-linejoin="round" stroke-width="2"/>
      <g id="Path_1057" data-name="Path 1057" transform="translate(-307.283 -1369.841)" fill="none" stroke-linecap="round" stroke-linejoin="round">
        <path d="M608.94,1373.6l10.721,10.731-4.259,11.956-16.817-10.512,3.592-4.4Z" stroke="none"/>
        <path d="M 609.1414184570312 1379.462280273438 L 605.2364501953125 1383.948852539062 L 604.5516967773438 1384.788452148438 L 613.3034057617188 1390.25927734375 L 615.0446166992188 1385.371337890625 L 609.1414184570312 1379.462280273438 M 608.9400634765625 1373.60107421875 L 619.660888671875 1384.33251953125 L 615.4019775390625 1396.288330078125 L 598.5849609375 1385.77587890625 L 602.1771240234375 1381.37109375 L 608.9400634765625 1373.60107421875 Z" stroke="none" fill="#fff"/>
      </g>
      <path id="Path_1058" data-name="Path 1058" d="M614.763,1370.1l-7.748,28.574,20.264,9.605,17.008-11.042Z" transform="translate(-297.848 -1373.758)" fill="none" stroke="#fff" stroke-linecap="round" stroke-linejoin="round" stroke-width="2"/>
      <path id="Path_1059" data-name="Path 1059" d="M632.844,1386.967l-17.726-19.03" transform="translate(-288.78 -1376.18)" fill="none" stroke="#fff" stroke-linecap="round" stroke-linejoin="round" stroke-width="2"/>
      <path id="Path_1060" data-name="Path 1060" d="M596.169,1382.5l28.944,15.721,4.721-7.336,9.272,3.676,3.311,10.552,23.365-1.22-2.726-3.667-20.639,1.986v-3.99h20.639" transform="translate(-309.987 -1359.888)" fill="none" stroke="#fff" stroke-linecap="round" stroke-linejoin="round" stroke-width="2"/>
      <path id="Path_1174" data-name="Path 1174" d="M749.278,1735.83l-54.6-60.013,3.363,27.549,16.176,34.29,12.111,10.461Z" transform="translate(-199.745 -1031.623)" fill="#79d7f5" stroke="#c8c29d" stroke-width="2"/>
      <path id="Path_1105" data-name="Path 1105" d="M577.055,1475.036l-2.086,5.645H555.1l-22.245,18.543-23.41-12.641-4.535,5.087,30.7,19.625,27.127,7.9,3.7-15.679,22.141,15.752,20.968-32.932,2.791-2.836-22.883-7.64-5.06-31.493-5.371-.022Z" transform="translate(-413.795 -1256.322)" fill="#d1e0a8"/>
      <path id="Path_1061" data-name="Path 1061" d="M804.844,1330.545,783.3,1349.074l-19.281,28.55L773.983,1393v30.44H761.892l-3,22.627h20.93l22.584,5.992,26.374,17.046" transform="translate(-127.882 -1418.027)" fill="none" stroke="#fff" stroke-linecap="round" stroke-linejoin="round" stroke-width="4"/>
      <path id="Path_1095" data-name="Path 1095" d="M494.282,1447.581l19.594-18.371h3.289l4.865,4.134,3.148,2.375,17.215.96,22.212-9.909,27.15-29.1,20.824-2.076,18.886,13.346,7.782,17.835-5.486,25.039,2.51,24.655-11.249,6.549-16.8,4.717-7.324-8.176,18.827-17.782v-17.548L611,1436.679l8.722-16.99-3.419-4.219-23.916,1.008v12.583l-15.241-2.291-14.163,8.08-19.163,6.928-4.2,17.151-10.673-.876-8.447-16.926-10.9,2.795-13.716,12.665,4.435,5.184,23.195,2.465,61,33.233-.553,7.618L558.114,1578.8l-11.068,1.483-2.359,5.281-39.834,1.113L475.1,1556.353l-9.3-1.291-.4-5.56,12.652-4.694,6.721-21.349-13.1-17.293-2.283-7.736.276-12.7Z" transform="translate(-456.01 -1344.854)" fill="#d1e0a8"/>
      <path id="Path_911" data-name="Path 911" d="M3536.029-1047.568l-46.321-12.556-18.329-1.651-11.348,3.375-9.863,9.473-6.977,16.477,11.933,16.423" transform="translate(-3161.291 1018.116)" fill="none" stroke="#c8c29d" stroke-linecap="round" stroke-width="2"/>
      <path id="Path_1029" data-name="Path 1029" d="M601.174,1306.833l10.965-36.886,48.048-19.766L640.674,1244s-23.16,24.023-23.784,23.818" transform="translate(-304.385 -1514.887)" fill="none" stroke="#fff" stroke-linecap="round" stroke-linejoin="round" stroke-width="2"/>
      <path id="Path_898" data-name="Path 898" d="M3459.444-991.086l10.225-16.233,9.908-60.885-17.57-4.862-2.562,7.606-22.611-9.371-27.817,54.026" transform="translate(-3197.327 1003.506)" fill="none" stroke="#c8c29d" stroke-width="2"/>
      <path id="Path_894" data-name="Path 894" d="M3414.725-1078.44l38.456,16.064s-8.99,22.173-12.943,45.215-2.87,46.954-2.87,46.954" transform="translate(-3190.939 999.467)" fill="none" stroke="#fff" stroke-linecap="round" stroke-linejoin="round" stroke-width="4"/>
      <path id="Path_895" data-name="Path 895" d="M3486.837-1035.4l-76.337-33.148" transform="translate(-3195.667 1010.54)" fill="none" stroke="#fff" stroke-linecap="round" stroke-width="4"/>
      <path id="Path_896" data-name="Path 896" d="M3491.73-1029.974l-18.4,2.509-67.205-31.49" transform="translate(-3200.559 1021.272)" fill="none" stroke="#fff" stroke-linecap="round" stroke-width="2"/>
      <path id="Path_1033" data-name="Path 1033" d="M663.834,1276.452l25.215,3.693,37.787,27.123,8.9,5.637,17.849-5.637" transform="translate(-234.261 -1478.565)" fill="none" stroke="#fff" stroke-linecap="round" stroke-linejoin="round" stroke-width="2"/>
      <path id="Path_1034" data-name="Path 1034" d="M718.26,1289.674l.4,16.465,16.739,20.915,9.675,33.346h-12.31l-22.912,22v7.823l-44.728,9.44" transform="translate(-232.82 -1463.767)" fill="none" stroke="#fff" stroke-linecap="round" stroke-linejoin="round" stroke-width="2"/>
      <path id="Path_1054" data-name="Path 1054" d="M561.309,1366.329l-3.958,17.91-37.038-4.938" transform="translate(-394.879 -1377.98)" fill="none" stroke="#fff" stroke-linecap="round" stroke-linejoin="round" stroke-width="2"/>
      <path id="Path_897" data-name="Path 897" d="M3494.913-1118.552s-24.675,23.862-39.941,49.177-22.047,51.96-22.047,51.96" transform="translate(-3170.571 954.576)" fill="none" stroke="#fff" stroke-linecap="round" stroke-width="4"/>
      <path id="Path_899" data-name="Path 899" d="M3442.313-1025.833h23.094l41.747-59.363-18.878-14.038-8.769-11.8" transform="translate(-3160.064 962.994)" fill="none" stroke="#c8c29d" stroke-linecap="round" stroke-linejoin="round" stroke-width="2"/>
      <path id="Path_1063" data-name="Path 1063" d="M826.091,1336.416l-27.983,19.273-8.568,21.934v63.862l-2.459-18.1-22.02-6.59" transform="translate(-120.974 -1411.456)" fill="none" stroke="#fff" stroke-linecap="round" stroke-linejoin="round" stroke-width="2"/>
      <path id="Path_1064" data-name="Path 1064" d="M818.958,1375.984l-17.568,4.9H776.057" transform="translate(-108.668 -1367.175)" fill="none" stroke="#fff" stroke-linecap="round" stroke-linejoin="round" stroke-width="2"/>
      <path id="Path_1065" data-name="Path 1065" d="M786.18,1342.378l4.211,33.184-4.211,26.252L794.8,1416.7" transform="translate(-97.34 -1404.784)" fill="none" stroke="#fff" stroke-linecap="round" stroke-linejoin="round" stroke-width="2"/>
      <path id="Path_1066" data-name="Path 1066" d="M829.892,1388.768l-45.215-8.5-14.464-14.759,25.135-33.155" transform="translate(-115.209 -1416.001)" fill="none" stroke="#fff" stroke-linecap="round" stroke-linejoin="round" stroke-width="2"/>
      <path id="Path_1067" data-name="Path 1067" d="M782.521,1352.3l-15.531,26.6" transform="translate(-118.816 -1393.682)" fill="none" stroke="#fff" stroke-linecap="round" stroke-linejoin="round" stroke-width="2"/>
      <path id="Path_900" data-name="Path 900" d="M3460.019-1054.275l-18.4-12.212" transform="translate(-3160.84 1012.843)" fill="none" stroke="#c8c29d" stroke-linecap="round" stroke-width="2"/>
      <path id="Path_901" data-name="Path 901" d="M3463.987-1041.231l-10.859-29.461" transform="translate(-3147.961 1008.138)" fill="none" stroke="#c8c29d" stroke-linecap="round" stroke-width="2"/>
      <path id="Path_902" data-name="Path 902" d="M3473.836-1063.22l-16.2-13.478Z" transform="translate(-3142.914 1001.416)" fill="none" stroke="#c8c29d" stroke-linecap="round" stroke-width="2"/>
      <path id="Path_1107" data-name="Path 1107" d="M597.694,1568.985l5.57-11.355h11.041l20.919,22.855,1.295,13.147L618.5,1578.5Z" transform="translate(-310.399 -1163.889)" fill="#f5e7b8" stroke="#c8c29d" stroke-width="2"/>
      <path id="Path_903" data-name="Path 903" d="M3464.848-1025.818v-18.566l29.336-37.025,23.983-11.689H3544" transform="translate(-3134.845 983.062)" fill="none" stroke="#c8c29d" stroke-linecap="round" stroke-linejoin="round" stroke-width="2"/>
      <path id="Path_904" data-name="Path 904" d="M3550.5-1043.1l-21.333-17.312-29.4-13.8-48.4-28.962" transform="translate(-3149.92 971.78)" fill="none" stroke="#c8c29d" stroke-width="2"/>
      <path id="Path_905" data-name="Path 905" d="M3497.752-1099.955v21.689l-6.035,18.488" transform="translate(-3104.774 975.388)" fill="none" stroke="#c8c29d" stroke-width="2"/>
      <path id="Path_907" data-name="Path 907" d="M3516.658-1089.134l-10.556,29.661-13.579,25.928" transform="translate(-3103.873 987.499)" fill="none" stroke="#c8c29d" stroke-width="2"/>
      <path id="Path_908" data-name="Path 908" d="M3486.926-1070.826l-9.506,15.4v13.087" transform="translate(-3120.774 1007.987)" fill="none" stroke="#c8c29d" stroke-linecap="round" stroke-linejoin="round" stroke-width="2"/>
      <path id="Path_906" data-name="Path 906" d="M3553.6-1019.027l-117.169-84.667" transform="translate(-3166.652 971.204)" fill="none" stroke="#fff" stroke-linecap="round" stroke-linejoin="round" stroke-width="4"/>
      <path id="Path_909" data-name="Path 909" d="M3487.331-1043.237l10.889-21.371Z" transform="translate(-3109.683 1014.947)" fill="none" stroke="#fff" stroke-linecap="round" stroke-linejoin="round" stroke-width="4"/>
      <path id="Path_1035" data-name="Path 1035" d="M697.712,1308.886l44.192-5.115,18.957,13.38,17.38,26.558,26.189-21.628,27.7,14.411-1.435,23.72,5.606,37.659-11.337-13.057H797.784l-13.945,8.356-5.6,19.043,3.638,25.508-8.324,28.045" transform="translate(-196.347 -1447.99)" fill="none" stroke="#fff" stroke-linecap="round" stroke-linejoin="round" stroke-width="2"/>
      <path id="Path_910" data-name="Path 910" d="M3501.233-1030.088v-13.695l-42.87-12.829" transform="translate(-3142.103 1023.895)" fill="none" stroke="#c8c29d" stroke-width="2"/>
      <path id="Path_913" data-name="Path 913" d="M3493.218-1001.211l2.375-19.029,8.325-14.95" transform="translate(-3103.095 1047.869)" fill="none" stroke="#c8c29d" stroke-linecap="round" stroke-width="2"/>
      <path id="Path_914" data-name="Path 914" d="M3525.125-998.494v-14.791l-30.282-13.987" transform="translate(-3101.276 1056.731)" fill="none" stroke="#c8c29d" stroke-linecap="round" stroke-width="2"/>
      <path id="Path_1037" data-name="Path 1037" d="M698.151,1307.18l19.216,26.173,3.27,10.423,12,14.778,12.315,11.9L729.06,1397.5l-11.693-2.966" transform="translate(-195.856 -1444.175)" fill="none" stroke="#fff" stroke-linecap="round" stroke-linejoin="round" stroke-width="2"/>
      <path id="Path_915" data-name="Path 915" d="M3515.946-960.452v-10.89l44.638-70.1,23.488-16.989,9.47,16.989,16.711,10.529" transform="translate(-3077.659 1021.865)" fill="none" stroke="#c8c29d" stroke-linecap="round" stroke-width="2"/>
      <path id="Path_916" data-name="Path 916" d="M3579.847-1051.981l-1.715-12.484-58.45,11.232,2.174,13.025h24.715v-6.054l26.442-15.339" transform="translate(-3073.477 1015.106)" fill="none" stroke="#c8c29d" stroke-linecap="round" stroke-width="2"/>
      <path id="Path_917" data-name="Path 917" d="M3522.038-1036.4v-16.61" transform="translate(-3070.841 1027.924)" fill="none" stroke="#c8c29d" stroke-linecap="round" stroke-width="2"/>
      <path id="Path_918" data-name="Path 918" d="M3509.133-994.866l19.746-28.891v-21.463h8.015" transform="translate(-3085.284 1036.644)" fill="none" stroke="#c8c29d" stroke-linecap="round" stroke-width="2"/>
      <path id="Path_1104" data-name="Path 1104" d="M566.546,1432.526l18.058,2.517,9.288,11.771-5.513,17.052-8.19-2.433-9.5-4.061-3.888,5.7-6.06,8.973-8.254,8.787,6.206,12.732-19.529-4.3-10.32-9.8-1.559-10.479,8.046-8.376L563,1450.28V1438.6Z" transform="translate(-387.075 -1303.896)" fill="#d1e0a8"/>
      <path id="Path_919" data-name="Path 919" d="M3585.053-1003.7l-16.4-9.749-24.543,3.184-45.8-24.181" transform="translate(-3097.397 1048.703)" fill="none" stroke="#c8c29d" stroke-linecap="round" stroke-width="2"/>
      <path id="Path_920" data-name="Path 920" d="M3556.319-1014.811l3.74-15.162-7.1-16.47" transform="translate(-3036.234 1035.274)" fill="none" stroke="#c8c29d" stroke-linecap="round" stroke-width="2"/>
      <path id="Path_887" data-name="Path 887" stroke="#7e20ff" d="M3823-990.051s-44.542,23.328-96.37,27.111-111.3-14.539-111.3-14.539-59.8-21.169-105.982-31.73c-28.88-6.606-49.689-3.021-74.061-9.076-62.171-15.447-68.642-20.981-68.642-20.981" fill="none" transform="translate(-3244.741 1043.307)" stroke-linecap="round" stroke-linejoin="round" stroke-width="4" stroke-dasharray="8"/>
      <path id="Path_921" data-name="Path 921" d="M3540.061-1006.331l30.186-24.981" transform="translate(-3050.671 1052.209)" fill="none" stroke="#c6bba0" stroke-linecap="round" stroke-width="2"/>
      <path id="Path_922" data-name="Path 922" d="M869.566,1232.276a82.669,82.669,0,0,1-46.729-15.227c-22.668-16.177-29.466-41.591-43.943-49.484-20.754-11.314-66.258-20.844-66.258-20.844l5.263,20.844" transform="translate(-179.645 -1623.749)" fill="none" stroke="#fff" stroke-width="2"/>
      <path id="Path_889" data-name="Path 889" stroke="#7e20ff" d="M3704.24-967.073s-30.1-37.445-51.288-61.586-12.426-35.271-25.587-38.833-108.639,13.443-131.013,25.358-9.116,94.041-9.116,94.041" fill="none" transform="translate(-3114.153 1011.18)" stroke-linecap="round" stroke-linejoin="round" stroke-width="4" stroke-dasharray="8"/>
      <path id="Path_1103" data-name="Path 1103" d="M576.284,1451.156l-19.469-6.022-9.123,12.894-8.045,8.992,5.874,12.6,18.637-6.161Z" transform="translate(-373.242 -1289.787)" fill="#fff" stroke="#fff" stroke-linecap="round" stroke-linejoin="round" stroke-width="2"/>
      <path id="Path_1026" data-name="Path 1026" d="M603.376,1239.146l54.282,16.434,31.049,6.745,51.237,17.247L743,1257.424l8.974,18.772h16.916l14.565,9.894" transform="translate(-301.92 -1520.314)" fill="none" stroke="#fff" stroke-linecap="round" stroke-linejoin="round" stroke-width="2"/>
      <path id="Path_1024" data-name="Path 1024" d="M696.966,1189.154l.518-25.54" transform="translate(-197.182 -1604.845)" fill="none" stroke="#fff" stroke-linecap="round" stroke-width="2"/>
      <path id="Path_1015" data-name="Path 1015" d="M816.4,1319.211l-5.236-21.125L791,1259.647l-9.834-17.247-19.084-15.562-21.157,6.037-21.627-6.037H696.966l13.309-24.606,23.88-19.923,17.745-30.533,13.627-3.913v-14.186" transform="translate(-197.182 -1638.348)" fill="none" stroke="#fff" stroke-linecap="round" stroke-linejoin="round" stroke-width="2"/>
      <path id="Path_1016" data-name="Path 1016" d="M751.526,1243.56l5.251-16.111-5.251-17.464,14.722-29.994,7.773,5.346-22.5-52.94-10.433,26.818-17.847,8.515" transform="translate(-167.77 -1639.779)" fill="none" stroke="#fff" stroke-linecap="round" stroke-linejoin="round" stroke-width="2"/>
      <path id="Path_1017" data-name="Path 1017" d="M740.324,1226.855l43.786-30.139,6.49-3.353,15.528-8.021L787.6,1159.192v37.523" transform="translate(-148.658 -1609.793)" fill="none" stroke="#fff" stroke-linecap="round" stroke-linejoin="round" stroke-width="2"/>
      <path id="Path_1018" data-name="Path 1018" d="M620.477,1225.955l97.438-32.588,39.439-18.582,9.253,9.1,15.8-3.374-11.98,28.952,61.265,94.642" transform="translate(-282.782 -1592.342)" fill="none" stroke="#fff" stroke-linecap="round" stroke-linejoin="round" stroke-width="2"/>
      <path id="Path_1019" data-name="Path 1019" d="M773.034,1292.15l-34.62,4.33-17.3-10.749,7.3-6.075H711.666l-13.188-21.167L679.7,1246.573l-6.807-37.246,38.773-18.339" transform="translate(-224.123 -1574.209)" fill="none" stroke="#fff" stroke-linecap="round" stroke-linejoin="round" stroke-width="2"/>
      <path id="Path_1020" data-name="Path 1020" d="M643.091,1177.453l-2.255,30.6,7.47,13.229-5.214,21.2v16.9l12.7,15.451,10.926,5.078" transform="translate(-259.999 -1589.357)" fill="none" stroke="#fff" stroke-linecap="round" stroke-linejoin="round" stroke-width="2"/>
      <path id="Path_1096" data-name="Path 1096" d="M513.6,1449.082l-9.5-17.706-8.738,1.891-15.171,12.9,3.062,5.784L507.9,1454.8l9.99,15.073,22.84,9.038,12.706,5.179,15.129,2.694v9.059h-8.707l-9.537-4.4H516.1l-8.2,12.347v9.172h15.387l14.281,10.5-17.425-3.018-4.043,3.018,21.469,23.574v17.424l20.687,14.2,22.048-19.241H601.9l4.857-14.052-2.827-24.928H592.447L580.3,1508.951v-10.916l7.239-6.591,28.487-9.518v-15.5l-23.58,10.639-8.992-7.191,20.471-17.916v-18.687l-8.831-6.675,8.831-17.185-2.03-4.481-25.168,1.609v13.089l-15.025-2.368-33.461,14.119-4.956,17.706Z" transform="translate(-439.784 -1334.784)" fill="#f3e2ac" stroke="#c8c29d" stroke-linecap="round" stroke-linejoin="round" stroke-width="2"/>
      <path id="Path_1021" data-name="Path 1021" d="M704.008,1221.134l-17.362,2.836L654.427,1198.9l6.881-15.792-13.392-3.047-2.826,6.334,12.248,5.209" transform="translate(-255.238 -1586.439)" fill="none" stroke="#fff" stroke-linecap="round" stroke-linejoin="round" stroke-width="2"/>
      <path id="Path_1022" data-name="Path 1022" d="M658.11,1194.015l-17.006-8.545" transform="translate(-259.699 -1580.386)" fill="none" stroke="#fff" stroke-linecap="round" stroke-linejoin="round" stroke-width="2"/>
      <path id="Path_1023" data-name="Path 1023" d="M683.084,1183.928l-3.6,14.954v12" transform="translate(-216.748 -1582.11)" fill="none" stroke="#fff" stroke-linecap="round" stroke-linejoin="round" stroke-width="2"/>
      <path id="Path_1077" data-name="Path 1077" d="M641.879,1466.043l37.651-42.389,162.528,46.175h30.467l-24.869,1.13,1.755,28.135,20.519,13.344-2.231-11.915v-17.337s4.5-11.948,4.826-13.357" transform="translate(-258.831 -1313.826)" fill="none" stroke="#fff" stroke-linecap="round" stroke-linejoin="round" stroke-width="2"/>
      <path id="Path_1078" data-name="Path 1078" d="M743.748,1448.522l.124,19.552" transform="translate(-144.827 -1285.995)" fill="none" stroke="#fff" stroke-linecap="round" stroke-linejoin="round" stroke-width="2"/>
      <path id="Path_1079" data-name="Path 1079" d="M809.79,1518.451l-15.515-34.779-19.339-14.034-25.412-4.55" transform="translate(-138.363 -1267.456)" fill="none" stroke="#fff" stroke-linecap="round" stroke-linejoin="round" stroke-width="2"/>
      <path id="Path_1080" data-name="Path 1080" d="M780.524,1494.94l9-2.893-2.97-7.525H775.674" transform="translate(-109.097 -1245.706)" fill="none" stroke="#fff" stroke-linecap="round" stroke-linejoin="round" stroke-width="2"/>
      <path id="Path_1025" data-name="Path 1025" d="M771.822,1194.556l-6.047-9.571H736.8" transform="translate(-152.603 -1580.927)" fill="none" stroke="#fff" stroke-linecap="round" stroke-linejoin="round" stroke-width="2"/>
      <path id="Path_1027" data-name="Path 1027" d="M619.544,1274.188l10.319-11.405,18.58,2.358-16.007-26.4-2.572-22.2" transform="translate(-283.827 -1545.62)" fill="none" stroke="#fff" stroke-linecap="round" stroke-linejoin="round" stroke-width="2"/>
      <path id="Path_1028" data-name="Path 1028" d="M667.969,1258.021l-12.106,3.286v-9.149l-23.57-12.959" transform="translate(-269.559 -1520.255)" fill="none" stroke="#fff" stroke-linecap="round" stroke-linejoin="round" stroke-width="2"/>
      <path id="Path_1030" data-name="Path 1030" d="M603.376,1279.6l51.416-23.91" transform="translate(-301.92 -1501.799)" fill="none" stroke="#fff" stroke-linecap="round" stroke-linejoin="round" stroke-width="2"/>
      <path id="Path_1031" data-name="Path 1031" d="M638.8,1253.608l53.047,38.549-2.347,27.967" transform="translate(-262.276 -1504.13)" fill="none" stroke="#fff" stroke-linecap="round" stroke-linejoin="round" stroke-width="2"/>
      <path id="Path_1032" data-name="Path 1032" d="M669.834,1258.821l-3.577,27.511" transform="translate(-231.548 -1502.533)" fill="none" stroke="#fff" stroke-linecap="round" stroke-linejoin="round" stroke-width="2"/>
      <path id="Path_1036" data-name="Path 1036" d="M735.639,1322.181l4.317,16.224,7.308,16.349,10.715,10.227" transform="translate(-153.901 -1427.387)" fill="none" stroke="#fff" stroke-linecap="round" stroke-linejoin="round" stroke-width="2"/>
      <path id="Path_1038" data-name="Path 1038" d="M712.448,1400.534l7.008,18.914,11.762,5.643v10.087l2.622-11.505,9.842-4.225h4.5v-31.712l4.2-10.022v-19.687l-18.545-21.851-7.432-14.07v-17.64" transform="translate(-179.855 -1447.213)" fill="none" stroke="#fff" stroke-linecap="round" stroke-linejoin="round" stroke-width="2"/>
      <path id="Path_1039" data-name="Path 1039" d="M709.551,1305.308l17.124,9.936,7.224,23.973-30.5,3.431" transform="translate(-189.976 -1446.271)" fill="none" stroke="#fff" stroke-linecap="round" stroke-linejoin="round" stroke-width="2"/>
      <path id="Path_1040" data-name="Path 1040" d="M745.231,1311.8l-2.676,30.6-6.848,8.019-3.61,9.353-18.179-7.9" transform="translate(-178.212 -1439.002)" fill="none" stroke="#fff" stroke-linecap="round" stroke-linejoin="round" stroke-width="2"/>
      <path id="Path_1041" data-name="Path 1041" d="M761.442,1340.209l-10.862,6.623H734.535l-11.971-12.347" transform="translate(-168.534 -1413.617)" fill="none" stroke="#fff" stroke-linecap="round" stroke-linejoin="round" stroke-width="2"/>
      <path id="Union_2" data-name="Union 2" d="M0,173.828l2.281-13.814L21.31,136.919l24.05,6.565,3.835-4.047-26.067-8.7L21.31,101.269l18.784-5.33L51.062,74.408l8.053,3.109-8.045-3.7,5.359-18.881L47.2,43.072,30.547,41.009,27.562,17.153,33.077,0,53.512,6.224v8.557L74.78,10.517l5.466,11.84L94.4,20.8l10.617,5.285h12.664l10.5,4.3L123.7,45.43l13.675,14.714-4.6,13.673,4.6,10.869-28.507,7.341L87.41,79.531,60.82,78.176l6.92,2.671v11.72l29.238,8.7,4.806,16.107,13.824-6.86,11.876,14.365-16.938,12.038-7.114-3.824L76.721,157.244l-22.415-7.57L32.091,155l-13.278-5.327,4.314,24.952Z" transform="translate(150.32 87.266)" fill="#f3e2ac" stroke="#c8c29d" stroke-linecap="round" stroke-linejoin="round" stroke-width="2"/>
      <path id="Path_1049" data-name="Path 1049" d="M588.061,1352.23l-3.652-26.589-6.014-7.153,9.666-13.983" transform="translate(-329.878 -1447.168)" fill="none" stroke="#fff" stroke-linecap="round" stroke-linejoin="round" stroke-width="2"/>
      <path id="Path_1050" data-name="Path 1050" d="M591.544,1322l-7.007-5.448-11.631-1.536" transform="translate(-336.02 -1435.407)" fill="none" stroke="#fff" stroke-linecap="round" stroke-linejoin="round" stroke-width="2"/>
      <path id="Path_1052" data-name="Path 1052" d="M553.924,1365.758l-18.67-8.112" transform="translate(-378.159 -1387.697)" fill="none" stroke="#fff" stroke-linecap="round" stroke-linejoin="round" stroke-width="2"/>
      <path id="Path_1053" data-name="Path 1053" d="M540.682,1365.317l16.7,12.505" transform="translate(-372.083 -1379.112)" fill="none" stroke="#fff" stroke-linecap="round" stroke-linejoin="round" stroke-width="2"/>
      <path id="Path_1086" data-name="Path 1086" d="M773.655,1392.841l11.906,12.743-3.351,1.3L771.622,1395.4l-2.727,3.041,10.7,11.5" transform="translate(-116.683 -1348.309)" fill="none" stroke="#fff" stroke-linecap="round" stroke-linejoin="round" stroke-width="2"/>
      <path id="Path_1087" data-name="Path 1087" d="M770.907,1433.9l23.592,6.81-6.071,11.229h-9.461l-6.918-7.62Z" transform="translate(-114.432 -1302.361)" fill="#fff"/>
      <path id="Path_1055" data-name="Path 1055" d="M565.649,1366.329l-8.773,16.572" transform="translate(-353.96 -1377.98)" fill="none" stroke="#fff" stroke-linecap="round" stroke-linejoin="round" stroke-width="2"/>
      <path id="Path_1071" data-name="Path 1071" d="M654.412,1429.821l50.086,15.871,55.232,17.175,6.85-17.175,10.962,3.639-8.915,25.053-12.961,36.422,16.6-36.422,22.816,9.1L777.542,1542.8l-21.876-7.933" transform="translate(-244.805 -1306.924)" fill="none" stroke="#c8c29d" stroke-linecap="round" stroke-linejoin="round" stroke-width="2"/>
      <path id="Path_1072" data-name="Path 1072" d="M729.4,1442.509l-4.148,17.877,28.8,7.23" transform="translate(-165.521 -1292.724)" fill="none" stroke="#c8c29d" stroke-linecap="round" stroke-linejoin="round" stroke-width="2"/>
      <path id="Path_1073" data-name="Path 1073" d="M780.05,1442.509l-7.885,11,24.255,26.413h-27.5l-6.161,14.2" transform="translate(-123.548 -1292.724)" fill="none" stroke="#c8c29d" stroke-linecap="round" stroke-linejoin="round" stroke-width="2"/>
      <path id="Path_1074" data-name="Path 1074" d="M797.514,1514.34l-4.478-11.994h-5.309L776.052,1471.7l4.341-11.269" transform="translate(-108.674 -1272.671)" fill="none" stroke="#c8c29d" stroke-linecap="round" stroke-linejoin="round" stroke-width="2"/>
      <path id="Path_1075" data-name="Path 1075" d="M795.307,1462.651l-3.379,16.28,15.328,33.777" transform="translate(-90.906 -1270.183)" fill="none" stroke="#c8c29d" stroke-linecap="round" stroke-linejoin="round" stroke-width="2"/>
      <path id="Path_1076" data-name="Path 1076" d="M777.409,1463.309l16.046,4.965,10.6,28.173-12.385,3,12.385-3,6.014,15.779" transform="translate(-107.156 -1269.446)" fill="none" stroke="#c8c29d" stroke-linecap="round" stroke-linejoin="round" stroke-width="2"/>
      <path id="Path_1082" data-name="Path 1082" d="M741.617,1474.43l-.922-44.651,9.681-10.594h12.738l-2.512,15.481-18.985-2.979,17.509,1.5,2.313-12.954H750.376l-8.759,10.23,16.642,1.221L759.9,1421.2h-9.522l-6.5,8.583h13.68l.7-7.507h-7.883l-3.428,6.3h9.528v-5.016h-5.481l-1.652,3.688h6.128v-2.586H752v1.486h2.251" transform="translate(-148.243 -1318.827)" fill="none" stroke="#fff" stroke-linecap="round" stroke-linejoin="round" stroke-width="2"/>
      <path id="Path_1083" data-name="Path 1083" d="M878.279,1448.011l-90.708-24.328" transform="translate(-95.783 -1313.793)" fill="none" stroke="#000" stroke-linecap="round" stroke-linejoin="round" stroke-width="2"/>
      <path id="Path_1090" data-name="Path 1090" d="M489.889,1447.731l7.081,7.24,21.234-1.35,16.2-5.89,30.307-31.919,21.172-2.294v-33.925" transform="translate(-428.928 -1363.136)" fill="none" stroke="#fff" stroke-linecap="round" stroke-linejoin="round" stroke-width="2"/>
      <path id="Path_1091" data-name="Path 1091" d="M562.314,1499.72l-8.588-48.147,8.738-22.85-8.738-20.441-18.974-12.714" transform="translate(-378.72 -1345.258)" fill="none" stroke="#fff" stroke-linecap="round" stroke-linejoin="round" stroke-width="2"/>
      <path id="Path_1092" data-name="Path 1092" d="M543.443,1392.877l9.58,17.223,20.225,1.338,102.189,32.283,5.353-5.258,13.8,4.814-4.282,6.954,17.126-6.374,20.322-12.911-18.883-5.214-46.849-6.446-30.576-11.808-56.16-12.918-14.178-7.7Z" transform="translate(-368.994 -1355.004)" fill="#eaeaea" stroke="#d1d1d1" stroke-linecap="round" stroke-linejoin="round" stroke-width="2"/>
      <path id="Path_1093" data-name="Path 1093" d="M551.041,1399.992l-4.453,8.561,5.012,3.639,3.761-1.52,9.351,16.9,31.546,2.789,28.476,16.7,44.839,2.85,8.79,5.443,7.347-5.443h11.9l2.337-7.981-126.59-40.3Z" transform="translate(-365.475 -1340.307)" fill="#bcbcbc" stroke="#bcbcbc" stroke-linecap="round" stroke-linejoin="round" stroke-width="2"/>
      <path id="Path_1094" data-name="Path 1094" d="M535.1,1387.133l19.215,5.917v12.692l9.755,9.663,17.668-1.9,115.2,36.575,1.737-2.12-13.522-3.95,2.472-1.791,12.926,4.033v-2.243L690.767,1441" transform="translate(-378.328 -1354.698)" fill="none" stroke="#fff" stroke-linecap="round" stroke-linejoin="round" stroke-width="2"/>
      <path id="Path_1097" data-name="Path 1097" d="M485.15,1432.535l16.881,30.07v13.727l3.789,8.35-3.789,10.188-20.094-23.781-8.184-16.764,2.2-17.7Z" transform="translate(-446.986 -1303.887)" fill="#f3e2ac" stroke="#c8c29d" stroke-linecap="round" stroke-linejoin="round" stroke-width="2"/>
      <path id="Path_1098" data-name="Path 1098" d="M480.189,1477.03l9.338-12.975,16.08,29.607-6.44,11.212Z" transform="translate(-439.784 -1268.611)" fill="#f3e2ac" stroke="#c8c29d" stroke-linecap="round" stroke-linejoin="round" stroke-width="2"/>
      <g id="Ellipse_42" data-name="Ellipse 42" transform="translate(175.629 152.944)" fill="#fff" stroke="#c8c29d" stroke-linejoin="round" stroke-width="2">
        <circle cx="8.477" cy="8.477" r="8.477" stroke="none"/>
        <circle cx="8.477" cy="8.477" r="7.477" fill="none"/>
      </g>
      <path id="Path_1110" data-name="Path 1110" d="M551.707,1514.844l49.784,23.471,21.129,7.177,143.59,1.645V1535.09l-9.343-15.261H744.927l7.914-16.122,7-22.847-28.028-8.548-4.285,13.865,1.768,10.379,2.517,26.983,2.5,21.953" transform="translate(-359.745 -1259.37)" fill="none" stroke="#c8c29d" stroke-width="2"/>
      <path id="Path_1111" data-name="Path 1111" d="M566.138,1487.566l-.8,55.387" transform="translate(-344.491 -1242.3)" fill="none" stroke="#c8c29d" stroke-linecap="round" stroke-linejoin="round" stroke-width="2"/>
      <path id="Path_1112" data-name="Path 1112" d="M554.188,1498.326l48.441-.94,19.346.94,15.2,15.787,1.778,56.43" transform="translate(-356.969 -1231.31)" fill="none" stroke="#c8c29d" stroke-linecap="round" stroke-linejoin="round" stroke-width="2"/>
      <path id="Path_1113" data-name="Path 1113" d="M576.262,1486.751l2.677,66.729" transform="translate(-332.265 -1243.212)" fill="none" stroke="#c8c29d" stroke-linecap="round" stroke-linejoin="round" stroke-width="2"/>
      <path id="Path_1114" data-name="Path 1114" d="M576.262,1489.967l26.849,1.541,21.446,12.779,13.426,21.582" transform="translate(-332.265 -1239.612)" fill="none" stroke="#c8c29d" stroke-linecap="round" stroke-linejoin="round" stroke-width="2"/>
      <path id="Path_1115" data-name="Path 1115" d="M586.925,1506.088l6.519-14.485" transform="translate(-320.332 -1237.782)" fill="none" stroke="#c8c29d" stroke-linecap="round" stroke-linejoin="round" stroke-width="2"/>
      <path id="Path_1116" data-name="Path 1116" d="M561.126,1552.331l33.241,3.527,23.083,3.2,23.932,11.223,62.441-3.123-8.079-85.5,6.3-12.193" transform="translate(-349.205 -1262.552)" fill="none" stroke="#c8c29d" stroke-linecap="round" stroke-linejoin="round" stroke-width="2"/>
      <path id="Path_1117" data-name="Path 1117" d="M584.774,1511.984l-.467,22.333" transform="translate(-323.262 -1214.973)" fill="none" stroke="#c8c29d" stroke-linecap="round" stroke-linejoin="round" stroke-width="2"/>
      <path id="Path_1136" data-name="Path 1136" d="M648.975,1514.448,648,1538.782" transform="translate(-251.982 -1212.216)" fill="none" stroke="#c8c29c" stroke-linecap="round" stroke-linejoin="round" stroke-width="2"/>
      <path id="Path_1120" data-name="Path 1120" d="M616.242,1487.429l41.952-1.554,40.2,12.7,4.554-12.7-17.917-6.579" transform="translate(-285.403 -1249.436)" fill="none" stroke="#c8c29d" stroke-linecap="round" stroke-linejoin="round" stroke-width="2"/>
      <path id="Path_1121" data-name="Path 1121" d="M660.275,1475.395,659,1492.621" transform="translate(-241.788 -1253.802)" fill="none" stroke="#c8c29d" stroke-linecap="round" stroke-linejoin="round" stroke-width="2"/>
      <path id="Path_1122" data-name="Path 1122" d="M624.184,1590.821l-6.434-93.386" transform="translate(-285.835 -1231.255)" fill="none" stroke="#c8c29d" stroke-linecap="round" stroke-linejoin="round" stroke-width="2"/>
      <path id="Path_1123" data-name="Path 1123" d="M597.692,1572.607l15.02-24.1L625.7,1559.76l24.543,1.984,19.609-4.959L663.6,1524.98l7.962,31.805,15.589-1.7-3.622-47.241,3.622,47.241,10.281,19.424,21.71,6.672,2.436.749-1.608-37.641H704.432v23.791l-7,6.429-1.7,14.613s1.624-15.068,1.7-14.613l24.146,7.421,20.256-.749,2.352-19.433-5.856-17.459s-17.521.192-18.361,0" transform="translate(-308.282 -1219.61)" fill="none" stroke="#c8c29d" stroke-linecap="round" stroke-linejoin="round" stroke-width="2"/>
      <path id="Path_1184" data-name="Path 1184" d="M690.115,1532.237l17.141-26.386,19.29-4.627,15.646-6.409,18.242,8.008,44.514-3.682,13.224,11.714-33.047,12.24,8.2,13.665H734.52L710.075,1526.6Z" transform="translate(-204.849 -1234.187)" fill="#79d7f5" stroke="#79d7f5" stroke-linecap="round" stroke-linejoin="round" stroke-width="2"/>
      <path id="Path_884" data-name="Path 884" stroke="#7e20ff" d="M3625.211-781.053s6.044-19.525,3.31-33.054-8.757-.476-14.248-21.06-5.112-26.635-2.377-51.688,11.016-27.294,13.315-48.526,2.694-32.459-4.6-42.726-18.737-6.012-28.432-12.891-10.349-14.627-10.349-14.627,37.586-22.139,68.037-22.139,56.749,24.925,56.749,24.925" fill="none" transform="translate(-3003.926 1056.179)" stroke-linecap="round" stroke-linejoin="round" stroke-width="4" stroke-dasharray="8"/>
      <path id="Path_1140" data-name="Path 1140" d="M661.222,1639.155l19.013-52.678,20.532-49.552" transform="translate(-237.183 -1187.06)" fill="none" stroke="#fff" stroke-linecap="round" stroke-linejoin="round" stroke-width="2"/>
      <path id="Path_1124" data-name="Path 1124" d="M659.837,1497.772l11.013,16.389-4.743,15.995,2.161,24.989" transform="translate(-238.733 -1230.878)" fill="none" stroke="#c8c29d" stroke-linecap="round" stroke-linejoin="round" stroke-width="2"/>
      <path id="Path_1125" data-name="Path 1125" d="M666.421,1481.79l16.168,8.375v8.463l7.622,2.562-3.984,7.165h-7.62l-7.927,5.895-19.064,2.133" transform="translate(-247.934 -1248.764)" fill="none" stroke="#c8c29d" stroke-linecap="round" stroke-linejoin="round" stroke-width="2"/>
      <path id="Path_1126" data-name="Path 1126" d="M687.6,1544.262l5.678-15.617-1.695-17.691-12.3-14.268-1.532-7.651-10.806-2.963" transform="translate(-230.778 -1243.97)" fill="none" stroke="#c8c29d" stroke-linecap="round" stroke-linejoin="round" stroke-width="2"/>
      <path id="Path_1127" data-name="Path 1127" d="M687.4,1568.69,672.3,1541.3l-4.842-46.757" transform="translate(-230.209 -1234.496)" fill="none" stroke="#c8c29c" stroke-linecap="round" stroke-linejoin="round" stroke-width="2"/>
      <path id="Path_1128" data-name="Path 1128" d="M582.046,1528.7l26.783,5.517h52.621L683.4,1515.8l-21.953,18.417-19,18.743-12.8,36.956" transform="translate(-325.792 -1210.707)" fill="none" stroke="#fff" stroke-linecap="round" stroke-linejoin="round" stroke-width="2"/>
      <path id="Path_1129" data-name="Path 1129" d="M722.447,1514.073l-83.827.829" transform="translate(-262.478 -1212.634)" fill="none" stroke="#fff" stroke-linecap="round" stroke-linejoin="round" stroke-width="2"/>
      <path id="Path_1130" data-name="Path 1130" d="M660.641,1489.967l-9.517,15.254" transform="translate(-248.486 -1239.612)" fill="none" stroke="#c8c29d" stroke-linecap="round" stroke-linejoin="round" stroke-width="2"/>
      <path id="Path_1134" data-name="Path 1134" d="M585.362,1506.909l-.605,10.006" transform="translate(-322.758 -1220.653)" fill="none" stroke="#c8c29d" stroke-width="2"/>
      <path id="Path_1135" data-name="Path 1135" d="M630.216,1516.741l18.828-2.293" transform="translate(-271.884 -1212.216)" fill="none" stroke="#fff" stroke-linecap="round" stroke-linejoin="round" stroke-width="2"/>
      <path id="Path_1137" data-name="Path 1137" d="M681.735,1518.652l11.531,17.272-9.023,20.551" transform="translate(-214.227 -1207.511)" fill="none" stroke="#c8c29c" stroke-linecap="round" stroke-linejoin="round" stroke-width="2"/>
      <path id="Path_1138" data-name="Path 1138" d="M689.793,1544.419l-13.087-15.054" transform="translate(-219.856 -1195.521)" fill="none" stroke="#c8c29c" stroke-linecap="round" stroke-width="2"/>
      <path id="Path_1139" data-name="Path 1139" d="M902.606,1676.946,680.135,1536.864" transform="translate(-216.017 -1187.13)" fill="none" stroke="#fff" stroke-linecap="round" stroke-linejoin="round" stroke-width="2"/>
      <path id="Path_1141" data-name="Path 1141" d="M693.791,1548.351l60.11,36.961-44.312,70.276-50.719-30.316" transform="translate(-239.817 -1174.274)" fill="none" stroke="#fff" stroke-linecap="round" stroke-linejoin="round" stroke-width="2"/>
      <path id="Path_1142" data-name="Path 1142" d="M735.77,1585.269l-60.608-36.953" transform="translate(-221.583 -1174.313)" fill="none" stroke="#fff" stroke-linecap="round" stroke-linejoin="round" stroke-width="2"/>
      <path id="Path_1143" data-name="Path 1143" d="M729.43,1592.219l-57.861-35.155" transform="translate(-225.604 -1164.523)" fill="none" stroke="#fff" stroke-linecap="round" stroke-linejoin="round" stroke-width="2"/>
      <path id="Path_1144" data-name="Path 1144" d="M720.938,1599.5l-53.012-31.462" transform="translate(-229.681 -1152.24)" fill="none" stroke="#fff" stroke-linecap="round" stroke-linejoin="round" stroke-width="2"/>
      <path id="Path_1145" data-name="Path 1145" d="M701.517,1596.372l-23.223-15.12" transform="translate(-218.078 -1137.453)" fill="none" stroke="#fff" stroke-linecap="round" stroke-linejoin="round" stroke-width="2"/>
      <path id="Path_1146" data-name="Path 1146" d="M688.919,1592.059l-24.771-15.073" transform="translate(-233.909 -1142.228)" fill="none" stroke="#fff" stroke-linecap="round" stroke-linejoin="round" stroke-width="2"/>
      <path id="Path_1165" data-name="Path 1165" d="M723.932,1526.791l23.607,7.543,16.218,17.161v17.018l10.362,14.7v12.057" transform="translate(-167.003 -1198.401)" fill="none" stroke="#c8c29c" stroke-linecap="round" stroke-linejoin="round" stroke-width="2"/>
      <path id="Path_1166" data-name="Path 1166" d="M766.337,1526.791l-20.941,2.593-9.027,7.344" transform="translate(-153.084 -1198.401)" fill="none" stroke="#c8c29c" stroke-linecap="round" stroke-linejoin="round" stroke-width="2"/>
      <path id="Path_1167" data-name="Path 1167" d="M719.553,1575.81l9.577-20.169V1527.1" transform="translate(-171.904 -1198.056)" fill="none" stroke="#c8c29c" stroke-linecap="round" stroke-linejoin="round" stroke-width="2"/>
      <path id="Path_1168" data-name="Path 1168" d="M763.451,1553.451l-19.821-11.913-19.409-1.307" transform="translate(-166.68 -1183.362)" fill="none" stroke="#c8c29c" stroke-width="2"/>
      <path id="Path_1169" data-name="Path 1169" d="M729.462,1573.508l-10.471-8.248.961-8.719,13.828-1.225,6.794-10.525,22.542,13.274-1.185,8.333H744.178l-3.6,7.109Z" transform="translate(-172.533 -1178.257)" fill="#d1e0a8" stroke="#c8c29c" stroke-linecap="round" stroke-linejoin="round" stroke-width="2"/>
      <path id="Path_1170" data-name="Path 1170" d="M712.274,1568.039l-8.812,18.21,16.407,12.844v9.612l29.852,23.144,19.146-28.965L740.1,1586.249l-27.824-18.21" transform="translate(-192.031 -1152.24)" fill="#d1e0a8" stroke="#fefcf7" stroke-linecap="round" stroke-linejoin="round" stroke-width="2"/>
      <path id="Path_1171" data-name="Path 1171" d="M763.284,1582.886l-22.274,32.946,24.733,17.693,14.313-22.75,5.3-14.447Z" transform="translate(-147.891 -1135.625)" fill="#d1e0a8" stroke="#fff" stroke-width="2"/>
      <path id="Path_883" data-name="Path 883" stroke="#7e20ff" d="M3670.427-700.83s-34.88-12.362-48.43-25.881-6.635-14.183-5.767-28.194-.715-5-5.379-39.13c-2.535-18.55,1.021-58.141,0-72.264-.681-9.416-8.491-13.145-9.771-18.9-3.421-15.428-.877-17.313,4.392-21.878,6.952-6.022,12.176,6.621,25.057,10.462s17.253-3.33,28.374,2.5,4.365,14.465,16.11,20.82c3.887,2.1,11.134-1.11,15.56,0,7.075,1.785,10.842,6.26,15.311,4.6,6.679-2.48,11.588-13.99,11.588-13.99" fill="none" transform="translate(-2984.128 1189.451)" stroke-linecap="round" stroke-linejoin="round" stroke-width="4" stroke-dasharray="8"/>
      <path id="Path_1175" data-name="Path 1175" d="M631.948,1531.238l4.957,30.893" transform="translate(-269.945 -1193.426)" fill="none" stroke="#c8c29d" stroke-linecap="round" stroke-linejoin="round" stroke-width="2"/>
      <path id="Path_1177" data-name="Path 1177" d="M665.525,1542.273l18.557,6.439" transform="translate(-232.368 -1181.075)" fill="none" stroke="#c8c29d" stroke-linecap="round" stroke-width="2"/>
      <path id="Path_1176" data-name="Path 1176" d="M658.223,1542.643l-4.94,9.715" transform="translate(-246.068 -1180.661)" fill="none" stroke="#c8c29d" stroke-linecap="round" stroke-linejoin="round" stroke-width="2"/>
      <path id="Path_1181" data-name="Path 1181" d="M675.1,1570.331l-13.993-6.914-12.28,10.556,14.669,10.984Z" transform="translate(-251.058 -1157.413)" fill="#d1e0a8"/>
      <path id="Path_885" data-name="Path 885" stroke="#7e20ff" d="M3749.125-935.666s-7.321,24.359-32.247,31.4c-10.842,3.061-26.6-5.639-39.789-6.925a61.232,61.232,0,0,0-27.667,3.675s-13.344,3.4-29.031,32.281-14.368,58.737-34.68,81.507-92.667-3.718-111.261,9.572S3464.767-731,3464.767-731" fill="none" transform="translate(-3137.324 1159.249)" stroke-linecap="round" stroke-linejoin="round" stroke-width="4" stroke-dasharray="8"/>
      <path id="Path_1183" data-name="Path 1183" d="M634.187,1580.7l10.3-5.425-4.23-10.785-8.094,5.7Z" transform="translate(-269.705 -1156.215)" fill="#d1e0a8"/>
      <path id="Path_1178" data-name="Path 1178" d="M625.2,1551.785l31.191,28.86,9.053,14.053v18.108" transform="translate(-277.496 -1170.43)" fill="none" stroke="#c8c29d" stroke-linecap="round" stroke-linejoin="round" stroke-width="2"/>
      <path id="Path_1179" data-name="Path 1179" d="M621.14,1573.052l24.651,12.411,23.342-16.318,5.526-18.658-5.526,18.658-15.794-18.658" transform="translate(-282.041 -1171.884)" fill="none" stroke="#c8c29d" stroke-linecap="round" stroke-linejoin="round" stroke-width="2"/>
      <path id="Path_1180" data-name="Path 1180" d="M646.075,1595.645l21.806-19.535v-6.6l21.2,2.244-5.4,11.578s-15.875-7.1-15.8-7.22,15.8,7.22,15.8,7.22l-13.079,14.753-16.337-9.189,16.337,9.189,13.079,11.1-29.416-20.287,4.684-5.564-16.443-13.822" transform="translate(-258.125 -1170.993)" fill="none" stroke="#c8c29d" stroke-linecap="round" stroke-linejoin="round" stroke-width="2"/>
      <path id="Path_1182" data-name="Path 1182" d="M632.256,1569.619l1.379,10.9,10.252-5.222-3.418-10.658" transform="translate(-269.601 -1156.041)" fill="none" stroke="#c8c29d" stroke-linecap="round" stroke-linejoin="round" stroke-width="2"/>
      <path id="Path_1185" data-name="Path 1185" d="M597.883,1539.831l19.131,39.371,37.88,30.675,52.41,19.08,22.8,5.874,93.155,59.443" transform="translate(-308.069 -1183.808)" fill="none" stroke="#fff" stroke-linecap="round" stroke-linejoin="round" stroke-width="2"/>
      <path id="Path_1186" data-name="Path 1186" d="M742.161,1697.509,645.7,1580.218" transform="translate(-254.56 -1138.61)" fill="none" stroke="#fff" stroke-linecap="round" stroke-linejoin="round" stroke-width="2"/>
      <path id="Path_1187" data-name="Path 1187" d="M687.176,1677.219l9.758-12.447,37.578-47.936-10.841,19.56,27.955,14.409-37.15,10.051-17.541,3.917" transform="translate(-212.376 -1101.088)" fill="none" stroke="#fff" stroke-linecap="round" stroke-linejoin="round" stroke-width="2"/>
      <path id="Path_1191" data-name="Path 1191" d="M769.816,1749.16l-9.11-67.9-26.616-28.787,9.482-9.887" transform="translate(-155.635 -1068.816)" fill="none" stroke="#fff" stroke-linecap="round" stroke-linejoin="round" stroke-width="2"/>
      <path id="Path_1188" data-name="Path 1188" d="M772.514,1752.6l-5.476-55.289-19.958-34.186-17-20.4-5.574,3.316-10.6-6.534" transform="translate(-178.232 -1072.255)" fill="none" stroke="#fff" stroke-linecap="round" stroke-linejoin="round" stroke-width="2"/>
      <path id="Path_1189" data-name="Path 1189" d="M778.015,1720.175l-18.081-.555-54.589-83.44" transform="translate(-187.805 -1075.981)" fill="none" stroke="#fff" stroke-linecap="round" stroke-linejoin="round" stroke-width="2"/>
      <path id="Path_1190" data-name="Path 1190" d="M830.808,1702.4l-95.168,12.7L711.881,1700.9v-17.583l26.778-17.747" transform="translate(-180.49 -1043.095)" fill="none" stroke="#fff" stroke-linecap="round" stroke-linejoin="round" stroke-width="2"/>
      <path id="Path_1192" data-name="Path 1192" d="M746.745,1660.883l44.38,46.254" transform="translate(-141.472 -1048.336)" fill="none" stroke="#fff" stroke-linecap="round" stroke-linejoin="round" stroke-width="2"/>
      <path id="Path_1193" data-name="Path 1193" d="M684.786,1645.322l26.457,50.174" transform="translate(-210.812 -1065.75)" fill="none" stroke="#fff" stroke-linecap="round" stroke-linejoin="round" stroke-width="2"/>
      <path id="Path_1194" data-name="Path 1194" d="M693.079,1659.782l9.5-3.753,11.468,22.251" transform="translate(-201.531 -1053.767)" fill="none" stroke="#fff" stroke-linecap="round" stroke-linejoin="round" stroke-width="2"/>
      <path id="Path_1195" data-name="Path 1195" d="M717.833,1640.6l-18.342,13.793,20.133,33.466" transform="translate(-194.356 -1071.032)" fill="none" stroke="#fff" stroke-linecap="round" stroke-linejoin="round" stroke-width="2"/>
      <path id="Path_882" data-name="Path 882" stroke="#7e20ff" d="M3524.238-751.288a112.535,112.535,0,0,0,30.327-8.984c11.163-5.07,22.688-16.005,35.955-17.879,30.923-4.368,39.389-.658,57.411,9.392s15.156,18.927,26.106,25.271,17.76-1.1,17.76-1.1" fill="none" transform="translate(-3068.379 1333.507)" stroke-linecap="round" stroke-linejoin="round" stroke-width="4" stroke-dasharray="8"/>
      <path id="Path_1197" data-name="Path 1197" stroke="#142d4c" d="M792.367,1289.16l-40.909,89.194-69.782,102.993v74.7l21.357,54.344,65.826,58.731" fill="none" transform="translate(-214.293 -1464.342)" stroke-linecap="round" stroke-linejoin="round" stroke-width="2" stroke-dasharray="10"/>
      <path id="Path_1199" data-name="Path 1199" stroke="#142d4c" d="M967.556,1758.945l-145.706-98.807-65.809-30.79-36.944-6.776-59.868-29.358-89.666-39.995" fill="none" transform="translate(-339.763 -1168.824)" stroke-linecap="round" stroke-linejoin="round" stroke-width="2" stroke-dasharray="10"/>
      <path id="Path_881" data-name="Path 881" d="M3928.678-1106.511c6.561-3.945,32.771,5.8,36.6,9.687s-5.833,3.052,11.576,11.183,58.061,21.341,58.061,21.341l10.721-42.211s-55.438-66.045-94.839-109.519-51.846-63.9-62.763-64.375c-27.94-1.229-66.4,17.885-82.2,30.321-21.466,16.9,3.385,23.525,0,34.055,0,0,.657,8.065-13.543,8.065s-18.8-13.089-43.257-8.065-46.84,11.886-82.83,49.01-37.436,55.069-56.458,99.119-19.63,77.081-19.63,77.081-19.054,52.414-47.277,88.541-65.615,55.968-65.615,55.968h-15.311s-21.058,26.539-30.591,51.4-.858,28.608-7.539,48.055-2.31,13.123-19.745,29.671-27.943,16.357-50,36.52c-14.578,13.327-23.445,28.668-30.692,41.377-17.718,31.074,9.816,29.683,9.816,46.4s-9.816,20.468-9.816,20.468-8.23.81-10.014,3.4.376,5.214,2.88,6.952,7.134,0,7.134,0,18.365,21.962,27.34,29.91,5.334,1.714,14.174,6.673,21.185,13.164,21.185,13.164,67.053,9.342,107.4,40.962,55.7,82.83,55.7,82.83,52.843,20.888,73.265,35.764-7.734,6.952,20.757,36.453c11.4,11.8,26,19.884,38.873,29.917,18.091,14.1,34.924,30.119,54.333,51.636,32.349,35.862,14.042,29.4,23.854,49.181s21.7,26.639,33.693,50.517,5.291,25.78,14.267,45,12.434,30.723,26.594,32.031,16.514-18.092,42.383-26.06,33.5-1.924,56.14-5.971,28.168-2.158,34.028-8.716-7.942-8.1-10.589-17.173-2.367-10.373,0-19.108,16.5-3.749,9.468-16.171-37.578-33.519-37.578-33.519l45.758-35.091s50.717,2.023,53.59-5.844-32.506-21.67-34.752-55.3,19.37-52.377,26.056-76.946-2.161-17.063,5.577-39.041c2.7-7.671,7.563-13.282,11.55-19.593,6.422-10.171,12.094-19.39,13.825-29.28,2.658-15.192-10.434-22.425-10.434-22.425v-42.188s-.832-24.114,10.434-53.756,19.98-26.631,29.329-53.419,7.9-36.355,8.068-53.733-23.36-9.1-43.39-18.23-37.684-29.143-37.684-29.143l16.489-118.3s-102.544-61.969-154.9-89.561-50.193-17.228-54.535-20.807-3.888-14.316-3.888-14.316-.959-6.191-8.5-9.488-21.044,4.227-21.68-3.7,6.758-36.253,18-42.52,38.837-1.746,52.409-11.7-3.331-21.19,1.878-28.119,11.116,5.175,27.653,1.982,26.194-1.938,38.494-14.752S3922.118-1102.567,3928.678-1106.511Z" transform="translate(-3305.141 773.378)" fill="none" stroke="#142d4c" stroke-linejoin="round" stroke-width="4"/>
      <path id="Path_891" data-name="Path 891" stroke="#207dff" d="M3688.73-1083.1A67.492,67.492,0,0,0,3669-1067.089c-6.268,7.441-5.97,16.929-13.32,20.333-17.014,7.88-21.483-4.821-35.008-4.821s-18.293-2.008-21.1,9.892,6.04,27.856,2.211,35.084-10.2-10.271-17.525-6.17-11.768,22.577-11.768,22.577" fill="none" transform="translate(-3018.62 1002.731)" stroke-linecap="round" stroke-linejoin="round" stroke-width="4" stroke-dasharray="8"/>
      <path id="Path_890" data-name="Path 890" stroke="#207dff" d="M3444.115-1143.048s23.6,19.7,45.243,22.76,28.9-12.4,41.337-10.51-3.767,13.4,8.346,18.361,29.536-3.762,44.116,0,3.379,10.3,9.864,15.049,17.765-5.535,21.24,3.931-8.188,19.1-7.338,33.932,7.168,3.527,8.5,21.468-4.034,59.5-4.034,59.5" fill="none" transform="translate(-3158.047 931.401)" stroke-linecap="round" stroke-linejoin="round" stroke-width="4" stroke-dasharray="8"/>
      <path id="Path_1443" data-name="Path 1443" d="M930.627,1440.957l-57.487-68.426-18.806-36.609-62.458,8.5-43.014,8.755-33.1,11.858-9.866,32.375,3.006,26.916,4.159,37.378,70.3,13.84h52.58l37.2-9.738Z" transform="translate(-337.648 -1395.056)" fill="red" opacity="0"/>
      <path id="Path_1444" data-name="Path 1444" d="M1004.291,1296.733l37.617,8.14V1317.1l67.789,24.53,12.727-46.118L970.131,1125.2l-50.757,8.633-43.637,28.782,7.674,25.027-7.674,10.906-35.431-10.906-33.87,5.414-32.423,18.5-45.375,39.85-31.416,53.476L667.19,1410.741v10.915l45.3,21.757,36.873-14.192,9.376,1.7-1.923,14.473,6.1,5.9,47.468-3.4,3.821,8.9v7.651l20.646,1.448,3.356,11.775-8.64,21.522,3.864,14.757,4.775,7.412V1548.3l-3.356,32.281,53.017-7.166,13.172,2.667,6.415,20.92,20.75,26.737,10.289,11.469,9.609-15.567,14.031,11.177,3.5-14.741-3.5-17.081,5.227-16.208,21.132-2.208,14.478,9.471,16.171-2.8,14.506-23.816,26.856-18.345-116.181-67.433-53.863-19.55-7.758-22.256-26.35-1.8,2.6-25.052,16.868-23.842,40.08-5.138,15.394-11.174-4.185-16.943,2.263-7.338,16.642,4.626,32.149-4.626,17.57-12.78,5.583-19.573Z" transform="translate(-380.963 -1630.886)" fill="#ffeb00" opacity="0"/>
      <path id="Path_1448" data-name="Path 1448" d="M936.26,1451.331l-13.553-5.611-24.536-3.543-32.6-20.69-28.069-24.564-27.563-11.167-27.375,2.275-42.82,16.3-4.551,5.087,9.076,12.073,27.445,7.993,7.984,17.97-3.82,32.535-9.041,28.985-5.163,32.666,2.993,31.687,15.031,23.869-3.82,35.968,20.784,12.754,21.214,2.261,13.2,2.337,9.306,17.735,28.636,6.366,5.258,2.9,16.271-16.36-2.633-36.2,5.415-40.888,17.639-42.433,18.411-25.942,6.878-27.279Z" transform="translate(-154.397 -1356.238)" fill="#ff0" opacity="0"/>
      <path id="Path_1449" data-name="Path 1449" d="M825,1712.016l2.165-26.037,12.463-19.925,11.4-24.655,2.985-24.177v-13.4l13.127-20.854,10.722-18.664,6.131-19.765-11.585-13.648-18.395,16.04-25.669-7.12-9-2.379-7.766-18.337-30.853-3.419-22.478-12.433-6.754,12.433v15.216l10.468,12.522v70.711l4.77,32.733,1.209,16.755-1.209,13.87,14.337,17.06,32.4,16.041Z" transform="translate(-136.16 -1224.757)" fill="#ffb100" opacity="0"/>
      <path id="Path_1450" data-name="Path 1450" d="M902.475,1476.622l13.216,20.122-5.969,36.641-5.639,11.391v16.129l11.608,12.862v71.365l4.8,32.3v30.93l15.663,17.514,37.67,16.489,8.631,26.342,27.807,27.763v6.659l-50.21,5.59-43.4,32.362-13.321,5.751-13.7-5.751L871.182,1820.1l-32.128-12.7-34.627,3.875-29.31,16.854-31.419,9.334-4.064-18.419-25.986-35.175L692.6,1765.424l-44.888-38.576L624.532,1710.8l-10.358-15.843,3.833-12.867-1.989-34.015,8.513-14.383,13.811-7.895,48.155,3.245,29.487,1.1,20.045-6.888,11.52-10.444,12.054-36.76,12.04-31.71,8.563-17.466,17.962-17.709,27.887-6.407,27.888,5.494,16.786.913,11.572-3.835,14.293-15.217Z" transform="translate(-289.837 -1254.547)" fill="#ff00b1" opacity="0"/>
      <path id="Path_1451" data-name="Path 1451" d="M884.3,1709.288l-.543-9.61-38.3-31.869-14.822,3.781-9.505-5.076-15.617-18.02-7.881-6.471L769.921,1633l-33.485,3.648-28.8,16.545-32.467,10.092,18.877,30.726,16.012,22.751,9.424,24.923,4.359,21.412,12.6,21.411,13,11.388,13.917-4.757,17.048-16.509,29.808-10.389h26.339l41.016-5.711,8.945-7.812-8.945-6.613-6.4-11.218,1.05-11.648,3.914-6.625Z" transform="translate(-221.578 -1079.541)" fill="#0062ff" opacity="0"/>
      <path id="Path_1452" data-name="Path 1452" d="M870,1462.438l16-108.733-39.308-21.85-25.474,15.425-12.807,22.781-10.527,5.369-16.335-2.684-12.578-4.938H755.152l-6.47,12.127,3.53,23.825v10.877l-12.423-3.175-5.043-5.659-11.085,12.862,34.921,41.421,29.188-11.316,20.638-4.4,24.974,4.4,17.637,8.374,16.317,12.167Z" transform="translate(-167.307 -1416.561)" fill="#d801ff" opacity="0"/>
      <path id="Path_1453" data-name="Path 1453" d="M874.691,1534.961l3.385-11.575-5.766-3.478H850.736l-17.067-18.73-22.005-7.375L791.745,1482.4l-24.782-17.942-18.85-15.781-17.289-3.457v21.607L702.393,1493.8l-40.27,22.494-46.066,16.393-31.254,1.25-14.7,1.448-18.556,9.951-2.979,16.34,4.073,10.171,32.164,21.8,36.486,12.058,14.587,6.633-30.213,43.6,4.148,17.123,32.488,15.021,31.052,16.258,18.832,14.509-3.417-14.509V1680.5l8.215-11.095,13.166-9.072,27.3,1.053,18.781,1.517,33.536,1.674,24.48-8.834,6.713-14.009,16-45.438,13.784-30.49,10.221-13.03Z" transform="translate(-363.261 -1289.696)" fill="#00ff14" opacity="0"/>
      <path id="Path_1454" data-name="Path 1454" d="M1004.291,1296.733l37.617,8.14V1317.1l67.789,24.53,12.727-46.118L970.131,1125.2l-50.757,8.633-43.637,28.782,7.674,25.027-7.674,10.906-35.431-10.906-33.87,5.414-32.423,18.5-45.375,39.85-31.416,53.476L667.19,1410.741v10.915l45.3,21.757,36.873-14.192,9.376,1.7-1.923,14.473,6.1,5.9,47.468-3.4,3.821,8.9v7.651l20.646,1.448,3.356,11.775-8.64,21.522,3.864,14.757,4.775,7.412V1548.3l-3.356,32.281,53.017-7.166,13.172,2.667,6.415,20.92,20.75,26.737,10.289,11.469,9.609-15.567,14.031,11.177,3.5-14.741-3.5-17.081,5.227-16.208,21.132-2.208,14.478,9.471,16.171-2.8,14.506-23.816,26.856-18.345-116.181-67.433-53.863-19.55-7.758-22.256-26.35-1.8,2.6-25.052,16.868-23.842,40.08-5.138,15.394-11.174-4.185-16.943,2.263-7.338,16.642,4.626,32.149-4.626,17.57-12.78,5.583-19.573Z" transform="translate(-380.963 -1630.886)" fill="#ffeb00" opacity="0"/>
    </g>
  </g>
</svg>
