<svg xmlns="http://www.w3.org/2000/svg" xmlns:xlink="http://www.w3.org/1999/xlink" width="293.851" height="206.298" viewBox="0 0 293.851 206.298">
  <defs>
    <clipPath id="clip-path">
      <path id="Path_1461" data-name="Path 1461" d="M670.723,1435.247c7.166-4.083,14.143-17.752,14.143-17.752l39.625,6.712,40.875,1.859,40.425-6.1,32.019-9.779s26.662-13.2,30.549-11.6,1.635,5.194,6.1,8.911,11.767,5.957,11.767,5.957,8.725.8,15.291,5.219,6.787,5.861,9.781,13.856,2.195,18.122,2.195,18.122l-4.22,30.783-7.049,17.176-3.279,15.533-1.88,15.787.992,25.893,4.3,15.347-8.8,17.339-20.037,15.41-19.513.831-23.27-6.7-20.616.514s-12.186,4.631-12.186,0a71.213,71.213,0,0,1,1.285-11.12l-3.375-5.127-12.906.445-10.681-2.4-9.113-12.156-9.3-7.417-25.17-10.483-14.3-7.821-22.445-17.7-15.579-12.953-10.424-6.263s-14.984,1.016-23.1-2.554a139.98,139.98,0,0,1-17.747-10.031,33.22,33.22,0,0,1-5.287-20.248,79.83,79.83,0,0,1,5.321-23.395s6.691-13.26,14.783-16.03,17.04.5,17.04.5S663.556,1439.33,670.723,1435.247Z" transform="translate(-616.685 -1394.149)" fill="#fff"/>
    </clipPath>
  </defs>
  <g id="Hallonbergen" transform="translate(-619.739 -1398.444)">
    <g id="Mask_Group_7" data-name="Mask Group 7" transform="translate(616.685 1394.149)" clip-path="url(#clip-path)">
      <path id="Path_1068" data-name="Path 1068" d="M533.847,1379.568l.26,32.509,20.373,14.2,10.6,25.622,18.264,5.136v8.488l21.538-3.893,4.551,10.2h13.892l9.764,5.192h14.684l11.09,4.347-5.276,14.188,13.531,14.828-4.443,14.126,4.443,10.385-19.345,6.961H637l-20.282-11.745H602.523l-3.474,2.378v9.367l34.036,24.042,8.829-3.314h5.855l11.09,13.477L641.914,1588.9l-8.829-3.722-18.517,17.7h27.346l30.346,19.1V1588.9l43.563-19.342,14-6.97,4.159,6.97,47.841,15.62H810.37l28.636,31.956,14.313,15.237,4.852,18.816-19.166,13.474,7.087,8.763,38.995-8.763,23.077,8.763h28.12l6.321,9.838,23.922,7.639,33.214-7.639,3.974,7.639h-8.6l4.627,13.387H981.374l6.988,24.663,11.38,8.742v27.462h8.927v-70.643h11.945v-11.251l34.95-6.656,10.212,11.207-4.278,12.969,19.518,3.508,21.048-3.508,19.71,3.508,5.177-13.387v-10.7l-10.869-15.542v-51.017l10.869-47.8,37.2-55.46v-53.354l-48.071-9-50.306-42.269-40.013-15.766-53.007,15.766-64.59,29.449-81.123,6.286-137.659-35.735-106.041-15.766Z" transform="translate(-710.106 -1410.592)" fill="#d1e0a8"/>
      <path id="Path_1173" data-name="Path 1173" d="M757.2,1675.025l-10.039-15.689L693.079,1688.7l34.315,43.245,3.57-7.68h6.008l-2.918-27.082,2.918-8.483Z" transform="translate(-530.531 -1095.081)" fill="#d1e0a8"/>
      <path id="Path_1108" data-name="Path 1108" d="M589.332,1528.146l18.733,14.635,19.953,29.453,31.805-13.917v13.917l13.739-4.469,57.16,3.234,21.347-1.263,22.986-5.679-9.315,22.333-11.919-9.286H726.226l-27.662-3.584-26.905,1.327-10.921,7.65v33.173l-19.053-11.6-17.523-19.616-10.789-23.47-28.846-24.828Z" transform="translate(-652.951 -1243.032)" fill="#d1e0a8"/>
      <path id="Path_1109" data-name="Path 1109" d="M670.52,1641.456,656.782,1616.1l-21.639-18.969-55.477-23.654-24.774-16.826-8.249-18.417,4.981-15.347,24.821-13.271,34.832-4.556,28.773,6.251,18.68,13.421v-33.049L714,1466.476l53.46,21.138h29.031l43.837,49.169,2.689,17.135-19.166,14.113,9.6,8.627,37.233-9.924,23.107,9.924h28.415l6.734,10.3,23.628,6.46,32.847-6.46,2.183,6.46H980.86l2.718,12.853H967.156l6.754,25.3,9.668,6.563,1.843,28.857,5.926,1.956,5.257-1.956-3-22.371,1.358-47.717h11.21v-11.554l34.838-6.767,10.131,11.973-4.086,12.6,22.135,4.6,15.463-4.6,20.948,3.117-18.478,34.132-3.866,33.81-9.554,29.023-13.051,26.543-5.562,30.732,14.8,33.361,20.995,18.391-4.583,6.034-46.745,3.134-19,10.581-22.845,18.292-5.737,5.235,34.65,29.657,3.225,10.824-9.293,7.16-3.729,10.94,3.729,16.089,10.862,7.485-5.845,8.456-54.367,6.256-20.83,2.07-8.706,2.089-21.574,10.543-4.519,5.051-22.772-23.81,2.677-7.23,6.468,1.778-3.1-30.077,4-7.114,9.1-5,10.336-8.4-10.336-16.237-47.366,26.761-6.2,2.875-21.755-28.167-17.469-27.772-3.172-20.952-48.334-54.373,5.73-9.147,10.82,10.809H790.4L815.98,1806.4l5.547,1.267,17.879,29.8,2,8.5,19.472-8.5,10.474-10.568-1.992-5.305h-4.678l13.411-15.191,12.525,7.035v6.222h22.443l9.213-11.991-118.5-74.064-33.411-19.788-47.045-10.578-19.257-18.774V1652.4l12.443-8.365,21.054-1.286,25.365,3.039,17.616,2.23H796.97l11.354,10.976,9.521-23.268-18.945,2.76H770.361l-36.043-2.76-32.155,5.729,1.9-15.6Z" transform="translate(-695.675 -1312.581)" fill="#f3e2ac" stroke="#c8c29d" stroke-linecap="round" stroke-linejoin="round" stroke-width="2"/>
      <path id="Path_1172" data-name="Path 1172" d="M629.024,1573.565l-14.317-6.885v25.2l19.022,25.641,45.5,33.775,11.885,11.206,6.5-9.551,9.982,9.551,7.993,2.687,22.471,27.735,8.612,3.067,16.958,31.9,30.574-13.177v-5.61h-5.947l13.744-16.182,11.665,8.117v6.243l23.335-1.7,8.579-9.588L694.7,1602.815l-45.3-10.931Z" transform="translate(-618.916 -1199.576)" fill="#eaeaea"/>
      <path id="Path_1133" data-name="Path 1133" d="M576.894,1504.149l1.019,12.844,16.321,2.6v-9.171Z" transform="translate(-661.56 -1270.096)" fill="#d1e0a8"/>
      <path id="Path_1132" data-name="Path 1132" d="M628.463,1523.024l22.048.22-1.629-16.026h-20.42Z" transform="translate(-603.402 -1266.633)" fill="#d1e0a8"/>
      <path id="Path_1131" data-name="Path 1131" d="M690.141,1502.3l-4.588,4.554h-6.481l-7.763,6.273-19.49,2.906,15.561-33.917,13.666,6.8,1.843,9.553Z" transform="translate(-577.063 -1294.943)" fill="#d1e0a8"/>
      <path id="Path_1102" data-name="Path 1102" d="M655.141,1572.648l-21.829-3.321-33.349-13.141-25.884-18.255-8.979-19.152,4.457-13.593,26.208-16.667,1.15-4.593-24.662,4.593-14.485-2.644,2.833,23.142H540.773l2.3,4.491-14.9,8.768,44.077,25.48,27.71,27.159,22.87,40.956L646.072,1584Z" transform="translate(-716.503 -1292.901)" fill="#d1e0a8"/>
      <path id="Path_1147" data-name="Path 1147" d="M730.128,1548.75l-58.684,90.633" transform="translate(-554.93 -1219.795)" fill="none" stroke="#fff" stroke-linecap="round" stroke-width="2"/>
      <path id="Path_1148" data-name="Path 1148" d="M682.631,1663.874l68.778-106.49L728.473,1541.5l-3.2,3.479,9.63,6.472,2.009-1.407-8.438-5.065" transform="translate(-542.313 -1227.971)" fill="none" stroke="#fff" stroke-linecap="round" stroke-linejoin="round" stroke-width="2"/>
      <path id="Path_1149" data-name="Path 1149" d="M848.53,1699.429,682.4,1598.766" transform="translate(-542.575 -1163.389)" fill="none" stroke="#fff" stroke-linecap="round" stroke-width="2"/>
      <path id="Path_1150" data-name="Path 1150" d="M853.053,1702.572l-145.677-90.208,9.427-13.491-22.557-15.043" transform="translate(-529.214 -1180.234)" fill="none" stroke="#fff" stroke-linecap="round" stroke-linejoin="round" stroke-width="2"/>
      <path id="Path_1151" data-name="Path 1151" d="M707.62,1634.214l21.407-35.866" transform="translate(-514.132 -1163.862)" fill="none" stroke="#fff" stroke-linecap="round" stroke-linejoin="round" stroke-width="2"/>
      <path id="Path_1152" data-name="Path 1152" d="M704.771,1590.85l27.55,15.94" transform="translate(-517.345 -1172.317)" fill="none" stroke="#fff" stroke-linecap="round" stroke-width="2"/>
      <path id="Path_1153" data-name="Path 1153" d="M717.681,1649.193l26.345-42.482-9.368-6.951,51.539,33.064,61.8,39.048,8.054-7.955-10.959-6.982,16.576-24.111-54.412-36.981" transform="translate(-502.786 -1166.687)" fill="none" stroke="#fff" stroke-linecap="round" stroke-linejoin="round" stroke-width="2"/>
      <path id="Path_1154" data-name="Path 1154" d="M737.315,1672.7l49.412-76.375" transform="translate(-480.643 -1166.141)" fill="none" stroke="#fff" stroke-linecap="round" stroke-linejoin="round" stroke-width="2"/>
      <path id="Path_1155" data-name="Path 1155" d="M756.769,1602.4l76.568,47.752v12.9" transform="translate(-458.704 -1159.288)" fill="none" stroke="#fff" stroke-linecap="round" stroke-linejoin="round" stroke-width="2"/>
      <path id="Path_1156" data-name="Path 1156" d="M746.745,1677.615l49.028-74.9" transform="translate(-470.008 -1158.933)" fill="none" stroke="#fff" stroke-linecap="round" stroke-linejoin="round" stroke-width="2"/>
      <path id="Path_1157" data-name="Path 1157" d="M796.744,1607.923l-36.878,56.049" transform="translate(-455.211 -1153.062)" fill="none" stroke="#fff" stroke-linecap="round" stroke-linejoin="round" stroke-width="2"/>
      <path id="Path_1158" data-name="Path 1158" d="M800.7,1654.585l-53.76-31.087,23.489-38.822-31.876-19.224-26.371,35.433" transform="translate(-508.993 -1200.958)" fill="none" stroke="#fff" stroke-linecap="round" stroke-linejoin="round" stroke-width="2"/>
      <path id="Path_1159" data-name="Path 1159" d="M736.277,1629.28l32.947-47.321,11.611,7.375L772.5,1601.8l15.93,11.438" transform="translate(-481.813 -1182.344)" fill="none" stroke="#fff" stroke-linecap="round" stroke-linejoin="round" stroke-width="2"/>
      <path id="Path_1160" data-name="Path 1160" d="M848.324,1537.936l-25.849-2.024-10.1,11.881v16.623l3.935,15.242-18.062,46.028-24.671,36.987" transform="translate(-439.747 -1234.273)" fill="none" stroke="#c8c29c" stroke-linecap="round" stroke-linejoin="round" stroke-width="2"/>
      <path id="Path_1161" data-name="Path 1161" d="M817.478,1661.06l-41.42-62.132V1562.6l3.749-11.532,2.629-16.667,26.359-3.462-26.359,3.462-20.127-7.612" transform="translate(-452.457 -1244.56)" fill="none" stroke="#c8c29c" stroke-linecap="round" stroke-linejoin="round" stroke-width="2"/>
      <path id="Path_1162" data-name="Path 1162" d="M816.89,1547.776l-45.537-13.515" transform="translate(-442.257 -1236.137)" fill="none" stroke="#c8c29c" stroke-linecap="round" stroke-linejoin="round" stroke-width="2"/>
      <path id="Path_1163" data-name="Path 1163" d="M757.827,1538.884l25.446,2.447,47.574,15.988" transform="translate(-457.51 -1230.922)" fill="none" stroke="#c8c29c" stroke-linecap="round" stroke-linejoin="round" stroke-width="2"/>
      <path id="Path_1164" data-name="Path 1164" d="M796.731,1622.315l-18.88-27.543,1.78-33.625-1.78,33.625-17.974,1.133" transform="translate(-455.198 -1205.815)" fill="none" stroke="#c8c29c" stroke-linecap="round" stroke-linejoin="round" stroke-width="2"/>
      <path id="Path_892" data-name="Path 892" d="M3367.1-765.476l59.006,20.488,69.173,3.8,116,33.826,48.867,10.84,54.72,7.246,69.358-12.069,72.11-31.982,23.574-7.862v-24.291h13.752l3.177-14.92h-6.368l-3.108-23.1-7.453-11.737,44.912-43.99-86.972-48.227-84.258-39.2-3.382-12.838-13.313-9.824h-16.664l16.664-51.034,57.753-6.857v-33l25.531,3.937,42.35-10.664,6.633-40.266,41.064,9.865v8.193l65.637,22.208,9.534-36.045-64.844-78.481-84.977-98.993-57.7,11.883-40.984,29.327,9.488,23.77-14.42,8.444-38.98-11.273-41.807,18.122L3603-1165.875l-41.288,71.638-19.8,48.064-8.119,51.584-18.2,42.394-37.232,59.017-45.326,43.653-31.1,5.118-27.159,49.737Z" transform="translate(-3574.737 723.826)" fill="#b0e0a8"/>
      <path id="Path_1118" data-name="Path 1118" d="M600.8,1495.767l28.984-11.731v-13.012l7.147,58.632" transform="translate(-634.602 -1307.452)" fill="none" stroke="#c8c29d" stroke-linecap="round" stroke-linejoin="round" stroke-width="2"/>
      <path id="Path_1119" data-name="Path 1119" d="M610.681,1520.046l-2.487-44.652,2.487,47.614h17.366" transform="translate(-626.261 -1302.523)" fill="none" stroke="#c8c29d" stroke-linecap="round" stroke-linejoin="round" stroke-width="2"/>
      <path id="Path_1069" data-name="Path 1069" d="M681.042,1444.962l-5.857-9.08-31.968-13.839-23.561,4.045v30.543l12.841,10.012,23.3,4.789,16.112-8.4Z" transform="translate(-613.334 -1362.691)" fill="#f3e2ac" stroke="#c8c29d" stroke-linejoin="round" stroke-width="2"/>
      <path id="Path_1089" data-name="Path 1089" d="M550.032,1379.568l31.026,1.861v29.938l-19.971,1.91-28.963,30.377-17.27,7.26H496.548l-5.726-4.6,49.454-39.564Z" transform="translate(-758.629 -1410.592)" fill="#f3e2ac" stroke="#c8c29d" stroke-linecap="round" stroke-linejoin="round" stroke-width="2"/>
      <path id="Path_1070" data-name="Path 1070" d="M848.63,1468.134l-163.317-42.883-21.383,10.974-21.048,35.141,42.431,20.322,7.472,7.045H707.69l8.682,7.852,16.187,5.127,13.388,16.372,14.475-10.731h7.164l-3.525,21.759,8.452,14.272,24.4-3.322,34.463,11.688,17.256-11.688,5.752,3.322,8.09-21.356,33.859,35.714h14.356l3.767,9.321h16.313l12.1,25.473,9.345-7.609,15.916,7.609,19.665-21.72v-19.067l-19.665-3.239,19.665-8.449-16.307-38.35-28.619-12.978-24.119-36.984-38.589-11.514-4.177,21.132Z" transform="translate(-587.141 -1359.073)" fill="#f5e7b8" stroke="#c8c29d" stroke-linecap="round" stroke-linejoin="round" stroke-width="2"/>
      <path id="Path_1081" data-name="Path 1081" d="M3546.583-992.089v23.144l39.223,5.164-3.023,5.9-22.016,3.189,11.564,26.052,56.91,15.365h27.311l10.375-50.507-6.2-28.308-31.487-13.86-7.793-9.7-38.665,14.872Z" transform="translate(-3372.323 1022.464)" fill="#eaeaea" stroke="#d1d1d1" stroke-linecap="round" stroke-linejoin="round" stroke-width="2"/>
      <path id="Path_1106" data-name="Path 1106" d="M3444.552-881.525l28.355,25.793,14.517,29.345h-35.149l-22.973-6.891-7.6-17.506Z" transform="translate(-3513.155 1173.722)" fill="#f5e7b8" stroke="#c8c29d" stroke-linecap="round" stroke-linejoin="round" stroke-width="2"/>
      <path id="Path_1101" data-name="Path 1101" d="M502.914,1484.087l23.764,12.533-6.458,16.65-34.4-14.5-3.154-23.737Z" transform="translate(-767.823 -1302.927)" fill="#d1e0a8"/>
      <path id="Path_1084" data-name="Path 1084" d="M792.729,1391.864l-14.367,14.573,31,11.594v2.849l-29.238-10.117-1.759,12.481,28.482,5.737v3.239l-25.553-5.018v7.694l22.946,4.434v2.61l-22.946-4.414.742,8.226,60.352,7.647,6.554-18.5-39.579-28.459-6.691-8.326Z" transform="translate(-434.352 -1396.726)" fill="#fff"/>
      <path id="Path_1085" data-name="Path 1085" d="M846.89,1416.7l-9.507,11.329L810.3,1426.11v5.9l20.22,6.5,1.273,5.332,8.65-3.3-.944-3.29,7.387-.644,4.635-2.167v-16.572Z" transform="translate(-398.329 -1368.716)" fill="#fff"/>
      <path id="Path_1042" data-name="Path 1042" d="M718.729,1340.3l4.782,18.841" transform="translate(-501.603 -1454.874)" fill="none" stroke="#fff" stroke-linecap="round" stroke-linejoin="round" stroke-width="2"/>
      <path id="Path_1045" data-name="Path 1045" d="M679.945,1286.825l-21.086,19.449,10.851-4.044,24.16,27.086L682.78,1335l-33.331-24.3-23.1-8.471,21.349,10.38,1.75,10.641,9.41,10.7,10.851,10.47,14.182-6.583-20.923-14.591,18.192,14.591-18.192-11.205,15.461,11.205-15.461-8.527,14.341,10.365-15.35-7.94,12.761,9.224-14.193-7.01,10.829,8.51" transform="translate(-605.785 -1515.185)" fill="none" stroke="#fff" stroke-linecap="round" stroke-linejoin="round" stroke-width="2"/>
      <g id="Path_1046" data-name="Path 1046" transform="translate(-574.138 -1488.656)" fill="none" stroke-linecap="round" stroke-linejoin="round">
        <path d="M654.412,1313.907l19.761-3.559,11.054,10.546,4.913,13.318s7.469-3.89,9.958-2.721,2.49,5.548,0,7.4-8.124-1.639-9.958,0-.191,4.916,2.622,6.554,7.114-2.081,8.63,0,.9,6.244-2.566,8.325-11.28,0-11.28,0-.091,5.7-2.319,7.606a4.982,4.982,0,0,1-6.594,0c-1.648-1.41,0-5.641,0-5.641h-4.461l-10.531,2.155-2.822-19Z" stroke="none"/>
        <path d="M 671.9137573242188 1317.867797851562 L 663.0529174804688 1319.463623046875 L 667.7442016601562 1337.859619140625 L 669.4801025390625 1349.548095703125 L 672.769287109375 1348.875 C 673.2310791015625 1348.780517578125 673.7012939453125 1348.73291015625 674.1726684570312 1348.73291015625 L 678.6333618164062 1348.73291015625 C 679.8096923828125 1348.73291015625 680.947265625 1349.0283203125 681.9529418945312 1349.570068359375 C 682.3390502929688 1349.057006835938 682.7975463867188 1348.593872070312 683.3197631835938 1348.197021484375 C 683.7462158203125 1347.872924804688 684.2044067382812 1347.602294921875 684.6842651367188 1347.386962890625 C 683.4219360351562 1345.638305664062 682.6181640625 1343.66455078125 682.4164428710938 1341.67236328125 C 682.2218627929688 1339.75 682.585693359375 1337.88818359375 683.4379272460938 1336.27001953125 L 679.2211303710938 1324.838989257812 L 671.9137573242188 1317.867797851562 M 674.1726684570312 1310.348388671875 L 685.2269897460938 1320.89404296875 L 690.1397094726562 1334.211669921875 C 690.1397094726562 1334.211669921875 695.7846069335938 1331.271850585938 698.8953247070312 1331.271362304688 C 699.3629150390625 1331.271362304688 699.7726440429688 1331.337768554688 700.0979614257812 1331.490478515625 C 702.5875854492188 1332.65966796875 702.5875854492188 1337.03857421875 700.0979614257812 1338.887939453125 C 699.5473022460938 1339.296997070312 698.8424682617188 1339.444946289062 698.0592651367188 1339.444946289062 C 696.0135498046875 1339.444946289062 693.4309692382812 1338.436157226562 691.650634765625 1338.436157226562 C 691.0308227539062 1338.436157226562 690.508544921875 1338.558349609375 690.1397094726562 1338.887939453125 C 688.3057250976562 1340.526611328125 689.9487915039062 1343.8037109375 692.7620239257812 1345.4423828125 C 693.2987670898438 1345.755004882812 693.889892578125 1345.872680664062 694.5052490234375 1345.872680664062 C 696.3717651367188 1345.872680664062 698.4637451171875 1344.791381835938 699.9527587890625 1344.791137695312 C 700.5458984375 1344.791137695312 701.0430297851562 1344.962524414062 701.3925170898438 1345.4423828125 C 702.9086303710938 1347.523681640625 702.2879028320312 1351.686767578125 698.8263549804688 1353.767822265625 C 697.6725463867188 1354.461547851562 696.0344848632812 1354.69287109375 694.3634643554688 1354.69287109375 C 691.0211791992188 1354.69287109375 687.5464477539062 1353.767822265625 687.5464477539062 1353.767822265625 C 687.5464477539062 1353.767822265625 687.4553833007812 1359.47216796875 685.2269897460938 1361.373779296875 C 684.1942138671875 1362.255126953125 683.0563354492188 1362.62255859375 681.9686279296875 1362.62255859375 C 680.7095947265625 1362.62255859375 679.5177612304688 1362.130493164062 678.6333618164062 1361.373779296875 C 676.9849243164062 1359.96337890625 678.6333618164062 1355.73291015625 678.6333618164062 1355.73291015625 L 674.1726684570312 1355.73291015625 L 663.6419067382812 1357.887939453125 L 660.8201293945312 1338.887939453125 L 654.4119262695312 1313.9072265625 L 674.1726684570312 1310.348388671875 Z" stroke="none" fill="#fff"/>
      </g>
      <path id="Path_1062" data-name="Path 1062" d="M842.652,1354.76l-40.77-23.361-13.29,7.862-13.564,15.5L762.657,1378.1l8.394,15.4v28.984l22.464,7.487v19.987l30.407,16.5Z" transform="translate(-452.063 -1464.916)" fill="#f5e7b8"/>
      <path id="Path_1051" data-name="Path 1051" d="M595.276,1391.106l-54.764-35.045,12.279-18.544,44.017,20.789-32.423,37.814-30.943,14.733-13.553-10.937" transform="translate(-725.848 -1458.017)" fill="none" stroke="#fff" stroke-linecap="round" stroke-linejoin="round" stroke-width="2"/>
      <path id="Path_1047" data-name="Path 1047" d="M605.048,1276.981l-.536,12.09.536,13.366,6.65,7.581h20.128l-22.135,2.333v10.059l-2.268-10.059-16.106,16.592-1.325,12.514" transform="translate(-646.787 -1526.285)" fill="none" stroke="#fff" stroke-linecap="round" stroke-linejoin="round" stroke-width="2"/>
      <path id="Path_1048" data-name="Path 1048" d="M581.7,1348.819l28.288-65.772-12.233,12.74,7.277,29.654-1.448-20.1L601.924,1294" transform="translate(-656.138 -1519.445)" fill="none" stroke="#fff" stroke-linecap="round" stroke-linejoin="round" stroke-width="2"/>
      <path id="Path_886" data-name="Path 886" stroke="#7e20ff" d="M3452.391-754.3l30.04-44.7-57.213-21.194s-25.96-17.942-30-33.285c-1.473-5.6,3.487-5.76,5.017-9.649,1.988-5.129,3.586-10.551,24.979-16.052,10.825-2.783,17.2-1.165,27.053-1.011,8.3.135,19.946-1.125,41.026-9.255,42.672-16.456,47.1-22.8,72.878-41.355s3.409-41.909,22.577-36.7,31.041,24.988,56.407,39.593,24.212,9.714,36.968,16.813,8.04,14.154,18.547,19.567,15.979-2.221,23.483,2.085,0,20.836,0,20.836" fill="none" transform="translate(-3543.329 1075.929)" stroke-linecap="round" stroke-linejoin="round" stroke-width="4" stroke-dasharray="8"/>
      <path id="Path_888" data-name="Path 888" stroke="#7e20ff" d="M3509.3-923.292s-34.082-.214-39.745-16.112-.788-37.856,12.251-48.889,21.828,4.646,33.689,0,13.757-18.585,13.757-18.585" fill="none" transform="translate(-3461.82 1032.354)" stroke-linecap="round" stroke-linejoin="round" stroke-width="4" stroke-dasharray="8"/>
      <path id="Path_1044" data-name="Path 1044" d="M629.022,1283.788l13.689,6.957,57.67-3.729,18.246,21.41-14.933,34.522" transform="translate(-602.772 -1518.61)" fill="none" stroke="#fff" stroke-linecap="round" stroke-linejoin="round" stroke-width="2"/>
      <path id="Path_1043" data-name="Path 1043" d="M610.867,1274.826l-21.351,17.452h41.932l20.006-4.523v11.662l3.515-11.662,18.542,4.523-13.022,7.139v8.01" transform="translate(-647.325 -1528.716)" fill="none" stroke="#fff" stroke-linecap="round" stroke-linejoin="round" stroke-width="2"/>
      <path id="Path_893" data-name="Path 893" d="M3714.246-909.473l5.527,4.62,27.388-10.122,11,7.815,3.906-14.616-23.31-7.833,23.31-20.55-28.819-26.489-13.473-33.051-76.926,14.679v13.167l-12,12.282-10.205-16.947,17.326-38.615-24.419-8.76,7.093-28.2-7.093-18.347-47.821,18.347-15.788-23.142-4.1-19.521-18.274-15.3-34.769,44.736-15.141-9.917L3463.22-1068.5l3.2,11.072h11.232l-7.154,18.341L3455.826-1045l-18.4-20.547-3.328,8.113-5.45,4.582,5.45,7.852-30.774,70.625,80.832,48.029,21.632-23.813-12.989-15.94,3.4-13.016,9.586-7.4L3571.06-953.1l6.037,48.249,53.752,18.088,43.642,5.937,3.745-5.937-26.775-6.084,16.918-16.624,22.958,16.624Z" transform="translate(-3533.891 904.724)" fill="#f5e7b8" stroke="#fff" stroke-linecap="round" stroke-linejoin="round" stroke-width="4"/>
      <path id="Path_912" data-name="Path 912" d="M3530.014-1028.871l-16.858-27.753-13.037-8.881-12.6,19.317,7.2,7.743v26.335l11.995,1.07,5.34,7.22Z" transform="translate(-3441.06 970.492)" fill="#dedede" stroke="#c8c29d" stroke-linecap="round" stroke-linejoin="round" stroke-width="2"/>
      <path id="Path_1056" data-name="Path 1056" d="M601.162,1358.117l8.066,7.934,14.49-1.381-14.49,3.232,1.378,8.657,10.743,6.488,18.455-9.138,14.158,9.138-1.646,21.508,17.041-14.124,6.191,37.472-16.765,3.435V1427.9l11.931-2.436-1.357-2.916-10.574,2.916,5.154-15.6-14.684,1.068v-18.981" transform="translate(-634.191 -1434.784)" fill="none" stroke="#fff" stroke-linecap="round" stroke-linejoin="round" stroke-width="2"/>
      <path id="Path_1099" data-name="Path 1099" d="M499.862,1508.151l9.3-24.749,30.15,19.4,34.729,10.216-15.977,8.6-28.347-8.6Z" transform="translate(-748.433 -1293.492)" fill="#f3e2ac" stroke="#c8c29d" stroke-linecap="round" stroke-linejoin="round" stroke-width="2"/>
      <g id="Path_1057" data-name="Path 1057" transform="translate(-637.097 -1417.322)" fill="none" stroke-linecap="round" stroke-linejoin="round">
        <path d="M608.982,1373.6l10.765,10.775-4.276,12-16.885-10.555,3.607-4.423Z" stroke="none"/>
        <path d="M 609.1835327148438 1379.46240234375 L 605.2509765625 1383.98046875 L 604.5515747070312 1384.838134765625 L 613.3719482421875 1390.351684570312 L 615.1304321289062 1385.415161132812 L 609.1835327148438 1379.46240234375 M 608.982177734375 1373.601196289062 L 619.7467041015625 1384.376342773438 L 615.470458984375 1396.380737304688 L 598.5849609375 1385.825561523438 L 602.191650390625 1381.402709960938 L 608.982177734375 1373.601196289062 Z" stroke="none" fill="#fff"/>
      </g>
      <path id="Path_1058" data-name="Path 1058" d="M614.795,1370.1l-7.779,28.69,20.346,9.645,17.078-11.087Z" transform="translate(-627.589 -1421.269)" fill="none" stroke="#fff" stroke-linecap="round" stroke-linejoin="round" stroke-width="2"/>
      <path id="Path_1059" data-name="Path 1059" d="M632.916,1387.045l-17.8-19.107" transform="translate(-618.452 -1423.709)" fill="none" stroke="#fff" stroke-linecap="round" stroke-linejoin="round" stroke-width="2"/>
      <path id="Path_1060" data-name="Path 1060" d="M596.169,1382.5l29.061,15.785,4.741-7.366,9.31,3.691,3.325,10.595,23.46-1.225-2.737-3.682-20.723,1.993v-4.006h20.723" transform="translate(-639.822 -1407.291)" fill="none" stroke="#fff" stroke-linecap="round" stroke-linejoin="round" stroke-width="2"/>
      <path id="Path_1174" data-name="Path 1174" d="M749.5,1736.075l-54.825-60.258,3.377,27.661,16.242,34.43,12.16,10.5Z" transform="translate(-528.73 -1076.495)" fill="#79d7f5" stroke="#c8c29d" stroke-width="2"/>
      <path id="Path_1105" data-name="Path 1105" d="M577.355,1475.036l-2.094,5.668H555.315l-22.336,18.619-23.506-12.693-6.062,2.3,33.631,22.438,25.7,8.945,3.951-16.681,20.449-24.2Z" transform="translate(-744.431 -1302.927)" fill="#d1e0a8"/>
      <path id="Path_1061" data-name="Path 1061" d="M805.031,1330.545l-21.632,18.6-19.359,28.667,10.005,15.438v30.564H761.9l-3.016,22.719H779.9l22.676,6.017,26.481,17.115" transform="translate(-456.313 -1465.879)" fill="none" stroke="#fff" stroke-linecap="round" stroke-linejoin="round" stroke-width="4"/>
      <path id="Path_1095" data-name="Path 1095" d="M494.4,1447.791l19.674-18.446,9.677,7.5h18.957l22.3-9.949,27.26-29.223,19.323-1.744,20.548,13.059,7.813,17.907-7.813,25.889,3.628,19.385-10.1,11.2-20.871,2.724-3.849-7.556,6.3-2.935,13.095-13.56v-17.619l-8.758-7.576,8.758-17.059-3.433-4.237H592.268v13.8l-15.874-2.45-13.015,8.113-20.674,6.3-2.811,16.995H529.2l-8.481-16.995-11.788,3.109L494.4,1455.678l6.062,6.362,23.289,2.474,10.767,16.112,28.864,11.134,7.462,4.325h15.411v10.529h-8.047l-9-5.409H539.894l-8.323,1.658-7.822,8.681v10.97l14.531,1.8,14.131,10.428-16.27-3.63-4.569,3.63,20.839,19.351v21.334l-8.876,10.31-19.785-8.035-26.89-34.257,1.742-8.7,16.79-7.64-1.318-6.21-2.283-10.669v-6.064l-14.931-18.07V1475.6l-10.22-3.43-4.029,19.59,11.788,23.318,12.538,16.036-10.077,21.4,12.072,34.759-33.794-30.265-9.447-2.912,12.41-8.681,8.54-16.759L471.7,1506.614l-2.015-20.523Z" transform="translate(-786.972 -1392.141)" fill="#d1e0a8"/>
      <path id="Path_911" data-name="Path 911" d="M3536.406-1047.51l-46.51-12.608-18.4-1.658-11.394,3.389-9.9,9.511-7.005,16.544,11.981,16.49" transform="translate(-3491.144 970.442)" fill="none" stroke="#c8c29d" stroke-linecap="round" stroke-width="2"/>
      <path id="Path_1029" data-name="Path 1029" d="M601.174,1307.089l11.009-37.036,48.244-19.846L640.835,1244s-23.255,24.121-23.881,23.915" transform="translate(-634.178 -1563.486)" fill="none" stroke="#fff" stroke-linecap="round" stroke-linejoin="round" stroke-width="2"/>
      <path id="Path_898" data-name="Path 898" d="M3459.65-990.745l10.267-16.3,9.948-61.133-17.642-4.882-2.573,7.637-22.7-9.409-27.931,54.246" transform="translate(-3527.466 955.72)" fill="none" stroke="#c8c29d" stroke-width="2"/>
      <path id="Path_894" data-name="Path 894" d="M3414.725-1078.44l38.613,16.13s-9.027,22.263-13,45.4-2.882,47.145-2.882,47.145" transform="translate(-3521.028 951.649)" fill="none" stroke="#fff" stroke-linecap="round" stroke-linejoin="round" stroke-width="4"/>
      <path id="Path_895" data-name="Path 895" d="M3487.148-1035.262l-76.647-33.283" transform="translate(-3525.793 962.808)" fill="none" stroke="#fff" stroke-linecap="round" stroke-width="4"/>
      <path id="Path_896" data-name="Path 896" d="M3492.078-1029.856l-18.471,2.519-67.479-31.618" transform="translate(-3530.723 973.623)" fill="none" stroke="#fff" stroke-linecap="round" stroke-width="2"/>
      <path id="Path_1033" data-name="Path 1033" d="M663.834,1276.452l25.318,3.708,37.941,27.233,8.936,5.66,17.921-5.66" transform="translate(-563.513 -1526.883)" fill="none" stroke="#fff" stroke-linecap="round" stroke-linejoin="round" stroke-width="2"/>
      <path id="Path_1034" data-name="Path 1034" d="M718.476,1289.674l.4,16.532,16.807,21,9.714,33.482h-12.36l-23.005,22.094v7.854l-44.911,9.479" transform="translate(-562.06 -1511.971)" fill="none" stroke="#fff" stroke-linecap="round" stroke-linejoin="round" stroke-width="2"/>
      <path id="Path_1054" data-name="Path 1054" d="M561.476,1366.329l-3.974,17.983-37.189-4.958" transform="translate(-725.37 -1425.523)" fill="none" stroke="#fff" stroke-linecap="round" stroke-linejoin="round" stroke-width="2"/>
      <path id="Path_897" data-name="Path 897" d="M3495.165-1118.552s-24.776,23.959-40.1,49.377S3432.925-1017,3432.925-1017" transform="translate(-3500.503 906.413)" fill="none" stroke="#fff" stroke-linecap="round" stroke-width="4"/>
      <path id="Path_899" data-name="Path 899" d="M3442.313-1025.486H3465.5l41.917-59.6-18.955-14.1-8.8-11.845" transform="translate(-3489.915 914.895)" fill="none" stroke="#c8c29d" stroke-linecap="round" stroke-linejoin="round" stroke-width="2"/>
      <path id="Path_1063" data-name="Path 1063" d="M826.34,1336.416l-28.1,19.352-8.6,22.023v64.122l-2.469-18.173-22.11-6.616" transform="translate(-449.352 -1459.257)" fill="none" stroke="#fff" stroke-linecap="round" stroke-linejoin="round" stroke-width="2"/>
      <path id="Path_1064" data-name="Path 1064" d="M819.133,1375.984l-17.639,4.922H776.057" transform="translate(-436.951 -1414.635)" fill="none" stroke="#fff" stroke-linecap="round" stroke-linejoin="round" stroke-width="2"/>
      <path id="Path_1065" data-name="Path 1065" d="M786.18,1342.378l4.228,33.319-4.228,26.359,8.658,14.948" transform="translate(-425.535 -1452.534)" fill="none" stroke="#fff" stroke-linecap="round" stroke-linejoin="round" stroke-width="2"/>
      <path id="Path_1066" data-name="Path 1066" d="M830.135,1389l-45.4-8.533-14.523-14.819,25.237-33.291" transform="translate(-443.542 -1463.837)" fill="none" stroke="#fff" stroke-linecap="round" stroke-linejoin="round" stroke-width="2"/>
      <path id="Path_1067" data-name="Path 1067" d="M782.584,1352.3,766.99,1379" transform="translate(-447.177 -1441.346)" fill="none" stroke="#fff" stroke-linecap="round" stroke-linejoin="round" stroke-width="2"/>
      <path id="Path_900" data-name="Path 900" d="M3460.094-1054.225l-18.474-12.262" transform="translate(-3490.697 965.129)" fill="none" stroke="#c8c29d" stroke-linecap="round" stroke-width="2"/>
      <path id="Path_901" data-name="Path 901" d="M3464.031-1041.111l-10.9-29.581" transform="translate(-3477.719 960.387)" fill="none" stroke="#c8c29d" stroke-linecap="round" stroke-width="2"/>
      <path id="Path_902" data-name="Path 902" d="M3473.9-1063.165l-16.265-13.533Z" transform="translate(-3472.633 953.614)" fill="none" stroke="#c8c29d" stroke-linecap="round" stroke-width="2"/>
      <path id="Path_1107" data-name="Path 1107" d="M597.694,1569.031l5.593-11.4h11.086l21,22.948,1.3,13.2-18.094-15.189Z" transform="translate(-640.23 -1209.781)" fill="#f5e7b8" stroke="#c8c29d" stroke-width="2"/>
      <path id="Path_903" data-name="Path 903" d="M3464.847-1025.543v-18.642l29.456-37.176,24.081-11.737h25.941" transform="translate(-3464.502 935.119)" fill="none" stroke="#c8c29d" stroke-linecap="round" stroke-linejoin="round" stroke-width="2"/>
      <path id="Path_904" data-name="Path 904" d="M3550.908-1042.86l-21.42-17.383L3499.97-1074.1l-48.594-29.08" transform="translate(-3479.694 923.749)" fill="none" stroke="#c8c29d" stroke-width="2"/>
      <path id="Path_905" data-name="Path 905" d="M3497.776-1099.955v21.778l-6.059,18.563" transform="translate(-3434.199 927.385)" fill="none" stroke="#c8c29d" stroke-width="2"/>
      <path id="Path_907" data-name="Path 907" d="M3516.756-1089.134l-10.6,29.782-13.635,26.034" transform="translate(-3433.291 939.589)" fill="none" stroke="#c8c29d" stroke-width="2"/>
      <path id="Path_908" data-name="Path 908" d="M3486.965-1070.826l-9.544,15.458v13.141" transform="translate(-3450.323 960.236)" fill="none" stroke="#c8c29d" stroke-linecap="round" stroke-linejoin="round" stroke-width="2"/>
      <path id="Path_906" data-name="Path 906" d="M3554.073-1018.682l-117.647-85.012" transform="translate(-3496.554 923.168)" fill="none" stroke="#fff" stroke-linecap="round" stroke-linejoin="round" stroke-width="4"/>
      <path id="Path_909" data-name="Path 909" d="M3487.331-1043.15l10.933-21.458Z" transform="translate(-3439.146 967.249)" fill="none" stroke="#fff" stroke-linecap="round" stroke-linejoin="round" stroke-width="4"/>
      <path id="Path_1035" data-name="Path 1035" d="M697.712,1308.907l44.372-5.135,19.034,13.435,17.451,26.666,26.3-21.716,27.817,14.469-1.441,23.817,5.629,37.812-11.383-13.11H798.192l-14,8.39-5.622,19.121,3.652,25.612-8.358,28.159" transform="translate(-525.306 -1496.073)" fill="none" stroke="#fff" stroke-linecap="round" stroke-linejoin="round" stroke-width="2"/>
      <path id="Path_910" data-name="Path 910" d="M3501.407-1029.98v-13.751l-43.045-12.881" transform="translate(-3471.815 976.266)" fill="none" stroke="#c8c29d" stroke-width="2"/>
      <path id="Path_913" data-name="Path 913" d="M3493.218-1001.073l2.385-19.106,8.359-15.011" transform="translate(-3432.507 1000.425)" fill="none" stroke="#c8c29d" stroke-linecap="round" stroke-width="2"/>
      <path id="Path_914" data-name="Path 914" d="M3525.248-998.376v-14.851l-30.4-14.044" transform="translate(-3430.674 1009.355)" fill="none" stroke="#c8c29d" stroke-linecap="round" stroke-width="2"/>
      <path id="Path_1037" data-name="Path 1037" d="M698.151,1307.181l19.294,26.279,3.284,10.466,12.046,14.838,12.366,11.948-15.955,27.152-11.741-2.978" transform="translate(-524.811 -1492.229)" fill="none" stroke="#fff" stroke-linecap="round" stroke-linejoin="round" stroke-width="2"/>
      <path id="Path_915" data-name="Path 915" d="M3515.946-960.053v-10.934l44.82-70.381,23.584-17.058,9.508,17.058,16.78,10.572" transform="translate(-3406.875 974.22)" fill="none" stroke="#c8c29d" stroke-linecap="round" stroke-width="2"/>
      <path id="Path_916" data-name="Path 916" d="M3580.093-1051.93l-1.723-12.535-58.687,11.278,2.182,13.078h24.816v-6.079l26.55-15.4" transform="translate(-3402.661 967.41)" fill="none" stroke="#c8c29d" stroke-linecap="round" stroke-width="2"/>
      <path id="Path_917" data-name="Path 917" d="M3522.038-1036.334v-16.678" transform="translate(-3400.005 980.326)" fill="none" stroke="#c8c29d" stroke-linecap="round" stroke-width="2"/>
      <path id="Path_918" data-name="Path 918" d="M3509.132-994.661l19.827-29.008v-21.551h8.047" transform="translate(-3414.558 989.114)" fill="none" stroke="#c8c29d" stroke-linecap="round" stroke-width="2"/>
      <path id="Path_1104" data-name="Path 1104" d="M566.706,1432.526l18.132,2.528,9.326,11.818-5.325,16.37-17.97-5.768-5.959,5.768-13.524,19.177v7.076H539.215l-10.362-9.843-1.566-10.521,8.079-8.41,27.78-10.369v-11.727Z" transform="translate(-717.505 -1350.868)" fill="#d1e0a8"/>
      <path id="Path_919" data-name="Path 919" d="M3585.407-1003.574l-16.467-9.789-24.644,3.2-45.987-24.279" transform="translate(-3426.765 1001.266)" fill="none" stroke="#c8c29d" stroke-linecap="round" stroke-width="2"/>
      <path id="Path_920" data-name="Path 920" d="M3556.332-1014.683l3.755-15.224-7.125-16.537" transform="translate(-3365.13 987.733)" fill="none" stroke="#c8c29d" stroke-linecap="round" stroke-width="2"/>
      <path id="Path_887" data-name="Path 887" stroke="#7e20ff" d="M3824.862-989.851s-44.723,23.423-96.763,27.222-111.752-14.6-111.752-14.6-60.047-21.255-106.414-31.86c-29-6.633-49.892-3.033-74.362-9.113-62.424-15.51-68.921-21.066-68.921-21.066" fill="none" transform="translate(-3575.246 995.827)" stroke-linecap="round" stroke-linejoin="round" stroke-width="4" stroke-dasharray="8"/>
      <path id="Path_921" data-name="Path 921" d="M3540.061-1006.229l30.309-25.083" transform="translate(-3379.679 1004.798)" fill="none" stroke="#c6bba0" stroke-linecap="round" stroke-width="2"/>
      <path id="Path_922" data-name="Path 922" d="M870.205,1232.625a83,83,0,0,1-46.92-15.289c-22.761-16.243-29.586-41.76-44.122-49.685-20.839-11.361-66.527-20.929-66.527-20.929l5.284,20.929" transform="translate(-508.475 -1673.187)" fill="none" stroke="#fff" stroke-width="2"/>
      <path id="Path_889" data-name="Path 889" stroke="#7e20ff" d="M3705.14-966.662s-30.22-37.6-51.5-61.836-12.477-35.414-25.691-38.991-109.082,13.5-131.546,25.461-9.153,94.424-9.153,94.424" fill="none" transform="translate(-3443.651 963.453)" stroke-linecap="round" stroke-linejoin="round" stroke-width="4" stroke-dasharray="8"/>
      <path id="Path_1103" data-name="Path 1103" d="M576.433,1451.18l-19.548-6.046-9.16,12.947-8.078,9.029,5.9,12.649,18.712-6.186Z" transform="translate(-703.565 -1336.65)" fill="#fff" stroke="#fff" stroke-linecap="round" stroke-linejoin="round" stroke-width="2"/>
      <path id="Path_1026" data-name="Path 1026" d="M603.377,1239.146l54.5,16.5,31.176,6.773,51.446,17.317,3.069-22.238,9.01,18.849h16.985l14.625,9.934" transform="translate(-631.694 -1568.955)" fill="none" stroke="#fff" stroke-linecap="round" stroke-linejoin="round" stroke-width="2"/>
      <path id="Path_1024" data-name="Path 1024" d="M696.966,1189.258l.521-25.644" transform="translate(-526.147 -1654.138)" fill="none" stroke="#fff" stroke-linecap="round" stroke-width="2"/>
      <path id="Path_1015" data-name="Path 1015" d="M816.887,1319.967l-5.257-21.212-20.248-38.595-9.874-17.317-19.161-15.625L741.1,1233.28l-21.716-6.062H696.966l13.363-24.706,23.978-20,17.818-30.657,13.682-3.929v-14.243" transform="translate(-526.147 -1687.899)" fill="none" stroke="#fff" stroke-linecap="round" stroke-linejoin="round" stroke-width="2"/>
      <path id="Path_1016" data-name="Path 1016" d="M751.641,1244.013l5.273-16.176-5.273-17.536,14.782-30.116,7.8,5.368L751.641,1132.4l-10.476,26.928-17.919,8.549" transform="translate(-496.509 -1689.342)" fill="none" stroke="#fff" stroke-linecap="round" stroke-linejoin="round" stroke-width="2"/>
      <path id="Path_1017" data-name="Path 1017" d="M740.324,1227.13l43.964-30.262,6.517-3.366,15.591-8.054-18.6-26.256v37.676" transform="translate(-477.249 -1659.124)" fill="none" stroke="#fff" stroke-linecap="round" stroke-linejoin="round" stroke-width="2"/>
      <path id="Path_1018" data-name="Path 1018" d="M620.477,1226.163l97.835-32.72,39.6-18.657,9.291,9.142,15.866-3.387-12.028,29.07,61.515,95.027" transform="translate(-612.408 -1641.538)" fill="none" stroke="#fff" stroke-linecap="round" stroke-linejoin="round" stroke-width="2"/>
      <path id="Path_1019" data-name="Path 1019" d="M773.442,1292.562l-34.761,4.347-17.374-10.793,7.326-6.1h-16.81l-13.242-21.253L679.727,1246.8l-6.835-37.4,38.931-18.414" transform="translate(-553.296 -1623.265)" fill="none" stroke="#fff" stroke-linecap="round" stroke-linejoin="round" stroke-width="2"/>
      <path id="Path_1020" data-name="Path 1020" d="M643.1,1177.453l-2.265,30.724,7.5,13.283-5.236,21.288v16.969l12.752,15.514,10.97,5.1" transform="translate(-589.449 -1638.53)" fill="none" stroke="#fff" stroke-linecap="round" stroke-linejoin="round" stroke-width="2"/>
      <path id="Path_1096" data-name="Path 1096" d="M513.736,1449.262l-9.542-17.778-8.773,1.9-15.232,12.955,3.075,5.808L508.011,1455l10.031,15.134,22.933,9.075,12.758,5.2,15.191,2.706v9.1h-8.743l-9.575-4.414H516.244l-8.233,12.4v9.209h15.45l14.339,10.539-17.5-3.03-4.06,3.03,21.556,23.67v17.495l20.771,14.263,22.138-19.32h21.682l4.877-14.109-2.839-25.029H592.9l-12.195-11.538v-10.96l7.268-6.618,28.6-9.557v-15.567L592.9,1477.356l-9.029-7.221,20.554-17.989v-18.762l-8.867-6.7,8.867-17.255-2.038-4.5-25.271,1.616v13.143l-15.086-2.378-33.6,14.177-4.977,17.778Z" transform="translate(-770.62 -1381.994)" fill="#f3e2ac" stroke="#c8c29d" stroke-linecap="round" stroke-linejoin="round" stroke-width="2"/>
      <path id="Path_1021" data-name="Path 1021" d="M704.248,1221.3l-17.432,2.847-32.35-25.173,6.909-15.856-13.447-3.059-2.838,6.36,12.3,5.231" transform="translate(-584.652 -1635.59)" fill="none" stroke="#fff" stroke-linecap="round" stroke-linejoin="round" stroke-width="2"/>
      <path id="Path_1022" data-name="Path 1022" d="M658.179,1194.049l-17.075-8.58" transform="translate(-589.146 -1629.49)" fill="none" stroke="#fff" stroke-linecap="round" stroke-linejoin="round" stroke-width="2"/>
      <path id="Path_1023" data-name="Path 1023" d="M683.1,1183.928l-3.617,15.014v12.051" transform="translate(-545.865 -1631.228)" fill="none" stroke="#fff" stroke-linecap="round" stroke-linejoin="round" stroke-width="2"/>
      <path id="Path_1077" data-name="Path 1077" d="M641.879,1466.216l37.8-42.562,163.19,46.363h30.591l-24.971,1.135,1.762,28.249,20.6,13.4-2.24-11.963v-17.407s4.519-12,4.846-13.412" transform="translate(-588.272 -1360.875)" fill="none" stroke="#fff" stroke-linecap="round" stroke-linejoin="round" stroke-width="2"/>
      <path id="Path_1078" data-name="Path 1078" d="M743.748,1448.522l.125,19.632" transform="translate(-473.389 -1332.829)" fill="none" stroke="#fff" stroke-linecap="round" stroke-linejoin="round" stroke-width="2"/>
      <path id="Path_1079" data-name="Path 1079" d="M810.036,1518.668l-15.578-34.92-19.417-14.092-25.516-4.569" transform="translate(-466.874 -1314.147)" fill="none" stroke="#fff" stroke-linecap="round" stroke-linejoin="round" stroke-width="2"/>
      <path id="Path_1080" data-name="Path 1080" d="M780.544,1494.983l9.042-2.905-2.982-7.556h-10.93" transform="translate(-437.383 -1292.229)" fill="none" stroke="#fff" stroke-linecap="round" stroke-linejoin="round" stroke-width="2"/>
      <path id="Path_1025" data-name="Path 1025" d="M771.965,1194.595l-6.072-9.61H736.8" transform="translate(-481.225 -1630.036)" fill="none" stroke="#fff" stroke-linecap="round" stroke-linejoin="round" stroke-width="2"/>
      <path id="Path_1027" data-name="Path 1027" d="M619.544,1274.423l10.361-11.452,18.655,2.367-16.073-26.511-2.583-22.293" transform="translate(-613.461 -1594.456)" fill="none" stroke="#fff" stroke-linecap="round" stroke-linejoin="round" stroke-width="2"/>
      <path id="Path_1028" data-name="Path 1028" d="M668.115,1258.1l-12.155,3.3v-9.187L632.293,1239.2" transform="translate(-599.082 -1568.895)" fill="none" stroke="#fff" stroke-linecap="round" stroke-linejoin="round" stroke-width="2"/>
      <path id="Path_1030" data-name="Path 1030" d="M603.377,1279.7,655,1255.691" transform="translate(-631.694 -1550.297)" fill="none" stroke="#fff" stroke-linecap="round" stroke-linejoin="round" stroke-width="2"/>
      <path id="Path_1031" data-name="Path 1031" d="M638.8,1253.608l53.263,38.706-2.356,28.081" transform="translate(-591.743 -1552.646)" fill="none" stroke="#fff" stroke-linecap="round" stroke-linejoin="round" stroke-width="2"/>
      <path id="Path_1032" data-name="Path 1032" d="M669.849,1258.821l-3.591,27.624" transform="translate(-560.779 -1551.021)" fill="none" stroke="#fff" stroke-linecap="round" stroke-linejoin="round" stroke-width="2"/>
      <path id="Path_1036" data-name="Path 1036" d="M735.639,1322.181l4.335,16.29,7.338,16.416,10.759,10.269" transform="translate(-482.533 -1475.311)" fill="none" stroke="#fff" stroke-linecap="round" stroke-linejoin="round" stroke-width="2"/>
      <path id="Path_1038" data-name="Path 1038" d="M712.448,1400.925l7.036,18.991,11.81,5.666v10.128l2.633-11.552,9.882-4.242h4.52v-31.842l4.218-10.063v-19.767l-18.62-21.939-7.463-14.127v-17.712" transform="translate(-508.686 -1495.29)" fill="none" stroke="#fff" stroke-linecap="round" stroke-linejoin="round" stroke-width="2"/>
      <path id="Path_1039" data-name="Path 1039" d="M709.576,1305.308l17.194,9.977,7.254,24.071L703.4,1342.8" transform="translate(-518.886 -1494.34)" fill="none" stroke="#fff" stroke-linecap="round" stroke-linejoin="round" stroke-width="2"/>
      <path id="Path_1040" data-name="Path 1040" d="M745.358,1311.8l-2.687,30.725-6.876,8.052-3.625,9.39-18.253-7.934" transform="translate(-507.031 -1487.016)" fill="none" stroke="#fff" stroke-linecap="round" stroke-linejoin="round" stroke-width="2"/>
      <path id="Path_1041" data-name="Path 1041" d="M761.6,1340.232l-10.906,6.65h-16.11l-12.02-12.4" transform="translate(-497.279 -1461.435)" fill="none" stroke="#fff" stroke-linecap="round" stroke-linejoin="round" stroke-width="2"/>
      <path id="Union_2" data-name="Union 2" d="M0,174.536l2.291-13.871L21.4,137.477l24.148,6.592L49.4,140l-26.173-8.74L21.4,101.682,40.257,96.33,51.27,74.711l8.085,3.122-8.078-3.715L56.659,55.16,47.392,43.248l-16.72-2.072-3-23.953L33.212,0,53.73,6.249v8.592L75.084,10.56l5.489,11.888,14.213-1.567,10.661,5.307h12.716L128.706,30.5l-4.5,15.113,13.73,14.774-4.617,13.729,4.617,10.914L109.311,92.4,87.766,79.855l-26.7-1.361,6.948,2.682V92.944l29.356,8.738,4.826,16.172,13.88-6.888L128,125.39,111,137.477l-7.143-3.839L77.034,157.885l-22.507-7.6-22.306,5.349L18.89,150.284l4.332,25.054Z" transform="translate(-180.069 40.125)" fill="#f3e2ac" stroke="#c8c29d" stroke-linecap="round" stroke-linejoin="round" stroke-width="2"/>
      <path id="Path_1049" data-name="Path 1049" d="M588.1,1352.424l-3.667-26.7-6.038-7.182,9.705-14.04" transform="translate(-659.867 -1495.245)" fill="none" stroke="#fff" stroke-linecap="round" stroke-linejoin="round" stroke-width="2"/>
      <path id="Path_1050" data-name="Path 1050" d="M591.62,1322.028l-7.035-5.47-11.678-1.542" transform="translate(-666.056 -1483.393)" fill="none" stroke="#fff" stroke-linecap="round" stroke-linejoin="round" stroke-width="2"/>
      <path id="Path_1052" data-name="Path 1052" d="M554,1365.792l-18.746-8.145" transform="translate(-708.52 -1435.315)" fill="none" stroke="#fff" stroke-linecap="round" stroke-linejoin="round" stroke-width="2"/>
      <path id="Path_1053" data-name="Path 1053" d="M540.682,1365.317l16.771,12.557" transform="translate(-702.398 -1426.664)" fill="none" stroke="#fff" stroke-linecap="round" stroke-linejoin="round" stroke-width="2"/>
      <path id="Path_1086" data-name="Path 1086" d="M773.674,1392.841l11.955,12.8-3.365,1.31-10.631-11.531-2.738,3.053,10.742,11.542" transform="translate(-445.028 -1395.623)" fill="none" stroke="#fff" stroke-linecap="round" stroke-linejoin="round" stroke-width="2"/>
      <path id="Path_1087" data-name="Path 1087" d="M770.907,1433.9l23.688,6.838-6.1,11.275H779l-6.946-7.651Z" transform="translate(-442.759 -1349.321)" fill="#fff"/>
      <path id="Path_1055" data-name="Path 1055" d="M565.685,1366.329l-8.809,16.64" transform="translate(-684.135 -1425.523)" fill="none" stroke="#fff" stroke-linecap="round" stroke-linejoin="round" stroke-width="2"/>
      <path id="Path_1071" data-name="Path 1071" d="M654.412,1429.821l50.29,15.936L760.159,1463l6.878-17.245,11.007,3.654-8.952,25.155-13.014,36.57,16.665-36.57,22.909,9.137-17.609,59.556-21.965-7.965" transform="translate(-574.138 -1353.92)" fill="none" stroke="#c8c29d" stroke-linecap="round" stroke-linejoin="round" stroke-width="2"/>
      <path id="Path_1072" data-name="Path 1072" d="M729.42,1442.509l-4.165,17.95,28.915,7.259" transform="translate(-494.243 -1339.61)" fill="none" stroke="#c8c29d" stroke-linecap="round" stroke-linejoin="round" stroke-width="2"/>
      <path id="Path_1073" data-name="Path 1073" d="M780.12,1442.509l-7.917,11.045,24.353,26.521H768.947l-6.186,14.258" transform="translate(-451.946 -1339.61)" fill="none" stroke="#c8c29d" stroke-linecap="round" stroke-linejoin="round" stroke-width="2"/>
      <path id="Path_1074" data-name="Path 1074" d="M797.6,1514.56l-4.5-12.043h-5.33l-11.723-30.774,4.358-11.315" transform="translate(-436.957 -1319.402)" fill="none" stroke="#c8c29d" stroke-linecap="round" stroke-linejoin="round" stroke-width="2"/>
      <path id="Path_1075" data-name="Path 1075" d="M795.321,1462.651,791.928,1479l15.39,33.915" transform="translate(-419.052 -1316.895)" fill="none" stroke="#c8c29d" stroke-linecap="round" stroke-linejoin="round" stroke-width="2"/>
      <path id="Path_1076" data-name="Path 1076" d="M777.409,1463.309l16.111,4.985,10.641,28.288-12.435,3.016,12.435-3.016,6.038,15.843" transform="translate(-435.427 -1316.152)" fill="none" stroke="#c8c29d" stroke-linecap="round" stroke-linejoin="round" stroke-width="2"/>
      <path id="Path_1082" data-name="Path 1082" d="M741.621,1474.655l-.926-44.833,9.72-10.636H763.2l-2.522,15.544-19.062-2.991,17.58,1.508,2.322-13.006H750.415l-8.795,10.272,16.71,1.226,1.646-10.533h-9.561l-6.527,8.617h13.735l.706-7.537h-7.915l-3.442,6.329h9.567v-5.036h-5.5l-1.659,3.7h6.153v-2.6h-3.487v1.492h2.26" transform="translate(-476.831 -1365.914)" fill="none" stroke="#fff" stroke-linecap="round" stroke-linejoin="round" stroke-width="2"/>
      <path id="Path_1083" data-name="Path 1083" d="M878.648,1448.11l-91.077-24.427" transform="translate(-423.966 -1360.841)" fill="none" stroke="#000" stroke-linecap="round" stroke-linejoin="round" stroke-width="2"/>
      <path id="Path_1090" data-name="Path 1090" d="M489.889,1448.009l7.11,7.269,21.321-1.356,16.264-5.914,30.43-32.05,21.258-2.3v-34.063" transform="translate(-759.681 -1410.564)" fill="none" stroke="#fff" stroke-linecap="round" stroke-linejoin="round" stroke-width="2"/>
      <path id="Path_1091" data-name="Path 1091" d="M562.426,1500.144,553.8,1451.8l8.773-22.943-8.773-20.524-19.052-12.766" transform="translate(-709.086 -1392.548)" fill="none" stroke="#fff" stroke-linecap="round" stroke-linejoin="round" stroke-width="2"/>
      <path id="Path_1092" data-name="Path 1092" d="M543.443,1392.9l9.619,17.293,20.307,1.343,102.605,32.414,5.375-5.279,13.856,4.834-4.3,6.982,17.2-6.4,20.4-12.963-18.96-5.235-47.039-6.472-30.7-11.856-56.389-12.971-14.236-7.733Z" transform="translate(-699.284 -1402.37)" fill="#eaeaea" stroke="#d1d1d1" stroke-linecap="round" stroke-linejoin="round" stroke-width="2"/>
      <path id="Path_1093" data-name="Path 1093" d="M551.059,1399.992l-4.472,8.6,5.033,3.654,3.776-1.526,9.389,16.965,31.674,2.8,28.592,16.767,45.022,2.861,8.825,5.465,7.377-5.465H698.22l2.346-8.013L573.461,1401.63Z" transform="translate(-695.738 -1387.559)" fill="#bcbcbc" stroke="#bcbcbc" stroke-linecap="round" stroke-linejoin="round" stroke-width="2"/>
      <path id="Path_1094" data-name="Path 1094" d="M535.1,1387.133l19.293,5.941v12.743l9.8,9.7,17.74-1.908L697.6,1450.335l1.744-2.129-13.577-3.966,2.482-1.8,12.979,4.05v-2.252l-9.831-3.019" transform="translate(-708.69 -1402.062)" fill="none" stroke="#fff" stroke-linecap="round" stroke-linejoin="round" stroke-width="2"/>
      <path id="Path_1097" data-name="Path 1097" d="M485.2,1432.535l16.95,30.193v13.783l3.8,8.384-3.8,10.229-20.176-23.878-8.218-16.833,2.211-17.769Z" transform="translate(-777.878 -1350.859)" fill="#f3e2ac" stroke="#c8c29d" stroke-linecap="round" stroke-linejoin="round" stroke-width="2"/>
      <path id="Path_1098" data-name="Path 1098" d="M480.189,1477.083l9.377-13.027,16.145,29.728-6.466,11.258Z" transform="translate(-770.62 -1315.311)" fill="#f3e2ac" stroke="#c8c29d" stroke-linecap="round" stroke-linejoin="round" stroke-width="2"/>
      <g id="Ellipse_42" data-name="Ellipse 42" transform="translate(-154.656 106.071)" fill="#fff" stroke="#c8c29d" stroke-linejoin="round" stroke-width="2">
        <circle cx="8.511" cy="8.511" r="8.511" stroke="none"/>
        <circle cx="8.511" cy="8.511" r="7.511" fill="none"/>
      </g>
      <path id="Path_1110" data-name="Path 1110" d="M551.707,1515.018l49.987,23.567,21.215,7.206,144.175,1.652v-12.1l-9.381-15.323h-11.99l7.946-16.188,7.031-22.94-28.142-8.583-4.3,13.921,1.775,10.422,2.527,27.093,2.513,22.042" transform="translate(-689.964 -1305.999)" fill="none" stroke="#c8c29d" stroke-width="2"/>
      <path id="Path_1111" data-name="Path 1111" d="M566.141,1487.566l-.8,55.612" transform="translate(-674.593 -1288.797)" fill="none" stroke="#c8c29d" stroke-linecap="round" stroke-linejoin="round" stroke-width="2"/>
      <path id="Path_1112" data-name="Path 1112" d="M554.188,1498.329l48.638-.944,19.425.944,15.263,15.852,1.786,56.66" transform="translate(-687.167 -1277.723)" fill="none" stroke="#c8c29d" stroke-linecap="round" stroke-linejoin="round" stroke-width="2"/>
      <path id="Path_1113" data-name="Path 1113" d="M576.262,1486.75l2.688,67" transform="translate(-662.272 -1289.716)" fill="none" stroke="#c8c29d" stroke-linecap="round" stroke-linejoin="round" stroke-width="2"/>
      <path id="Path_1114" data-name="Path 1114" d="M576.262,1489.967l26.959,1.547,21.533,12.831,13.481,21.67" transform="translate(-662.272 -1286.088)" fill="none" stroke="#c8c29d" stroke-linecap="round" stroke-linejoin="round" stroke-width="2"/>
      <path id="Path_1115" data-name="Path 1115" d="M586.925,1506.146l6.546-14.544" transform="translate(-650.248 -1284.244)" fill="none" stroke="#c8c29d" stroke-linecap="round" stroke-linejoin="round" stroke-width="2"/>
      <path id="Path_1116" data-name="Path 1116" d="M561.126,1552.668l33.377,3.541,23.177,3.218,24.029,11.269,62.7-3.135-8.112-85.848,6.33-12.243" transform="translate(-679.342 -1309.205)" fill="none" stroke="#c8c29d" stroke-linecap="round" stroke-linejoin="round" stroke-width="2"/>
      <path id="Path_1117" data-name="Path 1117" d="M584.776,1511.984l-.469,22.424" transform="translate(-653.2 -1261.259)" fill="none" stroke="#c8c29d" stroke-linecap="round" stroke-linejoin="round" stroke-width="2"/>
      <path id="Path_1136" data-name="Path 1136" d="M648.979,1514.448l-.98,24.434" transform="translate(-581.37 -1258.48)" fill="none" stroke="#c8c29c" stroke-linecap="round" stroke-linejoin="round" stroke-width="2"/>
      <path id="Path_1120" data-name="Path 1120" d="M616.242,1487.462l42.122-1.56,40.36,12.756L703.3,1485.9l-17.99-6.605" transform="translate(-615.056 -1295.995)" fill="none" stroke="#c8c29d" stroke-linecap="round" stroke-linejoin="round" stroke-width="2"/>
      <path id="Path_1121" data-name="Path 1121" d="M660.281,1475.395l-1.279,17.3" transform="translate(-571.09 -1300.395)" fill="none" stroke="#c8c29d" stroke-linecap="round" stroke-linejoin="round" stroke-width="2"/>
      <path id="Path_1122" data-name="Path 1122" d="M624.21,1591.2l-6.46-93.767" transform="translate(-615.484 -1277.667)" fill="none" stroke="#c8c29d" stroke-linecap="round" stroke-linejoin="round" stroke-width="2"/>
      <path id="Path_1123" data-name="Path 1123" d="M597.692,1572.871l15.081-24.2,13.04,11.3,24.643,1.992,19.689-4.98-6.281-31.935,7.994,31.935,15.652-1.71-3.636-47.434,3.636,47.434,10.323,19.5,21.8,6.7,2.446.752-1.615-37.794h-15.6v23.887l-7.033,6.456-1.711,14.672s1.631-15.129,1.711-14.672l24.244,7.451,20.339-.752,2.362-19.512-5.879-17.53s-17.593.193-18.436,0" transform="translate(-638.105 -1265.932)" fill="none" stroke="#c8c29d" stroke-linecap="round" stroke-linejoin="round" stroke-width="2"/>
      <path id="Path_1184" data-name="Path 1184" d="M690.115,1532.389l17.211-26.493,19.369-4.646,15.709-6.436,18.317,8.04,44.7-3.7,13.278,11.762-33.181,12.29,8.238,13.721H734.7l-24.545-10.2Z" transform="translate(-533.874 -1280.621)" fill="#79d7f5" stroke="#79d7f5" stroke-linecap="round" stroke-linejoin="round" stroke-width="2"/>
      <path id="Path_884" data-name="Path 884" stroke="#7e20ff" d="M3625.387-780.048s6.068-19.6,3.323-33.188-8.792-.478-14.306-21.146-5.133-26.743-2.387-51.9,11.061-27.4,13.37-48.724,2.705-32.591-4.618-42.9-18.813-6.036-28.548-12.944-10.391-14.686-10.391-14.686,37.739-22.229,68.314-22.229,56.98,25.027,56.98,25.027" fill="none" transform="translate(-3332.573 1008.799)" stroke-linecap="round" stroke-linejoin="round" stroke-width="4" stroke-dasharray="8"/>
      <path id="Path_1140" data-name="Path 1140" d="M661.222,1639.572l19.09-52.893,20.615-49.754" transform="translate(-566.457 -1233.131)" fill="none" stroke="#fff" stroke-linecap="round" stroke-linejoin="round" stroke-width="2"/>
      <path id="Path_1124" data-name="Path 1124" d="M659.837,1497.772l11.057,16.456-4.762,16.06,2.17,25.09" transform="translate(-568.019 -1277.287)" fill="none" stroke="#c8c29d" stroke-linecap="round" stroke-linejoin="round" stroke-width="2"/>
      <path id="Path_1125" data-name="Path 1125" d="M666.482,1481.79l16.234,8.409v8.5l7.653,2.572-4,7.194h-7.651l-7.959,5.919-19.142,2.142" transform="translate(-577.291 -1295.31)" fill="none" stroke="#c8c29d" stroke-linecap="round" stroke-linejoin="round" stroke-width="2"/>
      <path id="Path_1126" data-name="Path 1126" d="M687.685,1544.5l5.7-15.68-1.7-17.763-12.349-14.326-1.538-7.682-10.85-2.975" transform="translate(-560.003 -1290.48)" fill="none" stroke="#c8c29d" stroke-linecap="round" stroke-linejoin="round" stroke-width="2"/>
      <path id="Path_1127" data-name="Path 1127" d="M687.479,1568.992l-15.163-27.505-4.861-46.948" transform="translate(-559.429 -1280.932)" fill="none" stroke="#c8c29c" stroke-linecap="round" stroke-linejoin="round" stroke-width="2"/>
      <path id="Path_1128" data-name="Path 1128" d="M582.046,1528.748l26.891,5.54h52.835l22.042-18.492-22.042,18.492-19.081,18.819-12.849,37.106" transform="translate(-655.75 -1256.96)" fill="none" stroke="#fff" stroke-linecap="round" stroke-linejoin="round" stroke-width="2"/>
      <path id="Path_1129" data-name="Path 1129" d="M722.788,1514.074l-84.168.832" transform="translate(-591.948 -1258.902)" fill="none" stroke="#fff" stroke-linecap="round" stroke-linejoin="round" stroke-width="2"/>
      <path id="Path_1130" data-name="Path 1130" d="M660.68,1489.967l-9.556,15.316" transform="translate(-577.847 -1286.088)" fill="none" stroke="#c8c29d" stroke-linecap="round" stroke-linejoin="round" stroke-width="2"/>
      <path id="Path_1134" data-name="Path 1134" d="M585.365,1506.909l-.608,10.047" transform="translate(-652.692 -1266.983)" fill="none" stroke="#c8c29d" stroke-width="2"/>
      <path id="Path_1135" data-name="Path 1135" d="M630.216,1516.75l18.9-2.3" transform="translate(-601.425 -1258.48)" fill="none" stroke="#fff" stroke-linecap="round" stroke-linejoin="round" stroke-width="2"/>
      <path id="Path_1137" data-name="Path 1137" d="M681.735,1518.652l11.578,17.342-9.06,20.635" transform="translate(-543.324 -1253.739)" fill="none" stroke="#c8c29c" stroke-linecap="round" stroke-linejoin="round" stroke-width="2"/>
      <path id="Path_1138" data-name="Path 1138" d="M689.846,1544.48l-13.141-15.115" transform="translate(-548.996 -1241.657)" fill="none" stroke="#c8c29c" stroke-linecap="round" stroke-width="2"/>
      <path id="Path_1139" data-name="Path 1139" d="M903.512,1677.517,680.135,1536.864" transform="translate(-545.128 -1233.201)" fill="none" stroke="#fff" stroke-linecap="round" stroke-linejoin="round" stroke-width="2"/>
      <path id="Path_1141" data-name="Path 1141" d="M693.933,1548.351l60.354,37.111-44.493,70.563-50.926-30.439" transform="translate(-569.112 -1220.246)" fill="none" stroke="#fff" stroke-linecap="round" stroke-linejoin="round" stroke-width="2"/>
      <path id="Path_1142" data-name="Path 1142" d="M736.017,1585.419l-60.855-37.1" transform="translate(-550.737 -1220.285)" fill="none" stroke="#fff" stroke-linecap="round" stroke-linejoin="round" stroke-width="2"/>
      <path id="Path_1143" data-name="Path 1143" d="M729.666,1592.362l-58.1-35.3" transform="translate(-554.789 -1210.42)" fill="none" stroke="#fff" stroke-linecap="round" stroke-linejoin="round" stroke-width="2"/>
      <path id="Path_1144" data-name="Path 1144" d="M721.154,1599.63l-53.228-31.591" transform="translate(-558.898 -1198.042)" fill="none" stroke="#fff" stroke-linecap="round" stroke-linejoin="round" stroke-width="2"/>
      <path id="Path_1145" data-name="Path 1145" d="M701.612,1596.434l-23.318-15.182" transform="translate(-547.205 -1183.141)" fill="none" stroke="#fff" stroke-linecap="round" stroke-linejoin="round" stroke-width="2"/>
      <path id="Path_1146" data-name="Path 1146" d="M689.02,1592.121l-24.872-15.135" transform="translate(-563.157 -1187.952)" fill="none" stroke="#fff" stroke-linecap="round" stroke-linejoin="round" stroke-width="2"/>
      <path id="Path_1165" data-name="Path 1165" d="M723.932,1526.791l23.7,7.574L763.92,1551.6v17.087l10.4,14.762v12.106" transform="translate(-495.736 -1244.56)" fill="none" stroke="#c8c29c" stroke-linecap="round" stroke-linejoin="round" stroke-width="2"/>
      <path id="Path_1166" data-name="Path 1166" d="M766.459,1526.791l-21.026,2.6-9.064,7.374" transform="translate(-481.709 -1244.56)" fill="none" stroke="#c8c29c" stroke-linecap="round" stroke-linejoin="round" stroke-width="2"/>
      <path id="Path_1167" data-name="Path 1167" d="M719.553,1576.008l9.616-20.251V1527.1" transform="translate(-500.674 -1244.212)" fill="none" stroke="#c8c29c" stroke-linecap="round" stroke-linejoin="round" stroke-width="2"/>
      <path id="Path_1168" data-name="Path 1168" d="M763.61,1553.5l-19.9-11.962-19.488-1.312" transform="translate(-495.41 -1229.404)" fill="none" stroke="#c8c29c" stroke-width="2"/>
      <path id="Path_1169" data-name="Path 1169" d="M729.5,1573.625l-10.514-8.281.965-8.755,13.884-1.229,6.822-10.568L763.3,1558.12l-1.19,8.367H744.281l-3.619,7.138Z" transform="translate(-501.308 -1224.26)" fill="#d1e0a8" stroke="#c8c29c" stroke-linecap="round" stroke-linejoin="round" stroke-width="2"/>
      <path id="Path_1170" data-name="Path 1170" d="M712.31,1568.039l-8.848,18.284,16.474,12.9v9.652l29.974,23.238,19.224-29.083-28.886-16.7-27.938-18.284" transform="translate(-520.949 -1198.042)" fill="#d1e0a8" stroke="#fefcf7" stroke-linecap="round" stroke-linejoin="round" stroke-width="2"/>
      <path id="Path_1171" data-name="Path 1171" d="M763.374,1582.886l-22.365,33.08,24.834,17.765,14.372-22.843,5.323-14.505Z" transform="translate(-476.477 -1181.299)" fill="#d1e0a8" stroke="#fff" stroke-width="2"/>
      <path id="Path_883" data-name="Path 883" stroke="#7e20ff" d="M3670.715-699.984s-35.022-12.413-48.627-25.986-6.662-14.241-5.791-28.309-.718-5.021-5.4-39.289c-2.545-18.625,1.026-58.378,0-72.559-.684-9.454-8.526-13.2-9.812-18.979-3.435-15.49-.88-17.384,4.41-21.967,6.979-6.046,12.225,6.648,25.158,10.5s17.323-3.344,28.49,2.51,4.383,14.524,16.176,20.9c3.9,2.112,11.18-1.114,15.624,0,7.1,1.792,10.886,6.286,15.373,4.62,6.707-2.49,11.635-14.047,11.635-14.047" fill="none" transform="translate(-3312.623 1143.099)" stroke-linecap="round" stroke-linejoin="round" stroke-width="4" stroke-dasharray="8"/>
      <path id="Path_1175" data-name="Path 1175" d="M631.948,1531.238l4.977,31.019" transform="translate(-599.472 -1239.546)" fill="none" stroke="#c8c29d" stroke-linecap="round" stroke-linejoin="round" stroke-width="2"/>
      <path id="Path_1177" data-name="Path 1177" d="M665.525,1542.273l18.632,6.465" transform="translate(-561.605 -1227.1)" fill="none" stroke="#c8c29d" stroke-linecap="round" stroke-width="2"/>
      <path id="Path_1176" data-name="Path 1176" d="M658.243,1542.643l-4.96,9.755" transform="translate(-575.411 -1226.683)" fill="none" stroke="#c8c29d" stroke-linecap="round" stroke-linejoin="round" stroke-width="2"/>
      <path id="Path_1181" data-name="Path 1181" d="M675.2,1570.359l-14.05-6.942-12.33,10.6,14.729,11.029Z" transform="translate(-580.439 -1203.255)" fill="#d1e0a8"/>
      <path id="Path_885" data-name="Path 885" stroke="#7e20ff" d="M3750.292-935.666s-7.351,24.458-32.378,31.524c-10.887,3.073-26.707-5.662-39.951-6.953a61.481,61.481,0,0,0-27.779,3.69s-13.4,3.412-29.15,32.413-14.426,58.977-34.821,81.839-93.045-3.733-111.714,9.61-9.723,53.374-9.723,53.374" fill="none" transform="translate(-3467 1112.664)" stroke-linecap="round" stroke-linejoin="round" stroke-width="4" stroke-dasharray="8"/>
      <path id="Path_1183" data-name="Path 1183" d="M634.2,1580.763l10.342-5.447-4.248-10.829-8.127,5.726Z" transform="translate(-599.23 -1202.048)" fill="#d1e0a8"/>
      <path id="Path_1178" data-name="Path 1178" d="M625.2,1551.786l31.318,28.978,9.09,14.11v18.182" transform="translate(-607.081 -1216.372)" fill="none" stroke="#c8c29d" stroke-linecap="round" stroke-linejoin="round" stroke-width="2"/>
      <path id="Path_1179" data-name="Path 1179" d="M621.14,1573.143l24.751,12.461,23.437-16.385,5.549-18.734-5.549,18.734-15.858-18.734" transform="translate(-611.661 -1217.838)" fill="none" stroke="#c8c29d" stroke-linecap="round" stroke-linejoin="round" stroke-width="2"/>
      <path id="Path_1180" data-name="Path 1180" d="M646.09,1595.825l21.895-19.614v-6.628l21.29,2.253-5.421,11.625s-15.94-7.128-15.868-7.249,15.868,7.249,15.868,7.249l-13.132,14.814-16.4-9.227,16.4,9.227,13.132,11.143-29.536-20.369,4.7-5.587-16.51-13.878" transform="translate(-587.561 -1216.94)" fill="none" stroke="#c8c29d" stroke-linecap="round" stroke-linejoin="round" stroke-width="2"/>
      <path id="Path_1182" data-name="Path 1182" d="M632.256,1569.639l1.384,10.948,10.294-5.243-3.432-10.7" transform="translate(-599.125 -1201.872)" fill="none" stroke="#c8c29d" stroke-linecap="round" stroke-linejoin="round" stroke-width="2"/>
      <path id="Path_1185" data-name="Path 1185" d="M597.883,1539.831l19.208,39.531,38.035,30.8,52.624,19.158,22.89,5.9,93.535,59.685" transform="translate(-637.89 -1229.854)" fill="none" stroke="#fff" stroke-linecap="round" stroke-linejoin="round" stroke-width="2"/>
      <path id="Path_1186" data-name="Path 1186" d="M742.554,1697.987,645.7,1580.218" transform="translate(-583.968 -1184.307)" fill="none" stroke="#fff" stroke-linecap="round" stroke-linejoin="round" stroke-width="2"/>
      <path id="Path_1187" data-name="Path 1187" d="M687.176,1677.464l9.8-12.5,37.731-48.132-10.885,19.639,28.069,14.468-37.3,10.092-17.612,3.933" transform="translate(-541.443 -1146.484)" fill="none" stroke="#fff" stroke-linecap="round" stroke-linejoin="round" stroke-width="2"/>
      <path id="Path_1191" data-name="Path 1191" d="M769.962,1749.594l-9.147-68.181-26.725-28.9,9.52-9.927" transform="translate(-484.28 -1113.975)" fill="none" stroke="#fff" stroke-linecap="round" stroke-linejoin="round" stroke-width="2"/>
      <path id="Path_1188" data-name="Path 1188" d="M772.753,1753.059l-5.5-55.514-20.039-34.326-17.073-20.479-5.6,3.329-10.647-6.56" transform="translate(-507.051 -1117.44)" fill="none" stroke="#fff" stroke-linecap="round" stroke-linejoin="round" stroke-width="2"/>
      <path id="Path_1189" data-name="Path 1189" d="M778.311,1720.517l-18.155-.557-54.812-83.78" transform="translate(-516.698 -1121.195)" fill="none" stroke="#fff" stroke-linecap="round" stroke-linejoin="round" stroke-width="2"/>
      <path id="Path_1190" data-name="Path 1190" d="M831.292,1702.549,735.736,1715.3l-23.855-14.263v-17.654l26.887-17.819" transform="translate(-509.327 -1088.056)" fill="none" stroke="#fff" stroke-linecap="round" stroke-linejoin="round" stroke-width="2"/>
      <path id="Path_1192" data-name="Path 1192" d="M746.745,1660.883l44.561,46.442" transform="translate(-470.008 -1093.337)" fill="none" stroke="#fff" stroke-linecap="round" stroke-linejoin="round" stroke-width="2"/>
      <path id="Path_1193" data-name="Path 1193" d="M684.786,1645.322l26.564,50.378" transform="translate(-539.883 -1110.885)" fill="none" stroke="#fff" stroke-linecap="round" stroke-linejoin="round" stroke-width="2"/>
      <path id="Path_1194" data-name="Path 1194" d="M693.079,1659.8l9.539-3.768,11.515,22.342" transform="translate(-530.531 -1098.81)" fill="none" stroke="#fff" stroke-linecap="round" stroke-linejoin="round" stroke-width="2"/>
      <path id="Path_1195" data-name="Path 1195" d="M717.908,1640.6l-18.417,13.849,20.215,33.6" transform="translate(-523.299 -1116.208)" fill="none" stroke="#fff" stroke-linecap="round" stroke-linejoin="round" stroke-width="2"/>
      <path id="Path_882" data-name="Path 882" stroke="#7e20ff" d="M3524.238-751.172a112.988,112.988,0,0,0,30.45-9.02c11.209-5.091,22.781-16.07,36.1-17.952,31.049-4.385,39.549-.661,57.645,9.43s15.217,19,26.212,25.374,17.833-1.1,17.833-1.1" fill="none" transform="translate(-3397.524 1288.266)" stroke-linecap="round" stroke-linejoin="round" stroke-width="4" stroke-dasharray="8"/>
      <path id="Path_1198" data-name="Path 1198" d="M500.508,1393.085l28.273,71.863,41.53,42.031,98.579,57.663,101.939,60.026,62.562,63.084,81.2,41.492,81.93,61.6L1028.39,1892.5l12.957,62.045-12.957,90.989" transform="translate(-747.705 -1395.349)" fill="none" stroke="#142d4c" stroke-linejoin="round" stroke-width="2" stroke-dasharray="10"/>
      <path id="Path_1199" data-name="Path 1199" stroke="#142d4c" d="M969.177,1759.783l-146.3-99.209L756.8,1629.659l-37.094-6.8-60.112-29.478-90.031-40.157" fill="none" transform="translate(-669.828 -1214.754)" stroke-linecap="round" stroke-linejoin="round" stroke-width="2" stroke-dasharray="10"/>
      <path id="Path_881" data-name="Path 881" d="M3931.188-1105.8c6.587-3.961,32.9,5.823,36.749,9.726s-5.857,3.064,11.623,11.229,58.3,21.428,58.3,21.428l10.765-42.383s-55.664-66.314-95.225-109.965-52.058-64.162-63.019-64.637c-28.054-1.233-66.675,17.958-82.538,30.444-21.553,16.965,3.4,23.62,0,34.193,0,0,.661,8.1-13.6,8.1s-18.874-13.142-43.434-8.1-47.031,11.935-83.167,49.21-37.588,55.293-56.688,99.522-19.71,77.395-19.71,77.395-19.132,52.627-47.469,88.9-65.882,56.2-65.882,56.2h-15.374s-21.144,26.647-30.715,51.614-.862,28.724-7.569,48.25-2.319,13.177-19.826,29.792-28.057,16.424-50.2,36.669c-14.637,13.381-23.541,28.785-30.816,41.546-17.791,31.2,9.856,29.8,9.856,46.589s-9.856,20.551-9.856,20.551-8.264.813-10.055,3.411.378,5.235,2.892,6.98,7.164,0,7.164,0,18.44,22.051,27.451,30.032,5.356,1.72,14.232,6.7,21.271,13.218,21.271,13.218,67.326,9.38,107.837,41.129,55.925,83.167,55.925,83.167,53.058,20.973,73.563,35.91-7.766,6.98,20.841,36.6c11.443,11.849,26.1,19.965,39.032,30.039,18.165,14.153,35.066,30.241,54.554,51.846,32.48,36.008,14.1,29.524,23.952,49.382s21.791,26.747,33.83,50.723,5.312,25.885,14.325,45.18,12.485,30.848,26.7,32.161,16.582-18.166,42.556-26.166,33.637-1.932,56.369-5.995,28.283-2.167,34.167-8.751-7.974-8.136-10.632-17.243-2.376-10.415,0-19.186,16.563-3.764,9.507-16.237-37.731-33.655-37.731-33.655l45.945-35.234s50.923,2.031,53.808-5.868-32.638-21.759-34.894-55.521,19.449-52.59,26.162-77.259-2.169-17.132,5.6-39.2c2.711-7.7,7.593-13.336,11.6-19.673,6.448-10.212,12.144-19.469,13.881-29.4,2.669-15.254-10.476-22.517-10.476-22.517v-42.36s-.835-24.212,10.476-53.975,20.062-26.739,29.449-53.636,7.931-36.5,8.1-53.952-23.456-9.14-43.567-18.3-37.837-29.261-37.837-29.261l16.556-118.777s-102.961-62.221-155.534-89.926-50.4-17.3-54.757-20.891-3.9-14.374-3.9-14.374-.962-6.216-8.539-9.526-21.13,4.245-21.768-3.715,6.786-36.4,18.073-42.693,39-1.753,52.622-11.749-3.344-21.276,1.886-28.233,11.161,5.2,27.765,1.99,26.3-1.946,38.651-14.812S3924.6-1101.842,3931.188-1105.8Z" transform="translate(-3636.111 723.817)" fill="none" stroke="#142d4c" stroke-linejoin="round" stroke-width="4"/>
      <path id="Path_891" data-name="Path 891" stroke="#207dff" d="M3689.2-1083.1a67.779,67.779,0,0,0-19.809,16.073c-6.292,7.471-5.994,17-13.374,20.416-17.083,7.912-21.571-4.841-35.151-4.841s-18.367-2.016-21.19,9.932,6.064,27.969,2.221,35.228-10.244-10.313-17.6-6.195-11.815,22.669-11.815,22.669" fill="none" transform="translate(-3347.365 954.908)" stroke-linecap="round" stroke-linejoin="round" stroke-width="4" stroke-dasharray="8"/>
      <path id="Path_890" data-name="Path 890" stroke="#207dff" d="M3444.115-1143.047s23.694,19.778,45.427,22.853,29.013-12.454,41.505-10.553-3.782,13.45,8.38,18.435,29.657-3.777,44.3,0,3.393,10.346,9.9,15.11,17.837-5.557,21.326,3.947-8.222,19.177-7.368,34.07,7.2,3.542,8.53,21.556-4.051,59.742-4.051,59.742" fill="none" transform="translate(-3487.883 883.043)" stroke-linecap="round" stroke-linejoin="round" stroke-width="4" stroke-dasharray="8"/>
      <path id="Path_1443" data-name="Path 1443" d="M931.542,1441.385l-57.721-68.7-18.882-36.758-62.713,8.532-43.189,8.79L715.8,1365.151l-9.906,32.507,3.018,27.026,4.176,37.531,70.591,13.9h52.795l37.347-9.778Z" transform="translate(-667.149 -1442.792)" fill="red" opacity="0"/>
      <path id="Path_1444" data-name="Path 1444" d="M1005.664,1297.432l37.77,8.173v12.275l68.065,24.63,12.779-46.305L971.365,1125.2l-50.964,8.668-43.815,28.9,7.705,25.128-7.705,10.95-35.576-10.95L807,1193.328,774.447,1211.9l-45.56,40.012-31.544,53.694L667.19,1411.9v10.959l45.487,21.846,37.023-14.25,9.414,1.7-1.93,14.532,6.125,5.924,47.662-3.418,3.836,8.939v7.682l20.73,1.454,3.369,11.823-8.675,21.609,3.88,14.818,4.795,7.442v27.057l-3.369,32.412,53.232-7.195,13.225,2.678,6.441,21.005,20.834,26.846,10.331,11.515,9.648-15.63,14.089,11.222,3.515-14.8-3.515-17.15,5.248-16.274,21.219-2.217,14.537,9.51,16.237-2.808,14.565-23.913,26.966-18.419L945.455,1479.1l-54.082-19.63-7.79-22.347-26.458-1.811,2.607-25.154,16.937-23.939,40.244-5.159,15.456-11.219-4.2-17.012,2.273-7.368,16.71,4.645,32.28-4.645,17.642-12.832,5.606-19.653Z" transform="translate(-710.798 -1680.441)" fill="#ffeb00" opacity="0"/>
      <path id="Path_1445" data-name="Path 1445" d="M750.657,1264.145l43.223,21.808,22.416-3.327,19.658-8.678,13.279,1.9-3.978,10.1,3.978,9.846,35.062-2.655,14.653-1.244,4.186,15.294,8,2.334,12.657-2.334,2.194,14.548-6.987,19.7v12.941l6.987,12.211-2.194,59.7-36.615,6.533-29.373,9.717-14.447,10.517-5.521,24v22.484l5.521,43.458-112.635-32.952-77.021-7.813-64.072-18.572,8.7-43.287,27.547-37.954H641.38L697.645,1359l33.078-51.808Z" transform="translate(-798.267 -1523.74)" fill="#80ff01" opacity="0"/>
      <path id="Path_1446" data-name="Path 1446" d="M465.689,1570.26l9.326-.715,10-15.4-4.91-16.076-13.146-14.44,8.061-25.673,29.228-35.78L538.9,1438.04l32.643-30.648,6.762-32.121,67.754,20.792,73.544,6.474,52.618,15.453,82.1,23-7.943,16.51-14.863,2.062-18.693-3.767L800.87,1466.1l-7.637,20.117v22.5l9.368,7.993,18.225,6.268,4.047,13.4-7.236,16.614-22.48,18.62-29.008,17.746-50.322,19.673-26.076,2.733H667.681l-23.246,10.352-3.193,13.8v11.429l12.26,11.457,12.873,9.94,19.383,8.585,24.413,8.1,15.841,5.747-10.187,15.251-18.858,30.354-31.709-45.605-32.5-29.208L589.879,1643.8,537.9,1630.247l-22.891-14.365-15.023-5.378-22.211-26.583-2.762-4.288-9.326,2.047Z" transform="translate(-786.972 -1415.439)" fill="#00ff9d" opacity="0"/>
      <path id="Path_1448" data-name="Path 1448" d="M937.079,1451.6l-13.608-5.634-24.635-3.558L866.1,1421.632l-28.183-24.664-27.675-11.212-27.486,2.284L739.766,1404.4l-4.57,5.108,9.113,12.122,27.556,8.026,8.017,18.043-3.835,32.667-9.077,29.1-5.184,32.8,3.005,31.816,15.092,23.967-3.835,36.114,20.868,12.806,21.3,2.27,13.255,2.347,9.344,17.807,28.752,6.392,5.28,2.917,16.337-16.427-2.644-36.349,5.437-41.054,17.711-42.606,18.485-26.048,6.906-27.39Z" transform="translate(-483.033 -1403.614)" fill="#ff0" opacity="0"/>
      <path id="Path_1449" data-name="Path 1449" d="M825.3,1712.866l2.174-26.143,12.514-20.006,11.446-24.756,3-24.275v-13.454l13.181-20.939,10.766-18.74,6.156-19.846L872.9,1531l-18.47,16.1-25.773-7.149-9.038-2.389-7.8-18.412-30.978-3.433-22.569-12.484-6.781,12.484V1531L762,1543.576v71l4.789,32.866,1.214,16.823-1.214,13.926,14.4,17.13,32.531,16.106Z" transform="translate(-464.655 -1271.118)" fill="#ffb100" opacity="0"/>
      <path id="Path_1450" data-name="Path 1450" d="M903.649,1476.622l13.27,20.2-5.993,36.791-5.662,11.438v16.195l11.655,12.915v71.656l4.823,32.43v31.056l15.727,17.585,37.823,16.556,8.666,26.449,27.921,27.876v6.687l-50.415,5.613-43.572,32.493-13.375,5.774-13.754-5.774L872.229,1821.5,839.97,1808.75l-34.768,3.891-29.429,16.922-31.547,9.372-4.08-18.494-26.092-35.318L692.915,1766.6l-45.071-38.733-23.271-16.108-10.4-15.907,3.849-12.92-2-34.154,8.548-14.442,13.867-7.927,48.351,3.258,29.607,1.1,20.126-6.916,11.567-10.487,12.1-36.909,12.089-31.839,8.6-17.537,18.036-17.781,28-6.433,28,5.516,16.854.917,11.619-3.851,14.351-15.279Z" transform="translate(-619.517 -1301.139)" fill="#ff00b1" opacity="0"/>
      <path id="Path_1451" data-name="Path 1451" d="M885.153,1709.6l-.545-9.649-38.453-32-14.882,3.8-9.544-5.1-15.681-18.093-7.914-6.5L770.307,1633l-33.622,3.663-28.919,16.613-32.6,10.133,18.954,30.851L710.2,1717.1l9.463,25.024,4.377,21.5,12.647,21.5,13.054,11.434,13.973-4.776,17.117-16.576,29.929-10.432h26.446l41.183-5.734,8.982-7.844-8.982-6.639-6.426-11.263,1.054-11.7,3.93-6.653Z" transform="translate(-550.732 -1124.783)" fill="#0062ff" opacity="0"/>
      <path id="Path_1452" data-name="Path 1452" d="M870.594,1462.97l16.063-109.176-39.469-21.939-25.577,15.488-12.859,22.874-10.57,5.391-16.4-2.695-12.629-4.958H755.28l-6.5,12.177,3.544,23.922v10.921l-12.474-3.188-5.063-5.682-11.13,12.914,35.063,41.59,29.307-11.362,20.722-4.421,25.076,4.421,17.709,8.408,16.383,12.217Z" transform="translate(-496.042 -1464.401)" fill="#d801ff" opacity="0"/>
      <path id="Path_1453" data-name="Path 1453" d="M876.019,1535.327l3.4-11.623-5.789-3.492H851.966l-17.136-18.806-22.095-7.4-20-11.455-24.883-18.015-18.927-15.845-17.359-3.471v21.7L703.02,1494l-40.434,22.586-46.254,16.459L584.95,1534.3l-14.761,1.453-18.632,9.992-2.991,16.406,4.09,10.212,32.295,21.886,36.634,12.107,14.646,6.66L605.9,1656.8l4.165,17.193,32.62,15.083,31.178,16.324,18.909,14.568-3.431-14.568v-23.943l8.249-11.14,13.22-9.108,27.408,1.057,18.858,1.523,33.672,1.681,24.579-8.87,6.741-14.066,16.063-45.623,13.84-30.614,10.263-13.083Z" transform="translate(-693.507 -1336.558)" fill="#00ff14" opacity="0"/>
      <path id="Path_1454" data-name="Path 1454" d="M1005.664,1297.432l37.77,8.173v12.275l68.065,24.63,12.779-46.305L971.365,1125.2l-50.964,8.668-43.815,28.9,7.705,25.128-7.705,10.95-35.576-10.95L807,1193.328,774.447,1211.9l-45.56,40.012-31.544,53.694L667.19,1411.9v10.959l45.487,21.846,37.023-14.25,9.414,1.7-1.93,14.532,6.125,5.924,47.662-3.418,3.836,8.939v7.682l20.73,1.454,3.369,11.823-8.675,21.609,3.88,14.818,4.795,7.442v27.057l-3.369,32.412,53.232-7.195,13.225,2.678,6.441,21.005,20.834,26.846,10.331,11.515,9.648-15.63,14.089,11.222,3.515-14.8-3.515-17.15,5.248-16.274,21.219-2.217,14.537,9.51,16.237-2.808,14.565-23.913,26.966-18.419L945.455,1479.1l-54.082-19.63-7.79-22.347-26.458-1.811,2.607-25.154,16.937-23.939,40.244-5.159,15.456-11.219-4.2-17.012,2.273-7.368,16.71,4.645,32.28-4.645,17.642-12.832,5.606-19.653Z" transform="translate(-710.798 -1680.441)" fill="#ffeb00" opacity="0"/>
    </g>
  </g>
</svg>
