<svg xmlns="http://www.w3.org/2000/svg" xmlns:xlink="http://www.w3.org/1999/xlink" width="206.902" height="294.459" viewBox="0 0 206.902 294.459">
  <defs>
    <clipPath id="clip-path">
      <path id="Path_1462" data-name="Path 1462" d="M-648.105-1904.929c-14.36-5.658-31.555-2.431-48.167-13.712-10.848-7.367-16.534-13.044-23.9-20.267-3.573-3.5-7.55-8.254-13.443-12.388-16.981-11.914-21.709-11.832-30.579-15s-24.241-3.344-36.727,0a208.489,208.489,0,0,0-25.056,8.793l-16.99,7.5s-7.8,2.354-6.076,8.157,1.234,7.772,10.752,13.678,15.911,3.532,22.3,7.1,6.2,5.7,8.9,13.536,1.93,17.826,1.93,17.826l-2.774,21.083-5.206,13.256-5.471,18.191s-3.292,12.676-3.539,22.274-1.346,7.648,0,15.828.433,8.888,2.254,17.368,2.154,10.875,5.942,16.378,5.858,2.463,7.94,7.174,2.349,8.813,2.163,16.754-4.561,15.673-2.673,20.574,7.555,8.065,7.555,8.065l13.137,9.024s8.705,3.007,15.252,2.431,13.035-1.205,17.154.692c2.451,1.129,5.577,10.113,10.226,16.313a16.414,16.414,0,0,0,9.742,6c6.381,1.158,7.69-.926,13.27-.336s8.43,6.161,14.972,3.784,10.895-10.377,10.895-10.377,4.115-6.208,4.272-8.636c.873-13.487-1.1-21.508-.431-40.629s6.043-38.122,6.043-38.122,4.249-15.2,8.926-24.963c4.625-9.649,14.4-21.446,15.711-23.512,3.28-5.166,8.821-16.161,8.821-16.161S-633.745-1899.271-648.105-1904.929Z" transform="translate(854.069 1970.879)" fill="#fff"/>
    </clipPath>
  </defs>
  <g id="Or" transform="translate(-735.706 -1385.262)">
    <g id="Mask_Group_8" data-name="Mask Group 8" transform="translate(730.931 1383.121)" clip-path="url(#clip-path)">
      <path id="Path_1068" data-name="Path 1068" d="M533.848,1379.568l.256,32.072,20.1,14.013,10.455,25.278L582.676,1456v8.374l21.249-3.841,4.49,10.066H622.12l9.632,5.123H646.24l10.941,4.289-5.205,14,13.349,14.628-4.383,13.936,4.383,10.245-19.085,6.868H635.611L615.6,1528.1h-14l-3.428,2.346v9.241l33.579,23.719,8.71-3.27h5.777l10.941,13.3-16.718,12.662-8.71-3.672-18.268,17.458h26.979l29.938,18.847v-32.632l42.978-19.082,13.812-6.876,4.1,6.876,47.2,15.41h28.164l28.252,31.527,14.121,15.032,4.787,18.563-18.909,13.293,6.991,8.645,38.471-8.645,22.767,8.645H930.88l6.237,9.706,23.6,7.537,32.767-7.537,3.921,7.537h-8.486l4.565,13.208H975.363l6.895,24.332,11.227,8.625v27.094h8.807v-69.694h11.784v-11.1l34.48-6.567,10.075,11.056-4.221,12.795,19.256,3.46,20.765-3.46,19.445,3.46,5.108-13.208v-10.555l-10.723-15.333V1610.5l12.369-46.385,20.084-31.792,10.595-22.738,4.377-53.59-47.425-8.875-47.653-40.991-12.685-7.575-28.768-8.69-52.3,15.554-63.723,29.054-84.051,12.648-131.793-41.7-104.616-15.554Z" transform="translate(-947.562 -1387.027)" fill="#d1e0a8"/>
      <path id="Path_1173" data-name="Path 1173" d="M756.338,1674.815l-9.9-15.478L693.079,1688.3l33.854,42.664,3.522-7.577h5.928L733.5,1696.67l2.879-8.369Z" transform="translate(-772.537 -1079.51)" fill="#d1e0a8"/>
      <path id="Path_1108" data-name="Path 1108" d="M589.267,1528.146l18.482,14.438,19.685,29.058,31.378-13.73v13.73l13.555-4.41,56.392,3.191,21.06-1.246,22.677-5.6-9.19,22.033-11.759-9.161H724.323l-27.291-3.536-26.544,1.309-10.774,7.547v32.728l-18.8-11.447-17.288-19.353-10.644-23.155-28.458-24.495Z" transform="translate(-891.856 -1223.713)" fill="#d1e0a8"/>
      <path id="Path_1109" data-name="Path 1109" d="M668.856,1639.106,655.3,1614.1l-21.349-18.714-54.732-23.337-24.441-16.6-8.138-18.17,4.914-15.14,24.488-13.093,34.364-4.495,28.387,6.167,18.429,13.241v-32.605l54.53-24.873,52.742,20.854h28.641l43.248,48.509,2.653,16.9-18.909,13.924,9.474,8.511,36.733-9.791,22.8,9.791h28.034l6.644,10.163,23.311,6.374,32.406-6.374,2.154,6.374h-6.653l2.681,12.681h-16.2l6.663,24.955,9.538,6.474,1.818,28.47,5.847,1.93,5.186-1.93-2.963-22.07,1.34-47.076H1000v-11.4l34.37-6.676,9.995,11.813-4.031,12.435,21.837,4.534,15.255-4.534,20.667,3.075-18.23,33.674-3.814,33.356-9.425,28.633-12.875,26.187-5.488,30.319,14.6,32.913,20.713,18.144-4.522,5.953-46.118,3.092-18.745,10.438-22.538,18.046-5.66,5.164,34.185,29.259,3.182,10.679-9.168,7.064-3.679,10.793,3.679,15.873,10.716,7.385-5.767,8.342L965.5,1945.88l-20.551,2.042-8.589,2.061-21.284,10.4-4.459,4.983-22.466-23.49,2.641-7.133,6.381,1.755-3.063-29.673,3.945-7.018,8.975-4.931,10.2-8.289-10.2-16.019-46.729,26.4-6.115,2.837-21.462-27.789-17.235-27.4-3.13-20.67-47.685-53.643,5.653-9.024,10.675,10.664h6.125l25.232,29.888,5.472,1.25,17.639,29.4,1.976,8.381,19.211-8.381,10.333-10.426-1.965-5.234h-4.615l13.231-14.987L886,1808.776v6.139h22.141l9.089-11.83-116.912-73.069-32.962-19.522-46.413-10.436-19-18.522V1649.9l12.276-8.253,20.771-1.269,25.024,3,17.379,2.2h16.212l11.2,10.829,9.393-22.955-18.69,2.723H767.357l-35.558-2.723-31.723,5.652,1.87-15.4Z" transform="translate(-933.497 -1291.499)" fill="#f3e2ac" stroke="#c8c29d" stroke-linecap="round" stroke-linejoin="round" stroke-width="2"/>
      <path id="Path_1172" data-name="Path 1172" d="M628.832,1573.472l-14.125-6.793v24.866l18.767,25.3,44.89,33.321,11.726,11.056,6.416-9.423,9.848,9.423,7.885,2.651,22.169,27.362,8.5,3.026,16.73,31.473,30.163-13V1707.2h-5.867l13.56-15.965L811,1699.24v6.159l23.021-1.682,8.464-9.459L693.626,1602.33l-44.688-10.784Z" transform="translate(-858.683 -1181.357)" fill="#eaeaea"/>
      <path id="Path_1133" data-name="Path 1133" d="M576.894,1504.148l1.005,12.672,16.1,2.561v-9.048Z" transform="translate(-900.246 -1250.09)" fill="#d1e0a8"/>
      <path id="Path_1132" data-name="Path 1132" d="M628.463,1522.812l21.752.218-1.607-15.811H628.463Z" transform="translate(-843.561 -1246.716)" fill="#d1e0a8"/>
      <path id="Path_1131" data-name="Path 1131" d="M689.626,1502.031l-4.526,4.492h-6.394l-7.659,6.188-19.228,2.866,15.352-33.462,13.483,6.711,1.818,9.425Z" transform="translate(-817.89 -1274.307)" fill="#d1e0a8"/>
      <path id="Path_1102" data-name="Path 1102" d="M653.436,1571.457l-21.536-3.276L599,1555.216l-25.537-18.01-8.858-18.9,4.4-13.41,25.856-16.443,1.135-4.531-24.331,4.531-14.29-2.608,2.8,22.831H540.6l2.272,4.431-14.7,8.65L571.66,1546.9,599,1573.694l22.563,40.406,22.927-31.442Z" transform="translate(-953.797 -1272.318)" fill="#d1e0a8"/>
      <path id="Path_1147" data-name="Path 1147" d="M729.34,1548.75l-57.9,89.415" transform="translate(-796.318 -1201.064)" fill="none" stroke="#fff" stroke-linecap="round" stroke-width="2"/>
      <path id="Path_1148" data-name="Path 1148" d="M682.631,1662.23l67.854-105.06L727.857,1541.5l-3.158,3.432,9.5,6.385,1.982-1.388-8.324-5" transform="translate(-784.021 -1209.032)" fill="none" stroke="#fff" stroke-linecap="round" stroke-linejoin="round" stroke-width="2"/>
      <path id="Path_1149" data-name="Path 1149" d="M846.3,1698.077l-163.9-99.311" transform="translate(-784.276 -1146.087)" fill="none" stroke="#fff" stroke-linecap="round" stroke-width="2"/>
      <path id="Path_1150" data-name="Path 1150" d="M850.92,1700.977l-143.72-89,9.3-13.31-22.254-14.841" transform="translate(-771.254 -1162.505)" fill="none" stroke="#fff" stroke-linecap="round" stroke-linejoin="round" stroke-width="2"/>
      <path id="Path_1151" data-name="Path 1151" d="M707.62,1633.732l21.12-35.385" transform="translate(-756.554 -1146.549)" fill="none" stroke="#fff" stroke-linecap="round" stroke-linejoin="round" stroke-width="2"/>
      <path id="Path_1152" data-name="Path 1152" d="M704.771,1590.85l27.18,15.726" transform="translate(-759.685 -1154.789)" fill="none" stroke="#fff" stroke-linecap="round" stroke-width="2"/>
      <path id="Path_1153" data-name="Path 1153" d="M717.681,1648.477l25.991-41.912-9.242-6.858,50.847,32.62,60.967,38.524L854.19,1663l-10.812-6.888,16.354-23.787-53.681-36.485" transform="translate(-745.495 -1149.302)" fill="none" stroke="#fff" stroke-linecap="round" stroke-linejoin="round" stroke-width="2"/>
      <path id="Path_1154" data-name="Path 1154" d="M737.315,1671.675l48.748-75.349" transform="translate(-723.913 -1148.77)" fill="none" stroke="#fff" stroke-linecap="round" stroke-linejoin="round" stroke-width="2"/>
      <path id="Path_1155" data-name="Path 1155" d="M756.769,1602.4l75.54,47.111v12.723" transform="translate(-702.53 -1142.09)" fill="none" stroke="#fff" stroke-linecap="round" stroke-linejoin="round" stroke-width="2"/>
      <path id="Path_1156" data-name="Path 1156" d="M746.745,1676.609l48.37-73.892" transform="translate(-713.548 -1141.744)" fill="none" stroke="#fff" stroke-linecap="round" stroke-linejoin="round" stroke-width="2"/>
      <path id="Path_1157" data-name="Path 1157" d="M796.249,1607.923l-36.383,55.3" transform="translate(-699.126 -1136.022)" fill="none" stroke="#fff" stroke-linecap="round" stroke-linejoin="round" stroke-width="2"/>
      <path id="Path_1158" data-name="Path 1158" d="M799.507,1653.389l-53.038-30.669,23.174-38.3-31.448-18.966-26.017,34.957" transform="translate(-751.545 -1182.705)" fill="none" stroke="#fff" stroke-linecap="round" stroke-linejoin="round" stroke-width="2"/>
      <path id="Path_1159" data-name="Path 1159" d="M736.277,1628.644l32.5-46.685,11.455,7.276-8.226,12.294,15.716,11.284" transform="translate(-725.054 -1164.562)" fill="none" stroke="#fff" stroke-linecap="round" stroke-linejoin="round" stroke-width="2"/>
      <path id="Path_1160" data-name="Path 1160" d="M847.32,1537.909l-25.5-2-9.963,11.721v16.4l3.882,15.037-17.819,45.41-24.339,36.49" transform="translate(-684.054 -1215.176)" fill="none" stroke="#c8c29c" stroke-linecap="round" stroke-linejoin="round" stroke-width="2"/>
      <path id="Path_1161" data-name="Path 1161" d="M816.737,1659.257l-40.863-61.3v-35.837l3.7-11.377,2.594-16.444,26-3.416-26,3.416-19.857-7.51" transform="translate(-696.441 -1225.201)" fill="none" stroke="#c8c29c" stroke-linecap="round" stroke-linejoin="round" stroke-width="2"/>
      <path id="Path_1162" data-name="Path 1162" d="M816.278,1547.594l-44.925-13.333" transform="translate(-686.5 -1216.992)" fill="none" stroke="#c8c29c" stroke-linecap="round" stroke-linejoin="round" stroke-width="2"/>
      <path id="Path_1163" data-name="Path 1163" d="M757.827,1538.884l25.1,2.414,46.935,15.773" transform="translate(-701.367 -1211.909)" fill="none" stroke="#c8c29c" stroke-linecap="round" stroke-linejoin="round" stroke-width="2"/>
      <path id="Path_1164" data-name="Path 1164" d="M796.236,1621.494l-18.626-27.173,1.756-33.174-1.756,33.174-17.732,1.118" transform="translate(-699.113 -1187.438)" fill="none" stroke="#c8c29c" stroke-linecap="round" stroke-linejoin="round" stroke-width="2"/>
      <path id="Path_892" data-name="Path 892" d="M3367.1-772.392l58.214,20.212,68.244,3.753L3608-715.055l48.211,10.695,53.985,7.149,68.426-11.906,71.141-31.552,23.258-7.756v-23.965h13.567l3.134-14.719h-6.283l-3.066-22.789-7.353-11.58,44.308-43.4-85.8-47.579L3748.4-951.132l-3.336-12.666-13.135-9.692h-16.44l16.44-50.349,56.978-6.765v-32.56l25.188,3.884,41.781-10.52,6.544-39.725,40.512,9.733v8.083l64.755,21.909,9.406-35.561-63.973-77.427-83.835-97.664-56.923,11.724-40.433,28.933,9.36,23.45-14.226,8.331-38.457-11.122-41.245,17.878-47.521,33.846-40.733,70.676-19.532,47.419-8.009,50.891L3513.611-956.6l-36.732,58.225-44.717,43.067-30.678,5.049-26.795,49.069Z" transform="translate(-3811.772 754.451)" fill="#b0e0a8"/>
      <path id="Path_1118" data-name="Path 1118" d="M600.8,1495.435l28.6-11.574v-12.837l7.051,57.845" transform="translate(-873.971 -1286.5)" fill="none" stroke="#c8c29d" stroke-linecap="round" stroke-linejoin="round" stroke-width="2"/>
      <path id="Path_1119" data-name="Path 1119" d="M610.647,1519.447l-2.453-44.052,2.453,46.974H627.78" transform="translate(-865.841 -1281.696)" fill="none" stroke="#c8c29d" stroke-linecap="round" stroke-linejoin="round" stroke-width="2"/>
      <path id="Path_1069" data-name="Path 1069" d="M680.217,1444.654l-5.778-8.958L642.9,1422.043l-23.244,3.991v30.133l12.668,9.877,22.988,4.725,15.9-8.285Z" transform="translate(-853.242 -1340.339)" fill="#f3e2ac" stroke="#c8c29d" stroke-linejoin="round" stroke-width="2"/>
      <path id="Path_1089" data-name="Path 1089" d="M549.237,1379.568l30.609,1.836v29.537l-19.7,1.884-28.574,29.969-17.038,7.163H496.471l-5.649-4.535,48.79-39.033Z" transform="translate(-994.855 -1387.027)" fill="#f3e2ac" stroke="#c8c29d" stroke-linecap="round" stroke-linejoin="round" stroke-width="2"/>
      <path id="Path_1070" data-name="Path 1070" d="M845.866,1467.558l-161.123-42.306-21.1,10.826-20.765,34.669,41.861,20.049,7.372,6.95H706.82l8.565,7.746,15.97,5.058,13.208,16.152,14.281-10.587h7.068l-3.478,21.467,8.338,14.08,24.069-3.278,34,11.531,17.025-11.531,5.674,3.278,7.982-21.069,33.4,35.235H907.09l3.717,9.2H926.9l11.938,25.131,9.22-7.507,15.7,7.507,19.4-21.428v-18.811l-19.4-3.195,19.4-8.336-16.088-37.834-28.234-12.8-23.8-36.488-38.07-11.36-4.12,20.848Z" transform="translate(-827.712 -1336.813)" fill="#f5e7b8" stroke="#c8c29d" stroke-linecap="round" stroke-linejoin="round" stroke-width="2"/>
      <path id="Path_1081" data-name="Path 1081" d="M3546.583-992.406v22.833l38.7,5.095-2.982,5.821-21.72,3.146,11.409,25.7,56.146,15.158h26.944l10.235-49.829-6.115-27.927-31.064-13.674-7.689-9.568-38.146,14.672Z" transform="translate(-3614.487 1045.521)" fill="#eaeaea" stroke="#d1d1d1" stroke-linecap="round" stroke-linejoin="round" stroke-width="2"/>
      <path id="Path_1106" data-name="Path 1106" d="M3444.246-881.525l27.975,25.446,14.322,28.951h-34.677l-22.664-6.8-7.494-17.271Z" transform="translate(-3751.75 1192.947)" fill="#f5e7b8" stroke="#c8c29d" stroke-linecap="round" stroke-linejoin="round" stroke-width="2"/>
      <path id="Path_1101" data-name="Path 1101" d="M502.642,1483.965l23.445,12.365-6.371,16.426-33.936-14.3-3.111-23.418Z" transform="translate(-1003.817 -1282.09)" fill="#d1e0a8"/>
      <path id="Path_1084" data-name="Path 1084" d="M792.536,1391.864l-14.174,14.378,30.581,11.438v2.811l-28.845-9.981-1.736,12.314,28.1,5.66v3.2l-25.21-4.951v7.591l22.638,4.374v2.575l-22.638-4.354.732,8.115,59.541,7.544,6.466-18.255-18.587-11.5-20.461-16.581-6.6-8.214Z" transform="translate(-678.795 -1373.512)" fill="#fff"/>
      <path id="Path_1085" data-name="Path 1085" d="M846.4,1416.7l-9.38,11.177-26.715-1.894v5.823l19.948,6.408,1.256,5.26,8.534-3.258-.931-3.246,7.288-.635,4.572-2.138v-16.349Z" transform="translate(-643.685 -1346.212)" fill="#fff"/>
      <path id="Path_1042" data-name="Path 1042" d="M718.73,1340.3l4.718,18.587" transform="translate(-744.342 -1430.187)" fill="none" stroke="#fff" stroke-linecap="round" stroke-linejoin="round" stroke-width="2"/>
      <path id="Path_1045" data-name="Path 1045" d="M679.225,1286.825l-20.8,19.188,10.706-3.99,23.836,26.722-10.941,5.608-32.884-23.973-22.789-8.358,21.062,10.241,1.727,10.5,9.283,10.56,10.706,10.33,13.991-6.495-20.642-14.4,17.948,14.4L662.477,1326.1l15.253,11.055-15.253-8.412,14.148,10.226-15.144-7.833,12.589,9.1-14-6.915,10.683,8.4" transform="translate(-845.884 -1488.969)" fill="none" stroke="#fff" stroke-linecap="round" stroke-linejoin="round" stroke-width="2"/>
      <g id="Path_1046" data-name="Path 1046" transform="translate(-815.039 -1463.112)" fill="none" stroke-linecap="round" stroke-linejoin="round">
        <path d="M654.412,1313.859l19.5-3.511,10.906,10.4,4.847,13.139s7.368-3.838,9.824-2.685,2.456,5.474,0,7.3-8.015-1.617-9.824,0-.188,4.85,2.587,6.466,7.019-2.053,8.515,0,.883,6.161-2.532,8.214-11.128,0-11.128,0-.09,5.628-2.288,7.5a4.916,4.916,0,0,1-6.505,0c-1.626-1.391,0-5.565,0-5.565h-4.4l-10.389,2.126-2.784-18.745Z" stroke="none"/>
        <path d="M 671.6483764648438 1317.867919921875 L 663.0527954101562 1319.415893554688 L 667.6581420898438 1337.476440429688 L 669.3561401367188 1348.909790039062 L 672.5037841796875 1348.265502929688 C 672.9656372070312 1348.171020507812 673.4358520507812 1348.123413085938 673.9072875976562 1348.123413085938 L 678.3081665039062 1348.123413085938 C 679.4569702148438 1348.123413085938 680.56884765625 1348.4052734375 681.5570068359375 1348.922973632812 C 681.9326782226562 1348.435546875 682.3744506835938 1347.994506835938 682.8746948242188 1347.614379882812 C 683.2703247070312 1347.313598632812 683.6931762695312 1347.058959960938 684.1354370117188 1346.851806640625 C 682.91845703125 1345.13623046875 682.1439208984375 1343.207885742188 681.9468383789062 1341.260986328125 C 681.7544555664062 1339.3603515625 682.110107421875 1337.518920898438 682.9454956054688 1335.915161132812 L 678.8074340820312 1324.697509765625 L 671.6483764648438 1317.867919921875 M 673.9072875976562 1310.348510742188 L 684.8132934570312 1320.752563476562 L 689.6599731445312 1333.891235351562 C 689.6599731445312 1333.891235351562 695.2289428710938 1330.990844726562 698.2978515625 1330.990478515625 C 698.7591552734375 1330.990478515625 699.1635131835938 1331.055908203125 699.4844360351562 1331.206665039062 C 701.9406127929688 1332.360229492188 701.9406127929688 1336.680297851562 699.4844360351562 1338.504760742188 C 698.941162109375 1338.908325195312 698.2459106445312 1339.054321289062 697.47314453125 1339.054321289062 C 695.4549560546875 1339.054321289062 692.9070434570312 1338.05908203125 691.150634765625 1338.05908203125 C 690.5391845703125 1338.05908203125 690.0238647460938 1338.179565429688 689.6599731445312 1338.504760742188 C 687.8505249023438 1340.121459960938 689.4716186523438 1343.354370117188 692.2470092773438 1344.971069335938 C 692.7765502929688 1345.279541015625 693.3597412109375 1345.395629882812 693.9669189453125 1345.395629882812 C 695.808349609375 1345.395629882812 697.8722534179688 1344.328857421875 699.3412475585938 1344.32861328125 C 699.9264526367188 1344.32861328125 700.4168701171875 1344.497680664062 700.7616577148438 1344.971069335938 C 702.2573852539062 1347.024536132812 701.6449584960938 1351.131713867188 698.2299194335938 1353.184936523438 C 697.0916137695312 1353.869262695312 695.4755249023438 1354.097534179688 693.8269653320312 1354.097534179688 C 690.5296020507812 1354.097534179688 687.1015014648438 1353.184936523438 687.1015014648438 1353.184936523438 C 687.1015014648438 1353.184936523438 687.0116577148438 1358.812622070312 684.8132934570312 1360.688598632812 C 683.7943725585938 1361.55810546875 682.6717529296875 1361.920532226562 681.5986328125 1361.920532226562 C 680.3565063476562 1361.920532226562 679.1806030273438 1361.43505859375 678.3081665039062 1360.688598632812 C 676.6818237304688 1359.297241210938 678.3081665039062 1355.123413085938 678.3081665039062 1355.123413085938 L 673.9072875976562 1355.123413085938 L 663.5180053710938 1357.249633789062 L 660.7340698242188 1338.504760742188 L 654.4119262695312 1313.859497070312 L 673.9072875976562 1310.348510742188 Z" stroke="none" fill="#fff"/>
      </g>
      <path id="Path_1062" data-name="Path 1062" d="M841.578,1354.447,801.356,1331.4l-13.112,7.757-13.382,15.291-12.2,23.023,8.281,15.195v28.6l22.162,7.386v19.719l30,16.277Z" transform="translate(-696.058 -1439.974)" fill="#f5e7b8"/>
      <path id="Path_1051" data-name="Path 1051" d="M594.264,1390.386l-54.029-34.574,12.114-18.3,43.426,20.509-31.987,37.306-30.527,14.535-13.371-10.79" transform="translate(-962.905 -1433.25)" fill="none" stroke="#fff" stroke-linecap="round" stroke-linejoin="round" stroke-width="2"/>
      <path id="Path_1047" data-name="Path 1047" d="M604.846,1276.982l-.529,11.927.529,13.186,6.561,7.479h19.857l-21.838,2.3v9.924l-2.237-9.924L591.3,1328.245l-1.307,12.345" transform="translate(-885.848 -1499.788)" fill="none" stroke="#fff" stroke-linecap="round" stroke-linejoin="round" stroke-width="2"/>
      <path id="Path_1048" data-name="Path 1048" d="M581.7,1347.936l27.909-64.888-12.069,12.569,7.18,29.255-1.429-19.829-1.639-11.193" transform="translate(-894.961 -1493.121)" fill="none" stroke="#fff" stroke-linecap="round" stroke-linejoin="round" stroke-width="2"/>
      <path id="Path_886" data-name="Path 886" stroke="#207dff" d="M3451.62-757.173l29.636-44.1-56.445-20.909s-25.612-17.7-29.593-32.838c-1.454-5.525,3.44-5.683,4.95-9.519,1.961-5.06,3.538-10.409,24.644-15.836,10.68-2.746,16.969-1.149,26.689-1,8.188.133,19.678-1.11,40.476-9.13,42.1-16.235,46.472-22.5,71.9-40.8s3.363-41.346,22.274-36.209,30.624,24.652,55.649,39.061,23.887,9.584,36.472,16.587,7.932,13.964,18.3,19.3,15.765-2.191,23.168,2.057,0,20.556,0,20.556" fill="none" transform="translate(-3781.16 1097.632)" stroke-linecap="round" stroke-linejoin="round" stroke-width="4" stroke-dasharray="8"/>
      <path id="Path_888" data-name="Path 888" stroke="#207dff" d="M3508.737-924.415s-33.624-.211-39.211-15.9-.778-37.348,12.087-48.232,21.535,4.584,33.237,0,13.572-18.336,13.572-18.336" fill="none" transform="translate(-3701.716 1055.161)" stroke-linecap="round" stroke-linejoin="round" stroke-width="4" stroke-dasharray="8"/>
      <path id="Path_1044" data-name="Path 1044" d="M629.022,1283.788l13.505,6.864,56.9-3.679,18,21.122-14.733,34.058" transform="translate(-842.948 -1492.307)" fill="none" stroke="#fff" stroke-linecap="round" stroke-linejoin="round" stroke-width="2"/>
      <path id="Path_1043" data-name="Path 1043" d="M610.58,1274.826l-21.064,17.218h41.369l19.738-4.463v11.505l3.468-11.505,18.293,4.463-12.847,7.043v7.9" transform="translate(-886.372 -1502.157)" fill="none" stroke="#fff" stroke-linecap="round" stroke-linejoin="round" stroke-width="2"/>
      <path id="Path_893" data-name="Path 893" d="M3710.071-912.3l5.453,4.558,27.02-9.987,10.851,7.71,3.854-14.42-23-7.727,23-20.274-28.432-26.133-13.292-32.607L3639.631-996.7v12.991l-11.838,12.117-10.068-16.719,17.094-38.1-24.091-8.643,7-27.818-7-18.1-47.179,18.1-15.576-22.831-4.048-19.259-18.029-15.093-34.3,44.135-14.937-9.784-14.24,16.5,3.158,10.923h11.082l-7.058,18.095-14.476-5.828-18.158-20.271-3.283,8-5.377,4.52,5.377,7.746-30.361,69.677,79.747,47.384,21.341-23.493-12.814-15.726,3.357-12.841,9.458-7.3,64.4,32.966,5.955,47.6,53.03,17.844,43.057,5.857,3.694-5.857-26.416-6,16.69-16.4,22.649,16.4Z" transform="translate(-3771.961 930.765)" fill="#f5e7b8" stroke="#fff" stroke-linecap="round" stroke-linejoin="round" stroke-width="4"/>
      <path id="Path_912" data-name="Path 912" d="M3529.443-1029.363l-16.631-27.38-12.862-8.762-12.428,19.057,7.1,7.639v25.981l11.833,1.056,5.269,7.124Z" transform="translate(-3681.507 994.917)" fill="#dedede" stroke="#c8c29d" stroke-linecap="round" stroke-linejoin="round" stroke-width="2"/>
      <path id="Path_1056" data-name="Path 1056" d="M601.162,1358.117l7.958,7.828,14.3-1.362-14.3,3.189,1.359,8.541,10.6,6.4,18.208-9.015,13.968,9.015-1.624,21.219L668.442,1390l6.108,36.969-16.54,3.388v-3.388l11.771-2.4-1.339-2.876-10.432,2.876,5.084-15.391-14.487,1.054V1391.5" transform="translate(-873.571 -1410.605)" fill="none" stroke="#fff" stroke-linecap="round" stroke-linejoin="round" stroke-width="2"/>
      <path id="Path_1099" data-name="Path 1099" d="M499.862,1507.819l9.173-24.416,29.745,19.141,34.263,10.078L557.28,1521.1l-27.966-8.482Z" transform="translate(-984.918 -1272.893)" fill="#f3e2ac" stroke="#c8c29d" stroke-linecap="round" stroke-linejoin="round" stroke-width="2"/>
      <g id="Path_1057" data-name="Path 1057" transform="translate(-876.403 -1393.586)" fill="none" stroke-linecap="round" stroke-linejoin="round">
        <path d="M608.843,1373.6l10.62,10.63-4.219,11.843-16.659-10.413,3.558-4.364Z" stroke="none"/>
        <path d="M 609.0440063476562 1379.46240234375 L 605.2027587890625 1383.875610351562 L 604.5516357421875 1384.674072265625 L 613.1452026367188 1390.045776367188 L 614.8462524414062 1385.270385742188 L 609.0440063476562 1379.46240234375 M 608.8426513671875 1373.601196289062 L 619.4625244140625 1384.231567382812 L 615.2437744140625 1396.074829101562 L 598.5849609375 1385.661499023438 L 602.143310546875 1381.297973632812 L 608.8426513671875 1373.601196289062 Z" stroke="none" fill="#fff"/>
      </g>
      <path id="Path_1058" data-name="Path 1058" d="M614.69,1370.1l-7.675,28.305,20.073,9.515,16.848-10.938Z" transform="translate(-867.136 -1397.432)" fill="none" stroke="#fff" stroke-linecap="round" stroke-linejoin="round" stroke-width="2"/>
      <path id="Path_1059" data-name="Path 1059" d="M632.677,1386.788l-17.559-18.851" transform="translate(-858.23 -1399.811)" fill="none" stroke="#fff" stroke-linecap="round" stroke-linejoin="round" stroke-width="2"/>
      <path id="Path_1060" data-name="Path 1060" d="M596.169,1382.5l28.671,15.573,4.677-7.267,9.185,3.641,3.28,10.452,23.145-1.209-2.7-3.632-20.445,1.967v-3.952h20.445" transform="translate(-879.059 -1383.809)" fill="none" stroke="#fff" stroke-linecap="round" stroke-linejoin="round" stroke-width="2"/>
      <path id="Path_1174" data-name="Path 1174" d="M748.764,1735.265l-54.088-59.448,3.332,27.29,16.024,33.968,12,10.362Z" transform="translate(-770.782 -1061.395)" fill="#79d7f5" stroke="#c8c29d" stroke-width="2"/>
      <path id="Path_1105" data-name="Path 1105" d="M576.362,1475.036l-2.066,5.592H554.618L532.582,1499l-23.19-12.522-5.98,2.269,33.179,22.137,25.355,8.825,3.9-16.457,20.174-23.875Z" transform="translate(-981.017 -1282.09)" fill="#d1e0a8"/>
      <path id="Path_1061" data-name="Path 1061" d="M804.412,1330.545,783.07,1348.9l-19.1,28.281,9.871,15.23v30.154H761.864l-2.976,22.414h20.733l22.371,5.936,26.126,16.885" transform="translate(-700.2 -1440.913)" fill="none" stroke="#fff" stroke-linecap="round" stroke-linejoin="round" stroke-width="4"/>
      <path id="Path_1095" data-name="Path 1095" d="M494.013,1447.095l19.41-18.2,9.547,7.4h18.7l22-9.816,26.894-28.83,19.064-1.72,20.272,12.884,7.708,17.667-7.708,25.542,3.579,19.124-9.961,11.047-20.591,2.687-3.8-7.455,6.22-2.9,12.919-13.377V1443.77l-8.64-7.475,8.64-16.83-3.387-4.18H590.568V1428.9l-15.661-2.417-12.84,8-20.4,6.219-2.774,16.766H528.347L519.98,1440.7l-11.63,3.067-14.337,11.106,5.98,6.277,22.976,2.441,10.622,15.9,28.476,10.984,7.362,4.267h15.2v10.388h-7.939l-8.877-5.337H538.9l-8.211,1.635-7.717,8.564v10.822l14.335,1.779,13.941,10.288-16.051-3.582-4.508,3.582,20.559,19.091v21.048l-8.757,10.172-19.519-7.927-26.529-33.8,1.718-8.586,16.564-7.538-1.3-6.127-2.252-10.526v-5.983l-14.73-17.827v-10.35l-10.083-3.384-3.975,19.327,11.63,23,12.37,15.821-9.942,21.112L508.35,1584.7l-33.34-29.858-9.32-2.873,12.243-8.564,8.425-16.534-14.741-21.745-1.987-20.248Z" transform="translate(-1022.48 -1369.043)" fill="#d1e0a8"/>
      <path id="Path_911" data-name="Path 911" d="M3535.155-1047.7l-45.885-12.438-18.156-1.636-11.241,3.343-9.77,9.384-6.911,16.322,11.82,16.269" transform="translate(-3730.323 994.818)" fill="none" stroke="#c8c29d" stroke-linecap="round" stroke-width="2"/>
      <path id="Path_1029" data-name="Path 1029" d="M601.174,1306.241l10.861-36.538,47.6-19.58L640.3,1244s-22.942,23.8-23.56,23.594" transform="translate(-873.557 -1536.047)" fill="none" stroke="#fff" stroke-linecap="round" stroke-linejoin="round" stroke-width="2"/>
      <path id="Path_898" data-name="Path 898" d="M3458.97-991.874l10.129-16.08,9.814-60.312-17.4-4.816-2.539,7.535-22.4-9.283-27.555,53.517" transform="translate(-3765.699 980.469)" fill="none" stroke="#c8c29d" stroke-width="2"/>
      <path id="Path_894" data-name="Path 894" d="M3414.725-1078.44l38.094,15.913s-8.906,21.964-12.822,44.789-2.843,46.512-2.843,46.512" transform="translate(-3759.424 976.501)" fill="none" stroke="#fff" stroke-linecap="round" stroke-linejoin="round" stroke-width="4"/>
      <path id="Path_895" data-name="Path 895" d="M3486.119-1035.709l-75.619-32.836" transform="translate(-3764.067 987.377)" fill="none" stroke="#fff" stroke-linecap="round" stroke-width="4"/>
      <path id="Path_896" data-name="Path 896" d="M3490.924-1030.247l-18.224,2.485-66.572-31.194" transform="translate(-3768.873 997.918)" fill="none" stroke="#fff" stroke-linecap="round" stroke-width="2"/>
      <path id="Path_1033" data-name="Path 1033" d="M663.834,1276.452l24.978,3.658,37.432,26.867,8.816,5.584,17.681-5.584" transform="translate(-804.683 -1500.371)" fill="none" stroke="#fff" stroke-linecap="round" stroke-linejoin="round" stroke-width="2"/>
      <path id="Path_1034" data-name="Path 1034" d="M717.76,1289.674l.394,16.31,16.582,20.718,9.584,33.032H732.125l-22.7,21.8v7.749l-44.307,9.352" transform="translate(-803.268 -1485.837)" fill="none" stroke="#fff" stroke-linecap="round" stroke-linejoin="round" stroke-width="2"/>
      <path id="Path_1054" data-name="Path 1054" d="M560.923,1366.329,557,1384.07l-36.69-4.892" transform="translate(-962.439 -1401.579)" fill="none" stroke="#fff" stroke-linecap="round" stroke-linejoin="round" stroke-width="2"/>
      <path id="Path_897" data-name="Path 897" d="M3494.33-1118.552s-24.443,23.638-39.565,48.714-21.839,51.471-21.839,51.471" transform="translate(-3739.419 932.411)" fill="none" stroke="#fff" stroke-linecap="round" stroke-width="4"/>
      <path id="Path_899" data-name="Path 899" d="M3442.314-1026.635h22.876l41.354-58.8-18.7-13.906-8.687-11.686" transform="translate(-3729.099 940.678)" fill="none" stroke="#c8c29d" stroke-linecap="round" stroke-linejoin="round" stroke-width="2"/>
      <path id="Path_1063" data-name="Path 1063" d="M825.517,1336.416,797.8,1355.508l-8.487,21.727V1440.5l-2.436-17.928-21.813-6.528" transform="translate(-693.415 -1434.459)" fill="none" stroke="#fff" stroke-linecap="round" stroke-linejoin="round" stroke-width="2"/>
      <path id="Path_1064" data-name="Path 1064" d="M818.555,1375.984l-17.4,4.856H776.057" transform="translate(-681.328 -1390.967)" fill="none" stroke="#fff" stroke-linecap="round" stroke-linejoin="round" stroke-width="2"/>
      <path id="Path_1065" data-name="Path 1065" d="M786.18,1342.378l4.171,32.872-4.171,26.005L794.721,1416" transform="translate(-670.202 -1427.906)" fill="none" stroke="#fff" stroke-linecap="round" stroke-linejoin="round" stroke-width="2"/>
      <path id="Path_1066" data-name="Path 1066" d="M829.33,1388.237l-44.789-8.418-14.328-14.62,24.9-32.844" transform="translate(-687.753 -1438.923)" fill="none" stroke="#fff" stroke-linecap="round" stroke-linejoin="round" stroke-width="2"/>
      <path id="Path_1067" data-name="Path 1067" d="M782.375,1352.3l-15.385,26.347" transform="translate(-691.296 -1417.001)" fill="none" stroke="#fff" stroke-linecap="round" stroke-linejoin="round" stroke-width="2"/>
      <path id="Path_900" data-name="Path 900" d="M3459.846-1054.39l-18.226-12.1" transform="translate(-3729.862 989.64)" fill="none" stroke="#c8c29d" stroke-linecap="round" stroke-width="2"/>
      <path id="Path_901" data-name="Path 901" d="M3463.885-1041.508l-10.757-29.184" transform="translate(-3717.212 985.017)" fill="none" stroke="#c8c29d" stroke-linecap="round" stroke-width="2"/>
      <path id="Path_902" data-name="Path 902" d="M3473.684-1063.347l-16.047-13.351Z" transform="translate(-3712.255 978.416)" fill="none" stroke="#c8c29d" stroke-linecap="round" stroke-width="2"/>
      <path id="Path_1107" data-name="Path 1107" d="M597.694,1568.878l5.518-11.248h10.937l20.722,22.64,1.283,13.023L618.3,1578.308Z" transform="translate(-879.482 -1191.304)" fill="#f5e7b8" stroke="#c8c29d" stroke-width="2"/>
      <path id="Path_903" data-name="Path 903" d="M3464.848-1026.451v-18.391l29.06-36.677,23.757-11.579h25.593" transform="translate(-3704.33 960.389)" fill="none" stroke="#c8c29d" stroke-linecap="round" stroke-linejoin="round" stroke-width="2"/>
      <path id="Path_904" data-name="Path 904" d="M3549.572-1043.671l-21.133-17.149-29.121-13.67-47.941-28.689" transform="translate(-3719.137 949.308)" fill="none" stroke="#c8c29d" stroke-width="2"/>
      <path id="Path_905" data-name="Path 905" d="M3497.7-1099.955v21.485l-5.978,18.314" transform="translate(-3674.795 952.852)" fill="none" stroke="#c8c29d" stroke-width="2"/>
      <path id="Path_907" data-name="Path 907" d="M3516.431-1089.134l-10.457,29.382-13.451,25.684" transform="translate(-3673.91 964.747)" fill="none" stroke="#c8c29d" stroke-width="2"/>
      <path id="Path_908" data-name="Path 908" d="M3486.837-1070.826l-9.416,15.25v12.964" transform="translate(-3690.51 984.87)" fill="none" stroke="#c8c29d" stroke-linecap="round" stroke-linejoin="round" stroke-width="2"/>
      <path id="Path_906" data-name="Path 906" d="M3552.493-1019.824l-116.066-83.87" transform="translate(-3735.571 948.742)" fill="none" stroke="#fff" stroke-linecap="round" stroke-linejoin="round" stroke-width="4"/>
      <path id="Path_909" data-name="Path 909" d="M3487.331-1043.438l10.787-21.17Z" transform="translate(-3679.617 991.706)" fill="none" stroke="#fff" stroke-linecap="round" stroke-linejoin="round" stroke-width="4"/>
      <path id="Path_1035" data-name="Path 1035" d="M697.712,1308.838l43.776-5.066,18.778,13.254,17.216,26.308,25.943-21.424,27.443,14.275-1.421,23.5,5.553,37.3-11.23-12.934H796.843l-13.813,8.277-5.547,18.864,3.6,25.268-8.246,27.781" transform="translate(-767.445 -1470.342)" fill="none" stroke="#fff" stroke-linecap="round" stroke-linejoin="round" stroke-width="2"/>
      <path id="Path_910" data-name="Path 910" d="M3500.83-1030.338V-1043.9l-42.467-12.708" transform="translate(-3711.458 1000.494)" fill="none" stroke="#c8c29d" stroke-width="2"/>
      <path id="Path_913" data-name="Path 913" d="M3493.218-1001.531l2.353-18.85,8.247-14.81" transform="translate(-3673.146 1024.041)" fill="none" stroke="#c8c29d" stroke-linecap="round" stroke-width="2"/>
      <path id="Path_914" data-name="Path 914" d="M3524.84-998.765v-14.652l-30-13.855" transform="translate(-3671.359 1032.745)" fill="none" stroke="#c8c29d" stroke-linecap="round" stroke-width="2"/>
      <path id="Path_1037" data-name="Path 1037" d="M698.151,1307.181l19.035,25.926,3.24,10.325,11.884,14.639,12.2,11.787-15.74,26.787-11.583-2.937" transform="translate(-766.962 -1466.594)" fill="none" stroke="#fff" stroke-linecap="round" stroke-linejoin="round" stroke-width="2"/>
      <path id="Path_915" data-name="Path 915" d="M3515.946-961.374v-10.787l44.218-69.436,23.267-16.829,9.38,16.829,16.554,10.43" transform="translate(-3648.164 998.5)" fill="none" stroke="#c8c29d" stroke-linecap="round" stroke-width="2"/>
      <path id="Path_916" data-name="Path 916" d="M3579.281-1052.1l-1.7-12.366-57.9,11.126,2.153,12.9h24.483v-6l26.193-15.194" transform="translate(-3644.056 991.862)" fill="none" stroke="#c8c29d" stroke-linecap="round" stroke-width="2"/>
      <path id="Path_917" data-name="Path 917" d="M3522.038-1036.558v-16.454" transform="translate(-3641.467 1004.452)" fill="none" stroke="#c8c29d" stroke-linecap="round" stroke-width="2"/>
      <path id="Path_918" data-name="Path 918" d="M3509.133-995.34l19.56-28.619v-21.261h7.939" transform="translate(-3655.652 1013.016)" fill="none" stroke="#c8c29d" stroke-linecap="round" stroke-width="2"/>
      <path id="Path_1104" data-name="Path 1104" d="M566.176,1432.526l17.888,2.494,9.2,11.66-5.253,16.15-17.729-5.691-5.879,5.691-13.342,18.92v6.981H539.055l-10.223-9.711-1.545-10.38,7.97-8.3,27.407-10.229v-11.57Z" transform="translate(-954.773 -1328.816)" fill="#d1e0a8"/>
      <path id="Path_919" data-name="Path 919" d="M3584.237-1003.989l-16.246-9.657-24.312,3.154-45.37-23.953" transform="translate(-3667.55 1024.86)" fill="none" stroke="#c8c29d" stroke-linecap="round" stroke-width="2"/>
      <path id="Path_920" data-name="Path 920" d="M3556.288-1015.109l3.7-15.02-7.03-16.315" transform="translate(-3607.476 1011.67)" fill="none" stroke="#c8c29d" stroke-linecap="round" stroke-width="2"/>
      <path id="Path_887" data-name="Path 887" stroke="#207dff" d="M3818.708-990.515s-44.123,23.108-95.463,26.856-110.252-14.4-110.252-14.4-59.241-20.969-104.985-31.432c-28.609-6.544-49.222-2.992-73.363-8.99-61.586-15.3-68-20.783-68-20.783" fill="none" transform="translate(-3812.268 1019.56)" stroke-linecap="round" stroke-linejoin="round" stroke-width="4" stroke-dasharray="8"/>
      <path id="Path_921" data-name="Path 921" d="M3540.061-1006.566l29.9-24.747" transform="translate(-3621.657 1028.303)" fill="none" stroke="#c6bba0" stroke-linecap="round" stroke-width="2"/>
      <path id="Path_922" data-name="Path 922" d="M868.089,1231.471a81.892,81.892,0,0,1-46.29-15.083c-22.455-16.025-29.189-41.2-43.53-49.018-20.558-11.208-65.634-20.648-65.634-20.648l5.213,20.648" transform="translate(-751.041 -1642.968)" fill="none" stroke="#fff" stroke-width="2"/>
      <path id="Path_889" data-name="Path 889" stroke="#207dff" d="M3702.161-968.023s-29.814-37.092-50.806-61.006-12.309-34.938-25.346-38.468-107.617,13.316-129.78,25.119-9.03,93.156-9.03,93.156" fill="none" transform="translate(-3684.007 988.006)" stroke-linecap="round" stroke-linejoin="round" stroke-width="4" stroke-dasharray="8"/>
      <path id="Path_1103" data-name="Path 1103" d="M575.939,1451.1l-19.286-5.965-9.037,12.773-7.969,8.908,5.818,12.479,18.461-6.1Z" transform="translate(-941.187 -1314.958)" fill="#fff" stroke="#fff" stroke-linecap="round" stroke-linejoin="round" stroke-width="2"/>
      <path id="Path_1026" data-name="Path 1026" d="M603.377,1239.146l53.771,16.279,30.757,6.682,50.755,17.084,3.028-21.939,8.889,18.6h16.757l14.428,9.8" transform="translate(-871.137 -1541.377)" fill="none" stroke="#fff" stroke-linecap="round" stroke-linejoin="round" stroke-width="2"/>
      <path id="Path_1024" data-name="Path 1024" d="M696.966,1188.914l.514-25.3" transform="translate(-768.265 -1624.401)" fill="none" stroke="#fff" stroke-linecap="round" stroke-width="2"/>
      <path id="Path_1015" data-name="Path 1015" d="M815.276,1317.465l-5.186-20.927-19.976-38.077-9.742-17.085-18.9-15.415-20.958,5.98-21.424-5.98H696.966l13.183-24.375,23.656-19.736,17.578-30.246,13.5-3.876v-14.052" transform="translate(-768.265 -1657.307)" fill="none" stroke="#fff" stroke-linecap="round" stroke-linejoin="round" stroke-width="2"/>
      <path id="Path_1016" data-name="Path 1016" d="M751.26,1242.514l5.2-15.959-5.2-17.3,14.584-29.711,7.7,5.3L751.26,1132.4l-10.335,26.566-17.679,8.435" transform="translate(-739.378 -1658.713)" fill="none" stroke="#fff" stroke-linecap="round" stroke-linejoin="round" stroke-width="2"/>
      <path id="Path_1017" data-name="Path 1017" d="M740.324,1226.218l43.374-29.856,6.429-3.321,15.382-7.946-18.35-25.9v37.17" transform="translate(-720.606 -1629.261)" fill="none" stroke="#fff" stroke-linecap="round" stroke-linejoin="round" stroke-width="2"/>
      <path id="Path_1018" data-name="Path 1018" d="M620.478,1225.474,717,1193.193l39.068-18.407,9.166,9.019,15.653-3.342-11.867,28.68,60.688,93.751" transform="translate(-852.34 -1612.121)" fill="none" stroke="#fff" stroke-linecap="round" stroke-linejoin="round" stroke-width="2"/>
      <path id="Path_1019" data-name="Path 1019" d="M772.092,1291.2l-34.294,4.289-17.141-10.648,7.228-6.018H711.3l-13.064-20.967-18.6-11.8-6.743-36.9,38.408-18.166" transform="translate(-794.726 -1594.311)" fill="none" stroke="#fff" stroke-linecap="round" stroke-linejoin="round" stroke-width="2"/>
      <path id="Path_1020" data-name="Path 1020" d="M643.07,1177.453l-2.234,30.311,7.4,13.105-5.165,21v16.741l12.58,15.306,10.823,5.03" transform="translate(-829.962 -1609.189)" fill="none" stroke="#fff" stroke-linecap="round" stroke-linejoin="round" stroke-width="2"/>
      <path id="Path_1096" data-name="Path 1096" d="M513.286,1448.667l-9.413-17.539L495.217,1433l-15.028,12.781,3.033,5.73,24.415,2.817,9.9,14.931,22.625,8.953,12.586,5.13,14.987,2.669v8.973h-8.625l-9.447-4.355h-33.9l-8.123,12.231v9.085H522.88l14.147,10.4-17.261-2.99-4.005,2.99,21.267,23.352v17.26l20.492,14.071,21.841-19.06H600.75l4.811-13.919-2.8-24.693H591.39l-12.031-11.383v-10.813l7.171-6.529,28.219-9.428v-15.357l-23.359,10.539-8.908-7.124,20.278-17.747V1433l-8.748-6.612,8.748-17.023-2.01-4.439-24.931,1.594v12.966l-14.883-2.346-33.146,13.987-4.91,17.539Z" transform="translate(-1006.543 -1359.153)" fill="#f3e2ac" stroke="#c8c29d" stroke-linecap="round" stroke-linejoin="round" stroke-width="2"/>
      <path id="Path_1021" data-name="Path 1021" d="M703.453,1220.747l-17.2,2.809-31.916-24.835,6.816-15.643-13.266-3.018-2.8,6.275,12.132,5.16" transform="translate(-825.286 -1606.323)" fill="none" stroke="#fff" stroke-linecap="round" stroke-linejoin="round" stroke-width="2"/>
      <path id="Path_1022" data-name="Path 1022" d="M657.95,1193.934l-16.846-8.465" transform="translate(-829.667 -1600.378)" fill="none" stroke="#fff" stroke-linecap="round" stroke-linejoin="round" stroke-width="2"/>
      <path id="Path_1023" data-name="Path 1023" d="M683.05,1183.928l-3.568,14.813v11.889" transform="translate(-787.482 -1602.071)" fill="none" stroke="#fff" stroke-linecap="round" stroke-linejoin="round" stroke-width="2"/>
      <path id="Path_1077" data-name="Path 1077" d="M641.879,1465.644l37.3-41.99,161,45.74h30.18l-24.635,1.119,1.738,27.87,20.326,13.219-2.21-11.8v-17.174s4.459-11.835,4.781-13.231" transform="translate(-828.815 -1338.569)" fill="none" stroke="#fff" stroke-linecap="round" stroke-linejoin="round" stroke-width="2"/>
      <path id="Path_1078" data-name="Path 1078" d="M743.748,1448.522l.123,19.368" transform="translate(-716.843 -1311.234)" fill="none" stroke="#fff" stroke-linecap="round" stroke-linejoin="round" stroke-width="2"/>
      <path id="Path_1079" data-name="Path 1079" d="M809.223,1517.949,793.854,1483.5,774.7,1469.6l-25.173-4.508" transform="translate(-710.494 -1293.025)" fill="none" stroke="#fff" stroke-linecap="round" stroke-linejoin="round" stroke-width="2"/>
      <path id="Path_1080" data-name="Path 1080" d="M780.479,1494.842l8.92-2.866-2.942-7.454H775.674" transform="translate(-681.75 -1271.663)" fill="none" stroke="#fff" stroke-linecap="round" stroke-linejoin="round" stroke-width="2"/>
      <path id="Path_1025" data-name="Path 1025" d="M771.492,1194.466l-5.99-9.481H736.8" transform="translate(-724.481 -1600.909)" fill="none" stroke="#fff" stroke-linecap="round" stroke-linejoin="round" stroke-width="2"/>
      <path id="Path_1027" data-name="Path 1027" d="M619.544,1273.646l10.222-11.3,18.4,2.335-15.857-26.155-2.548-21.994" transform="translate(-853.366 -1566.231)" fill="none" stroke="#fff" stroke-linecap="round" stroke-linejoin="round" stroke-width="2"/>
      <path id="Path_1028" data-name="Path 1028" d="M667.634,1257.844l-11.992,3.255v-9.063L632.293,1239.2" transform="translate(-839.352 -1541.318)" fill="none" stroke="#fff" stroke-linecap="round" stroke-linejoin="round" stroke-width="2"/>
      <path id="Path_1030" data-name="Path 1030" d="M603.377,1279.375l50.932-23.685" transform="translate(-871.137 -1523.191)" fill="none" stroke="#fff" stroke-linecap="round" stroke-linejoin="round" stroke-width="2"/>
      <path id="Path_1031" data-name="Path 1031" d="M638.8,1253.608l52.548,38.186-2.325,27.7" transform="translate(-832.198 -1525.481)" fill="none" stroke="#fff" stroke-linecap="round" stroke-linejoin="round" stroke-width="2"/>
      <path id="Path_1032" data-name="Path 1032" d="M669.8,1258.821l-3.543,27.252" transform="translate(-802.018 -1523.948)" fill="none" stroke="#fff" stroke-linecap="round" stroke-linejoin="round" stroke-width="2"/>
      <path id="Path_1036" data-name="Path 1036" d="M735.639,1322.181l4.277,16.071,7.239,16.2,10.614,10.131" transform="translate(-725.756 -1450.106)" fill="none" stroke="#fff" stroke-linecap="round" stroke-linejoin="round" stroke-width="2"/>
      <path id="Path_1038" data-name="Path 1038" d="M712.448,1399.629l6.942,18.736,11.652,5.59v9.992l2.6-11.4,9.749-4.186h4.46v-31.414l4.161-9.927v-19.5l-18.37-21.645-7.363-13.937v-17.474" transform="translate(-751.246 -1469.578)" fill="none" stroke="#fff" stroke-linecap="round" stroke-linejoin="round" stroke-width="2"/>
      <path id="Path_1039" data-name="Path 1039" d="M709.493,1305.308l16.963,9.843,7.156,23.748-30.209,3.4" transform="translate(-761.188 -1468.653)" fill="none" stroke="#fff" stroke-linecap="round" stroke-linejoin="round" stroke-width="2"/>
      <path id="Path_1040" data-name="Path 1040" d="M744.936,1311.8l-2.651,30.312-6.784,7.943-3.576,9.264-18.008-7.827" transform="translate(-749.633 -1461.514)" fill="none" stroke="#fff" stroke-linecap="round" stroke-linejoin="round" stroke-width="2"/>
      <path id="Path_1041" data-name="Path 1041" d="M761.076,1340.155l-10.76,6.561H734.422l-11.858-12.231" transform="translate(-740.128 -1436.581)" fill="none" stroke="#fff" stroke-linecap="round" stroke-linejoin="round" stroke-width="2"/>
      <path id="Union_2" data-name="Union 2" d="M0,172.192l2.26-13.684,18.85-22.877,23.823,6.5,3.8-4.009L22.909,129.5l-1.8-29.186,18.607-5.28L50.581,73.708l7.977,3.08-7.969-3.665,5.309-18.7L46.755,42.667l-16.5-2.044L27.3,16.992,32.766,0,53.008,6.165v8.477l21.067-4.224,5.415,11.729L93.513,20.6l10.518,5.235h12.545l10.4,4.257L122.536,45l13.546,14.575-4.555,13.544,4.555,10.767-28.239,7.271L86.587,78.783,60.248,77.44,67.1,80.086V91.7l28.962,8.621,4.761,15.955,13.693-6.8,11.764,14.23L109.5,135.63l-7.046-3.788L76,155.765l-22.2-7.5-22.006,5.277-13.153-5.277,4.274,24.717Z" transform="translate(-417.474 62.735)" fill="#f3e2ac" stroke="#c8c29d" stroke-linecap="round" stroke-linejoin="round" stroke-width="2"/>
      <path id="Path_1049" data-name="Path 1049" d="M587.97,1351.781l-3.618-26.338-5.957-7.085,9.575-13.852" transform="translate(-898.596 -1469.535)" fill="none" stroke="#fff" stroke-linecap="round" stroke-linejoin="round" stroke-width="2"/>
      <path id="Path_1050" data-name="Path 1050" d="M591.369,1321.934l-6.941-5.4-11.521-1.522" transform="translate(-904.628 -1457.983)" fill="none" stroke="#fff" stroke-linecap="round" stroke-linejoin="round" stroke-width="2"/>
      <path id="Path_1052" data-name="Path 1052" d="M553.748,1365.682l-18.495-8.035" transform="translate(-946.016 -1411.123)" fill="none" stroke="#fff" stroke-linecap="round" stroke-linejoin="round" stroke-width="2"/>
      <path id="Path_1053" data-name="Path 1053" d="M540.682,1365.317l16.545,12.388" transform="translate(-940.049 -1402.691)" fill="none" stroke="#fff" stroke-linecap="round" stroke-linejoin="round" stroke-width="2"/>
      <path id="Path_1086" data-name="Path 1086" d="M773.61,1392.841l11.794,12.623-3.32,1.292L771.6,1395.38l-2.7,3.012,10.6,11.387" transform="translate(-689.201 -1372.437)" fill="none" stroke="#fff" stroke-linecap="round" stroke-linejoin="round" stroke-width="2"/>
      <path id="Path_1087" data-name="Path 1087" d="M770.907,1433.9l23.37,6.746-6.014,11.124h-9.372l-6.853-7.548Z" transform="translate(-686.99 -1327.308)" fill="#fff"/>
      <path id="Path_1055" data-name="Path 1055" d="M565.567,1366.329l-8.69,16.416" transform="translate(-922.249 -1401.579)" fill="none" stroke="#fff" stroke-linecap="round" stroke-linejoin="round" stroke-width="2"/>
      <path id="Path_1071" data-name="Path 1071" d="M654.412,1429.821l49.615,15.722,54.712,17.013,6.785-17.013,10.859,3.6-8.831,24.817-12.839,36.079,16.441-36.079,22.6,9.015-17.373,58.756-21.67-7.858" transform="translate(-815.039 -1331.79)" fill="none" stroke="#c8c29d" stroke-linecap="round" stroke-linejoin="round" stroke-width="2"/>
      <path id="Path_1072" data-name="Path 1072" d="M729.365,1442.509l-4.109,17.709,28.526,7.162" transform="translate(-737.169 -1317.843)" fill="none" stroke="#c8c29d" stroke-linecap="round" stroke-linejoin="round" stroke-width="2"/>
      <path id="Path_1073" data-name="Path 1073" d="M779.887,1442.509l-7.811,10.9L796.1,1479.57H768.864l-6.1,14.067" transform="translate(-695.943 -1317.843)" fill="none" stroke="#c8c29d" stroke-linecap="round" stroke-linejoin="round" stroke-width="2"/>
      <path id="Path_1074" data-name="Path 1074" d="M797.312,1513.833l-4.436-11.882h-5.259l-11.566-30.36,4.3-11.163" transform="translate(-681.334 -1298.147)" fill="none" stroke="#c8c29d" stroke-linecap="round" stroke-linejoin="round" stroke-width="2"/>
      <path id="Path_1075" data-name="Path 1075" d="M795.276,1462.651l-3.347,16.126,15.183,33.459" transform="translate(-663.883 -1295.703)" fill="none" stroke="#c8c29d" stroke-linecap="round" stroke-linejoin="round" stroke-width="2"/>
      <path id="Path_1076" data-name="Path 1076" d="M777.409,1463.309l15.895,4.918,10.5,27.908-12.268,2.976,12.268-2.976,5.957,15.63" transform="translate(-679.843 -1294.98)" fill="none" stroke="#c8c29d" stroke-linecap="round" stroke-linejoin="round" stroke-width="2"/>
      <path id="Path_1082" data-name="Path 1082" d="M741.608,1473.91l-.913-44.231,9.59-10.494H762.9l-2.488,15.335-18.806-2.951,17.344,1.488,2.291-12.832H750.285l-8.677,10.134,16.485,1.209,1.624-10.392h-9.432l-6.439,8.5H757.4l.7-7.436h-7.809l-3.4,6.244h9.439v-4.969H750.9l-1.637,3.653h6.07v-2.562h-3.44v1.472h2.23" transform="translate(-720.198 -1343.48)" fill="none" stroke="#fff" stroke-linecap="round" stroke-linejoin="round" stroke-width="2"/>
      <path id="Path_1090" data-name="Path 1090" d="M489.889,1447.09l7.015,7.172,21.034-1.337,16.046-5.834,30.021-31.619,20.972-2.272v-33.605" transform="translate(-995.88 -1387)" fill="none" stroke="#fff" stroke-linecap="round" stroke-linejoin="round" stroke-width="2"/>
      <path id="Path_1091" data-name="Path 1091" d="M562.055,1498.74l-8.507-47.694,8.656-22.635-8.656-20.249-18.8-12.594" transform="translate(-946.568 -1369.44)" fill="none" stroke="#fff" stroke-linecap="round" stroke-linejoin="round" stroke-width="2"/>
      <path id="Path_1092" data-name="Path 1092" d="M543.443,1392.82l9.489,17.061,20.035,1.325,101.227,31.979,5.3-5.208,13.67,4.769-4.241,6.888,16.965-6.313,20.131-12.789-18.706-5.165-46.408-6.385-30.289-11.7-55.631-12.8-14.044-7.629Z" transform="translate(-937.014 -1379.013)" fill="#eaeaea" stroke="#d1d1d1" stroke-linecap="round" stroke-linejoin="round" stroke-width="2"/>
      <path id="Path_1093" data-name="Path 1093" d="M551,1399.992l-4.412,8.48,4.965,3.6,3.725-1.506,9.263,16.737,31.249,2.763L624,1446.613l44.417,2.823,8.707,5.392,7.277-5.392h11.785l2.315-7.906-125.4-39.921Z" transform="translate(-933.558 -1364.577)" fill="#bcbcbc" stroke="#bcbcbc" stroke-linecap="round" stroke-linejoin="round" stroke-width="2"/>
      <path id="Path_1094" data-name="Path 1094" d="M535.1,1387.133l19.034,5.862v12.572l9.664,9.572,17.5-1.883,114.12,36.231,1.72-2.1-13.395-3.912,2.449-1.774,12.8,4v-2.222l-9.7-2.979" transform="translate(-946.182 -1378.712)" fill="none" stroke="#fff" stroke-linecap="round" stroke-linejoin="round" stroke-width="2"/>
      <path id="Path_1097" data-name="Path 1097" d="M485.043,1432.535l16.722,29.787v13.6l3.753,8.272-3.753,10.092-19.9-23.558-8.107-16.607,2.182-17.53Z" transform="translate(-1013.617 -1328.807)" fill="#f3e2ac" stroke="#c8c29d" stroke-linecap="round" stroke-linejoin="round" stroke-width="2"/>
      <path id="Path_1098" data-name="Path 1098" d="M480.189,1476.908l9.251-12.852,15.928,29.329-6.38,11.106Z" transform="translate(-1006.543 -1294.16)" fill="#f3e2ac" stroke="#c8c29d" stroke-linecap="round" stroke-linejoin="round" stroke-width="2"/>
      <g id="Ellipse_42" data-name="Ellipse 42" transform="translate(-392.402 127.796)" fill="#fff" stroke="#c8c29d" stroke-linejoin="round" stroke-width="2">
        <circle cx="8.397" cy="8.397" r="8.397" stroke="none"/>
        <circle cx="8.397" cy="8.397" r="7.397" fill="none"/>
      </g>
      <path id="Path_1110" data-name="Path 1110" d="M551.707,1514.444l49.316,23.25,20.93,7.109,142.239,1.63V1534.5l-9.255-15.117H743.108l7.84-15.97,6.937-22.632-27.764-8.467-4.245,13.734,1.751,10.281,2.493,26.729L732.6,1544.8" transform="translate(-927.931 -1285.084)" fill="none" stroke="#c8c29d" stroke-width="2"/>
      <path id="Path_1111" data-name="Path 1111" d="M566.13,1487.566l-.793,54.865" transform="translate(-912.949 -1268.317)" fill="none" stroke="#c8c29d" stroke-linecap="round" stroke-linejoin="round" stroke-width="2"/>
      <path id="Path_1112" data-name="Path 1112" d="M554.188,1498.317l47.985-.931,19.164.931,15.058,15.639,1.761,55.9" transform="translate(-925.204 -1257.524)" fill="none" stroke="#c8c29d" stroke-linecap="round" stroke-linejoin="round" stroke-width="2"/>
      <path id="Path_1113" data-name="Path 1113" d="M576.262,1486.751l2.652,66.1" transform="translate(-900.94 -1269.214)" fill="none" stroke="#c8c29d" stroke-linecap="round" stroke-linejoin="round" stroke-width="2"/>
      <path id="Path_1114" data-name="Path 1114" d="M576.262,1489.967l26.6,1.526,21.244,12.659,13.3,21.379" transform="translate(-900.94 -1265.678)" fill="none" stroke="#c8c29d" stroke-linecap="round" stroke-linejoin="round" stroke-width="2"/>
      <path id="Path_1115" data-name="Path 1115" d="M586.925,1505.951l6.458-14.348" transform="translate(-889.22 -1263.88)" fill="none" stroke="#c8c29d" stroke-linecap="round" stroke-linejoin="round" stroke-width="2"/>
      <path id="Path_1116" data-name="Path 1116" d="M561.126,1551.551l32.928,3.494,22.866,3.175,23.707,11.117,61.854-3.093-8-84.7,6.245-12.078" transform="translate(-917.578 -1288.208)" fill="none" stroke="#c8c29d" stroke-linecap="round" stroke-linejoin="round" stroke-width="2"/>
      <path id="Path_1117" data-name="Path 1117" d="M584.769,1511.984l-.463,22.123" transform="translate(-892.098 -1241.478)" fill="none" stroke="#c8c29d" stroke-linecap="round" stroke-linejoin="round" stroke-width="2"/>
      <path id="Path_1136" data-name="Path 1136" d="M648.966,1514.448,648,1538.553" transform="translate(-822.088 -1238.77)" fill="none" stroke="#c8c29c" stroke-linecap="round" stroke-linejoin="round" stroke-width="2"/>
      <path id="Path_1120" data-name="Path 1120" d="M616.243,1487.352l41.557-1.54,39.818,12.585,4.511-12.585L684.38,1479.3" transform="translate(-854.895 -1275.308)" fill="none" stroke="#c8c29d" stroke-linecap="round" stroke-linejoin="round" stroke-width="2"/>
      <path id="Path_1121" data-name="Path 1121" d="M660.264,1475.395,659,1492.459" transform="translate(-812.093 -1279.597)" fill="none" stroke="#c8c29d" stroke-linecap="round" stroke-linejoin="round" stroke-width="2"/>
      <path id="Path_1122" data-name="Path 1122" d="M624.123,1589.942l-6.373-92.507" transform="translate(-855.338 -1257.469)" fill="none" stroke="#c8c29d" stroke-linecap="round" stroke-linejoin="round" stroke-width="2"/>
      <path id="Path_1123" data-name="Path 1123" d="M597.692,1572l14.879-23.878,12.865,11.152,24.312,1.965,19.425-4.913-6.2-31.506,7.887,31.506,15.442-1.687-3.588-46.8,3.588,46.8,10.184,19.241,21.506,6.609,2.413.742-1.593-37.287H703.427v23.567l-6.938,6.369-1.688,14.475s1.609-14.926,1.688-14.475l23.919,7.351,20.066-.742,2.33-19.25-5.8-17.295s-17.356.191-18.188,0" transform="translate(-877.385 -1246.031)" fill="none" stroke="#c8c29d" stroke-linecap="round" stroke-linejoin="round" stroke-width="2"/>
      <path id="Path_1184" data-name="Path 1184" d="M690.115,1531.885l16.98-26.137,19.109-4.583,15.5-6.349,18.071,7.932,44.1-3.647,13.1,11.6-32.736,12.125,8.127,13.536H734.1L709.887,1526.3Z" transform="translate(-775.795 -1260.349)" fill="#79d7f5" stroke="#79d7f5" stroke-linecap="round" stroke-linejoin="round" stroke-width="2"/>
      <path id="Path_884" data-name="Path 884" stroke="#207dff" d="M3624.8-783.375s5.987-19.341,3.279-32.743-8.675-.472-14.114-20.862-5.064-26.384-2.355-51.2,10.912-27.037,13.19-48.069,2.669-32.153-4.556-42.324-18.561-5.955-28.165-12.77-10.251-14.489-10.251-14.489,37.232-21.93,67.4-21.93,56.215,24.691,56.215,24.691" fill="none" transform="translate(-3575.744 1032.203)" stroke-linecap="round" stroke-linejoin="round" stroke-width="4" stroke-dasharray="8"/>
      <path id="Path_1140" data-name="Path 1140" d="M661.222,1638.193l18.834-52.182,20.338-49.085" transform="translate(-807.553 -1214.062)" fill="none" stroke="#fff" stroke-linecap="round" stroke-linejoin="round" stroke-width="2"/>
      <path id="Path_1124" data-name="Path 1124" d="M659.838,1497.772l10.909,16.235-4.7,15.844,2.141,24.753" transform="translate(-809.076 -1257.099)" fill="none" stroke="#c8c29d" stroke-linecap="round" stroke-linejoin="round" stroke-width="2"/>
      <path id="Path_1125" data-name="Path 1125" d="M666.282,1481.79l16.016,8.3v8.383l7.55,2.537-3.946,7.1h-7.549l-7.852,5.839-18.884,2.113" transform="translate(-818.112 -1274.666)" fill="none" stroke="#c8c29d" stroke-linecap="round" stroke-linejoin="round" stroke-width="2"/>
      <path id="Path_1126" data-name="Path 1126" d="M687.406,1543.715l5.624-15.47-1.679-17.524-12.184-14.134-1.517-7.579-10.7-2.935" transform="translate(-801.262 -1269.958)" fill="none" stroke="#c8c29d" stroke-linecap="round" stroke-linejoin="round" stroke-width="2"/>
      <path id="Path_1127" data-name="Path 1127" d="M687.21,1567.992l-14.96-27.136-4.8-46.317" transform="translate(-800.703 -1260.652)" fill="none" stroke="#c8c29c" stroke-linecap="round" stroke-linejoin="round" stroke-width="2"/>
      <path id="Path_1128" data-name="Path 1128" d="M582.046,1528.574l26.53,5.465H660.7l21.746-18.244L660.7,1534.04l-18.825,18.566L629.2,1589.214" transform="translate(-894.583 -1237.287)" fill="none" stroke="#fff" stroke-linecap="round" stroke-linejoin="round" stroke-width="2"/>
      <path id="Path_1129" data-name="Path 1129" d="M721.658,1514.074l-83.038.821" transform="translate(-832.398 -1239.181)" fill="none" stroke="#fff" stroke-linecap="round" stroke-linejoin="round" stroke-width="2"/>
      <path id="Path_1130" data-name="Path 1130" d="M660.551,1489.967l-9.428,15.11" transform="translate(-818.654 -1265.678)" fill="none" stroke="#c8c29d" stroke-linecap="round" stroke-linejoin="round" stroke-width="2"/>
      <path id="Path_1134" data-name="Path 1134" d="M585.357,1506.909l-.6,9.912" transform="translate(-891.603 -1247.056)" fill="none" stroke="#c8c29d" stroke-width="2"/>
      <path id="Path_1135" data-name="Path 1135" d="M630.216,1516.719l18.651-2.271" transform="translate(-841.635 -1238.77)" fill="none" stroke="#fff" stroke-linecap="round" stroke-linejoin="round" stroke-width="2"/>
      <path id="Path_1137" data-name="Path 1137" d="M681.735,1518.652l11.422,17.109-8.938,20.358" transform="translate(-785.006 -1234.148)" fill="none" stroke="#c8c29c" stroke-linecap="round" stroke-linejoin="round" stroke-width="2"/>
      <path id="Path_1138" data-name="Path 1138" d="M689.67,1544.277l-12.964-14.912" transform="translate(-790.534 -1222.372)" fill="none" stroke="#c8c29c" stroke-linecap="round" stroke-width="2"/>
      <path id="Path_1139" data-name="Path 1139" d="M900.512,1675.628,680.135,1536.864" transform="translate(-786.765 -1214.13)" fill="none" stroke="#fff" stroke-linecap="round" stroke-linejoin="round" stroke-width="2"/>
      <path id="Path_1141" data-name="Path 1141" d="M693.462,1548.351l59.544,36.613-43.9,69.615-50.242-30.03" transform="translate(-810.141 -1201.504)" fill="none" stroke="#fff" stroke-linecap="round" stroke-linejoin="round" stroke-width="2"/>
      <path id="Path_1142" data-name="Path 1142" d="M735.2,1584.921l-60.038-36.605" transform="translate(-792.232 -1201.542)" fill="none" stroke="#fff" stroke-linecap="round" stroke-linejoin="round" stroke-width="2"/>
      <path id="Path_1143" data-name="Path 1143" d="M728.885,1591.888l-57.317-34.824" transform="translate(-796.181 -1191.927)" fill="none" stroke="#fff" stroke-linecap="round" stroke-linejoin="round" stroke-width="2"/>
      <path id="Path_1144" data-name="Path 1144" d="M720.439,1599.205l-52.513-31.166" transform="translate(-800.185 -1179.863)" fill="none" stroke="#fff" stroke-linecap="round" stroke-linejoin="round" stroke-width="2"/>
      <path id="Path_1145" data-name="Path 1145" d="M701.3,1596.23l-23-14.978" transform="translate(-788.788 -1165.339)" fill="none" stroke="#fff" stroke-linecap="round" stroke-linejoin="round" stroke-width="2"/>
      <path id="Path_1146" data-name="Path 1146" d="M688.686,1591.917l-24.538-14.932" transform="translate(-804.337 -1170.028)" fill="none" stroke="#fff" stroke-linecap="round" stroke-linejoin="round" stroke-width="2"/>
      <path id="Path_1165" data-name="Path 1165" d="M723.932,1526.791l23.385,7.473,16.066,17v16.858l10.265,14.564v11.944" transform="translate(-738.624 -1225.201)" fill="none" stroke="#c8c29c" stroke-linecap="round" stroke-linejoin="round" stroke-width="2"/>
      <path id="Path_1166" data-name="Path 1166" d="M766.055,1526.791l-20.744,2.568-8.942,7.274" transform="translate(-724.953 -1225.201)" fill="none" stroke="#c8c29c" stroke-linecap="round" stroke-linejoin="round" stroke-width="2"/>
      <path id="Path_1167" data-name="Path 1167" d="M719.553,1575.351l9.487-19.979V1527.1" transform="translate(-743.437 -1224.863)" fill="none" stroke="#c8c29c" stroke-linecap="round" stroke-linejoin="round" stroke-width="2"/>
      <path id="Path_1168" data-name="Path 1168" d="M763.081,1553.326l-19.634-11.8-19.226-1.295" transform="translate(-738.307 -1210.429)" fill="none" stroke="#c8c29c" stroke-width="2"/>
      <path id="Path_1169" data-name="Path 1169" d="M729.363,1573.238l-10.372-8.17.952-8.637,13.7-1.213,6.73-10.426,22.329,13.149-1.174,8.255H743.941l-3.571,7.042Z" transform="translate(-744.055 -1205.416)" fill="#d1e0a8" stroke="#c8c29c" stroke-linecap="round" stroke-linejoin="round" stroke-width="2"/>
      <path id="Path_1170" data-name="Path 1170" d="M712.191,1568.039l-8.729,18.039,16.253,12.723v9.522l29.571,22.926,18.966-28.692-28.5-16.479-27.563-18.039" transform="translate(-763.224 -1179.863)" fill="#d1e0a8" stroke="#fefcf7" stroke-linecap="round" stroke-linejoin="round" stroke-width="2"/>
      <path id="Path_1171" data-name="Path 1171" d="M763.074,1582.886l-22.064,32.636,24.5,17.527,14.179-22.536,5.251-14.31Z" transform="translate(-719.853 -1163.543)" fill="#d1e0a8" stroke="#fff" stroke-width="2"/>
      <path id="Path_883" data-name="Path 883" stroke="#207dff" d="M3669.759-702.787s-34.552-12.246-47.974-25.637-6.573-14.05-5.713-27.929-.708-4.953-5.329-38.761c-2.511-18.375,1.012-57.594,0-71.584-.674-9.327-8.411-13.021-9.679-18.724-3.389-15.282-.869-17.15,4.351-21.672,6.886-5.965,12.061,6.559,24.821,10.363s17.09-3.3,28.106,2.477,4.324,14.329,15.959,20.624c3.851,2.084,11.029-1.1,15.414,0,7.008,1.768,10.74,6.2,15.167,4.558,6.616-2.457,11.479-13.858,11.479-13.858" fill="none" transform="translate(-3556.3 1163.1)" stroke-linecap="round" stroke-linejoin="round" stroke-width="4" stroke-dasharray="8"/>
      <path id="Path_1175" data-name="Path 1175" d="M631.948,1531.238l4.91,30.6" transform="translate(-839.731 -1220.314)" fill="none" stroke="#c8c29d" stroke-linecap="round" stroke-linejoin="round" stroke-width="2"/>
      <path id="Path_1177" data-name="Path 1177" d="M665.525,1542.273l18.382,6.378" transform="translate(-802.824 -1208.184)" fill="none" stroke="#c8c29d" stroke-linecap="round" stroke-width="2"/>
      <path id="Path_1176" data-name="Path 1176" d="M658.177,1542.643l-4.893,9.624" transform="translate(-816.28 -1207.777)" fill="none" stroke="#c8c29d" stroke-linecap="round" stroke-linejoin="round" stroke-width="2"/>
      <path id="Path_1181" data-name="Path 1181" d="M674.85,1570.266l-13.861-6.849-12.164,10.457,14.531,10.881Z" transform="translate(-821.181 -1184.943)" fill="#d1e0a8"/>
      <path id="Path_885" data-name="Path 885" stroke="#207dff" d="M3746.428-935.666s-7.252,24.13-31.943,31.1c-10.74,3.032-26.349-5.586-39.414-6.859a60.656,60.656,0,0,0-27.406,3.641s-13.219,3.366-28.758,31.977-14.232,58.184-34.354,80.74-91.8-3.683-110.214,9.481-9.592,52.657-9.592,52.657" fill="none" transform="translate(-3706.765 1133.436)" stroke-linecap="round" stroke-linejoin="round" stroke-width="4" stroke-dasharray="8"/>
      <path id="Path_1183" data-name="Path 1183" d="M634.168,1580.545l10.2-5.374-4.191-10.683-8.017,5.649Z" transform="translate(-839.495 -1183.767)" fill="#d1e0a8"/>
      <path id="Path_1178" data-name="Path 1178" d="M625.2,1551.786l30.9,28.588,8.968,13.92v17.938" transform="translate(-847.147 -1197.728)" fill="none" stroke="#c8c29d" stroke-linecap="round" stroke-linejoin="round" stroke-width="2"/>
      <path id="Path_1179" data-name="Path 1179" d="M621.14,1572.839l24.419,12.294,23.122-16.165,5.474-18.483-5.474,18.483-15.645-18.483" transform="translate(-851.611 -1199.157)" fill="none" stroke="#c8c29d" stroke-linecap="round" stroke-linejoin="round" stroke-width="2"/>
      <path id="Path_1180" data-name="Path 1180" d="M646.041,1595.227l21.6-19.351v-6.54l21,2.223-5.348,11.469s-15.726-7.033-15.655-7.152,15.655,7.152,15.655,7.152l-12.956,14.615-16.183-9.1,16.183,9.1,12.956,10.993-29.139-20.1,4.64-5.512-16.288-13.691" transform="translate(-828.122 -1198.282)" fill="none" stroke="#c8c29d" stroke-linecap="round" stroke-linejoin="round" stroke-width="2"/>
      <path id="Path_1182" data-name="Path 1182" d="M632.256,1569.572l1.366,10.8,10.156-5.173-3.386-10.558" transform="translate(-839.393 -1183.595)" fill="none" stroke="#c8c29d" stroke-linecap="round" stroke-linejoin="round" stroke-width="2"/>
      <path id="Path_1185" data-name="Path 1185" d="M597.883,1539.831l18.951,39,37.524,30.386,51.917,18.9,22.582,5.819,92.279,58.883" transform="translate(-877.175 -1210.868)" fill="none" stroke="#fff" stroke-linecap="round" stroke-linejoin="round" stroke-width="2"/>
      <path id="Path_1186" data-name="Path 1186" d="M741.253,1696.405,645.7,1580.218" transform="translate(-824.62 -1166.476)" fill="none" stroke="#fff" stroke-linecap="round" stroke-linejoin="round" stroke-width="2"/>
      <path id="Path_1187" data-name="Path 1187" d="M687.176,1676.65l9.666-12.33,37.224-47.485-10.739,19.376,27.692,14.273-36.8,9.957-17.376,3.88" transform="translate(-783.224 -1129.652)" fill="none" stroke="#fff" stroke-linecap="round" stroke-linejoin="round" stroke-width="2"/>
      <path id="Path_1191" data-name="Path 1191" d="M769.48,1748.157l-9.025-67.265-26.366-28.516,9.393-9.794" transform="translate(-727.459 -1097.926)" fill="none" stroke="#fff" stroke-linecap="round" stroke-linejoin="round" stroke-width="2"/>
      <path id="Path_1188" data-name="Path 1188" d="M771.963,1751.534l-5.424-54.768-19.77-33.865-16.844-20.2-5.522,3.284-10.5-6.472" transform="translate(-749.652 -1101.303)" fill="none" stroke="#fff" stroke-linecap="round" stroke-linejoin="round" stroke-width="2"/>
      <path id="Path_1189" data-name="Path 1189" d="M777.331,1719.385l-17.911-.55-54.076-82.655" transform="translate(-759.055 -1104.963)" fill="none" stroke="#fff" stroke-linecap="round" stroke-linejoin="round" stroke-width="2"/>
      <path id="Path_1190" data-name="Path 1190" d="M829.688,1702.052l-94.273,12.582-23.535-14.071v-17.417l26.526-17.58" transform="translate(-751.87 -1072.663)" fill="none" stroke="#fff" stroke-linecap="round" stroke-linejoin="round" stroke-width="2"/>
      <path id="Path_1192" data-name="Path 1192" d="M746.745,1660.883l43.963,45.818" transform="translate(-713.548 -1077.81)" fill="none" stroke="#fff" stroke-linecap="round" stroke-linejoin="round" stroke-width="2"/>
      <path id="Path_1193" data-name="Path 1193" d="M684.786,1645.322l26.208,49.7" transform="translate(-781.652 -1094.914)" fill="none" stroke="#fff" stroke-linecap="round" stroke-linejoin="round" stroke-width="2"/>
      <path id="Path_1194" data-name="Path 1194" d="M693.079,1659.747l9.411-3.718,11.36,22.042" transform="translate(-772.537 -1083.145)" fill="none" stroke="#fff" stroke-linecap="round" stroke-linejoin="round" stroke-width="2"/>
      <path id="Path_1195" data-name="Path 1195" d="M717.661,1640.6l-18.17,13.663,19.943,33.151" transform="translate(-765.489 -1100.103)" fill="none" stroke="#fff" stroke-linecap="round" stroke-linejoin="round" stroke-width="2"/>
      <path id="Path_882" data-name="Path 882" stroke="#207dff" d="M3524.238-751.558a111.472,111.472,0,0,0,30.042-8.9c11.058-5.022,22.475-15.854,35.617-17.711,30.632-4.327,39.018-.652,56.87,9.3s15.013,18.749,25.86,25.034,17.594-1.085,17.594-1.085" fill="none" transform="translate(-3639.049 1304.588)" stroke-linecap="round" stroke-linejoin="round" stroke-width="4" stroke-dasharray="8"/>
      <path id="Path_1197" data-name="Path 1197" stroke="#142d4c" d="M791.326,1289.16,750.8,1377.515l-69.125,102.024v74l21.156,53.833,65.206,58.179" fill="none" transform="translate(-785.071 -1486.402)" stroke-linecap="round" stroke-linejoin="round" stroke-width="2" stroke-dasharray="10"/>
      <path id="Path_1198" data-name="Path 1198" d="M500.508,1393.085l27.893,70.9,40.972,41.466,97.255,56.889,100.57,59.22,61.722,62.236,80.107,40.935,80.829,60.776,31.445,100.283L1034.084,1947l-12.783,89.767" transform="translate(-984.208 -1372.169)" fill="none" stroke="#142d4c" stroke-linejoin="round" stroke-width="2" stroke-dasharray="10"/>
      <path id="Path_1199" data-name="Path 1199" stroke="#142d4c" d="M963.81,1757.009l-144.335-97.876-65.19-30.5-36.6-6.713-59.3-29.082-88.822-39.618" fill="none" transform="translate(-908.305 -1196.151)" stroke-linecap="round" stroke-linejoin="round" stroke-width="2" stroke-dasharray="10"/>
      <path id="Path_881" data-name="Path 881" d="M3922.881-1108.149c6.5-3.908,32.462,5.745,36.256,9.6s-5.779,3.023,11.467,11.078,57.515,21.14,57.515,21.14l10.62-41.814s-54.917-65.424-93.946-108.488-51.358-63.3-62.172-63.769c-27.677-1.217-65.779,17.717-81.429,30.035-21.264,16.737,3.354,23.3,0,33.734,0,0,.651,7.989-13.416,7.989s-18.62-12.966-42.85-7.989-46.4,11.775-82.05,48.549-37.083,54.551-55.927,98.186-19.445,76.355-19.445,76.355-18.875,51.92-46.832,87.708-65,55.441-65,55.441h-15.167s-20.86,26.29-30.3,50.92-.85,28.338-7.467,47.6-2.289,13-19.56,29.392-27.68,16.2-49.526,36.176c-14.44,13.2-23.225,28.4-30.4,40.988-17.552,30.782,9.724,29.4,9.724,45.963s-9.724,20.275-9.724,20.275-8.153.8-9.92,3.365.373,5.165,2.853,6.887,7.067,0,7.067,0,18.192,21.755,27.083,29.628,5.285,1.7,14.041,6.61,20.986,13.041,20.986,13.041,66.421,9.254,106.389,40.576,55.173,82.05,55.173,82.05,52.346,20.692,72.576,35.427-7.662,6.886,20.561,36.11c11.29,11.69,25.751,19.7,38.507,29.635,17.921,13.963,34.6,29.835,53.822,51.15,32.044,35.524,13.91,29.127,23.63,48.718s21.5,26.388,33.376,50.042,5.241,25.537,14.133,44.573,12.316,30.433,26.343,31.729,16.359-17.922,41.984-25.815,33.186-1.906,55.612-5.915,27.9-2.138,33.708-8.633-7.867-8.027-10.49-17.012-2.344-10.275,0-18.928,16.341-3.714,9.379-16.019-37.224-33.2-37.224-33.2l45.328-34.76s50.239,2,53.085-5.789-32.2-21.467-34.425-54.775,19.188-51.884,25.81-76.222-2.141-16.9,5.525-38.674c2.675-7.6,7.491-13.156,11.441-19.408,6.362-10.075,11.981-19.207,13.695-29,2.633-15.049-10.335-22.214-10.335-22.214V-517.7s-.824-23.887,10.335-53.25,19.792-26.38,29.054-52.916,7.825-36.013,7.992-53.227-23.141-9.017-42.981-18.059-37.329-28.868-37.329-28.868L4016.365-841.2s-101.578-61.386-153.445-88.718-49.721-17.066-54.021-20.611-3.851-14.181-3.851-14.181-.95-6.133-8.424-9.4-20.847,4.188-21.476-3.665,6.694-35.912,17.83-42.12,38.472-1.729,51.915-11.591-3.3-20.99,1.861-27.854,11.011,5.126,27.392,1.964,25.948-1.92,38.132-14.613S3916.382-1104.241,3922.881-1108.149Z" transform="translate(-3871.591 754.442)" fill="none" stroke="#142d4c" stroke-linejoin="round" stroke-width="4"/>
      <path id="Path_891" data-name="Path 891" stroke="#207dff" d="M3687.636-1083.1a66.857,66.857,0,0,0-19.543,15.857c-6.208,7.371-5.914,16.77-13.194,20.142-16.854,7.806-21.281-4.776-34.679-4.776s-18.121-1.989-20.905,9.8,5.983,27.594,2.19,34.754-10.106-10.175-17.36-6.112-11.657,22.365-11.657,22.365" fill="none" transform="translate(-3590.212 979.779)" stroke-linecap="round" stroke-linejoin="round" stroke-width="4" stroke-dasharray="8"/>
      <path id="Path_890" data-name="Path 890" stroke="#207dff" d="M3444.115-1143.048s23.375,19.512,44.816,22.546,28.624-12.287,40.948-10.411-3.731,13.27,8.268,18.188,29.258-3.727,43.7,0,3.347,10.207,9.771,14.907,17.6-5.483,21.04,3.894-8.111,18.919-7.269,33.612,7.1,3.494,8.415,21.266-4,58.939-4,58.939" fill="none" transform="translate(-3727.119 909.684)" stroke-linecap="round" stroke-linejoin="round" stroke-width="4" stroke-dasharray="8"/>
    </g>
  </g>
</svg>
