<svg xmlns="http://www.w3.org/2000/svg" xmlns:xlink="http://www.w3.org/1999/xlink" width="278.023" height="228.236" viewBox="0 0 278.023 228.236">
  <defs>
    <clipPath id="clip-path">
      <path id="Path_1460" data-name="Path 1460" d="M-887.225-1905.164l-1.444,16.5-5.88,8.128-23,17.3-21.4,10.394-27.078,11.514-18.376,3.909-20.6.475-13.276,1.714-12.031,5.591-8.952,11.975.67,9.53,7.033,10.287,17.651,14.9,18.067,6.765,19.77,7.365s6.3.794,5.95,3.9-10.65,15.635-10.65,15.635-7.819,10.787-10.457,16.84,3.5,18.311,3.5,18.311l61.961,29.578s7.112,6.216,8.98,2.75.748-4.079.748-10.981-.539-8.423,0-14.206a16.074,16.074,0,0,1,3.541-8.992,13.914,13.914,0,0,1,8.937-7.712c6.7-1.864,19.847-.91,19.847-.91l35.528,2.931,18.715-1,16.9-8.318,6.9-12.934,8.413-22.369,7.4-24.755,12.921-21.519,7.749-7.844,6.667-4.406,1.283-7.971v-9.4s-1.521-2.541-7.2-3.9-8.843,3.4-15.631-.63-5.347-8.087-10.656-12.885A29.857,29.857,0,0,0-805.3-1865.9a77.719,77.719,0,0,1-13.169-4.711c-6.238-3-7.884-2.834-16.392-8.722s-9.849-7.727-18.359-14.687-8.773-7.962-15.4-11.873-10.527-3-10.527-3h-6.776Z" transform="translate(1038.589 1911.524)" fill="#fff"/>
    </clipPath>
  </defs>
  <g id="Ouvend" transform="translate(-545.741 -1445.011)">
    <g id="Mask_Group_6" data-name="Mask Group 6" transform="translate(546.411 1442.476)" clip-path="url(#clip-path)">
      <path id="Path_1068" data-name="Path 1068" d="M533.847,1379.568l.215,26.863,16.834,11.737,8.757,21.172,15.092,4.244v7.014l17.8-3.217,3.76,8.431h11.48l8.068,4.291h12.134l9.164,3.592-4.36,11.725,11.181,12.252-3.671,11.672,3.671,8.581-15.986,5.753h-8.9l-16.76-9.7H590.6l-2.871,1.965v7.74l28.125,19.867,7.3-2.739h4.839l9.164,11.137-14,10.606-7.3-3.076-15.3,14.623,22.22,2.54,25.452,13.245v-27.332l36-15.983,11.568-5.759,3.437,5.759,39.533,12.907h23.589l23.663,26.406,11.828,12.591,4.01,15.548-15.838,11.135,5.856,7.24,32.223-7.24,19.069,7.24h23.236l5.224,8.13,19.768,6.313,27.445-6.313,3.284,6.313h-7.108l3.824,11.062H903.653l5.775,20.38,9.4,7.224V1698.2h7.377v-58.375h9.87v-9.3l28.88-5.5,8.438,9.26L969.861,1645l16.128,2.9,17.392-2.9,16.287,2.9,4.278-11.062v-8.841l-8.981-12.842V1573l8.981-39.5,30.741-45.828v-44.088l-39.723-7.434-41.57-34.928-33.064-13.028-43.8,13.028-53.373,24.335-70.4,10.593L662.37,1401.222l-87.625-13.028Z" transform="translate(-555.938 -1490.176)" fill="#d1e0a8"/>
      <path id="Path_1173" data-name="Path 1173" d="M746.064,1672.3l-8.3-12.964-44.689,24.26,28.355,35.735,2.95-6.347h4.965l-2.412-22.378,2.412-7.01Z" transform="translate(-435.202 -1278.045)" fill="#d1e0a8"/>
      <path id="Path_1108" data-name="Path 1108" d="M588.326,1527.713l1.709-.365,18.764,16.876,11.666,20.354,26.282-11.5v11.5l11.353-3.693h22.672l26.646,1.629h15.555l18.994-4.693-7.7,18.454-9.849-7.673h-22.8l-22.858-2.962-22.233,1.1-9.024,6.321v27.412l-12.195-4.111-10.758-10.992-17.637,2.3-14.819-7.01,25.184-5.987-8.915-19.394L569.937,1550l11.389-15.652Z" transform="translate(-517.51 -1377.519)" fill="#d1e0a8"/>
      <path id="Path_1109" data-name="Path 1109" d="M649.006,1611.068l-11.352-20.949-17.881-15.675L573.931,1554.9l-20.471-13.9-6.816-15.219,4.115-12.681,20.51-10.966,28.783-3.765,23.776,5.166,15.436,11.091V1487.31l45.673-20.834,44.176,17.467H753.1l36.224,40.63,2.222,14.159-15.837,11.662,7.935,7.129,30.767-8.2,19.094,8.2h23.48l5.565,8.512,19.525,5.338,27.143-5.338,1.8,5.338H905.45l2.246,10.621h-13.57l5.581,20.9,7.989,5.423,1.523,23.846,4.9,1.616,4.344-1.616-2.482-18.485,1.122-39.431h9.263V1564.7l28.788-5.592,8.371,9.894-3.376,10.415,18.291,3.8,12.778-3.8,17.31,2.575-15.269,28.2-3.195,27.938-7.894,23.983-10.784,21.933-4.6,25.4,12.232,27.567,17.348,15.2-3.787,4.986-38.627,2.59-15.7,8.743-18.877,15.115-4.741,4.325,28.633,24.507,2.665,8.945-7.679,5.917-3.081,9.04,3.081,13.294,8.976,6.185-4.83,6.987-44.925,5.17-17.213,1.711-7.195,1.727-17.827,8.712-3.735,4.174-18.817-19.675,2.212-5.975,5.345,1.47-2.565-24.853,3.3-5.879,7.518-4.129,8.541-6.943-8.541-13.417-39.14,22.113-5.121,2.376-17.977-23.275L771.826,1783.2,769.2,1765.89l-39.94-44.93L734,1713.4l8.941,8.932h5.131l21.134,25.033,4.583,1.047,14.774,24.622,1.655,7.02,16.091-7.02,8.655-8.732-1.646-4.384h-3.865l11.081-12.553,10.35,5.814v5.141h18.545l7.613-9.908-97.923-61.2-27.609-16.351-38.875-8.74-15.912-15.514v-26.5L687,1613.2l17.4-1.063,20.96,2.512,14.557,1.843H753.5l9.382,9.07,7.868-19.227-15.655,2.281H731.509l-29.783-2.281-26.571,4.734,1.566-12.894Z" transform="translate(-546.236 -1424.278)" fill="#f3e2ac" stroke="#c8c29d" stroke-linecap="round" stroke-linejoin="round" stroke-width="2"/>
      <path id="Path_1172" data-name="Path 1172" d="M626.537,1572.369l-11.831-5.69v20.828l15.719,21.188,37.6,27.909,9.821,9.26,5.374-7.892,8.249,7.892,6.6,2.221L716.641,1671l7.116,2.535L737.77,1699.9l25.264-10.889v-4.636H758.12L769.478,1671l9.639,6.708v5.158l19.282-1.409,7.089-7.923-124.681-77-37.43-9.032Z" transform="translate(-494.627 -1348.3)" fill="#eaeaea"/>
      <path id="Path_1133" data-name="Path 1133" d="M576.893,1504.148l.842,10.614,13.486,2.144v-7.578Z" transform="translate(-523.298 -1395.714)" fill="#d1e0a8"/>
      <path id="Path_1132" data-name="Path 1132" d="M628.463,1520.279l18.219.182-1.346-13.242H628.463Z" transform="translate(-484.196 -1393.387)" fill="#d1e0a8"/>
      <path id="Path_1131" data-name="Path 1131" d="M683.485,1498.8l-3.791,3.763h-5.355l-6.415,5.184-16.105,2.4,12.858-28.027,11.293,5.621,1.523,7.894Z" transform="translate(-466.487 -1412.42)" fill="#d1e0a8"/>
      <path id="Path_1102" data-name="Path 1102" d="M633.091,1557.24l-18.038-2.744L587.5,1543.637l-21.389-15.084-7.419-15.827,3.683-11.232,21.656-13.772.95-3.8-20.379,3.8-11.97-2.185,2.341,19.123H538.585l1.9,3.712-12.312,7.245,36.422,21.055,22.9,22.442,18.9,33.843,19.2-26.335Z" transform="translate(-560.239 -1411.047)" fill="#d1e0a8"/>
      <path id="Path_1147" data-name="Path 1147" d="M719.937,1548.75l-48.492,74.892" transform="translate(-451.607 -1361.895)" fill="none" stroke="#fff" stroke-linecap="round" stroke-width="2"/>
      <path id="Path_1148" data-name="Path 1148" d="M682.631,1642.621l56.834-88L720.511,1541.5l-2.644,2.875,7.957,5.348,1.66-1.163-6.973-4.185" transform="translate(-443.124 -1367.392)" fill="none" stroke="#fff" stroke-linecap="round" stroke-linejoin="round" stroke-width="2"/>
      <path id="Path_1149" data-name="Path 1149" d="M819.678,1681.947,682.4,1598.766" transform="translate(-443.3 -1323.971)" fill="none" stroke="#fff" stroke-linecap="round" stroke-width="2"/>
      <path id="Path_1150" data-name="Path 1150" d="M825.473,1681.95,705.1,1607.408l7.79-11.148-18.64-12.431" transform="translate(-434.317 -1335.296)" fill="none" stroke="#fff" stroke-linecap="round" stroke-linejoin="round" stroke-width="2"/>
      <path id="Path_1151" data-name="Path 1151" d="M707.62,1627.984l17.689-29.638" transform="translate(-424.177 -1324.289)" fill="none" stroke="#fff" stroke-linecap="round" stroke-linejoin="round" stroke-width="2"/>
      <path id="Path_1152" data-name="Path 1152" d="M704.771,1590.85l22.766,13.171" transform="translate(-426.337 -1329.973)" fill="none" stroke="#fff" stroke-linecap="round" stroke-width="2"/>
      <path id="Path_1153" data-name="Path 1153" d="M717.681,1639.928l21.77-35.1-7.741-5.745L774.3,1626.4l51.065,32.267,6.656-6.574-9.056-5.769,13.7-19.924-44.962-30.56" transform="translate(-416.548 -1326.188)" fill="none" stroke="#fff" stroke-linecap="round" stroke-linejoin="round" stroke-width="2"/>
      <path id="Path_1154" data-name="Path 1154" d="M737.315,1659.437l40.83-63.111" transform="translate(-401.661 -1325.82)" fill="none" stroke="#fff" stroke-linecap="round" stroke-linejoin="round" stroke-width="2"/>
      <path id="Path_1155" data-name="Path 1155" d="M756.769,1602.4l63.271,39.459v10.657" transform="translate(-386.91 -1321.213)" fill="none" stroke="#fff" stroke-linecap="round" stroke-linejoin="round" stroke-width="2"/>
      <path id="Path_1156" data-name="Path 1156" d="M746.745,1664.608l40.514-61.89" transform="translate(-394.511 -1320.975)" fill="none" stroke="#fff" stroke-linecap="round" stroke-linejoin="round" stroke-width="2"/>
      <path id="Path_1157" data-name="Path 1157" d="M790.339,1607.923l-30.474,46.315" transform="translate(-384.562 -1317.028)" fill="none" stroke="#fff" stroke-linecap="round" stroke-linejoin="round" stroke-width="2"/>
      <path id="Path_1158" data-name="Path 1158" d="M785.322,1639.106,740.9,1613.418l19.41-32.079-26.34-15.885-21.791,29.279" transform="translate(-420.722 -1349.23)" fill="none" stroke="#fff" stroke-linecap="round" stroke-linejoin="round" stroke-width="2"/>
      <path id="Path_1159" data-name="Path 1159" d="M736.277,1621.062l27.225-39.1,9.594,6.094-6.89,10.3,13.163,9.451" transform="translate(-402.448 -1336.715)" fill="none" stroke="#fff" stroke-linecap="round" stroke-linejoin="round" stroke-width="2"/>
      <path id="Path_1160" data-name="Path 1160" d="M835.343,1537.585l-21.36-1.673-8.345,9.818v13.736l3.252,12.594-14.925,38.034-20.386,30.563" transform="translate(-374.165 -1371.63)" fill="none" stroke="#c8c29c" stroke-linecap="round" stroke-linejoin="round" stroke-width="2"/>
      <path id="Path_1161" data-name="Path 1161" d="M807.9,1637.742,773.67,1586.4v-30.017l3.1-9.529,2.172-13.773,21.781-2.861-21.781,2.861-16.632-6.29" transform="translate(-382.71 -1378.545)" fill="none" stroke="#c8c29c" stroke-linecap="round" stroke-linejoin="round" stroke-width="2"/>
      <path id="Path_1162" data-name="Path 1162" d="M808.981,1545.428l-37.629-11.168" transform="translate(-375.852 -1372.882)" fill="none" stroke="#c8c29c" stroke-linecap="round" stroke-linejoin="round" stroke-width="2"/>
      <path id="Path_1163" data-name="Path 1163" d="M757.827,1538.884l21.027,2.021,39.312,13.212" transform="translate(-386.107 -1369.376)" fill="none" stroke="#c8c29c" stroke-linecap="round" stroke-linejoin="round" stroke-width="2"/>
      <path id="Path_1164" data-name="Path 1164" d="M790.33,1611.692l-15.6-22.76,1.471-27.786-1.471,27.786-14.852.937" transform="translate(-384.553 -1352.495)" fill="none" stroke="#c8c29c" stroke-linecap="round" stroke-linejoin="round" stroke-width="2"/>
      <path id="Path_892" data-name="Path 892" d="M3367.1-854.911l48.76,16.93,57.159,3.143,95.852,27.951,40.38,8.958,45.217,5.988,57.312-9.972,59.587-26.428,19.48-6.5v-20.073h11.364l2.626-12.329h-5.262l-2.569-19.088-6.159-9.7,37.112-36.35-71.868-39.851-69.626-32.393-2.793-10.608-11-8.119H3658.9l13.77-42.171,47.724-5.666v-27.271l21.1,3.252,35-8.812,5.481-33.273,33.932,8.153v6.77l54.238,18.351,7.879-29.785-53.583-64.852-70.219-81.8-47.677,9.82L3672.67-1246.4l7.84,19.641-11.916,6.978-32.21-9.315-34.545,14.974-39.8,28.349-34.116,59.2-16.36,39.717-6.708,42.626-15.037,35.031-30.766,48.767-37.455,36.072-25.694,4.229-22.443,41.1Z" transform="translate(-3415.121 735.524)" fill="#b0e0a8"/>
      <path id="Path_1118" data-name="Path 1118" d="M600.8,1491.47l23.951-9.694v-10.752l5.906,48.449" transform="translate(-505.173 -1420.83)" fill="none" stroke="#c8c29d" stroke-linecap="round" stroke-linejoin="round" stroke-width="2"/>
      <path id="Path_1119" data-name="Path 1119" d="M610.249,1512.292l-2.055-36.9,2.055,39.345H624.6" transform="translate(-499.565 -1417.516)" fill="none" stroke="#c8c29d" stroke-linecap="round" stroke-linejoin="round" stroke-width="2"/>
      <path id="Path_1069" data-name="Path 1069" d="M670.381,1440.981l-4.839-7.5-26.416-11.435-19.469,3.343v25.238l10.611,8.273,19.254,3.957,13.314-6.94Z" transform="translate(-490.874 -1457.969)" fill="#f3e2ac" stroke="#c8c29d" stroke-linejoin="round" stroke-width="2"/>
      <path id="Path_1089" data-name="Path 1089" d="M539.749,1379.568l25.637,1.538v24.739l-16.5,1.578-23.933,25.1-14.271,6H495.553l-4.732-3.8,40.865-32.694Z" transform="translate(-588.561 -1490.176)" fill="#f3e2ac" stroke="#c8c29d" stroke-linecap="round" stroke-linejoin="round" stroke-width="2"/>
      <path id="Path_1070" data-name="Path 1070" d="M812.9,1460.686l-134.954-35.435-17.669,9.068-17.393,29.038,35.062,16.793,6.174,5.822h12.317l7.174,6.488,13.376,4.236,11.063,13.529,11.961-8.867h5.92l-2.913,17.98L750,1531.13l20.16-2.745,28.478,9.657,14.259-9.657,4.753,2.745,6.685-17.647,27.979,29.511h11.862l3.113,7.7h13.48l10,21.048,7.722-6.288,13.152,6.288,16.249-17.948v-15.756l-16.249-2.676,16.249-6.981-13.475-31.69-23.649-10.724-19.931-30.562-31.887-9.515-3.451,17.462Z" transform="translate(-473.263 -1455.537)" fill="#f5e7b8" stroke="#c8c29d" stroke-linecap="round" stroke-linejoin="round" stroke-width="2"/>
      <path id="Path_1081" data-name="Path 1081" d="M3546.583-996.18v19.124l32.41,4.267-2.5,4.876-18.193,2.635,9.556,21.528,47.026,12.7h22.567l8.572-41.736-5.12-23.391-26.02-11.453-6.44-8.014-31.949,12.289Z" transform="translate(-3279.029 936.309)" fill="#eaeaea" stroke="#d1d1d1" stroke-linecap="round" stroke-linejoin="round" stroke-width="2"/>
      <path id="Path_1106" data-name="Path 1106" d="M3440.585-881.525l23.431,21.313,12,24.249h-29.045l-18.983-5.694-6.277-14.465Z" transform="translate(-3373.714 1038.006)" fill="#f5e7b8" stroke="#c8c29d" stroke-linecap="round" stroke-linejoin="round" stroke-width="2"/>
      <path id="Path_1101" data-name="Path 1101" d="M499.4,1482.515l19.637,10.356L513.7,1506.63l-28.424-11.979-2.606-19.615Z" transform="translate(-594.743 -1417.788)" fill="#d1e0a8"/>
      <path id="Path_1084" data-name="Path 1084" d="M790.234,1391.863l-11.872,12.042,25.614,9.58v2.354l-24.16-8.36-1.454,10.314,23.536,4.741v2.676l-21.115-4.146v6.358l18.961,3.664v2.157l-18.961-3.647.613,6.8,49.871,6.319,5.416-15.29-32.705-23.516-5.529-6.88Z" transform="translate(-370.537 -1480.852)" fill="#fff"/>
      <path id="Path_1085" data-name="Path 1085" d="M840.536,1416.7l-7.856,9.362-22.377-1.586v4.877l16.709,5.367,1.052,4.406,7.148-2.729-.78-2.719,6.1-.532,3.83-1.79v-13.694Z" transform="translate(-346.318 -1462.02)" fill="#fff"/>
      <path id="Path_1042" data-name="Path 1042" d="M718.729,1340.3l3.951,15.568" transform="translate(-415.753 -1519.948)" fill="none" stroke="#fff" stroke-linecap="round" stroke-linejoin="round" stroke-width="2"/>
      <path id="Path_1045" data-name="Path 1045" d="M670.637,1286.825,653.213,1302.9l8.967-3.342,19.964,22.382-9.164,4.7-27.543-20.079-19.088-7,17.641,8.577,1.446,8.793,7.775,8.845,8.967,8.652,11.719-5.44-17.29-12.057,15.033,12.057-15.033-9.259,12.776,9.259-12.776-7.045,11.851,8.565-12.684-6.561,10.545,7.622-11.728-5.792,8.948,7.032" transform="translate(-485.799 -1560.497)" fill="none" stroke="#fff" stroke-linecap="round" stroke-linejoin="round" stroke-width="2"/>
      <g id="Path_1046" data-name="Path 1046" transform="translate(-464.521 -1542.66)" fill="none" stroke-linecap="round" stroke-linejoin="round">
        <path d="M654.412,1313.289l16.329-2.941,9.135,8.714,4.06,11s6.172-3.214,8.229-2.248,2.057,4.584,0,6.113-6.714-1.354-8.229,0-.158,4.062,2.167,5.416,5.879-1.72,7.132,0,.74,5.16-2.121,6.879-9.321,0-9.321,0-.075,4.714-1.917,6.285a4.117,4.117,0,0,1-5.449,0c-1.362-1.165,0-4.661,0-4.661H670.74l-8.7,1.781-2.332-15.7Z" stroke="none"/>
        <path d="M 668.4815673828125 1317.867431640625 L 663.0504150390625 1318.845581054688 L 666.6309204101562 1332.90283203125 L 667.8767700195312 1341.29150390625 L 669.3370971679688 1340.99267578125 C 669.7988891601562 1340.898193359375 670.2691040039062 1340.8505859375 670.740478515625 1340.8505859375 L 674.426513671875 1340.8505859375 C 675.24609375 1340.8505859375 676.0385131835938 1341.02783203125 676.7781982421875 1341.341674804688 C 677.0225830078125 1341.0908203125 677.2870483398438 1340.857055664062 677.5704956054688 1340.642822265625 C 677.6190795898438 1340.606079101562 677.6680908203125 1340.570068359375 677.7174072265625 1340.534790039062 C 676.96728515625 1339.214477539062 676.488525390625 1337.791015625 676.3431396484375 1336.354125976562 C 676.1773681640625 1334.71630859375 676.437744140625 1333.12353515625 677.0762329101562 1331.70068359375 L 673.8692626953125 1323.007202148438 L 668.4815673828125 1317.867431640625 M 670.740478515625 1310.348022460938 L 679.8751220703125 1319.062255859375 L 683.9346923828125 1330.067016601562 C 683.9346923828125 1330.067016601562 688.5989990234375 1327.637817382812 691.1695556640625 1327.637573242188 C 691.5559692382812 1327.637451171875 691.8947143554688 1327.6923828125 692.16357421875 1327.818603515625 C 694.2208251953125 1328.78466796875 694.2208251953125 1332.40283203125 692.16357421875 1333.93115234375 C 691.70849609375 1334.269165039062 691.1260986328125 1334.391479492188 690.4788208007812 1334.391479492188 C 688.788330078125 1334.391479492188 686.6542358398438 1333.557861328125 685.1831665039062 1333.557861328125 C 684.6710205078125 1333.557861328125 684.2394409179688 1333.658813476562 683.9346923828125 1333.93115234375 C 682.4191284179688 1335.28515625 683.7767333984375 1337.9931640625 686.1016235351562 1339.347412109375 C 686.545166015625 1339.605712890625 687.0336303710938 1339.702880859375 687.5421752929688 1339.702880859375 C 689.08447265625 1339.702880859375 690.8131713867188 1338.8095703125 692.0435791015625 1338.809326171875 C 692.5337524414062 1338.809326171875 692.9444580078125 1338.951049804688 693.2332763671875 1339.347412109375 C 694.4860229492188 1341.067260742188 693.9732055664062 1344.507202148438 691.1126098632812 1346.226806640625 C 690.1592407226562 1346.800170898438 688.8056030273438 1346.991333007812 687.4248657226562 1346.991333007812 C 684.6630249023438 1346.991333007812 681.7918090820312 1346.226806640625 681.7918090820312 1346.226806640625 C 681.7918090820312 1346.226806640625 681.716552734375 1350.94091796875 679.8751220703125 1352.511962890625 C 679.021728515625 1353.240234375 678.0812377929688 1353.543823242188 677.182373046875 1353.543823242188 C 676.1420288085938 1353.543823242188 675.1573486328125 1353.137329101562 674.426513671875 1352.511962890625 C 673.0643920898438 1351.3466796875 674.426513671875 1347.8505859375 674.426513671875 1347.8505859375 L 670.740478515625 1347.8505859375 L 662.03857421875 1349.63134765625 L 659.7068481445312 1333.93115234375 L 654.41162109375 1313.288818359375 L 670.740478515625 1310.348022460938 Z" stroke="none" fill="#fff"/>
      </g>
      <path id="Path_1062" data-name="Path 1062" d="M828.759,1350.7l-33.689-19.3-10.982,6.5L772.879,1350.7l-10.222,19.284,6.936,12.727v23.951l18.562,6.187v16.516L813.283,1443Z" transform="translate(-382.446 -1526.699)" fill="#f5e7b8"/>
      <path id="Path_1051" data-name="Path 1051" d="M582.184,1381.8,536.93,1352.84l10.146-15.324,36.373,17.178-26.792,31.247-25.569,12.175-11.2-9.038" transform="translate(-566.522 -1522.061)" fill="none" stroke="#fff" stroke-linecap="round" stroke-linejoin="round" stroke-width="2"/>
      <path id="Path_1047" data-name="Path 1047" d="M602.434,1276.981l-.443,9.99.443,11.045,5.5,6.264h16.632l-18.291,1.928v8.313l-1.873-8.312-13.309,13.71-1.095,10.341" transform="translate(-513.366 -1567.961)" fill="none" stroke="#fff" stroke-linecap="round" stroke-linejoin="round" stroke-width="2"/>
      <path id="Path_1048" data-name="Path 1048" d="M581.7,1337.4l23.376-54.349-10.109,10.527,6.014,24.5-1.2-16.609-1.373-9.375" transform="translate(-519.653 -1563.361)" fill="none" stroke="#fff" stroke-linecap="round" stroke-linejoin="round" stroke-width="2"/>
      <path id="Path_888" data-name="Path 888" stroke="#7e20ff" d="M3501.994-937.808s-28.163-.177-32.844-13.314-.651-31.282,10.124-40.4,18.037,3.839,27.839,0,11.367-15.358,11.367-15.358" fill="none" transform="translate(-3339.201 942.959)" stroke-linecap="round" stroke-linejoin="round" stroke-width="4" stroke-dasharray="8"/>
      <path id="Path_1044" data-name="Path 1044" d="M629.022,1283.787l11.312,5.749,47.655-3.082,15.078,17.692-12.34,28.526" transform="translate(-483.773 -1562.799)" fill="none" stroke="#fff" stroke-linecap="round" stroke-linejoin="round" stroke-width="2"/>
      <path id="Path_1043" data-name="Path 1043" d="M607.159,1274.826l-17.643,14.422h34.65l16.532-3.738v9.637l2.9-9.637,15.322,3.738-10.761,5.9v6.619" transform="translate(-513.727 -1569.594)" fill="none" stroke="#fff" stroke-linecap="round" stroke-linejoin="round" stroke-width="2"/>
      <path id="Path_893" data-name="Path 893" d="M3660.247-946.043l4.567,3.818,22.633-8.364,9.088,6.458,3.228-12.078-19.261-6.472,19.261-16.981-23.813-21.888-11.135-27.312-63.566,12.13v10.881l-9.915,10.149-8.433-14,14.318-31.909-20.179-7.239,5.861-23.3-5.861-15.16-39.517,15.16-13.046-19.123-3.391-16.131-15.1-12.641-28.731,36.967-12.511-8.195-11.927,13.821,2.645,9.149h9.283l-5.912,15.156-12.126-4.882-15.208-16.979-2.75,6.7-4.5,3.786,4.5,6.489-25.43,58.36,66.794,39.688,17.875-19.677-10.733-13.172,2.811-10.755,7.922-6.117,53.939,27.612,4.988,39.87,44.417,14.946,36.063,4.905,3.094-4.905-22.125-5.028,13.979-13.737,18.971,13.737Z" transform="translate(-3387.656 857.148)" fill="#f5e7b8" stroke="#fff" stroke-linecap="round" stroke-linejoin="round" stroke-width="4"/>
      <path id="Path_912" data-name="Path 912" d="M3522.633-1035.233l-13.93-22.933-10.772-7.339-10.41,15.962,5.95,6.4v21.761l9.91.884,4.414,5.967Z" transform="translate(-3325.57 902.022)" fill="#dedede" stroke="#c8c29d" stroke-linecap="round" stroke-linejoin="round" stroke-width="2"/>
      <path id="Path_1056" data-name="Path 1056" d="M601.162,1358.117l6.666,6.556,11.974-1.141-11.974,2.671,1.138,7.154,8.878,5.361,15.25-7.551,11.7,7.551-1.36,17.773,14.082-11.671,5.116,30.965-13.853,2.838v-2.838l9.859-2.013-1.121-2.409-8.738,2.409,4.258-12.891-12.134.883v-15.685" transform="translate(-504.897 -1506.44)" fill="none" stroke="#fff" stroke-linecap="round" stroke-linejoin="round" stroke-width="2"/>
      <path id="Path_1099" data-name="Path 1099" d="M499.862,1503.853l7.683-20.45,24.914,16.032,28.7,8.441-13.2,7.1-23.424-7.1Z" transform="translate(-581.706 -1411.444)" fill="#f3e2ac" stroke="#c8c29d" stroke-linecap="round" stroke-linejoin="round" stroke-width="2"/>
      <g id="Path_1057" data-name="Path 1057" transform="translate(-506.851 -1494.699)" fill="none" stroke-linecap="round" stroke-linejoin="round">
        <path d="M607.177,1373.6l8.9,8.9-3.534,9.919-13.953-8.722,2.98-3.654Z" stroke="none"/>
        <path d="M 607.3779296875 1379.461669921875 L 604.6244506835938 1382.625366210938 L 604.5517578125 1382.714477539062 L 610.439697265625 1386.395141601562 L 611.4555053710938 1383.54345703125 L 607.3779296875 1379.461669921875 M 607.1765747070312 1373.600341796875 L 616.0717163085938 1382.504760742188 L 612.5382080078125 1392.424194335938 L 598.5848999023438 1383.701782226562 L 601.5652465820312 1380.047485351562 L 607.1765747070312 1373.600341796875 Z" stroke="none" fill="#fff"/>
      </g>
      <path id="Path_1058" data-name="Path 1058" d="M613.444,1370.1l-6.428,23.708,16.813,7.969,14.112-9.161Z" transform="translate(-500.458 -1497.353)" fill="none" stroke="#fff" stroke-linecap="round" stroke-linejoin="round" stroke-width="2"/>
      <path id="Path_1059" data-name="Path 1059" d="M629.825,1383.726l-14.707-15.789" transform="translate(-494.315 -1498.995)" fill="none" stroke="#fff" stroke-linecap="round" stroke-linejoin="round" stroke-width="2"/>
      <path id="Path_1060" data-name="Path 1060" d="M596.169,1382.495l24.015,13.043,3.917-6.087,7.693,3.05,2.747,8.755,19.386-1.012-2.262-3.042-17.124,1.647v-3.31h17.124" transform="translate(-508.683 -1487.956)" fill="none" stroke="#fff" stroke-linecap="round" stroke-linejoin="round" stroke-width="2"/>
      <path id="Path_1174" data-name="Path 1174" d="M739.979,1725.609l-45.3-49.793,2.791,22.857,13.422,28.451,10.048,8.679Z" transform="translate(-433.991 -1265.548)" fill="#79d7f5" stroke="#c8c29d" stroke-width="2"/>
      <path id="Path_1105" data-name="Path 1105" d="M564.513,1475.036l-1.731,4.684H546.3l-18.457,15.385-19.424-10.489-5.009,1.9,27.791,18.542,21.236,7.391,3.265-13.783,16.9-20Z" transform="translate(-579.015 -1417.788)" fill="#d1e0a8"/>
      <path id="Path_1061" data-name="Path 1061" d="M797.018,1330.545l-17.876,15.374-16,23.688,8.268,12.757v25.256H761.381l-2.492,18.774h17.365l18.738,4.972,21.882,14.143" transform="translate(-385.303 -1527.347)" fill="none" stroke="#fff" stroke-linecap="round" stroke-linejoin="round" stroke-width="4"/>
      <path id="Path_1095" data-name="Path 1095" d="M489.412,1438.784l16.257-15.243,8,6.2H529.33l18.429-8.221,22.526-24.147,15.968-1.441,16.979,10.792,6.456,14.8-6.456,21.393,3,16.018-8.343,9.253-17.247,2.25-3.18-6.244,5.21-2.425,10.821-11.2V1436l-7.237-6.26,7.237-14.1-2.837-3.5H570.286v11.4l-13.117-2.024-10.755,6.7-17.084,5.209-2.323,14.043H518.17l-7.008-14.043L501.421,1436l-12.009,9.3,5.009,5.257,19.245,2.045,8.9,13.314,23.851,9.2,6.166,3.573h12.735v8.7h-6.65l-7.436-4.47H527.007l-6.878,1.37-6.464,7.173v9.065l12.007,1.49,11.677,8.617-13.444-3-3.776,3,17.22,15.99v17.63l-7.335,8.52-16.349-6.64-22.22-28.308,1.439-7.191,13.874-6.313-1.089-5.132-1.886-8.816v-5.011l-12.338-14.932v-8.669L483,1458.929l-3.329,16.188,9.741,19.269,10.361,13.251-8.327,17.682,9.975,28.722L473.5,1529.032l-7.806-2.406,10.255-7.173L483,1505.6l-12.347-18.213-1.665-16.959Z" transform="translate(-607.617 -1477.77)" fill="#d1e0a8"/>
      <path id="Path_911" data-name="Path 911" d="M3520.217-1049.988l-38.432-10.418-15.207-1.37-9.416,2.8-8.183,7.86-5.789,13.671,9.9,13.627" transform="translate(-3359.258 901.333)" fill="none" stroke="#c8c29d" stroke-linecap="round" stroke-width="2"/>
      <path id="Path_1029" data-name="Path 1029" d="M601.174,1296.131l9.1-30.6,39.866-16.4L633.947,1244s-19.216,19.932-19.734,19.762" transform="translate(-504.888 -1592.972)" fill="none" stroke="#fff" stroke-linecap="round" stroke-linejoin="round" stroke-width="2"/>
      <path id="Path_898" data-name="Path 898" d="M3450.855-1005.348l8.484-13.468,8.22-50.516-14.578-4.034-2.126,6.311-18.76-7.775-23.079,44.825" transform="translate(-3383.339 891.434)" fill="none" stroke="#c8c29d" stroke-width="2"/>
      <path id="Path_894" data-name="Path 894" d="M3414.724-1078.44l31.906,13.328a208.241,208.241,0,0,0-10.739,37.515,208.43,208.43,0,0,0-2.381,38.957" transform="translate(-3379.008 888.697)" fill="none" stroke="#fff" stroke-linecap="round" stroke-linejoin="round" stroke-width="4"/>
      <path id="Path_895" data-name="Path 895" d="M3473.835-1041.042l-63.336-27.5" transform="translate(-3382.212 896.2)" fill="none" stroke="#fff" stroke-linecap="round" stroke-width="4"/>
      <path id="Path_896" data-name="Path 896" d="M3477.151-1034.91l-15.263,2.081-55.76-26.127" transform="translate(-3385.526 903.472)" fill="none" stroke="#fff" stroke-linecap="round" stroke-width="2"/>
      <path id="Path_1033" data-name="Path 1033" d="M663.833,1276.452l20.921,3.064,31.352,22.5,7.384,4.677,14.809-4.677" transform="translate(-457.377 -1568.362)" fill="none" stroke="#fff" stroke-linecap="round" stroke-linejoin="round" stroke-width="2"/>
      <path id="Path_1034" data-name="Path 1034" d="M709.21,1289.674l.33,13.661,13.889,17.353,8.027,27.667H721.242l-19.01,18.257v6.49l-37.111,7.833" transform="translate(-456.401 -1558.336)" fill="none" stroke="#fff" stroke-linecap="round" stroke-linejoin="round" stroke-width="2"/>
      <path id="Path_1054" data-name="Path 1054" d="M554.328,1366.329l-3.284,14.859-30.731-4.1" transform="translate(-566.2 -1500.214)" fill="none" stroke="#fff" stroke-linecap="round" stroke-linejoin="round" stroke-width="2"/>
      <path id="Path_897" data-name="Path 897" d="M3484.355-1118.552s-20.473,19.8-33.139,40.8a180.43,180.43,0,0,0-18.292,43.111" transform="translate(-3365.208 858.284)" fill="none" stroke="#fff" stroke-linecap="round" stroke-width="4"/>
      <path id="Path_899" data-name="Path 899" d="M3442.313-1040.342h19.16l34.638-49.253-15.663-11.647-7.275-9.788" transform="translate(-3358.089 863.986)" fill="none" stroke="#c8c29d" stroke-linecap="round" stroke-linejoin="round" stroke-width="2"/>
      <path id="Path_1063" data-name="Path 1063" d="M815.7,1336.416l-23.217,15.991-7.108,18.2v52.986l-2.04-15.016-18.27-5.468" transform="translate(-380.622 -1522.894)" fill="none" stroke="#fff" stroke-linecap="round" stroke-linejoin="round" stroke-width="2"/>
      <path id="Path_1064" data-name="Path 1064" d="M811.652,1375.984l-14.576,4.067H776.057" transform="translate(-372.285 -1492.893)" fill="none" stroke="#fff" stroke-linecap="round" stroke-linejoin="round" stroke-width="2"/>
      <path id="Path_1065" data-name="Path 1065" d="M786.18,1342.378l3.494,27.533-3.494,21.781,7.154,12.353" transform="translate(-364.61 -1518.374)" fill="none" stroke="#fff" stroke-linecap="round" stroke-linejoin="round" stroke-width="2"/>
      <path id="Path_1066" data-name="Path 1066" d="M819.728,1379.161l-37.514-7.051-12-12.245,20.854-27.509" transform="translate(-376.717 -1525.974)" fill="none" stroke="#fff" stroke-linecap="round" stroke-linejoin="round" stroke-width="2"/>
      <path id="Path_1067" data-name="Path 1067" d="M779.876,1352.3l-12.886,22.068" transform="translate(-379.16 -1510.852)" fill="none" stroke="#fff" stroke-linecap="round" stroke-linejoin="round" stroke-width="2"/>
      <path id="Path_900" data-name="Path 900" d="M3456.885-1056.354l-15.266-10.132" transform="translate(-3358.616 897.761)" fill="none" stroke="#c8c29d" stroke-linecap="round" stroke-width="2"/>
      <path id="Path_901" data-name="Path 901" d="M3462.137-1046.248l-9.01-24.444" transform="translate(-3349.89 894.572)" fill="none" stroke="#c8c29d" stroke-linecap="round" stroke-width="2"/>
      <path id="Path_902" data-name="Path 902" d="M3471.077-1065.515l-13.44-11.183Z" transform="translate(-3346.471 890.019)" fill="none" stroke="#c8c29d" stroke-linecap="round" stroke-width="2"/>
      <path id="Path_1107" data-name="Path 1107" d="M597.694,1567.051l4.622-9.421h9.161l17.356,18.963,1.075,10.908-6.085-6.789-8.867-5.763Z" transform="translate(-509.285 -1355.162)" fill="#f5e7b8" stroke="#c8c29d" stroke-width="2"/>
      <path id="Path_903" data-name="Path 903" d="M3464.847-1037.275v-15.4l24.34-30.72,19.9-9.7h21.436" transform="translate(-3341.004 877.583)" fill="none" stroke="#c8c29d" stroke-linecap="round" stroke-linejoin="round" stroke-width="2"/>
      <path id="Path_904" data-name="Path 904" d="M3533.622-1053.336l-17.7-14.364-24.392-11.45-40.154-24.029" transform="translate(-3351.217 869.939)" fill="none" stroke="#c8c29d" stroke-width="2"/>
      <path id="Path_905" data-name="Path 905" d="M3496.723-1099.955v18l-5.007,15.339" transform="translate(-3320.629 872.384)" fill="none" stroke="#c8c29d" stroke-width="2"/>
      <path id="Path_907" data-name="Path 907" d="M3512.547-1089.134l-8.758,24.61-11.267,21.513" transform="translate(-3320.019 880.59)" fill="none" stroke="#c8c29d" stroke-width="2"/>
      <path id="Path_908" data-name="Path 908" d="M3485.307-1070.826l-7.887,12.774v10.859" transform="translate(-3331.471 894.471)" fill="none" stroke="#c8c29d" stroke-linecap="round" stroke-linejoin="round" stroke-width="2"/>
      <path id="Path_906" data-name="Path 906" d="M3533.64-1033.446l-97.215-70.248" transform="translate(-3362.554 869.548)" fill="none" stroke="#fff" stroke-linecap="round" stroke-linejoin="round" stroke-width="4"/>
      <path id="Path_909" data-name="Path 909" d="M3487.33-1046.876l9.034-17.732Z" transform="translate(-3323.957 899.186)" fill="none" stroke="#fff" stroke-linecap="round" stroke-linejoin="round" stroke-width="4"/>
      <path id="Path_1035" data-name="Path 1035" d="M697.712,1308.015l36.666-4.244,15.728,11.1,14.42,22.035,21.729-17.945,22.986,11.956-1.19,19.681,4.651,31.245-9.406-10.833H780.742l-11.57,6.933-4.646,15.8,3.018,21.164-6.907,23.269" transform="translate(-431.689 -1547.647)" fill="none" stroke="#fff" stroke-linecap="round" stroke-linejoin="round" stroke-width="2"/>
      <path id="Path_910" data-name="Path 910" d="M3493.931-1034.605v-11.362l-35.57-10.644" transform="translate(-3345.92 905.248)" fill="none" stroke="#c8c29d" stroke-width="2"/>
      <path id="Path_913" data-name="Path 913" d="M3493.216-1007l1.971-15.788,6.908-12.4" transform="translate(-3319.492 921.492)" fill="none" stroke="#c8c29d" stroke-linecap="round" stroke-width="2"/>
      <path id="Path_914" data-name="Path 914" d="M3519.967-1003.394v-12.272l-25.123-11.605" transform="translate(-3318.26 927.496)" fill="none" stroke="#c8c29d" stroke-linecap="round" stroke-width="2"/>
      <path id="Path_1037" data-name="Path 1037" d="M698.15,1307.18l15.944,21.716,2.713,8.648,9.954,12.261,10.218,9.873L723.8,1382.114l-9.7-2.46" transform="translate(-431.357 -1545.062)" fill="none" stroke="#fff" stroke-linecap="round" stroke-linejoin="round" stroke-width="2"/>
      <path id="Path_915" data-name="Path 915" d="M3515.945-977.137v-9.035l37.036-58.159,19.488-14.1,7.857,14.1,13.865,8.736" transform="translate(-3302.26 903.873)" fill="none" stroke="#c8c29d" stroke-linecap="round" stroke-width="2"/>
      <path id="Path_916" data-name="Path 916" d="M3569.6-1054.107l-1.423-10.358-48.495,9.319,1.8,10.807h20.506v-5.023l21.939-12.727" transform="translate(-3299.427 899.294)" fill="none" stroke="#c8c29d" stroke-linecap="round" stroke-width="2"/>
      <path id="Path_917" data-name="Path 917" d="M3522.038-1039.231v-13.781" transform="translate(-3297.64 907.978)" fill="none" stroke="#c8c29d" stroke-linecap="round" stroke-width="2"/>
      <path id="Path_918" data-name="Path 918" d="M3509.132-1003.442l16.383-23.97v-17.808h6.65" transform="translate(-3307.425 913.886)" fill="none" stroke="#c8c29d" stroke-linecap="round" stroke-width="2"/>
      <path id="Path_1104" data-name="Path 1104" d="M559.86,1432.526l14.983,2.089,7.706,9.766-4.4,13.526-14.849-4.766-4.924,4.766L547.2,1473.754v5.848H537.143l-8.563-8.134-1.294-8.694,6.676-6.95,22.956-8.568v-9.69Z" transform="translate(-560.912 -1450.02)" fill="#d1e0a8"/>
      <path id="Path_919" data-name="Path 919" d="M3570.28-1008.935l-13.607-8.089-20.364,2.641-38-20.062" transform="translate(-3315.632 922.056)" fill="none" stroke="#c8c29d" stroke-linecap="round" stroke-width="2"/>
      <path id="Path_920" data-name="Path 920" d="M3555.746-1020.2l3.1-12.58-5.888-13.666" transform="translate(-3274.192 912.958)" fill="none" stroke="#c8c29d" stroke-linecap="round" stroke-width="2"/>
      <path id="Path_887" data-name="Path 887" stroke="#7e20ff" d="M3745.284-998.433s-36.955,19.355-79.957,22.494S3572.982-988,3572.982-988s-49.619-17.564-87.933-26.327c-23.962-5.481-41.228-2.506-61.448-7.529-51.583-12.817-56.951-17.408-56.951-17.408" fill="none" transform="translate(-3415.462 918.4)" stroke-linecap="round" stroke-linejoin="round" stroke-width="4" stroke-dasharray="8"/>
      <path id="Path_921" data-name="Path 921" d="M3540.06-1010.585l25.046-20.727" transform="translate(-3283.973 924.432)" fill="none" stroke="#c6bba0" stroke-linecap="round" stroke-width="2"/>
      <path id="Path_922" data-name="Path 922" d="M842.84,1217.706a68.59,68.59,0,0,1-38.771-12.634c-18.808-13.422-24.448-34.508-36.46-41.057-17.219-9.387-54.973-17.294-54.973-17.294L717,1164.016" transform="translate(-420.374 -1666.728)" fill="none" stroke="#fff" stroke-width="2"/>
      <path id="Path_889" data-name="Path 889" stroke="#7e20ff" d="M3666.619-984.256s-24.971-31.068-42.554-51.1-10.309-29.264-21.23-32.22-90.137,11.154-108.7,21.039-7.564,78.025-7.564,78.025" fill="none" transform="translate(-3326.985 896.634)" stroke-linecap="round" stroke-linejoin="round" stroke-width="4" stroke-dasharray="8"/>
      <path id="Path_1103" data-name="Path 1103" d="M570.045,1450.13l-16.153-5-7.569,10.7-6.675,7.461,4.874,10.453,15.463-5.111Z" transform="translate(-551.54 -1440.461)" fill="#fff" stroke="#fff" stroke-linecap="round" stroke-linejoin="round" stroke-width="2"/>
      <path id="Path_1026" data-name="Path 1026" d="M603.376,1239.146l45.038,13.635,25.761,5.6,42.511,14.31,2.536-18.376,7.446,15.576H740.7l12.085,8.208" transform="translate(-503.218 -1596.649)" fill="none" stroke="#fff" stroke-linecap="round" stroke-linejoin="round" stroke-width="2"/>
      <path id="Path_1024" data-name="Path 1024" d="M696.966,1184.8l.43-21.191" transform="translate(-432.255 -1653.92)" fill="none" stroke="#fff" stroke-linecap="round" stroke-width="2"/>
      <path id="Path_1015" data-name="Path 1015" d="M796.06,1287.614l-4.344-17.528-16.732-31.893-8.159-14.31-15.834-12.911-17.554,5.009-17.944-5.009H696.966l11.042-20.416,19.814-16.53,14.723-25.333,11.306-3.247v-11.77" transform="translate(-432.255 -1676.62)" fill="none" stroke="#fff" stroke-linecap="round" stroke-linejoin="round" stroke-width="2"/>
      <path id="Path_1016" data-name="Path 1016" d="M746.71,1224.629l4.357-13.367-4.357-14.49,12.215-24.885,6.449,4.436L746.71,1132.4l-8.657,22.251-14.807,7.064" transform="translate(-412.328 -1677.59)" fill="none" stroke="#fff" stroke-linecap="round" stroke-linejoin="round" stroke-width="2"/>
      <path id="Path_1017" data-name="Path 1017" d="M740.324,1215.331l36.329-25.006,5.385-2.782,12.884-6.655-15.37-21.7v31.133" transform="translate(-399.379 -1657.272)" fill="none" stroke="#fff" stroke-linecap="round" stroke-linejoin="round" stroke-width="2"/>
      <path id="Path_1018" data-name="Path 1018" d="M620.477,1217.241l80.844-27.037,32.722-15.417,7.677,7.554,13.11-2.8-9.939,24.021,50.831,78.524" transform="translate(-490.252 -1645.45)" fill="none" stroke="#fff" stroke-linecap="round" stroke-linejoin="round" stroke-width="2"/>
      <path id="Path_1019" data-name="Path 1019" d="M755.98,1274.922l-28.724,3.592L712.9,1269.6l6.054-5.041H705.062l-10.942-17.562-15.58-9.887-5.648-30.9,32.17-15.216" transform="translate(-450.508 -1633.164)" fill="none" stroke="#fff" stroke-linecap="round" stroke-linejoin="round" stroke-width="2"/>
      <path id="Path_1020" data-name="Path 1020" d="M642.707,1177.453l-1.871,25.388,6.2,10.977-4.326,17.59v14.022l10.537,12.82,9.065,4.213" transform="translate(-474.815 -1643.427)" fill="none" stroke="#fff" stroke-linecap="round" stroke-linejoin="round" stroke-width="2"/>
      <path id="Path_1096" data-name="Path 1096" d="M507.91,1441.562l-7.885-14.69-7.25,1.569-12.587,10.705,2.541,4.8,20.45,2.359,8.289,12.505,18.951,7.5,10.542,4.3,12.553,2.236v7.516h-7.224l-7.912-3.647H509.983l-6.8,10.245v7.61h12.766l11.85,8.708-14.458-2.5-3.355,2.5,17.813,19.559v14.457l17.164,11.786,18.293-15.965h17.916l4.03-11.659-2.346-20.682h-9.523l-10.077-9.533v-9.057l6.006-5.469,23.635-7.9V1455.95l-19.565,8.827-7.461-5.967,16.984-14.865v-15.5l-7.327-5.538,7.327-14.258-1.684-3.718-20.882,1.335v10.86l-12.466-1.965-27.762,11.715-4.112,14.69Z" transform="translate(-596.624 -1470.948)" fill="#f3e2ac" stroke="#c8c29d" stroke-linecap="round" stroke-linejoin="round" stroke-width="2"/>
      <path id="Path_1021" data-name="Path 1021" d="M693.974,1214.138l-14.405,2.353-26.732-20.8,5.709-13.1-11.112-2.528-2.345,5.256,10.162,4.322" transform="translate(-471.59 -1641.45)" fill="none" stroke="#fff" stroke-linecap="round" stroke-linejoin="round" stroke-width="2"/>
      <path id="Path_1022" data-name="Path 1022" d="M655.213,1192.56l-14.11-7.091" transform="translate(-474.612 -1637.348)" fill="none" stroke="#fff" stroke-linecap="round" stroke-linejoin="round" stroke-width="2"/>
      <path id="Path_1023" data-name="Path 1023" d="M682.471,1183.929l-2.988,12.407v9.958" transform="translate(-445.512 -1638.518)" fill="none" stroke="#fff" stroke-linecap="round" stroke-linejoin="round" stroke-width="2"/>
      <path id="Path_1077" data-name="Path 1077" d="M641.879,1458.823l31.239-35.17,134.849,38.311h25.279l-20.634.938,1.456,23.343,17.025,11.071-1.851-9.885v-14.384s3.735-9.914,4-11.083" transform="translate(-474.024 -1456.749)" fill="none" stroke="#fff" stroke-linecap="round" stroke-linejoin="round" stroke-width="2"/>
      <path id="Path_1078" data-name="Path 1078" d="M743.748,1448.522l.1,16.223" transform="translate(-396.783 -1437.892)" fill="none" stroke="#fff" stroke-linecap="round" stroke-linejoin="round" stroke-width="2"/>
      <path id="Path_1079" data-name="Path 1079" d="M799.526,1509.363l-12.873-28.856-16.045-11.644-21.085-3.775" transform="translate(-392.404 -1425.331)" fill="none" stroke="#fff" stroke-linecap="round" stroke-linejoin="round" stroke-width="2"/>
      <path id="Path_1080" data-name="Path 1080" d="M779.7,1493.166l7.471-2.4-2.464-6.244h-9.032" transform="translate(-372.576 -1410.595)" fill="none" stroke="#fff" stroke-linecap="round" stroke-linejoin="round" stroke-width="2"/>
      <path id="Path_1025" data-name="Path 1025" d="M765.857,1192.926l-5.017-7.941H736.8" transform="translate(-402.052 -1637.715)" fill="none" stroke="#fff" stroke-linecap="round" stroke-linejoin="round" stroke-width="2"/>
      <path id="Path_1027" data-name="Path 1027" d="M619.544,1264.369l8.562-9.463,15.415,1.956-13.281-21.906-2.134-18.422" transform="translate(-490.959 -1613.793)" fill="none" stroke="#fff" stroke-linecap="round" stroke-linejoin="round" stroke-width="2"/>
      <path id="Path_1028" data-name="Path 1028" d="M661.894,1254.816l-10.044,2.726v-7.592L632.293,1239.2" transform="translate(-481.292 -1596.609)" fill="none" stroke="#fff" stroke-linecap="round" stroke-linejoin="round" stroke-width="2"/>
      <path id="Path_1030" data-name="Path 1030" d="M603.376,1275.528l42.66-19.838" transform="translate(-503.218 -1584.104)" fill="none" stroke="#fff" stroke-linecap="round" stroke-linejoin="round" stroke-width="2"/>
      <path id="Path_1031" data-name="Path 1031" d="M638.8,1253.608l44.013,31.984-1.947,23.2" transform="translate(-476.358 -1585.683)" fill="none" stroke="#fff" stroke-linecap="round" stroke-linejoin="round" stroke-width="2"/>
      <path id="Path_1032" data-name="Path 1032" d="M669.225,1258.821l-2.967,22.826" transform="translate(-455.539 -1585.246)" fill="none" stroke="#fff" stroke-linecap="round" stroke-linejoin="round" stroke-width="2"/>
      <path id="Path_1036" data-name="Path 1036" d="M735.639,1322.181l3.582,13.46,6.063,13.565,8.891,8.486" transform="translate(-402.932 -1533.689)" fill="none" stroke="#fff" stroke-linecap="round" stroke-linejoin="round" stroke-width="2"/>
      <path id="Path_1038" data-name="Path 1038" d="M712.449,1384.172l5.814,15.694,9.759,4.682v8.37l2.176-9.546,8.166-3.505H742.1v-26.312l3.486-8.315V1348.9L730.2,1330.776l-6.167-11.674v-14.637" transform="translate(-420.516 -1547.12)" fill="none" stroke="#fff" stroke-linecap="round" stroke-linejoin="round" stroke-width="2"/>
      <path id="Path_1039" data-name="Path 1039" d="M708.5,1305.308l14.208,8.244,5.994,19.891-25.3,2.847" transform="translate(-427.373 -1546.482)" fill="none" stroke="#fff" stroke-linecap="round" stroke-linejoin="round" stroke-width="2"/>
      <path id="Path_1040" data-name="Path 1040" d="M739.9,1311.8l-2.22,25.389L732,1343.845l-3,7.76-15.083-6.556" transform="translate(-419.402 -1541.558)" fill="none" stroke="#fff" stroke-linecap="round" stroke-linejoin="round" stroke-width="2"/>
      <path id="Path_1041" data-name="Path 1041" d="M754.82,1339.234l-9.012,5.5H732.5l-9.932-10.244" transform="translate(-412.845 -1524.359)" fill="none" stroke="#fff" stroke-linecap="round" stroke-linejoin="round" stroke-width="2"/>
      <path id="Union_2" data-name="Union 2" d="M0,144.224l1.893-11.461L17.681,113.6l19.954,5.447,3.182-3.358-21.628-7.222L17.681,84.023,33.266,79.6l9.1-17.864,6.681,2.579-6.675-3.07L46.819,45.58l-7.657-9.843L25.346,34.025,22.868,14.232,27.444,0,44.4,5.163v7.1L62.045,8.725l4.536,9.824,11.744-1.294,8.809,4.385H97.641l8.713,3.566-3.72,12.488L113.98,49.9l-3.815,11.344,3.815,9.018L90.327,76.354l-17.8-10.368L50.463,64.862,56.2,67.078V76.8l24.258,7.22,3.988,13.364L95.92,91.694l9.853,11.919L91.72,113.6l-5.9-3.173L63.656,130.465l-18.6-6.281L26.626,128.6l-11.017-4.419,3.579,20.7Z" transform="translate(-25.239 -51.814)" fill="#f3e2ac" stroke="#c8c29d" stroke-linecap="round" stroke-linejoin="round" stroke-width="2"/>
      <path id="Path_1049" data-name="Path 1049" d="M586.415,1344.1l-3.03-22.06-4.99-5.934,8.02-11.6" transform="translate(-522.16 -1547.091)" fill="none" stroke="#fff" stroke-linecap="round" stroke-linejoin="round" stroke-width="2"/>
      <path id="Path_1050" data-name="Path 1050" d="M588.37,1320.81l-5.813-4.521-9.65-1.274" transform="translate(-526.321 -1539.122)" fill="none" stroke="#fff" stroke-linecap="round" stroke-linejoin="round" stroke-width="2"/>
      <path id="Path_1052" data-name="Path 1052" d="M550.744,1364.377l-15.491-6.73" transform="translate(-554.871 -1506.797)" fill="none" stroke="#fff" stroke-linecap="round" stroke-linejoin="round" stroke-width="2"/>
      <path id="Path_1053" data-name="Path 1053" d="M540.682,1365.317l13.858,10.375" transform="translate(-550.755 -1500.981)" fill="none" stroke="#fff" stroke-linecap="round" stroke-linejoin="round" stroke-width="2"/>
      <path id="Path_1086" data-name="Path 1086" d="M772.844,1392.841l9.879,10.573-2.781,1.083-8.785-9.529-2.262,2.523,8.876,9.538" transform="translate(-377.716 -1480.111)" fill="none" stroke="#fff" stroke-linecap="round" stroke-linejoin="round" stroke-width="2"/>
      <path id="Path_1087" data-name="Path 1087" d="M770.907,1433.9l19.574,5.65-5.037,9.317h-7.85l-5.739-6.323Z" transform="translate(-376.19 -1448.979)" fill="#fff"/>
      <path id="Path_1055" data-name="Path 1055" d="M564.155,1366.329l-7.279,13.749" transform="translate(-538.476 -1500.214)" fill="none" stroke="#fff" stroke-linecap="round" stroke-linejoin="round" stroke-width="2"/>
      <path id="Path_1071" data-name="Path 1071" d="M654.412,1429.82l41.556,13.168,45.826,14.25,5.683-14.25,9.1,3.019-7.4,20.787-10.754,30.219,13.771-30.219,18.931,7.551-14.551,49.212-18.151-6.582" transform="translate(-464.521 -1452.072)" fill="none" stroke="#c8c29d" stroke-linecap="round" stroke-linejoin="round" stroke-width="2"/>
      <path id="Path_1072" data-name="Path 1072" d="M728.7,1442.509l-3.441,14.832,23.893,6" transform="translate(-410.804 -1442.451)" fill="none" stroke="#c8c29d" stroke-linecap="round" stroke-linejoin="round" stroke-width="2"/>
      <path id="Path_1073" data-name="Path 1073" d="M777.1,1442.509l-6.542,9.127,20.124,21.915H767.873l-5.112,11.782" transform="translate(-382.366 -1442.451)" fill="none" stroke="#c8c29d" stroke-linecap="round" stroke-linejoin="round" stroke-width="2"/>
      <path id="Path_1074" data-name="Path 1074" d="M793.859,1505.159l-3.715-9.952h-4.4l-9.687-25.43,3.6-9.349" transform="translate(-372.289 -1428.865)" fill="none" stroke="#c8c29d" stroke-linecap="round" stroke-linejoin="round" stroke-width="2"/>
      <path id="Path_1075" data-name="Path 1075" d="M794.732,1462.651l-2.8,13.507,12.717,28.025" transform="translate(-360.251 -1427.179)" fill="none" stroke="#c8c29d" stroke-linecap="round" stroke-linejoin="round" stroke-width="2"/>
      <path id="Path_1076" data-name="Path 1076" d="M777.409,1463.309l13.313,4.12,8.793,23.375-10.275,2.492,10.275-2.492,4.99,13.091" transform="translate(-371.26 -1426.679)" fill="none" stroke="#c8c29d" stroke-linecap="round" stroke-linejoin="round" stroke-width="2"/>
      <path id="Path_1082" data-name="Path 1082" d="M741.46,1465.021l-.765-37.047,8.032-8.789H759.3l-2.084,12.845-15.752-2.473,14.527,1.246,1.919-10.747h-9.178l-7.268,8.488,13.808,1.013,1.36-8.7h-7.9l-5.393,7.121h11.35l.584-6.228h-6.541l-2.844,5.23h7.906v-4.161H749.24l-1.371,3.06h5.084v-2.146h-2.881v1.233h1.868" transform="translate(-399.098 -1460.136)" fill="none" stroke="#fff" stroke-linecap="round" stroke-linejoin="round" stroke-width="2"/>
      <path id="Path_1083" data-name="Path 1083" d="M862.831,1443.868l-75.26-20.185" transform="translate(-363.555 -1456.725)" fill="none" stroke="#000" stroke-linecap="round" stroke-linejoin="round" stroke-width="2"/>
      <path id="Path_1090" data-name="Path 1090" d="M489.889,1436.127l5.875,6.007,17.618-1.12,13.44-4.887,25.145-26.483,17.566-1.9v-28.147" transform="translate(-589.268 -1490.157)" fill="none" stroke="#fff" stroke-linecap="round" stroke-linejoin="round" stroke-width="2"/>
      <path id="Path_1091" data-name="Path 1091" d="M557.62,1481.983l-7.125-39.948,7.25-18.958-7.25-16.96-15.743-10.549" transform="translate(-555.252 -1478.043)" fill="none" stroke="#fff" stroke-linecap="round" stroke-linejoin="round" stroke-width="2"/>
      <path id="Path_1092" data-name="Path 1092" d="M543.443,1391.852l7.948,14.29,16.781,1.11,84.786,26.785,4.441-4.362,11.449,3.994-3.552,5.77,14.209-5.288,16.861-10.712-15.667-4.326-38.87-5.348-25.369-9.8-46.6-10.719-11.763-6.39Z" transform="translate(-548.662 -1484.647)" fill="#eaeaea" stroke="#d1d1d1" stroke-linecap="round" stroke-linejoin="round" stroke-width="2"/>
      <path id="Path_1093" data-name="Path 1093" d="M550.283,1399.992l-3.7,7.1,4.159,3.02,3.12-1.261,7.758,14.018,26.174,2.314,23.626,13.855,37.2,2.364,7.293,4.516,6.1-4.516h9.871l1.939-6.622-105.031-33.437Z" transform="translate(-546.278 -1474.689)" fill="#bcbcbc" stroke="#bcbcbc" stroke-linecap="round" stroke-linejoin="round" stroke-width="2"/>
      <path id="Path_1094" data-name="Path 1094" d="M535.1,1387.132l15.943,4.909v10.53l8.094,8.017,14.659-1.577,95.585,30.346,1.441-1.76-11.219-3.277,2.051-1.486,10.725,3.347v-1.861l-8.124-2.495" transform="translate(-554.986 -1484.439)" fill="none" stroke="#fff" stroke-linecap="round" stroke-linejoin="round" stroke-width="2"/>
      <path id="Path_1097" data-name="Path 1097" d="M483.209,1432.535l14.006,24.949v11.389l3.143,6.928-3.143,8.453-16.672-19.731-6.79-13.909,1.827-14.683Z" transform="translate(-601.503 -1450.014)" fill="#f3e2ac" stroke="#c8c29d" stroke-linecap="round" stroke-linejoin="round" stroke-width="2"/>
      <path id="Path_1098" data-name="Path 1098" d="M480.189,1474.82l7.748-10.765,13.341,24.565-5.343,9.3Z" transform="translate(-596.624 -1426.113)" fill="#f3e2ac" stroke="#c8c29d" stroke-linecap="round" stroke-linejoin="round" stroke-width="2"/>
      <g id="Ellipse_42" data-name="Ellipse 42" transform="translate(-4.24 2.679)" fill="#fff" stroke="#c8c29d" stroke-linejoin="round" stroke-width="2">
        <circle cx="7.033" cy="7.033" r="7.033" stroke="none"/>
        <circle cx="7.033" cy="7.033" r="6.033" fill="none"/>
      </g>
      <path id="Path_1110" data-name="Path 1110" d="M551.707,1507.6l41.306,19.473,17.53,5.954,119.136,1.366v-10l-7.751-12.661h-9.908l6.566-13.377,5.81-18.956-23.255-7.092-3.556,11.5,1.467,8.611,2.088,22.389,2.076,18.214" transform="translate(-542.395 -1419.853)" fill="none" stroke="#c8c29d" stroke-width="2"/>
      <path id="Path_1111" data-name="Path 1111" d="M566,1487.566l-.664,45.954" transform="translate(-532.061 -1408.287)" fill="none" stroke="#c8c29d" stroke-linecap="round" stroke-linejoin="round" stroke-width="2"/>
      <path id="Path_1112" data-name="Path 1112" d="M554.188,1498.165l40.191-.78,16.052.78,12.612,13.1,1.475,46.82" transform="translate(-540.515 -1400.842)" fill="none" stroke="#c8c29d" stroke-linecap="round" stroke-linejoin="round" stroke-width="2"/>
      <path id="Path_1113" data-name="Path 1113" d="M576.262,1486.75l2.221,55.365" transform="translate(-523.777 -1408.906)" fill="none" stroke="#c8c29d" stroke-linecap="round" stroke-linejoin="round" stroke-width="2"/>
      <path id="Path_1114" data-name="Path 1114" d="M576.262,1489.967l22.277,1.278,17.794,10.6,11.14,17.906" transform="translate(-523.777 -1406.466)" fill="none" stroke="#c8c29d" stroke-linecap="round" stroke-linejoin="round" stroke-width="2"/>
      <path id="Path_1115" data-name="Path 1115" d="M586.925,1503.621l5.409-12.018" transform="translate(-515.693 -1405.227)" fill="none" stroke="#c8c29d" stroke-linecap="round" stroke-linejoin="round" stroke-width="2"/>
      <path id="Path_1116" data-name="Path 1116" d="M561.126,1538.219l27.58,2.927,19.152,2.658,19.856,9.312,51.808-2.591-6.7-70.939,5.231-10.117" transform="translate(-535.254 -1422.009)" fill="none" stroke="#c8c29d" stroke-linecap="round" stroke-linejoin="round" stroke-width="2"/>
      <path id="Path_1117" data-name="Path 1117" d="M584.694,1511.984l-.388,18.53" transform="translate(-517.677 -1389.773)" fill="none" stroke="#c8c29d" stroke-linecap="round" stroke-linejoin="round" stroke-width="2"/>
      <path id="Path_1136" data-name="Path 1136" d="M648.809,1514.447l-.809,20.19" transform="translate(-469.383 -1387.904)" fill="none" stroke="#c8c29c" stroke-linecap="round" stroke-linejoin="round" stroke-width="2"/>
      <path id="Path_1120" data-name="Path 1120" d="M616.242,1486.043l34.807-1.289L684.4,1495.3l3.778-10.541-14.865-5.458" transform="translate(-491.704 -1412.8)" fill="none" stroke="#c8c29d" stroke-linecap="round" stroke-linejoin="round" stroke-width="2"/>
      <path id="Path_1121" data-name="Path 1121" d="M660.059,1475.394,659,1489.687" transform="translate(-462.799 -1415.758)" fill="none" stroke="#c8c29d" stroke-linecap="round" stroke-linejoin="round" stroke-width="2"/>
      <path id="Path_1122" data-name="Path 1122" d="M623.088,1574.917l-5.338-77.482" transform="translate(-492.32 -1400.805)" fill="none" stroke="#c8c29d" stroke-linecap="round" stroke-linejoin="round" stroke-width="2"/>
      <path id="Path_1123" data-name="Path 1123" d="M597.692,1561.577l12.462-20,10.776,9.341,20.363,1.646,16.27-4.115-5.19-26.389,6.606,26.389,12.934-1.413-3-39.2,3,39.2,8.53,16.116,18.013,5.536,2.021.621-1.334-31.23H686.254v19.739l-5.811,5.335-1.414,12.124s1.347-12.5,1.414-12.124l20.034,6.157,16.807-.621,1.951-16.124-4.858-14.486s-14.537.159-15.234,0" transform="translate(-507.528 -1392.914)" fill="none" stroke="#c8c29d" stroke-linecap="round" stroke-linejoin="round" stroke-width="2"/>
      <path id="Path_1184" data-name="Path 1184" d="M690.115,1525.863l14.222-21.892,16.005-3.839,12.981-5.318,15.136,6.643,36.933-3.054,10.972,9.719-27.419,10.156,6.807,11.338H726.958l-20.282-8.427Z" transform="translate(-437.45 -1402.791)" fill="#79d7f5" stroke="#79d7f5" stroke-linecap="round" stroke-linejoin="round" stroke-width="2"/>
      <path id="Path_884" data-name="Path 884" stroke="#7e20ff" d="M3617.823-823.068s5.014-16.2,2.746-27.425-7.266-.4-11.823-17.474-4.241-22.1-1.972-42.886,9.14-22.646,11.048-40.262,2.236-26.931-3.816-35.45-15.546-4.988-23.591-10.7-8.586-12.136-8.586-12.136,31.185-18.369,56.45-18.369,47.084,20.68,47.084,20.68" fill="none" transform="translate(-3252.304 927.121)" stroke-linecap="round" stroke-linejoin="round" stroke-width="4" stroke-dasharray="8"/>
      <path id="Path_1140" data-name="Path 1140" d="M661.222,1621.745,677,1578.038l17.035-41.113" transform="translate(-459.357 -1370.861)" fill="none" stroke="#fff" stroke-linecap="round" stroke-linejoin="round" stroke-width="2"/>
      <path id="Path_1124" data-name="Path 1124" d="M659.837,1497.771l9.137,13.6-3.935,13.271,1.793,20.733" transform="translate(-460.407 -1400.549)" fill="none" stroke="#c8c29d" stroke-linecap="round" stroke-linejoin="round" stroke-width="2"/>
      <path id="Path_1125" data-name="Path 1125" d="M663.9,1481.79l13.414,6.948v7.021l6.324,2.125-3.305,5.945H674.01l-6.577,4.891-15.817,1.77" transform="translate(-466.641 -1412.667)" fill="none" stroke="#c8c29d" stroke-linecap="round" stroke-linejoin="round" stroke-width="2"/>
      <path id="Path_1126" data-name="Path 1126" d="M684.083,1534.352l4.71-12.957-1.406-14.678-10.2-11.838-1.271-6.348-8.966-2.458" transform="translate(-455.017 -1409.419)" fill="none" stroke="#c8c29d" stroke-linecap="round" stroke-linejoin="round" stroke-width="2"/>
      <path id="Path_1127" data-name="Path 1127" d="M684,1556.062l-12.53-22.729-4.017-38.794" transform="translate(-454.632 -1403)" fill="none" stroke="#c8c29c" stroke-linecap="round" stroke-linejoin="round" stroke-width="2"/>
      <path id="Path_1128" data-name="Path 1128" d="M582.046,1526.5l22.221,4.577h43.659l18.214-15.28-18.214,15.28-15.767,15.551-10.618,30.662" transform="translate(-519.392 -1386.883)" fill="none" stroke="#fff" stroke-linecap="round" stroke-linejoin="round" stroke-width="2"/>
      <path id="Path_1129" data-name="Path 1129" d="M708.171,1514.073l-69.551.688" transform="translate(-476.495 -1388.188)" fill="none" stroke="#fff" stroke-linecap="round" stroke-linejoin="round" stroke-width="2"/>
      <path id="Path_1130" data-name="Path 1130" d="M659.02,1489.967l-7.9,12.656" transform="translate(-467.014 -1406.466)" fill="none" stroke="#c8c29d" stroke-linecap="round" stroke-linejoin="round" stroke-width="2"/>
      <path id="Path_1134" data-name="Path 1134" d="M585.259,1506.909l-.5,8.3" transform="translate(-517.336 -1393.621)" fill="none" stroke="#c8c29d" stroke-width="2"/>
      <path id="Path_1135" data-name="Path 1135" d="M630.216,1516.35l15.622-1.9" transform="translate(-482.867 -1387.904)" fill="none" stroke="#fff" stroke-linecap="round" stroke-linejoin="round" stroke-width="2"/>
      <path id="Path_1137" data-name="Path 1137" d="M681.735,1518.651l9.567,14.331-7.486,17.051" transform="translate(-443.804 -1384.717)" fill="none" stroke="#c8c29c" stroke-linecap="round" stroke-linejoin="round" stroke-width="2"/>
      <path id="Path_1138" data-name="Path 1138" d="M687.564,1541.855l-10.859-12.49" transform="translate(-447.617 -1376.593)" fill="none" stroke="#c8c29c" stroke-linecap="round" stroke-width="2"/>
      <path id="Path_1139" data-name="Path 1139" d="M864.719,1653.089,680.135,1536.863" transform="translate(-445.017 -1370.908)" fill="none" stroke="#fff" stroke-linecap="round" stroke-linejoin="round" stroke-width="2"/>
      <path id="Path_1141" data-name="Path 1141" d="M687.843,1548.351l49.873,30.666-36.766,58.308-42.082-25.153" transform="translate(-461.142 -1362.198)" fill="none" stroke="#fff" stroke-linecap="round" stroke-linejoin="round" stroke-width="2"/>
      <path id="Path_1142" data-name="Path 1142" d="M725.448,1578.976l-50.287-30.66" transform="translate(-448.788 -1362.225)" fill="none" stroke="#fff" stroke-linecap="round" stroke-linejoin="round" stroke-width="2"/>
      <path id="Path_1143" data-name="Path 1143" d="M719.576,1586.231l-48.007-29.168" transform="translate(-451.512 -1355.592)" fill="none" stroke="#fff" stroke-linecap="round" stroke-linejoin="round" stroke-width="2"/>
      <path id="Path_1144" data-name="Path 1144" d="M711.91,1594.143l-43.984-26.1" transform="translate(-454.274 -1347.269)" fill="none" stroke="#fff" stroke-linecap="round" stroke-linejoin="round" stroke-width="2"/>
      <path id="Path_1145" data-name="Path 1145" d="M697.562,1593.8l-19.268-12.546" transform="translate(-446.413 -1337.251)" fill="none" stroke="#fff" stroke-linecap="round" stroke-linejoin="round" stroke-width="2"/>
      <path id="Path_1146" data-name="Path 1146" d="M684.7,1589.492l-20.552-12.506" transform="translate(-457.139 -1340.486)" fill="none" stroke="#fff" stroke-linecap="round" stroke-linejoin="round" stroke-width="2"/>
      <path id="Path_1165" data-name="Path 1165" d="M723.932,1526.791l19.587,6.259,13.456,14.239v14.12l8.6,12.2v10" transform="translate(-411.808 -1378.545)" fill="none" stroke="#c8c29c" stroke-linecap="round" stroke-linejoin="round" stroke-width="2"/>
      <path id="Path_1166" data-name="Path 1166" d="M761.234,1526.791l-17.375,2.151-7.49,6.093" transform="translate(-402.378 -1378.545)" fill="none" stroke="#c8c29c" stroke-linecap="round" stroke-linejoin="round" stroke-width="2"/>
      <path id="Path_1167" data-name="Path 1167" d="M719.553,1567.514l7.946-16.734V1527.1" transform="translate(-415.129 -1378.312)" fill="none" stroke="#c8c29c" stroke-linecap="round" stroke-linejoin="round" stroke-width="2"/>
      <path id="Path_1168" data-name="Path 1168" d="M756.77,1551.2l-16.445-9.885-16.1-1.084" transform="translate(-411.589 -1368.355)" fill="none" stroke="#c8c29c" stroke-width="2"/>
      <path id="Path_1169" data-name="Path 1169" d="M727.678,1568.618l-8.687-6.843.8-7.234,11.473-1.016,5.637-8.733,18.7,11.014-.983,6.914H739.889l-2.991,5.9Z" transform="translate(-415.555 -1364.897)" fill="#d1e0a8" stroke="#c8c29c" stroke-linecap="round" stroke-linejoin="round" stroke-width="2"/>
      <path id="Path_1170" data-name="Path 1170" d="M710.773,1568.038l-7.311,15.109,13.613,10.657v7.975l24.768,19.2,15.885-24.032-23.869-13.8-23.086-15.109" transform="translate(-429.088 -1347.269)" fill="#d1e0a8" stroke="#fefcf7" stroke-linecap="round" stroke-linejoin="round" stroke-width="2"/>
      <path id="Path_1171" data-name="Path 1171" d="M759.49,1582.886l-18.481,27.335,20.521,14.68,11.876-18.875,4.4-11.986Z" transform="translate(-398.86 -1336.012)" fill="#d1e0a8" stroke="#fff" stroke-width="2"/>
      <path id="Path_883" data-name="Path 883" stroke="#7e20ff" d="M3658.35-736.227s-28.941-10.257-40.182-21.474-5.506-11.768-4.785-23.393-.594-4.149-4.464-32.466c-2.1-15.391.848-48.239,0-59.957-.565-7.812-7.045-10.906-8.107-15.683-2.838-12.8-.728-14.365,3.644-18.152,5.768-5,10.1,5.493,20.789,8.68s14.315-2.763,23.542,2.075,3.623,12,13.366,17.274c3.226,1.745,9.239-.921,12.911,0,5.87,1.481,9,5.194,12.7,3.818,5.542-2.057,9.615-11.607,9.615-11.607" fill="none" transform="translate(-3238.889 1017.417)" stroke-linecap="round" stroke-linejoin="round" stroke-width="4" stroke-dasharray="8"/>
      <path id="Path_1175" data-name="Path 1175" d="M631.948,1531.237l4.113,25.632" transform="translate(-481.554 -1375.174)" fill="none" stroke="#c8c29d" stroke-linecap="round" stroke-linejoin="round" stroke-width="2"/>
      <path id="Path_1177" data-name="Path 1177" d="M665.525,1542.273l15.4,5.342" transform="translate(-456.095 -1366.807)" fill="none" stroke="#c8c29d" stroke-linecap="round" stroke-width="2"/>
      <path id="Path_1176" data-name="Path 1176" d="M657.382,1542.643l-4.1,8.061" transform="translate(-465.377 -1366.526)" fill="none" stroke="#c8c29d" stroke-linecap="round" stroke-linejoin="round" stroke-width="2"/>
      <path id="Path_1181" data-name="Path 1181" d="M670.623,1569.153l-11.61-5.736-10.188,8.759L661,1581.289Z" transform="translate(-468.758 -1350.774)" fill="#d1e0a8"/>
      <path id="Path_885" data-name="Path 885" stroke="#7e20ff" d="M3700.334-935.666s-6.075,20.211-26.756,26.049c-9,2.54-22.069-4.679-33.012-5.745a50.8,50.8,0,0,0-22.955,3.049s-11.072,2.819-24.088,26.783S3581.6-836.8,3564.75-817.9s-76.885-3.085-92.312,7.942-8.034,44.1-8.034,44.1" fill="none" transform="translate(-3342.682 996.954)" stroke-linecap="round" stroke-linejoin="round" stroke-width="4" stroke-dasharray="8"/>
      <path id="Path_1183" data-name="Path 1183" d="M633.842,1577.936l8.546-4.5-3.51-8.948-6.715,4.731Z" transform="translate(-481.391 -1349.963)" fill="#d1e0a8"/>
      <path id="Path_1178" data-name="Path 1178" d="M625.2,1551.785l25.879,23.946,7.511,11.659v15.024" transform="translate(-486.67 -1359.593)" fill="none" stroke="#c8c29d" stroke-linecap="round" stroke-linejoin="round" stroke-width="2"/>
      <path id="Path_1179" data-name="Path 1179" d="M621.14,1569.208l20.453,10.3,19.367-13.539,4.586-15.481-4.586,15.481-13.1-15.481" transform="translate(-489.749 -1360.579)" fill="none" stroke="#c8c29d" stroke-linecap="round" stroke-linejoin="round" stroke-width="2"/>
      <path id="Path_1180" data-name="Path 1180" d="M645.468,1588.089l18.092-16.208V1566.4l17.592,1.862-4.48,9.605s-13.172-5.89-13.112-5.99,13.112,5.99,13.112,5.99l-10.852,12.241-13.555-7.624,13.555,7.624,10.852,9.208-24.406-16.832,3.886-4.617L642.51,1566.4" transform="translate(-473.546 -1359.975)" fill="none" stroke="#c8c29d" stroke-linecap="round" stroke-linejoin="round" stroke-width="2"/>
      <path id="Path_1182" data-name="Path 1182" d="M632.255,1568.771l1.144,9.047,8.506-4.333-2.836-8.843" transform="translate(-481.321 -1349.845)" fill="none" stroke="#c8c29d" stroke-linecap="round" stroke-linejoin="round" stroke-width="2"/>
      <path id="Path_1185" data-name="Path 1185" d="M597.882,1539.831l15.873,32.666,31.429,25.451,43.485,15.83,18.914,4.874,77.291,49.319" transform="translate(-507.384 -1368.658)" fill="none" stroke="#fff" stroke-linecap="round" stroke-linejoin="round" stroke-width="2"/>
      <path id="Path_1186" data-name="Path 1186" d="M725.732,1677.534,645.7,1580.218" transform="translate(-471.13 -1338.035)" fill="none" stroke="#fff" stroke-linecap="round" stroke-linejoin="round" stroke-width="2"/>
      <path id="Path_1187" data-name="Path 1187" d="M687.176,1666.934l8.1-10.327,31.178-39.773-9,16.229,23.194,11.955-30.823,8.339-14.554,3.25" transform="translate(-443.195 -1313.139)" fill="none" stroke="#fff" stroke-linecap="round" stroke-linejoin="round" stroke-width="2"/>
      <path id="Path_1191" data-name="Path 1191" d="M763.732,1731.01l-7.558-56.34-22.084-23.885,7.867-8.2" transform="translate(-404.106 -1290.748)" fill="none" stroke="#fff" stroke-linecap="round" stroke-linejoin="round" stroke-width="2"/>
      <path id="Path_1188" data-name="Path 1188" d="M762.532,1733.339l-4.544-45.873L741.43,1659.1l-14.108-16.922-4.625,2.751-8.8-5.421" transform="translate(-419.416 -1293.078)" fill="none" stroke="#fff" stroke-linecap="round" stroke-linejoin="round" stroke-width="2"/>
      <path id="Path_1189" data-name="Path 1189" d="M765.639,1705.87l-15-.46-45.292-69.23" transform="translate(-425.902 -1295.602)" fill="none" stroke="#fff" stroke-linecap="round" stroke-linejoin="round" stroke-width="2"/>
      <path id="Path_1190" data-name="Path 1190" d="M810.554,1696.126l-78.961,10.538-19.712-11.786V1680.29l22.218-14.724" transform="translate(-420.946 -1273.322)" fill="none" stroke="#fff" stroke-linecap="round" stroke-linejoin="round" stroke-width="2"/>
      <path id="Path_1192" data-name="Path 1192" d="M746.745,1660.882l36.822,38.376" transform="translate(-394.511 -1276.872)" fill="none" stroke="#fff" stroke-linecap="round" stroke-linejoin="round" stroke-width="2"/>
      <path id="Path_1193" data-name="Path 1193" d="M684.786,1645.322l21.951,41.629" transform="translate(-441.49 -1288.671)" fill="none" stroke="#fff" stroke-linecap="round" stroke-linejoin="round" stroke-width="2"/>
      <path id="Path_1194" data-name="Path 1194" d="M693.079,1659.143l7.882-3.114,9.515,18.462" transform="translate(-435.202 -1280.552)" fill="none" stroke="#fff" stroke-linecap="round" stroke-linejoin="round" stroke-width="2"/>
      <path id="Path_1195" data-name="Path 1195" d="M714.709,1640.6l-15.219,11.444,16.7,27.767" transform="translate(-430.34 -1292.25)" fill="none" stroke="#fff" stroke-linecap="round" stroke-linejoin="round" stroke-width="2"/>
      <path id="Path_882" data-name="Path 882" stroke="#7e20ff" d="M3524.238-756.171a93.369,93.369,0,0,0,25.161-7.454c9.262-4.207,18.825-13.28,29.831-14.834,25.658-3.624,32.682-.546,47.635,7.792s12.574,15.7,21.66,20.968,14.736-.909,14.736-.909" fill="none" transform="translate(-3295.972 1115.018)" stroke-linecap="round" stroke-linejoin="round" stroke-width="4" stroke-dasharray="8"/>
      <path id="Path_1197" data-name="Path 1197" stroke="#142d4c" d="M773.516,1289.16l-33.942,74-57.9,85.453V1510.6l17.72,45.089,54.615,48.729" fill="none" transform="translate(-443.849 -1558.726)" stroke-linecap="round" stroke-linejoin="round" stroke-width="2" stroke-dasharray="10"/>
      <path id="Path_881" data-name="Path 881" d="M3823.771-1136.135c5.443-3.273,27.191,4.812,30.367,8.037s-4.84,2.532,9.6,9.279,48.173,17.707,48.173,17.707l8.9-35.022s-46-54.8-78.688-90.868-43.017-53.019-52.074-53.412c-23.182-1.019-55.1,14.839-68.2,25.157-17.812,14.019,2.81,19.518,0,28.255,0,0,.545,6.692-11.236,6.692s-15.6-10.86-35.891-6.692-38.863,9.863-68.724,40.663-31.061,45.691-46.843,82.239-16.287,63.953-16.287,63.953-15.809,43.488-39.226,73.462-54.441,46.436-54.441,46.436h-12.7s-17.472,22.019-25.381,42.65-.712,23.736-6.254,39.871-1.916,10.888-16.383,24.618-23.184,13.572-41.481,30.3c-12.1,11.057-19.452,23.786-25.465,34.331-14.7,25.782,8.145,24.628,8.145,38.5S3321.531-693,3321.531-693s-6.83.672-8.308,2.818.312,4.326,2.388,5.768,5.92,0,5.92,0,15.237,18.222,22.684,24.816,4.427,1.422,11.761,5.537,17.577,10.922,17.577,10.922,55.634,7.751,89.111,33.986,46.211,68.724,46.211,68.724,43.844,17.331,60.788,29.673-6.417,5.768,17.222,30.245c9.456,9.791,21.569,16.5,32.253,24.822,15.01,11.7,28.977,24.989,45.081,42.842,26.839,29.755,11.65,24.4,19.792,40.806s18.007,22.1,27.954,41.914,4.389,21.389,11.838,37.334,10.316,25.49,22.065,26.576,13.7-15.011,35.165-21.622,27.8-1.6,46.58-4.954,23.371-1.791,28.232-7.231-6.59-6.723-8.785-14.249-1.965-8.606,0-15.854,13.686-3.11,7.855-13.417-31.179-27.811-31.179-27.811l37.967-29.115s42.078,1.679,44.462-4.849-26.97-17.98-28.834-45.878,16.071-43.457,21.618-63.842-1.792-14.157,4.627-32.393c2.242-6.364,6.275-11.02,9.584-16.256,5.329-8.439,10.034-16.088,11.471-24.293,2.206-12.6-8.657-18.606-8.657-18.606v-35s-.69-20.008,8.657-44.6,16.577-22.1,24.334-44.321,6.554-30.164,6.694-44.582-19.382-7.553-36-15.125-31.267-24.18-31.267-24.18l13.68-98.149s-85.08-51.415-128.522-74.308-41.646-14.294-45.247-17.263-3.227-11.878-3.227-11.878-.795-5.137-7.056-7.872-17.459,3.507-17.986-3.069,5.606-30.079,14.933-35.279,32.223-1.449,43.483-9.708-2.763-17.581,1.559-23.33,9.224,4.293,22.944,1.645,21.732-1.608,31.938-12.239S3818.329-1132.862,3823.771-1136.135Z" transform="translate(-3456.384 735.517)" fill="none" stroke="#142d4c" stroke-linejoin="round" stroke-width="4"/>
      <path id="Path_891" data-name="Path 891" stroke="#207dff" d="M3668.932-1083.1a55.984,55.984,0,0,0-16.368,13.282c-5.2,6.174-4.954,14.046-11.052,16.87-14.116,6.538-17.824-4-29.046-4s-15.178-1.665-17.511,8.207,5.011,23.112,1.836,29.11-8.465-8.522-14.541-5.12-9.764,18.733-9.764,18.733" fill="none" transform="translate(-3262.903 892.199)" stroke-linecap="round" stroke-linejoin="round" stroke-width="4" stroke-dasharray="8"/>
      <path id="Path_890" data-name="Path 890" stroke="#207dff" d="M3444.115-1143.047s19.579,16.343,37.537,18.884,23.974-10.291,34.3-8.719-3.126,11.114,6.925,15.234,24.506-3.122,36.6,0,2.8,8.549,8.184,12.486,14.739-4.592,17.622,3.261-6.794,15.846-6.089,28.152,5.949,2.927,7.049,17.813-3.347,49.366-3.347,49.366" fill="none" transform="translate(-3356.724 843.226)" stroke-linecap="round" stroke-linejoin="round" stroke-width="4" stroke-dasharray="8"/>
      <path id="Path_1443" data-name="Path 1443" d="M892.354,1423.069l-47.7-56.772-15.6-30.375-51.822,7.051-35.689,7.264-27.464,9.839-8.185,26.862,2.494,22.332,3.451,31.013,58.331,11.483H813.8l30.861-8.079Z" transform="translate(-550.32 -1509.203)" fill="red" opacity="0"/>
      <path id="Path_1444" data-name="Path 1444" d="M946.882,1267.52l31.211,6.754v10.143l56.244,20.352,10.559-38.263L918.54,1125.2l-42.113,7.162-36.206,23.881L846.588,1177l-6.367,9.049-29.4-9.049-28.1,4.492-26.9,15.347-37.647,33.063-26.066,44.369-24.917,87.838v9.056l37.587,18.052,30.594-11.775,7.779,1.408-1.6,12.008,5.061,4.9L786,1392.931l3.17,7.387v6.347l17.129,1.2,2.784,9.769-7.168,17.856,3.206,12.244,3.962,6.149v22.358l-2.784,26.783,43.988-5.945,10.928,2.213,5.322,17.358,17.216,22.183,8.537,9.516,7.973-12.916,11.642,9.273,2.9-12.231-2.9-14.172,4.337-13.448,17.533-1.832,12.012,7.858,13.417-2.32,12.036-19.76,22.283-15.22-96.4-55.949-44.69-16.221L846,1382.949l-21.863-1.5,2.154-20.785,14-19.782,33.255-4.263,12.772-9.271-3.472-14.058,1.878-6.088,13.808,3.839,26.674-3.839,14.578-10.6,4.632-16.239Z" transform="translate(-579.667 -1668.984)" fill="#ffeb00" opacity="0"/>
      <path id="Path_1445" data-name="Path 1445" d="M722.692,1264.145l35.716,18.021,18.523-2.749,16.244-7.171,10.973,1.571-3.287,8.349,3.287,8.136,28.973-2.194,12.108-1.027,3.459,12.638,6.613,1.929,10.459-1.929,1.813,12.022-5.774,16.278v10.694l5.774,10.09-1.813,49.335-30.257,5.4-24.272,8.029-11.938,8.691-4.562,19.834v18.579l4.562,35.912-93.073-27.23-63.645-6.456-52.944-15.347,7.185-35.769,22.763-31.362h12.814l46.494-35.886,27.333-42.811Z" transform="translate(-638.475 -1563.627)" fill="#80ff01" opacity="0"/>
      <path id="Path_1446" data-name="Path 1446" d="M465.689,1536.4l7.706-.591,8.259-12.725L477.6,1509.8l-10.863-11.932,6.661-21.214,24.152-29.567,28.638-19.944,26.974-25.325,5.588-26.543,55.987,17.182,60.771,5.35,43.48,12.77,67.845,19-6.564,13.643-12.282,1.7-15.447-3.112-9.879,8.516-6.311,16.625v18.589l7.741,6.6,15.06,5.18,3.344,11.069-5.979,13.729-18.576,15.386-23.971,14.664-41.583,16.257-21.547,2.258H632.6l-19.209,8.554-2.638,11.4v9.444l10.131,9.468,10.637,8.213,16.017,7.094,20.174,6.692,13.09,4.749-8.418,12.6L656.8,1673.986,630.6,1636.3l-26.857-24.135-35.432-15-42.95-11.2-18.915-11.871-12.414-4.444-18.354-21.966-2.283-3.544-7.706,1.692Z" transform="translate(-607.617 -1493.433)" fill="#00ff9d" opacity="0"/>
      <path id="Path_1448" data-name="Path 1448" d="M902.018,1440.163l-11.245-4.655-20.357-2.94L843.37,1415.4l-23.289-20.381-22.869-9.265-22.713,1.888-35.528,13.52-3.776,4.221,7.53,10.017,22.771,6.632,6.624,14.91-3.169,26.994-7.5,24.049-4.284,27.1,2.483,26.29,12.471,19.8-3.169,29.843,17.244,10.582,17.6,1.875,10.953,1.94,7.722,14.715,23.759,5.282,4.363,2.41,13.5-13.574-2.185-30.036L866.4,1550.3l14.635-35.206,15.275-21.525,5.707-22.633Z" transform="translate(-403.268 -1485.483)" fill="#ff0" opacity="0"/>
      <path id="Path_1449" data-name="Path 1449" d="M812.481,1676.461l1.8-21.6,10.341-16.532,9.458-20.457,2.477-20.06v-11.117l10.891-17.3,8.9-15.486,5.087-16.4-9.612-11.324-15.262,13.308-21.3-5.908-7.469-1.974-6.443-15.215-25.6-2.837-18.65-10.315-5.6,10.315v12.625l8.686,10.39v58.668l3.957,27.158,1,13.9-1,11.508,11.9,14.155,26.882,13.309Z" transform="translate(-390.911 -1396.402)" fill="#ffb100" opacity="0"/>
      <path id="Path_1451" data-name="Path 1451" d="M848.685,1696.3l-.45-7.974L816.46,1661.88l-12.3,3.137-7.886-4.212-12.958-14.951-6.539-5.369L753.784,1633,726,1636.026l-23.9,13.727-26.938,8.374,15.662,25.493,13.285,18.877,7.819,20.678,3.617,17.765L726,1758.7l10.787,9.448,11.547-3.947,14.145-13.7,24.731-8.62h21.854l34.031-4.738,7.421-6.482-7.421-5.486-5.311-9.307.871-9.665,3.248-5.5Z" transform="translate(-448.784 -1298.015)" fill="#0062ff" opacity="0"/>
      <path id="Path_1452" data-name="Path 1452" d="M845.076,1440.2l13.273-90.215-32.614-18.129-21.135,12.8-10.626,18.9-8.734,4.454-13.553-2.226-10.436-4.1H749.788l-5.368,10.062,2.928,19.767v9.025l-10.307-2.634-4.184-4.7-9.2,10.672,28.974,34.367,24.218-9.388,17.123-3.653,20.721,3.653,14.633,6.947,13.538,10.095Z" transform="translate(-412.014 -1526.353)" fill="#d801ff" opacity="0"/>
      <path id="Path_1454" data-name="Path 1454" d="M946.882,1267.52l31.211,6.754v10.143l56.244,20.352,10.559-38.263L918.54,1125.2l-42.113,7.162-36.206,23.881L846.588,1177l-6.367,9.049-29.4-9.049-28.1,4.492-26.9,15.347-37.647,33.063-26.066,44.369-24.917,87.838v9.056l37.587,18.052,30.594-11.775,7.779,1.408-1.6,12.008,5.061,4.9L786,1392.931l3.17,7.387v6.347l17.129,1.2,2.784,9.769-7.168,17.856,3.206,12.244,3.962,6.149v22.358l-2.784,26.783,43.988-5.945,10.928,2.213,5.322,17.358,17.216,22.183,8.537,9.516,7.973-12.916,11.642,9.273,2.9-12.231-2.9-14.172,4.337-13.448,17.533-1.832,12.012,7.858,13.417-2.32,12.036-19.76,22.283-15.22-96.4-55.949-44.69-16.221L846,1382.949l-21.863-1.5,2.154-20.785,14-19.782,33.255-4.263,12.772-9.271-3.472-14.058,1.878-6.088,13.808,3.839,26.674-3.839,14.578-10.6,4.632-16.239Z" transform="translate(-579.667 -1668.984)" fill="#ffeb00" opacity="0"/>
      <path id="Path_1467" data-name="Path 1467" stroke="#7e20ff" d="M3442.415-791.454l24.822-36.935L3419.961-845.9s-21.453-14.826-24.787-27.5c-1.219-4.627,2.881-4.76,4.146-7.973,1.642-4.238,2.964-8.719,20.641-13.264,8.945-2.3,14.212-.963,22.354-.835,6.859.112,16.483-.93,33.9-7.647,35.26-13.6,38.924-18.842,60.22-34.173s2.817-34.631,18.657-30.328,25.651,20.648,46.611,32.717,20.007,8.027,30.548,13.893,6.644,11.7,15.326,16.169,13.2-1.835,19.405,1.723,0,17.218,0,17.218" fill="none" transform="translate(-3394.002 972.256)" stroke-linecap="round" stroke-linejoin="round" stroke-width="4" stroke-dasharray="8"/>
    </g>
  </g>
</svg>
