<svg xmlns="http://www.w3.org/2000/svg" xmlns:xlink="http://www.w3.org/1999/xlink" width="180.05" height="286.348" viewBox="0 0 180.05 286.348">
  <defs>
    <clipPath id="clip-path">
      <path id="Path_1463" data-name="Path 1463" d="M-676.2-1806.071s5.652-13.681,10.809-7.368c2.939,3.6,5.574,5.717,8.376,8.816,1.766,1.943,4.135,3.962,4.219,10.627.193,15.5-.2,20.562-9.441,36.748s-10.968,16.542-19.435,29.307-5.454,12.122-8.751,23.337,1.783,13.468-.456,24.456-5.408,20.875-5.408,20.875l-11.79,24.909-10.87,21.034-6.893,16.743-3.725,18.941-1.539,15.964-39.84-16.625-24.487-15.248-13.642-14.04-4.24-9.425,4.477-29.536-5.1-24.729-2.576-16.83-1.448-18.628v-21.585l1.3-27.208v-21.782l-1.367-17.156L-830-1812.094l-2.047-14.1s-2.287-5.969,1.066-10.75,6.4-9.777,11.519-9.777,2.613-2.734,8.141-.289,7.806,6.3,13.969,10.066,8.066,4.911,15.565,6.067,11.357-1.694,17.817-.564,5.969.564,5.969.564a31.255,31.255,0,0,1,10.706,3.049c3.18,1.734,2.852,2.252,4.808,4.1s1.993,1.151,3.017,3.294c3.21,6.718.943,11.85,7.657,16.683,3.5,2.518,6.462,4.192,10.789,3.789,3.415-.317,8.366-2.112,13.226-.842,10.146,2.652,10.628,6.8,18.639,6.508S-676.2-1806.071-676.2-1806.071Z" transform="translate(835.384 1851.796)" fill="#fff"/>
    </clipPath>
  </defs>
  <g id="Store_Skogen" data-name="Store Skogen" transform="translate(-752.188 -1505.971)">
    <g id="Mask_Group_9" data-name="Mask Group 9" transform="translate(749.616 1502.204)" clip-path="url(#clip-path)">
      <path id="Path_1068" data-name="Path 1068" d="M533.847,1379.568l.348,43.606,27.327,19.052,14.215,34.368,24.5,6.889v11.385l28.89-5.222,6.1,13.686h18.635l13.1,6.965h19.7l14.876,5.831-7.077,19.032,18.15,19.889L706.648,1574l5.959,13.93-25.949,9.338H672.207L645,1581.51H625.966l-4.66,3.189v12.564l45.654,32.25,11.843-4.445h7.854l14.876,18.078-22.73,17.216-11.843-4.993-24.838,23.736H678.8l40.7,25.624v-44.367l58.434-25.945,18.779-9.349,5.579,9.349,64.172,20.952h38.292l38.412,42.864,19.2,20.438,6.509,25.239-25.708,18.074,9.506,11.754,52.306-11.754,30.954,11.754h37.719l8.479,13.2,32.088,10.247,44.551-10.247,5.331,10.247h-11.538l6.207,17.958h-24.638l9.374,33.082,15.264,11.726v36.837h11.974v-94.758h16.022v-15.092l46.88-8.929,13.7,15.032-5.739,17.4,30.262,6.713,24.152-6.713,12.305,28.92,10.05-14.005,11.028-28.167v-14.351l-11.535-13.808-3.044-7.039v-68.432l14.579-64.112,49.9-74.392v-71.566l-64.48-12.067-67.479-56.7-53.673-21.148-71.1,21.148-86.639,39.5-114.278,17.2-179.188-56.7L600.236,1393.57Z" transform="translate(-1149.671 -1729.581)" fill="#d1e0a8"/>
      <path id="Path_1173" data-name="Path 1173" d="M779.087,1680.381l-13.467-21.044-72.542,39.381,46.029,58.007,4.788-10.3h8.059l-3.915-36.327,3.915-11.379Z" transform="translate(-854.441 -1210.865)" fill="#d1e0a8"/>
      <path id="Path_1108" data-name="Path 1108" d="M590.972,1528.146l25.128,19.631,26.764,39.507,42.662-18.668v18.668l18.429-6,76.672,4.338,28.634-1.694,30.832-7.618L827.6,1606.271l-15.987-12.455H774.6l-37.1-4.807-36.089,1.779-14.649,10.261v44.5L661.2,1629.983l-23.505-26.312-14.472-31.481-38.693-33.3Z" transform="translate(-1055.706 -1454.104)" fill="#d1e0a8"/>
      <path id="Path_1109" data-name="Path 1109" d="M712.806,1701.187l-18.428-34.006-29.026-25.444-74.414-31.729-33.23-22.57-11.065-24.7,6.681-20.585,33.294-17.8,46.723-6.111,38.6,8.385,25.057,18v-44.331l74.14-33.818,71.71,28.354h38.941l58.8,65.954,3.607,22.984L918.482,1602.7l12.88,11.573,49.943-13.312,31,13.312h38.115l9.032,13.817,31.694,8.666,44.06-8.666,2.928,8.666h-9.046l3.646,17.241H1110.7l9.06,33.93,12.968,8.8,2.472,38.708,7.949,2.623,7.052-2.623-4.029-30.008,1.822-64.006h15.037v-15.5l46.73-9.078,13.589,16.061-5.48,16.907,29.691,6.165,20.742-6.165,28.1,4.18-24.786,45.783-3.414,18.792-1.771,26.56-12.815,38.93-18.521,35.222-4.056,16.5-2.39,25.107,19.856,44.749,28.161,24.669-6.148,8.094-62.7,4.2-25.486,14.192-30.643,24.536-7.7,7.021,46.479,39.781,4.326,14.519-12.466,9.6-5,14.675,5,21.581,14.57,10.04-7.841,11.342-72.926,8.392-27.941,2.777-11.678,2.8-28.939,14.142-6.062,6.776-30.546-31.938,3.591-9.7,8.676,2.385-4.164-40.344,5.363-9.542,12.2-6.7,13.864-11.27-13.864-21.78-63.534,35.9-8.313,3.856-29.181-37.782-23.433-37.252-4.255-28.1-64.833-72.934,7.686-12.27,14.514,14.5h8.328l34.306,40.636,7.44,1.7,23.982,39.969,2.686,11.4,26.12-11.4,14.049-14.175-2.672-7.116h-6.275l17.989-20.376,16.8,9.437v8.346h30.1l12.358-16.084L891.546,1824.79l-44.816-26.542-63.1-14.188-25.83-25.183v-43.008l16.691-11.221,28.241-1.726L836.75,1707l23.629,2.991h22.042l15.23,14.723,12.771-31.21-25.412,3.7H846.73l-48.346-3.7-43.131,7.685,2.543-20.932Z" transform="translate(-1125.947 -1568.446)" fill="#f3e2ac" stroke="#c8c29d" stroke-linecap="round" stroke-linejoin="round" stroke-width="2"/>
      <path id="Path_1172" data-name="Path 1172" d="M633.911,1575.915l-19.2-9.236v33.809l25.516,34.393,61.033,45.3,15.943,15.032,8.723-12.811,13.39,12.811,10.721,3.6,30.141,37.2,11.552,4.114,22.747,42.792,41.011-17.676v-7.525h-7.977l18.436-21.706,15.647,10.888v8.374l31.3-2.287,11.508-12.861L722.007,1615.15l-60.759-14.662Z" transform="translate(-999.751 -1382.66)" fill="#eaeaea"/>
      <path id="Path_1133" data-name="Path 1133" d="M576.894,1504.149l1.366,17.229,21.892,3.481v-12.3Z" transform="translate(-1069.86 -1498.598)" fill="#d1e0a8"/>
      <path id="Path_1132" data-name="Path 1132" d="M628.463,1528.419l29.574.3-2.184-21.5h-27.39Z" transform="translate(-974.244 -1492.906)" fill="#d1e0a8"/>
      <path id="Path_1131" data-name="Path 1131" d="M703.222,1509.192l-6.154,6.108h-8.693l-10.413,8.414-26.143,3.9,20.873-45.5,18.331,9.125,2.472,12.814Z" transform="translate(-930.942 -1539.448)" fill="#d1e0a8"/>
      <path id="Path_1102" data-name="Path 1102" d="M698.482,1602.934,669.2,1598.48l-44.733-17.627-34.72-24.486-12.043-25.69,5.978-18.233,35.154-22.356,1.543-6.161-33.081,6.161-19.43-3.546,3.8,31.042h-26.6l3.089,6.024-19.986,11.761,59.123,34.178,37.169,36.43,30.677,54.937,31.172-42.749Z" transform="translate(-1160.188 -1536.092)" fill="#d1e0a8"/>
      <path id="Path_1147" data-name="Path 1147" d="M750.16,1548.75l-78.716,121.57" transform="translate(-894.554 -1415.902)" fill="none" stroke="#fff" stroke-linecap="round" stroke-width="2"/>
      <path id="Path_1148" data-name="Path 1148" d="M682.631,1705.647l92.256-142.841-30.766-21.3-4.293,4.666,12.917,8.681,2.694-1.887-11.318-6.794" transform="translate(-873.812 -1429.343)" fill="none" stroke="#fff" stroke-linecap="round" stroke-linejoin="round" stroke-width="2"/>
      <path id="Path_1149" data-name="Path 1149" d="M905.24,1733.791,682.4,1598.766" transform="translate(-874.242 -1323.167)" fill="none" stroke="#fff" stroke-linecap="round" stroke-width="2"/>
      <path id="Path_1150" data-name="Path 1150" d="M907.263,1743.106l-195.405-121,12.646-18.1-30.257-20.178" transform="translate(-852.276 -1350.861)" fill="none" stroke="#fff" stroke-linecap="round" stroke-linejoin="round" stroke-width="2"/>
      <path id="Path_1151" data-name="Path 1151" d="M707.62,1646.457l28.714-48.11" transform="translate(-827.48 -1323.945)" fill="none" stroke="#fff" stroke-linecap="round" stroke-linejoin="round" stroke-width="2"/>
      <path id="Path_1152" data-name="Path 1152" d="M704.771,1590.85l36.955,21.381" transform="translate(-832.763 -1337.845)" fill="none" stroke="#fff" stroke-linecap="round" stroke-width="2"/>
      <path id="Path_1153" data-name="Path 1153" d="M717.681,1667.405l35.338-56.984-12.566-9.324,69.132,44.351,82.892,52.377,10.8-10.671-14.7-9.365,22.235-32.341-72.986-49.605" transform="translate(-808.827 -1328.59)" fill="none" stroke="#fff" stroke-linecap="round" stroke-linejoin="round" stroke-width="2"/>
      <path id="Path_1154" data-name="Path 1154" d="M737.315,1698.772l66.279-102.446" transform="translate(-772.423 -1327.691)" fill="none" stroke="#fff" stroke-linecap="round" stroke-linejoin="round" stroke-width="2"/>
      <path id="Path_1155" data-name="Path 1155" d="M756.769,1602.4l102.706,64.053v17.3" transform="translate(-736.355 -1316.424)" fill="none" stroke="#fff" stroke-linecap="round" stroke-linejoin="round" stroke-width="2"/>
      <path id="Path_1156" data-name="Path 1156" d="M746.745,1703.182l65.765-100.464" transform="translate(-754.94 -1315.841)" fill="none" stroke="#fff" stroke-linecap="round" stroke-linejoin="round" stroke-width="2"/>
      <path id="Path_1157" data-name="Path 1157" d="M809.333,1607.923,759.865,1683.1" transform="translate(-730.612 -1306.19)" fill="none" stroke="#fff" stroke-linecap="round" stroke-linejoin="round" stroke-width="2"/>
      <path id="Path_1158" data-name="Path 1158" d="M830.912,1685.011l-72.112-41.7,31.507-52.074-42.758-25.786-35.373,47.528" transform="translate(-819.032 -1384.932)" fill="none" stroke="#fff" stroke-linecap="round" stroke-linejoin="round" stroke-width="2"/>
      <path id="Path_1159" data-name="Path 1159" d="M736.277,1645.433l44.194-63.474,15.574,9.893-11.184,16.715,21.368,15.342" transform="translate(-774.348 -1354.33)" fill="none" stroke="#fff" stroke-linecap="round" stroke-linejoin="round" stroke-width="2"/>
      <path id="Path_1160" data-name="Path 1160" d="M872.955,1538.51l-33.789-2.6-13.546,15.937v22.3l5.278,20.444-24.228,61.74-33.093,49.613" transform="translate(-705.188 -1439.705)" fill="none" stroke="#c8c29c" stroke-linecap="round" stroke-linejoin="round" stroke-width="2"/>
      <path id="Path_1161" data-name="Path 1161" d="M836.31,1706.894l-55.559-83.341v-48.725l5.028-15.468L789.306,1537l35.356-4.644L789.306,1537l-27-10.21" transform="translate(-726.084 -1456.616)" fill="none" stroke="#c8c29c" stroke-linecap="round" stroke-linejoin="round" stroke-width="2"/>
      <path id="Path_1162" data-name="Path 1162" d="M832.434,1552.389l-61.082-18.128" transform="translate(-709.314 -1442.768)" fill="none" stroke="#c8c29c" stroke-linecap="round" stroke-linejoin="round" stroke-width="2"/>
      <path id="Path_1163" data-name="Path 1163" d="M757.827,1538.884l34.133,3.281,63.814,21.445" transform="translate(-734.391 -1434.195)" fill="none" stroke="#c8c29c" stroke-linecap="round" stroke-linejoin="round" stroke-width="2"/>
      <path id="Path_1164" data-name="Path 1164" d="M809.311,1643.2l-25.324-36.945,2.387-45.1-2.387,45.1-24.109,1.52" transform="translate(-730.591 -1392.917)" fill="none" stroke="#c8c29c" stroke-linecap="round" stroke-linejoin="round" stroke-width="2"/>
      <path id="Path_892" data-name="Path 892" d="M3367.1-589.683l79.148,27.481,92.786,5.1,155.594,45.373,65.549,14.541,73.4,9.72,93.033-16.188,96.726-42.9,31.621-10.545v-32.583H4073.4l4.262-20.013h-8.542l-4.169-30.984-10-15.744L4115.2-715.43,3998.539-780.12,3885.519-832.7l-4.536-17.221L3863.124-863.1h-22.353l22.353-68.455,77.468-9.2v-44.269l34.247,5.28,56.807-14.3,8.9-54.011,55.082,13.233v10.99l88.042,29.788,12.789-48.35-86.979-105.271-113.984-132.786-77.394,15.94-54.974,39.338,12.727,31.884-19.343,11.326-52.286-15.122-56.077,24.308-64.611,46.017-55.382,96.092L3601.6-966.2l-10.89,69.192L3566.3-840.14l-49.941,79.163-60.8,58.554-41.71,6.865-36.431,66.715Z" transform="translate(-4025.014 225.418)" fill="#b0e0a8"/>
      <path id="Path_1118" data-name="Path 1118" d="M600.8,1504.214l38.879-15.736v-17.454l9.587,78.646" transform="translate(-1025.539 -1560.014)" fill="none" stroke="#c8c29d" stroke-linecap="round" stroke-linejoin="round" stroke-width="2"/>
      <path id="Path_1119" data-name="Path 1119" d="M611.529,1535.289l-3.336-59.894,3.336,63.867h23.295" transform="translate(-1011.826 -1551.91)" fill="none" stroke="#c8c29d" stroke-linecap="round" stroke-linejoin="round" stroke-width="2"/>
      <path id="Path_1069" data-name="Path 1069" d="M702,1452.785l-7.856-12.179-42.88-18.563-31.6,5.427v40.969l17.224,13.43,31.255,6.424,21.613-11.265Z" transform="translate(-990.573 -1650.829)" fill="#f3e2ac" stroke="#c8c29d" stroke-linejoin="round" stroke-width="2"/>
      <path id="Path_1089" data-name="Path 1089" d="M570.244,1379.568l41.616,2.5v40.158l-26.788,2.562-38.849,40.746-23.165,9.739H498.5l-7.681-6.166,66.335-53.07Z" transform="translate(-1229.445 -1729.581)" fill="#f3e2ac" stroke="#c8c29d" stroke-linecap="round" stroke-linejoin="round" stroke-width="2"/>
      <path id="Path_1070" data-name="Path 1070" d="M918.863,1482.772,699.8,1425.251l-28.682,14.719-28.233,47.137,56.915,27.259,10.023,9.45h19.993l11.646,10.532,21.713,6.877,17.958,21.961,19.416-14.395h9.61l-4.729,29.187,11.337,19.144,32.725-4.457,46.227,15.677,23.147-15.677,7.715,4.457,10.852-28.646,45.417,47.906H1002.1l5.053,12.5h21.881l16.231,34.168,12.535-10.207,21.349,10.207,26.377-29.135v-25.576L1079.152,1604l26.377-11.333-21.873-51.44-38.388-17.409-32.353-49.609-51.761-15.445-5.6,28.345Z" transform="translate(-947.51 -1644.88)" fill="#f5e7b8" stroke="#c8c29d" stroke-linecap="round" stroke-linejoin="round" stroke-width="2"/>
      <path id="Path_1081" data-name="Path 1081" d="M3546.583-984.047V-953l52.612,6.927-4.055,7.915-29.531,4.278,15.512,34.946,76.337,20.609h36.633l13.916-67.748-8.313-37.971-42.235-18.592L3647-1015.648,3595.141-995.7Z" transform="translate(-3692.235 716.392)" fill="#eaeaea" stroke="#d1d1d1" stroke-linecap="round" stroke-linejoin="round" stroke-width="2"/>
      <path id="Path_1106" data-name="Path 1106" d="M3452.352-881.525l38.034,34.6,19.473,39.362H3462.71l-30.814-9.243-10.189-23.482Z" transform="translate(-3923.768 965.068)" fill="#f5e7b8" stroke="#c8c29d" stroke-linecap="round" stroke-linejoin="round" stroke-width="2"/>
      <path id="Path_1101" data-name="Path 1101" d="M509.824,1487.176l31.877,16.811-8.662,22.333-46.14-19.445-4.23-31.839Z" transform="translate(-1244.561 -1552.575)" fill="#d1e0a8"/>
      <path id="Path_1084" data-name="Path 1084" d="M797.633,1391.864l-19.271,19.548,41.579,15.552v3.822l-39.219-13.571-2.36,16.742,38.2,7.7V1446l-34.276-6.731v10.321l30.779,5.947v3.5l-30.779-5.92.995,11.034,80.954,10.257,8.792-24.819-53.09-38.174-8.976-11.168Z" transform="translate(-696.319 -1706.784)" fill="#fff"/>
      <path id="Path_1085" data-name="Path 1085" d="M859.379,1416.7l-12.753,15.2-36.323-2.574v7.917l27.122,8.713,1.708,7.152,11.6-4.43-1.266-4.413,9.908-.864,6.217-2.906v-22.229Z" transform="translate(-637.095 -1660.735)" fill="#fff"/>
      <path id="Path_1042" data-name="Path 1042" d="M718.73,1340.3l6.414,25.272" transform="translate(-806.883 -1802.383)" fill="none" stroke="#fff" stroke-linecap="round" stroke-linejoin="round" stroke-width="2"/>
      <path id="Path_1045" data-name="Path 1045" d="M698.24,1286.825l-28.284,26.088,14.555-5.424,32.407,36.332-14.875,7.625-44.709-32.594-30.984-11.363,28.636,13.924,2.348,14.273,12.622,14.358,14.555,14.045,19.023-8.831-28.066-19.572,24.4,19.572-24.4-15.03,20.739,15.03-20.739-11.437,19.237,13.9-20.59-10.65,17.117,12.372-19.037-9.4,14.526,11.415" transform="translate(-978.163 -1901.536)" fill="none" stroke="#fff" stroke-linecap="round" stroke-linejoin="round" stroke-width="2"/>
      <g id="Path_1046" data-name="Path 1046" transform="translate(-926.133 -1857.921)" fill="none" stroke-linecap="round" stroke-linejoin="round">
        <path d="M654.412,1315.122l26.506-4.774,14.828,14.146,6.59,17.864s10.018-5.218,13.358-3.65,3.339,7.442,0,9.922-10.9-2.2-13.358,0-.256,6.594,3.517,8.792,9.543-2.792,11.577,0,1.2,8.376-3.442,11.168-15.13,0-15.13,0-.122,7.652-3.111,10.2a6.683,6.683,0,0,1-8.844,0c-2.211-1.892,0-7.566,0-7.566h-5.984l-14.125,2.891-3.785-25.486Z" stroke="none"/>
        <path d="M 678.6591796875 1317.867553710938 L 663.0554809570312 1320.677978515625 L 669.931640625 1347.601806640625 L 672.6307983398438 1365.776123046875 L 679.5147094726562 1364.367431640625 C 679.9765014648438 1364.27294921875 680.4467163085938 1364.225341796875 680.9180908203125 1364.225341796875 L 686.901611328125 1364.225341796875 C 688.9229125976562 1364.225341796875 690.8302001953125 1365.097778320312 692.1495971679688 1366.592895507812 C 692.5714111328125 1365.182739257812 693.4338989257812 1363.924438476562 694.632080078125 1363.01513671875 C 695.8616943359375 1362.08203125 697.353515625 1361.592529296875 698.8668823242188 1361.592529296875 C 699.1610107421875 1361.592529296875 699.4560546875 1361.611083984375 699.75 1361.6484375 C 696.7035522460938 1359.066650390625 694.7061767578125 1355.609497070312 694.3533935546875 1352.124145507812 C 694.1036376953125 1349.6572265625 694.693603515625 1347.28466796875 695.9991455078125 1345.331909179688 C 695.9147338867188 1345.152099609375 695.8375854492188 1344.968017578125 695.7682495117188 1344.780029296875 L 689.740234375 1328.438842773438 L 678.6591796875 1317.867553710938 M 680.9180908203125 1310.34814453125 L 695.74609375 1324.493896484375 L 702.335693359375 1342.357421875 C 702.335693359375 1342.357421875 709.9070434570312 1338.4140625 714.0797119140625 1338.413818359375 C 714.7069091796875 1338.413818359375 715.2569580078125 1338.502807617188 715.693359375 1338.707763671875 C 719.03271484375 1340.27587890625 719.03271484375 1346.1494140625 715.693359375 1348.630126953125 C 714.9547119140625 1349.178833007812 714.0093383789062 1349.377197265625 712.9586791992188 1349.377197265625 C 710.2146606445312 1349.377197265625 706.75048828125 1348.024169921875 704.3624267578125 1348.024169921875 C 703.5310668945312 1348.024169921875 702.8304443359375 1348.188110351562 702.335693359375 1348.630126953125 C 699.8756103515625 1350.828125 702.07958984375 1355.223876953125 705.8531494140625 1357.421875 C 706.5731201171875 1357.84130859375 707.3660888671875 1357.9990234375 708.1915893554688 1357.9990234375 C 710.6954956054688 1357.9990234375 713.5012817382812 1356.54833984375 715.4985961914062 1356.54833984375 C 716.2940063476562 1356.54833984375 716.9611206054688 1356.778442382812 717.4298095703125 1357.421875 C 719.46337890625 1360.213623046875 718.6307373046875 1365.7978515625 713.987548828125 1368.589599609375 C 712.43994140625 1369.520141601562 710.24267578125 1369.830322265625 708.0013427734375 1369.830322265625 C 703.5181274414062 1369.830322265625 698.8572998046875 1368.589599609375 698.8572998046875 1368.589599609375 C 698.8572998046875 1368.589599609375 698.7349853515625 1376.2412109375 695.74609375 1378.791748046875 C 694.3606567382812 1379.973999023438 692.8343505859375 1380.466796875 691.3753662109375 1380.466796875 C 689.6865234375 1380.466796875 688.0878295898438 1379.806762695312 686.901611328125 1378.791748046875 C 684.6904296875 1376.89990234375 686.901611328125 1371.225341796875 686.901611328125 1371.225341796875 L 680.9180908203125 1371.225341796875 L 666.7926025390625 1374.115966796875 L 663.007568359375 1348.630126953125 L 654.411865234375 1315.1220703125 L 680.9180908203125 1310.34814453125 Z" stroke="none" fill="#fff"/>
      </g>
      <path id="Path_1062" data-name="Path 1062" d="M869.959,1362.735,815.272,1331.4l-17.827,10.546-18.195,20.79-16.594,31.3,11.26,20.659v38.879l30.133,10.043v26.811l40.787,22.13Z" transform="translate(-725.437 -1818.892)" fill="#f5e7b8"/>
      <path id="Path_1051" data-name="Path 1051" d="M621.011,1409.4l-73.459-47.008,16.47-24.875,59.043,27.885-43.491,50.722-41.506,19.763-18.179-14.67" transform="translate(-1175.552 -1807.549)" fill="none" stroke="#fff" stroke-linecap="round" stroke-linejoin="round" stroke-width="2"/>
      <path id="Path_1047" data-name="Path 1047" d="M610.188,1276.981l-.719,16.217.719,17.928,8.921,10.168h27l-29.691,3.13v13.493l-3.042-13.493-21.6,22.255-1.777,16.785" transform="translate(-1045.572 -1919.786)" fill="none" stroke="#fff" stroke-linecap="round" stroke-linejoin="round" stroke-width="2"/>
      <path id="Path_1048" data-name="Path 1048" d="M581.7,1371.271l37.945-88.224-16.409,17.089L613,1339.913l-1.943-26.96-2.229-15.218" transform="translate(-1060.945 -1908.54)" fill="none" stroke="#fff" stroke-linecap="round" stroke-linejoin="round" stroke-width="2"/>
      <path id="Path_886" data-name="Path 886" stroke="#207dff" d="M3472-681.27l40.294-59.956-76.743-28.429s-34.822-24.066-40.236-44.646c-1.976-7.512,4.678-7.727,6.73-12.942,2.666-6.88,4.811-14.153,33.506-21.531,14.52-3.734,23.071-1.563,36.287-1.356,11.134.181,26.755-1.509,55.031-12.414,57.239-22.073,63.184-30.585,97.756-55.473s4.572-56.215,30.284-49.23,41.637,33.518,75.662,53.108,32.477,13.031,49.588,22.552,10.784,18.986,24.878,26.246,21.435-2.979,31.5,2.8,0,27.949,0,27.949" fill="none" transform="translate(-3973.377 804.292)" stroke-linecap="round" stroke-linejoin="round" stroke-width="4" stroke-dasharray="8"/>
      <path id="Path_888" data-name="Path 888" stroke="#207dff" d="M3523.665-894.76s-45.716-.287-53.313-21.611-1.057-50.779,16.435-65.578,29.278,6.232,45.189,0,18.452-24.93,18.452-24.93" fill="none" transform="translate(-3839.373 732.652)" stroke-linecap="round" stroke-linejoin="round" stroke-width="4" stroke-dasharray="8"/>
      <path id="Path_1044" data-name="Path 1044" d="M629.022,1283.788l18.362,9.332,77.357-5,24.475,28.718-20.031,46.306" transform="translate(-973.209 -1907.167)" fill="none" stroke="#fff" stroke-linecap="round" stroke-linejoin="round" stroke-width="2"/>
      <path id="Path_1043" data-name="Path 1043" d="M618.155,1274.826l-28.64,23.41h56.246l26.836-6.067v15.643l4.715-15.643,24.872,6.067-17.467,9.575v10.744" transform="translate(-1046.457 -1923.782)" fill="none" stroke="#fff" stroke-linecap="round" stroke-linejoin="round" stroke-width="2"/>
      <path id="Path_893" data-name="Path 893" d="M3820.385-837.59l7.413,6.2,36.737-13.578,14.753,10.483,5.239-19.605L3853.262-864.6l31.266-27.565L3845.87-927.7,3827.8-972.029l-103.186,19.69v17.662L3708.518-918.2l-13.688-22.731,23.24-51.8-32.755-11.751,9.515-37.822-9.515-24.61-64.146,24.61-21.177-31.042-5.5-26.184-24.512-20.52-46.638,60.007-20.309-13.3-19.361,22.435,4.294,14.851h15.067l-9.6,24.6-19.683-7.924-24.687-27.561-4.464,10.883-7.312,6.146,7.312,10.532-41.28,94.733,108.425,64.424,29.017-31.941-17.423-21.381L3527.9-931l12.859-9.929,87.559,44.821,8.1,64.72,72.1,24.262,58.54,7.963,5.022-7.963-35.915-8.161,22.692-22.3,30.795,22.3Z" transform="translate(-3957.86 522.823)" fill="#f5e7b8" stroke="#fff" stroke-linecap="round" stroke-linejoin="round" stroke-width="4"/>
      <path id="Path_912" data-name="Path 912" d="M3544.52-1016.365l-22.613-37.227-17.487-11.913-16.9,25.91,9.656,10.386v35.325l16.09,1.436,7.163,9.685Z" transform="translate(-3804.598 629.66)" fill="#dedede" stroke="#c8c29d" stroke-linecap="round" stroke-linejoin="round" stroke-width="2"/>
      <path id="Path_1056" data-name="Path 1056" d="M601.162,1358.117l10.82,10.643,19.437-1.853-19.437,4.335,1.848,11.612,14.411,8.7L653,1379.3l18.99,12.257-2.207,28.85,22.859-18.945,8.3,50.264-22.488,4.607v-4.607l16-3.267-1.82-3.911-14.183,3.911,6.913-20.925-19.7,1.433v-25.461" transform="translate(-1024.864 -1769.353)" fill="none" stroke="#fff" stroke-linecap="round" stroke-linejoin="round" stroke-width="2"/>
      <path id="Path_1099" data-name="Path 1099" d="M499.862,1516.6l12.472-33.2,40.442,26.024,46.585,13.7-21.432,11.533-38.024-11.533Z" transform="translate(-1212.683 -1537.062)" fill="#f3e2ac" stroke="#c8c29d" stroke-linecap="round" stroke-linejoin="round" stroke-width="2"/>
      <g id="Path_1057" data-name="Path 1057" transform="translate(-1029.642 -1740.645)" fill="none" stroke-linecap="round" stroke-linejoin="round">
        <path d="M612.531,1373.6l14.439,14.453-5.736,16.1L598.585,1390l4.838-5.933Z" stroke="none"/>
        <path d="M 612.7327270507812 1379.462280273438 L 606.4821166992188 1386.643676757812 L 604.5515747070312 1389.011108398438 L 619.1359252929688 1398.127685546875 L 622.3541870117188 1389.09326171875 L 612.7327270507812 1379.462280273438 M 612.5313720703125 1373.60107421875 L 626.970458984375 1388.054443359375 L 621.2344970703125 1404.15673828125 L 598.5849609375 1389.99853515625 L 603.4228515625 1384.06591796875 L 612.5313720703125 1373.60107421875 Z" stroke="none" fill="#fff"/>
      </g>
      <path id="Path_1058" data-name="Path 1058" d="M617.45,1370.1l-10.435,38.484,27.292,12.937,22.907-14.872Z" transform="translate(-1014.01 -1747.134)" fill="none" stroke="#fff" stroke-linecap="round" stroke-linejoin="round" stroke-width="2"/>
      <path id="Path_1059" data-name="Path 1059" d="M638.992,1393.567l-23.874-25.63" transform="translate(-998.988 -1751.146)" fill="none" stroke="#fff" stroke-linecap="round" stroke-linejoin="round" stroke-width="2"/>
      <path id="Path_1060" data-name="Path 1060" d="M596.169,1382.5l38.982,21.173,6.359-9.881L654,1398.738l4.459,14.211,31.468-1.644-3.671-4.938-27.8,2.674v-5.373h27.8" transform="translate(-1034.121 -1724.154)" fill="none" stroke="#fff" stroke-linecap="round" stroke-linejoin="round" stroke-width="2"/>
      <path id="Path_1174" data-name="Path 1174" d="M768.215,1756.644l-73.54-80.828,4.53,37.1,21.787,46.183,16.311,14.089Z" transform="translate(-851.48 -1180.309)" fill="#79d7f5" stroke="#c8c29d" stroke-width="2"/>
      <path id="Path_1105" data-name="Path 1105" d="M602.6,1475.036l-2.809,7.6H573.032l-29.96,24.975-31.529-17.026-8.131,3.084,45.111,30.1,34.473,12,5.3-22.375,27.43-32.46Z" transform="translate(-1206.103 -1552.575)" fill="#d1e0a8"/>
      <path id="Path_1061" data-name="Path 1061" d="M820.782,1330.545,791.766,1355.5,765.8,1393.952l13.42,20.708v41H762.934l-4.046,30.475h28.188l30.417,8.071,35.521,22.958" transform="translate(-732.424 -1820.475)" fill="none" stroke="#fff" stroke-linecap="round" stroke-linejoin="round" stroke-width="4"/>
      <path id="Path_1095" data-name="Path 1095" d="M504.2,1465.495l26.39-24.743,12.98,10.059H569l29.916-13.345,36.566-39.2,25.92-2.339,27.562,17.517,10.481,24.02-10.481,34.727,4.866,26-13.544,15.02-28,3.653-5.163-10.135,8.457-3.937,17.565-18.188v-23.634L661.4,1450.812l11.747-22.883-4.605-5.683H635.477v18.506l-21.293-3.286-17.458,10.883L569,1456.8l-3.771,22.8H550.88L539.5,1456.8l-15.812,4.17-19.493,15.1,8.131,8.534,31.239,3.319,14.442,21.611,38.717,14.935,10.01,5.8h20.672V1544.4H616.614l-12.07-7.256h-39.32l-11.164,2.224-10.492,11.645v14.714l19.491,2.419,18.954,13.988-21.824-4.87-6.129,4.87,27.953,25.956V1636.7l-11.906,13.83-26.539-10.778L507.5,1593.8l2.336-11.674,22.521-10.249-1.768-8.33-3.062-14.311v-8.134L507.5,1516.868V1502.8l-13.709-4.6-5.4,26.278,15.813,31.278,16.818,21.51-13.517,28.7,16.192,46.624-45.33-40.6-12.672-3.906,16.646-11.645,11.455-22.48L473.748,1544.4l-2.7-27.529Z" transform="translate(-1276.042 -1699.247)" fill="#d1e0a8"/>
      <path id="Path_911" data-name="Path 911" d="M3568.227-1042.641l-62.387-16.911-24.686-2.224-15.284,4.545-13.283,12.758-9.4,22.192,16.071,22.119" transform="translate(-3886.911 630.866)" fill="none" stroke="#c8c29d" stroke-linecap="round" stroke-width="2"/>
      <path id="Path_1029" data-name="Path 1029" d="M601.174,1328.626l14.767-49.678,64.713-26.621L654.373,1244s-31.193,32.355-32.033,32.079" transform="translate(-1024.841 -1980.946)" fill="none" stroke="#fff" stroke-linecap="round" stroke-linejoin="round" stroke-width="2"/>
      <path id="Path_898" data-name="Path 898" d="M3476.934-962.041l13.771-21.863,13.344-82-23.664-6.549-3.451,10.244-30.452-12.621-37.465,72.763" transform="translate(-3947.298 606.661)" fill="none" stroke="#c8c29d" stroke-width="2"/>
      <path id="Path_894" data-name="Path 894" d="M3414.725-1078.44l51.794,21.636s-12.108,29.863-17.433,60.9-3.866,63.238-3.866,63.238" transform="translate(-3936.714 599.97)" fill="none" stroke="#fff" stroke-linecap="round" stroke-linejoin="round" stroke-width="4"/>
      <path id="Path_895" data-name="Path 895" d="M3513.313-1023.9,3410.5-1068.545" transform="translate(-3944.547 618.315)" fill="none" stroke="#fff" stroke-linecap="round" stroke-width="4"/>
      <path id="Path_896" data-name="Path 896" d="M3521.418-1019.922l-24.776,3.378-90.514-42.411" transform="translate(-3952.652 636.095)" fill="none" stroke="#fff" stroke-linecap="round" stroke-width="2"/>
      <path id="Path_1033" data-name="Path 1033" d="M663.833,1276.451l33.961,4.973,50.893,36.53,11.986,7.592,24.039-7.592" transform="translate(-908.665 -1920.769)" fill="none" stroke="#fff" stroke-linecap="round" stroke-linejoin="round" stroke-width="2"/>
      <path id="Path_1034" data-name="Path 1034" d="M736.69,1289.674l.535,22.176,22.545,28.168,13.03,44.911H756.221l-30.859,29.636V1425.1l-60.241,12.715" transform="translate(-906.277 -1896.253)" fill="none" stroke="#fff" stroke-linecap="round" stroke-linejoin="round" stroke-width="2"/>
      <path id="Path_1054" data-name="Path 1054" d="M575.528,1366.329,570.2,1390.45l-49.884-6.651" transform="translate(-1174.765 -1754.128)" fill="none" stroke="#fff" stroke-linecap="round" stroke-linejoin="round" stroke-width="2"/>
      <path id="Path_897" data-name="Path 897" d="M3516.412-1118.552s-33.233,32.138-53.794,66.233-29.693,69.98-29.693,69.98" transform="translate(-3902.969 525.598)" fill="none" stroke="#fff" stroke-linecap="round" stroke-width="4"/>
      <path id="Path_899" data-name="Path 899" d="M3442.313-996.284h31.1l56.226-79.95-25.425-18.906-11.811-15.889" transform="translate(-3885.562 539.544)" fill="none" stroke="#c8c29d" stroke-linecap="round" stroke-linejoin="round" stroke-width="2"/>
      <path id="Path_1063" data-name="Path 1063" d="M847.258,1336.416l-37.688,25.957-11.539,29.541v86.01l-3.312-24.376-29.657-8.875" transform="translate(-720.979 -1809.589)" fill="none" stroke="#fff" stroke-linecap="round" stroke-linejoin="round" stroke-width="2"/>
      <path id="Path_1064" data-name="Path 1064" d="M833.838,1375.984l-23.661,6.6H776.057" transform="translate(-700.591 -1736.227)" fill="none" stroke="#fff" stroke-linecap="round" stroke-linejoin="round" stroke-width="2"/>
      <path id="Path_1065" data-name="Path 1065" d="M786.18,1342.378l5.671,44.693-5.671,35.357,11.613,20.052" transform="translate(-681.824 -1798.535)" fill="none" stroke="#fff" stroke-linecap="round" stroke-linejoin="round" stroke-width="2"/>
      <path id="Path_1066" data-name="Path 1066" d="M850.589,1408.333l-60.9-11.446-19.48-19.878,33.852-44.654" transform="translate(-711.428 -1817.118)" fill="none" stroke="#fff" stroke-linecap="round" stroke-linejoin="round" stroke-width="2"/>
      <path id="Path_1067" data-name="Path 1067" d="M787.907,1352.3,766.99,1388.12" transform="translate(-717.404 -1780.142)" fill="none" stroke="#fff" stroke-linecap="round" stroke-linejoin="round" stroke-width="2"/>
      <path id="Path_900" data-name="Path 900" d="M3466.4-1050.039l-24.78-16.448" transform="translate(-3886.848 622.131)" fill="none" stroke="#c8c29d" stroke-linecap="round" stroke-width="2"/>
      <path id="Path_901" data-name="Path 901" d="M3467.753-1031.013l-14.625-39.679" transform="translate(-3865.511 614.335)" fill="none" stroke="#c8c29d" stroke-linecap="round" stroke-width="2"/>
      <path id="Path_902" data-name="Path 902" d="M3479.455-1058.545l-21.818-18.152Z" transform="translate(-3857.15 603.2)" fill="none" stroke="#c8c29d" stroke-linecap="round" stroke-width="2"/>
      <path id="Path_1107" data-name="Path 1107" d="M597.694,1572.923l7.5-15.293h14.87l28.174,30.782,1.744,17.707-24.27-20.374Z" transform="translate(-1034.148 -1399.438)" fill="#f5e7b8" stroke="#c8c29d" stroke-width="2"/>
      <path id="Path_903" data-name="Path 903" d="M3464.848-1002.483v-25.005l39.511-49.866,32.3-15.743h34.8" transform="translate(-3843.782 572.792)" fill="none" stroke="#c8c29d" stroke-linecap="round" stroke-linejoin="round" stroke-width="2"/>
      <path id="Path_904" data-name="Path 904" d="M3584.884-1022.27l-28.732-23.316-39.594-18.586-65.181-39.007" transform="translate(-3868.758 554.101)" fill="none" stroke="#c8c29d" stroke-width="2"/>
      <path id="Path_905" data-name="Path 905" d="M3499.845-1099.955v29.212l-8.127,24.9" transform="translate(-3793.963 560.078)" fill="none" stroke="#c8c29d" stroke-width="2"/>
      <path id="Path_907" data-name="Path 907" d="M3525.028-1089.134l-14.217,39.948-18.289,34.921" transform="translate(-3792.469 580.142)" fill="none" stroke="#c8c29d" stroke-width="2"/>
      <path id="Path_908" data-name="Path 908" d="M3490.223-1070.826l-12.8,20.735v17.626" transform="translate(-3820.469 614.086)" fill="none" stroke="#c8c29d" stroke-linecap="round" stroke-linejoin="round" stroke-width="2"/>
      <path id="Path_906" data-name="Path 906" d="M3594.233-989.663l-157.807-114.031" transform="translate(-3896.478 553.145)" fill="none" stroke="#fff" stroke-linecap="round" stroke-linejoin="round" stroke-width="4"/>
      <path id="Path_909" data-name="Path 909" d="M3487.331-1035.825,3502-1064.608Z" transform="translate(-3802.096 625.616)" fill="none" stroke="#fff" stroke-linecap="round" stroke-linejoin="round" stroke-width="4"/>
      <path id="Path_1035" data-name="Path 1035" d="M697.712,1310.66l59.519-6.889,25.531,18.021,23.408,35.768,35.272-29.129,37.312,19.409-1.932,31.947,7.55,50.72L869.1,1412.922H832.492l-18.781,11.254-7.542,25.648,4.9,34.355-11.211,37.771" transform="translate(-845.851 -1870.116)" fill="none" stroke="#fff" stroke-linecap="round" stroke-linejoin="round" stroke-width="2"/>
      <path id="Path_910" data-name="Path 910" d="M3516.1-1020.889v-18.445l-57.739-17.279" transform="translate(-3855.805 640.44)" fill="none" stroke="#c8c29d" stroke-width="2"/>
      <path id="Path_913" data-name="Path 913" d="M3493.218-989.426l3.2-25.628,11.212-20.135" transform="translate(-3791.181 680.159)" fill="none" stroke="#c8c29d" stroke-linecap="round" stroke-width="2"/>
      <path id="Path_914" data-name="Path 914" d="M3535.627-988.513v-19.92l-40.783-18.838" transform="translate(-3788.167 694.841)" fill="none" stroke="#c8c29d" stroke-linecap="round" stroke-width="2"/>
      <path id="Path_1037" data-name="Path 1037" d="M698.151,1307.18l25.88,35.25,4.4,14.038,16.158,19.9L761.18,1392.4l-21.4,36.421-15.748-3.994" transform="translate(-845.038 -1863.795)" fill="none" stroke="#fff" stroke-linecap="round" stroke-linejoin="round" stroke-width="2"/>
      <path id="Path_915" data-name="Path 915" d="M3515.946-926.472v-14.667l60.119-94.406,31.635-22.881,12.754,22.881,22.508,14.18" transform="translate(-3749.041 637.077)" fill="none" stroke="#c8c29d" stroke-linecap="round" stroke-width="2"/>
      <path id="Path_916" data-name="Path 916" d="M3600.714-1047.651l-2.311-16.813-78.721,15.127,2.927,17.542H3555.9v-8.154l35.612-20.659" transform="translate(-3742.113 625.88)" fill="none" stroke="#c8c29d" stroke-linecap="round" stroke-width="2"/>
      <path id="Path_917" data-name="Path 917" d="M3522.038-1030.641v-22.371" transform="translate(-3737.746 647.116)" fill="none" stroke="#c8c29d" stroke-linecap="round" stroke-width="2"/>
      <path id="Path_918" data-name="Path 918" d="M3509.133-977.4l26.594-38.911v-28.907h10.795" transform="translate(-3761.673 661.563)" fill="none" stroke="#c8c29d" stroke-linecap="round" stroke-width="2"/>
      <path id="Path_1104" data-name="Path 1104" d="M580.162,1432.526l24.321,3.39,12.509,15.853-7.142,21.958-24.1-7.737-7.993,7.737-18.141,25.724v9.492H543.287l-13.9-13.2-2.1-14.113,10.837-11.281,37.264-13.908v-15.73Z" transform="translate(-1161.835 -1631.392)" fill="#d1e0a8"/>
      <path id="Path_919" data-name="Path 919" d="M3615.139-993.036l-22.089-13.13-33.056,4.288-61.686-32.567" transform="translate(-3781.741 681.541)" fill="none" stroke="#c8c29d" stroke-linecap="round" stroke-width="2"/>
      <path id="Path_920" data-name="Path 920" d="M3557.483-1003.84l5.036-20.421-9.558-22.183" transform="translate(-3680.41 659.293)" fill="none" stroke="#c8c29d" stroke-linecap="round" stroke-width="2"/>
      <path id="Path_887" data-name="Path 887" stroke="#207dff" d="M3981.277-972.982s-59.99,31.418-129.793,36.514-149.9-19.582-149.9-19.582-80.544-28.511-142.739-42.735c-38.9-8.9-66.923-4.068-99.746-12.224-83.733-20.8-92.448-28.258-92.448-28.258" fill="none" transform="translate(-4025.85 672.6)" stroke-linecap="round" stroke-linejoin="round" stroke-width="4" stroke-dasharray="8"/>
      <path id="Path_921" data-name="Path 921" d="M3540.061-997.667l40.654-33.646" transform="translate(-3704.329 687.349)" fill="none" stroke="#c6bba0" stroke-linecap="round" stroke-width="2"/>
      <path id="Path_922" data-name="Path 922" d="M923.993,1261.948s-32.406,1.281-62.936-20.508-39.686-56.016-59.184-66.646c-27.952-15.239-89.237-28.073-89.237-28.073l7.088,28.073" transform="translate(-818.181 -2161.3)" fill="none" stroke="#fff" stroke-width="2"/>
      <path id="Path_889" data-name="Path 889" stroke="#207dff" d="M3780.855-932.079s-40.536-50.431-69.076-82.945-16.736-47.5-34.461-52.3S3531-1049.22,3500.867-1033.173s-12.278,126.656-12.278,126.656" fill="none" transform="translate(-3809.501 619.376)" stroke-linecap="round" stroke-linejoin="round" stroke-width="4" stroke-dasharray="8"/>
      <path id="Path_1103" data-name="Path 1103" d="M588.991,1453.244l-26.221-8.11L550.482,1462.5l-10.835,12.111,7.911,16.967,25.1-8.3Z" transform="translate(-1138.918 -1608.016)" fill="#fff" stroke="#fff" stroke-linecap="round" stroke-linejoin="round" stroke-width="2"/>
      <path id="Path_1026" data-name="Path 1026" d="M603.376,1239.146l73.108,22.134,41.818,9.085,69.008,23.228,4.117-29.829,12.086,25.283H826.3l19.617,13.325" transform="translate(-1020.758 -1989.937)" fill="none" stroke="#fff" stroke-linecap="round" stroke-linejoin="round" stroke-width="2"/>
      <path id="Path_1024" data-name="Path 1024" d="M696.966,1198.012l.7-34.4" transform="translate(-847.234 -2129.981)" fill="none" stroke="#fff" stroke-linecap="round" stroke-width="2"/>
      <path id="Path_1015" data-name="Path 1015" d="M857.823,1383.558l-7.052-28.452-27.16-51.77-13.245-23.229-25.7-20.959-28.494,8.131-29.128-8.131H696.966l17.924-33.14,32.163-26.833,23.9-41.123,18.353-5.271v-19.106" transform="translate(-847.234 -2185.486)" fill="none" stroke="#fff" stroke-linecap="round" stroke-linejoin="round" stroke-width="2"/>
      <path id="Path_1016" data-name="Path 1016" d="M761.334,1282.114l7.073-21.7-7.073-23.521,19.828-40.4,10.469,7.2-30.3-71.3-14.052,36.12-24.036,11.468" transform="translate(-798.508 -2187.858)" fill="none" stroke="#fff" stroke-linecap="round" stroke-linejoin="round" stroke-width="2"/>
      <path id="Path_1017" data-name="Path 1017" d="M740.324,1250.322l58.972-40.592,8.741-4.515,20.914-10.8L804,1159.192v50.537" transform="translate(-766.844 -2138.179)" fill="none" stroke="#fff" stroke-linecap="round" stroke-linejoin="round" stroke-width="2"/>
      <path id="Path_1018" data-name="Path 1018" d="M620.477,1243.7l131.231-43.89,53.117-25.026,12.462,12.262,21.282-4.544L822.436,1221.5l82.513,127.465" transform="translate(-989.051 -2109.267)" fill="none" stroke="#fff" stroke-linecap="round" stroke-linejoin="round" stroke-width="2"/>
      <path id="Path_1019" data-name="Path 1019" d="M807.766,1327.235l-46.626,5.832-23.305-14.477,9.827-8.182H725.113L707.351,1281.9l-25.29-16.049-9.168-50.163,52.22-24.7" transform="translate(-891.869 -2079.226)" fill="none" stroke="#fff" stroke-linecap="round" stroke-linejoin="round" stroke-width="2"/>
      <path id="Path_1020" data-name="Path 1020" d="M643.873,1177.453l-3.038,41.212,10.06,17.818-7.023,28.554V1287.8l17.1,20.81,14.715,6.839" transform="translate(-951.305 -2104.322)" fill="none" stroke="#fff" stroke-linecap="round" stroke-linejoin="round" stroke-width="2"/>
      <path id="Path_1096" data-name="Path 1096" d="M525.188,1464.4l-12.8-23.846-11.768,2.547-20.432,17.377,4.124,7.79,33.2,3.83,13.455,20.3,30.762,12.173,17.113,6.975,20.376,3.629v12.2H587.488l-12.844-5.921H528.552l-11.044,16.63v12.353h20.724l19.234,14.136L534,1560.505l-5.445,4.064,28.914,31.75v23.467l27.862,19.131L615.023,1613h29.083l6.542-18.925-3.808-33.573H631.38l-16.357-15.476v-14.7l9.75-8.876,38.366-12.819v-20.88L631.38,1502.08l-12.111-9.686,27.57-24.129V1443.1l-11.894-8.99,11.894-23.145-2.734-6.036-33.9,2.167v17.629l-20.236-3.189-45.066,19.016-6.675,23.846Z" transform="translate(-1249.159 -1682.564)" fill="#f3e2ac" stroke="#c8c29d" stroke-linecap="round" stroke-linejoin="round" stroke-width="2"/>
      <path id="Path_1021" data-name="Path 1021" d="M724.442,1235.379l-23.383,3.82-43.393-33.767,9.267-21.269-18.037-4.1-3.807,8.531,16.5,7.016" transform="translate(-943.418 -2099.489)" fill="none" stroke="#fff" stroke-linecap="round" stroke-linejoin="round" stroke-width="2"/>
      <path id="Path_1022" data-name="Path 1022" d="M664.008,1196.978l-22.9-11.509" transform="translate(-950.808 -2089.459)" fill="none" stroke="#fff" stroke-linecap="round" stroke-linejoin="round" stroke-width="2"/>
      <path id="Path_1023" data-name="Path 1023" d="M684.333,1183.928l-4.851,20.14v16.165" transform="translate(-879.651 -2092.316)" fill="none" stroke="#fff" stroke-linecap="round" stroke-linejoin="round" stroke-width="2"/>
      <path id="Path_1077" data-name="Path 1077" d="M641.88,1480.745l50.709-57.091,218.9,62.189h41.034l-33.495,1.522,2.364,37.892,27.636,17.973-3-16.047v-23.35s6.062-16.092,6.5-17.99" transform="translate(-949.37 -1647.843)" fill="none" stroke="#fff" stroke-linecap="round" stroke-linejoin="round" stroke-width="2"/>
      <path id="Path_1078" data-name="Path 1078" d="M743.748,1448.522l.167,26.333" transform="translate(-760.497 -1601.734)" fill="none" stroke="#fff" stroke-linecap="round" stroke-linejoin="round" stroke-width="2"/>
      <path id="Path_1079" data-name="Path 1079" d="M830.692,1536.959l-20.9-46.841-26.046-18.9-34.226-6.128" transform="translate(-749.787 -1571.02)" fill="none" stroke="#fff" stroke-linecap="round" stroke-linejoin="round" stroke-width="2"/>
      <path id="Path_1080" data-name="Path 1080" d="M782.207,1498.553l12.128-3.9-4-10.135H775.674" transform="translate(-701.302 -1534.987)" fill="none" stroke="#fff" stroke-linecap="round" stroke-linejoin="round" stroke-width="2"/>
      <path id="Path_1025" data-name="Path 1025" d="M783.969,1197.875l-8.144-12.89H736.8" transform="translate(-773.38 -2090.356)" fill="none" stroke="#fff" stroke-linecap="round" stroke-linejoin="round" stroke-width="2"/>
      <path id="Path_1027" data-name="Path 1027" d="M619.544,1294.184l13.9-15.361L658.465,1282l-21.559-35.56-3.464-29.9" transform="translate(-990.782 -2031.861)" fill="none" stroke="#fff" stroke-linecap="round" stroke-linejoin="round" stroke-width="2"/>
      <path id="Path_1028" data-name="Path 1028" d="M680.343,1264.549l-16.3,4.425v-12.323L632.293,1239.2" transform="translate(-967.143 -1989.839)" fill="none" stroke="#fff" stroke-linecap="round" stroke-linejoin="round" stroke-width="2"/>
      <path id="Path_1030" data-name="Path 1030" d="M603.376,1287.893l69.249-32.2" transform="translate(-1020.758 -1959.262)" fill="none" stroke="#fff" stroke-linecap="round" stroke-linejoin="round" stroke-width="2"/>
      <path id="Path_1031" data-name="Path 1031" d="M638.8,1253.608l71.445,51.919-3.161,37.666" transform="translate(-955.077 -1963.123)" fill="none" stroke="#fff" stroke-linecap="round" stroke-linejoin="round" stroke-width="2"/>
      <path id="Path_1032" data-name="Path 1032" d="M671.075,1258.821l-4.817,37.053" transform="translate(-904.17 -1959.165)" fill="none" stroke="#fff" stroke-linecap="round" stroke-linejoin="round" stroke-width="2"/>
      <path id="Path_1036" data-name="Path 1036" d="M735.639,1322.181l5.815,21.85,9.843,22.02,14.431,13.774" transform="translate(-775.531 -1835.982)" fill="none" stroke="#fff" stroke-linecap="round" stroke-linejoin="round" stroke-width="2"/>
      <path id="Path_1038" data-name="Path 1038" d="M712.448,1433.852l9.438,25.474,15.842,7.6v13.586l3.531-15.5,13.255-5.691h6.063v-42.711l5.658-13.5V1376.6l-24.977-29.429-10.01-18.949v-23.759" transform="translate(-818.528 -1868.828)" fill="none" stroke="#fff" stroke-linecap="round" stroke-linejoin="round" stroke-width="2"/>
      <path id="Path_1039" data-name="Path 1039" d="M711.683,1305.308l23.063,13.382,9.73,32.288L703.4,1355.6" transform="translate(-835.297 -1867.267)" fill="none" stroke="#fff" stroke-linecap="round" stroke-linejoin="round" stroke-width="2"/>
      <path id="Path_1040" data-name="Path 1040" d="M756.091,1311.8l-3.6,41.213-9.224,10.8-4.862,12.6-24.484-10.642" transform="translate(-815.806 -1855.225)" fill="none" stroke="#fff" stroke-linecap="round" stroke-linejoin="round" stroke-width="2"/>
      <path id="Path_1041" data-name="Path 1041" d="M774.925,1342.194l-14.629,8.92h-21.61l-16.123-16.629" transform="translate(-799.773 -1813.169)" fill="none" stroke="#fff" stroke-linecap="round" stroke-linejoin="round" stroke-width="2"/>
      <path id="Union_2" data-name="Union 2" d="M0,234.115,3.072,215.51l25.628-31.1,32.391,8.842,5.166-5.45L31.148,176.073,28.7,136.392,54,129.212l14.772-29L79.617,104.4,68.782,99.418,76,73.988,63.569,58.011,41.143,55.232,37.121,23.1,44.549,0,72.072,8.382V19.907l28.644-5.743,7.362,15.946,19.064-2.1,14.3,7.118H158.5l14.143,5.788L166.6,61.186,185.02,81l-6.193,18.415,6.193,14.639-38.394,9.887-28.9-16.83-35.812-1.826,9.32,3.6v15.785l39.378,11.721,6.473,21.693,18.618-9.24,16,19.348-22.812,16.213-9.581-5.15L103.331,211.78l-30.19-10.195-29.92,7.174-17.883-7.174,5.811,33.606Z" transform="translate(-620.935 -254.576)" fill="#f3e2ac" stroke="#c8c29d" stroke-linecap="round" stroke-linejoin="round" stroke-width="2"/>
      <path id="Path_1049" data-name="Path 1049" d="M591.414,1368.782l-4.919-35.81-8.1-9.633,13.018-18.833" transform="translate(-1067.075 -1868.754)" fill="none" stroke="#fff" stroke-linecap="round" stroke-linejoin="round" stroke-width="2"/>
      <path id="Path_1050" data-name="Path 1050" d="M598.008,1324.422l-9.437-7.338-15.665-2.069" transform="translate(-1077.252 -1849.269)" fill="none" stroke="#fff" stroke-linecap="round" stroke-linejoin="round" stroke-width="2"/>
      <path id="Path_1052" data-name="Path 1052" d="M560.4,1368.572l-25.145-10.925" transform="translate(-1147.064 -1770.226)" fill="none" stroke="#fff" stroke-linecap="round" stroke-linejoin="round" stroke-width="2"/>
      <path id="Path_1053" data-name="Path 1053" d="M540.682,1365.317l22.5,16.843" transform="translate(-1136.999 -1756.004)" fill="none" stroke="#fff" stroke-linecap="round" stroke-linejoin="round" stroke-width="2"/>
      <path id="Path_1086" data-name="Path 1086" d="M775.306,1392.841,791.341,1410l-4.514,1.757-14.26-15.468-3.672,4.1,14.408,15.482" transform="translate(-713.871 -1704.972)" fill="none" stroke="#fff" stroke-linecap="round" stroke-linejoin="round" stroke-width="2"/>
      <path id="Path_1087" data-name="Path 1087" d="M770.907,1433.9l31.774,9.172-8.176,15.124H781.762l-9.317-10.263Z" transform="translate(-710.141 -1628.848)" fill="#fff"/>
      <path id="Path_1055" data-name="Path 1055" d="M568.692,1366.329l-11.816,22.32" transform="translate(-1106.974 -1754.128)" fill="none" stroke="#fff" stroke-linecap="round" stroke-linejoin="round" stroke-width="2"/>
      <path id="Path_1071" data-name="Path 1071" d="M654.412,1429.821l67.457,21.376,74.388,23.132,9.226-23.132,14.764,4.9-12.007,33.742-17.456,49.054,22.354-49.054,30.729,12.256-23.62,79.886L790.783,1571.3" transform="translate(-926.133 -1636.409)" fill="none" stroke="#c8c29d" stroke-linecap="round" stroke-linejoin="round" stroke-width="2"/>
      <path id="Path_1072" data-name="Path 1072" d="M730.842,1442.509l-5.586,24.077,38.785,9.737" transform="translate(-794.782 -1612.883)" fill="none" stroke="#c8c29d" stroke-linecap="round" stroke-linejoin="round" stroke-width="2"/>
      <path id="Path_1073" data-name="Path 1073" d="M786.045,1442.509l-10.62,14.815,32.667,35.574H771.059l-8.3,19.125" transform="translate(-725.244 -1612.883)" fill="none" stroke="#c8c29d" stroke-linecap="round" stroke-linejoin="round" stroke-width="2"/>
      <path id="Path_1074" data-name="Path 1074" d="M804.957,1533.038l-6.031-16.154h-7.15L776.052,1475.6l5.846-15.177" transform="translate(-700.601 -1579.66)" fill="none" stroke="#c8c29d" stroke-linecap="round" stroke-linejoin="round" stroke-width="2"/>
      <path id="Path_1075" data-name="Path 1075" d="M796.479,1462.651l-4.551,21.926,20.643,45.492" transform="translate(-671.165 -1575.538)" fill="none" stroke="#c8c29d" stroke-linecap="round" stroke-linejoin="round" stroke-width="2"/>
      <path id="Path_1076" data-name="Path 1076" d="M777.409,1463.31,799.019,1470l14.273,37.944-16.68,4.045,16.68-4.045,8.1,21.251" transform="translate(-698.086 -1574.318)" fill="none" stroke="#c8c29d" stroke-linecap="round" stroke-linejoin="round" stroke-width="2"/>
      <path id="Path_1082" data-name="Path 1082" d="M741.936,1493.59l-1.242-60.137,13.039-14.267h17.155l-3.383,20.85-25.569-4.013,23.581,2.023,3.115-17.446h-14.9l-11.8,13.779,22.414,1.645,2.208-14.129H753.733l-8.755,11.559H763.4l.948-10.11H753.733l-4.617,8.489h12.833v-6.755h-7.383l-2.226,4.967h8.253v-3.483h-4.677v2h3.032" transform="translate(-766.157 -1656.128)" fill="none" stroke="#fff" stroke-linecap="round" stroke-linejoin="round" stroke-width="2"/>
      <path id="Path_1083" data-name="Path 1083" d="M909.738,1456.449l-122.167-32.766" transform="translate(-679.244 -1647.788)" fill="none" stroke="#000" stroke-linecap="round" stroke-linejoin="round" stroke-width="2"/>
      <path id="Path_1090" data-name="Path 1090" d="M489.889,1471.363l9.537,9.751,28.6-1.818,21.816-7.932,40.818-42.99,28.515-3.09v-45.691" transform="translate(-1231.174 -1729.535)" fill="none" stroke="#fff" stroke-linecap="round" stroke-linejoin="round" stroke-width="2"/>
      <path id="Path_1091" data-name="Path 1091" d="M571.873,1535.842,560.307,1471l11.768-30.774-11.768-27.531-25.555-17.123" transform="translate(-1147.994 -1699.916)" fill="none" stroke="#fff" stroke-linecap="round" stroke-linejoin="round" stroke-width="2"/>
      <path id="Path_1092" data-name="Path 1092" d="M543.443,1394.964l12.9,23.2,27.239,1.8,137.631,43.479,7.209-7.082,18.586,6.484-5.767,9.365,23.066-8.584,27.37-17.389-25.432-7.022-63.1-8.682-41.181-15.9-75.638-17.4-19.1-10.373Z" transform="translate(-1131.88 -1716.064)" fill="#eaeaea" stroke="#d1d1d1" stroke-linecap="round" stroke-linejoin="round" stroke-width="2"/>
      <path id="Path_1093" data-name="Path 1093" d="M552.585,1399.992l-6,11.53,6.751,4.9,5.065-2.047L571,1437.131l42.487,3.756,38.352,22.491,60.39,3.838,11.838,7.33,9.895-7.33h16.023l3.147-10.749L582.634,1402.19Z" transform="translate(-1126.05 -1691.714)" fill="#bcbcbc" stroke="#bcbcbc" stroke-linecap="round" stroke-linejoin="round" stroke-width="2"/>
      <path id="Path_1094" data-name="Path 1094" d="M535.1,1387.133l25.879,7.969V1412.2l13.139,13.014,23.8-2.56,155.16,49.26,2.339-2.856-18.212-5.319,3.329-2.412,17.409,5.432v-3.021l-13.187-4.05" transform="translate(-1147.344 -1715.556)" fill="none" stroke="#fff" stroke-linecap="round" stroke-linejoin="round" stroke-width="2"/>
      <path id="Path_1097" data-name="Path 1097" d="M489.1,1432.535l22.736,40.5v18.487l5.1,11.247-5.1,13.721-27.063-32.03-11.023-22.579,2.966-23.834Z" transform="translate(-1261.092 -1631.376)" fill="#f3e2ac" stroke="#c8c29d" stroke-linecap="round" stroke-linejoin="round" stroke-width="2"/>
      <path id="Path_1098" data-name="Path 1098" d="M480.189,1481.53l12.577-17.474,21.656,39.875-8.674,15.1Z" transform="translate(-1249.159 -1572.934)" fill="#f3e2ac" stroke="#c8c29d" stroke-linecap="round" stroke-linejoin="round" stroke-width="2"/>
      <g id="Ellipse_42" data-name="Ellipse 42" transform="translate(-586.847 -166.119)" fill="#fff" stroke="#c8c29d" stroke-linejoin="round" stroke-width="2">
        <circle cx="11.416" cy="11.416" r="11.416" stroke="none"/>
        <circle cx="11.416" cy="11.416" r="10.416" fill="none"/>
      </g>
      <path id="Path_1110" data-name="Path 1110" d="M551.707,1529.6l67.05,31.612,28.457,9.666,193.391,2.216v-16.226l-12.583-20.553H811.939L822.6,1514.6l9.431-30.771-37.749-11.513-5.771,18.673,2.381,13.979,3.39,36.342,3.37,29.566" transform="translate(-1116.557 -1557.625)" fill="none" stroke="#c8c29d" stroke-width="2"/>
      <path id="Path_1111" data-name="Path 1111" d="M566.415,1487.565l-1.078,74.6" transform="translate(-1091.286 -1529.344)" fill="none" stroke="#c8c29d" stroke-linecap="round" stroke-linejoin="round" stroke-width="2"/>
      <path id="Path_1112" data-name="Path 1112" d="M554.188,1498.652l65.241-1.266,26.056,1.266,20.473,21.263,2.395,76" transform="translate(-1111.958 -1511.137)" fill="none" stroke="#c8c29d" stroke-linecap="round" stroke-linejoin="round" stroke-width="2"/>
      <path id="Path_1113" data-name="Path 1113" d="M576.262,1486.751l3.605,89.872" transform="translate(-1071.031 -1530.855)" fill="none" stroke="#c8c29d" stroke-linecap="round" stroke-linejoin="round" stroke-width="2"/>
      <path id="Path_1114" data-name="Path 1114" d="M576.262,1489.967l36.161,2.075,28.884,17.211,18.083,29.067" transform="translate(-1071.031 -1524.891)" fill="none" stroke="#c8c29d" stroke-linecap="round" stroke-linejoin="round" stroke-width="2"/>
      <path id="Path_1115" data-name="Path 1115" d="M586.925,1511.111l8.78-19.508" transform="translate(-1051.261 -1521.859)" fill="none" stroke="#c8c29d" stroke-linecap="round" stroke-linejoin="round" stroke-width="2"/>
      <path id="Path_1116" data-name="Path 1116" d="M561.126,1581.069l44.77,4.75,31.089,4.316,32.232,15.116,84.1-4.206-10.88-115.153,8.491-16.422" transform="translate(-1099.095 -1562.895)" fill="none" stroke="#c8c29d" stroke-linecap="round" stroke-linejoin="round" stroke-width="2"/>
      <path id="Path_1117" data-name="Path 1117" d="M584.936,1511.984l-.629,30.079" transform="translate(-1056.115 -1484.07)" fill="none" stroke="#c8c29d" stroke-linecap="round" stroke-linejoin="round" stroke-width="2"/>
      <path id="Path_1136" data-name="Path 1136" d="M649.313,1514.448,648,1547.222" transform="translate(-938.023 -1479.503)" fill="none" stroke="#c8c29c" stroke-linecap="round" stroke-linejoin="round" stroke-width="2"/>
      <path id="Path_1120" data-name="Path 1120" d="M616.243,1490.249l56.5-2.093,54.138,17.111,6.133-17.111-24.131-8.86" transform="translate(-994.049 -1541.823)" fill="none" stroke="#c8c29d" stroke-linecap="round" stroke-linejoin="round" stroke-width="2"/>
      <path id="Path_1121" data-name="Path 1121" d="M660.717,1475.395,659,1498.6" transform="translate(-920.478 -1549.056)" fill="none" stroke="#c8c29d" stroke-linecap="round" stroke-linejoin="round" stroke-width="2"/>
      <path id="Path_1122" data-name="Path 1122" d="M626.415,1623.21l-8.665-125.775" transform="translate(-994.108 -1511.045)" fill="none" stroke="#c8c29d" stroke-linecap="round" stroke-linejoin="round" stroke-width="2"/>
      <path id="Path_1123" data-name="Path 1123" d="M597.692,1595.07l20.23-32.465,17.492,15.163,33.055,2.672,26.41-6.68-8.425-42.836,10.723,42.836,21-2.294-4.878-63.625,4.878,63.625,13.847,26.16,29.24,8.986,3.28,1.008-2.166-50.7H741.452v32.042l-9.433,8.659-2.3,19.681s2.187-20.293,2.3-19.681l32.52,9.995,27.282-1.008,3.168-26.173-7.886-23.515s-23.6.259-24.729,0" transform="translate(-1031.298 -1491.752)" fill="none" stroke="#c8c29d" stroke-linecap="round" stroke-linejoin="round" stroke-width="2"/>
      <path id="Path_1184" data-name="Path 1184" d="M690.115,1545.215l23.086-35.537,25.981-6.231,21.072-8.632,24.569,10.785,59.953-4.958,17.811,15.777L818.079,1532.9l11.05,18.4H749.921L717,1537.628Z" transform="translate(-859.937 -1515.903)" fill="#79d7f5" stroke="#79d7f5" stroke-linecap="round" stroke-linejoin="round" stroke-width="2"/>
      <path id="Path_884" data-name="Path 884" stroke="#207dff" d="M3640.255-695.488s8.141-26.3,4.458-44.518-11.794-.641-19.189-28.365-6.885-35.872-3.2-69.615,14.837-36.76,17.934-65.356,3.629-43.716-6.194-57.544-25.235-8.1-38.293-17.362-13.937-19.7-13.937-19.7,50.622-29.817,91.634-29.817,76.431,33.57,76.431,33.57" fill="none" transform="translate(-3626.885 693.926)" stroke-linecap="round" stroke-linejoin="round" stroke-width="4" stroke-dasharray="8"/>
      <path id="Path_1140" data-name="Path 1140" d="M661.223,1674.611l25.607-70.948,27.652-66.737" transform="translate(-913.506 -1437.827)" fill="none" stroke="#fff" stroke-linecap="round" stroke-linejoin="round" stroke-width="2"/>
      <path id="Path_1124" data-name="Path 1124" d="M659.837,1497.772l14.832,22.073-6.388,21.542,2.911,33.655" transform="translate(-916.074 -1510.421)" fill="none" stroke="#c8c29d" stroke-linecap="round" stroke-linejoin="round" stroke-width="2"/>
      <path id="Path_1125" data-name="Path 1125" d="M671.556,1481.79l21.775,11.279v11.4l10.265,3.45-5.365,9.65H687.968l-10.676,7.939-25.676,2.873" transform="translate(-931.316 -1540.052)" fill="none" stroke="#c8c29d" stroke-linecap="round" stroke-linejoin="round" stroke-width="2"/>
      <path id="Path_1126" data-name="Path 1126" d="M694.764,1564.444l7.647-21.033-2.283-23.826-16.565-19.216-2.063-10.3-14.554-3.99" transform="translate(-902.894 -1532.111)" fill="none" stroke="#c8c29d" stroke-linecap="round" stroke-linejoin="round" stroke-width="2"/>
      <path id="Path_1127" data-name="Path 1127" d="M694.315,1594.407l-20.34-36.895-6.521-62.973" transform="translate(-901.951 -1516.414)" fill="none" stroke="#c8c29c" stroke-linecap="round" stroke-linejoin="round" stroke-width="2"/>
      <path id="Path_1128" data-name="Path 1128" d="M582.046,1533.17l36.071,7.43h70.871l29.567-24.8-29.567,24.8-25.595,25.243-17.235,49.773" transform="translate(-1060.307 -1477.003)" fill="none" stroke="#fff" stroke-linecap="round" stroke-linejoin="round" stroke-width="2"/>
      <path id="Path_1129" data-name="Path 1129" d="M751.52,1514.074l-112.9,1.116" transform="translate(-955.413 -1480.196)" fill="none" stroke="#fff" stroke-linecap="round" stroke-linejoin="round" stroke-width="2"/>
      <path id="Path_1130" data-name="Path 1130" d="M663.942,1489.967l-12.818,20.544" transform="translate(-932.231 -1524.891)" fill="none" stroke="#c8c29d" stroke-linecap="round" stroke-linejoin="round" stroke-width="2"/>
      <path id="Path_1134" data-name="Path 1134" d="M585.572,1506.909l-.815,13.477" transform="translate(-1055.28 -1493.48)" fill="none" stroke="#c8c29d" stroke-width="2"/>
      <path id="Path_1135" data-name="Path 1135" d="M630.216,1517.536l25.358-3.088" transform="translate(-970.995 -1479.503)" fill="none" stroke="#fff" stroke-linecap="round" stroke-linejoin="round" stroke-width="2"/>
      <path id="Path_1137" data-name="Path 1137" d="M681.735,1518.651l15.53,23.262-12.152,27.679" transform="translate(-875.474 -1471.707)" fill="none" stroke="#c8c29c" stroke-linecap="round" stroke-linejoin="round" stroke-width="2"/>
      <path id="Path_1138" data-name="Path 1138" d="M694.332,1549.64l-17.626-20.274" transform="translate(-884.799 -1451.844)" fill="none" stroke="#c8c29c" stroke-linecap="round" stroke-width="2"/>
      <path id="Path_1139" data-name="Path 1139" d="M979.764,1725.53,680.135,1536.864" transform="translate(-878.44 -1437.941)" fill="none" stroke="#fff" stroke-linecap="round" stroke-linejoin="round" stroke-width="2"/>
      <path id="Path_1141" data-name="Path 1141" d="M705.9,1548.35l80.957,49.78-59.681,94.65-68.31-40.83" transform="translate(-917.87 -1416.643)" fill="none" stroke="#fff" stroke-linecap="round" stroke-linejoin="round" stroke-width="2"/>
      <path id="Path_1142" data-name="Path 1142" d="M756.79,1598.085l-81.629-49.77" transform="translate(-887.662 -1416.707)" fill="none" stroke="#fff" stroke-linecap="round" stroke-linejoin="round" stroke-width="2"/>
      <path id="Path_1143" data-name="Path 1143" d="M749.5,1604.411l-77.929-47.348" transform="translate(-894.323 -1400.489)" fill="none" stroke="#fff" stroke-linecap="round" stroke-linejoin="round" stroke-width="2"/>
      <path id="Path_1144" data-name="Path 1144" d="M739.323,1610.413l-71.4-42.375" transform="translate(-901.077 -1380.139)" fill="none" stroke="#fff" stroke-linecap="round" stroke-linejoin="round" stroke-width="2"/>
      <path id="Path_1145" data-name="Path 1145" d="M709.571,1601.616l-31.277-20.364" transform="translate(-881.854 -1355.641)" fill="none" stroke="#fff" stroke-linecap="round" stroke-linejoin="round" stroke-width="2"/>
      <path id="Path_1146" data-name="Path 1146" d="M697.51,1597.287l-33.362-20.3" transform="translate(-908.081 -1363.551)" fill="none" stroke="#fff" stroke-linecap="round" stroke-linejoin="round" stroke-width="2"/>
      <path id="Path_1165" data-name="Path 1165" d="M723.932,1526.791l31.794,10.16,21.843,23.113v22.92l13.956,19.8v16.239" transform="translate(-797.236 -1456.616)" fill="none" stroke="#c8c29c" stroke-linecap="round" stroke-linejoin="round" stroke-width="2"/>
      <path id="Path_1166" data-name="Path 1166" d="M776.731,1526.791l-28.2,3.492-12.158,9.891" transform="translate(-774.176 -1456.616)" fill="none" stroke="#c8c29c" stroke-linecap="round" stroke-linejoin="round" stroke-width="2"/>
      <path id="Path_1167" data-name="Path 1167" d="M719.553,1592.7l12.9-27.164V1527.1" transform="translate(-805.356 -1456.044)" fill="none" stroke="#c8c29c" stroke-linecap="round" stroke-linejoin="round" stroke-width="2"/>
      <path id="Path_1168" data-name="Path 1168" d="M777.056,1558.036l-26.7-16.045-26.14-1.76" transform="translate(-796.701 -1431.698)" fill="none" stroke="#c8c29c" stroke-width="2"/>
      <path id="Path_1169" data-name="Path 1169" d="M733.093,1583.468l-14.1-11.108,1.295-11.743,18.624-1.649,9.15-14.176,30.359,17.878-1.6,11.224H752.914l-4.854,9.575Z" transform="translate(-806.398 -1423.241)" fill="#d1e0a8" stroke="#c8c29c" stroke-linecap="round" stroke-linejoin="round" stroke-width="2"/>
      <path id="Path_1170" data-name="Path 1170" d="M715.33,1568.039l-11.869,24.526,22.1,17.3v12.946l40.205,31.17,25.787-39.01-38.746-22.4-37.475-24.526" transform="translate(-838.045 -1380.139)" fill="#d1e0a8" stroke="#fefcf7" stroke-linecap="round" stroke-linejoin="round" stroke-width="2"/>
      <path id="Path_1171" data-name="Path 1171" d="M771.009,1582.886l-30,44.372,33.311,23.83,19.278-30.641,7.139-19.457Z" transform="translate(-765.574 -1352.612)" fill="#d1e0a8" stroke="#fff" stroke-width="2"/>
      <path id="Path_883" data-name="Path 883" stroke="#207dff" d="M3695.018-628.744s-46.978-16.65-65.226-34.857-8.937-19.1-7.768-37.973-.964-6.735-7.245-52.7c-3.414-24.983,1.376-78.305,0-97.327-.917-12.681-11.437-17.7-13.16-25.458-4.607-20.778-1.182-23.318,5.915-29.466,9.362-8.11,16.4,8.917,33.746,14.09s23.236-4.485,38.215,3.367,5.879,19.481,21.7,28.041c5.236,2.833,15-1.495,20.957,0,9.528,2.4,14.6,8.431,20.621,6.2,9-3.34,15.606-18.842,15.606-18.842" fill="none" transform="translate(-3594.086 914.722)" stroke-linecap="round" stroke-linejoin="round" stroke-width="4" stroke-dasharray="8"/>
      <path id="Path_1175" data-name="Path 1175" d="M631.948,1531.238l6.676,41.608" transform="translate(-967.783 -1448.372)" fill="none" stroke="#c8c29d" stroke-linecap="round" stroke-linejoin="round" stroke-width="2"/>
      <path id="Path_1177" data-name="Path 1177" d="M665.525,1542.273l24.993,8.672" transform="translate(-905.529 -1427.912)" fill="none" stroke="#c8c29d" stroke-linecap="round" stroke-width="2"/>
      <path id="Path_1176" data-name="Path 1176" d="M659.937,1542.643l-6.653,13.085" transform="translate(-928.226 -1427.225)" fill="none" stroke="#c8c29d" stroke-linecap="round" stroke-linejoin="round" stroke-width="2"/>
      <path id="Path_1181" data-name="Path 1181" d="M684.209,1572.728l-18.846-9.312-16.539,14.217,19.757,14.794Z" transform="translate(-936.493 -1388.709)" fill="#d1e0a8"/>
      <path id="Path_885" data-name="Path 885" stroke="#207dff" d="M3848.487-935.666s-9.86,32.808-43.431,42.285c-14.6,4.123-35.824-7.6-53.589-9.326a82.468,82.468,0,0,0-37.262,4.95s-17.973,4.576-39.1,43.477-19.351,79.109-46.708,109.775-124.807-5.007-149.849,12.891-13.041,71.594-13.041,71.594" fill="none" transform="translate(-3847.888 864.685)" stroke-linecap="round" stroke-linejoin="round" stroke-width="4" stroke-dasharray="8"/>
      <path id="Path_1183" data-name="Path 1183" d="M634.889,1586.319l13.872-7.307-5.7-14.525-10.9,7.68Z" transform="translate(-967.386 -1386.724)" fill="#d1e0a8"/>
      <path id="Path_1178" data-name="Path 1178" d="M625.2,1551.786l42.009,38.87,12.193,18.926v24.388" transform="translate(-980.293 -1410.275)" fill="none" stroke="#c8c29d" stroke-linecap="round" stroke-linejoin="round" stroke-width="2"/>
      <path id="Path_1179" data-name="Path 1179" d="M621.14,1580.878l33.2,16.715,31.438-21.978,7.443-25.129-7.443,25.129-21.271-25.129" transform="translate(-987.822 -1412.684)" fill="none" stroke="#c8c29d" stroke-linecap="round" stroke-linejoin="round" stroke-width="2"/>
      <path id="Path_1180" data-name="Path 1180" d="M647.311,1611.031l29.369-26.31v-8.892l28.557,3.022-7.272,15.593s-21.381-9.562-21.285-9.724,21.285,9.724,21.285,9.724l-17.615,19.87-22-12.376,22,12.376,17.615,14.947-39.618-27.323,6.308-7.494L642.51,1575.83" transform="translate(-948.201 -1411.208)" fill="none" stroke="#c8c29d" stroke-linecap="round" stroke-linejoin="round" stroke-width="2"/>
      <path id="Path_1182" data-name="Path 1182" d="M632.256,1571.345l1.857,14.686L647.92,1579l-4.6-14.354" transform="translate(-967.213 -1386.436)" fill="none" stroke="#c8c29d" stroke-linecap="round" stroke-linejoin="round" stroke-width="2"/>
      <path id="Path_1185" data-name="Path 1185" d="M597.883,1539.831l25.766,53.026,51.018,41.314,70.587,25.7,30.7,7.911,125.464,80.058" transform="translate(-1030.944 -1432.439)" fill="none" stroke="#fff" stroke-linecap="round" stroke-linejoin="round" stroke-width="2"/>
      <path id="Path_1186" data-name="Path 1186" d="M775.617,1738.188,645.7,1580.218" transform="translate(-942.295 -1357.557)" fill="none" stroke="#fff" stroke-linecap="round" stroke-linejoin="round" stroke-width="2"/>
      <path id="Path_1187" data-name="Path 1187" d="M687.176,1698.161l13.142-16.765,50.61-64.562-14.6,26.344,37.65,19.406-50.035,13.537-23.624,5.274" transform="translate(-871.093 -1294.323)" fill="none" stroke="#fff" stroke-linecap="round" stroke-linejoin="round" stroke-width="2"/>
      <path id="Path_1191" data-name="Path 1191" d="M782.207,1786.124l-12.27-91.455L734.09,1655.9l12.77-13.316" transform="translate(-778.404 -1241.929)" fill="none" stroke="#fff" stroke-linecap="round" stroke-linejoin="round" stroke-width="2"/>
      <path id="Path_1188" data-name="Path 1188" d="M792.843,1791.821l-7.375-74.464-26.88-46.043-22.9-27.469-7.507,4.465-14.282-8.8" transform="translate(-815.839 -1247.625)" fill="none" stroke="#fff" stroke-linecap="round" stroke-linejoin="round" stroke-width="2"/>
      <path id="Path_1189" data-name="Path 1189" d="M803.219,1749.306l-24.352-.747L705.345,1636.18" transform="translate(-831.699 -1253.799)" fill="none" stroke="#fff" stroke-linecap="round" stroke-linejoin="round" stroke-width="2"/>
      <path id="Path_1190" data-name="Path 1190" d="M872.054,1715.174,743.879,1732.28l-32-19.132v-23.681l36.065-23.9" transform="translate(-819.581 -1199.316)" fill="none" stroke="#fff" stroke-linecap="round" stroke-linejoin="round" stroke-width="2"/>
      <path id="Path_1192" data-name="Path 1192" d="M746.745,1660.883l59.772,62.295" transform="translate(-754.94 -1207.998)" fill="none" stroke="#fff" stroke-linecap="round" stroke-linejoin="round" stroke-width="2"/>
      <path id="Path_1193" data-name="Path 1193" d="M684.786,1645.322l35.632,67.575" transform="translate(-869.816 -1236.849)" fill="none" stroke="#fff" stroke-linecap="round" stroke-linejoin="round" stroke-width="2"/>
      <path id="Path_1194" data-name="Path 1194" d="M693.079,1661.084l12.8-5.055L721.32,1686" transform="translate(-854.441 -1216.996)" fill="none" stroke="#fff" stroke-linecap="round" stroke-linejoin="round" stroke-width="2"/>
      <path id="Path_1195" data-name="Path 1195" d="M724.2,1640.6l-24.7,18.576,27.115,45.073" transform="translate(-842.553 -1245.601)" fill="none" stroke="#fff" stroke-linecap="round" stroke-linejoin="round" stroke-width="2"/>
      <path id="Path_882" data-name="Path 882" stroke="#207dff" d="M3524.237-741.345a151.567,151.567,0,0,0,40.846-12.1c15.034-6.829,30.558-21.556,48.425-24.08,41.647-5.883,53.049-.886,77.321,12.649s20.412,25.491,35.161,34.036,23.92-1.475,23.92-1.475" fill="none" transform="translate(-3733.666 1153.383)" stroke-linecap="round" stroke-linejoin="round" stroke-width="4" stroke-dasharray="8"/>
      <path id="Path_1197" data-name="Path 1197" stroke="#142d4c" d="M830.758,1289.16l-55.1,120.128L681.676,1548v100.607L710.44,1721.8l88.655,79.1" fill="none" transform="translate(-875.584 -1897.206)" stroke-linecap="round" stroke-linejoin="round" stroke-width="2" stroke-dasharray="10"/>
      <path id="Path_1198" data-name="Path 1198" d="M500.508,1393.085l37.924,96.395,55.706,56.378,132.23,77.347,136.737,80.517,83.918,84.618L1055.938,1844l109.9,82.632,42.753,136.346,17.38,83.225-17.38,122.049" transform="translate(-1211.486 -1704.52)" fill="none" stroke="#142d4c" stroke-linejoin="round" stroke-width="2" stroke-dasharray="10"/>
      <path id="Path_1199" data-name="Path 1199" stroke="#142d4c" d="M1105.589,1830.3,909.348,1697.22l-88.633-41.468-49.757-9.126-80.632-39.54L569.562,1553.22" fill="none" transform="translate(-1083.453 -1407.614)" stroke-linecap="round" stroke-linejoin="round" stroke-width="2" stroke-dasharray="10"/>
      <path id="Path_881" data-name="Path 881" d="M4142.321-1046.181c8.836-5.313,44.137,7.811,49.294,13.046s-7.856,4.11,15.591,15.062,78.2,28.743,78.2,28.743l14.44-56.851s-74.666-88.951-127.731-147.5-69.828-86.064-84.53-86.7c-37.631-1.655-89.435,24.088-110.713,40.837-28.911,22.757,4.56,31.684,0,45.865,0,0,.886,10.862-18.239,10.862s-25.316-17.629-58.261-10.862-63.085,16.009-111.557,66.008-50.42,74.168-76.039,133.5-26.438,103.814-26.438,103.814-25.662,70.592-63.673,119.249-88.372,75.378-88.372,75.378h-20.621s-28.362,35.744-41.2,69.232-1.156,38.529-10.153,64.721-3.111,17.675-26.594,39.961-37.635,22.03-67.336,49.186c-19.634,17.949-31.576,38.611-41.337,55.728-23.863,41.852,13.221,39.978,13.221,62.492s-13.221,27.567-13.221,27.567-11.084,1.091-13.487,4.575.507,7.022,3.879,9.363,9.608,0,9.608,0,24.735,29.579,36.822,40.283,7.186,2.308,19.091,8.987,28.532,17.73,28.532,17.73,90.309,12.582,144.649,55.168,75.015,111.557,75.015,111.557,71.17,28.133,98.675,48.168-10.416,9.363,27.956,49.1c15.349,15.893,35.012,26.78,52.355,40.293,24.365,18.985,47.036,40.564,73.177,69.544,43.568,48.3,18.913,39.6,32.128,66.239s29.23,35.878,45.379,68.038,7.125,34.72,19.215,60.6,16.746,41.378,35.816,43.14,22.242-24.367,57.084-35.1,45.119-2.592,75.61-8.042,37.938-2.907,45.829-11.738-10.7-10.913-14.262-23.129-3.187-13.971,0-25.735,22.217-5.049,12.753-21.78-50.611-45.144-50.611-45.144l61.629-47.261s68.306,2.724,72.176-7.871-43.78-29.186-46.806-74.473S4255.349-4.88,4264.354-37.97s-2.911-22.981,7.511-52.582c3.638-10.331,10.186-17.888,15.556-26.388,8.649-13.7,16.289-26.115,18.62-39.435,3.58-20.46-14.052-30.2-14.052-30.2V-243.4s-1.12-32.478,14.052-72.4,26.909-35.867,39.5-71.946,10.64-48.964,10.867-72.368-31.463-12.26-58.438-24.553-50.754-39.25-50.754-39.25l22.207-159.323S4131.316-766.7,4060.8-803.859s-67.6-23.2-73.448-28.023-5.236-19.281-5.236-19.281-1.291-8.338-11.454-12.778-28.343,5.693-29.2-4.983,9.1-48.826,24.241-57.267,52.307-2.352,70.585-15.759-4.485-28.539,2.529-37.871,14.972,6.969,37.244,2.67,35.278-2.611,51.845-19.868S4133.485-1040.868,4142.321-1046.181Z" transform="translate(-4125.916 225.402)" fill="none" stroke="#142d4c" stroke-linejoin="round" stroke-width="4"/>
      <path id="Path_891" data-name="Path 891" stroke="#207dff" d="M3729.045-1083.1a90.915,90.915,0,0,0-26.571,21.56c-8.44,10.022-8.039,22.8-17.938,27.386-22.915,10.613-28.935-6.493-47.15-6.493s-24.638-2.7-28.424,13.323,8.135,37.517,2.979,47.253-13.74-13.834-23.6-8.31-15.849,30.407-15.849,30.407" fill="none" transform="translate(-3649.915 602.75)" stroke-linecap="round" stroke-linejoin="round" stroke-width="4" stroke-dasharray="8"/>
      <path id="Path_890" data-name="Path 890" stroke="#207dff" d="M3444.115-1143.048s31.782,26.529,60.934,30.654,38.917-16.706,55.674-14.155-5.073,18.042,11.241,24.728,39.78-5.067,59.416,0,4.551,13.877,13.286,20.268,23.925-7.454,28.605,5.294-11.028,25.723-9.884,45.7,9.655,4.75,11.441,28.914-5.433,80.135-5.433,80.135" fill="none" transform="translate(-3882.221 485.889)" stroke-linecap="round" stroke-linejoin="round" stroke-width="4" stroke-dasharray="8"/>
    </g>
  </g>
</svg>
