<?xml version="1.0" standalone="no"?>
<!DOCTYPE svg PUBLIC "-//W3C//DTD SVG 1.1//EN" "http://www.w3.org/Graphics/SVG/1.1/DTD/svg11.dtd" >
<svg xmlns="http://www.w3.org/2000/svg">
<metadata>
Generated by SVGconv.
Copyright   : Copyright (c) 2014 by Vyacheslav Kirilenko, Gayane Bagdasaryan. All rights reserved.
Designer    : Vyacheslav Kirilenko, Gayane Bagdasaryan
Foundry     : Vyacheslav Kirilenko, Gayane Bagdasaryan
Foundry URL : http://www.brownfox.org
</metadata>
<defs>
<font id="Gerbera-Bold" horiz-adv-x="566" >
<font-face units-per-em="1000" ascent="1049" descent="288" />
<missing-glyph horiz-adv-x="575" />
<glyph unicode="&#13;" horiz-adv-x="270" />
<glyph unicode="&#32;" horiz-adv-x="270" />
<glyph unicode="&#33;" horiz-adv-x="384" d="M139 218l-28 500h162l-28 -500zM110 68q0 34 24 58q24 24 58 24q34 0 58 -24q24 -24 24 -58q0 -34 -24 -58q-24 -24 -58 -24q-34 0 -58 24t-24 58z" />
<glyph unicode="&#34;" horiz-adv-x="426" d="M48 718h138l-18 -264h-102zM240 718h138l-18 -264l-102 0z" />
<glyph unicode="&#35;" horiz-adv-x="650" d="M116 91l29 167h-85v112h105l16 90h-93v112h112l26 146h105l-26 -146h94l26 146h104l-26 -146h87v-112h-107l-16 -90h95v-112h-115l-29 -167h-104l29 167h-94l-29 -167zM269 370h94l16 90l-94 0z" />
<glyph unicode="&#36;" horiz-adv-x="503" d="M416 512q-32 35 -75.5 56.5q-43.5 21.5 -90.5 21.5q-11 0 -22 -2q-11 -2 -20.5 -6.5q-9.5 -4.5 -15.5 -13q-6 -8.5 -6 -20.5q0 -17 16 -33q16 -16 32 -29q42 -34 74.5 -59.5q32.5 -25.5 61.5 -51.5q21 -18 39 -37.5q18 -19.5 31.5 -42q13.5 -22.5 21.5 -49q8 -26.5 8 -57.5q0 -77 -43 -128.5q-43 -51.5 -114 -67.5l0 -104h-117v103q-30 6 -57 18.5q-27 12.5 -49 28q-22 15.5 -38 34q-16 18.5 -23 36.5l39 124q14 -21 35.5 -40.5q21.5 -19.5 47 -33.5q25.5 -14 54 -22.5q28.5 -8.5 56.5 -8.5q28 0 52 13.5q24 13.5 24 46.5q0 23 -15 42q-15 19 -34 34q-51 42 -93 76q-42 34 -72 66q-27 29 -48.5 64.5q-21.5 35.5 -21.5 83.5q0 70 40.5 114q40.5 44 102.5 58l0 103h117v-105q45 -11 78.5 -36q33.5 -25 50.5 -52z" />
<glyph unicode="&#39;" horiz-adv-x="234" d="M48 718h138l-18 -264l-102 0z" />
<glyph unicode="&#40;" horiz-adv-x="387" d="M347 712q-80 -106 -112 -219q-32 -113 -32 -220q0 -52 7.5 -107q7.5 -55 24.5 -110.5q17 -55.5 44.5 -110.5q27.5 -55 67.5 -108l-111 -10q-81 94 -118.5 207.5q-37.5 113.5 -37.5 238.5q0 128 37.5 243q37.5 115 118.5 206z" />
<glyph unicode="&#41;" horiz-adv-x="387" d="M40 712q80 -106 112 -219q32 -113 32 -220q0 -52 -7.5 -107q-7.5 -55 -24.5 -110.5q-17 -55.5 -44.5 -110.5q-27.5 -55 -67.5 -108l111 -10q81 94 118.5 207.5q37.5 113.5 37.5 238.5q0 128 -37.5 243q-37.5 115 -118.5 206z" />
<glyph unicode="&#42;" horiz-adv-x="503" d="M80 350l85 118l-140 46l34 102l138 -44v146h108v-146l139 45l34 -103l-140 -46l85 -118l-86 -63l-86 118l-85 -118z" />
<glyph unicode="&#45;" horiz-adv-x="470" d="M400 332v-110h-330l0 110z" />
<glyph unicode="&#48;" horiz-adv-x="610" d="M305 732q57 0 103.5 -25q46.5 -25 79 -73q32.5 -48 50 -118q17.5 -70 17.5 -159q0 -86 -16.5 -155q-16.5 -69 -48 -117q-31.5 -48 -78 -73.5q-46.5 -25.5 -105.5 -25.5q-62 0 -109 26.5q-47 26.5 -78.5 75q-31.5 48.5 -48 117.5q-16.5 69 -16.5 155q0 87 17 156q17 69 49 117q32 48 78.5 73.5q46.5 25.5 105.5 25.5zt0 0zM305 590q-24 0 -45 -13.5q-21 -13.5 -37 -42q-16 -28.5 -25 -72.5q-9 -44 -9 -105q0 -60 9.5 -103.5q9.5 -43.5 25.5 -71.5q16 -28 37 -41q21 -13 45 -13q48 0 81.5 57.5q33.5 57.5 33.5 172.5q0 110 -32.5 171t-83.5 61z" />
<glyph unicode="&#49;" horiz-adv-x="429" d="M55 583l171 135h103v-718h-131v540l-143 -98z" />
<glyph unicode="&#50;" horiz-adv-x="542" d="M242 590q-27 0 -49 -8q-22 -8 -40 -21.5q-18 -13.5 -32 -30.5q-14 -17 -24 -35l-56 94q8 29 26.5 55q18.5 26 46 45.5q27.5 19.5 62.5 31q35 11.5 76 11.5q53 0 94 -17q41 -17 69 -46.5q28 -29.5 42.5 -68.5q14.5 -39 14.5 -83q0 -39 -9 -72q-9 -33 -26.5 -65q-17.5 -32 -43.5 -64.5q-26 -32.5 -60 -71.5l-88 -102h244v-142h-445v112l201 223q22 25 39.5 46q17.5 21 29.5 40.5q12 19.5 18 38.5q6 19 6 40q0 36 -26.5 63t-69.5 27z" />
<glyph unicode="&#51;" horiz-adv-x="546" d="M247 128q54 0 87 27.5q33 27.5 33 73.5q0 42 -31 68q-31 26 -84 26q-26 0 -47.5 -5.5q-21.5 -5.5 -33.5 -12.5l-22 101l137 170h-214v142h389v-103l-134 -166q29 -5 59.5 -20q30.5 -15 56 -41.5q25.5 -26.5 42 -65.5q16.5 -39 16.5 -93q0 -50 -18 -94q-18 -44 -51.5 -77q-33.5 -33 -80.5 -52.5q-47 -19.5 -104 -19.5q-42 0 -77.5 10q-35.5 10 -63 26q-27.5 16 -46.5 36q-19 20 -27 41l33 116q31 -42 74.5 -64.5t106.5 -22.5z" />
<glyph unicode="&#52;" horiz-adv-x="529" d="M303 718h119v-376h82v-142h-82v-200h-131v200h-271v114zM291 342v179l-125 -179z" />
<glyph unicode="&#53;" horiz-adv-x="558" d="M257 128q50 0 83.5 26.5q33.5 26.5 33.5 72.5q0 24 -9 42q-9 18 -24 30q-15 12 -34.5 18q-19.5 6 -40.5 6q-30 0 -57 -8.5q-27 -8.5 -46 -25.5l-90 25l35 404h354v-142h-249l-11 -123q18 8 40.5 10.5q22.5 2.5 36.5 2.5q49 0 91 -17.5q42 -17.5 72.5 -49q30.5 -31.5 48 -74.5q17.5 -43 17.5 -94q0 -54 -19 -99q-19 -45 -52.5 -77.5q-33.5 -32.5 -78.5 -50.5q-45 -18 -97 -18q-44 0 -80 10.5q-36 10.5 -63 27q-27 16.5 -45 36.5q-18 20 -24 39l33 117q31 -43 75.5 -65.5t99.5 -22.5z" />
<glyph unicode="&#54;" horiz-adv-x="577" d="M279 472q4 1 9 1q5 0 9 0q46 0 88.5 -18q42.5 -18 75.5 -50q33 -32 52.5 -75.5q19.5 -43.5 19.5 -93.5q0 -53 -20 -98.5q-20 -45.5 -54 -79q-34 -33.5 -78.5 -53q-44.5 -19.5 -93.5 -19.5q-52 0 -96.5 19q-44.5 19 -77 52q-32.5 33 -51 78q-18.5 45 -18.5 97q0 60 23 113q23 53 50 98l168 275h147zM399 229q0 23 -9 41.5q-9 18.5 -24 32q-15 13.5 -35 21q-20 7.5 -42 7.5q-23 0 -43 -7.5q-20 -7.5 -35 -21q-15 -13.5 -24 -32q-9 -18.5 -9 -41.5q0 -23 9 -41.5q9 -18.5 24 -32q15 -13.5 35 -20.5q20 -7 43 -7q45 0 77.5 27.5t32.5 73.5z" />
<glyph unicode="&#55;" horiz-adv-x="521" d="M320 576h-275v142h431v-102l-259 -616l-138 0z" />
<glyph unicode="&#56;" horiz-adv-x="586" d="M442 375q38 -25 63.5 -68.5q25.5 -43.5 25.5 -98.5q0 -47 -18 -87.5q-18 -40.5 -50 -70.5q-32 -30 -75.5 -47q-43.5 -17 -94.5 -17q-51 0 -94.5 17q-43.5 17 -75.5 47q-32 30 -50 70.5q-18 40.5 -18 87.5q0 55 25 98.5q25 43.5 63 68.5q-27 20 -48.5 58q-21.5 38 -21.5 86q0 44 16 82.5q16 38.5 45.5 67.5q29.5 29 70 46q40.5 17 88.5 17q48 0 88.5 -17q40.5 -17 70 -46q29.5 -29 45.5 -67.5q16 -38.5 16 -82.5q0 -48 -21.5 -86q-21.5 -38 -49.5 -58zt0 0zM293 590q-42 0 -64.5 -23.5q-22.5 -23.5 -22.5 -52.5q0 -29 22.5 -52q22.5 -23 64.5 -23q42 0 64 23q22 23 22 52q0 29 -22 52.5q-22 23.5 -64 23.5zt0 0zM293 128q47 0 75.5 25.5q28.5 25.5 28.5 62.5q0 38 -28.5 63.5q-28.5 25.5 -75.5 25.5q-47 0 -76 -25.5q-29 -25.5 -29 -63.5q0 -37 29 -62.5t76 -25.5z" />
<glyph unicode="&#57;" horiz-adv-x="577" d="M298 246q-4 -1 -9 -1q-5 0 -9 0q-46 0 -88.5 18q-42.5 18 -75.5 50q-33 32 -52.5 75.5q-19.5 43.5 -19.5 93.5q0 53 20 98.5q20 45.5 54 79q34 33.5 78.5 53q44.5 19.5 93.5 19.5q52 0 96.5 -19q44.5 -19 77 -52q32.5 -33 51 -78q18.5 -45 18.5 -97q0 -60 -23 -113q-23 -53 -50 -98l-168 -275h-147zM178 489q0 -23 9 -41.5q9 -18.5 24 -32q15 -13.5 35 -21q20 -7.5 42 -7.5q23 0 43 7.5q20 7.5 35 21q15 13.5 24 32q9 18.5 9 41.5q0 23 -9 41.5q-9 18.5 -24 32q-15 13.5 -35 20.5q-20 7 -43 7q-45 0 -77.5 -27.5t-32.5 -73.5z" />
<glyph unicode="&#58;" horiz-adv-x="314" d="M70 73q0 37 25 62q25 25 62 25q37 0 62 -25q25 -25 25 -62q0 -37 -25 -62q-25 -25 -62 -25q-37 0 -62 25q-25 25 -25 62zt0 0zM70 441q0 37 25 62q25 25 62 25q37 0 62 -25q25 -25 25 -62q0 -37 -25 -62q-25 -25 -62 -25q-37 0 -62 25t-25 62z" />
<glyph unicode="&#59;" horiz-adv-x="314" d="M128 -3q-20 5 -38.5 24q-18.5 19 -18.5 54q0 18 6.5 33.5q6.5 15.5 18.5 27q12 11.5 28 18q16 6.5 35 6.5q37 0 60.5 -26q23.5 -26 23.5 -62q0 -30 -10 -54q-10 -24 -24 -48l-65 -110h-80zM68 441q0 37 25 62q25 25 62 25q37 0 62 -25q25 -25 25 -62q0 -37 -25 -62q-25 -25 -62 -25q-37 0 -62 25t-25 62z" />
<glyph unicode="&#63;" horiz-adv-x="479" d="M151 68q0 34 24 58q24 24 58 24q34 0 58 -24q24 -24 24 -58q0 -34 -24 -58q-24 -24 -58 -24q-34 0 -58 24q-24 24 -24 58zt0 0zM60 640q21 37 67.5 64.5q46.5 27.5 108.5 27.5q79 0 126 -42q47 -42 47 -109q0 -54 -34 -92.5q-34 -38.5 -93 -72.5q-41 -25 -55 -38.5q-14 -13.5 -14 -26.5q0 -11 9 -18.5q9 -7.5 29 -7.5q26 0 55 13.5q29 13.5 52 37.5l21 -102q-18 -29 -54.5 -50q-36.5 -21 -86.5 -21q-33 0 -60.5 10q-27.5 10 -47.5 28q-20 18 -31 42.5q-11 24.5 -11 53.5q0 21 5.5 41q5.5 20 19.5 40q14 20 38 41q24 21 60 44q44 28 59 43.5q15 15.5 15 29.5q0 18 -15.5 27q-15.5 9 -37.5 9q-48 0 -85 -22.5q-37 -22.5 -58 -48.5z" />
<glyph unicode="&#65;" horiz-adv-x="707" d="M701 0h-138l-58 147h-300l-58 -147h-141l283 718h129zM259 286h191l-95 242z" />
<glyph unicode="&#66;" horiz-adv-x="583" d="M267 718q49 0 92 -12.5q43 -12.5 74.5 -37.5q31.5 -25 49.5 -61.5q18 -36.5 18 -85.5q0 -48 -16.5 -80.5q-16.5 -32.5 -45.5 -57.5q45 -23 72 -65q27 -42 27 -108q0 -49 -19 -88q-19 -39 -52 -66q-33 -27 -76.5 -41.5q-43.5 -14.5 -91.5 -14.5h-214v718zM216 584v-160h74q33 0 56.5 22.5q23.5 22.5 23.5 57.5q0 32 -23 56q-23 24 -58 24zM216 298v-164h109q34 0 58 23.5q24 23.5 24 58.5q0 16 -6 31q-6 15 -17.5 26q-11.5 11 -26.5 18q-15 7 -33 7z" />
<glyph unicode="&#67;" horiz-adv-x="704" d="M673 114q-16 -27 -42 -50.5q-26 -23.5 -61 -41q-35 -17.5 -77.5 -27q-42.5 -9.5 -91.5 -9.5q-72 0 -138.5 27q-66.5 27 -117 76q-50.5 49 -80.5 118q-30 69 -30 152q0 83 30 152q30 69 80.5 118q50.5 49 117 76q66.5 27 138.5 27q48 0 90 -10q42 -10 76.5 -27.5q34.5 -17.5 60 -40.5q25.5 -23 40.5 -49l-41 -116q-15 20 -36.5 38q-21.5 18 -49.5 32q-28 14 -60.5 22.5q-32.5 8.5 -69.5 8.5q-53 0 -97.5 -16q-44.5 -16 -76.5 -46q-32 -30 -50 -73q-18 -43 -18 -96q0 -53 18 -96q18 -43 50 -73q32 -30 76.5 -46q44.5 -16 97.5 -16q39 0 73 8.5q34 8.5 62 23q28 14.5 49.5 33.5q21.5 19 36.5 40z" />
<glyph unicode="&#68;" horiz-adv-x="735" d="M566 359q0 46 -16 85.5q-16 39.5 -45 68.5q-29 29 -69 46q-40 17 -88 17h-132v-434h132q46 0 86 15.5q40 15.5 69 44q29 28.5 46 68.5q17 40 17 89zt0 0zM310 718q85 0 156.5 -24q71.5 -24 123.5 -69.5q52 -45.5 81 -112.5q29 -67 29 -153q0 -85 -29.5 -151.5q-29.5 -66.5 -82 -112.5q-52.5 -46 -123.5 -70.5q-71 -24.5 -155 -24.5h-225l0 718z" />
<glyph unicode="&#69;" horiz-adv-x="541" d="M85 718h396v-142h-265v-136h235v-142h-235v-156h265v-142l-396 0z" />
<glyph unicode="&#70;" horiz-adv-x="494" d="M85 718h359v-142h-228v-136h208v-142h-208v-298l-131 0z" />
<glyph unicode="&#71;" horiz-adv-x="749" d="M401 732q48 0 90 -10.5q42 -10.5 76.5 -28q34.5 -17.5 60 -40.5q25.5 -23 40.5 -49l-41 -116q-15 19 -36.5 37.5q-21.5 18.5 -49.5 33q-28 14.5 -60.5 23q-32.5 8.5 -69.5 8.5q-54 0 -99 -16.5q-45 -16.5 -76.5 -46.5q-31.5 -30 -49 -73q-17.5 -43 -17.5 -95q0 -54 18 -97q18 -43 50.5 -73q32.5 -30 78 -45.5q45.5 -15.5 100.5 -15.5q47 0 84.5 13.5q37.5 13.5 65.5 37.5l0 73h-155v137h283v-253q-19 -30 -46 -57q-27 -27 -63.5 -48q-36.5 -21 -82 -33q-45.5 -12 -100.5 -12q-72 0 -138.5 27q-66.5 27 -117.5 76q-51 49 -81 117.5q-30 68.5 -30 151.5q0 83 30 152q30 69 81 118.5q51 49.5 117 76.5t138 27z" />
<glyph unicode="&#72;" horiz-adv-x="766" d="M85 718h131v-278h334v278h131v-718h-131v298h-334v-298l-131 0z" />
<glyph unicode="&#73;" horiz-adv-x="301" d="M85 718h131v-718l-131 0z" />
<glyph unicode="&#74;" horiz-adv-x="428" d="M348 185q0 -94 -46.5 -146.5q-46.5 -52.5 -141.5 -52.5q-20 0 -41.5 5q-21.5 5 -40.5 14q-19 9 -34 21.5q-15 12.5 -24 26.5l14 128q21 -23 47.5 -38q26.5 -15 63.5 -15q31 0 51.5 18.5q20.5 18.5 20.5 66.5v505l131 0z" />
<glyph unicode="&#75;" horiz-adv-x="667" d="M85 718h131v-274l244 274h168l-303 -341l342 -377h-181l-270 297v-297l-131 0z" />
<glyph unicode="&#76;" horiz-adv-x="485" d="M85 718h131v-576h249v-142l-380 0z" />
<glyph unicode="&#77;" horiz-adv-x="958" d="M672 718h135l96 -718h-132l-61 462l-167 -462h-121l-167 462l-61 -462h-139l96 718h135l193 -510z" />
<glyph unicode="&#78;" horiz-adv-x="766" d="M85 718h131l334 -487v487h131v-718h-132l-333 484v-484l-131 0z" />
<glyph unicode="&#79;" horiz-adv-x="810" d="M405 732q75 0 142 -28q67 -28 118 -77.5q51 -49.5 80.5 -118q29.5 -68.5 29.5 -149.5q0 -80 -29.5 -148q-29.5 -68 -80.5 -118q-51 -50 -118 -78.5q-67 -28.5 -142 -28.5q-75 0 -142 28.5q-67 28.5 -118 78.5q-51 50 -80.5 118q-29.5 68 -29.5 148q0 80 29.5 148q29.5 68 80.5 118q51 50 118 78.5q67 28.5 142 28.5zt0 0zM405 590q-50 0 -93 -16.5q-43 -16.5 -75 -47q-32 -30.5 -50 -73q-18 -42.5 -18 -94.5q0 -52 18 -94.5q18 -42.5 50 -73q32 -30.5 75 -47q43 -16.5 93 -16.5q50 0 93 16.5q43 16.5 74.5 47q31.5 30.5 49.5 73q18 42.5 18 94.5q0 52 -18 94.5q-18 42.5 -49.5 73q-31.5 30.5 -74.5 47t-93 16.5z" />
<glyph unicode="&#80;" horiz-adv-x="550" d="M291 718q50 0 92.5 -16q42.5 -16 74 -45.5q31.5 -29.5 49.5 -70.5q18 -41 18 -92q0 -49 -17 -90q-17 -41 -48 -70.5q-31 -29.5 -74 -46q-43 -16.5 -94 -16.5h-76v-271h-131v718zM216 577v-165h95q35 0 59 22.5q24 22.5 24 59.5q0 35 -23 59q-23 24 -60 24z" />
<glyph unicode="&#81;" horiz-adv-x="809" d="M405 732q75 0 142 -28q67 -28 118 -77.5q51 -49.5 80.5 -118q29.5 -68.5 29.5 -149.5q0 -70 -23 -131q-23 -61 -63 -109q-40 -48 -94 -80.5q-54 -32.5 -117 -44.5q6 -32 28.5 -45q22.5 -13 45.5 -13q30 0 51 10.5q21 10.5 44 31.5l11 -115q-23 -25 -55 -40.5q-32 -15.5 -76 -15.5q-89 0 -130.5 48.5q-41.5 48.5 -42.5 134.5q-66 9 -124.5 40.5q-58.5 31.5 -101.5 80q-43 48.5 -68 112q-25 63.5 -25 136.5q0 80 29.5 148q29.5 68 80.5 118q51 50 118 78.5q67 28.5 142 28.5zt0 0zM405 590q-50 0 -93 -16.5q-43 -16.5 -75 -47q-32 -30.5 -50 -73q-18 -42.5 -18 -94.5q0 -52 18 -94.5q18 -42.5 50 -73q32 -30.5 75 -47q43 -16.5 93 -16.5q50 0 93 16.5q43 16.5 74.5 47q31.5 30.5 49.5 73q18 42.5 18 94.5q0 52 -18 94.5q-18 42.5 -49.5 73q-31.5 30.5 -74.5 47t-93 16.5z" />
<glyph unicode="&#82;" horiz-adv-x="571" d="M85 718h213q40 0 79 -12.5q39 -12.5 69.5 -38.5q30.5 -26 49 -65.5q18.5 -39.5 18.5 -93.5q0 -70 -34.5 -122q-34.5 -52 -98.5 -74l165 -312h-146l-158 298h-26v-298h-131zM216 577v-147h93q32 0 53 20q21 20 21 53q0 32 -20.5 53q-20.5 21 -53.5 21z" />
<glyph unicode="&#83;" horiz-adv-x="503" d="M416 512q-32 36 -76.5 57q-44.5 21 -86.5 21q-12 0 -23.5 -2q-11.5 -2 -21.5 -6.5q-10 -4.5 -16 -13q-6 -8.5 -6 -20.5q0 -17 16 -33q16 -16 32 -29q42 -34 74.5 -59.5q32.5 -25.5 61.5 -51.5q21 -18 39 -37.5q18 -19.5 31.5 -42q13.5 -22.5 21.5 -49q8 -26.5 8 -57.5q0 -46 -16 -83.5q-16 -37.5 -45 -64q-29 -26.5 -69 -41q-40 -14.5 -88 -14.5q-41 0 -77.5 11q-36.5 11 -66 28.5q-29.5 17.5 -50 39.5q-20.5 22 -29.5 44l39 124q16 -23 38 -42q22 -19 47.5 -33q25.5 -14 52.5 -22q27 -8 53 -8q33 0 55.5 14.5q22.5 14.5 22.5 44.5q0 23 -13.5 41q-13.5 18 -38.5 39q-51 42 -91.5 74.5q-40.5 32.5 -70.5 64.5q-27 29 -48.5 64.5q-21.5 35.5 -21.5 83.5q0 43 16 76q16 33 43 55.5q27 22.5 63 34.5q36 12 77 12q33 0 62.5 -8.5q29.5 -8.5 54 -22q24.5 -13.5 43.5 -30.5q19 -17 30 -35z" />
<glyph unicode="&#84;" horiz-adv-x="579" d="M13 718h553v-140h-211v-578h-131v578l-211 0z" />
<glyph unicode="&#85;" horiz-adv-x="733" d="M522 718h131v-433q0 -65 -20 -120q-20 -55 -57.5 -95q-37.5 -40 -90.5 -62q-53 -22 -119 -22q-64 0 -117 21.5q-53 21.5 -90.5 60.5q-37.5 39 -58 94q-20.5 55 -20.5 122v434h131v-431q0 -73 43 -116q43 -43 114 -43q72 0 113 44q41 44 41 116z" />
<glyph unicode="&#86;" horiz-adv-x="669" d="M6 718h140l187 -510l187 510h143l-263 -718l-131 0z" />
<glyph unicode="&#87;" horiz-adv-x="1022" d="M704 251l157 467h146l-238 -718h-120l-138 486l-138 -486h-120l-238 718h141l157 -467l134 467l123 0z" />
<glyph unicode="&#88;" horiz-adv-x="672" d="M175 0h-160l242 371l-228 347h156l149 -228l149 228h160l-228 -347l242 -371h-156l-163 250z" />
<glyph unicode="&#89;" horiz-adv-x="595" d="M5 718h145l146 -266l146 266h148l-226 -418v-300h-131l0 300z" />
<glyph unicode="&#90;" horiz-adv-x="511" d="M45 718h414v-107l-253 -469h255v-142h-416v107l249 469l-249 0z" />
<glyph unicode="&#91;" horiz-adv-x="393" d="M100 -169v887h218v-128h-101v-631h101l0 -128z" />
<glyph unicode="&#93;" horiz-adv-x="393" d="M293 -169v887h-218v-128h101v-631h-101l0 -128z" />
<glyph unicode="&#94;" horiz-adv-x="556" d="M40 330l181 356h115l180 -356h-122l-115 231l-115 -231z" />
<glyph unicode="&#95;" horiz-adv-x="506" d="M-2 -59h510v-110l-510 0z" />
<glyph unicode="&#96;" horiz-adv-x="350" d="M215 750l70 -160h-100l-120 160z" />
<glyph unicode="&#97;" horiz-adv-x="566" d="M367 185q-8 14 -35 24.5q-27 10.5 -62 10.5q-50 0 -75 -16q-25 -16 -25 -42q0 -26 25.5 -41.5q25.5 -15.5 73.5 -15.5q35 0 62 12.5q27 12.5 36 30.5zM69 438q14 22 35.5 39q21.5 17 47.5 28.5q26 11.5 55.5 17.5q29.5 6 59.5 6q51 0 92.5 -14q41.5 -14 71.5 -40q30 -26 46.5 -64.5q16.5 -38.5 16.5 -87.5v-323h-123v45q-19 -29 -59 -44q-40 -15 -82 -15q-41 0 -75 12q-34 12 -59.5 33.5q-25.5 21.5 -39.5 53q-14 31.5 -14 70.5q0 41 16.5 72.5q16.5 31.5 44.5 53q28 21.5 64.5 32.5q36.5 11 75.5 11q50 0 81.5 -11.5q31.5 -11.5 42.5 -24.5l0 14q0 45 -29.5 72q-29.5 27 -86.5 27q-49 0 -88.5 -19q-39.5 -19 -62.5 -48z" />
<glyph unicode="&#98;" horiz-adv-x="656" d="M614 257q0 -60 -21.5 -110q-21.5 -50 -57.5 -86q-36 -36 -83.5 -55.5q-47.5 -19.5 -99.5 -19.5q-57 0 -98.5 19.5q-41.5 19.5 -54.5 48.5l0 -54h-123v728h127v-267q13 29 53.5 48.5q40.5 19.5 97.5 19.5q51 0 98 -20q47 -20 83 -56q36 -36 57.5 -86q21.5 -50 21.5 -110zt0 0zM486 257q0 30 -11 55.5q-11 25.5 -30.5 43.5q-19.5 18 -47 28q-27.5 10 -60.5 10q-48 0 -85 -19.5q-37 -19.5 -49 -48.5l0 -137q12 -29 49 -48.5q37 -19.5 85 -19.5q33 0 60.5 10q27.5 10 47 28q19.5 18 30.5 43t11 55z" />
<glyph unicode="&#99;" horiz-adv-x="550" d="M508 78q-23 -38 -75 -65q-52 -27 -121 -27q-54 0 -102.5 20q-48.5 20 -86 56q-37.5 36 -59.5 86q-22 50 -22 110q0 60 22 110q22 50 59.5 86q37.5 36 86 55.5q48.5 19.5 102.5 19.5q69 0 119.5 -27q50.5 -27 72.5 -64l-36 -106q-20 24 -57 43q-37 19 -85 19q-70 0 -112 -37.5q-42 -37.5 -42 -98.5q0 -61 42 -99q42 -38 112 -38q49 0 86 20q37 20 58 44z" />
<glyph unicode="&#100;" horiz-adv-x="656" d="M42 257q0 60 21.5 110q21.5 50 57.5 86q36 36 83 56q47 20 98 20q57 0 97.5 -19.5q40.5 -19.5 53.5 -48.5l0 267h127v-728h-123v54q-13 -29 -54.5 -48.5q-41.5 -19.5 -98.5 -19.5q-52 0 -99.5 19.5q-47.5 19.5 -83.5 55.5q-36 36 -57.5 86q-21.5 50 -21.5 110zt0 0zM170 257q0 -30 11 -55q11 -25 30.5 -43q19.5 -18 47 -28q27.5 -10 60.5 -10q48 0 85 19.5q37 19.5 49 48.5l0 137q-12 29 -49 48.5q-37 19.5 -85 19.5q-33 0 -60.5 -10q-27.5 -10 -47 -28q-19.5 -18 -30.5 -43.5t-11 -55.5z" />
<glyph unicode="&#101;" horiz-adv-x="599" d="M322 114q48 0 92 17.5q44 17.5 66 46.5l39 -98q-24 -40 -76.5 -67q-52.5 -27 -124.5 -27q-59 0 -109.5 19q-50.5 19 -87.5 54q-37 35 -58 85q-21 50 -21 113q0 55 18.5 104q18.5 49 53 86.5q34.5 37.5 83 59.5q48.5 22 109.5 22q57 0 103.5 -22.5q46.5 -22.5 79 -60q32.5 -37.5 50.5 -86.5q18 -49 18 -103q0 -11 -0.5 -23.5q-0.5 -12.5 -2.5 -21.5l-382 0q9 -51 50 -74.5q41 -23.5 100 -23.5zt0 0zM427 316q-6 41 -40 62.5q-34 21.5 -81 21.5q-47 0 -84 -21.5q-37 -21.5 -45 -62.5z" />
<glyph unicode="&#102;" horiz-adv-x="448" d="M404 578q-19 16 -39 25q-20 9 -46 9q-27 0 -49.5 -17q-22.5 -17 -22.5 -56v-24h163v-135h-163v-380h-127v380h-89v135h89v45q0 40 11.5 73.5q11.5 33.5 33.5 57.5q22 24 54.5 37.5q32.5 13.5 75.5 13.5q48 0 82.5 -18q34.5 -18 50.5 -43z" />
<glyph unicode="&#103;" horiz-adv-x="654" d="M40 267q0 58 21 106.5q21 48.5 57 83q36 34.5 83 53.5q47 19 99 19q58 0 100 -19.5q42 -19.5 55 -47.5l0 53h123v-508q0 -52 -18 -95q-18 -43 -51.5 -74q-33.5 -31 -81 -48q-47.5 -17 -105.5 -17q-40 0 -75.5 8.5q-35.5 8.5 -65 22.5q-29.5 14 -51 32q-21.5 18 -32.5 37l38 114q26 -32 71.5 -56.5q45.5 -24.5 104.5 -24.5q24 0 48.5 5q24.5 5 45 18.5q20.5 13.5 33 37.5q12.5 24 12.5 62v41q-13 -29 -54 -48q-41 -19 -99 -19q-51 0 -98 19.5q-47 19.5 -82.5 54.5q-35.5 35 -56.5 83.5q-21 48.5 -21 106.5zt0 0zM168 264q0 -58 40.5 -94q40.5 -36 108.5 -36q48 0 85 19.5q37 19.5 49 46.5l0 127q-6 13 -19 25q-13 12 -30.5 21.5q-17.5 9.5 -39 15q-21.5 5.5 -45.5 5.5q-34 0 -61.5 -9.5q-27.5 -9.5 -47 -27q-19.5 -17.5 -30 -41.5t-10.5 -52z" />
<glyph unicode="&#104;" horiz-adv-x="623" d="M203 0h-127v728h127v-265q11 29 44.5 47.5q33.5 18.5 89.5 18.5q40 0 79 -13.5q39 -13.5 70 -41.5q31 -28 50.5 -71.5q19.5 -43.5 19.5 -103.5v-299h-127v278q0 56 -32 86q-32 30 -79 30q-41 0 -74.5 -22q-33.5 -22 -40.5 -56z" />
<glyph unicode="&#105;" horiz-adv-x="282" d="M78 515h127v-515h-127zM56 673q0 35 25 60q25 25 60 25q35 0 60 -25q25 -25 25 -60q0 -35 -25 -60q-25 -25 -60 -25q-35 0 -60 25t-25 60z" />
<glyph unicode="&#106;" horiz-adv-x="287" d="M83 515h127v-571q0 -171 -137 -171q-26 0 -54 8.5q-28 8.5 -52 28.5l12 121q12 -13 27 -18q15 -5 28 -5q27 0 38 15.5q11 15.5 11 49.5zM61 673q0 35 25 60q25 25 60 25q35 0 60 -25q25 -25 25 -60q0 -35 -25 -60q-25 -25 -60 -25q-35 0 -60 25t-25 60z" />
<glyph unicode="&#107;" horiz-adv-x="575" d="M76 728h127v-404l188 191h170l-238 -242l260 -273h-171l-209 217v-217l-127 0z" />
<glyph unicode="&#108;" horiz-adv-x="279" d="M76 728h127v-728l-127 0z" />
<glyph unicode="&#109;" horiz-adv-x="936" d="M664 529q37 0 73.5 -13q36.5 -13 65.5 -39q29 -26 47.5 -66.5q18.5 -40.5 18.5 -94.5v-316h-127v288q0 51 -28.5 78.5q-28.5 27.5 -70.5 27.5q-38 0 -69 -21.5q-31 -21.5 -38 -53.5l0 -319h-127v289q0 51 -28.5 78q-28.5 27 -71.5 27q-38 0 -68.5 -21.5q-30.5 -21.5 -37.5 -53.5l0 -319h-127v515h123v-52q10 28 44.5 47q34.5 19 87.5 19q45 0 87.5 -18.5q42.5 -18.5 73.5 -56.5q31 42 74.5 58.5t97.5 16.5z" />
<glyph unicode="&#110;" horiz-adv-x="623" d="M556 0h-127v278q0 56 -32 86q-32 30 -79 30q-41 0 -74.5 -22q-33.5 -22 -40.5 -56l0 -316h-127v515h123v-52q11 29 46.5 47.5q35.5 18.5 91.5 18.5q40 0 79 -13.5q39 -13.5 70 -41.5q31 -28 50.5 -71.5q19.5 -43.5 19.5 -103.5z" />
<glyph unicode="&#111;" horiz-adv-x="628" d="M586 257q0 -59 -22 -108.5q-22 -49.5 -59.5 -85.5q-37.5 -36 -86.5 -56.5q-49 -20.5 -104 -20.5q-55 0 -104 20.5q-49 20.5 -86.5 56.5q-37.5 36 -59.5 85.5q-22 49.5 -22 108.5q0 58 22 108q22 50 59.5 86.5q37.5 36.5 86.5 57q49 20.5 104 20.5q55 0 104 -20.5q49 -20.5 86.5 -57q37.5 -36.5 59.5 -86.5q22 -50 22 -108zt0 0zM170 257q0 -30 11 -55q11 -25 30.5 -43q19.5 -18 46 -28q26.5 -10 56.5 -10q30 0 56 10q26 10 45.5 28q19.5 18 31 43q11.5 25 11.5 55q0 30 -11.5 55.5q-11.5 25.5 -31 43.5q-19.5 18 -45.5 28q-26 10 -56 10q-30 0 -56.5 -10q-26.5 -10 -46 -28q-19.5 -18 -30.5 -43.5t-11 -55.5z" />
<glyph unicode="&#112;" horiz-adv-x="656" d="M614 258q0 -60 -21.5 -110q-21.5 -50 -57.5 -86q-36 -36 -83 -56q-47 -20 -98 -20q-57 0 -97.5 19.5q-40.5 19.5 -53.5 48.5l0 -267h-127v728h123v-54q13 29 54.5 48.5q41.5 19.5 98.5 19.5q52 0 99.5 -19.5q47.5 -19.5 83.5 -55.5q36 -36 57.5 -86q21.5 -50 21.5 -110zt0 0zM486 258q0 30 -11 55q-11 25 -30.5 43q-19.5 18 -47 28q-27.5 10 -60.5 10q-48 0 -85 -19.5q-37 -19.5 -49 -48.5l0 -137q12 -29 49 -48.5q37 -19.5 85 -19.5q33 0 60.5 10q27.5 10 47 28q19.5 18 30.5 43.5t11 55.5z" />
<glyph unicode="&#113;" horiz-adv-x="656" d="M42 258q0 60 21.5 110q21.5 50 57.5 86q36 36 83.5 55.5q47.5 19.5 99.5 19.5q57 0 98.5 -19.5q41.5 -19.5 54.5 -48.5l0 54h123v-728h-127v267q-13 -29 -53.5 -48.5q-40.5 -19.5 -97.5 -19.5q-51 0 -98 20q-47 20 -83 56q-36 36 -57.5 86q-21.5 50 -21.5 110zt0 0zM170 258q0 -30 11 -55.5q11 -25.5 30.5 -43.5q19.5 -18 47 -28q27.5 -10 60.5 -10q48 0 85 19.5q37 19.5 49 48.5l0 137q-12 29 -49 48.5q-37 19.5 -85 19.5q-33 0 -60.5 -10q-27.5 -10 -47 -28q-19.5 -18 -30.5 -43t-11 -55z" />
<glyph unicode="&#114;" horiz-adv-x="416" d="M378 373q-11 8 -28.5 14.5q-17.5 6.5 -39.5 6.5q-45 0 -72 -24.5q-27 -24.5 -35 -59.5l0 -310h-127v515h123v-68q11 36 40.5 59q29.5 23 73.5 23q29 0 51 -11.5q22 -11.5 32 -27.5z" />
<glyph unicode="&#115;" horiz-adv-x="442" d="M177 223q-63 32 -93.5 70q-30.5 38 -30.5 87q0 30 12 57.5q12 27.5 34.5 47.5q22.5 20 53 32q30.5 12 68.5 12q57 0 98 -21.5q41 -21.5 59 -49.5l-24 -113q-31 30 -67 42q-36 12 -63 12q-43 0 -43 -25q0 -12 10 -19.5q10 -7.5 31 -18.5l48 -25q63 -32 96 -69q33 -37 33 -95q0 -35 -13 -64q-13 -29 -37.5 -51q-24.5 -22 -58.5 -34q-34 -12 -76 -12q-66 0 -111 27q-45 27 -64 61l36 112q9 -12 22.5 -25q13.5 -13 31.5 -23.5q18 -10.5 40 -17q22 -6.5 49 -6.5q23 0 39 8q16 8 16 27q0 17 -13 27.5q-13 10.5 -40 24.5z" />
<glyph unicode="&#116;" horiz-adv-x="458" d="M410 46q-18 -26 -51 -43q-33 -17 -77 -17q-86 0 -127.5 46q-41.5 46 -41.5 130v218h-88v41l177 224h39v-130h163v-135h-164v-190q0 -38 19 -53.5q19 -15.5 45 -15.5q26 0 44 9.5q18 9.5 35 29.5z" />
<glyph unicode="&#117;" horiz-adv-x="620" d="M67 515h127v-278q0 -56 31 -86q31 -30 78 -30q41 0 74 22q33 22 40 56l0 316h127v-515h-123v52q-11 -29 -46 -47.5q-35 -18.5 -91 -18.5q-40 0 -79 13.5q-39 13.5 -69.5 41.5q-30.5 28 -49.5 71.5q-19 43.5 -19 103.5z" />
<glyph unicode="&#118;" horiz-adv-x="568" d="M226 0l-212 515h135l133 -333l133 333h139l-212 -515z" />
<glyph unicode="&#119;" horiz-adv-x="876" d="M597 196l122 319h143l-205 -515h-116l-103 321l-103 -321h-116l-205 515h139l122 -319l103 319l116 0z" />
<glyph unicode="&#120;" horiz-adv-x="564" d="M164 0h-155l196 272l-176 243h152l99 -138l99 138h156l-176 -243l196 -272h-151l-120 167z" />
<glyph unicode="&#121;" horiz-adv-x="584" d="M17 515h137l135 -320l135 320h141l-308 -728h-139l105 245z" />
<glyph unicode="&#122;" horiz-adv-x="470" d="M55 515h355v-106l-191 -274h202v-135h-372v106l194 274l-188 0z" />
<glyph unicode="&#123;" horiz-adv-x="415" d="M161 131q4 24 -2.5 41q-6.5 17 -19 28q-12.5 11 -29.5 16.5q-17 5.5 -35 5.5l0 103q18 0 34.5 5.5q16.5 5.5 29.5 16.5q13 11 19 28q6 17 3 41l-19 132q-6 43 5.5 77.5q11.5 34.5 38.5 57.5q27 23 67.5 32.5q40.5 9.5 91.5 2.5l0 -116q-41 4 -68 -16q-27 -20 -20 -63l21 -131q7 -46 -11.5 -75.5q-18.5 -29.5 -45.5 -42.5q27 -13 45.5 -42.5q18.5 -29.5 11.5 -75.5l-21 -131q-7 -44 19.5 -63.5q26.5 -19.5 68.5 -15.5l0 -115q-51 -7 -91.5 2.5q-40.5 9.5 -67.5 32.5q-27 23 -38.5 57.5q-11.5 34.5 -5.5 77.5z" />
<glyph unicode="&#124;" horiz-adv-x="297" d="M207 -169h-117v887l117 0z" />
<glyph unicode="&#125;" horiz-adv-x="415" d="M254 131q-4 24 2.5 41q6.5 17 19 28q12.5 11 29.5 16.5q17 5.5 35 5.5l0 103q-18 0 -34.5 5.5q-16.5 5.5 -29.5 16.5q-13 11 -19 28q-6 17 -3 41l19 132q6 43 -5.5 77.5q-11.5 34.5 -38.5 57.5q-27 23 -67.5 32.5q-40.5 9.5 -91.5 2.5l0 -116q41 4 68 -16q27 -20 20 -63l-21 -131q-7 -46 11.5 -75.5q18.5 -29.5 45.5 -42.5q-27 -13 -45.5 -42.5q-18.5 -29.5 -11.5 -75.5l21 -131q7 -44 -19.5 -63.5q-26.5 -19.5 -68.5 -15.5l0 -115q51 -7 91.5 2.5q40.5 9.5 67.5 32.5q27 23 38.5 57.5q11.5 34.5 5.5 77.5z" />
<glyph unicode="&#160;" horiz-adv-x="270" />
<glyph unicode="&#161;" horiz-adv-x="384" d="M245 297l28 -500h-162l28 500zM110 447q0 34 24 58q24 24 58 24q34 0 58 -24q24 -24 24 -58q0 -34 -24 -58q-24 -24 -58 -24q-34 0 -58 24t-24 58z" />
<glyph unicode="&#162;" horiz-adv-x="550" d="M277 -117v106q-48 6 -90.5 28q-42.5 22 -75 57q-32.5 35 -51 81.5q-18.5 46.5 -18.5 102.5q0 55 18.5 102q18.5 47 51 81.5q32.5 34.5 75 56.5q42.5 22 90.5 28l0 101h90v-104q48 -10 84 -33q36 -23 53 -52l-36 -106q-15 19 -41.5 35.5q-26.5 16.5 -59.5 22.5l0 -265q34 5 60 22.5q26 17.5 43 37.5l38 -107q-18 -31 -54.5 -54.5q-36.5 -23.5 -86.5 -32.5l0 -108zM172 258q0 -51 28 -85.5q28 -34.5 77 -45.5l0 261q-48 -10 -76.5 -44.5t-28.5 -85.5z" />
<glyph unicode="&#163;" horiz-adv-x="558" d="M508 142v-142h-448v106q21 10 41 26.5q20 16.5 35.5 37q15.5 20.5 24.5 44q9 23.5 9 47.5q0 5 -0.5 10q-0.5 5 -1.5 10l-107 0v128h67q-10 27 -17 54.5q-7 27.5 -7 56.5q0 50 15.5 89.5q15.5 39.5 43.5 66.5q28 27 67.5 41.5q39.5 14.5 86.5 14.5q35 0 65 -9q30 -9 53.5 -25q23.5 -16 40 -36.5q16.5 -20.5 24.5 -43.5l-53 -101q-19 28 -48 50.5q-29 22.5 -77 22.5q-42 0 -63 -22.5q-21 -22.5 -21 -54.5q0 -23 8 -49q8 -26 19 -55l138 0v-128h-101q1 -5 1.5 -9q0.5 -4 0.5 -8q0 -40 -14 -71.5q-14 -31.5 -31 -50.5z" />
<glyph unicode="&#164;" horiz-adv-x="638" d="M127 263q-28 48 -28 107q0 57 28 107l-77 78l85 84l77 -77q48 28 107 28q57 0 107 -28l77 77l85 -84l-77 -78q28 -50 28 -107q0 -59 -28 -107l77 -77l-85 -85l-78 77q-23 -13 -50 -20q-27 -7 -56 -7q-29 0 -56 7q-27 7 -51 20l-77 -77l-85 85zM319 457q-38 0 -64.5 -24.5q-26.5 -24.5 -26.5 -62.5q0 -38 26.5 -62.5q26.5 -24.5 64.5 -24.5q38 0 64.5 24.5q26.5 24.5 26.5 62.5q0 38 -26.5 62.5t-64.5 24.5z" />
<glyph unicode="&#165;" horiz-adv-x="541" d="M196 319l-22 51h-106v108h58l-106 240h132l117 -271l117 271h135l-105 -240h62v-108h-109l-23 -51h132v-108h-141v-211h-131v211h-138l0 108z" />
<glyph unicode="&#166;" horiz-adv-x="297" d="M207 -169h-117v353h117zM207 365h-117v353l117 0z" />
<glyph unicode="&#167;" horiz-adv-x="586" d="M525 263q0 -55 -26.5 -93q-26.5 -38 -62.5 -58q28 -26 43.5 -56.5q15.5 -30.5 15.5 -68.5q0 -41 -15 -73q-15 -32 -42.5 -54q-27.5 -22 -65 -34q-37.5 -12 -82.5 -12q-36 0 -66.5 8q-30.5 8 -55 21q-24.5 13 -43 30q-18.5 17 -30.5 34l28 124q35 -41 81 -58q46 -17 89 -17q28 0 47.5 8.5q19.5 8.5 19.5 27.5q0 9 -8 18.5q-8 9.5 -21 19.5q-13 10 -30 20.5q-17 10.5 -34 20.5l-74 44q-24 15 -48 33.5q-24 18.5 -42.5 41q-18.5 22.5 -30 48.5q-11.5 26 -11.5 56q0 54 26 93.5q26 39.5 61 56.5q-25 18 -40.5 50q-15.5 32 -15.5 69q0 39 15 70.5q15 31.5 41.5 53q26.5 21.5 63.5 33.5q37 12 82 12q34 0 64.5 -7.5q30.5 -7.5 55.5 -20q25 -12.5 44 -29q19 -16.5 30 -33.5l-28 -123q-18 19 -39.5 32.5q-21.5 13.5 -44 22q-22.5 8.5 -44.5 12.5q-22 4 -41 4q-25 0 -44 -7q-19 -7 -19 -24q0 -18 24.5 -34q24.5 -16 56.5 -36l78 -47q25 -15 50 -33.5q25 -18.5 44.5 -41q19.5 -22.5 31.5 -48.5q12 -26 12 -56zt0 0zM193 313q0 -23 20.5 -43q20.5 -20 58.5 -45l71 -46q20 8 35 25.5q15 17.5 15 40.5q0 23 -22.5 43q-22.5 20 -58.5 43l-72 46q-20 -8 -33.5 -24.5t-13.5 -39.5z" />
<glyph unicode="&#168;" horiz-adv-x="500" d="M74 665q0 32 21.5 53.5q21.5 21.5 53.5 21.5q32 0 53.5 -21.5q21.5 -21.5 21.5 -53.5q0 -32 -21.5 -53.5q-21.5 -21.5 -53.5 -21.5q-32 0 -53.5 21.5q-21.5 21.5 -21.5 53.5zt0 0zM276 665q0 32 21.5 53.5q21.5 21.5 53.5 21.5q32 0 53.5 -21.5q21.5 -21.5 21.5 -53.5q0 -32 -21.5 -53.5q-21.5 -21.5 -53.5 -21.5q-32 0 -53.5 21.5t-21.5 53.5z" />
<glyph unicode="&#169;" horiz-adv-x="816" d="M408 732q78 0 146 -29q68 -29 118.5 -79.5q50.5 -50.5 79.5 -118.5q29 -68 29 -146q0 -78 -29 -146q-29 -68 -79.5 -118.5q-50.5 -50.5 -118.5 -79.5q-68 -29 -146 -29q-78 0 -146 29q-68 29 -118.5 79.5q-50.5 50.5 -79.5 118.5q-29 68 -29 146q0 78 29 146q29 68 79.5 118.5q50.5 50.5 118.5 79.5q68 29 146 29zt0 0zM408 58q64 0 119.5 24q55.5 24 97 65q41.5 41 65.5 95.5q24 54.5 24 116.5q0 63 -24 117.5q-24 54.5 -65.5 95.5q-41.5 41 -97 64.5q-55.5 23.5 -119.5 23.5q-63 0 -118.5 -23.5q-55.5 -23.5 -97.5 -64.5q-42 -41 -66 -95.5q-24 -54.5 -24 -117.5q0 -62 24 -116.5q24 -54.5 66 -95.5q42 -41 97.5 -65q55.5 -24 118.5 -24zt0 0zM583 217q-18 -31 -60.5 -51q-42.5 -20 -101.5 -20q-43 0 -83.5 15.5q-40.5 15.5 -71.5 44q-31 28.5 -49.5 67.5q-18.5 39 -18.5 87q0 47 18.5 86.5q18.5 39.5 49.5 68q31 28.5 71.5 44q40.5 15.5 82.5 15.5q59 0 101 -20.5q42 -20.5 60 -49.5l-28 -78q-16 20 -49 36.5q-33 16.5 -76 16.5q-31 0 -56.5 -8.5q-25.5 -8.5 -44 -23.5q-18.5 -15 -29 -37.5q-10.5 -22.5 -10.5 -49.5q0 -28 10.5 -50q10.5 -22 29 -37.5q18.5 -15.5 44 -23.5q25.5 -8 56.5 -8q45 0 78.5 17.5q33.5 17.5 49.5 38.5z" />
<glyph unicode="&#170;" horiz-adv-x="404" d="M252 421q-4 7 -19.5 13.5q-15.5 6.5 -38.5 6.5q-31 0 -46 -9.5q-15 -9.5 -15 -24.5q0 -15 15.5 -23.5q15.5 -8.5 44.5 -8.5q22 0 38 7q16 7 21 16zM53 584q19 29 58 45q39 16 80 16q34 0 62.5 -8.5q28.5 -8.5 49.5 -25.5q21 -17 32.5 -42q11.5 -25 11.5 -58v-211h-92v29q-13 -20 -39.5 -29q-26.5 -9 -54.5 -9q-53 0 -88.5 29.5q-35.5 29.5 -35.5 80.5q0 27 11.5 47.5q11.5 20.5 30.5 35q19 14.5 43 21.5q24 7 50 7q38 0 57 -8q19 -8 23 -13l0 6q0 32 -22.5 43.5q-22.5 11.5 -48.5 11.5q-33 0 -61 -12.5q-28 -12.5 -44 -32.5z" />
<glyph unicode="&#171;" horiz-adv-x="556" d="M506 81h-116l-138 188l138 184h116l-113 -184zM284 81h-116l-138 188l138 184h116l-113 -184z" />
<glyph unicode="&#172;" horiz-adv-x="548" d="M392 345h-342v114h448v-304l-106 0z" />
<glyph unicode="&#173;" horiz-adv-x="470" d="M400 332v-110h-330l0 110z" />
<glyph unicode="&#174;" horiz-adv-x="816" d="M408 732q78 0 146 -29q68 -29 118.5 -79.5q50.5 -50.5 79.5 -118.5q29 -68 29 -146q0 -78 -29 -146q-29 -68 -79.5 -118.5q-50.5 -50.5 -118.5 -79.5q-68 -29 -146 -29q-78 0 -146 29q-68 29 -118.5 79.5q-50.5 50.5 -79.5 118.5q-29 68 -29 146q0 78 29 146q29 68 79.5 118.5q50.5 50.5 118.5 79.5q68 29 146 29zt0 0zM408 58q64 0 119.5 24q55.5 24 97 65q41.5 41 65.5 95.5q24 54.5 24 116.5q0 63 -24 117.5q-24 54.5 -65.5 95.5q-41.5 41 -97 64.5q-55.5 23.5 -119.5 23.5q-63 0 -118.5 -23.5q-55.5 -23.5 -97.5 -64.5q-42 -41 -66 -95.5q-24 -54.5 -24 -117.5q0 -62 24 -116.5q24 -54.5 66 -95.5q42 -41 97.5 -65q55.5 -24 118.5 -24zt0 0zM289 566h130q24 0 47.5 -8q23.5 -8 41.5 -23q18 -15 29.5 -38.5q11.5 -23.5 11.5 -54.5q0 -38 -19.5 -68q-19.5 -30 -56.5 -44l98 -176h-97l-93 167h-4v-167h-88zM377 471v-64h47q16 0 27 8.5q11 8.5 11 23.5q0 14 -10.5 23q-10.5 9 -27.5 9z" />
<glyph unicode="&#175;" horiz-adv-x="460" d="M390 710v-100h-320l0 100z" />
<glyph unicode="&#176;" horiz-adv-x="430" d="M215 728q35 0 66 -13.5q31 -13.5 54 -36.5q23 -23 36.5 -54q13.5 -31 13.5 -66q0 -35 -13.5 -66q-13.5 -31 -36.5 -54q-23 -23 -54 -36.5q-31 -13.5 -66 -13.5q-35 0 -66 13.5q-31 13.5 -54 36.5q-23 23 -36.5 54q-13.5 31 -13.5 66q0 35 13.5 66q13.5 31 36.5 54q23 23 54 36.5q31 13.5 66 13.5zt0 0zM215 495q31 0 50 18.5q19 18.5 19 44.5q0 27 -19 45q-19 18 -50 18q-30 0 -49.5 -18q-19.5 -18 -19.5 -45q0 -26 19.5 -44.5t49.5 -18.5z" />
<glyph unicode="&#178;" horiz-adv-x="346" d="M154 608q-29 0 -48.5 -17.5q-19.5 -17.5 -31.5 -38.5l-39 64q4 13 14 28.5q10 15.5 26 28.5q16 13 38 22q22 9 51 9q32 0 56 -10.5q24 -10.5 40 -27.5q16 -17 24 -39q8 -22 8 -45q0 -42 -20 -71.5q-20 -29.5 -52 -64.5l-45 -50h128v-96h-269v75l121 124q24 25 34 39.5q10 14.5 10 31.5q0 15 -11.5 26.5t-33.5 11.5z" />
<glyph unicode="&#179;" horiz-adv-x="342" d="M152 387q31 0 47 12.5q16 12.5 16 29.5q0 17 -15 27q-15 10 -40 10q-19 0 -33 -4q-14 -4 -20 -9l-15 65l77 81h-121v96h237v-69l-73 -77q16 -4 33 -12q17 -8 31 -21.5q14 -13.5 23 -34.5q9 -21 9 -52q0 -29 -11 -54q-11 -25 -31 -44q-20 -19 -48.5 -29.5q-28.5 -10.5 -63.5 -10.5q-53 0 -85.5 21q-32.5 21 -42.5 44l21 73q17 -17 40.5 -29.5t64.5 -12.5z" />
<glyph unicode="&#180;" horiz-adv-x="350" d="M285 750l-120 -160h-100l70 160z" />
<glyph unicode="&#181;" horiz-adv-x="629" d="M76 515h127v-278q0 -56 31 -86q31 -30 78 -30q41 0 74 22q33 22 40 56l0 316h127v-515h-123v52q-11 -29 -46 -47.5q-35 -18.5 -91 -18.5q-48 0 -90 18l0 -217l-127 0z" />
<glyph unicode="&#182;" horiz-adv-x="696" d="M636 718v-116h-78v-759h-106v759h-91v-759h-106v473q-44 0 -81 15q-37 15 -63.5 42q-26.5 27 -41.5 63.5q-15 36.5 -15 80.5q0 44 15 81q15 37 41.5 63.5q26.5 26.5 63.5 41.5q37 15 81 15z" />
<glyph unicode="&#183;" horiz-adv-x="314" d="M70 273q0 37 25 62q25 25 62 25q37 0 62 -25q25 -25 25 -62q0 -37 -25 -62q-25 -25 -62 -25q-37 0 -62 25t-25 62z" />
<glyph unicode="&#184;" horiz-adv-x="300" d="M190 -121q0 13 -9.5 19q-9.5 6 -25.5 6q-8 0 -17.5 -1.5q-9.5 -1.5 -18.5 -4.5l-19 37l25 86h71l-19 -62q44 0 74 -21.5q30 -21.5 30 -61.5q0 -47 -33.5 -71.5q-33.5 -24.5 -84.5 -24.5q-35 0 -66.5 14q-31.5 14 -45.5 33l12 60q24 -17 46 -24.5q22 -7.5 45 -7.5q17 0 26.5 6.5t9.5 17.5z" />
<glyph unicode="&#185;" horiz-adv-x="275" d="M40 615l103 80h67v-395h-90v272l-80 -49z" />
<glyph unicode="&#186;" horiz-adv-x="447" d="M410 469q0 -39 -15 -71.5q-15 -32.5 -40.5 -56.5q-25.5 -24 -59.5 -37q-34 -13 -71 -13q-38 0 -72 13q-34 13 -59.5 37q-25.5 24 -40.5 56.5q-15 32.5 -15 71.5q0 39 15 71q15 32 40.5 55.5q25.5 23.5 59.5 36.5q34 13 72 13q37 0 71 -13q34 -13 59.5 -36.5q25.5 -23.5 40.5 -55.5q15 -32 15 -71zt0 0zM133 469q0 -35 26.5 -56q26.5 -21 64.5 -21q38 0 64.5 21q26.5 21 26.5 56q0 35 -26.5 56q-26.5 21 -64.5 21q-38 0 -64.5 -21t-26.5 -56z" />
<glyph unicode="&#187;" horiz-adv-x="556" d="M272 81h116l138 188l-138 184h-116l113 -184zM50 81h116l138 188l-138 184h-116l113 -184z" />
<glyph unicode="&#188;" horiz-adv-x="728" d="M213 0h-107l429 718h107zM40 615l103 80h67v-395h-90v272l-80 -49zM579 395h80v-202h46v-90h-46v-103h-88v103h-153v76zM571 193v80l-59 -80z" />
<glyph unicode="&#189;" horiz-adv-x="791" d="M213 0h-107l429 718h107zM40 615l103 80h67v-395h-90v272l-80 -49zM599 308q-29 0 -48.5 -17.5q-19.5 -17.5 -31.5 -38.5l-39 64q4 13 14 28.5q10 15.5 26 28.5q16 13 38 22q22 9 51 9q32 0 56 -10.5q24 -10.5 40 -27.5q16 -17 24 -39q8 -22 8 -45q0 -42 -20 -71.5q-20 -29.5 -52 -64.5l-45 -50h128v-96h-269v75l121 124q24 25 34 39.5q10 14.5 10 31.5q0 15 -11.5 26.5t-33.5 11.5z" />
<glyph unicode="&#190;" horiz-adv-x="779" d="M152 387q31 0 47 12.5q16 12.5 16 29.5q0 17 -15 27q-15 10 -40 10q-19 0 -33 -4q-14 -4 -20 -9l-15 65l77 81h-121v96h237v-69l-73 -77q16 -4 33 -12q17 -8 31 -21.5q14 -13.5 23 -34.5q9 -21 9 -52q0 -29 -11 -54q-11 -25 -31 -44q-20 -19 -48.5 -29.5q-28.5 -10.5 -63.5 -10.5q-53 0 -85.5 21q-32.5 21 -42.5 44l21 73q17 -17 40.5 -29.5q23.5 -12.5 64.5 -12.5zt0 0zM264 0h-107l429 718h107zM630 395h80v-202h46v-90h-46v-103h-88v103h-153v76zM622 193v80l-59 -80z" />
<glyph unicode="&#191;" horiz-adv-x="479" d="M328 447q0 -34 -24 -58q-24 -24 -58 -24q-34 0 -58 24q-24 24 -24 58q0 34 24 58q24 24 58 24q34 0 58 -24q24 -24 24 -58zt0 0zM419 -125q-21 -37 -67.5 -64.5q-46.5 -27.5 -108.5 -27.5q-79 0 -126 42q-47 42 -47 109q0 54 34 92.5q34 38.5 93 72.5q41 25 55 38q14 13 14 27q0 11 -9 18.5q-9 7.5 -29 7.5q-26 0 -55 -13.5q-29 -13.5 -52 -37.5l-21 102q18 29 54.5 50q36.5 21 86.5 21q33 0 60.5 -10q27.5 -10 47.5 -28q20 -18 31 -42.5q11 -24.5 11 -53.5q0 -21 -5.5 -41q-5.5 -20 -19.5 -40q-14 -20 -38 -41q-24 -21 -60 -44q-22 -14 -36.5 -24.5q-14.5 -10.5 -22.5 -19q-8 -8.5 -11.5 -15.5q-3.5 -7 -3.5 -14q0 -18 15.5 -27q15.5 -9 37.5 -9q48 0 85 22.5q37 22.5 58 48.5z" />
<glyph unicode="&#192;" horiz-adv-x="707" d="M701 0h-138l-58 147h-300l-58 -147h-141l283 718h129zM259 286h191l-95 242zM334 922l70 -150h-100l-120 150z" />
<glyph unicode="&#193;" horiz-adv-x="707" d="M701 0h-138l-58 147h-300l-58 -147h-141l283 718h129zM259 286h191l-95 242zM521 922l-120 -150h-100l70 150z" />
<glyph unicode="&#194;" horiz-adv-x="707" d="M701 0h-138l-58 147h-300l-58 -147h-141l283 718h129zM259 286h191l-95 242zM427 922l85 -150h-95l-64 69l-64 -69h-95l85 150z" />
<glyph unicode="&#195;" horiz-adv-x="707" d="M701 0h-138l-58 147h-300l-58 -147h-141l283 718h129zM259 286h191l-95 242zM194 772q-7 15 -9.5 29q-2.5 14 -2.5 27q0 43 28 68.5q28 25.5 70 25.5q22 0 42 -8q20 -8 37.5 -18q17.5 -10 33 -18q15.5 -8 28.5 -8q25 0 25 24q0 13 -7 28l78 0q13 -30 13 -57q0 -42 -27.5 -67.5q-27.5 -25.5 -69.5 -25.5q-23 0 -42.5 8q-19.5 8 -37 18q-17.5 10 -33 18q-15.5 8 -28.5 8q-17 0 -24.5 -13q-7.5 -13 4.5 -39z" />
<glyph unicode="&#196;" horiz-adv-x="707" d="M701 0h-138l-58 147h-300l-58 -147h-141l283 718h129zM259 286h191l-95 242zM178 847q0 30 21 51q21 21 51 21q31 0 51.5 -21q20.5 -21 20.5 -51q0 -31 -20.5 -51.5q-20.5 -20.5 -51.5 -20.5q-30 0 -51 20.5q-21 20.5 -21 51.5zt0 0zM388 847q0 30 20.5 51q20.5 21 51.5 21q30 0 51 -21q21 -21 21 -51q0 -31 -21 -51.5q-21 -20.5 -51 -20.5q-31 0 -51.5 20.5t-20.5 51.5z" />
<glyph unicode="&#197;" horiz-adv-x="707" d="M701 0h-138l-58 147h-300l-58 -147h-141l283 718h129zM259 286h191l-95 242zM245 854q0 23 8.5 43q8.5 20 23.5 35q15 15 35 23.5q20 8.5 43 8.5q23 0 43 -8.5q20 -8.5 35 -23.5q15 -15 23.5 -35q8.5 -20 8.5 -43q0 -23 -8.5 -43q-8.5 -20 -23.5 -35q-15 -15 -35 -23.5q-20 -8.5 -43 -8.5q-23 0 -43 8.5q-20 8.5 -35 23.5q-15 15 -23.5 35q-8.5 20 -8.5 43zt0 0zM319 854q0 -14 10.5 -23.5q10.5 -9.5 25.5 -9.5q15 0 25 9.5q10 9.5 10 23.5q0 14 -10 23.5q-10 9.5 -25 9.5q-15 0 -25.5 -9.5t-10.5 -23.5z" />
<glyph unicode="&#198;" horiz-adv-x="936" d="M480 147h-254l-90 -147h-151l441 718h450v-142h-265v-136h235v-142h-235v-156h265v-142h-396zM311 286h169l0 275z" />
<glyph unicode="&#199;" horiz-adv-x="704" d="M427 -121q0 13 -9.5 19q-9.5 6 -25.5 6q-8 0 -17.5 -1.5q-9.5 -1.5 -18.5 -4.5l-19 37l16 54q-65 8 -122.5 38.5q-57.5 30.5 -101 78.5q-43.5 48 -69 112q-25.5 64 -25.5 141q0 83 30 152q30 69 80.5 118q50.5 49 117 76q66.5 27 138.5 27q48 0 90 -10q42 -10 76.5 -27.5q34.5 -17.5 60 -40.5q25.5 -23 40.5 -49l-41 -116q-15 20 -36.5 38q-21.5 18 -49.5 32q-28 14 -60.5 22.5q-32.5 8.5 -69.5 8.5q-53 0 -97.5 -16q-44.5 -16 -76.5 -46q-32 -30 -50 -73q-18 -43 -18 -96q0 -53 18 -96q18 -43 50 -73q32 -30 76.5 -46q44.5 -16 97.5 -16q39 0 73 8.5q34 8.5 62 23q28 14.5 49.5 33.5q21.5 19 36.5 40l41 -119q-31 -52 -95.5 -87.5q-64.5 -35.5 -155.5 -39.5l-8 -28q44 0 74 -21.5q30 -21.5 30 -61.5q0 -47 -33.5 -71.5q-33.5 -24.5 -84.5 -24.5q-35 0 -66.5 14q-31.5 14 -45.5 33l12 60q24 -17 46 -24.5q22 -7.5 45 -7.5q17 0 26.5 6.5t9.5 17.5z" />
<glyph unicode="&#200;" horiz-adv-x="541" d="M85 718h396v-142h-265v-136h235v-142h-235v-156h265v-142h-396zM294 922l70 -150h-100l-120 150z" />
<glyph unicode="&#201;" horiz-adv-x="541" d="M85 718h396v-142h-265v-136h235v-142h-235v-156h265v-142h-396zM429 922l-120 -150h-100l70 150z" />
<glyph unicode="&#202;" horiz-adv-x="541" d="M85 718h396v-142h-265v-136h235v-142h-235v-156h265v-142h-396zM356 922l85 -150h-95l-64 69l-64 -69h-95l85 150z" />
<glyph unicode="&#203;" horiz-adv-x="541" d="M85 718h396v-142h-265v-136h235v-142h-235v-156h265v-142h-396zM105 847q0 30 21 51q21 21 51 21q31 0 51.5 -21q20.5 -21 20.5 -51q0 -31 -20.5 -51.5q-20.5 -20.5 -51.5 -20.5q-30 0 -51 20.5q-21 20.5 -21 51.5zt0 0zM315 847q0 30 20.5 51q20.5 21 51.5 21q30 0 51 -21q21 -21 21 -51q0 -31 -21 -51.5q-21 -20.5 -51 -20.5q-31 0 -51.5 20.5t-20.5 51.5z" />
<glyph unicode="&#204;" horiz-adv-x="301" d="M85 718h131v-718h-131zM134 922l70 -150h-100l-120 150z" />
<glyph unicode="&#205;" horiz-adv-x="301" d="M85 718h131v-718h-131zM319 922l-120 -150h-100l70 150z" />
<glyph unicode="&#206;" horiz-adv-x="301" d="M85 718h131v-718h-131zM224 922l85 -150h-95l-64 69l-64 -69h-95l85 150z" />
<glyph unicode="&#207;" horiz-adv-x="301" d="M85 718h131v-718h-131zM-27 847q0 30 21 51q21 21 51 21q31 0 51.5 -21q20.5 -21 20.5 -51q0 -31 -20.5 -51.5q-20.5 -20.5 -51.5 -20.5q-30 0 -51 20.5q-21 20.5 -21 51.5zt0 0zM183 847q0 30 20.5 51q20.5 21 51.5 21q30 0 51 -21q21 -21 21 -51q0 -31 -21 -51.5q-21 -20.5 -51 -20.5q-31 0 -51.5 20.5t-20.5 51.5z" />
<glyph unicode="&#208;" horiz-adv-x="756" d="M6 440h100v278h225q85 0 156.5 -24q71.5 -24 123.5 -69.5q52 -45.5 81 -112.5q29 -67 29 -153q0 -85 -29.5 -151.5q-29.5 -66.5 -82 -112.5q-52.5 -46 -123.5 -70.5q-71 -24.5 -155 -24.5h-225v298h-100zM587 359q0 46 -16 85.5q-16 39.5 -45 68.5q-29 29 -69 46q-40 17 -88 17h-132v-136h157v-142h-157v-156h132q46 0 86 15.5q40 15.5 69 44q29 28.5 46 68.5t17 89z" />
<glyph unicode="&#209;" horiz-adv-x="766" d="M85 718h131l334 -487v487h131v-718h-132l-333 484v-484h-131zM224 772q-7 15 -9.5 29q-2.5 14 -2.5 27q0 43 28 68.5q28 25.5 70 25.5q22 0 42 -8q20 -8 37.5 -18q17.5 -10 33 -18q15.5 -8 28.5 -8q25 0 25 24q0 13 -7 28l78 0q13 -30 13 -57q0 -42 -27.5 -67.5q-27.5 -25.5 -69.5 -25.5q-23 0 -42.5 8q-19.5 8 -37 18q-17.5 10 -33 18q-15.5 8 -28.5 8q-17 0 -24.5 -13q-7.5 -13 4.5 -39z" />
<glyph unicode="&#210;" horiz-adv-x="810" d="M405 732q75 0 142 -28q67 -28 118 -77.5q51 -49.5 80.5 -118q29.5 -68.5 29.5 -149.5q0 -80 -29.5 -148q-29.5 -68 -80.5 -118q-51 -50 -118 -78.5q-67 -28.5 -142 -28.5q-75 0 -142 28.5q-67 28.5 -118 78.5q-51 50 -80.5 118q-29.5 68 -29.5 148q0 80 29.5 148q29.5 68 80.5 118q51 50 118 78.5q67 28.5 142 28.5zt0 0zM405 590q-50 0 -93 -16.5q-43 -16.5 -75 -47q-32 -30.5 -50 -73q-18 -42.5 -18 -94.5q0 -52 18 -94.5q18 -42.5 50 -73q32 -30.5 75 -47q43 -16.5 93 -16.5q50 0 93 16.5q43 16.5 74.5 47q31.5 30.5 49.5 73q18 42.5 18 94.5q0 52 -18 94.5q-18 42.5 -49.5 73q-31.5 30.5 -74.5 47q-43 16.5 -93 16.5zt0 0zM402 922l70 -150h-100l-120 150z" />
<glyph unicode="&#211;" horiz-adv-x="810" d="M405 732q75 0 142 -28q67 -28 118 -77.5q51 -49.5 80.5 -118q29.5 -68.5 29.5 -149.5q0 -80 -29.5 -148q-29.5 -68 -80.5 -118q-51 -50 -118 -78.5q-67 -28.5 -142 -28.5q-75 0 -142 28.5q-67 28.5 -118 78.5q-51 50 -80.5 118q-29.5 68 -29.5 148q0 80 29.5 148q29.5 68 80.5 118q51 50 118 78.5q67 28.5 142 28.5zt0 0zM405 590q-50 0 -93 -16.5q-43 -16.5 -75 -47q-32 -30.5 -50 -73q-18 -42.5 -18 -94.5q0 -52 18 -94.5q18 -42.5 50 -73q32 -30.5 75 -47q43 -16.5 93 -16.5q50 0 93 16.5q43 16.5 74.5 47q31.5 30.5 49.5 73q18 42.5 18 94.5q0 52 -18 94.5q-18 42.5 -49.5 73q-31.5 30.5 -74.5 47q-43 16.5 -93 16.5zt0 0zM558 922l-120 -150h-100l70 150z" />
<glyph unicode="&#212;" horiz-adv-x="810" d="M405 732q75 0 142 -28q67 -28 118 -77.5q51 -49.5 80.5 -118q29.5 -68.5 29.5 -149.5q0 -80 -29.5 -148q-29.5 -68 -80.5 -118q-51 -50 -118 -78.5q-67 -28.5 -142 -28.5q-75 0 -142 28.5q-67 28.5 -118 78.5q-51 50 -80.5 118q-29.5 68 -29.5 148q0 80 29.5 148q29.5 68 80.5 118q51 50 118 78.5q67 28.5 142 28.5zt0 0zM405 590q-50 0 -93 -16.5q-43 -16.5 -75 -47q-32 -30.5 -50 -73q-18 -42.5 -18 -94.5q0 -52 18 -94.5q18 -42.5 50 -73q32 -30.5 75 -47q43 -16.5 93 -16.5q50 0 93 16.5q43 16.5 74.5 47q31.5 30.5 49.5 73q18 42.5 18 94.5q0 52 -18 94.5q-18 42.5 -49.5 73q-31.5 30.5 -74.5 47q-43 16.5 -93 16.5zt0 0zM478 922l85 -150h-95l-64 69l-64 -69h-95l85 150z" />
<glyph unicode="&#213;" horiz-adv-x="810" d="M405 732q75 0 142 -28q67 -28 118 -77.5q51 -49.5 80.5 -118q29.5 -68.5 29.5 -149.5q0 -80 -29.5 -148q-29.5 -68 -80.5 -118q-51 -50 -118 -78.5q-67 -28.5 -142 -28.5q-75 0 -142 28.5q-67 28.5 -118 78.5q-51 50 -80.5 118q-29.5 68 -29.5 148q0 80 29.5 148q29.5 68 80.5 118q51 50 118 78.5q67 28.5 142 28.5zt0 0zM405 590q-50 0 -93 -16.5q-43 -16.5 -75 -47q-32 -30.5 -50 -73q-18 -42.5 -18 -94.5q0 -52 18 -94.5q18 -42.5 50 -73q32 -30.5 75 -47q43 -16.5 93 -16.5q50 0 93 16.5q43 16.5 74.5 47q31.5 30.5 49.5 73q18 42.5 18 94.5q0 52 -18 94.5q-18 42.5 -49.5 73q-31.5 30.5 -74.5 47q-43 16.5 -93 16.5zt0 0zM243 772q-7 15 -9.5 29q-2.5 14 -2.5 27q0 43 28 68.5q28 25.5 70 25.5q22 0 42 -8q20 -8 37.5 -18q17.5 -10 33 -18q15.5 -8 28.5 -8q25 0 25 24q0 13 -7 28l78 0q13 -30 13 -57q0 -42 -27.5 -67.5q-27.5 -25.5 -69.5 -25.5q-23 0 -42.5 8q-19.5 8 -37 18q-17.5 10 -33 18q-15.5 8 -28.5 8q-17 0 -24.5 -13q-7.5 -13 4.5 -39z" />
<glyph unicode="&#214;" horiz-adv-x="810" d="M405 732q75 0 142 -28q67 -28 118 -77.5q51 -49.5 80.5 -118q29.5 -68.5 29.5 -149.5q0 -80 -29.5 -148q-29.5 -68 -80.5 -118q-51 -50 -118 -78.5q-67 -28.5 -142 -28.5q-75 0 -142 28.5q-67 28.5 -118 78.5q-51 50 -80.5 118q-29.5 68 -29.5 148q0 80 29.5 148q29.5 68 80.5 118q51 50 118 78.5q67 28.5 142 28.5zt0 0zM405 590q-50 0 -93 -16.5q-43 -16.5 -75 -47q-32 -30.5 -50 -73q-18 -42.5 -18 -94.5q0 -52 18 -94.5q18 -42.5 50 -73q32 -30.5 75 -47q43 -16.5 93 -16.5q50 0 93 16.5q43 16.5 74.5 47q31.5 30.5 49.5 73q18 42.5 18 94.5q0 52 -18 94.5q-18 42.5 -49.5 73q-31.5 30.5 -74.5 47q-43 16.5 -93 16.5zt0 0zM227 847q0 30 21 51q21 21 51 21q31 0 51.5 -21q20.5 -21 20.5 -51q0 -31 -20.5 -51.5q-20.5 -20.5 -51.5 -20.5q-30 0 -51 20.5q-21 20.5 -21 51.5zt0 0zM437 847q0 30 20.5 51q20.5 21 51.5 21q30 0 51 -21q21 -21 21 -51q0 -31 -21 -51.5q-21 -20.5 -51 -20.5q-31 0 -51.5 20.5t-20.5 51.5z" />
<glyph unicode="&#216;" horiz-adv-x="819" d="M410 732q52 0 100.5 -13.5q48.5 -13.5 90.5 -39.5l45 53h157l-110 -130q41 -48 64 -109.5q23 -61.5 23 -133.5q0 -80 -29.5 -148q-29.5 -68 -80.5 -118q-51 -50 -118 -78.5q-67 -28.5 -142 -28.5q-53 0 -101.5 13.5q-48.5 13.5 -90.5 39.5l-45 -53h-157l111 131q-41 48 -64 109.5q-23 61.5 -23 132.5q0 80 29.5 148q29.5 68 80.5 118q51 50 118 78.5q67 28.5 142 28.5zt0 0zM645 359q0 40 -11 74q-11 34 -31 62l-294 -348q45 -19 101 -19q50 0 93 16.5q43 16.5 74.5 47q31.5 30.5 49.5 73q18 42.5 18 94.5zt0 0zM410 590q-50 0 -93 -16.5q-43 -16.5 -75 -47q-32 -30.5 -50 -73q-18 -42.5 -18 -94.5q0 -40 10.5 -74.5q10.5 -34.5 30.5 -62.5l294 348q-46 20 -99 20z" />
<glyph unicode="&#217;" horiz-adv-x="733" d="M522 718h131v-433q0 -65 -20 -120q-20 -55 -57.5 -95q-37.5 -40 -90.5 -62q-53 -22 -119 -22q-64 0 -117 21.5q-53 21.5 -90.5 60.5q-37.5 39 -58 94q-20.5 55 -20.5 122v434h131v-431q0 -73 43 -116q43 -43 114 -43q72 0 113 44q41 44 41 116zM368 922l70 -150h-100l-120 150z" />
<glyph unicode="&#218;" horiz-adv-x="733" d="M522 718h131v-433q0 -65 -20 -120q-20 -55 -57.5 -95q-37.5 -40 -90.5 -62q-53 -22 -119 -22q-64 0 -117 21.5q-53 21.5 -90.5 60.5q-37.5 39 -58 94q-20.5 55 -20.5 122v434h131v-431q0 -73 43 -116q43 -43 114 -43q72 0 113 44q41 44 41 116zM515 922l-120 -150h-100l70 150z" />
<glyph unicode="&#219;" horiz-adv-x="733" d="M522 718h131v-433q0 -65 -20 -120q-20 -55 -57.5 -95q-37.5 -40 -90.5 -62q-53 -22 -119 -22q-64 0 -117 21.5q-53 21.5 -90.5 60.5q-37.5 39 -58 94q-20.5 55 -20.5 122v434h131v-431q0 -73 43 -116q43 -43 114 -43q72 0 113 44q41 44 41 116zM440 922l85 -150h-95l-64 69l-64 -69h-95l85 150z" />
<glyph unicode="&#220;" horiz-adv-x="733" d="M522 718h131v-433q0 -65 -20 -120q-20 -55 -57.5 -95q-37.5 -40 -90.5 -62q-53 -22 -119 -22q-64 0 -117 21.5q-53 21.5 -90.5 60.5q-37.5 39 -58 94q-20.5 55 -20.5 122v434h131v-431q0 -73 43 -116q43 -43 114 -43q72 0 113 44q41 44 41 116zM189 847q0 30 21 51q21 21 51 21q31 0 51.5 -21q20.5 -21 20.5 -51q0 -31 -20.5 -51.5q-20.5 -20.5 -51.5 -20.5q-30 0 -51 20.5q-21 20.5 -21 51.5zt0 0zM399 847q0 30 20.5 51q20.5 21 51.5 21q30 0 51 -21q21 -21 21 -51q0 -31 -21 -51.5q-21 -20.5 -51 -20.5q-31 0 -51.5 20.5t-20.5 51.5z" />
<glyph unicode="&#221;" horiz-adv-x="595" d="M5 718h145l146 -266l146 266h148l-226 -418v-300h-131v300zM459 922l-120 -150h-100l70 150z" />
<glyph unicode="&#222;" horiz-adv-x="550" d="M216 718v-135h75q50 0 92.5 -16q42.5 -16 74 -45.5q31.5 -29.5 49.5 -70.5q18 -41 18 -92q0 -49 -17 -90q-17 -41 -48 -70.5q-31 -29.5 -74 -46q-43 -16.5 -94 -16.5h-76v-136h-131v718zM216 442v-165h95q35 0 59 22.5q24 22.5 24 59.5q0 35 -23 59q-23 24 -60 24z" />
<glyph unicode="&#223;" horiz-adv-x="631" d="M470 412q26 -12 48 -31.5q22 -19.5 37.5 -44.5q15.5 -25 24.5 -54.5q9 -29.5 9 -60.5q0 -48 -17 -90q-17 -42 -47 -73.5q-30 -31.5 -70.5 -49.5q-40.5 -18 -87.5 -18q-42 0 -73 12q-31 12 -47 31l27 112q15 -12 36 -17.5q21 -5.5 42 -5.5q49 0 79 28q30 28 30 70q0 25 -10 44.5q-10 19.5 -27.5 33q-17.5 13.5 -40.5 20.5q-23 7 -50 7h-50v125h10q46 0 71.5 21q25.5 21 25.5 59q0 33 -24.5 57.5q-24.5 24.5 -65.5 24.5q-44 0 -70.5 -28.5q-26.5 -28.5 -26.5 -73.5v-510h-127v516q0 51 16 93q16 42 45.5 71.5q29.5 29.5 70 45.5q40.5 16 89.5 16q48 0 88.5 -16q40.5 -16 70 -44q29.5 -28 46 -65.5q16.5 -37.5 16.5 -80.5q0 -38 -12 -70t-36 -54z" />
<glyph unicode="&#224;" horiz-adv-x="566" d="M367 185q-8 14 -35 24.5q-27 10.5 -62 10.5q-50 0 -75 -16q-25 -16 -25 -42q0 -26 25.5 -41.5q25.5 -15.5 73.5 -15.5q35 0 62 12.5q27 12.5 36 30.5zM69 438q14 22 35.5 39q21.5 17 47.5 28.5q26 11.5 55.5 17.5q29.5 6 59.5 6q51 0 92.5 -14q41.5 -14 71.5 -40q30 -26 46.5 -64.5q16.5 -38.5 16.5 -87.5v-323h-123v45q-19 -29 -59 -44q-40 -15 -82 -15q-41 0 -75 12q-34 12 -59.5 33.5q-25.5 21.5 -39.5 53q-14 31.5 -14 70.5q0 41 16.5 72.5q16.5 31.5 44.5 53q28 21.5 64.5 32.5q36.5 11 75.5 11q50 0 81.5 -11.5q31.5 -11.5 42.5 -24.5l0 14q0 45 -29.5 72q-29.5 27 -86.5 27q-49 0 -88.5 -19q-39.5 -19 -62.5 -48zM288 750l70 -160h-100l-120 160z" />
<glyph unicode="&#225;" horiz-adv-x="566" d="M367 185q-8 14 -35 24.5q-27 10.5 -62 10.5q-50 0 -75 -16q-25 -16 -25 -42q0 -26 25.5 -41.5q25.5 -15.5 73.5 -15.5q35 0 62 12.5q27 12.5 36 30.5zM69 438q14 22 35.5 39q21.5 17 47.5 28.5q26 11.5 55.5 17.5q29.5 6 59.5 6q51 0 92.5 -14q41.5 -14 71.5 -40q30 -26 46.5 -64.5q16.5 -38.5 16.5 -87.5v-323h-123v45q-19 -29 -59 -44q-40 -15 -82 -15q-41 0 -75 12q-34 12 -59.5 33.5q-25.5 21.5 -39.5 53q-14 31.5 -14 70.5q0 41 16.5 72.5q16.5 31.5 44.5 53q28 21.5 64.5 32.5q36.5 11 75.5 11q50 0 81.5 -11.5q31.5 -11.5 42.5 -24.5l0 14q0 45 -29.5 72q-29.5 27 -86.5 27q-49 0 -88.5 -19q-39.5 -19 -62.5 -48zM428 750l-120 -160h-100l70 160z" />
<glyph unicode="&#226;" horiz-adv-x="566" d="M367 185q-8 14 -35 24.5q-27 10.5 -62 10.5q-50 0 -75 -16q-25 -16 -25 -42q0 -26 25.5 -41.5q25.5 -15.5 73.5 -15.5q35 0 62 12.5q27 12.5 36 30.5zM69 438q14 22 35.5 39q21.5 17 47.5 28.5q26 11.5 55.5 17.5q29.5 6 59.5 6q51 0 92.5 -14q41.5 -14 71.5 -40q30 -26 46.5 -64.5q16.5 -38.5 16.5 -87.5v-323h-123v45q-19 -29 -59 -44q-40 -15 -82 -15q-41 0 -75 12q-34 12 -59.5 33.5q-25.5 21.5 -39.5 53q-14 31.5 -14 70.5q0 41 16.5 72.5q16.5 31.5 44.5 53q28 21.5 64.5 32.5q36.5 11 75.5 11q50 0 81.5 -11.5q31.5 -11.5 42.5 -24.5l0 14q0 45 -29.5 72q-29.5 27 -86.5 27q-49 0 -88.5 -19q-39.5 -19 -62.5 -48zM359 750l85 -160h-99l-64 79l-64 -79h-99l85 160z" />
<glyph unicode="&#227;" horiz-adv-x="566" d="M367 185q-8 14 -35 24.5q-27 10.5 -62 10.5q-50 0 -75 -16q-25 -16 -25 -42q0 -26 25.5 -41.5q25.5 -15.5 73.5 -15.5q35 0 62 12.5q27 12.5 36 30.5zM69 438q14 22 35.5 39q21.5 17 47.5 28.5q26 11.5 55.5 17.5q29.5 6 59.5 6q51 0 92.5 -14q41.5 -14 71.5 -40q30 -26 46.5 -64.5q16.5 -38.5 16.5 -87.5v-323h-123v45q-19 -29 -59 -44q-40 -15 -82 -15q-41 0 -75 12q-34 12 -59.5 33.5q-25.5 21.5 -39.5 53q-14 31.5 -14 70.5q0 41 16.5 72.5q16.5 31.5 44.5 53q28 21.5 64.5 32.5q36.5 11 75.5 11q50 0 81.5 -11.5q31.5 -11.5 42.5 -24.5l0 14q0 45 -29.5 72q-29.5 27 -86.5 27q-49 0 -88.5 -19q-39.5 -19 -62.5 -48zM120 590q-7 15 -9.5 29q-2.5 14 -2.5 27q0 43 28 68.5q28 25.5 70 25.5q22 0 42 -8q20 -8 37.5 -18q17.5 -10 33 -18q15.5 -8 28.5 -8q25 0 25 24q0 13 -7 28l78 0q13 -30 13 -57q0 -42 -27.5 -67.5q-27.5 -25.5 -69.5 -25.5q-23 0 -42.5 8q-19.5 8 -37 18q-17.5 10 -33 18q-15.5 8 -28.5 8q-11 0 -19 -6.5q-8 -6.5 -8 -19.5q0 -12 7 -26z" />
<glyph unicode="&#228;" horiz-adv-x="566" d="M367 185q-8 14 -35 24.5q-27 10.5 -62 10.5q-50 0 -75 -16q-25 -16 -25 -42q0 -26 25.5 -41.5q25.5 -15.5 73.5 -15.5q35 0 62 12.5q27 12.5 36 30.5zM69 438q14 22 35.5 39q21.5 17 47.5 28.5q26 11.5 55.5 17.5q29.5 6 59.5 6q51 0 92.5 -14q41.5 -14 71.5 -40q30 -26 46.5 -64.5q16.5 -38.5 16.5 -87.5v-323h-123v45q-19 -29 -59 -44q-40 -15 -82 -15q-41 0 -75 12q-34 12 -59.5 33.5q-25.5 21.5 -39.5 53q-14 31.5 -14 70.5q0 41 16.5 72.5q16.5 31.5 44.5 53q28 21.5 64.5 32.5q36.5 11 75.5 11q50 0 81.5 -11.5q31.5 -11.5 42.5 -24.5l0 14q0 45 -29.5 72q-29.5 27 -86.5 27q-49 0 -88.5 -19q-39.5 -19 -62.5 -48zM105 665q0 32 21.5 53.5q21.5 21.5 53.5 21.5q32 0 53.5 -21.5q21.5 -21.5 21.5 -53.5q0 -32 -21.5 -53.5q-21.5 -21.5 -53.5 -21.5q-32 0 -53.5 21.5q-21.5 21.5 -21.5 53.5zt0 0zM307 665q0 32 21.5 53.5q21.5 21.5 53.5 21.5q32 0 53.5 -21.5q21.5 -21.5 21.5 -53.5q0 -32 -21.5 -53.5q-21.5 -21.5 -53.5 -21.5q-32 0 -53.5 21.5t-21.5 53.5z" />
<glyph unicode="&#229;" horiz-adv-x="566" d="M367 185q-8 14 -35 24.5q-27 10.5 -62 10.5q-50 0 -75 -16q-25 -16 -25 -42q0 -26 25.5 -41.5q25.5 -15.5 73.5 -15.5q35 0 62 12.5q27 12.5 36 30.5zM69 438q14 22 35.5 39q21.5 17 47.5 28.5q26 11.5 55.5 17.5q29.5 6 59.5 6q51 0 92.5 -14q41.5 -14 71.5 -40q30 -26 46.5 -64.5q16.5 -38.5 16.5 -87.5v-323h-123v45q-19 -29 -59 -44q-40 -15 -82 -15q-41 0 -75 12q-34 12 -59.5 33.5q-25.5 21.5 -39.5 53q-14 31.5 -14 70.5q0 41 16.5 72.5q16.5 31.5 44.5 53q28 21.5 64.5 32.5q36.5 11 75.5 11q50 0 81.5 -11.5q31.5 -11.5 42.5 -24.5l0 14q0 45 -29.5 72q-29.5 27 -86.5 27q-49 0 -88.5 -19q-39.5 -19 -62.5 -48zM172 682q0 23 8.5 43q8.5 20 23 35q14.5 15 34.5 23.5q20 8.5 43 8.5q23 0 43 -8.5q20 -8.5 35 -23.5q15 -15 23.5 -35q8.5 -20 8.5 -43q0 -23 -8.5 -43q-8.5 -20 -23.5 -35q-15 -15 -35 -23.5q-20 -8.5 -43 -8.5q-23 0 -43 8.5q-20 8.5 -34.5 23.5q-14.5 15 -23 35q-8.5 20 -8.5 43zt0 0zM246 682q0 -14 10 -23.5q10 -9.5 25 -9.5q15 0 25 9.5q10 9.5 10 23.5q0 14 -10 23.5q-10 9.5 -25 9.5q-15 0 -25 -9.5t-10 -23.5z" />
<glyph unicode="&#230;" horiz-adv-x="918" d="M42 154q0 41 16.5 73q16.5 32 44.5 53.5q28 21.5 64.5 32.5q36.5 11 75.5 11q50 0 81.5 -11.5q31.5 -11.5 42.5 -24.5l0 14q0 29 -10.5 48q-10.5 19 -27 30.5q-16.5 11.5 -37 16q-20.5 4.5 -40.5 4.5q-48 0 -89.5 -19q-41.5 -19 -64.5 -50l-31 104q14 22 35.5 39q21.5 17 48 29q26.5 12 56.5 18.5q30 6.5 60 6.5q58 0 104.5 -18q46.5 -18 76.5 -53q34 31 78.5 51q44.5 20 98.5 20q57 0 103.5 -22.5q46.5 -22.5 79 -60q32.5 -37.5 50.5 -86.5q18 -49 18 -103q0 -11 -0.5 -23.5q-0.5 -12.5 -2.5 -21.5l-382 0q9 -51 50 -74.5q41 -23.5 100 -23.5q48 0 92 17.5q44 17.5 66 46.5l39 -98q-24 -40 -76.5 -67q-52.5 -27 -124.5 -27q-66 0 -119.5 22.5q-53.5 22.5 -91.5 65.5q-9 -14 -26 -29.5q-17 -15.5 -40.5 -28.5q-23.5 -13 -53 -21.5q-29.5 -8.5 -65.5 -8.5q-43 0 -79.5 11q-36.5 11 -63 32q-26.5 21 -41.5 52.5q-15 31.5 -15 72.5zt0 0zM746 316q-7 42 -40.5 63q-33.5 21 -80.5 21q-48 0 -84 -21q-36 -21 -45 -63zM367 185q-8 14 -35 24.5q-27 10.5 -62 10.5q-50 0 -75 -16q-25 -16 -25 -42q0 -26 25.5 -41.5q25.5 -15.5 73.5 -15.5q35 0 62 12.5q27 12.5 36 30.5z" />
<glyph unicode="&#231;" horiz-adv-x="550" d="M331 -121q0 13 -9.5 19q-9.5 6 -25.5 6q-8 0 -17.5 -1.5q-9.5 -1.5 -18.5 -4.5l-19 37l16 57q-45 9 -84 32q-39 23 -68 57.5q-29 34.5 -46 79q-17 44.5 -17 97.5q0 60 22 110q22 50 59.5 86q37.5 36 86 55.5q48.5 19.5 102.5 19.5q69 0 119.5 -27q50.5 -27 72.5 -64l-36 -106q-20 24 -57 43q-37 19 -85 19q-70 0 -112 -37.5q-42 -37.5 -42 -98.5q0 -61 42 -99q42 -38 112 -38q49 0 86 20q37 20 58 44l38 -107q-22 -37 -69.5 -62.5q-47.5 -25.5 -112.5 -28.5l-8 -28q44 0 74 -21.5q30 -21.5 30 -61.5q0 -47 -33.5 -71.5q-33.5 -24.5 -84.5 -24.5q-35 0 -66.5 14q-31.5 14 -45.5 33l12 60q24 -17 46 -24.5q22 -7.5 45 -7.5q17 0 26.5 6.5t9.5 17.5z" />
<glyph unicode="&#232;" horiz-adv-x="599" d="M322 114q48 0 92 17.5q44 17.5 66 46.5l39 -98q-24 -40 -76.5 -67q-52.5 -27 -124.5 -27q-59 0 -109.5 19q-50.5 19 -87.5 54q-37 35 -58 85q-21 50 -21 113q0 55 18.5 104q18.5 49 53 86.5q34.5 37.5 83 59.5q48.5 22 109.5 22q57 0 103.5 -22.5q46.5 -22.5 79 -60q32.5 -37.5 50.5 -86.5q18 -49 18 -103q0 -11 -0.5 -23.5q-0.5 -12.5 -2.5 -21.5l-382 0q9 -51 50 -74.5q41 -23.5 100 -23.5zt0 0zM427 316q-6 41 -40 62.5q-34 21.5 -81 21.5q-47 0 -84 -21.5q-37 -21.5 -45 -62.5zM288 750l70 -160h-100l-120 160z" />
<glyph unicode="&#233;" horiz-adv-x="599" d="M322 114q48 0 92 17.5q44 17.5 66 46.5l39 -98q-24 -40 -76.5 -67q-52.5 -27 -124.5 -27q-59 0 -109.5 19q-50.5 19 -87.5 54q-37 35 -58 85q-21 50 -21 113q0 55 18.5 104q18.5 49 53 86.5q34.5 37.5 83 59.5q48.5 22 109.5 22q57 0 103.5 -22.5q46.5 -22.5 79 -60q32.5 -37.5 50.5 -86.5q18 -49 18 -103q0 -11 -0.5 -23.5q-0.5 -12.5 -2.5 -21.5l-382 0q9 -51 50 -74.5q41 -23.5 100 -23.5zt0 0zM427 316q-6 41 -40 62.5q-34 21.5 -81 21.5q-47 0 -84 -21.5q-37 -21.5 -45 -62.5zM462 750l-120 -160h-100l70 160z" />
<glyph unicode="&#234;" horiz-adv-x="599" d="M322 114q48 0 92 17.5q44 17.5 66 46.5l39 -98q-24 -40 -76.5 -67q-52.5 -27 -124.5 -27q-59 0 -109.5 19q-50.5 19 -87.5 54q-37 35 -58 85q-21 50 -21 113q0 55 18.5 104q18.5 49 53 86.5q34.5 37.5 83 59.5q48.5 22 109.5 22q57 0 103.5 -22.5q46.5 -22.5 79 -60q32.5 -37.5 50.5 -86.5q18 -49 18 -103q0 -11 -0.5 -23.5q-0.5 -12.5 -2.5 -21.5l-382 0q9 -51 50 -74.5q41 -23.5 100 -23.5zt0 0zM427 316q-6 41 -40 62.5q-34 21.5 -81 21.5q-47 0 -84 -21.5q-37 -21.5 -45 -62.5zM379 750l85 -160h-99l-64 79l-64 -79h-99l85 160z" />
<glyph unicode="&#235;" horiz-adv-x="599" d="M322 114q48 0 92 17.5q44 17.5 66 46.5l39 -98q-24 -40 -76.5 -67q-52.5 -27 -124.5 -27q-59 0 -109.5 19q-50.5 19 -87.5 54q-37 35 -58 85q-21 50 -21 113q0 55 18.5 104q18.5 49 53 86.5q34.5 37.5 83 59.5q48.5 22 109.5 22q57 0 103.5 -22.5q46.5 -22.5 79 -60q32.5 -37.5 50.5 -86.5q18 -49 18 -103q0 -11 -0.5 -23.5q-0.5 -12.5 -2.5 -21.5l-382 0q9 -51 50 -74.5q41 -23.5 100 -23.5zt0 0zM427 316q-6 41 -40 62.5q-34 21.5 -81 21.5q-47 0 -84 -21.5q-37 -21.5 -45 -62.5zM128 665q0 32 21.5 53.5q21.5 21.5 53.5 21.5q32 0 53.5 -21.5q21.5 -21.5 21.5 -53.5q0 -32 -21.5 -53.5q-21.5 -21.5 -53.5 -21.5q-32 0 -53.5 21.5q-21.5 21.5 -21.5 53.5zt0 0zM330 665q0 32 21.5 53.5q21.5 21.5 53.5 21.5q32 0 53.5 -21.5q21.5 -21.5 21.5 -53.5q0 -32 -21.5 -53.5q-21.5 -21.5 -53.5 -21.5q-32 0 -53.5 21.5t-21.5 53.5z" />
<glyph unicode="&#236;" horiz-adv-x="276" d="M78 515h127v-515h-127zM125 750l70 -160h-100l-120 160z" />
<glyph unicode="&#237;" horiz-adv-x="276" d="M78 515h127v-515h-127zM308 750l-120 -160h-100l70 160z" />
<glyph unicode="&#238;" horiz-adv-x="276" d="M78 515h127v-515h-127zM216 750l85 -160h-99l-64 79l-64 -79h-99l85 160z" />
<glyph unicode="&#239;" horiz-adv-x="276" d="M78 515h127v-515h-127zM-38 665q0 32 21.5 53.5q21.5 21.5 53.5 21.5q32 0 53.5 -21.5q21.5 -21.5 21.5 -53.5q0 -32 -21.5 -53.5q-21.5 -21.5 -53.5 -21.5q-32 0 -53.5 21.5q-21.5 21.5 -21.5 53.5zt0 0zM164 665q0 32 21.5 53.5q21.5 21.5 53.5 21.5q32 0 53.5 -21.5q21.5 -21.5 21.5 -53.5q0 -32 -21.5 -53.5q-21.5 -21.5 -53.5 -21.5q-32 0 -53.5 21.5t-21.5 53.5z" />
<glyph unicode="&#240;" horiz-adv-x="627" d="M507 652l-95 -41l89 -131q16 -24 31 -50.5q15 -26.5 27 -55q12 -28.5 19 -59.5q7 -31 7 -63q0 -57 -20.5 -105.5q-20.5 -48.5 -56.5 -84q-36 -35.5 -85.5 -56q-49.5 -20.5 -107.5 -20.5q-55 0 -104.5 19q-49.5 19 -87 53.5q-37.5 34.5 -59.5 82q-22 47.5 -22 104.5q0 58 20.5 106q20.5 48 58 82.5q37.5 34.5 91.5 54q54 19.5 120 20.5l9 0l-38 56l-122 -52l-44 89l110 46l-53 81h140l23 -35l108 46zM168 251q0 -28 10.5 -51.5q10.5 -23.5 29.5 -41q19 -17.5 46 -27.5q27 -10 60 -10q66 0 105.5 37q39.5 37 39.5 93q0 57 -39.5 94q-39.5 37 -105.5 37q-33 0 -60 -10q-27 -10 -46 -27.5q-19 -17.5 -29.5 -41.5t-10.5 -52z" />
<glyph unicode="&#241;" horiz-adv-x="623" d="M556 0h-127v278q0 56 -32 86q-32 30 -79 30q-41 0 -74.5 -22q-33.5 -22 -40.5 -56l0 -316h-127v515h123v-52q11 29 46.5 47.5q35.5 18.5 91.5 18.5q40 0 79 -13.5q39 -13.5 70 -41.5q31 -28 50.5 -71.5q19.5 -43.5 19.5 -103.5zM153 590q-7 15 -9.5 29q-2.5 14 -2.5 27q0 43 28 68.5q28 25.5 70 25.5q22 0 42 -8q20 -8 37.5 -18q17.5 -10 33 -18q15.5 -8 28.5 -8q25 0 25 24q0 13 -7 28l78 0q13 -30 13 -57q0 -42 -27.5 -67.5q-27.5 -25.5 -69.5 -25.5q-23 0 -42.5 8q-19.5 8 -37 18q-17.5 10 -33 18q-15.5 8 -28.5 8q-11 0 -19 -6.5q-8 -6.5 -8 -19.5q0 -12 7 -26z" />
<glyph unicode="&#242;" horiz-adv-x="628" d="M586 257q0 -59 -22 -108.5q-22 -49.5 -59.5 -85.5q-37.5 -36 -86.5 -56.5q-49 -20.5 -104 -20.5q-55 0 -104 20.5q-49 20.5 -86.5 56.5q-37.5 36 -59.5 85.5q-22 49.5 -22 108.5q0 58 22 108q22 50 59.5 86.5q37.5 36.5 86.5 57q49 20.5 104 20.5q55 0 104 -20.5q49 -20.5 86.5 -57q37.5 -36.5 59.5 -86.5q22 -50 22 -108zt0 0zM170 257q0 -30 11 -55q11 -25 30.5 -43q19.5 -18 46 -28q26.5 -10 56.5 -10q30 0 56 10q26 10 45.5 28q19.5 18 31 43q11.5 25 11.5 55q0 30 -11.5 55.5q-11.5 25.5 -31 43.5q-19.5 18 -45.5 28q-26 10 -56 10q-30 0 -56.5 -10q-26.5 -10 -46 -28q-19.5 -18 -30.5 -43.5q-11 -25.5 -11 -55.5zt0 0zM303 750l70 -160h-100l-120 160z" />
<glyph unicode="&#243;" horiz-adv-x="628" d="M586 257q0 -59 -22 -108.5q-22 -49.5 -59.5 -85.5q-37.5 -36 -86.5 -56.5q-49 -20.5 -104 -20.5q-55 0 -104 20.5q-49 20.5 -86.5 56.5q-37.5 36 -59.5 85.5q-22 49.5 -22 108.5q0 58 22 108q22 50 59.5 86.5q37.5 36.5 86.5 57q49 20.5 104 20.5q55 0 104 -20.5q49 -20.5 86.5 -57q37.5 -36.5 59.5 -86.5q22 -50 22 -108zt0 0zM170 257q0 -30 11 -55q11 -25 30.5 -43q19.5 -18 46 -28q26.5 -10 56.5 -10q30 0 56 10q26 10 45.5 28q19.5 18 31 43q11.5 25 11.5 55q0 30 -11.5 55.5q-11.5 25.5 -31 43.5q-19.5 18 -45.5 28q-26 10 -56 10q-30 0 -56.5 -10q-26.5 -10 -46 -28q-19.5 -18 -30.5 -43.5q-11 -25.5 -11 -55.5zt0 0zM475 750l-120 -160h-100l70 160z" />
<glyph unicode="&#244;" horiz-adv-x="628" d="M586 257q0 -59 -22 -108.5q-22 -49.5 -59.5 -85.5q-37.5 -36 -86.5 -56.5q-49 -20.5 -104 -20.5q-55 0 -104 20.5q-49 20.5 -86.5 56.5q-37.5 36 -59.5 85.5q-22 49.5 -22 108.5q0 58 22 108q22 50 59.5 86.5q37.5 36.5 86.5 57q49 20.5 104 20.5q55 0 104 -20.5q49 -20.5 86.5 -57q37.5 -36.5 59.5 -86.5q22 -50 22 -108zt0 0zM170 257q0 -30 11 -55q11 -25 30.5 -43q19.5 -18 46 -28q26.5 -10 56.5 -10q30 0 56 10q26 10 45.5 28q19.5 18 31 43q11.5 25 11.5 55q0 30 -11.5 55.5q-11.5 25.5 -31 43.5q-19.5 18 -45.5 28q-26 10 -56 10q-30 0 -56.5 -10q-26.5 -10 -46 -28q-19.5 -18 -30.5 -43.5q-11 -25.5 -11 -55.5zt0 0zM391 750l85 -160h-99l-64 79l-64 -79h-99l85 160z" />
<glyph unicode="&#245;" horiz-adv-x="628" d="M586 257q0 -59 -22 -108.5q-22 -49.5 -59.5 -85.5q-37.5 -36 -86.5 -56.5q-49 -20.5 -104 -20.5q-55 0 -104 20.5q-49 20.5 -86.5 56.5q-37.5 36 -59.5 85.5q-22 49.5 -22 108.5q0 58 22 108q22 50 59.5 86.5q37.5 36.5 86.5 57q49 20.5 104 20.5q55 0 104 -20.5q49 -20.5 86.5 -57q37.5 -36.5 59.5 -86.5q22 -50 22 -108zt0 0zM170 257q0 -30 11 -55q11 -25 30.5 -43q19.5 -18 46 -28q26.5 -10 56.5 -10q30 0 56 10q26 10 45.5 28q19.5 18 31 43q11.5 25 11.5 55q0 30 -11.5 55.5q-11.5 25.5 -31 43.5q-19.5 18 -45.5 28q-26 10 -56 10q-30 0 -56.5 -10q-26.5 -10 -46 -28q-19.5 -18 -30.5 -43.5q-11 -25.5 -11 -55.5zt0 0zM152 590q-7 15 -9.5 29q-2.5 14 -2.5 27q0 43 28 68.5q28 25.5 70 25.5q22 0 42 -8q20 -8 37.5 -18q17.5 -10 33 -18q15.5 -8 28.5 -8q25 0 25 24q0 13 -7 28l78 0q13 -30 13 -57q0 -42 -27.5 -67.5q-27.5 -25.5 -69.5 -25.5q-23 0 -42.5 8q-19.5 8 -37 18q-17.5 10 -33 18q-15.5 8 -28.5 8q-11 0 -19 -6.5q-8 -6.5 -8 -19.5q0 -12 7 -26z" />
<glyph unicode="&#246;" horiz-adv-x="628" d="M586 257q0 -59 -22 -108.5q-22 -49.5 -59.5 -85.5q-37.5 -36 -86.5 -56.5q-49 -20.5 -104 -20.5q-55 0 -104 20.5q-49 20.5 -86.5 56.5q-37.5 36 -59.5 85.5q-22 49.5 -22 108.5q0 58 22 108q22 50 59.5 86.5q37.5 36.5 86.5 57q49 20.5 104 20.5q55 0 104 -20.5q49 -20.5 86.5 -57q37.5 -36.5 59.5 -86.5q22 -50 22 -108zt0 0zM170 257q0 -30 11 -55q11 -25 30.5 -43q19.5 -18 46 -28q26.5 -10 56.5 -10q30 0 56 10q26 10 45.5 28q19.5 18 31 43q11.5 25 11.5 55q0 30 -11.5 55.5q-11.5 25.5 -31 43.5q-19.5 18 -45.5 28q-26 10 -56 10q-30 0 -56.5 -10q-26.5 -10 -46 -28q-19.5 -18 -30.5 -43.5q-11 -25.5 -11 -55.5zt0 0zM137 665q0 32 21.5 53.5q21.5 21.5 53.5 21.5q32 0 53.5 -21.5q21.5 -21.5 21.5 -53.5q0 -32 -21.5 -53.5q-21.5 -21.5 -53.5 -21.5q-32 0 -53.5 21.5q-21.5 21.5 -21.5 53.5zt0 0zM339 665q0 32 21.5 53.5q21.5 21.5 53.5 21.5q32 0 53.5 -21.5q21.5 -21.5 21.5 -53.5q0 -32 -21.5 -53.5q-21.5 -21.5 -53.5 -21.5q-32 0 -53.5 21.5t-21.5 53.5z" />
<glyph unicode="&#248;" horiz-adv-x="637" d="M591 257q0 -59 -22 -108.5q-22 -49.5 -59.5 -85.5q-37.5 -36 -86.5 -56.5q-49 -20.5 -104 -20.5q-68 0 -127 31h-26h-155l90 76q-26 33 -40 74.5q-14 41.5 -14 89.5q0 58 22 108q22 50 59.5 86.5q37.5 36.5 86.5 57q49 20.5 104 20.5q67 0 126 -31h26h155l-91 -76q26 -34 41 -75.5q15 -41.5 15 -89.5zt0 0zM468 257q0 36 -16 66l-172 -202q17 -4 39 -4q31 0 58 10q27 10 47.5 28.5q20.5 18.5 32 44.5q11.5 26 11.5 57zt0 0zM171 257q0 -37 15 -64l170 201q-9 2 -18 3q-9 1 -19 1q-31 0 -58 -10q-27 -10 -47 -29q-20 -19 -31.5 -45t-11.5 -57z" />
<glyph unicode="&#249;" horiz-adv-x="620" d="M67 515h127v-278q0 -56 31 -86q31 -30 78 -30q41 0 74 22q33 22 40 56l0 316h127v-515h-123v52q-11 -29 -46 -47.5q-35 -18.5 -91 -18.5q-40 0 -79 13.5q-39 13.5 -69.5 41.5q-30.5 28 -49.5 71.5q-19 43.5 -19 103.5zM301 750l70 -160h-100l-120 160z" />
<glyph unicode="&#250;" horiz-adv-x="620" d="M67 515h127v-278q0 -56 31 -86q31 -30 78 -30q41 0 74 22q33 22 40 56l0 316h127v-515h-123v52q-11 -29 -46 -47.5q-35 -18.5 -91 -18.5q-40 0 -79 13.5q-39 13.5 -69.5 41.5q-30.5 28 -49.5 71.5q-19 43.5 -19 103.5zM460 750l-120 -160h-100l70 160z" />
<glyph unicode="&#251;" horiz-adv-x="620" d="M67 515h127v-278q0 -56 31 -86q31 -30 78 -30q41 0 74 22q33 22 40 56l0 316h127v-515h-123v52q-11 -29 -46 -47.5q-35 -18.5 -91 -18.5q-40 0 -79 13.5q-39 13.5 -69.5 41.5q-30.5 28 -49.5 71.5q-19 43.5 -19 103.5zM383 750l85 -160h-99l-64 79l-64 -79h-99l85 160z" />
<glyph unicode="&#252;" horiz-adv-x="620" d="M67 515h127v-278q0 -56 31 -86q31 -30 78 -30q41 0 74 22q33 22 40 56l0 316h127v-515h-123v52q-11 -29 -46 -47.5q-35 -18.5 -91 -18.5q-40 0 -79 13.5q-39 13.5 -69.5 41.5q-30.5 28 -49.5 71.5q-19 43.5 -19 103.5zM130 665q0 32 21.5 53.5q21.5 21.5 53.5 21.5q32 0 53.5 -21.5q21.5 -21.5 21.5 -53.5q0 -32 -21.5 -53.5q-21.5 -21.5 -53.5 -21.5q-32 0 -53.5 21.5q-21.5 21.5 -21.5 53.5zt0 0zM332 665q0 32 21.5 53.5q21.5 21.5 53.5 21.5q32 0 53.5 -21.5q21.5 -21.5 21.5 -53.5q0 -32 -21.5 -53.5q-21.5 -21.5 -53.5 -21.5q-32 0 -53.5 21.5t-21.5 53.5z" />
<glyph unicode="&#253;" horiz-adv-x="584" d="M17 515h137l135 -320l135 320h141l-308 -728h-139l105 245zM439 750l-120 -160h-100l70 160z" />
<glyph unicode="&#254;" horiz-adv-x="656" d="M614 258q0 -60 -21.5 -110q-21.5 -50 -57.5 -86q-36 -36 -83 -56q-47 -20 -98 -20q-57 0 -97.5 19.5q-40.5 19.5 -53.5 48.5l0 -267h-127v941h127v-267q13 29 53.5 48.5q40.5 19.5 97.5 19.5q51 0 98 -19.5q47 -19.5 83 -55.5q36 -36 57.5 -86q21.5 -50 21.5 -110zt0 0zM486 258q0 30 -11 55q-11 25 -30.5 43q-19.5 18 -47 28q-27.5 10 -60.5 10q-48 0 -85 -19.5q-37 -19.5 -49 -48.5l0 -137q12 -29 49 -48.5q37 -19.5 85 -19.5q33 0 60.5 10q27.5 10 47 28q19.5 18 30.5 43.5t11 55.5z" />
<glyph unicode="&#255;" horiz-adv-x="584" d="M17 515h137l135 -320l135 320h141l-308 -728h-139l105 245zM115 665q0 32 21.5 53.5q21.5 21.5 53.5 21.5q32 0 53.5 -21.5q21.5 -21.5 21.5 -53.5q0 -32 -21.5 -53.5q-21.5 -21.5 -53.5 -21.5q-32 0 -53.5 21.5q-21.5 21.5 -21.5 53.5zt0 0zM317 665q0 32 21.5 53.5q21.5 21.5 53.5 21.5q32 0 53.5 -21.5q21.5 -21.5 21.5 -53.5q0 -32 -21.5 -53.5q-21.5 -21.5 -53.5 -21.5q-32 0 -53.5 21.5t-21.5 53.5z" />
<glyph unicode="&#256;" horiz-adv-x="707" d="M701 0h-138l-58 147h-300l-58 -147h-141l283 718h129zM259 286h191l-95 242zM513 888v-98h-320l0 98z" />
<glyph unicode="&#257;" horiz-adv-x="566" d="M367 185q-8 14 -35 24.5q-27 10.5 -62 10.5q-50 0 -75 -16q-25 -16 -25 -42q0 -26 25.5 -41.5q25.5 -15.5 73.5 -15.5q35 0 62 12.5q27 12.5 36 30.5zM69 438q14 22 35.5 39q21.5 17 47.5 28.5q26 11.5 55.5 17.5q29.5 6 59.5 6q51 0 92.5 -14q41.5 -14 71.5 -40q30 -26 46.5 -64.5q16.5 -38.5 16.5 -87.5v-323h-123v45q-19 -29 -59 -44q-40 -15 -82 -15q-41 0 -75 12q-34 12 -59.5 33.5q-25.5 21.5 -39.5 53q-14 31.5 -14 70.5q0 41 16.5 72.5q16.5 31.5 44.5 53q28 21.5 64.5 32.5q36.5 11 75.5 11q50 0 81.5 -11.5q31.5 -11.5 42.5 -24.5l0 14q0 45 -29.5 72q-29.5 27 -86.5 27q-49 0 -88.5 -19q-39.5 -19 -62.5 -48zM441 710v-100h-320l0 100z" />
<glyph unicode="&#259;" horiz-adv-x="566" d="M367 185q-8 14 -35 24.5q-27 10.5 -62 10.5q-50 0 -75 -16q-25 -16 -25 -42q0 -26 25.5 -41.5q25.5 -15.5 73.5 -15.5q35 0 62 12.5q27 12.5 36 30.5zM69 438q14 22 35.5 39q21.5 17 47.5 28.5q26 11.5 55.5 17.5q29.5 6 59.5 6q51 0 92.5 -14q41.5 -14 71.5 -40q30 -26 46.5 -64.5q16.5 -38.5 16.5 -87.5v-323h-123v45q-19 -29 -59 -44q-40 -15 -82 -15q-41 0 -75 12q-34 12 -59.5 33.5q-25.5 21.5 -39.5 53q-14 31.5 -14 70.5q0 41 16.5 72.5q16.5 31.5 44.5 53q28 21.5 64.5 32.5q36.5 11 75.5 11q50 0 81.5 -11.5q31.5 -11.5 42.5 -24.5l0 14q0 45 -29.5 72q-29.5 27 -86.5 27q-49 0 -88.5 -19q-39.5 -19 -62.5 -48zM431 740q0 -31 -12 -58.5q-12 -27.5 -32 -47.5q-20 -20 -47.5 -32q-27.5 -12 -58.5 -12q-31 0 -58.5 12q-27.5 12 -47.5 32q-20 20 -32 47.5q-12 27.5 -12 58.5l99 0q0 -19 15 -32q15 -13 36 -13q22 0 37 13q15 13 15 32z" />
<glyph unicode="&#260;" horiz-adv-x="707" d="M563 0l-58 147h-300l-58 -147h-141l283 718h129l283 -718q-4 -5 -10 -12q-6 -7 -12 -16q-6 -9 -10 -19.5q-4 -10.5 -4 -22.5q0 -19 12.5 -30q12.5 -11 29.5 -11q10 0 17.5 3q7.5 3 11.5 6l14 -92q-7 -9 -25 -19.5q-18 -10.5 -46 -10.5q-57 0 -89 31.5q-32 31.5 -32 77.5q0 22 8 41q8 19 19.5 33.5q11.5 14.5 23 25q11.5 10.5 19.5 15.5zM259 286h191l-95 242z" />
<glyph unicode="&#261;" horiz-adv-x="566" d="M371 0v45q-19 -29 -59 -44q-40 -15 -82 -15q-41 0 -75 12q-34 12 -59.5 33.5q-25.5 21.5 -39.5 53q-14 31.5 -14 70.5q0 41 16.5 72.5q16.5 31.5 44.5 53q28 21.5 64.5 32.5q36.5 11 75.5 11q50 0 81.5 -11.5q31.5 -11.5 42.5 -24.5l0 14q0 45 -29.5 72q-29.5 27 -86.5 27q-49 0 -88.5 -19q-39.5 -19 -62.5 -48l-31 104q14 22 35.5 39q21.5 17 47.5 28.5q26 11.5 55.5 17.5q29.5 6 59.5 6q51 0 92.5 -14q41.5 -14 71.5 -40q30 -26 46.5 -64.5q16.5 -38.5 16.5 -87.5v-323q-4 -5 -10 -12q-6 -7 -12 -16q-6 -9 -10 -19.5q-4 -10.5 -4 -22.5q0 -19 12.5 -30q12.5 -11 29.5 -11q10 0 17.5 3q7.5 3 11.5 6l14 -92q-7 -9 -25 -19.5q-18 -10.5 -46 -10.5q-57 0 -89 31.5q-32 31.5 -32 77.5q0 22 8 41q8 19 19.5 33.5q11.5 14.5 23 25q11.5 10.5 19.5 15.5zM367 185q-8 14 -35 24.5q-27 10.5 -62 10.5q-50 0 -75 -16q-25 -16 -25 -42q0 -26 25.5 -41.5q25.5 -15.5 73.5 -15.5q35 0 62 12.5q27 12.5 36 30.5z" />
<glyph unicode="&#262;" horiz-adv-x="704" d="M673 114q-16 -27 -42 -50.5q-26 -23.5 -61 -41q-35 -17.5 -77.5 -27q-42.5 -9.5 -91.5 -9.5q-72 0 -138.5 27q-66.5 27 -117 76q-50.5 49 -80.5 118q-30 69 -30 152q0 83 30 152q30 69 80.5 118q50.5 49 117 76q66.5 27 138.5 27q48 0 90 -10q42 -10 76.5 -27.5q34.5 -17.5 60 -40.5q25.5 -23 40.5 -49l-41 -116q-15 20 -36.5 38q-21.5 18 -49.5 32q-28 14 -60.5 22.5q-32.5 8.5 -69.5 8.5q-53 0 -97.5 -16q-44.5 -16 -76.5 -46q-32 -30 -50 -73q-18 -43 -18 -96q0 -53 18 -96q18 -43 50 -73q32 -30 76.5 -46q44.5 -16 97.5 -16q39 0 73 8.5q34 8.5 62 23q28 14.5 49.5 33.5q21.5 19 36.5 40zM551 922l-120 -150h-100l70 150z" />
<glyph unicode="&#263;" horiz-adv-x="550" d="M508 78q-23 -38 -75 -65q-52 -27 -121 -27q-54 0 -102.5 20q-48.5 20 -86 56q-37.5 36 -59.5 86q-22 50 -22 110q0 60 22 110q22 50 59.5 86q37.5 36 86 55.5q48.5 19.5 102.5 19.5q69 0 119.5 -27q50.5 -27 72.5 -64l-36 -106q-20 24 -57 43q-37 19 -85 19q-70 0 -112 -37.5q-42 -37.5 -42 -98.5q0 -61 42 -99q42 -38 112 -38q49 0 86 20q37 20 58 44zM463 750l-120 -160h-100l70 160z" />
<glyph unicode="&#268;" horiz-adv-x="704" d="M673 114q-16 -27 -42 -50.5q-26 -23.5 -61 -41q-35 -17.5 -77.5 -27q-42.5 -9.5 -91.5 -9.5q-72 0 -138.5 27q-66.5 27 -117 76q-50.5 49 -80.5 118q-30 69 -30 152q0 83 30 152q30 69 80.5 118q50.5 49 117 76q66.5 27 138.5 27q48 0 90 -10q42 -10 76.5 -27.5q34.5 -17.5 60 -40.5q25.5 -23 40.5 -49l-41 -116q-15 20 -36.5 38q-21.5 18 -49.5 32q-28 14 -60.5 22.5q-32.5 8.5 -69.5 8.5q-53 0 -97.5 -16q-44.5 -16 -76.5 -46q-32 -30 -50 -73q-18 -43 -18 -96q0 -53 18 -96q18 -43 50 -73q32 -30 76.5 -46q44.5 -16 97.5 -16q39 0 73 8.5q34 8.5 62 23q28 14.5 49.5 33.5q21.5 19 36.5 40zM316 772l-85 150h95l64 -69l64 69h95l-85 -150z" />
<glyph unicode="&#269;" horiz-adv-x="550" d="M508 78q-23 -38 -75 -65q-52 -27 -121 -27q-54 0 -102.5 20q-48.5 20 -86 56q-37.5 36 -59.5 86q-22 50 -22 110q0 60 22 110q22 50 59.5 86q37.5 36 86 55.5q48.5 19.5 102.5 19.5q69 0 119.5 -27q50.5 -27 72.5 -64l-36 -106q-20 24 -57 43q-37 19 -85 19q-70 0 -112 -37.5q-42 -37.5 -42 -98.5q0 -61 42 -99q42 -38 112 -38q49 0 86 20q37 20 58 44zM219 590l-85 160h99l64 -79l64 79h99l-85 -160z" />
<glyph unicode="&#270;" horiz-adv-x="735" d="M566 359q0 46 -16 85.5q-16 39.5 -45 68.5q-29 29 -69 46q-40 17 -88 17h-132v-434h132q46 0 86 15.5q40 15.5 69 44q29 28.5 46 68.5q17 40 17 89zt0 0zM310 718q85 0 156.5 -24q71.5 -24 123.5 -69.5q52 -45.5 81 -112.5q29 -67 29 -153q0 -85 -29.5 -151.5q-29.5 -66.5 -82 -112.5q-52.5 -46 -123.5 -70.5q-71 -24.5 -155 -24.5h-225v718zM270 772l-85 150h95l64 -69l64 69h95l-85 -150z" />
<glyph unicode="&#271;" horiz-adv-x="794" d="M42 257q0 60 21.5 110q21.5 50 57.5 86q36 36 83 56q47 20 98 20q57 0 97.5 -19.5q40.5 -19.5 53.5 -48.5l0 267h127v-728h-123v54q-13 -29 -54.5 -48.5q-41.5 -19.5 -98.5 -19.5q-52 0 -99.5 19.5q-47.5 19.5 -83.5 55.5q-36 36 -57.5 86q-21.5 50 -21.5 110zt0 0zM170 257q0 -30 11 -55q11 -25 30.5 -43q19.5 -18 47 -28q27.5 -10 60.5 -10q48 0 85 19.5q37 19.5 49 48.5l0 137q-12 29 -49 48.5q-37 19.5 -85 19.5q-33 0 -60.5 -10q-27.5 -10 -47 -28q-19.5 -18 -30.5 -43.5q-11 -25.5 -11 -55.5zt0 0zM718 602q-18 5 -34 20q-16 15 -16 41q0 29 22.5 49q22.5 20 55.5 20q32 0 52.5 -21q20.5 -21 20.5 -50q0 -24 -9 -43q-9 -19 -21 -39l-48 -80l-74 0z" />
<glyph unicode="&#272;" horiz-adv-x="756" d="M6 440h100v278h225q85 0 156.5 -24q71.5 -24 123.5 -69.5q52 -45.5 81 -112.5q29 -67 29 -153q0 -85 -29.5 -151.5q-29.5 -66.5 -82 -112.5q-52.5 -46 -123.5 -70.5q-71 -24.5 -155 -24.5h-225v298h-100zM587 359q0 46 -16 85.5q-16 39.5 -45 68.5q-29 29 -69 46q-40 17 -88 17h-132v-136h157v-142h-157v-156h132q46 0 86 15.5q40 15.5 69 44q29 28.5 46 68.5t17 89z" />
<glyph unicode="&#273;" horiz-adv-x="659" d="M304 659h149v69h127v-69h77v-94h-77v-565h-123v53q-13 -29 -54.5 -48q-41.5 -19 -98.5 -19q-52 0 -99.5 19q-47.5 19 -83.5 53.5q-36 34.5 -57.5 84q-21.5 49.5 -21.5 109.5q0 60 21.5 109.5q21.5 49.5 57.5 84.5q36 35 83 54q47 19 98 19q57 0 97.5 -18.5q40.5 -18.5 53.5 -47.5l0 112h-149zM170 252q0 -61 41.5 -96q41.5 -35 107.5 -35q48 0 85 19q37 19 49 48l0 130q-12 29 -49 47.5q-37 18.5 -85 18.5q-66 0 -107.5 -35.5t-41.5 -96.5z" />
<glyph unicode="&#274;" horiz-adv-x="541" d="M85 718h396v-142h-265v-136h235v-142h-235v-156h265v-142h-396zM442 888v-98h-320l0 98z" />
<glyph unicode="&#275;" horiz-adv-x="599" d="M322 114q48 0 92 17.5q44 17.5 66 46.5l39 -98q-24 -40 -76.5 -67q-52.5 -27 -124.5 -27q-59 0 -109.5 19q-50.5 19 -87.5 54q-37 35 -58 85q-21 50 -21 113q0 55 18.5 104q18.5 49 53 86.5q34.5 37.5 83 59.5q48.5 22 109.5 22q57 0 103.5 -22.5q46.5 -22.5 79 -60q32.5 -37.5 50.5 -86.5q18 -49 18 -103q0 -11 -0.5 -23.5q-0.5 -12.5 -2.5 -21.5l-382 0q9 -51 50 -74.5q41 -23.5 100 -23.5zt0 0zM427 316q-6 41 -40 62.5q-34 21.5 -81 21.5q-47 0 -84 -21.5q-37 -21.5 -45 -62.5zM461 710v-100h-320l0 100z" />
<glyph unicode="&#278;" horiz-adv-x="541" d="M85 718h396v-142h-265v-136h235v-142h-235v-156h265v-142h-396zM204 847q0 32 23 54q23 22 55 22q32 0 55 -22q23 -22 23 -54q0 -32 -23 -54q-23 -22 -55 -22q-32 0 -55 22t-23 54z" />
<glyph unicode="&#279;" horiz-adv-x="599" d="M322 114q48 0 92 17.5q44 17.5 66 46.5l39 -98q-24 -40 -76.5 -67q-52.5 -27 -124.5 -27q-59 0 -109.5 19q-50.5 19 -87.5 54q-37 35 -58 85q-21 50 -21 113q0 55 18.5 104q18.5 49 53 86.5q34.5 37.5 83 59.5q48.5 22 109.5 22q57 0 103.5 -22.5q46.5 -22.5 79 -60q32.5 -37.5 50.5 -86.5q18 -49 18 -103q0 -11 -0.5 -23.5q-0.5 -12.5 -2.5 -21.5l-382 0q9 -51 50 -74.5q41 -23.5 100 -23.5zt0 0zM427 316q-6 41 -40 62.5q-34 21.5 -81 21.5q-47 0 -84 -21.5q-37 -21.5 -45 -62.5zM216 673q0 35 25 60q25 25 60 25q35 0 60 -25q25 -25 25 -60q0 -35 -25 -60q-25 -25 -60 -25q-35 0 -60 25t-25 60z" />
<glyph unicode="&#280;" horiz-adv-x="537" d="M85 718h396v-142h-265v-136h235v-142h-235v-156h265v-142q-4 -5 -10 -12q-6 -7 -12 -16q-6 -9 -10 -19.5q-4 -10.5 -4 -22.5q0 -19 12.5 -30q12.5 -11 29.5 -11q10 0 17.5 3q7.5 3 11.5 6l14 -92q-7 -9 -25 -19.5q-18 -10.5 -46 -10.5q-57 0 -89 31.5q-32 31.5 -32 77.5q0 22 8 41q8 19 19.5 33.5q11.5 14.5 23 25q11.5 10.5 19.5 15.5l-323 0z" />
<glyph unicode="&#281;" horiz-adv-x="599" d="M322 114q48 0 92 17.5q44 17.5 66 46.5l39 -97q-14 -16 -25 -32.5q-11 -16.5 -11 -37.5q0 -19 12.5 -30q12.5 -11 29.5 -11q10 0 17.5 3q7.5 3 11.5 6l14 -92q-7 -9 -25 -19.5q-18 -10.5 -46 -10.5q-57 0 -89 31.5q-32 31.5 -32 77.5q0 14 3 26q-29 -6 -61 -6q-59 0 -109.5 19q-50.5 19 -87.5 54q-37 35 -58 85q-21 50 -21 113q0 55 18.5 104q18.5 49 53 86.5q34.5 37.5 83 59.5q48.5 22 109.5 22q57 0 103.5 -22.5q46.5 -22.5 79 -60q32.5 -37.5 50.5 -86.5q18 -49 18 -103q0 -11 -0.5 -23.5q-0.5 -12.5 -2.5 -21.5l-382 0q9 -51 50 -74.5q41 -23.5 100 -23.5zt0 0zM427 316q-6 41 -40 62.5q-34 21.5 -81 21.5q-47 0 -84 -21.5q-37 -21.5 -45 -62.5z" />
<glyph unicode="&#282;" horiz-adv-x="541" d="M85 718h396v-142h-265v-136h235v-142h-235v-156h265v-142h-396zM206 772l-85 150h95l64 -69l64 69h95l-85 -150z" />
<glyph unicode="&#283;" horiz-adv-x="599" d="M322 114q48 0 92 17.5q44 17.5 66 46.5l39 -98q-24 -40 -76.5 -67q-52.5 -27 -124.5 -27q-59 0 -109.5 19q-50.5 19 -87.5 54q-37 35 -58 85q-21 50 -21 113q0 55 18.5 104q18.5 49 53 86.5q34.5 37.5 83 59.5q48.5 22 109.5 22q57 0 103.5 -22.5q46.5 -22.5 79 -60q32.5 -37.5 50.5 -86.5q18 -49 18 -103q0 -11 -0.5 -23.5q-0.5 -12.5 -2.5 -21.5l-382 0q9 -51 50 -74.5q41 -23.5 100 -23.5zt0 0zM427 316q-6 41 -40 62.5q-34 21.5 -81 21.5q-47 0 -84 -21.5q-37 -21.5 -45 -62.5zM223 590l-85 160h99l64 -79l64 79h99l-85 -160z" />
<glyph unicode="&#290;" horiz-adv-x="749" d="M401 732q48 0 90 -10.5q42 -10.5 76.5 -28q34.5 -17.5 60 -40.5q25.5 -23 40.5 -49l-41 -116q-15 19 -36.5 37.5q-21.5 18.5 -49.5 33q-28 14.5 -60.5 23q-32.5 8.5 -69.5 8.5q-54 0 -99 -16.5q-45 -16.5 -76.5 -46.5q-31.5 -30 -49 -73q-17.5 -43 -17.5 -95q0 -54 18 -97q18 -43 50.5 -73q32.5 -30 78 -45.5q45.5 -15.5 100.5 -15.5q47 0 84.5 13.5q37.5 13.5 65.5 37.5l0 73h-155v137h283v-253q-19 -30 -46 -57q-27 -27 -63.5 -48q-36.5 -21 -82 -33q-45.5 -12 -100.5 -12q-72 0 -138.5 27q-66.5 27 -117.5 76q-51 49 -81 117.5q-30 68.5 -30 151.5q0 83 30 152q30 69 81 118.5q51 49.5 117 76.5q66 27 138 27zt0 0zM375 -183q-18 5 -34 20q-16 15 -16 41q0 29 22.5 49q22.5 20 55.5 20q32 0 52.5 -21q20.5 -21 20.5 -50q0 -24 -9 -43q-9 -19 -21 -39l-48 -80l-74 0z" />
<glyph unicode="&#291;" horiz-adv-x="646" d="M32 267q0 58 21 106.5q21 48.5 57 83q36 34.5 83 53.5q47 19 99 19q58 0 100 -19.5q42 -19.5 55 -47.5l0 53h123v-508q0 -52 -18 -95q-18 -43 -51.5 -74q-33.5 -31 -81 -48q-47.5 -17 -105.5 -17q-40 0 -75.5 8.5q-35.5 8.5 -65 22.5q-29.5 14 -51 32q-21.5 18 -32.5 37l38 114q26 -32 71.5 -56.5q45.5 -24.5 104.5 -24.5q24 0 48.5 5q24.5 5 45 18.5q20.5 13.5 33 37.5q12.5 24 12.5 62v41q-13 -29 -54 -48q-41 -19 -99 -19q-51 0 -98 19.5q-47 19.5 -82.5 54.5q-35.5 35 -56.5 83.5q-21 48.5 -21 106.5zt0 0zM160 264q0 -58 40.5 -94q40.5 -36 108.5 -36q48 0 85 19.5q37 19.5 49 46.5l0 127q-6 13 -19 25q-13 12 -30.5 21.5q-17.5 9.5 -39 15q-21.5 5.5 -45.5 5.5q-34 0 -61.5 -9.5q-27.5 -9.5 -47 -27q-19.5 -17.5 -30 -41.5q-10.5 -24 -10.5 -52zt0 0zM339 710q18 -5 34 -20q16 -15 16 -41q0 -29 -22.5 -49q-22.5 -20 -55.5 -20q-32 0 -52.5 21q-20.5 21 -20.5 50q0 24 9 43q9 19 21 39l48 80l74 0z" />
<glyph unicode="&#296;" horiz-adv-x="301" d="M85 718h131v-718h-131zM-11 772q-7 15 -9.5 29q-2.5 14 -2.5 27q0 43 28 68.5q28 25.5 70 25.5q22 0 42 -8q20 -8 37.5 -18q17.5 -10 33 -18q15.5 -8 28.5 -8q25 0 25 24q0 13 -7 28l78 0q13 -30 13 -57q0 -42 -27.5 -67.5q-27.5 -25.5 -69.5 -25.5q-23 0 -42.5 8q-19.5 8 -37 18q-17.5 10 -33 18q-15.5 8 -28.5 8q-17 0 -24.5 -13q-7.5 -13 4.5 -39z" />
<glyph unicode="&#297;" horiz-adv-x="277" d="M78 515h127v-515h-127zM-23 590q-7 15 -9.5 29q-2.5 14 -2.5 27q0 43 28 68.5q28 25.5 70 25.5q22 0 42 -8q20 -8 37.5 -18q17.5 -10 33 -18q15.5 -8 28.5 -8q25 0 25 24q0 13 -7 28l78 0q13 -30 13 -57q0 -42 -27.5 -67.5q-27.5 -25.5 -69.5 -25.5q-23 0 -42.5 8q-19.5 8 -37 18q-17.5 10 -33 18q-15.5 8 -28.5 8q-11 0 -19 -6.5q-8 -6.5 -8 -19.5q0 -12 7 -26z" />
<glyph unicode="&#298;" horiz-adv-x="301" d="M85 718h131v-718h-131zM310 888v-98h-320l0 98z" />
<glyph unicode="&#299;" horiz-adv-x="277" d="M78 515h127v-515h-127zM298 710v-100h-320l0 100z" />
<glyph unicode="&#302;" horiz-adv-x="301" d="M85 718h131v-718q-4 -5 -10 -12q-6 -7 -12 -16q-6 -9 -10 -19.5q-4 -10.5 -4 -22.5q0 -19 12.5 -30q12.5 -11 29.5 -11q10 0 17.5 3q7.5 3 11.5 6l14 -92q-7 -9 -25 -19.5q-18 -10.5 -46 -10.5q-57 0 -89 31.5q-32 31.5 -32 77.5q0 22 8 41q8 19 19.5 33.5q11.5 14.5 23 25q11.5 10.5 19.5 15.5l-58 0z" />
<glyph unicode="&#303;" horiz-adv-x="282" d="M78 515h127v-515q-4 -5 -10 -12q-6 -7 -12 -16q-6 -9 -10 -19.5q-4 -10.5 -4 -22.5q0 -19 12.5 -30q12.5 -11 29.5 -11q10 0 17.5 3q7.5 3 11.5 6l14 -92q-7 -9 -25 -19.5q-18 -10.5 -46 -10.5q-57 0 -89 31.5q-32 31.5 -32 77.5q0 22 8 41q8 19 19.5 33.5q11.5 14.5 23 25q11.5 10.5 19.5 15.5l-54 0zM56 673q0 35 25 60q25 25 60 25q35 0 60 -25q25 -25 25 -60q0 -35 -25 -60q-25 -25 -60 -25q-35 0 -60 25t-25 60z" />
<glyph unicode="&#305;" horiz-adv-x="283" d="M78 515h127v-515l-127 0z" />
<glyph unicode="&#310;" horiz-adv-x="667" d="M85 718h131v-274l244 274h168l-303 -341l342 -377h-181l-270 297v-297h-131zM324 -183q-18 5 -34 20q-16 15 -16 41q0 29 22.5 49q22.5 20 55.5 20q32 0 52.5 -21q20.5 -21 20.5 -50q0 -24 -9 -43q-9 -19 -21 -39l-48 -80l-74 0z" />
<glyph unicode="&#311;" horiz-adv-x="575" d="M76 728h127v-404l188 191h170l-238 -242l260 -273h-171l-209 217v-217h-127zM282 -183q-18 5 -34 20q-16 15 -16 41q0 29 22.5 49q22.5 20 55.5 20q32 0 52.5 -21q20.5 -21 20.5 -50q0 -24 -9 -43q-9 -19 -21 -39l-48 -80l-74 0z" />
<glyph unicode="&#312;" horiz-adv-x="575" d="M76 515h127v-195l190 195h163l-233 -246l260 -269h-171l-209 213v-213l-127 0z" />
<glyph unicode="&#313;" horiz-adv-x="485" d="M85 718h131v-576h249v-142h-380zM320 922l-120 -150h-100l70 150z" />
<glyph unicode="&#314;" horiz-adv-x="277" d="M66 728h127v-728h-127zM296 922l-120 -150h-100l70 150z" />
<glyph unicode="&#315;" horiz-adv-x="485" d="M85 718h131v-576h249v-142h-380zM253 -183q-18 5 -34 20q-16 15 -16 41q0 29 22.5 49q22.5 20 55.5 20q32 0 52.5 -21q20.5 -21 20.5 -50q0 -24 -9 -43q-9 -19 -21 -39l-48 -80l-74 0z" />
<glyph unicode="&#316;" horiz-adv-x="279" d="M76 728h127v-728h-127zM115 -183q-18 5 -34 20q-16 15 -16 41q0 29 22.5 49q22.5 20 55.5 20q32 0 52.5 -21q20.5 -21 20.5 -50q0 -24 -9 -43q-9 -19 -21 -39l-48 -80l-74 0z" />
<glyph unicode="&#317;" horiz-adv-x="503" d="M85 718h131v-576h249v-142h-380zM357 602q-18 5 -34 20q-16 15 -16 41q0 29 22.5 49q22.5 20 55.5 20q32 0 52.5 -21q20.5 -21 20.5 -50q0 -24 -9 -43q-9 -19 -21 -39l-48 -80l-74 0z" />
<glyph unicode="&#318;" horiz-adv-x="417" d="M76 728h127v-728h-127zM341 602q-18 5 -34 20q-16 15 -16 41q0 29 22.5 49q22.5 20 55.5 20q32 0 52.5 -21q20.5 -21 20.5 -50q0 -24 -9 -43q-9 -19 -21 -39l-48 -80l-74 0z" />
<glyph unicode="&#321;" horiz-adv-x="513" d="M113 233l-107 -59v137l107 59v348h131v-275l177 98v-137l-177 -98v-164h249v-142l-380 0z" />
<glyph unicode="&#322;" horiz-adv-x="371" d="M122 285l-92 -51v137l92 51v306h127v-236l92 51v-137l-92 -51v-355l-127 0z" />
<glyph unicode="&#323;" horiz-adv-x="766" d="M85 718h131l334 -487v487h131v-718h-132l-333 484v-484h-131zM536 922l-120 -150h-100l70 150z" />
<glyph unicode="&#324;" horiz-adv-x="623" d="M556 0h-127v278q0 56 -32 86q-32 30 -79 30q-41 0 -74.5 -22q-33.5 -22 -40.5 -56l0 -316h-127v515h123v-52q11 29 46.5 47.5q35.5 18.5 91.5 18.5q40 0 79 -13.5q39 -13.5 70 -41.5q31 -28 50.5 -71.5q19.5 -43.5 19.5 -103.5zM472 750l-120 -160h-100l70 160z" />
<glyph unicode="&#325;" horiz-adv-x="766" d="M85 718h131l334 -487v487h131v-718h-132l-333 484v-484h-131zM358 -183q-18 5 -34 20q-16 15 -16 41q0 29 22.5 49q22.5 20 55.5 20q32 0 52.5 -21q20.5 -21 20.5 -50q0 -24 -9 -43q-9 -19 -21 -39l-48 -80l-74 0z" />
<glyph unicode="&#326;" horiz-adv-x="623" d="M556 0h-127v278q0 56 -32 86q-32 30 -79 30q-41 0 -74.5 -22q-33.5 -22 -40.5 -56l0 -316h-127v515h123v-52q11 29 46.5 47.5q35.5 18.5 91.5 18.5q40 0 79 -13.5q39 -13.5 70 -41.5q31 -28 50.5 -71.5q19.5 -43.5 19.5 -103.5zM291 -183q-18 5 -34 20q-16 15 -16 41q0 29 22.5 49q22.5 20 55.5 20q32 0 52.5 -21q20.5 -21 20.5 -50q0 -24 -9 -43q-9 -19 -21 -39l-48 -80l-74 0z" />
<glyph unicode="&#327;" horiz-adv-x="766" d="M85 718h131l334 -487v487h131v-718h-132l-333 484v-484h-131zM309 772l-85 150h95l64 -69l64 69h95l-85 -150z" />
<glyph unicode="&#328;" horiz-adv-x="623" d="M556 0h-127v278q0 56 -32 86q-32 30 -79 30q-41 0 -74.5 -22q-33.5 -22 -40.5 -56l0 -316h-127v515h123v-52q11 29 46.5 47.5q35.5 18.5 91.5 18.5q40 0 79 -13.5q39 -13.5 70 -41.5q31 -28 50.5 -71.5q19.5 -43.5 19.5 -103.5zM238 590l-85 160h99l64 -79l64 79h99l-85 -160z" />
<glyph unicode="&#330;" horiz-adv-x="766" d="M85 718h131l334 -487v487h131v-746q0 -94 -46.5 -146.5q-46.5 -52.5 -141.5 -52.5q-20 0 -41.5 5q-21.5 5 -40.5 14q-19 9 -34 21.5q-15 12.5 -24 26.5l14 128q21 -23 47.5 -38q26.5 -15 63.5 -15q31 0 51.5 18.5q20.5 18.5 20.5 66.5l-334 484v-484l-131 0z" />
<glyph unicode="&#331;" horiz-adv-x="623" d="M429 278q0 56 -32 86q-32 30 -79 30q-41 0 -74.5 -22q-33.5 -22 -40.5 -56l0 -316h-127v515h123v-52q11 29 46.5 47.5q35.5 18.5 91.5 18.5q40 0 79 -13.5q39 -13.5 70 -41.5q31 -28 50.5 -71.5q19.5 -43.5 19.5 -103.5v-355q0 -171 -137 -171q-26 0 -54 8.5q-28 8.5 -52 28.5l12 121q12 -13 27 -18q15 -5 28 -5q27 0 38 15.5q11 15.5 11 49.5z" />
<glyph unicode="&#332;" horiz-adv-x="810" d="M405 732q75 0 142 -28q67 -28 118 -77.5q51 -49.5 80.5 -118q29.5 -68.5 29.5 -149.5q0 -80 -29.5 -148q-29.5 -68 -80.5 -118q-51 -50 -118 -78.5q-67 -28.5 -142 -28.5q-75 0 -142 28.5q-67 28.5 -118 78.5q-51 50 -80.5 118q-29.5 68 -29.5 148q0 80 29.5 148q29.5 68 80.5 118q51 50 118 78.5q67 28.5 142 28.5zt0 0zM405 590q-50 0 -93 -16.5q-43 -16.5 -75 -47q-32 -30.5 -50 -73q-18 -42.5 -18 -94.5q0 -52 18 -94.5q18 -42.5 50 -73q32 -30.5 75 -47q43 -16.5 93 -16.5q50 0 93 16.5q43 16.5 74.5 47q31.5 30.5 49.5 73q18 42.5 18 94.5q0 52 -18 94.5q-18 42.5 -49.5 73q-31.5 30.5 -74.5 47q-43 16.5 -93 16.5zt0 0zM564 888v-98h-320l0 98z" />
<glyph unicode="&#333;" horiz-adv-x="628" d="M586 257q0 -59 -22 -108.5q-22 -49.5 -59.5 -85.5q-37.5 -36 -86.5 -56.5q-49 -20.5 -104 -20.5q-55 0 -104 20.5q-49 20.5 -86.5 56.5q-37.5 36 -59.5 85.5q-22 49.5 -22 108.5q0 58 22 108q22 50 59.5 86.5q37.5 36.5 86.5 57q49 20.5 104 20.5q55 0 104 -20.5q49 -20.5 86.5 -57q37.5 -36.5 59.5 -86.5q22 -50 22 -108zt0 0zM170 257q0 -30 11 -55q11 -25 30.5 -43q19.5 -18 46 -28q26.5 -10 56.5 -10q30 0 56 10q26 10 45.5 28q19.5 18 31 43q11.5 25 11.5 55q0 30 -11.5 55.5q-11.5 25.5 -31 43.5q-19.5 18 -45.5 28q-26 10 -56 10q-30 0 -56.5 -10q-26.5 -10 -46 -28q-19.5 -18 -30.5 -43.5q-11 -25.5 -11 -55.5zt0 0zM473 710v-100h-320l0 100z" />
<glyph unicode="&#336;" horiz-adv-x="810" d="M405 732q75 0 142 -28q67 -28 118 -77.5q51 -49.5 80.5 -118q29.5 -68.5 29.5 -149.5q0 -80 -29.5 -148q-29.5 -68 -80.5 -118q-51 -50 -118 -78.5q-67 -28.5 -142 -28.5q-75 0 -142 28.5q-67 28.5 -118 78.5q-51 50 -80.5 118q-29.5 68 -29.5 148q0 80 29.5 148q29.5 68 80.5 118q51 50 118 78.5q67 28.5 142 28.5zt0 0zM405 590q-50 0 -93 -16.5q-43 -16.5 -75 -47q-32 -30.5 -50 -73q-18 -42.5 -18 -94.5q0 -52 18 -94.5q18 -42.5 50 -73q32 -30.5 75 -47q43 -16.5 93 -16.5q50 0 93 16.5q43 16.5 74.5 47q31.5 30.5 49.5 73q18 42.5 18 94.5q0 52 -18 94.5q-18 42.5 -49.5 73q-31.5 30.5 -74.5 47q-43 16.5 -93 16.5zt0 0zM458 922l-120 -150h-90l70 150zM650 922l-120 -150h-90l70 150z" />
<glyph unicode="&#337;" horiz-adv-x="627" d="M586 257q0 -59 -22 -108.5q-22 -49.5 -59.5 -85.5q-37.5 -36 -86.5 -56.5q-49 -20.5 -104 -20.5q-55 0 -104 20.5q-49 20.5 -86.5 56.5q-37.5 36 -59.5 85.5q-22 49.5 -22 108.5q0 58 22 108q22 50 59.5 86.5q37.5 36.5 86.5 57q49 20.5 104 20.5q55 0 104 -20.5q49 -20.5 86.5 -57q37.5 -36.5 59.5 -86.5q22 -50 22 -108zt0 0zM170 257q0 -30 11 -55q11 -25 30.5 -43q19.5 -18 46 -28q26.5 -10 56.5 -10q30 0 56 10q26 10 45.5 28q19.5 18 31 43q11.5 25 11.5 55q0 30 -11.5 55.5q-11.5 25.5 -31 43.5q-19.5 18 -45.5 28q-26 10 -56 10q-30 0 -56.5 -10q-26.5 -10 -46 -28q-19.5 -18 -30.5 -43.5q-11 -25.5 -11 -55.5zt0 0zM377 750l-120 -160h-90l70 160zM567 750l-120 -160h-90l70 160z" />
<glyph unicode="&#338;" horiz-adv-x="1096" d="M405 732q66 0 126 -21.5q60 -21.5 109 -61.5l0 69h396v-142h-265v-136h235v-142h-235v-156h265v-142h-396v70q-49 -40 -109 -62q-60 -22 -126 -22q-75 0 -142 28.5q-67 28.5 -118 78.5q-51 50 -80.5 118q-29.5 68 -29.5 148q0 80 29.5 148q29.5 68 80.5 118q51 50 118 78.5q67 28.5 142 28.5zt0 0zM405 590q-50 0 -93 -16.5q-43 -16.5 -75 -47q-32 -30.5 -50 -73q-18 -42.5 -18 -94.5q0 -52 18 -94.5q18 -42.5 50 -73q32 -30.5 75 -47q43 -16.5 93 -16.5q50 0 93 16.5q43 16.5 74.5 47q31.5 30.5 49.5 73q18 42.5 18 94.5q0 52 -18 94.5q-18 42.5 -49.5 73q-31.5 30.5 -74.5 47t-93 16.5z" />
<glyph unicode="&#339;" horiz-adv-x="1010" d="M170 257q0 -30 11 -55q11 -25 30.5 -43q19.5 -18 46 -28q26.5 -10 56.5 -10q30 0 56 10q26 10 45.5 28q19.5 18 31 43q11.5 25 11.5 55q0 30 -11.5 55.5q-11.5 25.5 -31 43.5q-19.5 18 -45.5 28q-26 10 -56 10q-30 0 -56.5 -10q-26.5 -10 -46 -28q-19.5 -18 -30.5 -43.5q-11 -25.5 -11 -55.5zt0 0zM838 316q-8 42 -41 63q-33 21 -80 21q-48 0 -84 -21q-36 -21 -45 -63zM729 -14q-66 0 -120.5 23q-54.5 23 -92.5 66q-38 -42 -90 -65.5q-52 -23.5 -112 -23.5q-55 0 -104 20.5q-49 20.5 -86.5 56.5q-37.5 36 -59.5 85.5q-22 49.5 -22 108.5q0 58 22 108q22 50 59.5 86.5q37.5 36.5 86.5 57q49 20.5 104 20.5q60 0 112.5 -24q52.5 -24 90.5 -66q35 41 85 65.5q50 24.5 115 24.5q57 0 103.5 -22.5q46.5 -22.5 79 -60q32.5 -37.5 50.5 -86.5q18 -49 18 -103q0 -11 -0.5 -23.5q-0.5 -12.5 -2.5 -21.5l-382 0q9 -51 50 -74.5q41 -23.5 100 -23.5q48 0 92 17.5q44 17.5 66 46.5l39 -98q-24 -40 -76.5 -67t-124.5 -27z" />
<glyph unicode="&#340;" horiz-adv-x="571" d="M85 718h213q40 0 79 -12.5q39 -12.5 69.5 -38.5q30.5 -26 49 -65.5q18.5 -39.5 18.5 -93.5q0 -70 -34.5 -122q-34.5 -52 -98.5 -74l165 -312h-146l-158 298h-26v-298h-131zM216 577v-147h93q32 0 53 20q21 20 21 53q0 32 -20.5 53q-20.5 21 -53.5 21zM429 922l-120 -150h-100l70 150z" />
<glyph unicode="&#341;" horiz-adv-x="416" d="M378 373q-11 8 -28.5 14.5q-17.5 6.5 -39.5 6.5q-45 0 -72 -24.5q-27 -24.5 -35 -59.5l0 -310h-127v515h123v-68q11 36 40.5 59q29.5 23 73.5 23q29 0 51 -11.5q22 -11.5 32 -27.5zM244 750l-70 -160h100l120 160z" />
<glyph unicode="&#342;" horiz-adv-x="571" d="M85 718h213q40 0 79 -12.5q39 -12.5 69.5 -38.5q30.5 -26 49 -65.5q18.5 -39.5 18.5 -93.5q0 -70 -34.5 -122q-34.5 -52 -98.5 -74l165 -312h-146l-158 298h-26v-298h-131zM216 577v-147h93q32 0 53 20q21 20 21 53q0 32 -20.5 53q-20.5 21 -53.5 21zM282 -183q-18 5 -34 20q-16 15 -16 41q0 29 22.5 49q22.5 20 55.5 20q32 0 52.5 -21q20.5 -21 20.5 -50q0 -24 -9 -43q-9 -19 -21 -39l-48 -80l-74 0z" />
<glyph unicode="&#343;" horiz-adv-x="406" d="M368 373q-11 8 -28.5 14.5q-17.5 6.5 -39.5 6.5q-45 0 -72 -24.5q-27 -24.5 -35 -59.5l0 -310h-127v515h123v-68q11 36 40.5 59q29.5 23 73.5 23q29 0 51 -11.5q22 -11.5 32 -27.5zM104 -183q-18 5 -34 20q-16 15 -16 41q0 29 22.5 49q22.5 20 55.5 20q32 0 52.5 -21q20.5 -21 20.5 -50q0 -24 -9 -43q-9 -19 -21 -39l-48 -80l-74 0z" />
<glyph unicode="&#344;" horiz-adv-x="571" d="M85 718h213q40 0 79 -12.5q39 -12.5 69.5 -38.5q30.5 -26 49 -65.5q18.5 -39.5 18.5 -93.5q0 -70 -34.5 -122q-34.5 -52 -98.5 -74l165 -312h-146l-158 298h-26v-298h-131zM216 577v-147h93q32 0 53 20q21 20 21 53q0 32 -20.5 53q-20.5 21 -53.5 21zM210 772l-85 150h95l64 -69l64 69h95l-85 -150z" />
<glyph unicode="&#345;" horiz-adv-x="419" d="M381 373q-11 8 -28.5 14.5q-17.5 6.5 -39.5 6.5q-45 0 -72 -24.5q-27 -24.5 -35 -59.5l0 -310h-127v515h123v-68q11 36 40.5 59q29.5 23 73.5 23q29 0 51 -11.5q22 -11.5 32 -27.5zM157 590l-85 160h99l64 -79l64 79h99l-85 -160z" />
<glyph unicode="&#346;" horiz-adv-x="503" d="M416 512q-32 36 -76.5 57q-44.5 21 -86.5 21q-12 0 -23.5 -2q-11.5 -2 -21.5 -6.5q-10 -4.5 -16 -13q-6 -8.5 -6 -20.5q0 -17 16 -33q16 -16 32 -29q42 -34 74.5 -59.5q32.5 -25.5 61.5 -51.5q21 -18 39 -37.5q18 -19.5 31.5 -42q13.5 -22.5 21.5 -49q8 -26.5 8 -57.5q0 -46 -16 -83.5q-16 -37.5 -45 -64q-29 -26.5 -69 -41q-40 -14.5 -88 -14.5q-41 0 -77.5 11q-36.5 11 -66 28.5q-29.5 17.5 -50 39.5q-20.5 22 -29.5 44l39 124q16 -23 38 -42q22 -19 47.5 -33q25.5 -14 52.5 -22q27 -8 53 -8q33 0 55.5 14.5q22.5 14.5 22.5 44.5q0 23 -13.5 41q-13.5 18 -38.5 39q-51 42 -91.5 74.5q-40.5 32.5 -70.5 64.5q-27 29 -48.5 64.5q-21.5 35.5 -21.5 83.5q0 43 16 76q16 33 43 55.5q27 22.5 63 34.5q36 12 77 12q33 0 62.5 -8.5q29.5 -8.5 54 -22q24.5 -13.5 43.5 -30.5q19 -17 30 -35zM397 922l-120 -150h-100l70 150z" />
<glyph unicode="&#347;" horiz-adv-x="442" d="M177 223q-63 32 -93.5 70q-30.5 38 -30.5 87q0 30 12 57.5q12 27.5 34.5 47.5q22.5 20 53 32q30.5 12 68.5 12q57 0 98 -21.5q41 -21.5 59 -49.5l-24 -113q-31 30 -67 42q-36 12 -63 12q-43 0 -43 -25q0 -12 10 -19.5q10 -7.5 31 -18.5l48 -25q63 -32 96 -69q33 -37 33 -95q0 -35 -13 -64q-13 -29 -37.5 -51q-24.5 -22 -58.5 -34q-34 -12 -76 -12q-66 0 -111 27q-45 27 -64 61l36 112q9 -12 22.5 -25q13.5 -13 31.5 -23.5q18 -10.5 40 -17q22 -6.5 49 -6.5q23 0 39 8q16 8 16 27q0 17 -13 27.5q-13 10.5 -40 24.5zM374 750l-120 -160h-100l70 160z" />
<glyph unicode="&#352;" horiz-adv-x="503" d="M416 512q-32 36 -76.5 57q-44.5 21 -86.5 21q-12 0 -23.5 -2q-11.5 -2 -21.5 -6.5q-10 -4.5 -16 -13q-6 -8.5 -6 -20.5q0 -17 16 -33q16 -16 32 -29q42 -34 74.5 -59.5q32.5 -25.5 61.5 -51.5q21 -18 39 -37.5q18 -19.5 31.5 -42q13.5 -22.5 21.5 -49q8 -26.5 8 -57.5q0 -46 -16 -83.5q-16 -37.5 -45 -64q-29 -26.5 -69 -41q-40 -14.5 -88 -14.5q-41 0 -77.5 11q-36.5 11 -66 28.5q-29.5 17.5 -50 39.5q-20.5 22 -29.5 44l39 124q16 -23 38 -42q22 -19 47.5 -33q25.5 -14 52.5 -22q27 -8 53 -8q33 0 55.5 14.5q22.5 14.5 22.5 44.5q0 23 -13.5 41q-13.5 18 -38.5 39q-51 42 -91.5 74.5q-40.5 32.5 -70.5 64.5q-27 29 -48.5 64.5q-21.5 35.5 -21.5 83.5q0 43 16 76q16 33 43 55.5q27 22.5 63 34.5q36 12 77 12q33 0 62.5 -8.5q29.5 -8.5 54 -22q24.5 -13.5 43.5 -30.5q19 -17 30 -35zM179 772l-85 150h95l64 -69l64 69h95l-85 -150z" />
<glyph unicode="&#353;" horiz-adv-x="442" d="M177 223q-63 32 -93.5 70q-30.5 38 -30.5 87q0 30 12 57.5q12 27.5 34.5 47.5q22.5 20 53 32q30.5 12 68.5 12q57 0 98 -21.5q41 -21.5 59 -49.5l-24 -113q-31 30 -67 42q-36 12 -63 12q-43 0 -43 -25q0 -12 10 -19.5q10 -7.5 31 -18.5l48 -25q63 -32 96 -69q33 -37 33 -95q0 -35 -13 -64q-13 -29 -37.5 -51q-24.5 -22 -58.5 -34q-34 -12 -76 -12q-66 0 -111 27q-45 27 -64 61l36 112q9 -12 22.5 -25q13.5 -13 31.5 -23.5q18 -10.5 40 -17q22 -6.5 49 -6.5q23 0 39 8q16 8 16 27q0 17 -13 27.5q-13 10.5 -40 24.5zM138 590l-85 160h99l64 -79l64 79h99l-85 -160z" />
<glyph unicode="&#356;" horiz-adv-x="579" d="M13 718h553v-140h-211v-578h-131v578h-211zM215 772l-85 150h95l64 -69l64 69h95l-85 -150z" />
<glyph unicode="&#357;" horiz-adv-x="610" d="M410 46q-18 -26 -51 -43q-33 -17 -77 -17q-86 0 -127.5 46q-41.5 46 -41.5 130v218h-88v41l177 224h39v-130h163v-135h-164v-190q0 -38 19 -53.5q19 -15.5 45 -15.5q26 0 44 9.5q18 9.5 35 29.5zM509 560q-18 5 -34 20q-16 15 -16 41q0 29 22.5 49q22.5 20 55.5 20q32 0 52.5 -21q20.5 -21 20.5 -50q0 -24 -9 -43q-9 -19 -21 -39l-48 -80l-74 0z" />
<glyph unicode="&#358;" horiz-adv-x="579" d="M13 718h553v-140h-211v-139h121v-140h-121v-299h-131v299h-121v140h121v139l-211 0z" />
<glyph unicode="&#359;" horiz-adv-x="458" d="M410 46q-18 -26 -51 -43q-33 -17 -77 -17q-86 0 -127.5 46q-41.5 46 -41.5 130v61h-88v108h88v49h-88v41l177 224h39v-130h163v-135h-164v-49h164v-108h-164v-33q0 -38 19 -53.5q19 -15.5 45 -15.5q26 0 44 9.5q18 9.5 35 29.5z" />
<glyph unicode="&#360;" horiz-adv-x="733" d="M522 718h131v-433q0 -65 -20 -120q-20 -55 -57.5 -95q-37.5 -40 -90.5 -62q-53 -22 -119 -22q-64 0 -117 21.5q-53 21.5 -90.5 60.5q-37.5 39 -58 94q-20.5 55 -20.5 122v434h131v-431q0 -73 43 -116q43 -43 114 -43q72 0 113 44q41 44 41 116zM205 772q-7 15 -9.5 29q-2.5 14 -2.5 27q0 43 28 68.5q28 25.5 70 25.5q22 0 42 -8q20 -8 37.5 -18q17.5 -10 33 -18q15.5 -8 28.5 -8q25 0 25 24q0 13 -7 28l78 0q13 -30 13 -57q0 -42 -27.5 -67.5q-27.5 -25.5 -69.5 -25.5q-23 0 -42.5 8q-19.5 8 -37 18q-17.5 10 -33 18q-15.5 8 -28.5 8q-17 0 -24.5 -13q-7.5 -13 4.5 -39z" />
<glyph unicode="&#361;" horiz-adv-x="620" d="M67 515h127v-278q0 -56 31 -86q31 -30 78 -30q41 0 74 22q33 22 40 56l0 316h127v-515h-123v52q-11 -29 -46 -47.5q-35 -18.5 -91 -18.5q-40 0 -79 13.5q-39 13.5 -69.5 41.5q-30.5 28 -49.5 71.5q-19 43.5 -19 103.5zM145 590q-7 15 -9.5 29q-2.5 14 -2.5 27q0 43 28 68.5q28 25.5 70 25.5q22 0 42 -8q20 -8 37.5 -18q17.5 -10 33 -18q15.5 -8 28.5 -8q25 0 25 24q0 13 -7 28l78 0q13 -30 13 -57q0 -42 -27.5 -67.5q-27.5 -25.5 -69.5 -25.5q-23 0 -42.5 8q-19.5 8 -37 18q-17.5 10 -33 18q-15.5 8 -28.5 8q-11 0 -19 -6.5q-8 -6.5 -8 -19.5q0 -12 7 -26z" />
<glyph unicode="&#362;" horiz-adv-x="733" d="M522 718h131v-433q0 -65 -20 -120q-20 -55 -57.5 -95q-37.5 -40 -90.5 -62q-53 -22 -119 -22q-64 0 -117 21.5q-53 21.5 -90.5 60.5q-37.5 39 -58 94q-20.5 55 -20.5 122v434h131v-431q0 -73 43 -116q43 -43 114 -43q72 0 113 44q41 44 41 116zM526 888v-98h-320l0 98z" />
<glyph unicode="&#363;" horiz-adv-x="620" d="M67 515h127v-278q0 -56 31 -86q31 -30 78 -30q41 0 74 22q33 22 40 56l0 316h127v-515h-123v52q-11 -29 -46 -47.5q-35 -18.5 -91 -18.5q-40 0 -79 13.5q-39 13.5 -69.5 41.5q-30.5 28 -49.5 71.5q-19 43.5 -19 103.5zM467 710v-100h-320l0 100z" />
<glyph unicode="&#366;" horiz-adv-x="733" d="M522 718h131v-433q0 -65 -20 -120q-20 -55 -57.5 -95q-37.5 -40 -90.5 -62q-53 -22 -119 -22q-64 0 -117 21.5q-53 21.5 -90.5 60.5q-37.5 39 -58 94q-20.5 55 -20.5 122v434h131v-431q0 -73 43 -116q43 -43 114 -43q72 0 113 44q41 44 41 116zM256 854q0 23 8.5 43q8.5 20 23.5 35q15 15 35 23.5q20 8.5 43 8.5q23 0 43 -8.5q20 -8.5 35 -23.5q15 -15 23.5 -35q8.5 -20 8.5 -43q0 -23 -8.5 -43q-8.5 -20 -23.5 -35q-15 -15 -35 -23.5q-20 -8.5 -43 -8.5q-23 0 -43 8.5q-20 8.5 -35 23.5q-15 15 -23.5 35q-8.5 20 -8.5 43zt0 0zM330 854q0 -14 10.5 -23.5q10.5 -9.5 25.5 -9.5q15 0 25 9.5q10 9.5 10 23.5q0 14 -10 23.5q-10 9.5 -25 9.5q-15 0 -25.5 -9.5t-10.5 -23.5z" />
<glyph unicode="&#367;" horiz-adv-x="620" d="M67 515h127v-278q0 -56 31 -86q31 -30 78 -30q41 0 74 22q33 22 40 56l0 316h127v-515h-123v52q-11 -29 -46 -47.5q-35 -18.5 -91 -18.5q-40 0 -79 13.5q-39 13.5 -69.5 41.5q-30.5 28 -49.5 71.5q-19 43.5 -19 103.5zM198 682q0 23 8.5 43q8.5 20 23 35q14.5 15 34.5 23.5q20 8.5 43 8.5q23 0 43 -8.5q20 -8.5 35 -23.5q15 -15 23.5 -35q8.5 -20 8.5 -43q0 -23 -8.5 -43q-8.5 -20 -23.5 -35q-15 -15 -35 -23.5q-20 -8.5 -43 -8.5q-23 0 -43 8.5q-20 8.5 -34.5 23.5q-14.5 15 -23 35q-8.5 20 -8.5 43zt0 0zM272 682q0 -14 10 -23.5q10 -9.5 25 -9.5q15 0 25 9.5q10 9.5 10 23.5q0 14 -10 23.5q-10 9.5 -25 9.5q-15 0 -25 -9.5t-10 -23.5z" />
<glyph unicode="&#368;" horiz-adv-x="733" d="M522 718h131v-433q0 -65 -20 -120q-20 -55 -57.5 -95q-37.5 -40 -90.5 -62q-53 -22 -119 -22q-64 0 -117 21.5q-53 21.5 -90.5 60.5q-37.5 39 -58 94q-20.5 55 -20.5 122v434h131v-431q0 -73 43 -116q43 -43 114 -43q72 0 113 44q41 44 41 116zM413 922l-120 -150h-90l70 150zM605 922l-120 -150h-90l70 150z" />
<glyph unicode="&#369;" horiz-adv-x="620" d="M67 515h127v-278q0 -56 31 -86q31 -30 78 -30q41 0 74 22q33 22 40 56l0 316h127v-515h-123v52q-11 -29 -46 -47.5q-35 -18.5 -91 -18.5q-40 0 -79 13.5q-39 13.5 -69.5 41.5q-30.5 28 -49.5 71.5q-19 43.5 -19 103.5zM360 750l-120 -160h-90l70 160zM550 750l-120 -160h-90l70 160z" />
<glyph unicode="&#370;" horiz-adv-x="733" d="M522 718h131v-433q0 -109 -53.5 -185.5q-53.5 -76.5 -147.5 -102.5q-8 -9 -20.5 -26.5q-12.5 -17.5 -12.5 -40.5q0 -19 12.5 -30q12.5 -11 29.5 -11q10 0 17.5 3q7.5 3 11.5 6l14 -92q-7 -9 -25 -19.5q-18 -10.5 -46 -10.5q-57 0 -89 31.5q-32 31.5 -32 77.5q0 35 17.5 60.5q17.5 25.5 34.5 40.5q-64 0 -116 21.5q-52 21.5 -89.5 60.5q-37.5 39 -58 94q-20.5 55 -20.5 122v434h131v-431q0 -73 43 -116q43 -43 114 -43q72 0 113 44q41 44 41 116z" />
<glyph unicode="&#371;" horiz-adv-x="620" d="M421 0v52q-11 -29 -46 -47.5q-35 -18.5 -91 -18.5q-40 0 -79 13.5q-39 13.5 -69.5 41.5q-30.5 28 -49.5 71.5q-19 43.5 -19 103.5v299h127v-278q0 -56 31 -86q31 -30 78 -30q41 0 74 22q33 22 40 56l0 316h127v-515q-4 -5 -10 -12q-6 -7 -12 -16q-6 -9 -10 -19.5q-4 -10.5 -4 -22.5q0 -19 12.5 -30q12.5 -11 29.5 -11q10 0 17.5 3q7.5 3 11.5 6l14 -92q-7 -9 -25 -19.5q-18 -10.5 -46 -10.5q-57 0 -89 31.5q-32 31.5 -32 77.5q0 22 8 41q8 19 19.5 33.5q11.5 14.5 23 25q11.5 10.5 19.5 15.5z" />
<glyph unicode="&#376;" horiz-adv-x="595" d="M5 718h145l146 -266l146 266h148l-226 -418v-300h-131v300zM120 847q0 30 21 51q21 21 51 21q31 0 51.5 -21q20.5 -21 20.5 -51q0 -31 -20.5 -51.5q-20.5 -20.5 -51.5 -20.5q-30 0 -51 20.5q-21 20.5 -21 51.5zt0 0zM330 847q0 30 20.5 51q20.5 21 51.5 21q30 0 51 -21q21 -21 21 -51q0 -31 -21 -51.5q-21 -20.5 -51 -20.5q-31 0 -51.5 20.5t-20.5 51.5z" />
<glyph unicode="&#377;" horiz-adv-x="511" d="M45 718h414v-107l-253 -469h255v-142h-416v107l249 469h-249zM397 922l-120 -150h-100l70 150z" />
<glyph unicode="&#378;" horiz-adv-x="470" d="M55 515h355v-106l-191 -274h202v-135h-372v106l194 274h-188zM383 750l-120 -160h-100l70 160z" />
<glyph unicode="&#379;" horiz-adv-x="511" d="M45 718h414v-107l-253 -469h255v-142h-416v107l249 469h-249zM172 847q0 32 23 54q23 22 55 22q32 0 55 -22q23 -22 23 -54q0 -32 -23 -54q-23 -22 -55 -22q-32 0 -55 22t-23 54z" />
<glyph unicode="&#380;" horiz-adv-x="470" d="M55 515h355v-106l-191 -274h202v-135h-372v106l194 274h-188zM147 673q0 35 25 60q25 25 60 25q35 0 60 -25q25 -25 25 -60q0 -35 -25 -60q-25 -25 -60 -25q-35 0 -60 25t-25 60z" />
<glyph unicode="&#381;" horiz-adv-x="511" d="M45 718h414v-107l-253 -469h255v-142h-416v107l249 469h-249zM177 772l-85 150h95l64 -69l64 69h95l-85 -150z" />
<glyph unicode="&#382;" horiz-adv-x="470" d="M55 515h355v-106l-191 -274h202v-135h-372v106l194 274h-188zM155 590l-85 160h99l64 -79l64 79h99l-85 -160z" />
<glyph unicode="&#710;" horiz-adv-x="450" d="M303 750l85 -160h-99l-64 79l-64 -79h-99l85 160z" />
<glyph unicode="&#711;" horiz-adv-x="450" d="M147 590l-85 160h99l64 -79l64 79h99l-85 -160z" />
</font>
</defs>
</svg>
