<?xml version="1.0" standalone="no"?>
<!DOCTYPE svg PUBLIC "-//W3C//DTD SVG 1.1//EN" "http://www.w3.org/Graphics/SVG/1.1/DTD/svg11.dtd" >
<svg xmlns="http://www.w3.org/2000/svg">
<metadata>
Generated by SVGconv.
Copyright   : Copyright (c) 2014 by Vyacheslav Kirilenko, Gayane Bagdasaryan. All rights reserved.
Designer    : Vyacheslav Kirilenko, Gayane Bagdasaryan
Foundry     : Vyacheslav Kirilenko, Gayane Bagdasaryan
Foundry URL : http://www.brownfox.org
</metadata>
<defs>
<font id="Gerbera" horiz-adv-x="553" >
<font-face units-per-em="1000" ascent="1049" descent="288" />
<missing-glyph horiz-adv-x="571" />
<glyph unicode="&#13;" horiz-adv-x="270" />
<glyph unicode="&#32;" horiz-adv-x="270" />
<glyph unicode="&#33;" horiz-adv-x="362" d="M144 230l-26 488h126l-26 -488zM115 58q0 28 19 47q19 19 47 19q28 0 47 -19q19 -19 19 -47q0 -28 -19 -47q-19 -19 -47 -19q-28 0 -47 19t-19 47z" />
<glyph unicode="&#34;" horiz-adv-x="408" d="M55 718h106l-17 -240h-72zM247 718h106l-17 -240l-72 0z" />
<glyph unicode="&#35;" horiz-adv-x="650" d="M585 473h-108l-20 -111h99v-90h-115l-31 -176h-82l31 176h-116l-31 -176h-82l31 176h-96v90h112l20 111h-103v90h119l28 155h82l-28 -155h116l28 155h82l-28 -155h92zM259 362h116l20 111l-116 0z" />
<glyph unicode="&#36;" horiz-adv-x="489" d="M353 356q22 -20 39.5 -39.5q17.5 -19.5 30 -41q12.5 -21.5 19.5 -45.5q7 -24 7 -52q0 -74 -43.5 -123.5q-43.5 -49.5 -115.5 -62.5l0 -103h-91v103q-30 6 -58 18q-28 12 -50.5 28.5q-22.5 16.5 -38 35q-15.5 18.5 -22.5 36.5l29 96q33 -52 84.5 -84q51.5 -32 108.5 -32q51 0 75.5 23.5q24.5 23.5 24.5 61.5q0 28 -17 54q-17 26 -42 46q-63 53 -104 87q-41 34 -65 60q-33 35 -51.5 68.5q-18.5 33.5 -18.5 74.5q0 66 40 108.5q40 42.5 105 53.5l0 102h91v-106q44 -11 77.5 -36q33.5 -25 51.5 -56l-21 -94q-29 37 -72.5 64q-43.5 27 -90.5 27q-35 0 -59.5 -15.5q-24.5 -15.5 -24.5 -50.5q0 -26 19 -49.5q19 -23.5 38 -38.5q37 -30 61.5 -49q24.5 -19 40 -32q15.5 -13 25.5 -21t18 -16z" />
<glyph unicode="&#39;" horiz-adv-x="216" d="M55 718h106l-17 -240l-72 0z" />
<glyph unicode="&#40;" horiz-adv-x="363" d="M318 714q-76 -109 -106.5 -223q-30.5 -114 -30.5 -223q0 -106 30.5 -218.5q30.5 -112.5 106.5 -222.5l-83 -8q-80 96 -114.5 209.5q-34.5 113.5 -34.5 239.5q0 129 34.5 243.5q34.5 114.5 114.5 209.5z" />
<glyph unicode="&#41;" horiz-adv-x="363" d="M45 714q76 -109 106.5 -223q30.5 -114 30.5 -223q0 -106 -30.5 -218.5q-30.5 -112.5 -106.5 -222.5l83 -8q80 96 114.5 209.5q34.5 113.5 34.5 239.5q0 129 -34.5 243.5q-34.5 114.5 -114.5 209.5z" />
<glyph unicode="&#42;" horiz-adv-x="499" d="M90 352l90 126l-150 50l29 82l147 -47v155h85v-155l149 48l29 -83l-151 -50l91 -125l-67 -50l-93 127l-92 -126z" />
<glyph unicode="&#45;" horiz-adv-x="466" d="M391 318v-87h-316l0 87z" />
<glyph unicode="&#48;" horiz-adv-x="606" d="M303 730q56 0 101 -24.5q45 -24.5 76.5 -71.5q31.5 -47 48.5 -116q17 -69 17 -159q0 -90 -17 -159q-17 -69 -48.5 -116q-31.5 -47 -76.5 -71.5q-45 -24.5 -101 -24.5q-56 0 -101 24.5q-45 24.5 -76.5 71.5q-31.5 47 -48.5 116q-17 69 -17 159q0 90 17 159q17 69 48.5 116q31.5 47 76.5 71.5q45 24.5 101 24.5zt0 0zM303 90q65 0 106.5 69.5q41.5 69.5 41.5 199.5q0 130 -41.5 199.5q-41.5 69.5 -106.5 69.5q-65 0 -106.5 -69.5q-41.5 -69.5 -41.5 -199.5q0 -130 41.5 -199.5t106.5 -69.5z" />
<glyph unicode="&#49;" horiz-adv-x="411" d="M60 595l160 123h84v-718h-94v596l-150 -108z" />
<glyph unicode="&#50;" horiz-adv-x="524" d="M239 628q-29 0 -52.5 -8.5q-23.5 -8.5 -41.5 -22q-18 -13.5 -31.5 -30q-13.5 -16.5 -22.5 -33.5l-42 71q8 25 25.5 47.5q17.5 22.5 42.5 40q25 17.5 56.5 27.5q31.5 10 67.5 10q49 0 86.5 -16.5q37.5 -16.5 63.5 -44.5q26 -28 39.5 -65q13.5 -37 13.5 -79q0 -39 -9.5 -73q-9.5 -34 -27.5 -68q-18 -34 -44 -68.5q-26 -34.5 -59 -74.5l-119 -140h279v-101h-413v82l190 223q48 57 78 106.5q30 49.5 30 103.5q0 24 -7.5 44.5q-7.5 20.5 -22 35.5q-14.5 15 -35 24t-45.5 9z" />
<glyph unicode="&#51;" horiz-adv-x="531" d="M246 90q65 0 103 35q38 35 38 95q0 26 -10 49q-10 23 -29 40q-19 17 -46 27q-27 10 -60 10q-18 0 -35 -2.5q-17 -2.5 -31 -7.5l-17 81l159 200h-238v101h361v-78l-156 -195q34 -2 69 -17.5q35 -15.5 63.5 -44q28.5 -28.5 46 -69q17.5 -40.5 17.5 -91.5q0 -47 -17 -90q-17 -43 -48 -75q-31 -32 -74.5 -51q-43.5 -19 -97.5 -19q-36 0 -69.5 9.5q-33.5 9.5 -61.5 25.5q-28 16 -47.5 36q-19.5 20 -27.5 41l26 86q35 -51 80.5 -73.5t101.5 -22.5z" />
<glyph unicode="&#52;" horiz-adv-x="523" d="M316 718h91v-403h86v-101h-86v-214h-94v214h-288v88zM313 315v256l-179 -256z" />
<glyph unicode="&#53;" horiz-adv-x="551" d="M261 90q65 0 103 36.5q38 36.5 38 96.5q0 31 -11.5 55q-11.5 24 -30 40.5q-18.5 16.5 -43.5 25.5q-25 9 -52 9q-64 0 -111 -35l-76 16l34 384h334v-101h-262l-15 -189q25 14 50 20.5q25 6.5 58 6.5q47 0 87 -17.5q40 -17.5 69.5 -48q29.5 -30.5 46 -72q16.5 -41.5 16.5 -90.5q0 -48 -17 -91q-17 -43 -48 -76q-31 -33 -74.5 -52.5q-43.5 -19.5 -97.5 -19.5q-36 0 -69.5 9.5q-33.5 9.5 -61.5 25.5q-28 16 -47.5 36q-19.5 20 -27.5 41l28 88q32 -50 78 -74t102 -24z" />
<glyph unicode="&#54;" horiz-adv-x="568" d="M239 454q10 2 18.5 2.5q8.5 0.5 23.5 0.5q55 0 99 -19q44 -19 74.5 -50.5q30.5 -31.5 47 -74q16.5 -42.5 16.5 -88.5q0 -50 -19 -93q-19 -43 -51.5 -75q-32.5 -32 -75 -50.5q-42.5 -18.5 -89.5 -18.5q-50 0 -93 18q-43 18 -74 50q-31 32 -48.5 75q-17.5 43 -17.5 93q0 59 20.5 112.5q20.5 53.5 47.5 98.5l170 283h110zM284 90q29 0 54.5 10q25.5 10 44 27.5q18.5 17.5 29.5 41.5q11 24 11 52q0 28 -10 52.5q-10 24.5 -29 42.5q-19 18 -45 28.5q-26 10.5 -57 10.5q-29 0 -54 -9.5q-25 -9.5 -43.5 -27.5q-18.5 -18 -29 -42.5q-10.5 -24.5 -10.5 -54.5q0 -30 11 -54q11 -24 29.5 -41q18.5 -17 44 -26.5t54.5 -9.5z" />
<glyph unicode="&#55;" horiz-adv-x="511" d="M351 617h-301v101h411v-80l-268 -638l-100 0z" />
<glyph unicode="&#56;" horiz-adv-x="576" d="M421 376q48 -29 71.5 -77q23.5 -48 23.5 -100q0 -45 -17.5 -83.5q-17.5 -38.5 -48 -67q-30.5 -28.5 -72 -44.5q-41.5 -16 -90.5 -16q-49 0 -90.5 16q-41.5 16 -72 44.5q-30.5 28.5 -48 67q-17.5 38.5 -17.5 83.5q0 52 23.5 100q23.5 48 71.5 77q-32 19 -54 59.5q-22 40.5 -22 93.5q0 41 15.5 77.5q15.5 36.5 43 64q27.5 27.5 66 43.5q38.5 16 84.5 16q46 0 84.5 -16q38.5 -16 66 -43.5q27.5 -27.5 43 -64q15.5 -36.5 15.5 -77.5q0 -53 -22 -93.5q-22 -40.5 -54 -59.5zt0 0zM288 628q-27 0 -48.5 -9q-21.5 -9 -36 -24q-14.5 -15 -22 -33.5q-7.5 -18.5 -7.5 -37.5q0 -20 7.5 -38q7.5 -18 22 -32.5q14.5 -14.5 36 -23q21.5 -8.5 48.5 -8.5q27 0 48.5 8.5q21.5 8.5 36 23q14.5 14.5 22 32.5q7.5 18 7.5 38q0 19 -7.5 37.5q-7.5 18.5 -22 33.5q-14.5 15 -36 24q-21.5 9 -48.5 9zt0 0zM288 90q29 0 53.5 9q24.5 9 42 25q17.5 16 27.5 37.5q10 21.5 10 45.5q0 25 -10 46.5q-10 21.5 -27.5 37.5q-17.5 16 -42 25q-24.5 9 -53.5 9q-29 0 -53.5 -9q-24.5 -9 -42 -25q-17.5 -16 -27.5 -37.5q-10 -21.5 -10 -46.5q0 -24 10 -45.5q10 -21.5 27.5 -37.5q17.5 -16 42 -25t53.5 -9z" />
<glyph unicode="&#57;" horiz-adv-x="568" d="M329 264q-10 -2 -18.5 -2.5q-8.5 -0.5 -23.5 -0.5q-55 0 -99 19q-44 19 -74.5 50.5q-30.5 31.5 -47 74q-16.5 42.5 -16.5 88.5q0 50 19 93q19 43 51.5 75q32.5 32 75 50.5q42.5 18.5 89.5 18.5q50 0 93 -18q43 -18 74 -50q31 -32 48.5 -75q17.5 -43 17.5 -93q0 -59 -20.5 -112.5q-20.5 -53.5 -47.5 -98.5l-170 -283h-110zM284 628q-29 0 -54.5 -10q-25.5 -10 -44 -27.5q-18.5 -17.5 -29.5 -41.5q-11 -24 -11 -52q0 -28 10 -52.5q10 -24.5 29 -42.5q19 -18 45 -28.5q26 -10.5 57 -10.5q29 0 54 9.5q25 9.5 43.5 27.5q18.5 18 29 42.5q10.5 24.5 10.5 54.5q0 30 -11 54q-11 24 -29.5 41q-18.5 17 -44 26.5t-54.5 9.5z" />
<glyph unicode="&#58;" horiz-adv-x="299" d="M78 61q0 31 20.5 51.5q20.5 20.5 51.5 20.5q30 0 50.5 -20.5q20.5 -20.5 20.5 -51.5q0 -31 -20.5 -52q-20.5 -21 -50.5 -21q-31 0 -51.5 21q-20.5 21 -20.5 52zt0 0zM78 405q0 31 20.5 51.5q20.5 20.5 51.5 20.5q30 0 50.5 -20.5q20.5 -20.5 20.5 -51.5q0 -31 -20.5 -52q-20.5 -21 -50.5 -21q-31 0 -51.5 21t-20.5 52z" />
<glyph unicode="&#59;" horiz-adv-x="299" d="M126 -3q-17 5 -32.5 20.5q-15.5 15.5 -15.5 45.5q0 30 20.5 50q20.5 20 50.5 20q30 0 51 -20q21 -20 21 -52q0 -26 -9 -45q-9 -19 -20 -39l-65 -117h-64zM78 405q0 31 20.5 51.5q20.5 20.5 51.5 20.5q30 0 50.5 -20.5q20.5 -20.5 20.5 -51.5q0 -31 -20.5 -52q-20.5 -21 -50.5 -21q-31 0 -51.5 21t-20.5 52z" />
<glyph unicode="&#63;" horiz-adv-x="469" d="M161 58q0 28 19 47q19 19 47 19q28 0 47 -19q19 -19 19 -47q0 -28 -19 -47q-19 -19 -47 -19q-28 0 -47 19q-19 19 -19 47zt0 0zM65 635q9 19 25 36.5q16 17.5 38 30.5q22 13 47.5 20.5q25.5 7.5 52.5 7.5q40 0 71 -11q31 -11 52 -30.5q21 -19.5 32 -45.5q11 -26 11 -56q0 -29 -10 -52q-10 -23 -26.5 -42.5q-16.5 -19.5 -39 -35.5q-22.5 -16 -46.5 -31q-26 -16 -42 -28q-16 -12 -25 -21.5q-9 -9.5 -12 -18q-3 -8.5 -3 -16.5q0 -19 15 -31q15 -12 42 -12q54 0 105 54l15 -77q-13 -24 -46 -47q-33 -23 -85 -23q-31 0 -56.5 10q-25.5 10 -43.5 28q-18 18 -27.5 41.5q-9.5 23.5 -9.5 50.5q0 19 5.5 39q5.5 20 19.5 40q14 20 37 40.5q23 20.5 58 41.5q44 27 64 45q20 18 20 41q0 23 -19.5 36.5q-19.5 13.5 -54.5 13.5q-42 0 -78.5 -19q-36.5 -19 -63.5 -54z" />
<glyph unicode="&#65;" horiz-adv-x="678" d="M667 0h-100l-65 165h-324l-64 -165h-103l278 718h101zM217 266h246l-124 316z" />
<glyph unicode="&#66;" horiz-adv-x="578" d="M271 718q49 0 89.5 -13q40.5 -13 69.5 -37.5q29 -24.5 45 -61.5q16 -37 16 -85q0 -48 -17 -81.5q-17 -33.5 -46 -56.5q44 -21 72 -64q28 -43 28 -109q0 -51 -16.5 -90q-16.5 -39 -46 -65.5q-29.5 -26.5 -70 -40.5q-40.5 -14 -88.5 -14h-217v718zM184 316v-215h142q22 0 42 8q20 8 34 22q14 14 22.5 34q8.5 20 8.5 43q0 21 -8 40.5q-8 19.5 -22 34.5q-14 15 -34 24q-20 9 -44 9zM184 617v-200h110q45 0 74 26.5q29 26.5 29 72.5q0 44 -28 72.5q-28 28.5 -75 28.5z" />
<glyph unicode="&#67;" horiz-adv-x="700" d="M665 124q-17 -29 -43 -54q-26 -25 -61.5 -43q-35.5 -18 -78.5 -28.5q-43 -10.5 -92 -10.5q-71 0 -134.5 26.5q-63.5 26.5 -111.5 75.5q-48 49 -76 117q-28 68 -28 152q0 84 28 152.5q28 68.5 76 117q48 48.5 111.5 75q63.5 26.5 135.5 26.5q49 0 91.5 -11q42.5 -11 76.5 -29.5q34 -18.5 59.5 -43q25.5 -24.5 39.5 -50.5l-29 -84q-33 49 -94 82.5q-61 33.5 -139 33.5q-58 0 -106 -18.5q-48 -18.5 -82.5 -53q-34.5 -34.5 -53.5 -84.5q-19 -50 -19 -113q0 -63 19 -112.5q19 -49.5 53.5 -84.5q34.5 -35 82.5 -53.5q48 -18.5 106 -18.5q86 0 146.5 34.5q60.5 34.5 94.5 83.5z" />
<glyph unicode="&#68;" horiz-adv-x="737" d="M602 359q0 54 -19 101q-19 47 -52.5 82q-33.5 35 -80.5 55q-47 20 -103 20h-163v-516h163q54 0 100.5 18.5q46.5 18.5 81 52.5q34.5 34 54 81.5q19.5 47.5 19.5 105.5zt0 0zM312 718q84 0 154.5 -24q70.5 -24 121.5 -69.5q51 -45.5 80 -112.5q29 -67 29 -153q0 -85 -29 -151.5q-29 -66.5 -81 -112.5q-52 -46 -122.5 -70.5q-70.5 -24.5 -152.5 -24.5h-222l0 718z" />
<glyph unicode="&#69;" horiz-adv-x="533" d="M90 718h383v-101h-289v-197h259v-101h-259v-218h289v-101l-383 0z" />
<glyph unicode="&#70;" horiz-adv-x="488" d="M90 718h348v-101h-254v-197h234v-101h-234v-319l-94 0z" />
<glyph unicode="&#71;" horiz-adv-x="734" d="M390 730q48 0 90.5 -11.5q42.5 -11.5 77 -30.5q34.5 -19 60.5 -43.5q26 -24.5 40 -50.5l-29 -85q-17 24 -41 46q-24 22 -54 38q-30 16 -65.5 25.5q-35.5 9.5 -74.5 9.5q-58 0 -106 -19q-48 -19 -82 -54q-34 -35 -52.5 -84.5q-18.5 -49.5 -18.5 -110.5q0 -64 19.5 -114q19.5 -50 54.5 -84.5q35 -34.5 83.5 -53q48.5 -18.5 107.5 -18.5q54 0 99.5 17q45.5 17 80.5 49l0 112h-185v101h279v-242q-18 -30 -48 -55q-30 -25 -67 -44q-37 -19 -79.5 -29.5q-42.5 -10.5 -87.5 -10.5q-71 0 -135 26.5q-64 26.5 -112 75q-48 48.5 -76.5 116.5q-28.5 68 -28.5 152q0 84 28 152.5q28 68.5 76 117.5q48 49 111.5 75.5t134.5 26.5z" />
<glyph unicode="&#72;" horiz-adv-x="757" d="M90 718h94v-298h389v298h94v-718h-94v319h-389v-319l-94 0z" />
<glyph unicode="&#73;" horiz-adv-x="274" d="M90 718h94v-718l-94 0z" />
<glyph unicode="&#74;" horiz-adv-x="405" d="M320 179q0 -91 -40 -141q-40 -50 -125 -50q-26 0 -47.5 6.5q-21.5 6.5 -39 17q-17.5 10.5 -30 22.5q-12.5 12 -18.5 24l11 89q23 -26 50.5 -41.5q27.5 -15.5 60.5 -15.5q39 0 61.5 24q22.5 24 22.5 84v520l94 0z" />
<glyph unicode="&#75;" horiz-adv-x="640" d="M90 718h94v-314l290 314h124l-321 -349l355 -369h-132l-316 325v-325l-94 0z" />
<glyph unicode="&#76;" horiz-adv-x="478" d="M90 718h94v-617h274v-101l-368 0z" />
<glyph unicode="&#77;" horiz-adv-x="947" d="M690 718h101l96 -718h-93l-75 548l-198 -548h-92l-202 548l-70 -548h-97l95 718h101l216 -581z" />
<glyph unicode="&#78;" horiz-adv-x="759" d="M90 718h102l383 -564v564h94v-718h-102l-383 561v-561l-94 0z" />
<glyph unicode="&#79;" horiz-adv-x="796" d="M398 730q72 0 137 -28q65 -28 114 -78q49 -50 78 -118q29 -68 29 -147q0 -80 -29 -147.5q-29 -67.5 -78 -117.5q-49 -50 -113.5 -78q-64.5 -28 -135.5 -28q-73 0 -138.5 28.5q-65.5 28.5 -114.5 78q-49 49.5 -78 117q-29 67.5 -29 146.5q0 79 29 147.5q29 68.5 78 118q49 49.5 114 78q65 28.5 137 28.5zt0 0zM399 628q-56 0 -104 -20q-48 -20 -83.5 -56q-35.5 -36 -56 -85.5q-20.5 -49.5 -20.5 -108.5q0 -59 20.5 -108.5q20.5 -49.5 56 -85q35.5 -35.5 83.5 -55q48 -19.5 104 -19.5q55 0 103 19.5q48 19.5 83 55q35 35.5 55.5 85q20.5 49.5 20.5 109.5q0 59 -20.5 108.5q-20.5 49.5 -55.5 85q-35 35.5 -83 55.5t-103 20z" />
<glyph unicode="&#80;" horiz-adv-x="546" d="M290 718q48 0 89.5 -15.5q41.5 -15.5 71.5 -44.5q30 -29 47.5 -69.5q17.5 -40.5 17.5 -89.5q0 -48 -16.5 -88q-16.5 -40 -46.5 -68.5q-30 -28.5 -71.5 -44.5q-41.5 -16 -90.5 -16h-107v-282h-94v718zM184 617v-234h122q49 0 82 32.5q33 32.5 33 84.5q0 24 -8.5 45.5q-8.5 21.5 -24 37.5q-15.5 16 -36.5 25q-21 9 -46 9z" />
<glyph unicode="&#81;" horiz-adv-x="796" d="M398 730q72 0 137 -28q65 -28 114 -78q49 -50 78 -118q29 -68 29 -147q0 -72 -24 -134.5q-24 -62.5 -65 -111q-41 -48.5 -96 -80q-55 -31.5 -117 -41.5q9 -65 83 -65q28 0 50 12q22 12 39 30l7 -83q-17 -23 -46 -39q-29 -16 -71 -16q-75 0 -114 42q-39 42 -43 117q-66 7 -124 38q-58 31 -101.5 80q-43.5 49 -68.5 112.5q-25 63.5 -25 137.5q0 79 29 147.5q29 68.5 78 118q49 49.5 114 78q65 28.5 137 28.5zt0 0zM399 628q-56 0 -104 -20q-48 -20 -83.5 -56q-35.5 -36 -56 -85.5q-20.5 -49.5 -20.5 -108.5q0 -59 20.5 -108.5q20.5 -49.5 56 -85q35.5 -35.5 83.5 -55q48 -19.5 104 -19.5q55 0 103 19.5q48 19.5 83 55q35 35.5 55.5 85q20.5 49.5 20.5 109.5q0 59 -20.5 108.5q-20.5 49.5 -55.5 85q-35 35.5 -83 55.5t-103 20z" />
<glyph unicode="&#82;" horiz-adv-x="562" d="M90 718h199q40 0 79 -12q39 -12 70 -37q31 -25 49.5 -63q18.5 -38 18.5 -90q0 -79 -42 -129q-42 -50 -111 -67l174 -320h-111l-167 308h-65v-308h-94zM184 617v-208h124q44 0 73.5 28q29.5 28 29.5 74q0 45 -28.5 75.5q-28.5 30.5 -74.5 30.5z" />
<glyph unicode="&#83;" horiz-adv-x="489" d="M353 356q22 -20 39.5 -39.5q17.5 -19.5 30 -41q12.5 -21.5 19.5 -45.5q7 -24 7 -52q0 -42 -15 -77q-15 -35 -42 -60q-27 -25 -64.5 -39q-37.5 -14 -83.5 -14q-37 0 -72 11q-35 11 -64 29q-29 18 -49.5 39.5q-20.5 21.5 -28.5 42.5l29 96q33 -52 84.5 -84q51.5 -32 108.5 -32q51 0 75.5 23.5q24.5 23.5 24.5 61.5q0 28 -17 54q-17 26 -42 46q-63 53 -104 87q-41 34 -65 60q-33 35 -51.5 68.5q-18.5 33.5 -18.5 74.5q0 38 13.5 68.5q13.5 30.5 38 52q24.5 21.5 58.5 33q34 11.5 74 11.5q30 0 58 -8q28 -8 51.5 -21.5q23.5 -13.5 42 -31.5q18.5 -18 29.5 -38l-21 -94q-29 37 -72.5 64q-43.5 27 -90.5 27q-35 0 -59.5 -15.5q-24.5 -15.5 -24.5 -50.5q0 -26 19 -49.5q19 -23.5 38 -38.5q37 -30 61.5 -49q24.5 -19 40 -32q15.5 -13 25.5 -21t18 -16z" />
<glyph unicode="&#84;" horiz-adv-x="576" d="M15 718h546v-99h-226v-619h-94v619l-226 0z" />
<glyph unicode="&#85;" horiz-adv-x="735" d="M556 718h94v-431q0 -65 -20 -120q-20 -55 -56.5 -95q-36.5 -40 -89 -62q-52.5 -22 -117.5 -22q-63 0 -115 21.5q-52 21.5 -89 60.5q-37 39 -57.5 94q-20.5 55 -20.5 122v432h94v-433q0 -45 13.5 -81q13.5 -36 38.5 -61.5q25 -25.5 60 -39q35 -13.5 77 -13.5q43 0 78 14q35 14 59.5 40q24.5 26 37.5 62q13 36 13 80z" />
<glyph unicode="&#86;" horiz-adv-x="642" d="M11 718h103l207 -579l205 579h105l-258 -718l-104 0z" />
<glyph unicode="&#87;" horiz-adv-x="1020" d="M716 177l178 541h106l-238 -718h-94l-160 566l-156 -566h-94l-238 718h100l181 -541l154 541l102 0z" />
<glyph unicode="&#88;" horiz-adv-x="635" d="M140 0h-120l239 372l-224 346h115l166 -258l166 258h119l-224 -346l238 -372h-114l-181 281z" />
<glyph unicode="&#89;" horiz-adv-x="558" d="M8 718h106l163 -307l164 307h109l-223 -419v-299h-94l0 299z" />
<glyph unicode="&#90;" horiz-adv-x="503" d="M50 718h396v-79l-281 -538h283v-101h-398v77l276 540l-276 0z" />
<glyph unicode="&#91;" horiz-adv-x="375" d="M108 -178v896h192v-97h-101v-702h101l0 -97z" />
<glyph unicode="&#93;" horiz-adv-x="375" d="M267 -178v896h-192v-97h101v-702h-101l0 -97z" />
<glyph unicode="&#94;" horiz-adv-x="541" d="M45 341l174 344h104l173 -344h-98l-126 255l-128 -255z" />
<glyph unicode="&#95;" horiz-adv-x="499" d="M-2 -72h503v-89l-503 0z" />
<glyph unicode="&#96;" horiz-adv-x="347" d="M205 728l65 -148h-83l-110 148z" />
<glyph unicode="&#97;" horiz-adv-x="551" d="M383 177q-12 21 -48 31.5q-36 10.5 -77 10.5q-57 0 -88.5 -17.5q-31.5 -17.5 -31.5 -49.5q0 -30 30.5 -48.5q30.5 -18.5 89.5 -18.5q20 0 39.5 4q19.5 4 36.5 11q17 7 30 17q13 10 19 22zM74 424q28 39 77 63q49 24 109 24q100 0 157 -51.5q57 -51.5 57 -144.5v-315h-88v44q-9 -13 -25 -23q-16 -10 -35.5 -17.5q-19.5 -7.5 -40.5 -11.5q-21 -4 -42 -4q-89 0 -142.5 42.5q-53.5 42.5 -53.5 119.5q0 39 15.5 69q15.5 30 42.5 51q27 21 63 31.5q36 10.5 78 10.5q17 0 36.5 -2.5q19.5 -2.5 38 -7.5q18.5 -5 34.5 -12.5q16 -7.5 28 -18.5l0 24q0 31 -11 53.5q-11 22.5 -29 37q-18 14.5 -42.5 21.5q-24.5 7 -51.5 7q-48 0 -87 -19q-39 -19 -62 -50z" />
<glyph unicode="&#98;" horiz-adv-x="628" d="M580 250q0 -58 -20.5 -106.5q-20.5 -48.5 -56 -83q-35.5 -34.5 -82 -53.5q-46.5 -19 -98.5 -19q-57 0 -99 18.5q-42 18.5 -54 46.5l0 -53h-88v728h91v-283q12 28 53 47q41 19 98 19q51 0 97.5 -19q46.5 -19 81.5 -53.5q35 -34.5 56 -82.5q21 -48 21 -106zt0 0zM489 248q0 76 -46 121q-46 45 -122 45q-52 0 -93.5 -23.5q-41.5 -23.5 -54.5 -59.5l0 -163q13 -36 54.5 -59.5q41.5 -23.5 93.5 -23.5q76 0 122 44t46 119z" />
<glyph unicode="&#99;" horiz-adv-x="540" d="M492 75q-8 -17 -24.5 -32.5q-16.5 -15.5 -40.5 -27.5q-24 -12 -54.5 -19.5q-30.5 -7.5 -65.5 -7.5q-51 0 -98 19q-47 19 -82.5 53.5q-35.5 34.5 -57 82.5q-21.5 48 -21.5 107q0 58 21.5 106.5q21.5 48.5 57 82.5q35.5 34 82.5 53q47 19 98 19q34 0 63.5 -7q29.5 -7 53 -19q23.5 -12 40 -27q16.5 -15 24.5 -31l-24 -72q-21 24 -59 41.5q-38 17.5 -81 17.5q-84 0 -134.5 -44.5q-50.5 -44.5 -50.5 -119.5q0 -37 13.5 -67.5q13.5 -30.5 37.5 -52q24 -21.5 58 -33.5q34 -12 76 -12q46 0 84 18.5q38 18.5 59 42.5z" />
<glyph unicode="&#100;" horiz-adv-x="628" d="M48 250q0 58 21 106q21 48 56 82.5q35 34.5 81.5 53.5q46.5 19 97.5 19q57 0 98 -19q41 -19 53 -47l0 283h91v-728h-87v53q-12 -28 -54.5 -46.5q-42.5 -18.5 -99.5 -18.5q-52 0 -98.5 19q-46.5 19 -82 53.5q-35.5 34.5 -56 83q-20.5 48.5 -20.5 106.5zt0 0zM139 248q0 -75 46 -119q46 -44 122 -44q52 0 93.5 23.5q41.5 23.5 54.5 59.5l0 163q-13 36 -54.5 59.5q-41.5 23.5 -93.5 23.5q-76 0 -122 -45t-46 -121z" />
<glyph unicode="&#101;" horiz-adv-x="574" d="M312 85q24 0 47 6q23 6 43.5 15q20.5 9 36.5 21q16 12 27 24l24 -71q-8 -17 -24.5 -33q-16.5 -16 -40 -29.5q-23.5 -13.5 -53.5 -21.5q-30 -8 -65 -8q-56 0 -103.5 18.5q-47.5 18.5 -82 52q-34.5 33.5 -54 82q-19.5 48.5 -19.5 108.5q0 52 17 99.5q17 47.5 49 83.5q32 36 77 57.5q45 21.5 102 21.5q54 0 97 -21q43 -21 73.5 -56.5q30.5 -35.5 46.5 -83q16 -47.5 16 -100.5q0 -16 -3 -34l-382 0q7 -66 53 -98.5q46 -32.5 118 -32.5zt0 0zM429 308q-2 22 -13 41.5q-11 19.5 -29.5 34q-18.5 14.5 -42.5 22.5q-24 8 -51 8q-27 0 -52.5 -8q-25.5 -8 -45 -22q-19.5 -14 -32.5 -33.5q-13 -19.5 -16 -42.5z" />
<glyph unicode="&#102;" horiz-adv-x="429" d="M388 603q-14 17 -36 28.5q-22 11.5 -51 11.5q-35 0 -58.5 -21.5q-23.5 -21.5 -23.5 -64.5v-58h172v-97h-172v-402h-91v402h-92v97h92v70q0 37 9.5 68.5q9.5 31.5 29 54q19.5 22.5 49 35.5q29.5 13 68.5 13q39 0 72 -16q33 -16 47 -42z" />
<glyph unicode="&#103;" horiz-adv-x="628" d="M546 499v-507q0 -49 -17 -89q-17 -40 -47.5 -68.5q-30.5 -28.5 -74 -44q-43.5 -15.5 -96.5 -15.5q-69 0 -125.5 26.5q-56.5 26.5 -86.5 72.5l26 82q29 -39 75.5 -61.5q46.5 -22.5 97.5 -22.5q26 0 54 6q28 6 51 21.5q23 15.5 37.5 44q14.5 28.5 14.5 73.5v47q-13 -26 -52.5 -45q-39.5 -19 -96.5 -19q-52 0 -99 18.5q-47 18.5 -82 52.5q-35 34 -56 80.5q-21 46.5 -21 103.5q0 57 20.5 104q20.5 47 56 80.5q35.5 33.5 82 52.5q46.5 19 98.5 19q57 0 98.5 -19q41.5 -19 54.5 -44l0 51zM455 333q-13 35 -54.5 58q-41.5 23 -93.5 23q-38 0 -69 -11.5q-31 -11.5 -53 -32.5q-22 -21 -34 -50q-12 -29 -12 -65q0 -36 12 -65q12 -29 34 -49.5q22 -20.5 53 -32q31 -11.5 69 -11.5q52 0 93.5 22.5q41.5 22.5 54.5 57.5z" />
<glyph unicode="&#104;" horiz-adv-x="598" d="M306 511q40 0 79 -13.5q39 -13.5 70 -41q31 -27.5 50 -71q19 -43.5 19 -103.5v-282h-91v280q0 32 -10 57q-10 25 -27 42q-17 17 -40 26q-23 9 -50 9q-24 0 -46 -7q-22 -7 -40 -19.5q-18 -12.5 -30.5 -29.5q-12.5 -17 -16.5 -37l0 -321h-91v728h91v-284q11 28 45 47.5t88 19.5z" />
<glyph unicode="&#105;" horiz-adv-x="253" d="M81 499h91v-499h-91zM60 661q0 28 19.5 47.5q19.5 19.5 46.5 19.5q28 0 47.5 -19.5q19.5 -19.5 19.5 -47.5q0 -27 -19.5 -46.5q-19.5 -19.5 -47.5 -19.5q-27 0 -46.5 19.5t-19.5 46.5z" />
<glyph unicode="&#106;" horiz-adv-x="260" d="M88 499h91v-565q0 -159 -120 -159q-21 0 -46 8.5q-25 8.5 -43 27.5l7 81q11 -9 25 -14.5q14 -5.5 26 -5.5q35 0 47.5 21.5q12.5 21.5 12.5 61.5zM67 661q0 28 19.5 47.5q19.5 19.5 46.5 19.5q28 0 47.5 -19.5q19.5 -19.5 19.5 -47.5q0 -27 -19.5 -46.5q-19.5 -19.5 -47.5 -19.5q-27 0 -46.5 19.5t-19.5 46.5z" />
<glyph unicode="&#107;" horiz-adv-x="542" d="M82 728h91v-432l218 203h125l-252 -234l275 -265h-131l-235 226v-226l-91 0z" />
<glyph unicode="&#108;" horiz-adv-x="255" d="M82 728h91v-728l-91 0z" />
<glyph unicode="&#109;" horiz-adv-x="925" d="M307 511q48 0 90 -19.5q42 -19.5 73 -62.5q27 38 68.5 60q41.5 22 103.5 22q37 0 74.5 -13q37.5 -13 67.5 -40q30 -27 48.5 -68.5q18.5 -41.5 18.5 -99.5v-290h-91v286q0 31 -9.5 54.5q-9.5 23.5 -26 40q-16.5 16.5 -38.5 25q-22 8.5 -47 8.5q-23 0 -44 -7q-21 -7 -38.5 -19q-17.5 -12 -29 -29q-11.5 -17 -15.5 -37l0 -322h-91v286q0 31 -9.5 54.5q-9.5 23.5 -26 40q-16.5 16.5 -38.5 25q-22 8.5 -47 8.5q-23 0 -44 -7q-21 -7 -38.5 -19.5q-17.5 -12.5 -29 -29.5q-11.5 -17 -15.5 -37l0 -321h-91v499h88v-55q10 28 46.5 47.5t90.5 19.5z" />
<glyph unicode="&#110;" horiz-adv-x="598" d="M306 511q40 0 79 -13.5q39 -13.5 70 -41q31 -27.5 50 -71q19 -43.5 19 -103.5v-282h-91v280q0 32 -10 57q-10 25 -27 42q-17 17 -40 26q-23 9 -50 9q-24 0 -46 -7q-22 -7 -40 -19.5q-18 -12.5 -30.5 -29.5q-12.5 -17 -16.5 -37l0 -321h-91v499h88v-55q11 29 46 48t90 19z" />
<glyph unicode="&#111;" horiz-adv-x="600" d="M552 249q0 -56 -20.5 -104q-20.5 -48 -55 -83q-34.5 -35 -80 -54.5q-45.5 -19.5 -96.5 -19.5q-51 0 -97 19.5q-46 19.5 -80.5 54.5q-34.5 35 -54.5 83q-20 48 -20 104q0 56 20 104q20 48 54.5 83q34.5 35 80.5 55q46 20 97 20q51 0 96.5 -20q45.5 -20 80 -55q34.5 -35 55 -83q20.5 -48 20.5 -104zt0 0zM139 249q0 -37 12 -67.5q12 -30.5 34 -52q22 -21.5 51 -33q29 -11.5 64 -11.5q34 0 63.5 11.5q29.5 11.5 51.5 33q22 21.5 34 51.5q12 30 12 67q0 37 -12 67.5q-12 30.5 -34 52.5q-22 22 -51.5 34q-29.5 12 -63.5 12q-35 0 -64 -12q-29 -12 -51 -34q-22 -22 -34 -52.5t-12 -66.5z" />
<glyph unicode="&#112;" horiz-adv-x="628" d="M580 249q0 -58 -21 -106q-21 -48 -56 -82.5q-35 -34.5 -81.5 -53.5q-46.5 -19 -97.5 -19q-57 0 -98 19q-41 19 -53 47l0 -267h-91v712h88v-53q12 28 53.5 46.5q41.5 18.5 98.5 18.5q52 0 99 -19q47 -19 82 -53.5q35 -34.5 56 -83q21 -48.5 21 -106.5zt0 0zM489 251q0 75 -46 119q-46 44 -122 44q-52 0 -93.5 -23.5q-41.5 -23.5 -54.5 -59.5l0 -163q13 -36 54.5 -59.5q41.5 -23.5 93.5 -23.5q76 0 122 45t46 121z" />
<glyph unicode="&#113;" horiz-adv-x="628" d="M48 249q0 58 21 106.5q21 48.5 56 83q35 34.5 82 53.5q47 19 99 19q57 0 99 -18.5q42 -18.5 54 -46.5l0 53h87v-712h-91v267q-12 -28 -53 -47q-41 -19 -98 -19q-51 0 -97.5 19q-46.5 19 -81.5 53.5q-35 34.5 -56 82.5q-21 48 -21 106zt0 0zM139 251q0 -76 46 -121q46 -45 122 -45q52 0 93.5 23.5q41.5 23.5 54.5 59.5l0 163q-13 36 -54.5 59.5q-41.5 23.5 -93.5 23.5q-76 0 -122 -44t-46 -119z" />
<glyph unicode="&#114;" horiz-adv-x="394" d="M353 390q-12 11 -29 17.5q-17 6.5 -39 6.5q-25 0 -44 -8.5q-19 -8.5 -33 -22.5q-14 -14 -22.5 -31q-8.5 -17 -12.5 -35l0 -317h-91v499h88v-65q12 32 39.5 54.5q27.5 22.5 74.5 22.5q28 0 50.5 -11q22.5 -11 32.5 -29z" />
<glyph unicode="&#115;" horiz-adv-x="424" d="M161 236q-51 27 -78 61q-27 34 -27 78q0 60 39.5 98q39.5 38 113.5 38q25 0 48 -6.5q23 -6.5 41.5 -17q18.5 -10.5 32.5 -23.5q14 -13 21 -25l-15 -81q-27 26 -60 41q-33 15 -68 15q-25 0 -43.5 -8.5q-18.5 -8.5 -18.5 -31.5q0 -21 15.5 -32.5q15.5 -11.5 40.5 -25.5l56 -30q58 -31 87.5 -64q29.5 -33 29.5 -85q0 -32 -12.5 -59.5q-12.5 -27.5 -35 -47.5q-22.5 -20 -54.5 -31q-32 -11 -72 -11q-28 0 -53 7q-25 7 -46 19q-21 12 -36.5 28.5q-15.5 16.5 -24.5 35.5l22 75q28 -32 63 -50q35 -18 84 -18q14 0 27 2.5q13 2.5 23.5 8.5q10.5 6 17 16q6.5 10 6.5 24q0 21 -19.5 38q-19.5 17 -51.5 34z" />
<glyph unicode="&#116;" horiz-adv-x="440" d="M392 51q-14 -26 -45 -44.5q-31 -18.5 -76 -18.5q-150 0 -150 169v245h-90v28l153 195h28v-126h175v-97h-175v-229q0 -48 20 -68q20 -20 60 -20q28 0 47.5 11q19.5 11 33.5 27z" />
<glyph unicode="&#117;" horiz-adv-x="594" d="M289 -12q-40 0 -78.5 13.5q-38.5 13.5 -69 41q-30.5 27.5 -49.5 71q-19 43.5 -19 103.5v282h91v-280q0 -65 35.5 -99.5q35.5 -34.5 89.5 -34.5q24 0 46 7q22 7 39.5 19.5q17.5 12.5 30 29.5q12.5 17 16.5 37l0 321h91v-499h-88v55q-11 -29 -45.5 -48t-89.5 -19z" />
<glyph unicode="&#118;" horiz-adv-x="536" d="M220 0l-202 499h98l151 -381l151 381h99l-202 -499z" />
<glyph unicode="&#119;" horiz-adv-x="858" d="M593 126l143 373h103l-197 -499h-93l-120 377l-120 -377h-93l-197 499h97l143 -373l119 373l96 0z" />
<glyph unicode="&#120;" horiz-adv-x="519" d="M126 0h-112l188 265l-169 234h111l113 -158l114 158h113l-169 -235l190 -264h-110l-136 187z" />
<glyph unicode="&#121;" horiz-adv-x="547" d="M18 499h102l153 -367l152 367h101l-297 -712h-101l96 232z" />
<glyph unicode="&#122;" horiz-adv-x="459" d="M61 499h332v-79l-222 -323h234v-97h-351v79l219 323l-212 0z" />
<glyph unicode="&#123;" horiz-adv-x="395" d="M319 619q-22 0 -39.5 -4q-17.5 -4 -28.5 -14.5q-11 -10.5 -16 -27.5q-5 -17 -1 -41l22 -142q4 -22 0 -41q-4 -19 -12.5 -34q-8.5 -15 -21.5 -26.5q-13 -11.5 -27 -18.5q14 -7 27 -18.5q13 -11.5 21.5 -27q8.5 -15.5 12.5 -34.5q4 -19 0 -41l-22 -141q-4 -24 1 -41.5q5 -17.5 16 -28q11 -10.5 28.5 -15q17.5 -4.5 39.5 -3.5l0 -98q-44 -4 -79.5 6q-35.5 10 -58.5 32q-23 22 -33.5 55q-10.5 33 -4.5 74l20 142q3 22 -3 38.5q-6 16.5 -18 27.5q-12 11 -28 17.5q-16 6.5 -34 9.5l0 92q18 3 34 9.5q16 6.5 28 17.5q12 11 18 27q6 16 3 39l-20 141q-6 41 4.5 74q10.5 33 33.5 55q23 22 58.5 32q35.5 10 79.5 6l0 -98z" />
<glyph unicode="&#124;" horiz-adv-x="291" d="M191 -178h-91v896l91 0z" />
<glyph unicode="&#125;" horiz-adv-x="395" d="M76 619q22 0 39.5 -4q17.5 -4 28.5 -14.5q11 -10.5 16 -27.5q5 -17 1 -41l-22 -142q-4 -22 0 -41q4 -19 12.5 -34q8.5 -15 21.5 -26.5q13 -11.5 27 -18.5q-14 -7 -27 -18.5q-13 -11.5 -21.5 -27q-8.5 -15.5 -12.5 -34.5q-4 -19 0 -41l22 -141q4 -24 -1 -41.5q-5 -17.5 -16 -28q-11 -10.5 -28.5 -15q-17.5 -4.5 -39.5 -3.5l0 -98q44 -4 79.5 6q35.5 10 58.5 32q23 22 33.5 55q10.5 33 4.5 74l-20 142q-3 22 3 38.5q6 16.5 18 27.5q12 11 28 17.5q16 6.5 34 9.5l0 92q-18 3 -34 9.5q-16 6.5 -28 17.5q-12 11 -18 27q-6 16 -3 39l20 141q6 41 -4.5 74q-10.5 33 -33.5 55q-23 22 -58.5 32q-35.5 10 -79.5 6l0 -98z" />
<glyph unicode="&#160;" horiz-adv-x="270" />
<glyph unicode="&#161;" horiz-adv-x="362" d="M218 272l26 -485h-126l26 485zM115 441q0 28 19 47q19 19 47 19q28 0 47 -19q19 -19 19 -47q0 -28 -19 -47q-19 -19 -47 -19q-28 0 -47 19t-19 47z" />
<glyph unicode="&#162;" horiz-adv-x="540" d="M267 -117v108q-45 7 -85 28q-40 21 -69.5 54.5q-29.5 33.5 -47 78q-17.5 44.5 -17.5 97.5q0 52 17.5 96.5q17.5 44.5 47 78.5q29.5 34 69.5 55.5q40 21.5 85 28.5l0 119h80v-119q53 -8 90.5 -31.5q37.5 -23.5 50.5 -50.5l-24 -72q-18 20 -49.5 37.5q-31.5 17.5 -67.5 20.5l0 -326q42 2 72.5 20q30.5 18 48.5 41l24 -74q-15 -28 -54 -51q-39 -23 -91 -31l0 -108zM139 249q0 -61 34.5 -104q34.5 -43 93.5 -54l0 317q-60 -10 -94 -54t-34 -105z" />
<glyph unicode="&#163;" horiz-adv-x="543" d="M493 101v-101h-433v80q51 25 84.5 73q33.5 48 33.5 103q0 22 -4 39l-113 0v97h81q-13 33 -24 66q-11 33 -11 70q0 94 53.5 148q53.5 54 146.5 54q31 0 58.5 -9q27.5 -9 49.5 -24q22 -15 37.5 -35q15.5 -20 23.5 -42l-41 -70q-19 30 -49 54q-30 24 -79 24q-52 0 -79 -27.5q-27 -27.5 -27 -71.5q0 -33 11.5 -67.5q11.5 -34.5 25.5 -69.5l145 0v-97h-115q4 -17 4 -38q0 -50 -17 -89q-17 -39 -48 -67z" />
<glyph unicode="&#164;" horiz-adv-x="632" d="M510 626l62 -61l-78 -78q17 -26 26 -55q9 -29 9 -61q0 -32 -9 -61.5q-9 -29.5 -26 -55.5l78 -77l-62 -62l-79 78q-51 -34 -115 -34q-63 0 -116 34l-78 -78l-62 62l78 77q-17 26 -26 55.5q-9 29.5 -9 61.5q0 32 9 61q9 29 26 55l-78 78l62 61l78 -78q25 17 54.5 26q29.5 9 61.5 9q32 0 61 -9q29 -9 55 -26zM316 481q-24 0 -44.5 -8.5q-20.5 -8.5 -36.5 -23q-16 -14.5 -25 -34.5q-9 -20 -9 -44q0 -24 9 -44.5q9 -20.5 25 -35q16 -14.5 36.5 -23q20.5 -8.5 44.5 -8.5q24 0 44.5 8.5q20.5 8.5 36.5 23q16 14.5 25 35q9 20.5 9 44.5q0 24 -9 44q-9 20 -25 34.5q-16 14.5 -36.5 23t-44.5 8.5z" />
<glyph unicode="&#165;" horiz-adv-x="520" d="M181 376h-116v75h83l-118 267h103l125 -298l126 298h106l-117 -267h86v-75h-119l-32 -76h151v-76h-151v-224h-94v224h-149v76l150 0z" />
<glyph unicode="&#166;" horiz-adv-x="291" d="M191 -178h-91v334h91zM191 384h-91v334l91 0z" />
<glyph unicode="&#167;" horiz-adv-x="575" d="M416 98q23 -16 43 -45.5q20 -29.5 20 -74.5q0 -38 -14.5 -68q-14.5 -30 -40.5 -51q-26 -21 -61.5 -32.5q-35.5 -11.5 -77.5 -11.5q-32 0 -60.5 8q-28.5 8 -52.5 21.5q-24 13.5 -42.5 31q-18.5 17.5 -30.5 37.5l23 93q26 -37 73.5 -62q47.5 -25 98.5 -25q17 0 33 3q16 3 28.5 9.5q12.5 6.5 20 17.5q7.5 11 7.5 27q0 14 -9.5 27.5q-9.5 13.5 -25.5 27q-16 13.5 -36 26.5q-20 13 -41 26l-61 38q-26 16 -52 35q-26 19 -46.5 42q-20.5 23 -33.5 49.5q-13 26.5 -13 58.5q0 50 28 88q28 38 67 58q-22 16 -41 44.5q-19 28.5 -19 72.5q0 37 14 67q14 30 38.5 51q24.5 21 59 32q34.5 11 76.5 11q31 0 59 -7.5q28 -7.5 51.5 -20.5q23.5 -13 41.5 -30.5q18 -17.5 30 -36.5l-24 -89q-28 34 -72.5 58q-44.5 24 -92.5 24q-36 0 -61 -13q-25 -13 -25 -43q0 -14 9 -27q9 -13 23.5 -25.5q14.5 -12.5 33.5 -25.5q19 -13 39 -25l62 -38q26 -16 52.5 -35.5q26.5 -19.5 47.5 -42q21 -22.5 34.5 -48q13.5 -25.5 13.5 -55.5q0 -53 -26.5 -90q-26.5 -37 -67.5 -62zt0 0zM343 148q68 29 68 91q0 32 -25.5 56q-25.5 24 -65.5 50l-90 58q-31 -13 -48.5 -37q-17.5 -24 -17.5 -55q0 -32 24 -55q24 -23 65 -50z" />
<glyph unicode="&#168;" horiz-adv-x="512" d="M91 655q0 28 19.5 47.5q19.5 19.5 46.5 19.5q28 0 47.5 -19.5q19.5 -19.5 19.5 -47.5q0 -27 -19.5 -46.5q-19.5 -19.5 -47.5 -19.5q-27 0 -46.5 19.5q-19.5 19.5 -19.5 46.5zt0 0zM288 655q0 28 19.5 47.5q19.5 19.5 46.5 19.5q28 0 47.5 -19.5q19.5 -19.5 19.5 -47.5q0 -27 -19.5 -46.5q-19.5 -19.5 -47.5 -19.5q-27 0 -46.5 19.5t-19.5 46.5z" />
<glyph unicode="&#169;" horiz-adv-x="822" d="M411 730q77 0 144.5 -29q67.5 -29 118 -79.5q50.5 -50.5 79.5 -118q29 -67.5 29 -144.5q0 -77 -29 -144.5q-29 -67.5 -79.5 -118q-50.5 -50.5 -118 -79.5q-67.5 -29 -144.5 -29q-77 0 -145 29q-68 29 -118 79.5q-50 50.5 -79 118q-29 67.5 -29 144.5q0 77 29 144.5q29 67.5 79 118q50 50.5 118 79.5q68 29 145 29zt0 0zM411 46q66 0 124 25q58 25 101.5 67.5q43.5 42.5 68.5 99.5q25 57 25 121q0 64 -25 121q-25 57 -68.5 100q-43.5 43 -101.5 67.5q-58 24.5 -124 24.5q-65 0 -123 -24.5q-58 -24.5 -101.5 -67.5q-43.5 -43 -69 -100q-25.5 -57 -25.5 -121q0 -64 25.5 -121q25.5 -57 69 -99.5q43.5 -42.5 101.5 -67.5q58 -25 123 -25zt0 0zM587 221q-22 -34 -65.5 -54q-43.5 -20 -98.5 -20q-43 0 -82.5 15q-39.5 15 -69 43.5q-29.5 28.5 -47.5 67q-18 38.5 -18 86.5q0 48 18 87.5q18 39.5 48 68q30 28.5 69.5 43.5q39.5 15 82.5 15q28 0 53 -6q25 -6 46 -16q21 -10 36 -23.5q15 -13.5 24 -27.5l-22 -66q-18 24 -54 42.5q-36 18.5 -79 18.5q-67 0 -107.5 -36.5q-40.5 -36.5 -40.5 -98.5q0 -65 41.5 -100q41.5 -35 108.5 -35q45 0 81.5 18.5q36.5 18.5 52.5 44.5z" />
<glyph unicode="&#170;" horiz-adv-x="396" d="M259 418q-6 10 -25.5 16q-19.5 6 -45.5 6q-34 0 -52.5 -10q-18.5 -10 -18.5 -27q0 -38 71 -38q25 0 44.5 8.5q19.5 8.5 26.5 20.5zM56 577q18 28 55.5 43.5q37.5 15.5 75.5 15.5q66 0 108 -32.5q42 -32.5 42 -95.5v-208h-75v29q-12 -18 -39 -27.5q-27 -9.5 -55 -9.5q-56 0 -92.5 28q-36.5 28 -36.5 79q0 26 11 46q11 20 29.5 33.5q18.5 13.5 43 20.5q24.5 7 51.5 7q31 0 54 -7.5q23 -7.5 31 -16.5l0 8q0 19 -7.5 31.5q-7.5 12.5 -19.5 20q-12 7.5 -26 10.5q-14 3 -27 3q-32 0 -61 -12.5q-29 -12.5 -42 -33.5z" />
<glyph unicode="&#171;" horiz-adv-x="527" d="M472 88h-92l-133 178l133 178h92l-109 -178zM260 88h-92l-133 178l133 178h92l-109 -178z" />
<glyph unicode="&#172;" horiz-adv-x="559" d="M414 357h-354v93h439v-290l-85 0z" />
<glyph unicode="&#173;" horiz-adv-x="466" d="M391 318v-87h-316l0 87z" />
<glyph unicode="&#174;" horiz-adv-x="822" d="M411 730q77 0 144.5 -29q67.5 -29 118 -79.5q50.5 -50.5 79.5 -118q29 -67.5 29 -144.5q0 -77 -29 -144.5q-29 -67.5 -79.5 -118q-50.5 -50.5 -118 -79.5q-67.5 -29 -144.5 -29q-77 0 -145 29q-68 29 -118 79.5q-50 50.5 -79 118q-29 67.5 -29 144.5q0 77 29 144.5q29 67.5 79 118q50 50.5 118 79.5q68 29 145 29zt0 0zM411 46q66 0 124 25q58 25 101.5 67.5q43.5 42.5 68.5 99.5q25 57 25 121q0 64 -25 121q-25 57 -68.5 100q-43.5 43 -101.5 67.5q-58 24.5 -124 24.5q-65 0 -123 -24.5q-58 -24.5 -101.5 -67.5q-43.5 -43 -69 -100q-25.5 -57 -25.5 -121q0 -64 25.5 -121q25.5 -57 69 -99.5q43.5 -42.5 101.5 -67.5q58 -25 123 -25zt0 0zM294 566h125q24 0 47 -7q23 -7 41.5 -22q18.5 -15 29.5 -38q11 -23 11 -53q0 -41 -22 -70.5q-22 -29.5 -61 -41.5l101 -180h-82l-96 172h-23v-172h-71zM365 488v-90h62q22 0 36 12.5q14 12.5 14 32.5q0 19 -13.5 32q-13.5 13 -36.5 13z" />
<glyph unicode="&#175;" horiz-adv-x="451" d="M371 701v-86h-291l0 86z" />
<glyph unicode="&#176;" horiz-adv-x="418" d="M209 728q33 0 62 -12.5q29 -12.5 50.5 -34q21.5 -21.5 34 -50.5q12.5 -29 12.5 -62q0 -33 -12.5 -62q-12.5 -29 -34 -50.5q-21.5 -21.5 -50.5 -34q-29 -12.5 -62 -12.5q-33 0 -62 12.5q-29 12.5 -50.5 34q-21.5 21.5 -34 50.5q-12.5 29 -12.5 62q0 33 12.5 62q12.5 29 34 50.5q21.5 21.5 50.5 34q29 12.5 62 12.5zt0 0zM209 494q36 0 59 22q23 22 23 53q0 32 -23 53.5q-23 21.5 -59 21.5q-35 0 -58.5 -21.5q-23.5 -21.5 -23.5 -53.5q0 -31 23.5 -53t58.5 -22z" />
<glyph unicode="&#178;" horiz-adv-x="332" d="M152 620q-29 0 -49 -16.5q-20 -16.5 -33 -36.5l-33 53q4 13 14 28q10 15 25.5 27q15.5 12 35.5 20q20 8 45 8q31 0 54.5 -10q23.5 -10 39 -26.5q15.5 -16.5 23 -37.5q7.5 -21 7.5 -44q0 -43 -20.5 -75.5q-20.5 -32.5 -58.5 -72.5l-50 -55h140v-82h-257v65l116 122q28 29 40 48q12 19 12 39q0 20 -14 33t-37 13z" />
<glyph unicode="&#179;" horiz-adv-x="331" d="M151 374q31 0 49 14.5q18 14.5 18 38.5q0 21 -17.5 34.5q-17.5 13.5 -46.5 13.5q-16 0 -28 -3q-12 -3 -19 -8l-13 58l73 90h-116v83h222v-59l-77 -89q17 -3 34.5 -11q17.5 -8 32 -22.5q14.5 -14.5 24 -35.5q9.5 -21 9.5 -51q0 -28 -10.5 -52.5q-10.5 -24.5 -30 -43q-19.5 -18.5 -46.5 -29q-27 -10.5 -60 -10.5q-24 0 -44 6q-20 6 -35.5 15q-15.5 9 -26 20.5q-10.5 11.5 -14.5 22.5l17 72q34 -54 105 -54z" />
<glyph unicode="&#180;" horiz-adv-x="347" d="M270 728l-110 -148h-83l65 148z" />
<glyph unicode="&#181;" horiz-adv-x="603" d="M298 -12q-33 0 -65 9q-32 9 -60 27l0 -237h-91v712h91v-280q0 -65 35.5 -99.5q35.5 -34.5 89.5 -34.5q24 0 46 7q22 7 39.5 19.5q17.5 12.5 30 29.5q12.5 17 16.5 37l0 321h91v-499h-88v55q-11 -29 -45.5 -48t-89.5 -19z" />
<glyph unicode="&#182;" horiz-adv-x="684" d="M619 718v-95h-83v-788h-90v788h-84v-788h-91v498q-46 0 -85 14.5q-39 14.5 -67 40q-28 25.5 -43.5 60.5q-15.5 35 -15.5 77q0 42 14 77.5q14 35.5 39.5 61q25.5 25.5 61 40q35.5 14.5 77.5 14.5z" />
<glyph unicode="&#183;" horiz-adv-x="299" d="M78 261q0 31 20.5 51.5q20.5 20.5 51.5 20.5q30 0 50.5 -20.5q20.5 -20.5 20.5 -51.5q0 -31 -20.5 -52q-20.5 -21 -50.5 -21q-31 0 -51.5 21t-20.5 52z" />
<glyph unicode="&#184;" horiz-adv-x="384" d="M219 -124q0 13 -11 20.5q-11 7.5 -28 7.5q-9 0 -16.5 -1q-7.5 -1 -16.5 -4l-19 33l25 84h64l-20 -61q21 -1 40.5 -7q19.5 -6 34.5 -16.5q15 -10.5 23.5 -26q8.5 -15.5 8.5 -34.5q0 -44 -32 -67.5q-32 -23.5 -82 -23.5q-35 0 -65 13.5q-30 13.5 -46 32.5l12 55q23 -19 44.5 -26q21.5 -7 43.5 -7q19 0 29.5 8t10.5 20z" />
<glyph unicode="&#185;" horiz-adv-x="265" d="M41 619l98 76h59v-395h-76v290l-81 -52z" />
<glyph unicode="&#186;" horiz-adv-x="435" d="M217 636q36 0 68 -13q32 -13 56.5 -35.5q24.5 -22.5 38.5 -54.5q14 -32 14 -69q0 -38 -14 -69.5q-14 -31.5 -38.5 -54q-24.5 -22.5 -56.5 -35.5q-32 -13 -68 -13q-36 0 -68 13q-32 13 -56.5 35.5q-24.5 22.5 -38.5 54q-14 31.5 -14 69.5q0 37 14 69q14 32 38.5 54.5q24.5 22.5 56.5 35.5q32 13 68 13zt0 0zM316 464q0 41 -28.5 65q-28.5 24 -70.5 24q-42 0 -70.5 -24q-28.5 -24 -28.5 -65q0 -41 28.5 -65q28.5 -24 70.5 -24q42 0 70.5 24t28.5 65z" />
<glyph unicode="&#187;" horiz-adv-x="527" d="M267 88h92l133 178l-133 178h-92l109 -178zM55 88h92l133 178l-133 178h-92l109 -178z" />
<glyph unicode="&#188;" horiz-adv-x="712" d="M190 0h-85l428 718h85zM41 619l98 76h59v-395h-76v290l-81 -52zM573 395h69v-206h46v-80h-46v-109h-76v109h-157v65zM566 189v95l-70 -95z" />
<glyph unicode="&#189;" horiz-adv-x="767" d="M190 0h-85l428 718h85zM41 619l98 76h59v-395h-76v290l-81 -52zM587 320q-29 0 -49 -16.5q-20 -16.5 -33 -36.5l-33 53q4 13 14 28q10 15 25.5 27q15.5 12 35.5 20q20 8 45 8q31 0 54.5 -10q23.5 -10 39 -26.5q15.5 -16.5 23 -37.5q7.5 -21 7.5 -44q0 -43 -20.5 -75.5q-20.5 -32.5 -58.5 -72.5l-50 -55h140v-82h-257v65l116 122q28 29 40 48q12 19 12 39q0 20 -14 33t-37 13z" />
<glyph unicode="&#190;" horiz-adv-x="763" d="M241 0h-85l428 718h85zM624 395h69v-206h46v-80h-46v-109h-76v109h-157v65zM617 189v95l-70 -95zM151 374q31 0 49 14.5q18 14.5 18 38.5q0 21 -17.5 34.5q-17.5 13.5 -46.5 13.5q-16 0 -28 -3q-12 -3 -19 -8l-13 58l73 90h-116v83h222v-59l-77 -89q17 -3 34.5 -11q17.5 -8 32 -22.5q14.5 -14.5 24 -35.5q9.5 -21 9.5 -51q0 -28 -10.5 -52.5q-10.5 -24.5 -30 -43q-19.5 -18.5 -46.5 -29q-27 -10.5 -60 -10.5q-24 0 -44 6q-20 6 -35.5 15q-15.5 9 -26 20.5q-10.5 11.5 -14.5 22.5l17 72q34 -54 105 -54z" />
<glyph unicode="&#191;" horiz-adv-x="469" d="M308 441q0 -28 -19 -47q-19 -19 -47 -19q-28 0 -47 19q-19 19 -19 47q0 28 19 47q19 19 47 19q28 0 47 -19q19 -19 19 -47zt0 0zM404 -130q-9 -19 -25 -36.5q-16 -17.5 -38 -30.5q-22 -13 -47.5 -20.5q-25.5 -7.5 -52.5 -7.5q-40 0 -71 11q-31 11 -52 30.5q-21 19.5 -32 45.5q-11 26 -11 56q0 28 10 51.5q10 23.5 26.5 42.5q16.5 19 39 35q22.5 16 46.5 31q26 16 42 27.5q16 11.5 25 21q9 9.5 12 17.5q3 8 3 16q0 19 -15 31q-15 12 -42 12q-54 0 -105 -54l-15 77q13 24 46 47q33 23 85 23q31 0 56.5 -10q25.5 -10 43.5 -28q18 -18 27.5 -41.5q9.5 -23.5 9.5 -50.5q0 -20 -5.5 -39q-5.5 -19 -19.5 -38.5q-14 -19.5 -37 -40q-23 -20.5 -58 -41.5q-44 -27 -64 -44.5q-20 -17.5 -20 -40.5q0 -23 19.5 -36.5q19.5 -13.5 54.5 -13.5q42 0 78.5 19q36.5 19 63.5 54z" />
<glyph unicode="&#192;" horiz-adv-x="678" d="M667 0h-100l-65 165h-324l-64 -165h-103l278 718h101zM217 266h246l-124 316zM318 910l65 -138h-87l-110 138z" />
<glyph unicode="&#193;" horiz-adv-x="678" d="M667 0h-100l-65 165h-324l-64 -165h-103l278 718h101zM217 266h246l-124 316zM498 910l-110 -138h-87l65 138z" />
<glyph unicode="&#194;" horiz-adv-x="678" d="M667 0h-100l-65 165h-324l-64 -165h-103l278 718h101zM217 266h246l-124 316zM400 910l75 -138h-77l-59 63l-59 -63h-77l75 138z" />
<glyph unicode="&#195;" horiz-adv-x="678" d="M667 0h-100l-65 165h-324l-64 -165h-103l278 718h101zM217 266h246l-124 316zM186 778q-10 28 -10 48q0 40 25.5 63.5q25.5 23.5 63.5 23.5q25 0 47 -10.5q22 -10.5 43 -22.5q14 -8 26 -14q12 -6 23 -6q14 0 23 8.5q9 8.5 9 24.5q0 5 0 9.5q0 4.5 -2 10.5l59 0q10 -24 10 -49q0 -40 -24.5 -63q-24.5 -23 -62.5 -23q-22 0 -44.5 10q-22.5 10 -39.5 20q-20 11 -32 17q-12 6 -23 6q-15 0 -24.5 -8.5q-9.5 -8.5 -9.5 -25.5q0 -5 0.5 -9.5q0.5 -4.5 1.5 -9.5z" />
<glyph unicode="&#196;" horiz-adv-x="678" d="M667 0h-100l-65 165h-324l-64 -165h-103l278 718h101zM217 266h246l-124 316zM170 846q0 29 19.5 49q19.5 20 48.5 20q29 0 49 -20q20 -20 20 -49q0 -29 -20 -49q-20 -20 -49 -20q-29 0 -48.5 20q-19.5 20 -19.5 49zt0 0zM371 846q0 29 19.5 49q19.5 20 48.5 20q29 0 49 -20q20 -20 20 -49q0 -29 -20 -49q-20 -20 -49 -20q-29 0 -48.5 20t-19.5 49z" />
<glyph unicode="&#197;" horiz-adv-x="678" d="M667 0h-100l-65 165h-324l-64 -165h-103l278 718h101zM217 266h246l-124 316zM235 858q0 45 30 75q30 30 74 30q44 0 74 -30q30 -30 30 -75q0 -44 -30 -74q-30 -30 -74 -30q-44 0 -74 30q-30 30 -30 74zt0 0zM295 858q0 -18 12.5 -30q12.5 -12 31.5 -12q19 0 31.5 12q12.5 12 12.5 30q0 19 -12.5 30.5q-12.5 11.5 -31.5 11.5q-19 0 -31.5 -11.5t-12.5 -30.5z" />
<glyph unicode="&#198;" horiz-adv-x="914" d="M471 165h-272l-99 -165h-110l433 718h431v-101h-289v-197h259v-101h-259v-218h289v-101h-383zM471 266v350l-211 -350z" />
<glyph unicode="&#199;" horiz-adv-x="700" d="M411 -124q0 13 -11 20.5q-11 7.5 -28 7.5q-9 0 -16.5 -1q-7.5 -1 -16.5 -4l-19 33l18 60q-63 9 -117 39q-54 30 -94.5 77.5q-40.5 47.5 -63.5 111q-23 63.5 -23 139.5q0 84 28 152.5q28 68.5 76 117q48 48.5 111.5 75q63.5 26.5 135.5 26.5q49 0 91.5 -11q42.5 -11 76.5 -29.5q34 -18.5 59.5 -43q25.5 -24.5 39.5 -50.5l-29 -84q-33 49 -94 82.5q-61 33.5 -139 33.5q-58 0 -106 -18.5q-48 -18.5 -82.5 -53q-34.5 -34.5 -53.5 -84.5q-19 -50 -19 -113q0 -63 19 -112.5q19 -49.5 53.5 -84.5q34.5 -35 82.5 -53.5q48 -18.5 106 -18.5q86 0 146.5 34.5q60.5 34.5 94.5 83.5l28 -84q-16 -28 -41.5 -52.5q-25.5 -24.5 -59.5 -42.5q-34 -18 -75 -29q-41 -11 -89 -12l-11 -33q21 -1 40.5 -7q19.5 -6 34.5 -16.5q15 -10.5 23.5 -26q8.5 -15.5 8.5 -34.5q0 -44 -32 -67.5q-32 -23.5 -82 -23.5q-35 0 -65 13.5q-30 13.5 -46 32.5l12 55q23 -19 44.5 -26q21.5 -7 43.5 -7q19 0 29.5 8t10.5 20z" />
<glyph unicode="&#200;" horiz-adv-x="533" d="M90 718h383v-101h-289v-197h259v-101h-259v-218h289v-101h-383zM287 910l65 -138h-87l-110 138z" />
<glyph unicode="&#201;" horiz-adv-x="533" d="M90 718h383v-101h-289v-197h259v-101h-259v-218h289v-101h-383zM416 910l-110 -138h-87l65 138z" />
<glyph unicode="&#202;" horiz-adv-x="533" d="M90 718h383v-101h-289v-197h259v-101h-259v-218h289v-101h-383zM344 910l75 -138h-77l-59 63l-59 -63h-77l75 138z" />
<glyph unicode="&#203;" horiz-adv-x="533" d="M90 718h383v-101h-289v-197h259v-101h-259v-218h289v-101h-383zM116 846q0 29 19.5 49q19.5 20 48.5 20q29 0 49 -20q20 -20 20 -49q0 -29 -20 -49q-20 -20 -49 -20q-29 0 -48.5 20q-19.5 20 -19.5 49zt0 0zM317 846q0 29 19.5 49q19.5 20 48.5 20q29 0 49 -20q20 -20 20 -49q0 -29 -20 -49q-20 -20 -49 -20q-29 0 -48.5 20t-19.5 49z" />
<glyph unicode="&#204;" horiz-adv-x="274" d="M90 718h94v-718h-94zM115 910l65 -138h-87l-110 138z" />
<glyph unicode="&#205;" horiz-adv-x="274" d="M90 718h94v-718h-94zM293 910l-110 -138h-87l65 138z" />
<glyph unicode="&#206;" horiz-adv-x="274" d="M90 718h94v-718h-94zM198 910l75 -138h-77l-59 63l-59 -63h-77l75 138z" />
<glyph unicode="&#207;" horiz-adv-x="274" d="M90 718h94v-718h-94zM-32 846q0 29 19.5 49q19.5 20 48.5 20q29 0 49 -20q20 -20 20 -49q0 -29 -20 -49q-20 -20 -49 -20q-29 0 -48.5 20q-19.5 20 -19.5 49zt0 0zM169 846q0 29 19.5 49q19.5 20 48.5 20q29 0 49 -20q20 -20 20 -49q0 -29 -20 -49q-20 -20 -49 -20q-29 0 -48.5 20t-19.5 49z" />
<glyph unicode="&#208;" horiz-adv-x="746" d="M9 420h90v298h222q84 0 154.5 -24q70.5 -24 121.5 -69.5q51 -45.5 80 -112.5q29 -67 29 -153q0 -85 -29 -151.5q-29 -66.5 -81 -112.5q-52 -46 -122.5 -70.5q-70.5 -24.5 -152.5 -24.5h-222v319h-90zM611 359q0 54 -19 101q-19 47 -52.5 82q-33.5 35 -80.5 55q-47 20 -103 20h-163v-197h179v-101h-179v-218h163q54 0 100.5 18.5q46.5 18.5 81 52.5q34.5 34 54 81.5t19.5 105.5z" />
<glyph unicode="&#209;" horiz-adv-x="759" d="M90 718h102l383 -564v564h94v-718h-102l-383 561v-561h-94zM226 778q-10 28 -10 48q0 40 25.5 63.5q25.5 23.5 63.5 23.5q25 0 47 -10.5q22 -10.5 43 -22.5q14 -8 26 -14q12 -6 23 -6q14 0 23 8.5q9 8.5 9 24.5q0 5 0 9.5q0 4.5 -2 10.5l59 0q10 -24 10 -49q0 -40 -24.5 -63q-24.5 -23 -62.5 -23q-22 0 -44.5 10q-22.5 10 -39.5 20q-20 11 -32 17q-12 6 -23 6q-15 0 -24.5 -8.5q-9.5 -8.5 -9.5 -25.5q0 -5 0.5 -9.5q0.5 -4.5 1.5 -9.5z" />
<glyph unicode="&#210;" horiz-adv-x="796" d="M398 730q72 0 137 -28q65 -28 114 -78q49 -50 78 -118q29 -68 29 -147q0 -80 -29 -147.5q-29 -67.5 -78 -117.5q-49 -50 -113.5 -78q-64.5 -28 -135.5 -28q-73 0 -138.5 28.5q-65.5 28.5 -114.5 78q-49 49.5 -78 117q-29 67.5 -29 146.5q0 79 29 147.5q29 68.5 78 118q49 49.5 114 78q65 28.5 137 28.5zt0 0zM399 628q-56 0 -104 -20q-48 -20 -83.5 -56q-35.5 -36 -56 -85.5q-20.5 -49.5 -20.5 -108.5q0 -59 20.5 -108.5q20.5 -49.5 56 -85q35.5 -35.5 83.5 -55q48 -19.5 104 -19.5q55 0 103 19.5q48 19.5 83 55q35 35.5 55.5 85q20.5 49.5 20.5 109.5q0 59 -20.5 108.5q-20.5 49.5 -55.5 85q-35 35.5 -83 55.5q-48 20 -103 20zt0 0zM387 910l65 -138h-87l-110 138z" />
<glyph unicode="&#211;" horiz-adv-x="796" d="M398 730q72 0 137 -28q65 -28 114 -78q49 -50 78 -118q29 -68 29 -147q0 -80 -29 -147.5q-29 -67.5 -78 -117.5q-49 -50 -113.5 -78q-64.5 -28 -135.5 -28q-73 0 -138.5 28.5q-65.5 28.5 -114.5 78q-49 49.5 -78 117q-29 67.5 -29 146.5q0 79 29 147.5q29 68.5 78 118q49 49.5 114 78q65 28.5 137 28.5zt0 0zM399 628q-56 0 -104 -20q-48 -20 -83.5 -56q-35.5 -36 -56 -85.5q-20.5 -49.5 -20.5 -108.5q0 -59 20.5 -108.5q20.5 -49.5 56 -85q35.5 -35.5 83.5 -55q48 -19.5 104 -19.5q55 0 103 19.5q48 19.5 83 55q35 35.5 55.5 85q20.5 49.5 20.5 109.5q0 59 -20.5 108.5q-20.5 49.5 -55.5 85q-35 35.5 -83 55.5q-48 20 -103 20zt0 0zM541 910l-110 -138h-87l65 138z" />
<glyph unicode="&#212;" horiz-adv-x="796" d="M398 730q72 0 137 -28q65 -28 114 -78q49 -50 78 -118q29 -68 29 -147q0 -80 -29 -147.5q-29 -67.5 -78 -117.5q-49 -50 -113.5 -78q-64.5 -28 -135.5 -28q-73 0 -138.5 28.5q-65.5 28.5 -114.5 78q-49 49.5 -78 117q-29 67.5 -29 146.5q0 79 29 147.5q29 68.5 78 118q49 49.5 114 78q65 28.5 137 28.5zt0 0zM399 628q-56 0 -104 -20q-48 -20 -83.5 -56q-35.5 -36 -56 -85.5q-20.5 -49.5 -20.5 -108.5q0 -59 20.5 -108.5q20.5 -49.5 56 -85q35.5 -35.5 83.5 -55q48 -19.5 104 -19.5q55 0 103 19.5q48 19.5 83 55q35 35.5 55.5 85q20.5 49.5 20.5 109.5q0 59 -20.5 108.5q-20.5 49.5 -55.5 85q-35 35.5 -83 55.5q-48 20 -103 20zt0 0zM463 910l75 -138h-77l-59 63l-59 -63h-77l75 138z" />
<glyph unicode="&#213;" horiz-adv-x="796" d="M398 730q72 0 137 -28q65 -28 114 -78q49 -50 78 -118q29 -68 29 -147q0 -80 -29 -147.5q-29 -67.5 -78 -117.5q-49 -50 -113.5 -78q-64.5 -28 -135.5 -28q-73 0 -138.5 28.5q-65.5 28.5 -114.5 78q-49 49.5 -78 117q-29 67.5 -29 146.5q0 79 29 147.5q29 68.5 78 118q49 49.5 114 78q65 28.5 137 28.5zt0 0zM399 628q-56 0 -104 -20q-48 -20 -83.5 -56q-35.5 -36 -56 -85.5q-20.5 -49.5 -20.5 -108.5q0 -59 20.5 -108.5q20.5 -49.5 56 -85q35.5 -35.5 83.5 -55q48 -19.5 104 -19.5q55 0 103 19.5q48 19.5 83 55q35 35.5 55.5 85q20.5 49.5 20.5 109.5q0 59 -20.5 108.5q-20.5 49.5 -55.5 85q-35 35.5 -83 55.5q-48 20 -103 20zt0 0zM249 778q-10 28 -10 48q0 40 25.5 63.5q25.5 23.5 63.5 23.5q25 0 47 -10.5q22 -10.5 43 -22.5q14 -8 26 -14q12 -6 23 -6q14 0 23 8.5q9 8.5 9 24.5q0 5 0 9.5q0 4.5 -2 10.5l59 0q10 -24 10 -49q0 -40 -24.5 -63q-24.5 -23 -62.5 -23q-22 0 -44.5 10q-22.5 10 -39.5 20q-20 11 -32 17q-12 6 -23 6q-15 0 -24.5 -8.5q-9.5 -8.5 -9.5 -25.5q0 -5 0.5 -9.5q0.5 -4.5 1.5 -9.5z" />
<glyph unicode="&#214;" horiz-adv-x="796" d="M398 730q72 0 137 -28q65 -28 114 -78q49 -50 78 -118q29 -68 29 -147q0 -80 -29 -147.5q-29 -67.5 -78 -117.5q-49 -50 -113.5 -78q-64.5 -28 -135.5 -28q-73 0 -138.5 28.5q-65.5 28.5 -114.5 78q-49 49.5 -78 117q-29 67.5 -29 146.5q0 79 29 147.5q29 68.5 78 118q49 49.5 114 78q65 28.5 137 28.5zt0 0zM399 628q-56 0 -104 -20q-48 -20 -83.5 -56q-35.5 -36 -56 -85.5q-20.5 -49.5 -20.5 -108.5q0 -59 20.5 -108.5q20.5 -49.5 56 -85q35.5 -35.5 83.5 -55q48 -19.5 104 -19.5q55 0 103 19.5q48 19.5 83 55q35 35.5 55.5 85q20.5 49.5 20.5 109.5q0 59 -20.5 108.5q-20.5 49.5 -55.5 85q-35 35.5 -83 55.5q-48 20 -103 20zt0 0zM233 846q0 29 19.5 49q19.5 20 48.5 20q29 0 49 -20q20 -20 20 -49q0 -29 -20 -49q-20 -20 -49 -20q-29 0 -48.5 20q-19.5 20 -19.5 49zt0 0zM434 846q0 29 19.5 49q19.5 20 48.5 20q29 0 49 -20q20 -20 20 -49q0 -29 -20 -49q-20 -20 -49 -20q-29 0 -48.5 20t-19.5 49z" />
<glyph unicode="&#216;" horiz-adv-x="806" d="M403 730q55 0 105.5 -16.5q50.5 -16.5 94.5 -47.5l54 64h117l-104 -124q42 -48 66.5 -111q24.5 -63 24.5 -136q0 -80 -29 -147.5q-29 -67.5 -78 -117.5q-49 -50 -113.5 -78q-64.5 -28 -135.5 -28q-57 0 -108 16.5q-51 16.5 -95 46.5l-53 -63h-117l104 123q-43 49 -67 111.5q-24 62.5 -24 135.5q0 79 29 147.5q29 68.5 78 118q49 49.5 114 78q65 28.5 137 28.5zt0 0zM666 359q0 51 -15.5 95q-15.5 44 -43.5 78l-341 -406q30 -17 65 -26.5q35 -9.5 73 -9.5q55 0 103 19.5q48 19.5 83 55q35 35.5 55.5 85q20.5 49.5 20.5 109.5zt0 0zM404 628q-56 0 -104 -20q-48 -20 -83.5 -56q-35.5 -36 -56 -85.5q-20.5 -49.5 -20.5 -108.5q0 -51 15 -94.5q15 -43.5 43 -78.5l342 406q-62 37 -136 37z" />
<glyph unicode="&#217;" horiz-adv-x="735" d="M556 718h94v-431q0 -65 -20 -120q-20 -55 -56.5 -95q-36.5 -40 -89 -62q-52.5 -22 -117.5 -22q-63 0 -115 21.5q-52 21.5 -89 60.5q-37 39 -57.5 94q-20.5 55 -20.5 122v432h94v-433q0 -45 13.5 -81q13.5 -36 38.5 -61.5q25 -25.5 60 -39q35 -13.5 77 -13.5q43 0 78 14q35 14 59.5 40q24.5 26 37.5 62q13 36 13 80zM364 910l65 -138h-87l-110 138z" />
<glyph unicode="&#218;" horiz-adv-x="735" d="M556 718h94v-431q0 -65 -20 -120q-20 -55 -56.5 -95q-36.5 -40 -89 -62q-52.5 -22 -117.5 -22q-63 0 -115 21.5q-52 21.5 -89 60.5q-37 39 -57.5 94q-20.5 55 -20.5 122v432h94v-433q0 -45 13.5 -81q13.5 -36 38.5 -61.5q25 -25.5 60 -39q35 -13.5 77 -13.5q43 0 78 14q35 14 59.5 40q24.5 26 37.5 62q13 36 13 80zM502 910l-110 -138h-87l65 138z" />
<glyph unicode="&#219;" horiz-adv-x="735" d="M556 718h94v-431q0 -65 -20 -120q-20 -55 -56.5 -95q-36.5 -40 -89 -62q-52.5 -22 -117.5 -22q-63 0 -115 21.5q-52 21.5 -89 60.5q-37 39 -57.5 94q-20.5 55 -20.5 122v432h94v-433q0 -45 13.5 -81q13.5 -36 38.5 -61.5q25 -25.5 60 -39q35 -13.5 77 -13.5q43 0 78 14q35 14 59.5 40q24.5 26 37.5 62q13 36 13 80zM428 910l75 -138h-77l-59 63l-59 -63h-77l75 138z" />
<glyph unicode="&#220;" horiz-adv-x="735" d="M556 718h94v-431q0 -65 -20 -120q-20 -55 -56.5 -95q-36.5 -40 -89 -62q-52.5 -22 -117.5 -22q-63 0 -115 21.5q-52 21.5 -89 60.5q-37 39 -57.5 94q-20.5 55 -20.5 122v432h94v-433q0 -45 13.5 -81q13.5 -36 38.5 -61.5q25 -25.5 60 -39q35 -13.5 77 -13.5q43 0 78 14q35 14 59.5 40q24.5 26 37.5 62q13 36 13 80zM198 846q0 29 19.5 49q19.5 20 48.5 20q29 0 49 -20q20 -20 20 -49q0 -29 -20 -49q-20 -20 -49 -20q-29 0 -48.5 20q-19.5 20 -19.5 49zt0 0zM399 846q0 29 19.5 49q19.5 20 48.5 20q29 0 49 -20q20 -20 20 -49q0 -29 -20 -49q-20 -20 -49 -20q-29 0 -48.5 20t-19.5 49z" />
<glyph unicode="&#221;" horiz-adv-x="558" d="M8 718h106l163 -307l164 307h109l-223 -419v-299h-94v299zM426 910l-110 -138h-87l65 138z" />
<glyph unicode="&#222;" horiz-adv-x="546" d="M184 718v-141h106q48 0 89.5 -15.5q41.5 -15.5 71.5 -44.5q30 -29 47.5 -69.5q17.5 -40.5 17.5 -89.5q0 -48 -16.5 -88q-16.5 -40 -46.5 -68.5q-30 -28.5 -71.5 -44.5q-41.5 -16 -90.5 -16h-107v-141h-94v718zM184 476v-234h122q49 0 82 32.5q33 32.5 33 84.5q0 24 -8.5 45.5q-8.5 21.5 -24 37.5q-15.5 16 -36.5 25q-21 9 -46 9z" />
<glyph unicode="&#223;" horiz-adv-x="607" d="M435 413q56 -26 90 -78.5q34 -52.5 34 -118.5q0 -47 -16.5 -88q-16.5 -41 -46 -72q-29.5 -31 -70 -48.5q-40.5 -17.5 -88.5 -17.5q-41 0 -73.5 14q-32.5 14 -46.5 34l22 76q16 -14 40.5 -20.5q24.5 -6.5 50.5 -6.5q30 0 55 9.5q25 9.5 43.5 27q18.5 17.5 28.5 41q10 23.5 10 50.5q0 31 -12 55.5q-12 24.5 -33 41.5q-21 17 -49 26.5q-28 9.5 -59 9.5h-48v92h15q54 0 86 28q32 28 32 75q0 42 -30 71q-30 29 -80 29q-58 0 -87.5 -35.5q-29.5 -35.5 -29.5 -90.5v-517h-91v522q0 47 14.5 87q14.5 40 41 69q26.5 29 64 45.5q37.5 16.5 84.5 16.5q44 0 81.5 -15.5q37.5 -15.5 65 -42q27.5 -26.5 43 -62q15.5 -35.5 15.5 -75.5q0 -40 -14 -74.5t-42 -57.5z" />
<glyph unicode="&#224;" horiz-adv-x="551" d="M383 177q-12 21 -48 31.5q-36 10.5 -77 10.5q-57 0 -88.5 -17.5q-31.5 -17.5 -31.5 -49.5q0 -30 30.5 -48.5q30.5 -18.5 89.5 -18.5q20 0 39.5 4q19.5 4 36.5 11q17 7 30 17q13 10 19 22zM74 424q28 39 77 63q49 24 109 24q100 0 157 -51.5q57 -51.5 57 -144.5v-315h-88v44q-9 -13 -25 -23q-16 -10 -35.5 -17.5q-19.5 -7.5 -40.5 -11.5q-21 -4 -42 -4q-89 0 -142.5 42.5q-53.5 42.5 -53.5 119.5q0 39 15.5 69q15.5 30 42.5 51q27 21 63 31.5q36 10.5 78 10.5q17 0 36.5 -2.5q19.5 -2.5 38 -7.5q18.5 -5 34.5 -12.5q16 -7.5 28 -18.5l0 24q0 31 -11 53.5q-11 22.5 -29 37q-18 14.5 -42.5 21.5q-24.5 7 -51.5 7q-48 0 -87 -19q-39 -19 -62 -50zM273 728l65 -148h-83l-110 148z" />
<glyph unicode="&#225;" horiz-adv-x="551" d="M383 177q-12 21 -48 31.5q-36 10.5 -77 10.5q-57 0 -88.5 -17.5q-31.5 -17.5 -31.5 -49.5q0 -30 30.5 -48.5q30.5 -18.5 89.5 -18.5q20 0 39.5 4q19.5 4 36.5 11q17 7 30 17q13 10 19 22zM74 424q28 39 77 63q49 24 109 24q100 0 157 -51.5q57 -51.5 57 -144.5v-315h-88v44q-9 -13 -25 -23q-16 -10 -35.5 -17.5q-19.5 -7.5 -40.5 -11.5q-21 -4 -42 -4q-89 0 -142.5 42.5q-53.5 42.5 -53.5 119.5q0 39 15.5 69q15.5 30 42.5 51q27 21 63 31.5q36 10.5 78 10.5q17 0 36.5 -2.5q19.5 -2.5 38 -7.5q18.5 -5 34.5 -12.5q16 -7.5 28 -18.5l0 24q0 31 -11 53.5q-11 22.5 -29 37q-18 14.5 -42.5 21.5q-24.5 7 -51.5 7q-48 0 -87 -19q-39 -19 -62 -50zM407 728l-110 -148h-83l65 148z" />
<glyph unicode="&#226;" horiz-adv-x="551" d="M383 177q-12 21 -48 31.5q-36 10.5 -77 10.5q-57 0 -88.5 -17.5q-31.5 -17.5 -31.5 -49.5q0 -30 30.5 -48.5q30.5 -18.5 89.5 -18.5q20 0 39.5 4q19.5 4 36.5 11q17 7 30 17q13 10 19 22zM74 424q28 39 77 63q49 24 109 24q100 0 157 -51.5q57 -51.5 57 -144.5v-315h-88v44q-9 -13 -25 -23q-16 -10 -35.5 -17.5q-19.5 -7.5 -40.5 -11.5q-21 -4 -42 -4q-89 0 -142.5 42.5q-53.5 42.5 -53.5 119.5q0 39 15.5 69q15.5 30 42.5 51q27 21 63 31.5q36 10.5 78 10.5q17 0 36.5 -2.5q19.5 -2.5 38 -7.5q18.5 -5 34.5 -12.5q16 -7.5 28 -18.5l0 24q0 31 -11 53.5q-11 22.5 -29 37q-18 14.5 -42.5 21.5q-24.5 7 -51.5 7q-48 0 -87 -19q-39 -19 -62 -50zM336 728l75 -148h-80l-59 73l-59 -73h-80l75 148z" />
<glyph unicode="&#227;" horiz-adv-x="551" d="M383 177q-12 21 -48 31.5q-36 10.5 -77 10.5q-57 0 -88.5 -17.5q-31.5 -17.5 -31.5 -49.5q0 -30 30.5 -48.5q30.5 -18.5 89.5 -18.5q20 0 39.5 4q19.5 4 36.5 11q17 7 30 17q13 10 19 22zM74 424q28 39 77 63q49 24 109 24q100 0 157 -51.5q57 -51.5 57 -144.5v-315h-88v44q-9 -13 -25 -23q-16 -10 -35.5 -17.5q-19.5 -7.5 -40.5 -11.5q-21 -4 -42 -4q-89 0 -142.5 42.5q-53.5 42.5 -53.5 119.5q0 39 15.5 69q15.5 30 42.5 51q27 21 63 31.5q36 10.5 78 10.5q17 0 36.5 -2.5q19.5 -2.5 38 -7.5q18.5 -5 34.5 -12.5q16 -7.5 28 -18.5l0 24q0 31 -11 53.5q-11 22.5 -29 37q-18 14.5 -42.5 21.5q-24.5 7 -51.5 7q-48 0 -87 -19q-39 -19 -62 -50zM119 586q-10 28 -10 48q0 40 25.5 63.5q25.5 23.5 63.5 23.5q25 0 47 -10.5q22 -10.5 43 -22.5q14 -8 26 -14q12 -6 23 -6q14 0 23 8.5q9 8.5 9 24.5q0 5 0 9.5q0 4.5 -2 10.5l59 0q10 -24 10 -49q0 -40 -24.5 -63q-24.5 -23 -62.5 -23q-22 0 -44.5 10q-22.5 10 -39.5 20q-20 11 -32 17q-12 6 -23 6q-15 0 -24.5 -8.5q-9.5 -8.5 -9.5 -25.5q0 -5 0.5 -9.5q0.5 -4.5 1.5 -9.5z" />
<glyph unicode="&#228;" horiz-adv-x="551" d="M383 177q-12 21 -48 31.5q-36 10.5 -77 10.5q-57 0 -88.5 -17.5q-31.5 -17.5 -31.5 -49.5q0 -30 30.5 -48.5q30.5 -18.5 89.5 -18.5q20 0 39.5 4q19.5 4 36.5 11q17 7 30 17q13 10 19 22zM74 424q28 39 77 63q49 24 109 24q100 0 157 -51.5q57 -51.5 57 -144.5v-315h-88v44q-9 -13 -25 -23q-16 -10 -35.5 -17.5q-19.5 -7.5 -40.5 -11.5q-21 -4 -42 -4q-89 0 -142.5 42.5q-53.5 42.5 -53.5 119.5q0 39 15.5 69q15.5 30 42.5 51q27 21 63 31.5q36 10.5 78 10.5q17 0 36.5 -2.5q19.5 -2.5 38 -7.5q18.5 -5 34.5 -12.5q16 -7.5 28 -18.5l0 24q0 31 -11 53.5q-11 22.5 -29 37q-18 14.5 -42.5 21.5q-24.5 7 -51.5 7q-48 0 -87 -19q-39 -19 -62 -50zM107 655q0 28 19.5 47.5q19.5 19.5 46.5 19.5q28 0 47.5 -19.5q19.5 -19.5 19.5 -47.5q0 -27 -19.5 -46.5q-19.5 -19.5 -47.5 -19.5q-27 0 -46.5 19.5q-19.5 19.5 -19.5 46.5zt0 0zM304 655q0 28 19.5 47.5q19.5 19.5 46.5 19.5q28 0 47.5 -19.5q19.5 -19.5 19.5 -47.5q0 -27 -19.5 -46.5q-19.5 -19.5 -47.5 -19.5q-27 0 -46.5 19.5t-19.5 46.5z" />
<glyph unicode="&#229;" horiz-adv-x="551" d="M383 177q-12 21 -48 31.5q-36 10.5 -77 10.5q-57 0 -88.5 -17.5q-31.5 -17.5 -31.5 -49.5q0 -30 30.5 -48.5q30.5 -18.5 89.5 -18.5q20 0 39.5 4q19.5 4 36.5 11q17 7 30 17q13 10 19 22zM74 424q28 39 77 63q49 24 109 24q100 0 157 -51.5q57 -51.5 57 -144.5v-315h-88v44q-9 -13 -25 -23q-16 -10 -35.5 -17.5q-19.5 -7.5 -40.5 -11.5q-21 -4 -42 -4q-89 0 -142.5 42.5q-53.5 42.5 -53.5 119.5q0 39 15.5 69q15.5 30 42.5 51q27 21 63 31.5q36 10.5 78 10.5q17 0 36.5 -2.5q19.5 -2.5 38 -7.5q18.5 -5 34.5 -12.5q16 -7.5 28 -18.5l0 24q0 31 -11 53.5q-11 22.5 -29 37q-18 14.5 -42.5 21.5q-24.5 7 -51.5 7q-48 0 -87 -19q-39 -19 -62 -50zM168 666q0 45 30 75q30 30 74 30q44 0 74 -30q30 -30 30 -75q0 -44 -30 -74q-30 -30 -74 -30q-44 0 -74 30q-30 30 -30 74zt0 0zM229 666q0 -18 12.5 -29.5q12.5 -11.5 30.5 -11.5q18 0 30.5 11.5q12.5 11.5 12.5 29.5q0 18 -12.5 29.5q-12.5 11.5 -30.5 11.5q-18 0 -30.5 -11.5t-12.5 -29.5z" />
<glyph unicode="&#230;" horiz-adv-x="906" d="M249 414q-48 0 -87 -19q-39 -19 -62 -50l-26 79q28 39 77 63q49 24 109 24q63 0 109.5 -21.5q46.5 -21.5 73.5 -61.5q32 38 77.5 60.5q45.5 22.5 104.5 22.5q54 0 97 -21q43 -21 73.5 -56.5q30.5 -35.5 46.5 -83q16 -47.5 16 -100.5q0 -16 -3 -34l-382 0q7 -66 53 -98.5q46 -32.5 118 -32.5q24 0 47 6q23 6 43.5 15q20.5 9 36.5 21q16 12 27 24l24 -71q-8 -17 -24.5 -33q-16.5 -16 -40 -29.5q-23.5 -13.5 -53.5 -21.5q-30 -8 -65 -8q-65 0 -117.5 23.5q-52.5 23.5 -87.5 68.5q-29 -43 -79 -67.5q-50 -24.5 -110 -24.5q-91 0 -144.5 42q-53.5 42 -53.5 120q0 39 15.5 69q15.5 30 42.5 51q27 21 63 31.5q36 10.5 78 10.5q17 0 36 -2.5q19 -2.5 37.5 -7.5q18.5 -5 35 -12.5q16.5 -7.5 28.5 -18.5l0 25q0 34 -12.5 56.5q-12.5 22.5 -32 36q-19.5 13.5 -43 19.5q-23.5 6 -46.5 6zt0 0zM383 177q-12 21 -48 31.5q-36 10.5 -77 10.5q-57 0 -88.5 -17.5q-31.5 -17.5 -31.5 -49.5q0 -30 30.5 -48.5q30.5 -18.5 89.5 -18.5q20 0 39.5 4q19.5 4 36.5 11q17 7 30 17q13 10 19 22zM761 308q-2 22 -13 41.5q-11 19.5 -29.5 34q-18.5 14.5 -42.5 22.5q-24 8 -51 8q-27 0 -52.5 -8q-25.5 -8 -45 -22q-19.5 -14 -32.5 -33.5q-13 -19.5 -16 -42.5z" />
<glyph unicode="&#231;" horiz-adv-x="540" d="M325 -124q0 13 -11 20.5q-11 7.5 -28 7.5q-9 0 -16.5 -1q-7.5 -1 -16.5 -4l-19 33l18 62q-42 9 -79 31q-37 22 -65 55q-28 33 -44 76q-16 43 -16 94q0 58 21.5 106.5q21.5 48.5 57 82.5q35.5 34 82.5 53q47 19 98 19q34 0 63.5 -7q29.5 -7 53 -19q23.5 -12 40 -27q16.5 -15 24.5 -31l-24 -72q-21 24 -59 41.5q-38 17.5 -81 17.5q-84 0 -134.5 -44.5q-50.5 -44.5 -50.5 -119.5q0 -37 13.5 -67.5q13.5 -30.5 37.5 -52q24 -21.5 58 -33.5q34 -12 76 -12q46 0 84 18.5q38 18.5 59 42.5l25 -71q-8 -16 -24 -31.5q-16 -15.5 -39 -27.5q-23 -12 -52 -19.5q-29 -7.5 -63 -8.5l-11 -33q21 -1 40.5 -7q19.5 -6 34.5 -16.5q15 -10.5 23.5 -26q8.5 -15.5 8.5 -34.5q0 -44 -32 -67.5q-32 -23.5 -82 -23.5q-35 0 -65 13.5q-30 13.5 -46 32.5l12 55q23 -19 44.5 -26q21.5 -7 43.5 -7q19 0 29.5 8t10.5 20z" />
<glyph unicode="&#232;" horiz-adv-x="574" d="M312 85q24 0 47 6q23 6 43.5 15q20.5 9 36.5 21q16 12 27 24l24 -71q-8 -17 -24.5 -33q-16.5 -16 -40 -29.5q-23.5 -13.5 -53.5 -21.5q-30 -8 -65 -8q-56 0 -103.5 18.5q-47.5 18.5 -82 52q-34.5 33.5 -54 82q-19.5 48.5 -19.5 108.5q0 52 17 99.5q17 47.5 49 83.5q32 36 77 57.5q45 21.5 102 21.5q54 0 97 -21q43 -21 73.5 -56.5q30.5 -35.5 46.5 -83q16 -47.5 16 -100.5q0 -16 -3 -34l-382 0q7 -66 53 -98.5q46 -32.5 118 -32.5zt0 0zM429 308q-2 22 -13 41.5q-11 19.5 -29.5 34q-18.5 14.5 -42.5 22.5q-24 8 -51 8q-27 0 -52.5 -8q-25.5 -8 -45 -22q-19.5 -14 -32.5 -33.5q-13 -19.5 -16 -42.5zM271 728l65 -148h-83l-110 148z" />
<glyph unicode="&#233;" horiz-adv-x="574" d="M312 85q24 0 47 6q23 6 43.5 15q20.5 9 36.5 21q16 12 27 24l24 -71q-8 -17 -24.5 -33q-16.5 -16 -40 -29.5q-23.5 -13.5 -53.5 -21.5q-30 -8 -65 -8q-56 0 -103.5 18.5q-47.5 18.5 -82 52q-34.5 33.5 -54 82q-19.5 48.5 -19.5 108.5q0 52 17 99.5q17 47.5 49 83.5q32 36 77 57.5q45 21.5 102 21.5q54 0 97 -21q43 -21 73.5 -56.5q30.5 -35.5 46.5 -83q16 -47.5 16 -100.5q0 -16 -3 -34l-382 0q7 -66 53 -98.5q46 -32.5 118 -32.5zt0 0zM429 308q-2 22 -13 41.5q-11 19.5 -29.5 34q-18.5 14.5 -42.5 22.5q-24 8 -51 8q-27 0 -52.5 -8q-25.5 -8 -45 -22q-19.5 -14 -32.5 -33.5q-13 -19.5 -16 -42.5zM433 728l-110 -148h-83l65 148z" />
<glyph unicode="&#234;" horiz-adv-x="574" d="M312 85q24 0 47 6q23 6 43.5 15q20.5 9 36.5 21q16 12 27 24l24 -71q-8 -17 -24.5 -33q-16.5 -16 -40 -29.5q-23.5 -13.5 -53.5 -21.5q-30 -8 -65 -8q-56 0 -103.5 18.5q-47.5 18.5 -82 52q-34.5 33.5 -54 82q-19.5 48.5 -19.5 108.5q0 52 17 99.5q17 47.5 49 83.5q32 36 77 57.5q45 21.5 102 21.5q54 0 97 -21q43 -21 73.5 -56.5q30.5 -35.5 46.5 -83q16 -47.5 16 -100.5q0 -16 -3 -34l-382 0q7 -66 53 -98.5q46 -32.5 118 -32.5zt0 0zM429 308q-2 22 -13 41.5q-11 19.5 -29.5 34q-18.5 14.5 -42.5 22.5q-24 8 -51 8q-27 0 -52.5 -8q-25.5 -8 -45 -22q-19.5 -14 -32.5 -33.5q-13 -19.5 -16 -42.5zM352 728l75 -148h-80l-59 73l-59 -73h-80l75 148z" />
<glyph unicode="&#235;" horiz-adv-x="574" d="M312 85q24 0 47 6q23 6 43.5 15q20.5 9 36.5 21q16 12 27 24l24 -71q-8 -17 -24.5 -33q-16.5 -16 -40 -29.5q-23.5 -13.5 -53.5 -21.5q-30 -8 -65 -8q-56 0 -103.5 18.5q-47.5 18.5 -82 52q-34.5 33.5 -54 82q-19.5 48.5 -19.5 108.5q0 52 17 99.5q17 47.5 49 83.5q32 36 77 57.5q45 21.5 102 21.5q54 0 97 -21q43 -21 73.5 -56.5q30.5 -35.5 46.5 -83q16 -47.5 16 -100.5q0 -16 -3 -34l-382 0q7 -66 53 -98.5q46 -32.5 118 -32.5zt0 0zM429 308q-2 22 -13 41.5q-11 19.5 -29.5 34q-18.5 14.5 -42.5 22.5q-24 8 -51 8q-27 0 -52.5 -8q-25.5 -8 -45 -22q-19.5 -14 -32.5 -33.5q-13 -19.5 -16 -42.5zM129 655q0 28 19.5 47.5q19.5 19.5 46.5 19.5q28 0 47.5 -19.5q19.5 -19.5 19.5 -47.5q0 -27 -19.5 -46.5q-19.5 -19.5 -47.5 -19.5q-27 0 -46.5 19.5q-19.5 19.5 -19.5 46.5zt0 0zM326 655q0 28 19.5 47.5q19.5 19.5 46.5 19.5q28 0 47.5 -19.5q19.5 -19.5 19.5 -47.5q0 -27 -19.5 -46.5q-19.5 -19.5 -47.5 -19.5q-27 0 -46.5 19.5t-19.5 46.5z" />
<glyph unicode="&#236;" horiz-adv-x="254" d="M82 499h91v-499h-91zM103 728l65 -148h-83l-110 148z" />
<glyph unicode="&#237;" horiz-adv-x="254" d="M82 499h91v-499h-91zM282 728l-110 -148h-83l65 148z" />
<glyph unicode="&#238;" horiz-adv-x="254" d="M82 499h91v-499h-91zM191 728l75 -148h-80l-59 73l-59 -73h-80l75 148z" />
<glyph unicode="&#239;" horiz-adv-x="254" d="M82 499h91v-499h-91zM-38 655q0 28 19.5 47.5q19.5 19.5 46.5 19.5q28 0 47.5 -19.5q19.5 -19.5 19.5 -47.5q0 -27 -19.5 -46.5q-19.5 -19.5 -47.5 -19.5q-27 0 -46.5 19.5q-19.5 19.5 -19.5 46.5zt0 0zM159 655q0 28 19.5 47.5q19.5 19.5 46.5 19.5q28 0 47.5 -19.5q19.5 -19.5 19.5 -47.5q0 -27 -19.5 -46.5q-19.5 -19.5 -47.5 -19.5q-27 0 -46.5 19.5t-19.5 46.5z" />
<glyph unicode="&#240;" horiz-adv-x="609" d="M344 676l109 46l35 -69l-99 -44l90 -133q32 -48 57 -106.5q25 -58.5 25 -124.5q0 -54 -19 -101q-19 -47 -53 -81.5q-34 -34.5 -81 -54.5q-47 -20 -102 -20q-52 0 -98.5 18.5q-46.5 18.5 -82 52q-35.5 33.5 -56.5 79.5q-21 46 -21 101q0 49 18 94.5q18 45.5 52 80q34 34.5 82 55q48 20.5 107 20.5q14 0 31.5 -1.5q17.5 -1.5 31.5 -4.5l-60 90l-119 -53l-37 74l110 48l-57 86h103zM305 85q37 0 67 11.5q30 11.5 52 32.5q22 21 34 49q12 28 12 61q0 33 -12 61.5q-12 28.5 -34 48.5q-22 20 -52 31.5q-30 11.5 -67 11.5q-38 0 -68.5 -11.5q-30.5 -11.5 -52 -31.5q-21.5 -20 -33.5 -48.5q-12 -28.5 -12 -61.5q0 -33 12 -61q12 -28 33.5 -49q21.5 -21 52 -32.5t68.5 -11.5z" />
<glyph unicode="&#241;" horiz-adv-x="598" d="M306 511q40 0 79 -13.5q39 -13.5 70 -41q31 -27.5 50 -71q19 -43.5 19 -103.5v-282h-91v280q0 32 -10 57q-10 25 -27 42q-17 17 -40 26q-23 9 -50 9q-24 0 -46 -7q-22 -7 -40 -19.5q-18 -12.5 -30.5 -29.5q-12.5 -17 -16.5 -37l0 -321h-91v499h88v-55q11 29 46 48q35 19 90 19zt0 0zM153 586q-10 28 -10 48q0 40 25.5 63.5q25.5 23.5 63.5 23.5q25 0 47 -10.5q22 -10.5 43 -22.5q14 -8 26 -14q12 -6 23 -6q14 0 23 8.5q9 8.5 9 24.5q0 5 0 9.5q0 4.5 -2 10.5l59 0q10 -24 10 -49q0 -40 -24.5 -63q-24.5 -23 -62.5 -23q-22 0 -44.5 10q-22.5 10 -39.5 20q-20 11 -32 17q-12 6 -23 6q-15 0 -24.5 -8.5q-9.5 -8.5 -9.5 -25.5q0 -5 0.5 -9.5q0.5 -4.5 1.5 -9.5z" />
<glyph unicode="&#242;" horiz-adv-x="600" d="M552 249q0 -56 -20.5 -104q-20.5 -48 -55 -83q-34.5 -35 -80 -54.5q-45.5 -19.5 -96.5 -19.5q-51 0 -97 19.5q-46 19.5 -80.5 54.5q-34.5 35 -54.5 83q-20 48 -20 104q0 56 20 104q20 48 54.5 83q34.5 35 80.5 55q46 20 97 20q51 0 96.5 -20q45.5 -20 80 -55q34.5 -35 55 -83q20.5 -48 20.5 -104zt0 0zM139 249q0 -37 12 -67.5q12 -30.5 34 -52q22 -21.5 51 -33q29 -11.5 64 -11.5q34 0 63.5 11.5q29.5 11.5 51.5 33q22 21.5 34 51.5q12 30 12 67q0 37 -12 67.5q-12 30.5 -34 52.5q-22 22 -51.5 34q-29.5 12 -63.5 12q-35 0 -64 -12q-29 -12 -51 -34q-22 -22 -34 -52.5q-12 -30.5 -12 -66.5zt0 0zM284 728l65 -148h-83l-110 148z" />
<glyph unicode="&#243;" horiz-adv-x="600" d="M552 249q0 -56 -20.5 -104q-20.5 -48 -55 -83q-34.5 -35 -80 -54.5q-45.5 -19.5 -96.5 -19.5q-51 0 -97 19.5q-46 19.5 -80.5 54.5q-34.5 35 -54.5 83q-20 48 -20 104q0 56 20 104q20 48 54.5 83q34.5 35 80.5 55q46 20 97 20q51 0 96.5 -20q45.5 -20 80 -55q34.5 -35 55 -83q20.5 -48 20.5 -104zt0 0zM139 249q0 -37 12 -67.5q12 -30.5 34 -52q22 -21.5 51 -33q29 -11.5 64 -11.5q34 0 63.5 11.5q29.5 11.5 51.5 33q22 21.5 34 51.5q12 30 12 67q0 37 -12 67.5q-12 30.5 -34 52.5q-22 22 -51.5 34q-29.5 12 -63.5 12q-35 0 -64 -12q-29 -12 -51 -34q-22 -22 -34 -52.5q-12 -30.5 -12 -66.5zt0 0zM444 728l-110 -148h-83l65 148z" />
<glyph unicode="&#244;" horiz-adv-x="600" d="M552 249q0 -56 -20.5 -104q-20.5 -48 -55 -83q-34.5 -35 -80 -54.5q-45.5 -19.5 -96.5 -19.5q-51 0 -97 19.5q-46 19.5 -80.5 54.5q-34.5 35 -54.5 83q-20 48 -20 104q0 56 20 104q20 48 54.5 83q34.5 35 80.5 55q46 20 97 20q51 0 96.5 -20q45.5 -20 80 -55q34.5 -35 55 -83q20.5 -48 20.5 -104zt0 0zM139 249q0 -37 12 -67.5q12 -30.5 34 -52q22 -21.5 51 -33q29 -11.5 64 -11.5q34 0 63.5 11.5q29.5 11.5 51.5 33q22 21.5 34 51.5q12 30 12 67q0 37 -12 67.5q-12 30.5 -34 52.5q-22 22 -51.5 34q-29.5 12 -63.5 12q-35 0 -64 -12q-29 -12 -51 -34q-22 -22 -34 -52.5q-12 -30.5 -12 -66.5zt0 0zM364 728l75 -148h-80l-59 73l-59 -73h-80l75 148z" />
<glyph unicode="&#245;" horiz-adv-x="600" d="M552 249q0 -56 -20.5 -104q-20.5 -48 -55 -83q-34.5 -35 -80 -54.5q-45.5 -19.5 -96.5 -19.5q-51 0 -97 19.5q-46 19.5 -80.5 54.5q-34.5 35 -54.5 83q-20 48 -20 104q0 56 20 104q20 48 54.5 83q34.5 35 80.5 55q46 20 97 20q51 0 96.5 -20q45.5 -20 80 -55q34.5 -35 55 -83q20.5 -48 20.5 -104zt0 0zM139 249q0 -37 12 -67.5q12 -30.5 34 -52q22 -21.5 51 -33q29 -11.5 64 -11.5q34 0 63.5 11.5q29.5 11.5 51.5 33q22 21.5 34 51.5q12 30 12 67q0 37 -12 67.5q-12 30.5 -34 52.5q-22 22 -51.5 34q-29.5 12 -63.5 12q-35 0 -64 -12q-29 -12 -51 -34q-22 -22 -34 -52.5q-12 -30.5 -12 -66.5zt0 0zM147 586q-10 28 -10 48q0 40 25.5 63.5q25.5 23.5 63.5 23.5q25 0 47 -10.5q22 -10.5 43 -22.5q14 -8 26 -14q12 -6 23 -6q14 0 23 8.5q9 8.5 9 24.5q0 5 0 9.5q0 4.5 -2 10.5l59 0q10 -24 10 -49q0 -40 -24.5 -63q-24.5 -23 -62.5 -23q-22 0 -44.5 10q-22.5 10 -39.5 20q-20 11 -32 17q-12 6 -23 6q-15 0 -24.5 -8.5q-9.5 -8.5 -9.5 -25.5q0 -5 0.5 -9.5q0.5 -4.5 1.5 -9.5z" />
<glyph unicode="&#246;" horiz-adv-x="600" d="M552 249q0 -56 -20.5 -104q-20.5 -48 -55 -83q-34.5 -35 -80 -54.5q-45.5 -19.5 -96.5 -19.5q-51 0 -97 19.5q-46 19.5 -80.5 54.5q-34.5 35 -54.5 83q-20 48 -20 104q0 56 20 104q20 48 54.5 83q34.5 35 80.5 55q46 20 97 20q51 0 96.5 -20q45.5 -20 80 -55q34.5 -35 55 -83q20.5 -48 20.5 -104zt0 0zM139 249q0 -37 12 -67.5q12 -30.5 34 -52q22 -21.5 51 -33q29 -11.5 64 -11.5q34 0 63.5 11.5q29.5 11.5 51.5 33q22 21.5 34 51.5q12 30 12 67q0 37 -12 67.5q-12 30.5 -34 52.5q-22 22 -51.5 34q-29.5 12 -63.5 12q-35 0 -64 -12q-29 -12 -51 -34q-22 -22 -34 -52.5q-12 -30.5 -12 -66.5zt0 0zM135 655q0 28 19.5 47.5q19.5 19.5 46.5 19.5q28 0 47.5 -19.5q19.5 -19.5 19.5 -47.5q0 -27 -19.5 -46.5q-19.5 -19.5 -47.5 -19.5q-27 0 -46.5 19.5q-19.5 19.5 -19.5 46.5zt0 0zM332 655q0 28 19.5 47.5q19.5 19.5 46.5 19.5q28 0 47.5 -19.5q19.5 -19.5 19.5 -47.5q0 -27 -19.5 -46.5q-19.5 -19.5 -47.5 -19.5q-27 0 -46.5 19.5t-19.5 46.5z" />
<glyph unicode="&#248;" horiz-adv-x="609" d="M556 249q0 -56 -20.5 -104q-20.5 -48 -55 -83q-34.5 -35 -80 -54.5q-45.5 -19.5 -96.5 -19.5q-74 0 -132 38h-32h-115l82 59q-26 33 -40.5 74.5q-14.5 41.5 -14.5 89.5q0 56 20 104q20 48 54.5 83q34.5 35 80.5 55q46 20 97 20q36 0 69.5 -10q33.5 -10 62.5 -29l33 39h115l-83 -98q26 -33 40.5 -74.5q14.5 -41.5 14.5 -89.5zt0 0zM143 249q0 -52 25 -93l206 243q-16 7 -33.5 11q-17.5 4 -36.5 4q-35 0 -64 -12q-29 -12 -51 -34q-22 -22 -34 -52.5q-12 -30.5 -12 -66.5zt0 0zM465 248q0 52 -25 93l-206 -242q33 -14 70 -14q34 0 63.5 11.5q29.5 11.5 51.5 33q22 21.5 34 51.5t12 67z" />
<glyph unicode="&#249;" horiz-adv-x="594" d="M289 -12q-40 0 -78.5 13.5q-38.5 13.5 -69 41q-30.5 27.5 -49.5 71q-19 43.5 -19 103.5v282h91v-280q0 -65 35.5 -99.5q35.5 -34.5 89.5 -34.5q24 0 46 7q22 7 39.5 19.5q17.5 12.5 30 29.5q12.5 17 16.5 37l0 321h91v-499h-88v55q-11 -29 -45.5 -48q-34.5 -19 -89.5 -19zt0 0zM281 728l65 -148h-83l-110 148z" />
<glyph unicode="&#250;" horiz-adv-x="594" d="M289 -12q-40 0 -78.5 13.5q-38.5 13.5 -69 41q-30.5 27.5 -49.5 71q-19 43.5 -19 103.5v282h91v-280q0 -65 35.5 -99.5q35.5 -34.5 89.5 -34.5q24 0 46 7q22 7 39.5 19.5q17.5 12.5 30 29.5q12.5 17 16.5 37l0 321h91v-499h-88v55q-11 -29 -45.5 -48q-34.5 -19 -89.5 -19zt0 0zM432 728l-110 -148h-83l65 148z" />
<glyph unicode="&#251;" horiz-adv-x="594" d="M289 -12q-40 0 -78.5 13.5q-38.5 13.5 -69 41q-30.5 27.5 -49.5 71q-19 43.5 -19 103.5v282h91v-280q0 -65 35.5 -99.5q35.5 -34.5 89.5 -34.5q24 0 46 7q22 7 39.5 19.5q17.5 12.5 30 29.5q12.5 17 16.5 37l0 321h91v-499h-88v55q-11 -29 -45.5 -48q-34.5 -19 -89.5 -19zt0 0zM358 728l75 -148h-80l-59 73l-59 -73h-80l75 148z" />
<glyph unicode="&#252;" horiz-adv-x="594" d="M289 -12q-40 0 -78.5 13.5q-38.5 13.5 -69 41q-30.5 27.5 -49.5 71q-19 43.5 -19 103.5v282h91v-280q0 -65 35.5 -99.5q35.5 -34.5 89.5 -34.5q24 0 46 7q22 7 39.5 19.5q17.5 12.5 30 29.5q12.5 17 16.5 37l0 321h91v-499h-88v55q-11 -29 -45.5 -48q-34.5 -19 -89.5 -19zt0 0zM130 655q0 28 19.5 47.5q19.5 19.5 46.5 19.5q28 0 47.5 -19.5q19.5 -19.5 19.5 -47.5q0 -27 -19.5 -46.5q-19.5 -19.5 -47.5 -19.5q-27 0 -46.5 19.5q-19.5 19.5 -19.5 46.5zt0 0zM327 655q0 28 19.5 47.5q19.5 19.5 46.5 19.5q28 0 47.5 -19.5q19.5 -19.5 19.5 -47.5q0 -27 -19.5 -46.5q-19.5 -19.5 -47.5 -19.5q-27 0 -46.5 19.5t-19.5 46.5z" />
<glyph unicode="&#253;" horiz-adv-x="547" d="M18 499h102l153 -367l152 367h101l-297 -712h-101l96 232zM406 728l-110 -148h-83l65 148z" />
<glyph unicode="&#254;" horiz-adv-x="628" d="M580 249q0 -58 -21 -106q-21 -48 -56 -82.5q-35 -34.5 -81.5 -53.5q-46.5 -19 -97.5 -19q-57 0 -98 19q-41 19 -53 47l0 -267h-91v941h86v-282q12 28 54.5 46.5q42.5 18.5 99.5 18.5q52 0 99 -19q47 -19 82 -53.5q35 -34.5 56 -83q21 -48.5 21 -106.5zt0 0zM489 251q0 75 -46 119q-46 44 -122 44q-52 0 -93.5 -23.5q-41.5 -23.5 -54.5 -59.5l0 -163q13 -36 54.5 -59.5q41.5 -23.5 93.5 -23.5q76 0 122 45t46 121z" />
<glyph unicode="&#255;" horiz-adv-x="547" d="M18 499h102l153 -367l152 367h101l-297 -712h-101l96 232zM107 655q0 28 19.5 47.5q19.5 19.5 46.5 19.5q28 0 47.5 -19.5q19.5 -19.5 19.5 -47.5q0 -27 -19.5 -46.5q-19.5 -19.5 -47.5 -19.5q-27 0 -46.5 19.5q-19.5 19.5 -19.5 46.5zt0 0zM304 655q0 28 19.5 47.5q19.5 19.5 46.5 19.5q28 0 47.5 -19.5q19.5 -19.5 19.5 -47.5q0 -27 -19.5 -46.5q-19.5 -19.5 -47.5 -19.5q-27 0 -46.5 19.5t-19.5 46.5z" />
<glyph unicode="&#256;" horiz-adv-x="678" d="M667 0h-100l-65 165h-324l-64 -165h-103l278 718h101zM217 266h246l-124 316zM485 887v-86h-291l0 86z" />
<glyph unicode="&#257;" horiz-adv-x="551" d="M383 177q-12 21 -48 31.5q-36 10.5 -77 10.5q-57 0 -88.5 -17.5q-31.5 -17.5 -31.5 -49.5q0 -30 30.5 -48.5q30.5 -18.5 89.5 -18.5q20 0 39.5 4q19.5 4 36.5 11q17 7 30 17q13 10 19 22zM74 424q28 39 77 63q49 24 109 24q100 0 157 -51.5q57 -51.5 57 -144.5v-315h-88v44q-9 -13 -25 -23q-16 -10 -35.5 -17.5q-19.5 -7.5 -40.5 -11.5q-21 -4 -42 -4q-89 0 -142.5 42.5q-53.5 42.5 -53.5 119.5q0 39 15.5 69q15.5 30 42.5 51q27 21 63 31.5q36 10.5 78 10.5q17 0 36.5 -2.5q19.5 -2.5 38 -7.5q18.5 -5 34.5 -12.5q16 -7.5 28 -18.5l0 24q0 31 -11 53.5q-11 22.5 -29 37q-18 14.5 -42.5 21.5q-24.5 7 -51.5 7q-48 0 -87 -19q-39 -19 -62 -50zM418 701v-86h-291l0 86z" />
<glyph unicode="&#259;" horiz-adv-x="551" d="M383 177q-12 21 -48 31.5q-36 10.5 -77 10.5q-57 0 -88.5 -17.5q-31.5 -17.5 -31.5 -49.5q0 -30 30.5 -48.5q30.5 -18.5 89.5 -18.5q20 0 39.5 4q19.5 4 36.5 11q17 7 30 17q13 10 19 22zM74 424q28 39 77 63q49 24 109 24q100 0 157 -51.5q57 -51.5 57 -144.5v-315h-88v44q-9 -13 -25 -23q-16 -10 -35.5 -17.5q-19.5 -7.5 -40.5 -11.5q-21 -4 -42 -4q-89 0 -142.5 42.5q-53.5 42.5 -53.5 119.5q0 39 15.5 69q15.5 30 42.5 51q27 21 63 31.5q36 10.5 78 10.5q17 0 36.5 -2.5q19.5 -2.5 38 -7.5q18.5 -5 34.5 -12.5q16 -7.5 28 -18.5l0 24q0 31 -11 53.5q-11 22.5 -29 37q-18 14.5 -42.5 21.5q-24.5 7 -51.5 7q-48 0 -87 -19q-39 -19 -62 -50zM417 722q-2 -29 -13.5 -54.5q-11.5 -25.5 -31 -44q-19.5 -18.5 -45 -29q-25.5 -10.5 -55.5 -10.5q-30 0 -55.5 10.5q-25.5 10.5 -45 29q-19.5 18.5 -31.5 44q-12 25.5 -13 54.5l85 0q3 -20 20 -33.5q17 -13.5 40 -13.5q23 0 40.5 13.5q17.5 13.5 20.5 33.5z" />
<glyph unicode="&#260;" horiz-adv-x="678" d="M567 0l-65 165h-324l-64 -165h-103l278 718h101l277 -718q-11 -15 -20 -33q-9 -18 -9 -39q0 -26 15 -40q15 -14 38 -14q6 0 12.5 1.5q6.5 1.5 11.5 4.5l12 -73q-7 -9 -23 -18q-16 -9 -41 -9q-55 0 -85.5 31q-30.5 31 -30.5 75q0 20 7 38q7 18 16.5 33q9.5 15 20 26q10.5 11 17.5 17zM217 266h246l-124 316z" />
<glyph unicode="&#261;" horiz-adv-x="551" d="M386 0v44q-9 -13 -25 -23q-16 -10 -35.5 -17.5q-19.5 -7.5 -40.5 -11.5q-21 -4 -42 -4q-89 0 -142.5 42.5q-53.5 42.5 -53.5 119.5q0 39 15.5 69q15.5 30 42.5 51q27 21 63 31.5q36 10.5 78 10.5q17 0 36.5 -2.5q19.5 -2.5 38 -7.5q18.5 -5 34.5 -12.5q16 -7.5 28 -18.5l0 24q0 31 -11 53.5q-11 22.5 -29 37q-18 14.5 -42.5 21.5q-24.5 7 -51.5 7q-48 0 -87 -19q-39 -19 -62 -50l-26 79q28 39 77 63q49 24 109 24q100 0 157 -51.5q57 -51.5 57 -144.5v-315q-11 -15 -20 -33q-9 -18 -9 -39q0 -26 15 -40q15 -14 38 -14q6 0 12.5 1.5q6.5 1.5 11.5 4.5l12 -73q-7 -9 -23 -18q-16 -9 -41 -9q-55 0 -85.5 31q-30.5 31 -30.5 75q0 20 7 38q7 18 16.5 33q9.5 15 20 26q10.5 11 17.5 17zM383 177q-12 21 -48 31.5q-36 10.5 -77 10.5q-57 0 -88.5 -17.5q-31.5 -17.5 -31.5 -49.5q0 -30 30.5 -48.5q30.5 -18.5 89.5 -18.5q20 0 39.5 4q19.5 4 36.5 11q17 7 30 17q13 10 19 22z" />
<glyph unicode="&#262;" horiz-adv-x="700" d="M665 124q-17 -29 -43 -54q-26 -25 -61.5 -43q-35.5 -18 -78.5 -28.5q-43 -10.5 -92 -10.5q-71 0 -134.5 26.5q-63.5 26.5 -111.5 75.5q-48 49 -76 117q-28 68 -28 152q0 84 28 152.5q28 68.5 76 117q48 48.5 111.5 75q63.5 26.5 135.5 26.5q49 0 91.5 -11q42.5 -11 76.5 -29.5q34 -18.5 59.5 -43q25.5 -24.5 39.5 -50.5l-29 -84q-33 49 -94 82.5q-61 33.5 -139 33.5q-58 0 -106 -18.5q-48 -18.5 -82.5 -53q-34.5 -34.5 -53.5 -84.5q-19 -50 -19 -113q0 -63 19 -112.5q19 -49.5 53.5 -84.5q34.5 -35 82.5 -53.5q48 -18.5 106 -18.5q86 0 146.5 34.5q60.5 34.5 94.5 83.5zM536 910l-110 -138h-87l65 138z" />
<glyph unicode="&#263;" horiz-adv-x="540" d="M492 75q-8 -17 -24.5 -32.5q-16.5 -15.5 -40.5 -27.5q-24 -12 -54.5 -19.5q-30.5 -7.5 -65.5 -7.5q-51 0 -98 19q-47 19 -82.5 53.5q-35.5 34.5 -57 82.5q-21.5 48 -21.5 107q0 58 21.5 106.5q21.5 48.5 57 82.5q35.5 34 82.5 53q47 19 98 19q34 0 63.5 -7q29.5 -7 53 -19q23.5 -12 40 -27q16.5 -15 24.5 -31l-24 -72q-21 24 -59 41.5q-38 17.5 -81 17.5q-84 0 -134.5 -44.5q-50.5 -44.5 -50.5 -119.5q0 -37 13.5 -67.5q13.5 -30.5 37.5 -52q24 -21.5 58 -33.5q34 -12 76 -12q46 0 84 18.5q38 18.5 59 42.5zM440 728l-110 -148h-83l65 148z" />
<glyph unicode="&#268;" horiz-adv-x="700" d="M665 124q-17 -29 -43 -54q-26 -25 -61.5 -43q-35.5 -18 -78.5 -28.5q-43 -10.5 -92 -10.5q-71 0 -134.5 26.5q-63.5 26.5 -111.5 75.5q-48 49 -76 117q-28 68 -28 152q0 84 28 152.5q28 68.5 76 117q48 48.5 111.5 75q63.5 26.5 135.5 26.5q49 0 91.5 -11q42.5 -11 76.5 -29.5q34 -18.5 59.5 -43q25.5 -24.5 39.5 -50.5l-29 -84q-33 49 -94 82.5q-61 33.5 -139 33.5q-58 0 -106 -18.5q-48 -18.5 -82.5 -53q-34.5 -34.5 -53.5 -84.5q-19 -50 -19 -113q0 -63 19 -112.5q19 -49.5 53.5 -84.5q34.5 -35 82.5 -53.5q48 -18.5 106 -18.5q86 0 146.5 34.5q60.5 34.5 94.5 83.5zM330 772l-75 138h77l59 -63l59 63h77l-75 -138z" />
<glyph unicode="&#269;" horiz-adv-x="540" d="M492 75q-8 -17 -24.5 -32.5q-16.5 -15.5 -40.5 -27.5q-24 -12 -54.5 -19.5q-30.5 -7.5 -65.5 -7.5q-51 0 -98 19q-47 19 -82.5 53.5q-35.5 34.5 -57 82.5q-21.5 48 -21.5 107q0 58 21.5 106.5q21.5 48.5 57 82.5q35.5 34 82.5 53q47 19 98 19q34 0 63.5 -7q29.5 -7 53 -19q23.5 -12 40 -27q16.5 -15 24.5 -31l-24 -72q-21 24 -59 41.5q-38 17.5 -81 17.5q-84 0 -134.5 -44.5q-50.5 -44.5 -50.5 -119.5q0 -37 13.5 -67.5q13.5 -30.5 37.5 -52q24 -21.5 58 -33.5q34 -12 76 -12q46 0 84 18.5q38 18.5 59 42.5zM232 580l-75 148h80l59 -73l59 73h80l-75 -148z" />
<glyph unicode="&#270;" horiz-adv-x="737" d="M602 359q0 54 -19 101q-19 47 -52.5 82q-33.5 35 -80.5 55q-47 20 -103 20h-163v-516h163q54 0 100.5 18.5q46.5 18.5 81 52.5q34.5 34 54 81.5q19.5 47.5 19.5 105.5zt0 0zM312 718q84 0 154.5 -24q70.5 -24 121.5 -69.5q51 -45.5 80 -112.5q29 -67 29 -153q0 -85 -29 -151.5q-29 -66.5 -81 -112.5q-52 -46 -122.5 -70.5q-70.5 -24.5 -152.5 -24.5h-222v718zM284 772l-75 138h77l59 -63l59 63h77l-75 -138z" />
<glyph unicode="&#271;" horiz-adv-x="747" d="M48 250q0 58 21 106q21 48 56 82.5q35 34.5 81.5 53.5q46.5 19 97.5 19q57 0 98 -19q41 -19 53 -47l0 283h91v-728h-87v53q-12 -28 -54.5 -46.5q-42.5 -18.5 -99.5 -18.5q-52 0 -98.5 19q-46.5 19 -82 53.5q-35.5 34.5 -56 83q-20.5 48.5 -20.5 106.5zt0 0zM139 248q0 -75 46 -119q46 -44 122 -44q52 0 93.5 23.5q41.5 23.5 54.5 59.5l0 163q-13 36 -54.5 59.5q-41.5 23.5 -93.5 23.5q-76 0 -122 -45q-46 -45 -46 -121zt0 0zM677 606q-16 7 -28.5 21q-12.5 14 -12.5 39q0 28 19 46q19 18 46 18q28 0 47 -18.5q19 -18.5 19 -47.5q0 -23 -9.5 -41.5q-9.5 -18.5 -20.5 -36.5l-45 -76l-61 0z" />
<glyph unicode="&#272;" horiz-adv-x="746" d="M9 420h90v298h222q84 0 154.5 -24q70.5 -24 121.5 -69.5q51 -45.5 80 -112.5q29 -67 29 -153q0 -85 -29 -151.5q-29 -66.5 -81 -112.5q-52 -46 -122.5 -70.5q-70.5 -24.5 -152.5 -24.5h-222v319h-90zM611 359q0 54 -19 101q-19 47 -52.5 82q-33.5 35 -80.5 55q-47 20 -103 20h-163v-197h179v-101h-179v-218h163q54 0 100.5 18.5q46.5 18.5 81 52.5q34.5 34 54 81.5t19.5 105.5z" />
<glyph unicode="&#273;" horiz-adv-x="632" d="M48 248q0 58 21 105.5q21 47.5 56 81.5q35 34 81.5 53q46.5 19 97.5 19q57 0 98 -19q41 -19 53 -47l0 127h-147v92h147v68h91v-68h80v-92h-80v-568h-86v53q-12 -28 -54.5 -46.5q-42.5 -18.5 -99.5 -18.5q-52 0 -99 19q-47 19 -82 53q-35 34 -56 82q-21 48 -21 106zt0 0zM139 246q0 -75 46 -118q46 -43 122 -43q52 0 93.5 23.5q41.5 23.5 54.5 59.5l0 159q-13 36 -54.5 59.5q-41.5 23.5 -93.5 23.5q-76 0 -122 -44t-46 -120z" />
<glyph unicode="&#274;" horiz-adv-x="533" d="M90 718h383v-101h-289v-197h259v-101h-259v-218h289v-101h-383zM429 887v-86h-291l0 86z" />
<glyph unicode="&#275;" horiz-adv-x="574" d="M312 85q24 0 47 6q23 6 43.5 15q20.5 9 36.5 21q16 12 27 24l24 -71q-8 -17 -24.5 -33q-16.5 -16 -40 -29.5q-23.5 -13.5 -53.5 -21.5q-30 -8 -65 -8q-56 0 -103.5 18.5q-47.5 18.5 -82 52q-34.5 33.5 -54 82q-19.5 48.5 -19.5 108.5q0 52 17 99.5q17 47.5 49 83.5q32 36 77 57.5q45 21.5 102 21.5q54 0 97 -21q43 -21 73.5 -56.5q30.5 -35.5 46.5 -83q16 -47.5 16 -100.5q0 -16 -3 -34l-382 0q7 -66 53 -98.5q46 -32.5 118 -32.5zt0 0zM429 308q-2 22 -13 41.5q-11 19.5 -29.5 34q-18.5 14.5 -42.5 22.5q-24 8 -51 8q-27 0 -52.5 -8q-25.5 -8 -45 -22q-19.5 -14 -32.5 -33.5q-13 -19.5 -16 -42.5zM434 701v-86h-291l0 86z" />
<glyph unicode="&#278;" horiz-adv-x="533" d="M90 718h383v-101h-289v-197h259v-101h-259v-218h289v-101h-383zM216 846q0 28 19.5 47.5q19.5 19.5 46.5 19.5q28 0 47.5 -19.5q19.5 -19.5 19.5 -47.5q0 -27 -19.5 -46.5q-19.5 -19.5 -47.5 -19.5q-27 0 -46.5 19.5t-19.5 46.5z" />
<glyph unicode="&#279;" horiz-adv-x="574" d="M312 85q24 0 47 6q23 6 43.5 15q20.5 9 36.5 21q16 12 27 24l24 -71q-8 -17 -24.5 -33q-16.5 -16 -40 -29.5q-23.5 -13.5 -53.5 -21.5q-30 -8 -65 -8q-56 0 -103.5 18.5q-47.5 18.5 -82 52q-34.5 33.5 -54 82q-19.5 48.5 -19.5 108.5q0 52 17 99.5q17 47.5 49 83.5q32 36 77 57.5q45 21.5 102 21.5q54 0 97 -21q43 -21 73.5 -56.5q30.5 -35.5 46.5 -83q16 -47.5 16 -100.5q0 -16 -3 -34l-382 0q7 -66 53 -98.5q46 -32.5 118 -32.5zt0 0zM429 308q-2 22 -13 41.5q-11 19.5 -29.5 34q-18.5 14.5 -42.5 22.5q-24 8 -51 8q-27 0 -52.5 -8q-25.5 -8 -45 -22q-19.5 -14 -32.5 -33.5q-13 -19.5 -16 -42.5zM222 655q0 28 19.5 47.5q19.5 19.5 46.5 19.5q28 0 47.5 -19.5q19.5 -19.5 19.5 -47.5q0 -27 -19.5 -46.5q-19.5 -19.5 -47.5 -19.5q-27 0 -46.5 19.5t-19.5 46.5z" />
<glyph unicode="&#280;" horiz-adv-x="533" d="M90 718h383v-101h-289v-197h259v-101h-259v-218h289v-101q-11 -15 -20 -33q-9 -18 -9 -39q0 -26 15 -40q15 -14 38 -14q6 0 12.5 1.5q6.5 1.5 11.5 4.5l12 -73q-7 -9 -23 -18q-16 -9 -41 -9q-55 0 -85.5 31q-30.5 31 -30.5 75q0 20 7 38q7 18 16.5 33q9.5 15 20 26q10.5 11 17.5 17l-324 0z" />
<glyph unicode="&#281;" horiz-adv-x="574" d="M312 85q24 0 47 6q23 6 43.5 15q20.5 9 36.5 21q16 12 27 24l24 -71q-6 -11 -14.5 -21.5q-8.5 -10.5 -15.5 -22.5q-7 -12 -12 -25.5q-5 -13.5 -5 -29.5q0 -24 15 -38.5q15 -14.5 38 -14.5q6 0 12.5 1.5q6.5 1.5 11.5 4.5l12 -73q-7 -9 -23 -18q-16 -9 -41 -9q-55 0 -85.5 31q-30.5 31 -30.5 75q0 15 4 28.5q4 13.5 10 26.5q-14 -3 -28.5 -5q-14.5 -2 -30.5 -2q-56 0 -103.5 18.5q-47.5 18.5 -82 52q-34.5 33.5 -54 82q-19.5 48.5 -19.5 108.5q0 52 17 99.5q17 47.5 49 83.5q32 36 77 57.5q45 21.5 102 21.5q54 0 97 -21q43 -21 73.5 -56.5q30.5 -35.5 46.5 -83q16 -47.5 16 -100.5q0 -16 -3 -34l-382 0q7 -66 53 -98.5q46 -32.5 118 -32.5zt0 0zM429 308q-2 22 -13 41.5q-11 19.5 -29.5 34q-18.5 14.5 -42.5 22.5q-24 8 -51 8q-27 0 -52.5 -8q-25.5 -8 -45 -22q-19.5 -14 -32.5 -33.5q-13 -19.5 -16 -42.5z" />
<glyph unicode="&#282;" horiz-adv-x="533" d="M90 718h383v-101h-289v-197h259v-101h-259v-218h289v-101h-383zM222 772l-75 138h77l59 -63l59 63h77l-75 -138z" />
<glyph unicode="&#283;" horiz-adv-x="574" d="M312 85q24 0 47 6q23 6 43.5 15q20.5 9 36.5 21q16 12 27 24l24 -71q-8 -17 -24.5 -33q-16.5 -16 -40 -29.5q-23.5 -13.5 -53.5 -21.5q-30 -8 -65 -8q-56 0 -103.5 18.5q-47.5 18.5 -82 52q-34.5 33.5 -54 82q-19.5 48.5 -19.5 108.5q0 52 17 99.5q17 47.5 49 83.5q32 36 77 57.5q45 21.5 102 21.5q54 0 97 -21q43 -21 73.5 -56.5q30.5 -35.5 46.5 -83q16 -47.5 16 -100.5q0 -16 -3 -34l-382 0q7 -66 53 -98.5q46 -32.5 118 -32.5zt0 0zM429 308q-2 22 -13 41.5q-11 19.5 -29.5 34q-18.5 14.5 -42.5 22.5q-24 8 -51 8q-27 0 -52.5 -8q-25.5 -8 -45 -22q-19.5 -14 -32.5 -33.5q-13 -19.5 -16 -42.5zM224 580l-75 148h80l59 -73l59 73h80l-75 -148z" />
<glyph unicode="&#290;" horiz-adv-x="734" d="M390 730q48 0 90.5 -11.5q42.5 -11.5 77 -30.5q34.5 -19 60.5 -43.5q26 -24.5 40 -50.5l-29 -85q-17 24 -41 46q-24 22 -54 38q-30 16 -65.5 25.5q-35.5 9.5 -74.5 9.5q-58 0 -106 -19q-48 -19 -82 -54q-34 -35 -52.5 -84.5q-18.5 -49.5 -18.5 -110.5q0 -64 19.5 -114q19.5 -50 54.5 -84.5q35 -34.5 83.5 -53q48.5 -18.5 107.5 -18.5q54 0 99.5 17q45.5 17 80.5 49l0 112h-185v101h279v-242q-18 -30 -48 -55q-30 -25 -67 -44q-37 -19 -79.5 -29.5q-42.5 -10.5 -87.5 -10.5q-71 0 -135 26.5q-64 26.5 -112 75q-48 48.5 -76.5 116.5q-28.5 68 -28.5 152q0 84 28 152.5q28 68.5 76 117.5q48 49 111.5 75.5q63.5 26.5 134.5 26.5zt0 0zM371 -187q-16 7 -28.5 21q-12.5 14 -12.5 39q0 28 19 46q19 18 46 18q28 0 47 -18.5q19 -18.5 19 -47.5q0 -23 -9.5 -41.5q-9.5 -18.5 -20.5 -36.5l-45 -76l-61 0z" />
<glyph unicode="&#291;" horiz-adv-x="618" d="M536 499v-507q0 -49 -17 -89q-17 -40 -47.5 -68.5q-30.5 -28.5 -74 -44q-43.5 -15.5 -96.5 -15.5q-69 0 -125.5 26.5q-56.5 26.5 -86.5 72.5l26 82q29 -39 75.5 -61.5q46.5 -22.5 97.5 -22.5q26 0 54 6q28 6 51 21.5q23 15.5 37.5 44q14.5 28.5 14.5 73.5v47q-13 -26 -52.5 -45q-39.5 -19 -96.5 -19q-52 0 -99 18.5q-47 18.5 -82 52.5q-35 34 -56 80.5q-21 46.5 -21 103.5q0 57 20.5 104q20.5 47 56 80.5q35.5 33.5 82 52.5q46.5 19 98.5 19q57 0 98.5 -19q41.5 -19 54.5 -44l0 51zM445 333q-13 35 -54.5 58q-41.5 23 -93.5 23q-38 0 -69 -11.5q-31 -11.5 -53 -32.5q-22 -21 -34 -50q-12 -29 -12 -65q0 -36 12 -65q12 -29 34 -49.5q22 -20.5 53 -32q31 -11.5 69 -11.5q52 0 93.5 22.5q41.5 22.5 54.5 57.5zM323 713q16 -7 28.5 -21q12.5 -14 12.5 -39q0 -28 -19 -46q-19 -18 -46 -18q-28 0 -47 18.5q-19 18.5 -19 47.5q0 23 9.5 41.5q9.5 18.5 20.5 36.5l45 76l61 0z" />
<glyph unicode="&#296;" horiz-adv-x="274" d="M90 718h94v-718h-94zM-16 778q-10 28 -10 48q0 40 25.5 63.5q25.5 23.5 63.5 23.5q25 0 47 -10.5q22 -10.5 43 -22.5q14 -8 26 -14q12 -6 23 -6q14 0 23 8.5q9 8.5 9 24.5q0 5 0 9.5q0 4.5 -2 10.5l59 0q10 -24 10 -49q0 -40 -24.5 -63q-24.5 -23 -62.5 -23q-22 0 -44.5 10q-22.5 10 -39.5 20q-20 11 -32 17q-12 6 -23 6q-15 0 -24.5 -8.5q-9.5 -8.5 -9.5 -25.5q0 -5 0.5 -9.5q0.5 -4.5 1.5 -9.5z" />
<glyph unicode="&#297;" horiz-adv-x="254" d="M82 499h91v-499h-91zM-26 586q-10 28 -10 48q0 40 25.5 63.5q25.5 23.5 63.5 23.5q25 0 47 -10.5q22 -10.5 43 -22.5q14 -8 26 -14q12 -6 23 -6q14 0 23 8.5q9 8.5 9 24.5q0 5 0 9.5q0 4.5 -2 10.5l59 0q10 -24 10 -49q0 -40 -24.5 -63q-24.5 -23 -62.5 -23q-22 0 -44.5 10q-22.5 10 -39.5 20q-20 11 -32 17q-12 6 -23 6q-15 0 -24.5 -8.5q-9.5 -8.5 -9.5 -25.5q0 -5 0.5 -9.5q0.5 -4.5 1.5 -9.5z" />
<glyph unicode="&#298;" horiz-adv-x="274" d="M90 718h94v-718h-94zM283 887v-86h-291l0 86z" />
<glyph unicode="&#299;" horiz-adv-x="254" d="M82 499h91v-499h-91zM273 701v-86h-291l0 86z" />
<glyph unicode="&#302;" horiz-adv-x="274" d="M90 718h94v-718q-11 -15 -20 -33q-9 -18 -9 -39q0 -26 15 -40q15 -14 38 -14q6 0 12.5 1.5q6.5 1.5 11.5 4.5l12 -73q-7 -9 -23 -18q-16 -9 -41 -9q-55 0 -85.5 31q-30.5 31 -30.5 75q0 20 7 38q7 18 16.5 33q9.5 15 20 26q10.5 11 17.5 17l-35 0z" />
<glyph unicode="&#303;" horiz-adv-x="253" d="M81 499h91v-499q-11 -15 -20 -33q-9 -18 -9 -39q0 -26 15 -40q15 -14 38 -14q6 0 12.5 1.5q6.5 1.5 11.5 4.5l12 -73q-7 -9 -23 -18q-16 -9 -41 -9q-55 0 -85.5 31q-30.5 31 -30.5 75q0 20 7 38q7 18 16.5 33q9.5 15 20 26q10.5 11 17.5 17l-32 0zM60 661q0 28 19.5 47.5q19.5 19.5 46.5 19.5q28 0 47.5 -19.5q19.5 -19.5 19.5 -47.5q0 -27 -19.5 -46.5q-19.5 -19.5 -47.5 -19.5q-27 0 -46.5 19.5t-19.5 46.5z" />
<glyph unicode="&#305;" horiz-adv-x="254" d="M82 499h91v-499l-91 0z" />
<glyph unicode="&#310;" horiz-adv-x="640" d="M90 718h94v-314l290 314h124l-321 -349l355 -369h-132l-316 325v-325h-94zM310 -187q-16 7 -28.5 21q-12.5 14 -12.5 39q0 28 19 46q19 18 46 18q28 0 47 -18.5q19 -18.5 19 -47.5q0 -23 -9.5 -41.5q-9.5 -18.5 -20.5 -36.5l-45 -76l-61 0z" />
<glyph unicode="&#311;" horiz-adv-x="542" d="M82 728h91v-432l218 203h125l-252 -234l275 -265h-131l-235 226v-226h-91zM270 -187q-16 7 -28.5 21q-12.5 14 -12.5 39q0 28 19 46q19 18 46 18q28 0 47 -18.5q19 -18.5 19 -47.5q0 -23 -9.5 -41.5q-9.5 -18.5 -20.5 -36.5l-45 -76l-61 0z" />
<glyph unicode="&#312;" horiz-adv-x="545" d="M82 499h91v-210l221 210h124l-252 -241l276 -258h-135l-234 220v-220l-91 0z" />
<glyph unicode="&#313;" horiz-adv-x="478" d="M90 718h94v-617h274v-101h-368zM292 910l-110 -138h-87l65 138z" />
<glyph unicode="&#314;" horiz-adv-x="255" d="M82 728h91v-728h-91zM283 910l-110 -138h-87l65 138z" />
<glyph unicode="&#315;" horiz-adv-x="478" d="M90 718h94v-617h274v-101h-368zM256 -187q-16 7 -28.5 21q-12.5 14 -12.5 39q0 28 19 46q19 18 46 18q28 0 47 -18.5q19 -18.5 19 -47.5q0 -23 -9.5 -41.5q-9.5 -18.5 -20.5 -36.5l-45 -76l-61 0z" />
<glyph unicode="&#316;" horiz-adv-x="255" d="M82 728h91v-728h-91zM103 -187q-16 7 -28.5 21q-12.5 14 -12.5 39q0 28 19 46q19 18 46 18q28 0 47 -18.5q19 -18.5 19 -47.5q0 -23 -9.5 -41.5q-9.5 -18.5 -20.5 -36.5l-45 -76l-61 0z" />
<glyph unicode="&#317;" horiz-adv-x="493" d="M90 718h94v-617h274v-101h-368zM346 606q-16 7 -28.5 21q-12.5 14 -12.5 39q0 28 19 46q19 18 46 18q28 0 47 -18.5q19 -18.5 19 -47.5q0 -23 -9.5 -41.5q-9.5 -18.5 -20.5 -36.5l-45 -76l-61 0z" />
<glyph unicode="&#318;" horiz-adv-x="374" d="M82 728h91v-728h-91zM304 606q-16 7 -28.5 21q-12.5 14 -12.5 39q0 28 19 46q19 18 46 18q28 0 47 -18.5q19 -18.5 19 -47.5q0 -23 -9.5 -41.5q-9.5 -18.5 -20.5 -36.5l-45 -76l-61 0z" />
<glyph unicode="&#321;" horiz-adv-x="492" d="M104 259l-95 -52v107l95 52v352h94v-300l188 104v-107l-188 -104v-210h274v-101l-368 0z" />
<glyph unicode="&#322;" horiz-adv-x="371" d="M140 309l-94 -51v107l94 51v312h91v-262l94 52v-107l-94 -52v-359l-91 0z" />
<glyph unicode="&#323;" horiz-adv-x="759" d="M90 718h102l383 -564v564h94v-718h-102l-383 561v-561h-94zM518 910l-110 -138h-87l65 138z" />
<glyph unicode="&#324;" horiz-adv-x="598" d="M306 511q40 0 79 -13.5q39 -13.5 70 -41q31 -27.5 50 -71q19 -43.5 19 -103.5v-282h-91v280q0 32 -10 57q-10 25 -27 42q-17 17 -40 26q-23 9 -50 9q-24 0 -46 -7q-22 -7 -40 -19.5q-18 -12.5 -30.5 -29.5q-12.5 -17 -16.5 -37l0 -321h-91v499h88v-55q11 29 46 48q35 19 90 19zt0 0zM450 728l-110 -148h-83l65 148z" />
<glyph unicode="&#325;" horiz-adv-x="759" d="M90 718h102l383 -564v564h94v-718h-102l-383 561v-561h-94zM355 -187q-16 7 -28.5 21q-12.5 14 -12.5 39q0 28 19 46q19 18 46 18q28 0 47 -18.5q19 -18.5 19 -47.5q0 -23 -9.5 -41.5q-9.5 -18.5 -20.5 -36.5l-45 -76l-61 0z" />
<glyph unicode="&#326;" horiz-adv-x="598" d="M306 511q40 0 79 -13.5q39 -13.5 70 -41q31 -27.5 50 -71q19 -43.5 19 -103.5v-282h-91v280q0 32 -10 57q-10 25 -27 42q-17 17 -40 26q-23 9 -50 9q-24 0 -46 -7q-22 -7 -40 -19.5q-18 -12.5 -30.5 -29.5q-12.5 -17 -16.5 -37l0 -321h-91v499h88v-55q11 29 46 48q35 19 90 19zt0 0zM283 -187q-16 7 -28.5 21q-12.5 14 -12.5 39q0 28 19 46q19 18 46 18q28 0 47 -18.5q19 -18.5 19 -47.5q0 -23 -9.5 -41.5q-9.5 -18.5 -20.5 -36.5l-45 -76l-61 0z" />
<glyph unicode="&#327;" horiz-adv-x="759" d="M90 718h102l383 -564v564h94v-718h-102l-383 561v-561h-94zM318 772l-75 138h77l59 -63l59 63h77l-75 -138z" />
<glyph unicode="&#328;" horiz-adv-x="598" d="M306 511q40 0 79 -13.5q39 -13.5 70 -41q31 -27.5 50 -71q19 -43.5 19 -103.5v-282h-91v280q0 32 -10 57q-10 25 -27 42q-17 17 -40 26q-23 9 -50 9q-24 0 -46 -7q-22 -7 -40 -19.5q-18 -12.5 -30.5 -29.5q-12.5 -17 -16.5 -37l0 -321h-91v499h88v-55q11 29 46 48q35 19 90 19zt0 0zM244 580l-75 148h80l59 -73l59 73h80l-75 -148z" />
<glyph unicode="&#330;" horiz-adv-x="759" d="M575 0l-391 561v-561h-94v718h102l383 -554v554h94v-752q0 -91 -40 -141q-40 -50 -125 -50q-26 0 -47.5 6.5q-21.5 6.5 -39 17q-17.5 10.5 -30 22.5q-12.5 12 -18.5 24l11 89q23 -26 50.5 -41.5q27.5 -15.5 60.5 -15.5q39 0 61.5 24q22.5 24 22.5 84z" />
<glyph unicode="&#331;" horiz-adv-x="598" d="M433 280q0 32 -10 57q-10 25 -27 42q-17 17 -40 26q-23 9 -50 9q-24 0 -46 -7q-22 -7 -40 -19.5q-18 -12.5 -30.5 -29.5q-12.5 -17 -16.5 -37l0 -321h-91v499h88v-55q11 29 46 48q35 19 90 19q40 0 79 -13.5q39 -13.5 70 -41q31 -27.5 50 -71q19 -43.5 19 -103.5v-348q0 -159 -120 -159q-21 0 -46 8.5q-25 8.5 -43 27.5l7 81q11 -9 25 -14.5q14 -5.5 26 -5.5q35 0 47.5 21.5q12.5 21.5 12.5 61.5z" />
<glyph unicode="&#332;" horiz-adv-x="796" d="M398 730q72 0 137 -28q65 -28 114 -78q49 -50 78 -118q29 -68 29 -147q0 -80 -29 -147.5q-29 -67.5 -78 -117.5q-49 -50 -113.5 -78q-64.5 -28 -135.5 -28q-73 0 -138.5 28.5q-65.5 28.5 -114.5 78q-49 49.5 -78 117q-29 67.5 -29 146.5q0 79 29 147.5q29 68.5 78 118q49 49.5 114 78q65 28.5 137 28.5zt0 0zM399 628q-56 0 -104 -20q-48 -20 -83.5 -56q-35.5 -36 -56 -85.5q-20.5 -49.5 -20.5 -108.5q0 -59 20.5 -108.5q20.5 -49.5 56 -85q35.5 -35.5 83.5 -55q48 -19.5 104 -19.5q55 0 103 19.5q48 19.5 83 55q35 35.5 55.5 85q20.5 49.5 20.5 109.5q0 59 -20.5 108.5q-20.5 49.5 -55.5 85q-35 35.5 -83 55.5q-48 20 -103 20zt0 0zM548 887v-86h-291l0 86z" />
<glyph unicode="&#333;" horiz-adv-x="600" d="M552 249q0 -56 -20.5 -104q-20.5 -48 -55 -83q-34.5 -35 -80 -54.5q-45.5 -19.5 -96.5 -19.5q-51 0 -97 19.5q-46 19.5 -80.5 54.5q-34.5 35 -54.5 83q-20 48 -20 104q0 56 20 104q20 48 54.5 83q34.5 35 80.5 55q46 20 97 20q51 0 96.5 -20q45.5 -20 80 -55q34.5 -35 55 -83q20.5 -48 20.5 -104zt0 0zM139 249q0 -37 12 -67.5q12 -30.5 34 -52q22 -21.5 51 -33q29 -11.5 64 -11.5q34 0 63.5 11.5q29.5 11.5 51.5 33q22 21.5 34 51.5q12 30 12 67q0 37 -12 67.5q-12 30.5 -34 52.5q-22 22 -51.5 34q-29.5 12 -63.5 12q-35 0 -64 -12q-29 -12 -51 -34q-22 -22 -34 -52.5q-12 -30.5 -12 -66.5zt0 0zM446 701v-86h-291l0 86z" />
<glyph unicode="&#336;" horiz-adv-x="796" d="M398 730q72 0 137 -28q65 -28 114 -78q49 -50 78 -118q29 -68 29 -147q0 -80 -29 -147.5q-29 -67.5 -78 -117.5q-49 -50 -113.5 -78q-64.5 -28 -135.5 -28q-73 0 -138.5 28.5q-65.5 28.5 -114.5 78q-49 49.5 -78 117q-29 67.5 -29 146.5q0 79 29 147.5q29 68.5 78 118q49 49.5 114 78q65 28.5 137 28.5zt0 0zM399 628q-56 0 -104 -20q-48 -20 -83.5 -56q-35.5 -36 -56 -85.5q-20.5 -49.5 -20.5 -108.5q0 -59 20.5 -108.5q20.5 -49.5 56 -85q35.5 -35.5 83.5 -55q48 -19.5 104 -19.5q55 0 103 19.5q48 19.5 83 55q35 35.5 55.5 85q20.5 49.5 20.5 109.5q0 59 -20.5 108.5q-20.5 49.5 -55.5 85q-35 35.5 -83 55.5q-48 20 -103 20zt0 0zM450 920l-110 -148h-77l65 148zM622 920l-110 -148h-77l65 148z" />
<glyph unicode="&#337;" horiz-adv-x="601" d="M552 249q0 -56 -20.5 -104q-20.5 -48 -55 -83q-34.5 -35 -80 -54.5q-45.5 -19.5 -96.5 -19.5q-51 0 -97 19.5q-46 19.5 -80.5 54.5q-34.5 35 -54.5 83q-20 48 -20 104q0 56 20 104q20 48 54.5 83q34.5 35 80.5 55q46 20 97 20q51 0 96.5 -20q45.5 -20 80 -55q34.5 -35 55 -83q20.5 -48 20.5 -104zt0 0zM139 249q0 -37 12 -67.5q12 -30.5 34 -52q22 -21.5 51 -33q29 -11.5 64 -11.5q34 0 63.5 11.5q29.5 11.5 51.5 33q22 21.5 34 51.5q12 30 12 67q0 37 -12 67.5q-12 30.5 -34 52.5q-22 22 -51.5 34q-29.5 12 -63.5 12q-35 0 -64 -12q-29 -12 -51 -34q-22 -22 -34 -52.5q-12 -30.5 -12 -66.5zt0 0zM357 728l-110 -148h-77l65 148zM529 728l-110 -148h-77l65 148z" />
<glyph unicode="&#338;" horiz-adv-x="1104" d="M398 730q77 0 145 -32q68 -32 119 -88l0 108h382v-101h-288v-197h258v-101h-258v-218h288v-101h-382v107q-50 -56 -118 -87.5q-68 -31.5 -144 -31.5q-73 0 -138.5 28.5q-65.5 28.5 -114.5 78q-49 49.5 -78 117q-29 67.5 -29 146.5q0 79 29 147.5q29 68.5 78 118q49 49.5 114 78q65 28.5 137 28.5zt0 0zM399 628q-56 0 -104 -20q-48 -20 -83.5 -56q-35.5 -36 -56 -85.5q-20.5 -49.5 -20.5 -108.5q0 -59 20.5 -108.5q20.5 -49.5 56 -85q35.5 -35.5 83.5 -55q48 -19.5 104 -19.5q55 0 103 19.5q48 19.5 83 55q35 35.5 55.5 85q20.5 49.5 20.5 109.5q0 59 -20.5 108.5q-20.5 49.5 -55.5 85q-35 35.5 -83 55.5t-103 20z" />
<glyph unicode="&#339;" horiz-adv-x="983" d="M721 85q24 0 47 6q23 6 43.5 15q20.5 9 36.5 21q16 12 27 24l24 -71q-8 -17 -24.5 -33q-16.5 -16 -40 -29.5q-23.5 -13.5 -53.5 -21.5q-30 -8 -65 -8q-69 0 -124.5 26.5q-55.5 26.5 -89.5 76.5q-35 -48 -88 -75.5q-53 -27.5 -114 -27.5q-51 0 -97 19.5q-46 19.5 -80.5 54.5q-34.5 35 -54.5 83q-20 48 -20 104q0 56 20 104q20 48 54.5 83q34.5 35 80.5 55q46 20 97 20q61 0 114 -28.5q53 -28.5 88 -76.5q32 48 82.5 76.5q50.5 28.5 117.5 28.5q54 0 97 -21q43 -21 73.5 -56.5q30.5 -35.5 46.5 -83q16 -47.5 16 -100.5q0 -16 -3 -34l-382 0q7 -66 53 -98.5q46 -32.5 118 -32.5zt0 0zM139 249q0 -37 12 -67.5q12 -30.5 34 -52q22 -21.5 51 -33q29 -11.5 64 -11.5q34 0 63.5 11.5q29.5 11.5 51.5 33q22 21.5 34 51.5q12 30 12 67q0 37 -12 67.5q-12 30.5 -34 52.5q-22 22 -51.5 34q-29.5 12 -63.5 12q-35 0 -64 -12q-29 -12 -51 -34q-22 -22 -34 -52.5q-12 -30.5 -12 -66.5zt0 0zM838 308q-2 22 -13 41.5q-11 19.5 -29.5 34q-18.5 14.5 -42.5 22.5q-24 8 -51 8q-27 0 -52.5 -8q-25.5 -8 -45 -22q-19.5 -14 -32.5 -33.5q-13 -19.5 -16 -42.5z" />
<glyph unicode="&#340;" horiz-adv-x="562" d="M90 718h199q40 0 79 -12q39 -12 70 -37q31 -25 49.5 -63q18.5 -38 18.5 -90q0 -79 -42 -129q-42 -50 -111 -67l174 -320h-111l-167 308h-65v-308h-94zM184 617v-208h124q44 0 73.5 28q29.5 28 29.5 74q0 45 -28.5 75.5q-28.5 30.5 -74.5 30.5zM416 910l-110 -138h-87l65 138z" />
<glyph unicode="&#341;" horiz-adv-x="394" d="M353 390q-12 11 -29 17.5q-17 6.5 -39 6.5q-25 0 -44 -8.5q-19 -8.5 -33 -22.5q-14 -14 -22.5 -31q-8.5 -17 -12.5 -35l0 -317h-91v499h88v-65q12 32 39.5 54.5q27.5 22.5 74.5 22.5q28 0 50.5 -11q22.5 -11 32.5 -29zM243 728l-65 -148h83l110 148z" />
<glyph unicode="&#342;" horiz-adv-x="562" d="M90 718h199q40 0 79 -12q39 -12 70 -37q31 -25 49.5 -63q18.5 -38 18.5 -90q0 -79 -42 -129q-42 -50 -111 -67l174 -320h-111l-167 308h-65v-308h-94zM184 617v-208h124q44 0 73.5 28q29.5 28 29.5 74q0 45 -28.5 75.5q-28.5 30.5 -74.5 30.5zM278 -187q-16 7 -28.5 21q-12.5 14 -12.5 39q0 28 19 46q19 18 46 18q28 0 47 -18.5q19 -18.5 19 -47.5q0 -23 -9.5 -41.5q-9.5 -18.5 -20.5 -36.5l-45 -76l-61 0z" />
<glyph unicode="&#343;" horiz-adv-x="394" d="M353 390q-12 11 -29 17.5q-17 6.5 -39 6.5q-25 0 -44 -8.5q-19 -8.5 -33 -22.5q-14 -14 -22.5 -31q-8.5 -17 -12.5 -35l0 -317h-91v499h88v-65q12 32 39.5 54.5q27.5 22.5 74.5 22.5q28 0 50.5 -11q22.5 -11 32.5 -29zM104 -187q-16 7 -28.5 21q-12.5 14 -12.5 39q0 28 19 46q19 18 46 18q28 0 47 -18.5q19 -18.5 19 -47.5q0 -23 -9.5 -41.5q-9.5 -18.5 -20.5 -36.5l-45 -76l-61 0z" />
<glyph unicode="&#344;" horiz-adv-x="562" d="M90 718h199q40 0 79 -12q39 -12 70 -37q31 -25 49.5 -63q18.5 -38 18.5 -90q0 -79 -42 -129q-42 -50 -111 -67l174 -320h-111l-167 308h-65v-308h-94zM184 617v-208h124q44 0 73.5 28q29.5 28 29.5 74q0 45 -28.5 75.5q-28.5 30.5 -74.5 30.5zM214 772l-75 138h77l59 -63l59 63h77l-75 -138z" />
<glyph unicode="&#345;" horiz-adv-x="401" d="M353 390q-12 11 -29 17.5q-17 6.5 -39 6.5q-25 0 -44 -8.5q-19 -8.5 -33 -22.5q-14 -14 -22.5 -31q-8.5 -17 -12.5 -35l0 -317h-91v499h88v-65q12 32 39.5 54.5q27.5 22.5 74.5 22.5q28 0 50.5 -11q22.5 -11 32.5 -29zM159 580l-75 148h80l59 -73l59 73h80l-75 -148z" />
<glyph unicode="&#346;" horiz-adv-x="489" d="M353 356q22 -20 39.5 -39.5q17.5 -19.5 30 -41q12.5 -21.5 19.5 -45.5q7 -24 7 -52q0 -42 -15 -77q-15 -35 -42 -60q-27 -25 -64.5 -39q-37.5 -14 -83.5 -14q-37 0 -72 11q-35 11 -64 29q-29 18 -49.5 39.5q-20.5 21.5 -28.5 42.5l29 96q33 -52 84.5 -84q51.5 -32 108.5 -32q51 0 75.5 23.5q24.5 23.5 24.5 61.5q0 28 -17 54q-17 26 -42 46q-63 53 -104 87q-41 34 -65 60q-33 35 -51.5 68.5q-18.5 33.5 -18.5 74.5q0 38 13.5 68.5q13.5 30.5 38 52q24.5 21.5 58.5 33q34 11.5 74 11.5q30 0 58 -8q28 -8 51.5 -21.5q23.5 -13.5 42 -31.5q18.5 -18 29.5 -38l-21 -94q-29 37 -72.5 64q-43.5 27 -90.5 27q-35 0 -59.5 -15.5q-24.5 -15.5 -24.5 -50.5q0 -26 19 -49.5q19 -23.5 38 -38.5q37 -30 61.5 -49q24.5 -19 40 -32q15.5 -13 25.5 -21q10 -8 18 -16zt0 0zM389 910l-110 -138h-87l65 138z" />
<glyph unicode="&#347;" horiz-adv-x="424" d="M161 236q-51 27 -78 61q-27 34 -27 78q0 60 39.5 98q39.5 38 113.5 38q25 0 48 -6.5q23 -6.5 41.5 -17q18.5 -10.5 32.5 -23.5q14 -13 21 -25l-15 -81q-27 26 -60 41q-33 15 -68 15q-25 0 -43.5 -8.5q-18.5 -8.5 -18.5 -31.5q0 -21 15.5 -32.5q15.5 -11.5 40.5 -25.5l56 -30q58 -31 87.5 -64q29.5 -33 29.5 -85q0 -32 -12.5 -59.5q-12.5 -27.5 -35 -47.5q-22.5 -20 -54.5 -31q-32 -11 -72 -11q-28 0 -53 7q-25 7 -46 19q-21 12 -36.5 28.5q-15.5 16.5 -24.5 35.5l22 75q28 -32 63 -50q35 -18 84 -18q14 0 27 2.5q13 2.5 23.5 8.5q10.5 6 17 16q6.5 10 6.5 24q0 21 -19.5 38q-19.5 17 -51.5 34zM346 728l-110 -148h-83l65 148z" />
<glyph unicode="&#352;" horiz-adv-x="489" d="M353 356q22 -20 39.5 -39.5q17.5 -19.5 30 -41q12.5 -21.5 19.5 -45.5q7 -24 7 -52q0 -42 -15 -77q-15 -35 -42 -60q-27 -25 -64.5 -39q-37.5 -14 -83.5 -14q-37 0 -72 11q-35 11 -64 29q-29 18 -49.5 39.5q-20.5 21.5 -28.5 42.5l29 96q33 -52 84.5 -84q51.5 -32 108.5 -32q51 0 75.5 23.5q24.5 23.5 24.5 61.5q0 28 -17 54q-17 26 -42 46q-63 53 -104 87q-41 34 -65 60q-33 35 -51.5 68.5q-18.5 33.5 -18.5 74.5q0 38 13.5 68.5q13.5 30.5 38 52q24.5 21.5 58.5 33q34 11.5 74 11.5q30 0 58 -8q28 -8 51.5 -21.5q23.5 -13.5 42 -31.5q18.5 -18 29.5 -38l-21 -94q-29 37 -72.5 64q-43.5 27 -90.5 27q-35 0 -59.5 -15.5q-24.5 -15.5 -24.5 -50.5q0 -26 19 -49.5q19 -23.5 38 -38.5q37 -30 61.5 -49q24.5 -19 40 -32q15.5 -13 25.5 -21q10 -8 18 -16zt0 0zM181 772l-75 138h77l59 -63l59 63h77l-75 -138z" />
<glyph unicode="&#353;" horiz-adv-x="424" d="M161 236q-51 27 -78 61q-27 34 -27 78q0 60 39.5 98q39.5 38 113.5 38q25 0 48 -6.5q23 -6.5 41.5 -17q18.5 -10.5 32.5 -23.5q14 -13 21 -25l-15 -81q-27 26 -60 41q-33 15 -68 15q-25 0 -43.5 -8.5q-18.5 -8.5 -18.5 -31.5q0 -21 15.5 -32.5q15.5 -11.5 40.5 -25.5l56 -30q58 -31 87.5 -64q29.5 -33 29.5 -85q0 -32 -12.5 -59.5q-12.5 -27.5 -35 -47.5q-22.5 -20 -54.5 -31q-32 -11 -72 -11q-28 0 -53 7q-25 7 -46 19q-21 12 -36.5 28.5q-15.5 16.5 -24.5 35.5l22 75q28 -32 63 -50q35 -18 84 -18q14 0 27 2.5q13 2.5 23.5 8.5q10.5 6 17 16q6.5 10 6.5 24q0 21 -19.5 38q-19.5 17 -51.5 34zM144 580l-75 148h80l59 -73l59 73h80l-75 -148z" />
<glyph unicode="&#356;" horiz-adv-x="576" d="M15 718h546v-99h-226v-619h-94v619h-226zM227 772l-75 138h77l59 -63l59 63h77l-75 -138z" />
<glyph unicode="&#357;" horiz-adv-x="590" d="M392 51q-14 -26 -45 -44.5q-31 -18.5 -76 -18.5q-150 0 -150 169v245h-90v28l153 195h28v-126h175v-97h-175v-229q0 -48 20 -68q20 -20 60 -20q28 0 47.5 11q19.5 11 33.5 27zM495 556q-16 7 -28.5 21q-12.5 14 -12.5 39q0 28 19 46q19 18 46 18q28 0 47 -18.5q19 -18.5 19 -47.5q0 -23 -9.5 -41.5q-9.5 -18.5 -20.5 -36.5l-45 -76l-61 0z" />
<glyph unicode="&#358;" horiz-adv-x="576" d="M15 718h546v-99h-226v-200h131v-99h-131v-320h-94v320h-130v99h130v200l-226 0z" />
<glyph unicode="&#359;" horiz-adv-x="440" d="M392 51q-14 -26 -45 -44.5q-31 -18.5 -76 -18.5q-150 0 -150 169v73h-90v97h90v75h-90v28l153 195h28v-126h175v-97h-175v-75h175v-97h-175v-57q0 -48 20 -68q20 -20 60 -20q28 0 47.5 11q19.5 11 33.5 27z" />
<glyph unicode="&#360;" horiz-adv-x="735" d="M556 718h94v-431q0 -65 -20 -120q-20 -55 -56.5 -95q-36.5 -40 -89 -62q-52.5 -22 -117.5 -22q-63 0 -115 21.5q-52 21.5 -89 60.5q-37 39 -57.5 94q-20.5 55 -20.5 122v432h94v-433q0 -45 13.5 -81q13.5 -36 38.5 -61.5q25 -25.5 60 -39q35 -13.5 77 -13.5q43 0 78 14q35 14 59.5 40q24.5 26 37.5 62q13 36 13 80zM214 778q-10 28 -10 48q0 40 25.5 63.5q25.5 23.5 63.5 23.5q25 0 47 -10.5q22 -10.5 43 -22.5q14 -8 26 -14q12 -6 23 -6q14 0 23 8.5q9 8.5 9 24.5q0 5 0 9.5q0 4.5 -2 10.5l59 0q10 -24 10 -49q0 -40 -24.5 -63q-24.5 -23 -62.5 -23q-22 0 -44.5 10q-22.5 10 -39.5 20q-20 11 -32 17q-12 6 -23 6q-15 0 -24.5 -8.5q-9.5 -8.5 -9.5 -25.5q0 -5 0.5 -9.5q0.5 -4.5 1.5 -9.5z" />
<glyph unicode="&#361;" horiz-adv-x="594" d="M289 -12q-40 0 -78.5 13.5q-38.5 13.5 -69 41q-30.5 27.5 -49.5 71q-19 43.5 -19 103.5v282h91v-280q0 -65 35.5 -99.5q35.5 -34.5 89.5 -34.5q24 0 46 7q22 7 39.5 19.5q17.5 12.5 30 29.5q12.5 17 16.5 37l0 321h91v-499h-88v55q-11 -29 -45.5 -48q-34.5 -19 -89.5 -19zt0 0zM143 586q-10 28 -10 48q0 40 25.5 63.5q25.5 23.5 63.5 23.5q25 0 47 -10.5q22 -10.5 43 -22.5q14 -8 26 -14q12 -6 23 -6q14 0 23 8.5q9 8.5 9 24.5q0 5 0 9.5q0 4.5 -2 10.5l59 0q10 -24 10 -49q0 -40 -24.5 -63q-24.5 -23 -62.5 -23q-22 0 -44.5 10q-22.5 10 -39.5 20q-20 11 -32 17q-12 6 -23 6q-15 0 -24.5 -8.5q-9.5 -8.5 -9.5 -25.5q0 -5 0.5 -9.5q0.5 -4.5 1.5 -9.5z" />
<glyph unicode="&#362;" horiz-adv-x="735" d="M556 718h94v-431q0 -65 -20 -120q-20 -55 -56.5 -95q-36.5 -40 -89 -62q-52.5 -22 -117.5 -22q-63 0 -115 21.5q-52 21.5 -89 60.5q-37 39 -57.5 94q-20.5 55 -20.5 122v432h94v-433q0 -45 13.5 -81q13.5 -36 38.5 -61.5q25 -25.5 60 -39q35 -13.5 77 -13.5q43 0 78 14q35 14 59.5 40q24.5 26 37.5 62q13 36 13 80zM513 887v-86h-291l0 86z" />
<glyph unicode="&#363;" horiz-adv-x="594" d="M289 -12q-40 0 -78.5 13.5q-38.5 13.5 -69 41q-30.5 27.5 -49.5 71q-19 43.5 -19 103.5v282h91v-280q0 -65 35.5 -99.5q35.5 -34.5 89.5 -34.5q24 0 46 7q22 7 39.5 19.5q17.5 12.5 30 29.5q12.5 17 16.5 37l0 321h91v-499h-88v55q-11 -29 -45.5 -48q-34.5 -19 -89.5 -19zt0 0zM441 701v-86h-291l0 86z" />
<glyph unicode="&#366;" horiz-adv-x="735" d="M556 718h94v-431q0 -65 -20 -120q-20 -55 -56.5 -95q-36.5 -40 -89 -62q-52.5 -22 -117.5 -22q-63 0 -115 21.5q-52 21.5 -89 60.5q-37 39 -57.5 94q-20.5 55 -20.5 122v432h94v-433q0 -45 13.5 -81q13.5 -36 38.5 -61.5q25 -25.5 60 -39q35 -13.5 77 -13.5q43 0 78 14q35 14 59.5 40q24.5 26 37.5 62q13 36 13 80zM263 858q0 45 30 75q30 30 74 30q44 0 74 -30q30 -30 30 -75q0 -44 -30 -74q-30 -30 -74 -30q-44 0 -74 30q-30 30 -30 74zt0 0zM323 858q0 -18 12.5 -30q12.5 -12 31.5 -12q19 0 31.5 12q12.5 12 12.5 30q0 19 -12.5 30.5q-12.5 11.5 -31.5 11.5q-19 0 -31.5 -11.5t-12.5 -30.5z" />
</font>
</defs>
</svg>
