<?xml version="1.0" standalone="no"?>
<!DOCTYPE svg PUBLIC "-//W3C//DTD SVG 1.1//EN" "http://www.w3.org/Graphics/SVG/1.1/DTD/svg11.dtd" >
<svg xmlns="http://www.w3.org/2000/svg">
<metadata>
Generated by SVGconv.
Copyright   : Copyright (c) 2014 by Vyacheslav Kirilenko, Gayane Bagdasaryan. All rights reserved.
Designer    : Vyacheslav Kirilenko, Gayane Bagdasaryan
Foundry     : Vyacheslav Kirilenko, Gayane Bagdasaryan
Foundry URL : http://www.brownfox.org
</metadata>
<defs>
<font id="Gerbera-Black" horiz-adv-x="573" >
<font-face units-per-em="1000" ascent="1049" descent="288" />
<missing-glyph horiz-adv-x="577" />
<glyph unicode="&#13;" horiz-adv-x="270" />
<glyph unicode="&#32;" horiz-adv-x="270" />
<glyph unicode="&#33;" horiz-adv-x="396" d="M136 211l-29 507h182l-29 -507zM108 75q0 38 26 64.5q26 26.5 64 26.5q38 0 64.5 -26.5q26.5 -26.5 26.5 -64.5q0 -38 -26.5 -64q-26.5 -26 -64.5 -26q-38 0 -64 26t-26 64z" />
<glyph unicode="&#34;" horiz-adv-x="436" d="M44 718h156l-19 -277h-118zM236 718h156l-19 -277l-118 0z" />
<glyph unicode="&#35;" horiz-adv-x="650" d="M593 453h-107l-14 -79h93v-124h-115l-28 -162h-116l28 162h-82l-28 -162h-116l28 162h-79v124h101l14 79h-87v124h108l25 141h117l-25 -141h82l25 141h116l-25 -141h85zM274 374h82l14 79l-82 0z" />
<glyph unicode="&#36;" horiz-adv-x="511" d="M379 385q20 -17 38.5 -36.5q18.5 -19.5 33 -43q14.5 -23.5 23 -50.5q8.5 -27 8.5 -60q0 -78 -42.5 -131q-42.5 -53 -113.5 -70l0 -105h-132v103q-60 13 -105 45.5q-45 32.5 -61 70.5l45 140q13 -21 33.5 -39.5q20.5 -18.5 45 -31.5q24.5 -13 51.5 -20.5q27 -7.5 54 -7.5q11 0 24 2q13 2 23.5 7.5q10.5 5.5 17.5 14q7 8.5 7 21.5q0 20 -11.5 33.5q-11.5 13.5 -37.5 34.5q-45 37 -84.5 68.5q-39.5 31.5 -73.5 66.5q-12 12 -24 27.5q-12 15.5 -22.5 34.5q-10.5 19 -17 41q-6.5 22 -6.5 48q0 72 40.5 116.5q40.5 44.5 101.5 60.5l0 104h132v-104q48 -12 80 -36q32 -24 49 -50l-29 -143q-32 36 -77 54.5q-45 18.5 -87 18.5q-7 0 -17 -1q-10 -1 -19 -4q-9 -3 -15 -8.5q-6 -5.5 -6 -14.5q0 -11 15.5 -24.5q15.5 -13.5 34.5 -28.5q25 -20 57.5 -46.5t66.5 -56.5z" />
<glyph unicode="&#39;" horiz-adv-x="244" d="M44 718h156l-19 -277l-118 0z" />
<glyph unicode="&#40;" horiz-adv-x="400" d="M363 711q-41 -51 -69 -106q-28 -55 -45.5 -110.5q-17.5 -55.5 -25.5 -111q-8 -55.5 -8 -107.5q0 -104 33 -216.5q33 -112.5 115 -217.5l-127 -11q-81 93 -120 206.5q-39 113.5 -39 238.5q0 128 39 242.5q39 114.5 120 204.5z" />
<glyph unicode="&#41;" horiz-adv-x="400" d="M37 711q41 -51 69 -106q28 -55 45.5 -110.5q17.5 -55.5 25.5 -111q8 -55.5 8 -107.5q0 -104 -33 -216.5q-33 -112.5 -115 -217.5l127 -11q81 93 120 206.5q39 113.5 39 238.5q0 128 -39 242.5q-39 114.5 -120 204.5z" />
<glyph unicode="&#42;" horiz-adv-x="505" d="M74 349l83 113l-135 44l37 113l133 -42v141h121v-141l133 43l37 -114l-134 -44l82 -114l-97 -70l-82 113l-81 -113z" />
<glyph unicode="&#45;" horiz-adv-x="472" d="M405 339v-121h-338l0 121z" />
<glyph unicode="&#48;" horiz-adv-x="613" d="M306 733q60 0 107 -25.5q47 -25.5 80 -74q33 -48.5 50.5 -118.5q17.5 -70 17.5 -159q0 -84 -16 -152.5q-16 -68.5 -47.5 -117q-31.5 -48.5 -78.5 -75q-47 -26.5 -110 -26.5q-66 0 -114.5 27.5q-48.5 27.5 -80 77q-31.5 49.5 -47 119q-15.5 69.5 -15.5 152.5q0 85 16.5 154q16.5 69 48.5 117.5q32 48.5 79.5 74.5q47.5 26 109.5 26zt0 0zM406 359q0 58 -7.5 98q-7.5 40 -21 65q-13.5 25 -31.5 36q-18 11 -39 11q-21 0 -39 -11q-18 -11 -31.5 -36q-13.5 -25 -21 -65q-7.5 -40 -7.5 -98q0 -58 7.5 -98q7.5 -40 21 -65q13.5 -25 31.5 -36q18 -11 39 -11q21 0 39 11q18 11 31.5 36q13.5 25 21 65t7.5 98z" />
<glyph unicode="&#49;" horiz-adv-x="439" d="M52 576l177 142h114v-718h-152v512l-139 -97z" />
<glyph unicode="&#50;" horiz-adv-x="549" d="M243 569q-26 0 -48 -8q-22 -8 -40 -21q-18 -13 -32.5 -30q-14.5 -17 -25.5 -36l-63 108q8 31 27.5 58.5q19.5 27.5 48 48q28.5 20.5 65.5 32.5q37 12 80 12q56 0 99 -17q43 -17 72 -47q29 -30 44 -70q15 -40 15 -86q0 -39 -9 -71.5q-9 -32.5 -26.5 -63.5q-17.5 -31 -43.5 -63q-26 -32 -60 -70l-72 -81h225v-164h-460v127l205 223q22 24 38 42q16 18 26.5 34.5q10.5 16.5 16 32q5.5 15.5 5.5 34.5q0 32 -23.5 54t-63.5 22z" />
<glyph unicode="&#51;" horiz-adv-x="551" d="M246 149q48 0 77.5 23q29.5 23 29.5 62q0 35 -26.5 55.5q-26.5 20.5 -71.5 20.5q-31 0 -53.5 -7q-22.5 -7 -33.5 -15l-25 112l123 154h-198v164h401v-117l-122 -150q26 -6 54.5 -20.5q28.5 -14.5 52.5 -40q24 -25.5 39.5 -64.5q15.5 -39 15.5 -94q0 -51 -18.5 -96q-18.5 -45 -53 -78.5q-34.5 -33.5 -83 -53q-48.5 -19.5 -108.5 -19.5q-45 0 -81 10q-36 10 -63 26.5q-27 16.5 -45 36.5q-18 20 -26 41l36 132q29 -35 71 -58.5t108 -23.5z" />
<glyph unicode="&#52;" horiz-adv-x="537" d="M291 718h144v-365h80v-164h-80v-189h-151v189h-267v129zM289 343v159l-109 -159z" />
<glyph unicode="&#53;" horiz-adv-x="561" d="M358 229q0 19 -8 33.5q-8 14.5 -20.5 24.5q-12.5 10 -29 14.5q-16.5 4.5 -33.5 4.5q-29 0 -55.5 -8q-26.5 -8 -43.5 -25l-98 30l36 415h364v-164h-241l-9 -87q7 2 16.5 3q9.5 1 18.5 1.5q9 0.5 16 0.5q7 0 9 0q51 0 93.5 -18q42.5 -18 74 -49.5q31.5 -31.5 49 -75.5q17.5 -44 17.5 -96q0 -57 -20.5 -103q-20.5 -46 -55 -78q-34.5 -32 -80 -49.5q-45.5 -17.5 -96.5 -17.5q-48 0 -85.5 11q-37.5 11 -64.5 27.5q-27 16.5 -43.5 37q-16.5 20.5 -21.5 38.5l36 132q31 -39 74.5 -60.5q43.5 -21.5 96.5 -21.5q42 0 73 21t31 59z" />
<glyph unicode="&#54;" horiz-adv-x="582" d="M297 477q3 1 8 1q5 0 7 0q40 0 81 -17q41 -17 74 -48q33 -31 53.5 -75.5q20.5 -44.5 20.5 -98.5q0 -53 -20.5 -99.5q-20.5 -46.5 -55 -81q-34.5 -34.5 -79.5 -54q-45 -19.5 -95 -19.5q-53 0 -98.5 18.5q-45.5 18.5 -79.5 52q-34 33.5 -53 79.5q-19 46 -19 101q0 61 24 114q24 53 51 97l167 271h168zM386 235q0 20 -7.5 36q-7.5 16 -20.5 27q-13 11 -30.5 17q-17.5 6 -36.5 6q-19 0 -36.5 -6q-17.5 -6 -30.5 -17q-13 -11 -20.5 -27q-7.5 -16 -7.5 -36q0 -20 7.5 -36q7.5 -16 20.5 -27q13 -11 30.5 -17q17.5 -6 36.5 -6q19 0 36.5 6q17.5 6 30.5 17q13 11 20.5 27t7.5 36z" />
<glyph unicode="&#55;" horiz-adv-x="526" d="M303 554h-261v164h442v-114l-254 -604l-159 0z" />
<glyph unicode="&#56;" horiz-adv-x="590" d="M453 374q33 -22 59 -64.5q26 -42.5 26 -99.5q0 -48 -18.5 -89q-18.5 -41 -51.5 -71.5q-33 -30.5 -77.5 -47.5q-44.5 -17 -95.5 -17q-51 0 -95.5 17q-44.5 17 -77.5 47.5q-33 30.5 -51.5 71.5q-18.5 41 -18.5 89q0 57 26 99.5q26 42.5 59 64.5q-26 20 -47 58.5q-21 38.5 -21 83.5q0 45 16.5 85q16.5 40 46.5 69q30 29 71.5 46q41.5 17 91.5 17q49 0 90.5 -17q41.5 -17 71.5 -46q30 -29 47 -69q17 -40 17 -85q0 -45 -21 -83.5q-21 -38.5 -47 -58.5zt0 0zM295 569q-35 0 -53.5 -19.5q-18.5 -19.5 -18.5 -42.5q0 -23 18.5 -42.5q18.5 -19.5 53.5 -19.5q35 0 53.5 19.5q18.5 19.5 18.5 42.5q0 23 -18.5 42.5q-18.5 19.5 -53.5 19.5zt0 0zM295 149q41 0 64.5 21.5q23.5 21.5 23.5 52.5q0 31 -24 52.5q-24 21.5 -64 21.5q-40 0 -64 -21.5q-24 -21.5 -24 -52.5q0 -31 23.5 -52.5t64.5 -21.5z" />
<glyph unicode="&#57;" horiz-adv-x="582" d="M285 241q-3 -1 -8 -1q-5 0 -7 0q-40 0 -81 17q-41 17 -74 48q-33 31 -53.5 75.5q-20.5 44.5 -20.5 98.5q0 53 20.5 99.5q20.5 46.5 55 81q34.5 34.5 79.5 54q45 19.5 95 19.5q53 0 98.5 -18.5q45.5 -18.5 79.5 -52q34 -33.5 53 -79.5q19 -46 19 -101q0 -61 -24 -114q-24 -53 -51 -97l-167 -271h-168zM196 483q0 -20 7.5 -36q7.5 -16 20.5 -27q13 -11 30.5 -17q17.5 -6 36.5 -6q19 0 36.5 6q17.5 6 30.5 17q13 11 20.5 27q7.5 16 7.5 36q0 20 -7.5 36q-7.5 16 -20.5 27q-13 11 -30.5 17q-17.5 6 -36.5 6q-19 0 -36.5 -6q-17.5 -6 -30.5 -17q-13 -11 -20.5 -27t-7.5 -36z" />
<glyph unicode="&#58;" horiz-adv-x="321" d="M65 80q0 40 27.5 68q27.5 28 67.5 28q40 0 68 -28q28 -28 28 -68q0 -40 -28 -67.5q-28 -27.5 -68 -27.5q-40 0 -67.5 27.5q-27.5 27.5 -27.5 67.5zt0 0zM65 461q0 40 27.5 68q27.5 28 67.5 28q40 0 68 -28q28 -28 28 -68q0 -40 -28 -67.5q-28 -27.5 -68 -27.5q-40 0 -67.5 27.5t-27.5 67.5z" />
<glyph unicode="&#59;" horiz-adv-x="322" d="M125 -1q-21 6 -39.5 27q-18.5 21 -18.5 57q0 38 27.5 65.5q27.5 27.5 69.5 27.5q20 0 37 -8q17 -8 29 -21.5q12 -13.5 18.5 -31q6.5 -17.5 6.5 -36.5q0 -32 -10 -59q-10 -27 -27 -53l-65 -107h-92zM64 461q0 40 27.5 68q27.5 28 67.5 28q40 0 68 -28q28 -28 28 -68q0 -40 -28 -67.5q-28 -27.5 -68 -27.5q-40 0 -67.5 27.5t-27.5 67.5z" />
<glyph unicode="&#63;" horiz-adv-x="484" d="M253 339q24 0 55 13.5q31 13.5 53 36.5l25 -116q-22 -31 -60.5 -51.5q-38.5 -20.5 -86.5 -20.5q-34 0 -63 10q-29 10 -50 28.5q-21 18.5 -32.5 43.5q-11.5 25 -11.5 55q0 22 5.5 41.5q5.5 19.5 19.5 39.5q14 20 38 41.5q24 21.5 62 45.5q22 15 35.5 25q13.5 10 20.5 17.5q7 7.5 9.5 13q2.5 5.5 2.5 10.5q0 16 -13.5 22q-13.5 6 -27.5 6q-26 0 -48 -6.5q-22 -6.5 -40.5 -17q-18.5 -10.5 -32.5 -23q-14 -12.5 -23 -23.5l-32 112q23 36 69.5 63.5q46.5 27.5 112.5 27.5q39 0 72 -11q33 -11 56 -31.5q23 -20.5 36 -49q13 -28.5 13 -63.5q0 -53 -32.5 -92q-32.5 -39 -96.5 -76q-35 -20 -49 -31q-14 -11 -14 -23q0 -7 6 -12q6 -5 22 -5zt0 0zM146 75q0 38 26 64.5q26 26.5 64 26.5q38 0 64.5 -26.5q26.5 -26.5 26.5 -64.5q0 -38 -26.5 -64q-26.5 -26 -64.5 -26q-38 0 -64 26t-26 64z" />
<glyph unicode="&#65;" horiz-adv-x="723" d="M720 0h-158l-54 138h-289l-55 -138h-161l287 718h144zM279 295h166l-81 207z" />
<glyph unicode="&#66;" horiz-adv-x="585" d="M270 718q50 0 93.5 -12.5q43.5 -12.5 75 -37q31.5 -24.5 49.5 -61.5q18 -37 18 -86q0 -47 -15.5 -80q-15.5 -33 -44.5 -56q44 -23 70.5 -66.5q26.5 -43.5 26.5 -108.5q0 -50 -19 -89q-19 -39 -52 -66q-33 -27 -77.5 -41q-44.5 -14 -95.5 -14h-217v718zM234 290v-140h89q29 0 49 20q20 20 20 50q0 29 -19 49.5q-19 20.5 -51 20.5zM234 568v-138h54q28 0 47 19q19 19 19 50q0 29 -18 49q-18 20 -50 20z" />
<glyph unicode="&#67;" horiz-adv-x="706" d="M420 149q37 0 69.5 8.5q32.5 8.5 59.5 22q27 13.5 47 31q20 17.5 34 35.5l48 -137q-32 -54 -102 -89q-70 -35 -169 -35q-73 0 -140.5 27.5q-67.5 27.5 -119.5 77q-52 49.5 -83.5 118q-31.5 68.5 -31.5 151.5q0 83 31.5 151.5q31.5 68.5 83.5 118q52 49.5 119.5 77q67.5 27.5 140.5 27.5q47 0 89 -9.5q42 -9.5 76 -26.5q34 -17 60 -39.5q26 -22.5 41 -47.5l-47 -134q-14 17 -34.5 34q-20.5 17 -47 30q-26.5 13 -58 21q-31.5 8 -66.5 8q-51 0 -93.5 -15q-42.5 -15 -73 -42q-30.5 -27 -48 -66q-17.5 -39 -17.5 -87q0 -48 17.5 -87q17.5 -39 48 -66q30.5 -27 73 -42t93.5 -15z" />
<glyph unicode="&#68;" horiz-adv-x="734" d="M546 359q0 41 -14.5 76.5q-14.5 35.5 -41 62q-26.5 26.5 -62.5 41.5q-36 15 -79 15h-115v-390h115q42 0 78 14q36 14 62.5 39.5q26.5 25.5 41.5 61.5q15 36 15 80zt0 0zM309 718q85 0 157.5 -24q72.5 -24 124.5 -69.5q52 -45.5 81.5 -112.5q29.5 -67 29.5 -153q0 -85 -30 -151.5q-30 -66.5 -82.5 -112.5q-52.5 -46 -124.5 -70.5q-72 -24.5 -156 -24.5h-227l0 718z" />
<glyph unicode="&#69;" horiz-adv-x="545" d="M82 718h403v-164h-251v-103h221v-164h-221v-123h251v-164l-403 0z" />
<glyph unicode="&#70;" horiz-adv-x="498" d="M82 718h366v-164h-214v-103h194v-164h-194v-287l-152 0z" />
<glyph unicode="&#71;" horiz-adv-x="757" d="M420 569q-52 0 -95 -15q-43 -15 -73.5 -42.5q-30.5 -27.5 -47 -66.5q-16.5 -39 -16.5 -87q0 -49 17 -88q17 -39 48 -66q31 -27 75 -41q44 -14 97 -14q43 0 76 11.5q33 11.5 57 31.5l0 51h-138v157h285v-259q-19 -30 -45 -58.5q-26 -28.5 -62 -50q-36 -21.5 -83 -34.5q-47 -13 -108 -13q-73 0 -140.5 27.5q-67.5 27.5 -119.5 76.5q-52 49 -83.5 117.5q-31.5 68.5 -31.5 151.5q0 83 31.5 152q31.5 69 83.5 118.5q52 49.5 119.5 77q67.5 27.5 140.5 27.5q47 0 89 -9.5q42 -9.5 76 -26.5q34 -17 60 -39.5q26 -22.5 41 -47.5l-47 -134q-14 17 -34.5 34q-20.5 17 -47 30q-26.5 13 -58 21t-66.5 8z" />
<glyph unicode="&#72;" horiz-adv-x="771" d="M82 718h152v-267h303v267h152v-718h-152v287h-303v-287l-152 0z" />
<glyph unicode="&#73;" horiz-adv-x="316" d="M82 718h152v-718l-152 0z" />
<glyph unicode="&#74;" horiz-adv-x="440" d="M363 188q0 -96 -50 -149.5q-50 -53.5 -150 -53.5q-18 0 -38.5 4.5q-20.5 4.5 -40.5 12.5q-20 8 -37 20.5q-17 12.5 -27 28.5l15 149q21 -22 46.5 -36.5q25.5 -14.5 63.5 -14.5q27 0 46.5 16q19.5 16 19.5 56v497l152 0z" />
<glyph unicode="&#75;" horiz-adv-x="682" d="M82 718h152v-252l219 252h195l-296 -341l332 -377h-205l-245 282v-282l-152 0z" />
<glyph unicode="&#76;" horiz-adv-x="489" d="M82 718h152v-554h235v-164l-387 0z" />
<glyph unicode="&#77;" horiz-adv-x="964" d="M657 718h158l97 -718h-154l-56 415l-147 -415h-138l-147 415l-56 -415h-162l97 718h158l178 -476z" />
<glyph unicode="&#78;" horiz-adv-x="770" d="M82 718h147l307 -445v445h152v-718h-149l-305 442v-442l-152 0z" />
<glyph unicode="&#79;" horiz-adv-x="816" d="M408 733q76 0 144.5 -27.5q68.5 -27.5 120 -77q51.5 -49.5 81.5 -118.5q30 -69 30 -151q0 -83 -30 -151.5q-30 -68.5 -81.5 -118q-51.5 -49.5 -120 -77q-68.5 -27.5 -144.5 -27.5q-76 0 -144.5 27.5q-68.5 27.5 -120 77q-51.5 49.5 -81.5 118q-30 68.5 -30 151.5q0 82 30 151q30 69 81.5 118.5q51.5 49.5 120 77q68.5 27.5 144.5 27.5zt0 0zM408 149q46 0 86.5 15.5q40.5 15.5 70 43q29.5 27.5 46.5 66q17 38.5 17 85.5q0 46 -17 85q-17 39 -46.5 66.5q-29.5 27.5 -70 43q-40.5 15.5 -86.5 15.5q-47 0 -87 -15.5q-40 -15.5 -69.5 -43q-29.5 -27.5 -46.5 -66.5q-17 -39 -17 -85q0 -47 17 -85.5q17 -38.5 46.5 -66q29.5 -27.5 69.5 -43t87 -15.5z" />
<glyph unicode="&#80;" horiz-adv-x="552" d="M291 718q51 0 94.5 -16q43.5 -16 76 -46q32.5 -30 50.5 -72q18 -42 18 -93q0 -50 -17.5 -91.5q-17.5 -41.5 -49 -71.5q-31.5 -30 -75.5 -46.5q-44 -16.5 -96 -16.5h-58v-265h-152v718zM234 559v-135h75q31 0 50.5 17.5q19.5 17.5 19.5 49.5q0 31 -19 49.5q-19 18.5 -51 18.5z" />
<glyph unicode="&#81;" horiz-adv-x="816" d="M409 733q76 0 144.5 -27.5q68.5 -27.5 120 -77q51.5 -49.5 81.5 -118.5q30 -69 30 -151q0 -69 -22.5 -129.5q-22.5 -60.5 -62 -108q-39.5 -47.5 -93.5 -80.5q-54 -33 -116 -46q5 -30 26 -42q21 -12 44 -12q31 0 53 11q22 11 47 34l11 -131q-22 -29 -57 -45q-35 -16 -83 -16q-95 0 -138 52q-43 52 -43 143q-67 10 -125 41.5q-58 31.5 -101 80.5q-43 49 -68 112.5q-25 63.5 -25 136.5q0 80 30 148q30 68 82 118q52 50 120 78.5q68 28.5 145 28.5zt0 0zM408 149q46 0 86.5 15.5q40.5 15.5 70 43q29.5 27.5 46.5 66q17 38.5 17 85.5q0 46 -17 85q-17 39 -46.5 66.5q-29.5 27.5 -70 43q-40.5 15.5 -86.5 15.5q-47 0 -87 -15.5q-40 -15.5 -69.5 -43q-29.5 -27.5 -46.5 -66.5q-17 -39 -17 -85q0 -47 17 -85.5q17 -38.5 46.5 -66q29.5 -27.5 69.5 -43t87 -15.5z" />
<glyph unicode="&#82;" horiz-adv-x="576" d="M82 718h222q40 0 78.5 -13q38.5 -13 69 -39.5q30.5 -26.5 49 -66.5q18.5 -40 18.5 -95q0 -33 -8 -63q-8 -30 -23.5 -55.5q-15.5 -25.5 -38.5 -45q-23 -19.5 -52 -31.5l160 -309h-167l-150 292h-6v-292h-152zM234 559v-121h72q27 0 44.5 16.5q17.5 16.5 17.5 45.5q0 26 -16.5 42.5q-16.5 16.5 -45.5 16.5z" />
<glyph unicode="&#83;" horiz-adv-x="511" d="M379 382q20 -17 38.5 -36q18.5 -19 33 -41.5q14.5 -22.5 23 -49.5q8.5 -27 8.5 -60q0 -48 -17 -86.5q-17 -38.5 -47 -66q-30 -27.5 -71.5 -42.5q-41.5 -15 -90.5 -15q-39 0 -76 10.5q-37 10.5 -67.5 27.5q-30.5 17 -52.5 39.5q-22 22.5 -32 45.5l45 140q13 -21 33.5 -39q20.5 -18 45 -31.5q24.5 -13.5 51.5 -21q27 -7.5 54 -7.5q11 0 24 2q13 2 23.5 7.5q10.5 5.5 17.5 14q7 8.5 7 21.5q0 17 -11.5 30.5q-11.5 13.5 -37.5 34.5q-45 37 -84.5 68q-39.5 31 -73.5 66q-12 12 -24 28q-12 16 -22.5 35.5q-10.5 19.5 -17 42.5q-6.5 23 -6.5 49q0 45 17 80q17 35 45.5 58q28.5 23 66.5 35q38 12 79 12q37 0 68 -8.5q31 -8.5 55.5 -22q24.5 -13.5 42.5 -30q18 -16.5 29 -33.5l-29 -143q-34 35 -80 54q-46 19 -87 19q-7 0 -16.5 -1q-9.5 -1 -17.5 -4q-8 -3 -14 -8.5q-6 -5.5 -6 -14.5q0 -14 15 -27.5q15 -13.5 35 -29.5q26 -20 58 -46t66 -56z" />
<glyph unicode="&#84;" horiz-adv-x="581" d="M12 718h557v-162h-203v-556h-151v556l-203 0z" />
<glyph unicode="&#85;" horiz-adv-x="732" d="M503 718h152v-434q0 -65 -20.5 -120q-20.5 -55 -58 -95q-37.5 -40 -91 -62q-53.5 -22 -120.5 -22q-65 0 -118 21.5q-53 21.5 -90.5 60.5q-37.5 39 -58.5 94q-21 55 -21 122v435h152v-430q0 -64 37.5 -101.5q37.5 -37.5 100.5 -37.5q63 0 99.5 38.5q36.5 38.5 36.5 101.5z" />
<glyph unicode="&#86;" horiz-adv-x="684" d="M3 718h161l177 -475l176 475h164l-266 -718l-146 0z" />
<glyph unicode="&#87;" horiz-adv-x="1023" d="M699 292l143 426h169l-238 -718h-134l-126 442l-128 -442h-135l-238 718h163l144 -426l123 426l134 0z" />
<glyph unicode="&#88;" horiz-adv-x="672" d="M197 0h-185l237 370l-223 348h181l128 -206l126 206h183l-222 -349l238 -369h-182l-140 228z" />
<glyph unicode="&#89;" horiz-adv-x="615" d="M3 718h167l136 -243l137 243h169l-228 -417v-301h-151l0 301z" />
<glyph unicode="&#90;" horiz-adv-x="528" d="M42 718h419v-130l-234 -424h236v-164h-424v126l235 428l-232 0z" />
<glyph unicode="&#91;" horiz-adv-x="403" d="M96 -164v882h232v-145h-101v-592h101l0 -145z" />
<glyph unicode="&#93;" horiz-adv-x="403" d="M307 -164v882h-232v-145h101v-592h-101l0 -145z" />
<glyph unicode="&#94;" horiz-adv-x="564" d="M37 324l185 363h121l184 -363h-135l-109 218l-108 -218z" />
<glyph unicode="&#95;" horiz-adv-x="510" d="M-2 -52h514v-121l-514 0z" />
<glyph unicode="&#96;" horiz-adv-x="352" d="M221 757l73 -167h-112l-125 167z" />
<glyph unicode="&#97;" horiz-adv-x="574" d="M358 190q-5 11 -27.5 20.5q-22.5 9.5 -54.5 9.5q-45 0 -66.5 -14.5q-21.5 -14.5 -21.5 -37.5q0 -25 23 -38.5q23 -13.5 64 -13.5q32 0 53.5 11q21.5 11 29.5 26zM66 450q13 21 36 37.5q23 16.5 51 28q28 11.5 59.5 17.5q31.5 6 60.5 6q52 0 94.5 -14q42.5 -14 73 -41q30.5 -27 47.5 -66.5q17 -39.5 17 -90.5v-327h-142v45q-19 -29 -58.5 -44.5q-39.5 -15.5 -81.5 -15.5q-38 0 -71.5 12.5q-33.5 12.5 -58.5 35q-25 22.5 -39.5 54.5q-14.5 32 -14.5 71q0 42 17 74.5q17 32.5 45.5 54q28.5 21.5 65 33q36.5 11.5 75.5 11.5q58 0 85 -13q27 -13 31 -20l0 14q0 42 -30 60.5q-30 18.5 -72 18.5q-48 0 -91 -17q-43 -17 -65 -42z" />
<glyph unicode="&#98;" horiz-adv-x="671" d="M220 470q14 29 54 49q40 20 97 20q52 0 99.5 -20q47.5 -20 83.5 -56.5q36 -36.5 57.5 -87.5q21.5 -51 21.5 -113q0 -62 -21.5 -113q-21.5 -51 -57.5 -87.5q-36 -36.5 -83.5 -56.5q-47.5 -20 -99.5 -20q-62 0 -102 20q-40 20 -54 49l0 -54h-142v728h147zM220 201q11 -26 46 -43q35 -17 80 -17q61 0 99.5 34q38.5 34 38.5 87q0 53 -38.5 87q-38.5 34 -99.5 34q-45 0 -80 -17q-35 -17 -46 -43z" />
<glyph unicode="&#99;" horiz-adv-x="554" d="M326 141q51 0 87 20.5q36 20.5 57 45.5l46 -128q-27 -41 -80.5 -67.5q-53.5 -26.5 -122.5 -26.5q-55 0 -105 20q-50 20 -87.5 57q-37.5 37 -59.5 87.5q-22 50.5 -22 112.5q0 61 22 112q22 51 59.5 88q37.5 37 87.5 57q50 20 105 20q69 0 121 -28q52 -28 78 -67l-43 -125q-19 25 -55.5 44.5q-36.5 19.5 -87.5 19.5q-63 0 -100.5 -33.5q-37.5 -33.5 -37.5 -87.5q0 -54 37.5 -87.5t100.5 -33.5z" />
<glyph unicode="&#100;" horiz-adv-x="671" d="M452 728h147v-728h-142v54q-14 -29 -54 -49q-40 -20 -102 -20q-52 0 -99.5 20q-47.5 20 -83.5 56.5q-36 36.5 -57.5 87.5q-21.5 51 -21.5 113q0 62 21.5 113q21.5 51 57.5 87.5q36 36.5 83.5 56.5q47.5 20 99.5 20q57 0 97 -20q40 -20 54 -49zM452 323q-11 26 -46 43q-35 17 -80 17q-61 0 -99.5 -34q-38.5 -34 -38.5 -87q0 -53 38.5 -87q38.5 -34 99.5 -34q45 0 80 17q35 17 46 43z" />
<glyph unicode="&#101;" horiz-adv-x="613" d="M574 261q0 -13 -0.5 -28q-0.5 -15 -2.5 -24l-381 0q11 -42 48.5 -61.5q37.5 -19.5 89.5 -19.5q48 0 92.5 16.5q44.5 16.5 67.5 48.5l47 -113q-29 -44 -84 -69.5q-55 -25.5 -127 -25.5q-60 0 -112.5 19q-52.5 19 -90.5 55q-38 36 -60 87q-22 51 -22 115q0 56 19 106.5q19 50.5 55 88.5q36 38 86.5 60.5q50.5 22.5 113.5 22.5q59 0 107 -23q48 -23 82.5 -61.5q34.5 -38.5 53 -88.5q18.5 -50 18.5 -105zt0 0zM426 319q-8 38 -39.5 57q-31.5 19 -73.5 19q-43 0 -76.5 -19q-33.5 -19 -43.5 -57z" />
<glyph unicode="&#102;" horiz-adv-x="458" d="M412 564q-17 16 -38 23.5q-21 7.5 -45 7.5q-25 0 -45.5 -13.5q-20.5 -13.5 -20.5 -45.5v-12h157v-154h-157v-370h-147v370h-89v154h89v32q0 87 47.5 137q47.5 50 133.5 50q56 0 92 -18.5q36 -18.5 53 -43.5z" />
<glyph unicode="&#103;" horiz-adv-x="671" d="M452 72q-14 -28 -53.5 -48q-39.5 -20 -96.5 -20q-52 0 -99.5 19q-47.5 19 -84 54.5q-36.5 35.5 -58 84.5q-21.5 49 -21.5 109q0 60 21.5 109q21.5 49 58 84.5q36.5 35.5 84 55q47.5 19.5 99.5 19.5q62 0 101.5 -20.5q39.5 -20.5 53.5 -48.5l0 54h142v-510q0 -54 -19 -98.5q-19 -44.5 -53.5 -76.5q-34.5 -32 -84.5 -50q-50 -18 -111 -18q-42 0 -80 9q-38 9 -68.5 22.5q-30.5 13.5 -52 30.5q-21.5 17 -30.5 34l44 132q11 -13 28.5 -26.5q17.5 -13.5 39.5 -24q22 -10.5 49 -17.5q27 -7 58 -7q22 0 45.5 4.5q23.5 4.5 43 17q19.5 12.5 32 34q12.5 21.5 12.5 55.5zM452 325q-11 25 -46 41.5q-35 16.5 -81 16.5q-61 0 -99 -32q-38 -32 -38 -83q0 -51 38 -84q38 -33 99 -33q46 0 81 16.5q35 16.5 46 41.5z" />
<glyph unicode="&#104;" horiz-adv-x="636" d="M220 0h-147v728h147v-255q11 29 44.5 47.5q33.5 18.5 88.5 18.5q40 0 79 -13.5q39 -13.5 70 -41.5q31 -28 50.5 -71.5q19.5 -43.5 19.5 -103.5v-309h-147v277q0 51 -29 78.5q-29 27.5 -72 27.5q-38 0 -68.5 -20q-30.5 -20 -35.5 -50z" />
<glyph unicode="&#105;" horiz-adv-x="298" d="M76 524h147v-524h-147zM54 677q0 40 27.5 68q27.5 28 67.5 28q40 0 68 -28q28 -28 28 -68q0 -40 -28 -67.5q-28 -27.5 -68 -27.5q-40 0 -67.5 27.5t-27.5 67.5z" />
<glyph unicode="&#106;" horiz-adv-x="302" d="M80 524h147v-574q0 -178 -148 -178q-35 0 -64.5 9q-29.5 9 -49.5 27l15 142q13 -10 27.5 -16q14.5 -6 30.5 -6q23 0 32.5 12q9.5 12 9.5 43zM58 677q0 40 27.5 68q27.5 28 67.5 28q40 0 68 -28q28 -28 28 -68q0 -40 -28 -67.5q-28 -27.5 -68 -27.5q-40 0 -67.5 27.5t-27.5 67.5z" />
<glyph unicode="&#107;" horiz-adv-x="598" d="M73 728h147v-389l172 185h193l-230 -247l253 -277h-195l-193 211v-211l-147 0z" />
<glyph unicode="&#108;" horiz-adv-x="292" d="M73 728h147v-728l-147 0z" />
<glyph unicode="&#109;" horiz-adv-x="942" d="M346 539q44 0 85.5 -18q41.5 -18 72.5 -53q33 43 77.5 57q44.5 14 93.5 14q36 0 72.5 -13q36.5 -13 65.5 -39.5q29 -26.5 47 -66q18 -39.5 18 -91.5v-329h-147v290q0 45 -25.5 69q-25.5 24 -63.5 24q-33 0 -59.5 -19q-26.5 -19 -33.5 -47l0 -317h-147v290q0 45 -25 69q-25 24 -63 24q-34 0 -61 -18.5q-27 -18.5 -33 -46.5l0 -318h-147v524h142v-51q10 28 44.5 47t86.5 19z" />
<glyph unicode="&#110;" horiz-adv-x="636" d="M353 539q40 0 79 -13.5q39 -13.5 70 -41.5q31 -28 50.5 -71.5q19.5 -43.5 19.5 -103.5v-309h-147v277q0 51 -29 78.5q-29 27.5 -72 27.5q-38 0 -68.5 -20q-30.5 -20 -35.5 -50l0 -313h-147v524h142v-51q11 29 46 47.5t92 18.5z" />
<glyph unicode="&#111;" horiz-adv-x="643" d="M322 539q57 0 108 -21q51 -21 90 -57.5q39 -36.5 62 -87.5q23 -51 23 -111q0 -60 -23 -111q-23 -51 -62 -87.5q-39 -36.5 -90 -57.5q-51 -21 -108 -21q-57 0 -108 21q-51 21 -90 57.5q-39 36.5 -62 87.5q-23 51 -23 111q0 60 23 111q23 51 62 87.5q39 36.5 90 57.5q51 21 108 21zt0 0zM322 141q27 0 51.5 9q24.5 9 43 24.5q18.5 15.5 29 38q10.5 22.5 10.5 49.5q0 27 -10.5 49.5q-10.5 22.5 -29 38q-18.5 15.5 -43 24.5q-24.5 9 -51.5 9q-27 0 -51.5 -9q-24.5 -9 -43 -24.5q-18.5 -15.5 -29 -38q-10.5 -22.5 -10.5 -49.5q0 -27 10.5 -49.5q10.5 -22.5 29 -38q18.5 -15.5 43 -24.5t51.5 -9z" />
<glyph unicode="&#112;" horiz-adv-x="671" d="M220 -213h-147v737h142v-54q14 29 54 49q40 20 102 20q52 0 99.5 -20q47.5 -20 83.5 -56.5q36 -36.5 57.5 -87.5q21.5 -51 21.5 -113q0 -62 -21.5 -113q-21.5 -51 -57.5 -87.5q-36 -36.5 -83.5 -56.5q-47.5 -20 -99.5 -20q-57 0 -97 20q-40 20 -54 49zM220 201q11 -26 46 -43q35 -17 80 -17q61 0 99.5 34q38.5 34 38.5 87q0 53 -38.5 87q-38.5 34 -99.5 34q-45 0 -80 -17q-35 -17 -46 -43z" />
<glyph unicode="&#113;" horiz-adv-x="671" d="M452 54q-14 -29 -54 -49q-40 -20 -97 -20q-52 0 -99.5 20q-47.5 20 -83.5 56.5q-36 36.5 -57.5 87.5q-21.5 51 -21.5 113q0 62 21.5 113q21.5 51 57.5 87.5q36 36.5 83.5 56.5q47.5 20 99.5 20q62 0 102 -20q40 -20 54 -49l0 54h142v-737h-147zM452 323q-11 26 -46 43q-35 17 -80 17q-61 0 -99.5 -34q-38.5 -34 -38.5 -87q0 -53 38.5 -87q38.5 -34 99.5 -34q45 0 80 17q35 17 46 43z" />
<glyph unicode="&#115;" horiz-adv-x="452" d="M186 213q-135 67 -135 170q0 33 13.5 61.5q13.5 28.5 37 49.5q23.5 21 56 33q32.5 12 70.5 12q63 0 103 -21.5q40 -21.5 61 -51.5l-29 -125q-32 29 -66 40q-34 11 -61 11q-21 0 -28.5 -6q-7.5 -6 -7.5 -12q0 -8 6.5 -14.5q6.5 -6.5 25.5 -15.5l44 -22q66 -33 101 -71q35 -38 35 -99q0 -36 -13.5 -66.5q-13.5 -30.5 -38.5 -53q-25 -22.5 -60.5 -35q-35.5 -12.5 -78.5 -12.5q-34 0 -63.5 8q-29.5 8 -53 21.5q-23.5 13.5 -40.5 29.5q-17 16 -25 33l41 125q9 -11 22 -24q13 -13 30.5 -23.5q17.5 -10.5 39 -17.5q21.5 -7 47.5 -7q19 0 33 6.5q14 6.5 14 20.5q0 11 -10 18.5q-10 7.5 -33 18.5z" />
<glyph unicode="&#116;" horiz-adv-x="468" d="M420 43q-20 -25 -54.5 -41.5q-34.5 -16.5 -81.5 -16.5q-89 0 -132 50q-43 50 -43 130v205h-89v42l200 244h36v-132h157v-154h-157v-171q0 -32 16.5 -45q16.5 -13 39.5 -13q41 0 77 37z" />
<glyph unicode="&#117;" horiz-adv-x="632" d="M281 -15q-40 0 -79 13.5q-39 13.5 -69.5 41.5q-30.5 28 -49.5 71.5q-19 43.5 -19 103.5v309h147v-277q0 -51 28 -78.5q28 -27.5 71 -27.5q38 0 68 20q30 20 35 50l0 313h147v-524h-142v51q-11 -29 -45.5 -47.5t-91.5 -18.5z" />
<glyph unicode="&#118;" horiz-adv-x="586" d="M229 0l-217 524h156l123 -307l123 307h160l-217 -524z" />
<glyph unicode="&#119;" horiz-adv-x="886" d="M599 234l111 290h165l-210 -524h-128l-94 290l-94 -290h-128l-210 524h162l111 -290l94 290l127 0z" />
<glyph unicode="&#120;" horiz-adv-x="578" d="M183 0h-177l192 276l-170 248h172l87 -127l87 127h178l-173 -248l192 -276h-173l-109 152z" />
<glyph unicode="&#121;" horiz-adv-x="604" d="M16 524h158l125 -294l125 294h162l-314 -737h-160l109 255z" />
<glyph unicode="&#122;" horiz-adv-x="476" d="M52 524h367v-124l-178 -246h189v-154h-384v120l181 250l-175 0z" />
<glyph unicode="&#123;" horiz-adv-x="426" d="M72 331h10q31 0 55 18q24 18 24 56q0 4 0 8q0 4 -1 8l-19 126q-1 7 -1.5 13.5q-0.5 6.5 -0.5 13.5q0 66 46 107.5q46 41.5 125 41.5q26 0 49 -4l0 -126q-4 1 -8 1q-4 0 -8 0q-32 0 -53 -16q-21 -16 -21 -46q0 -3 0 -6.5q0 -3.5 1 -7.5l20 -125q1 -7 1.5 -13q0.5 -6 0.5 -12q0 -36 -17 -58q-17 -22 -40 -33q23 -11 40 -33q17 -22 17 -58q0 -6 -0.5 -12q-0.5 -6 -1.5 -13l-20 -125q-1 -4 -1 -7.5q0 -3.5 0 -6.5q0 -30 21 -46q21 -16 53 -16q4 0 8 0q4 0 8 1l0 -126q-23 -4 -49 -4q-79 0 -125 41.5q-46 41.5 -46 107.5q0 7 0.5 13.5q0.5 6.5 1.5 13.5l19 126q1 4 1 8q0 4 0 8q0 38 -24 56q-24 18 -55 18l-10 0z" />
<glyph unicode="&#124;" horiz-adv-x="300" d="M216 -164h-132v882l132 0z" />
<glyph unicode="&#125;" horiz-adv-x="426" d="M354 331h-10q-31 0 -55 18q-24 18 -24 56q0 4 0 8q0 4 1 8l19 126q1 7 1.5 13.5q0.5 6.5 0.5 13.5q0 66 -46 107.5q-46 41.5 -125 41.5q-26 0 -49 -4l0 -126q4 1 8 1q4 0 8 0q32 0 53 -16q21 -16 21 -46q0 -3 0 -6.5q0 -3.5 -1 -7.5l-20 -125q-1 -7 -1.5 -13q-0.5 -6 -0.5 -12q0 -36 17 -58q17 -22 40 -33q-23 -11 -40 -33q-17 -22 -17 -58q0 -6 0.5 -12q0.5 -6 1.5 -13l20 -125q1 -4 1 -7.5q0 -3.5 0 -6.5q0 -30 -21 -46q-21 -16 -53 -16q-4 0 -8 0q-4 0 -8 1l0 -126q23 -4 49 -4q79 0 125 41.5q46 41.5 46 107.5q0 7 -0.5 13.5q-0.5 6.5 -1.5 13.5l-19 126q-1 4 -1 8q0 4 0 8q0 38 24 56q24 18 55 18l10 0z" />
<glyph unicode="&#160;" horiz-adv-x="270" />
<glyph unicode="&#161;" horiz-adv-x="396" d="M260 311l29 -507h-182l29 507zM288 449q0 -38 -26 -64.5q-26 -26.5 -64 -26.5q-38 0 -64.5 26.5q-26.5 26.5 -26.5 64.5q0 38 26.5 64q26.5 26 64.5 26q38 0 64 -26t26 -64z" />
<glyph unicode="&#162;" horiz-adv-x="555" d="M378 531q46 -11 80.5 -34.5q34.5 -23.5 54.5 -52.5l-44 -127q-14 20 -36.5 37q-22.5 17 -54.5 23l0 -229q31 5 54 24q23 19 38 39l47 -132q-20 -31 -56 -54q-36 -23 -83 -33l0 -109h-96v104q-50 6 -94 28q-44 22 -77 58q-33 36 -52.5 84q-19.5 48 -19.5 105q0 57 19.5 105q19.5 48 52.5 84q33 36 77 58q44 22 94 28l0 90h96zM190 262q0 -43 24 -75.5q24 -32.5 68 -40.5l0 231q-44 -8 -68 -40t-24 -75z" />
<glyph unicode="&#163;" horiz-adv-x="566" d="M61 418h59q-8 23 -12.5 48q-4.5 25 -4.5 51q0 52 16.5 92q16.5 40 45.5 67.5q29 27.5 69 42q40 14.5 88 14.5q37 0 68.5 -9.5q31.5 -9.5 56 -25.5q24.5 -16 41 -37q16.5 -21 24.5 -44l-60 -117q-19 27 -47.5 48q-28.5 21 -74.5 21q-36 0 -54.5 -18.5q-18.5 -18.5 -18.5 -45.5q0 -19 6 -41q6 -22 15 -46l136 0v-145h-95v-6q0 -34 -12 -61.5q-12 -27.5 -23 -41.5l232 0v-164h-456v120q19 9 38 24q19 15 34 34q15 19 24 41q9 22 9 45q0 2 -0.5 4.5q-0.5 2.5 -0.5 4.5l-103 0z" />
<glyph unicode="&#164;" horiz-adv-x="641" d="M499 646l98 -97l-77 -78q24 -45 24 -102q0 -27 -6 -53q-6 -26 -18 -48l77 -77l-98 -98l-77 77q-46 -23 -101 -23q-56 0 -102 23l-77 -77l-98 98l77 77q-12 22 -18 48q-6 26 -6 53q0 57 24 102l-77 78l98 97l77 -76q23 11 48.5 17.5q25.5 6.5 53.5 6.5q28 0 53.5 -6.5q25.5 -6.5 48.5 -17.5zM321 444q-32 0 -55 -21.5q-23 -21.5 -23 -53.5q0 -32 23 -52.5q23 -20.5 55 -20.5q32 0 54.5 20.5q22.5 20.5 22.5 52.5q0 32 -22.5 53.5t-54.5 21.5z" />
<glyph unicode="&#165;" horiz-adv-x="553" d="M162 718l113 -256l112 256h151l-103 -237h53v-114h-103l-18 -37h121v-113h-135v-217h-151v217h-132v113h115l-15 37h-100v114h49l-105 237z" />
<glyph unicode="&#166;" horiz-adv-x="300" d="M216 -164h-132v363h132zM216 355h-132v363l132 0z" />
<glyph unicode="&#167;" horiz-adv-x="588" d="M341 193q11 6 23.5 20q12.5 14 12.5 34q0 18 -19 35q-19 17 -51 39l-61 42q-14 -7 -25 -19.5q-11 -12.5 -11 -31.5q0 -17 18 -36q18 -19 51 -42zM531 268q0 -28 -8 -51.5q-8 -23.5 -21 -42q-13 -18.5 -29 -32.5q-16 -14 -32 -23q31 -31 44.5 -61.5q13.5 -30.5 13.5 -65.5q0 -42 -15 -75.5q-15 -33.5 -42 -56.5q-27 -23 -65.5 -35.5q-38.5 -12.5 -85.5 -12.5q-38 0 -69 8.5q-31 8.5 -55.5 22q-24.5 13.5 -42.5 29.5q-18 16 -30 32l29 138q18 -20 40 -33q22 -13 44.5 -21q22.5 -8 44.5 -11q22 -3 41 -3q27 0 40 7.5q13 7.5 13 18.5q0 7 -7 14.5q-7 7.5 -19 15.5q-12 8 -27 16.5q-15 8.5 -30 17.5q-22 12 -44.5 25q-22.5 13 -36.5 22q-24 15 -46.5 32.5q-22.5 17.5 -40 39q-17.5 21.5 -28 46.5q-10.5 25 -10.5 55q0 28 7.5 52.5q7.5 24.5 20 44q12.5 19.5 28 33q15.5 13.5 32.5 21.5q-27 20 -41.5 55q-14.5 35 -14.5 68q0 40 15 72q15 32 42 54.5q27 22.5 65 35q38 12.5 84 12.5q35 0 66.5 -8q31.5 -8 57 -20.5q25.5 -12.5 44.5 -28q19 -15.5 29 -31.5l-27 -140q-18 18 -41.5 30.5q-23.5 12.5 -47.5 20q-24 7.5 -47 11q-23 3.5 -39 3.5q-21 0 -34 -4.5q-13 -4.5 -13 -15.5q0 -7 7 -14.5q7 -7.5 19 -15.5q12 -8 27 -16.5q15 -8.5 30 -17.5q22 -12 44.5 -25q22.5 -13 36.5 -22q24 -15 46 -32q22 -17 39.5 -38q17.5 -21 28 -45.5t10.5 -54.5z" />
<glyph unicode="&#168;" horiz-adv-x="493" d="M61 671q0 34 24 57q24 23 57 23q34 0 57.5 -23q23.5 -23 23.5 -57q0 -34 -23.5 -57q-23.5 -23 -57.5 -23q-33 0 -57 23q-24 23 -24 57zt0 0zM270 671q0 34 23.5 57q23.5 23 57.5 23q33 0 56.5 -23q23.5 -23 23.5 -57q0 -34 -23.5 -57q-23.5 -23 -56.5 -23q-34 0 -57.5 23t-23.5 57z" />
<glyph unicode="&#169;" horiz-adv-x="812" d="M406 733q78 0 146 -29q68 -29 119 -79.5q51 -50.5 80 -119q29 -68.5 29 -146.5q0 -78 -29 -146q-29 -68 -80 -119q-51 -51 -119 -80q-68 -29 -146 -29q-78 0 -146 29q-68 29 -118.5 80q-50.5 51 -80 119q-29.5 68 -29.5 146q0 78 29.5 146.5q29.5 68.5 80 119q50.5 50.5 118.5 79.5q68 29 146 29zt0 0zM406 65q63 0 117.5 23q54.5 23 95 63q40.5 40 63.5 93.5q23 53.5 23 114.5q0 61 -23 115q-23 54 -63.5 93.5q-40.5 39.5 -95 62.5q-54.5 23 -117.5 23q-62 0 -116.5 -23q-54.5 -23 -95 -62.5q-40.5 -39.5 -64 -93.5q-23.5 -54 -23.5 -115q0 -61 23.5 -114.5q23.5 -53.5 64 -93.5q40.5 -40 95 -63q54.5 -23 116.5 -23zt0 0zM428 250q44 0 76.5 15.5q32.5 15.5 47.5 36.5l30 -85q-17 -32 -59.5 -52q-42.5 -20 -102.5 -20q-44 0 -84.5 16q-40.5 16 -72.5 44.5q-32 28.5 -51 68q-19 39.5 -19 86.5q0 46 19 85.5q19 39.5 51 68.5q32 29 72.5 45q40.5 16 84.5 16q57 0 99 -19.5q42 -19.5 60 -49.5l-31 -85q-15 20 -47 34.5q-32 14.5 -73 14.5q-61 0 -98 -29.5q-37 -29.5 -37 -80.5q0 -50 37 -80t98 -30z" />
<glyph unicode="&#170;" horiz-adv-x="408" d="M195 650q34 0 63 -9q29 -9 50 -26.5q21 -17.5 32.5 -43.5q11.5 -26 11.5 -59v-212h-100v29q-12 -20 -36.5 -29.5q-24.5 -9.5 -54.5 -9.5q-57 0 -90.5 31q-33.5 31 -33.5 83q0 28 12 49q12 21 31.5 35q19.5 14 44 21q24.5 7 50.5 7q28 0 46 -6q18 -6 26 -11q0 26 -19.5 38.5q-19.5 12.5 -43.5 12.5q-33 0 -61 -11.5q-28 -11.5 -45 -28.5l-25 80q10 14 26 25.5q16 11.5 34.5 19q18.5 7.5 39.5 11.5q21 4 42 4zt0 0zM248 424q-4 6 -17.5 12q-13.5 6 -32.5 6q-28 0 -42 -9q-14 -9 -14 -21q0 -15 14.5 -23.5q14.5 -8.5 40.5 -8.5q20 0 33 7q13 7 18 15z" />
<glyph unicode="&#171;" horiz-adv-x="566" d="M519 77h-129l-141 194l141 187h129l-115 -187zM297 77h-129l-141 194l141 187h129l-115 -187z" />
<glyph unicode="&#172;" horiz-adv-x="542" d="M380 338h-336v126h453v-312l-117 0z" />
<glyph unicode="&#173;" horiz-adv-x="472" d="M405 339v-121h-338l0 121z" />
<glyph unicode="&#174;" horiz-adv-x="812" d="M406 733q78 0 146 -29q68 -29 119 -79.5q51 -50.5 80 -119q29 -68.5 29 -146.5q0 -78 -29 -146q-29 -68 -80 -119q-51 -51 -119 -80q-68 -29 -146 -29q-78 0 -146 29q-68 29 -118.5 80q-50.5 51 -80 119q-29.5 68 -29.5 146q0 78 29.5 146.5q29.5 68.5 80 119q50.5 50.5 118.5 79.5q68 29 146 29zt0 0zM406 65q63 0 117.5 23q54.5 23 95 63q40.5 40 63.5 93.5q23 53.5 23 114.5q0 61 -23 115q-23 54 -63.5 93.5q-40.5 39.5 -95 62.5q-54.5 23 -117.5 23q-62 0 -116.5 -23q-54.5 -23 -95 -62.5q-40.5 -39.5 -64 -93.5q-23.5 -54 -23.5 -115q0 -61 23.5 -114.5q23.5 -53.5 64 -93.5q40.5 -40 95 -63q54.5 -23 116.5 -23zt0 0zM287 566h134q24 0 47 -8q23 -8 41.5 -23.5q18.5 -15.5 29.5 -39q11 -23.5 11 -55.5q0 -35 -17 -64q-17 -29 -45 -43l87 -179h-105l-79 164h-7v-164h-97zM384 463v-55h39q15 0 23 7.5q8 7.5 8 20.5q0 12 -8 19.5q-8 7.5 -23 7.5z" />
<glyph unicode="&#175;" horiz-adv-x="465" d="M400 715v-108h-336l0 108z" />
<glyph unicode="&#176;" horiz-adv-x="437" d="M218 728q37 0 69 -14q32 -14 56 -38q24 -24 37.5 -56q13.5 -32 13.5 -68q0 -36 -13.5 -68q-13.5 -32 -37.5 -56q-24 -24 -56 -38q-32 -14 -69 -14q-37 0 -69 14q-32 14 -56 38q-24 24 -37.5 56q-13.5 32 -13.5 68q0 36 13.5 68q13.5 32 37.5 56q24 24 56 38q32 14 69 14zt0 0zM218 495q28 0 45 16.5q17 16.5 17 40.5q0 24 -17 40.5q-17 16.5 -45 16.5q-28 0 -45 -16.5q-17 -16.5 -17 -40.5q0 -24 17 -40.5t45 -16.5z" />
<glyph unicode="&#178;" horiz-adv-x="354" d="M154 603q-29 0 -49.5 -18.5q-20.5 -18.5 -31.5 -38.5l-42 68q4 13 13.5 29q9.5 16 26 29.5q16.5 13.5 39.5 23q23 9.5 55 9.5q32 0 56.5 -10.5q24.5 -10.5 40.5 -28q16 -17.5 24 -40q8 -22.5 8 -45.5q0 -41 -19 -69.5q-19 -28.5 -49 -61.5l-43 -48h123v-102h-273v81l121 124q23 23 31.5 36.5q8.5 13.5 8.5 27.5q0 13 -10 23.5t-30 10.5z" />
<glyph unicode="&#179;" horiz-adv-x="348" d="M156 392q26 0 42 10q16 10 16 27q0 16 -13.5 25q-13.5 9 -36.5 9q-19 0 -33.5 -4q-14.5 -4 -22.5 -9l-15 66l77 77h-121v102h243v-77l-68 -69q13 -4 29 -12q16 -8 30 -22.5q14 -14.5 23 -35q9 -20.5 9 -50.5q0 -29 -11.5 -54.5q-11.5 -25.5 -33 -44q-21.5 -18.5 -51.5 -29.5q-30 -11 -66 -11q-26 0 -46.5 6q-20.5 6 -36.5 15q-16 9 -26.5 19.5q-10.5 10.5 -15.5 20.5q5 20 11 41.5q6 21.5 11 41.5q18 -19 43 -30.5t63 -11.5z" />
<glyph unicode="&#180;" horiz-adv-x="352" d="M294 757l-125 -167h-112l73 167z" />
<glyph unicode="&#181;" horiz-adv-x="641" d="M290 -15q-35 0 -70 11l0 -209h-147v737h147v-277q0 -51 28 -78.5q28 -27.5 71 -27.5q38 0 68 20q30 20 35 50l0 313h147v-524h-142v51q-11 -29 -45.5 -47.5t-91.5 -18.5z" />
<glyph unicode="&#182;" horiz-adv-x="703" d="M645 718v-128h-75v-743h-115v743h-95v-743h-114v460q-43 0 -78.5 15.5q-35.5 15.5 -61.5 43q-26 27.5 -40.5 65q-14.5 37.5 -14.5 82.5q0 45 15.5 82.5q15.5 37.5 42.5 64.5q27 27 65 42.5q38 15.5 83 15.5z" />
<glyph unicode="&#183;" horiz-adv-x="321" d="M65 280q0 40 27.5 68q27.5 28 67.5 28q40 0 68 -28q28 -28 28 -68q0 -40 -28 -67.5q-28 -27.5 -68 -27.5q-40 0 -67.5 27.5t-27.5 67.5z" />
<glyph unicode="&#184;" horiz-adv-x="254" d="M174 -119q0 12 -9 17.5q-9 5.5 -23 5.5q-8 0 -19 -1.5q-11 -1.5 -20 -5.5l-18 40l25 87h74l-18 -63q45 2 73.5 -20q28.5 -22 28.5 -62q0 -24 -9.5 -42.5q-9.5 -18.5 -25.5 -31q-16 -12.5 -38 -19q-22 -6.5 -47 -6.5q-35 0 -67 14.5q-32 14.5 -46 33.5l13 63q25 -17 47 -24.5q22 -7.5 45 -7.5q34 0 34 22z" />
<glyph unicode="&#185;" horiz-adv-x="280" d="M39 613l106 82h72v-395h-98v259l-80 -48z" />
<glyph unicode="&#186;" horiz-adv-x="454" d="M227 650q40 0 74.5 -13.5q34.5 -13.5 60.5 -37.5q26 -24 41 -57q15 -33 15 -72q0 -40 -15 -73q-15 -33 -41 -57q-26 -24 -60.5 -37q-34.5 -13 -74.5 -13q-40 0 -74.5 13q-34.5 13 -60.5 37q-26 24 -41 57q-15 33 -15 73q0 39 15 72q15 33 41 57q26 24 60.5 37.5q34.5 13.5 74.5 13.5zt0 0zM227 398q36 0 60.5 19.5q24.5 19.5 24.5 52.5q0 32 -24.5 52q-24.5 20 -60.5 20q-35 0 -60 -20q-25 -20 -25 -52q0 -33 25 -52.5t60 -19.5z" />
<glyph unicode="&#187;" horiz-adv-x="566" d="M269 77h129l141 194l-141 187h-129l115 -187zM47 77h129l141 194l-141 187h-129l115 -187z" />
<glyph unicode="&#188;" horiz-adv-x="737" d="M226 0h-119l429 718h119zM39 613l106 82h72v-395h-98v259l-80 -48zM715 195v-95h-47v-100h-95v100h-151v76l162 219h84v-200zM573 273l-60 -83l60 0z" />
<glyph unicode="&#189;" horiz-adv-x="804" d="M226 0h-119l429 718h119zM39 613l106 82h72v-395h-98v259l-80 -48zM604 303q-29 0 -49.5 -18.5q-20.5 -18.5 -31.5 -38.5l-42 68q4 13 13.5 29q9.5 16 26 29.5q16.5 13.5 39.5 23q23 9.5 55 9.5q32 0 56.5 -10.5q24.5 -10.5 40.5 -28q16 -17.5 24 -40q8 -22.5 8 -45.5q0 -41 -19 -69.5q-19 -28.5 -49 -61.5l-43 -48h123v-102h-273v81l121 124q23 23 31.5 36.5q8.5 13.5 8.5 27.5q0 13 -10 23.5t-30 10.5z" />
<glyph unicode="&#190;" horiz-adv-x="788" d="M277 0h-119l429 718h119zM766 195v-95h-47v-100h-95v100h-151v76l162 219h84v-200zM624 273l-60 -83h60zM156 392q26 0 42 10q16 10 16 27q0 16 -13.5 25q-13.5 9 -36.5 9q-19 0 -33.5 -4q-14.5 -4 -22.5 -9l-15 66l77 77h-121v102h243v-77l-68 -69q13 -4 29 -12q16 -8 30 -22.5q14 -14.5 23 -35q9 -20.5 9 -50.5q0 -29 -11.5 -54.5q-11.5 -25.5 -33 -44q-21.5 -18.5 -51.5 -29.5q-30 -11 -66 -11q-26 0 -46.5 6q-20.5 6 -36.5 15q-16 9 -26.5 19.5q-10.5 10.5 -15.5 20.5q5 20 11 41.5q6 21.5 11 41.5q18 -19 43 -30.5t63 -11.5z" />
<glyph unicode="&#191;" horiz-adv-x="484" d="M230 183q-26 0 -56 -13.5q-30 -13.5 -51 -36.5l-26 120q22 30 61 49q39 19 87 19q34 0 63 -10q29 -10 50 -28.5q21 -18.5 32.5 -43.5q11.5 -25 11.5 -55q0 -22 -5.5 -41q-5.5 -19 -19.5 -38q-14 -19 -38.5 -39.5q-24.5 -20.5 -61.5 -44.5q-22 -15 -35.5 -25.5q-13.5 -10.5 -20.5 -18.5q-7 -8 -9.5 -14q-2.5 -6 -2.5 -12q0 -17 13.5 -23q13.5 -6 27.5 -6q27 0 49.5 6.5q22.5 6.5 40.5 17q18 10.5 31.5 22.5q13.5 12 22.5 23l33 -116q-23 -35 -70 -60.5q-47 -25.5 -113 -25.5q-39 0 -72 11q-33 11 -56 31q-23 20 -36 49q-13 29 -13 64q0 29 8 51.5q8 22.5 23.5 42q15.5 19.5 40 37.5q24.5 18 57.5 37q35 20 49.5 31.5q14.5 11.5 14.5 23.5q0 6 -6.5 11q-6.5 5 -23.5 5zt0 0zM338 449q0 -38 -26 -64.5q-26 -26.5 -64 -26.5q-38 0 -64.5 26.5q-26.5 26.5 -26.5 64.5q0 38 26.5 64q26.5 26 64.5 26q38 0 64 -26t26 -64z" />
<glyph unicode="&#192;" horiz-adv-x="723" d="M720 0h-158l-54 138h-289l-55 -138h-161l287 718h144zM279 295h166l-81 207zM343 929l73 -157h-109l-126 157z" />
<glyph unicode="&#193;" horiz-adv-x="723" d="M720 0h-158l-54 138h-289l-55 -138h-161l287 718h144zM279 295h166l-81 207zM534 929l-125 -157h-110l73 157z" />
<glyph unicode="&#194;" horiz-adv-x="723" d="M720 0h-158l-54 138h-289l-55 -138h-161l287 718h144zM279 295h166l-81 207zM443 929l91 -157h-106l-67 72l-67 -72h-105l90 157z" />
<glyph unicode="&#195;" horiz-adv-x="723" d="M720 0h-158l-54 138h-289l-55 -138h-161l287 718h144zM279 295h166l-81 207zM199 769q-8 17 -11.5 32q-3.5 15 -3.5 29q0 45 28 71q28 26 74 26q24 0 44.5 -8q20.5 -8 38.5 -17.5q18 -9.5 33 -17.5q15 -8 28 -8q20 0 20 18q0 13 -9 33l89 0q8 -17 11 -32.5q3 -15.5 3 -29.5q0 -44 -26.5 -70q-26.5 -26 -71.5 -26q-24 0 -45 8q-21 8 -39 17.5q-18 9.5 -33.5 17.5q-15.5 8 -28.5 8q-9 0 -15 -5q-6 -5 -6 -15q0 -13 9 -31z" />
<glyph unicode="&#196;" horiz-adv-x="723" d="M720 0h-158l-54 138h-289l-55 -138h-161l287 718h144zM279 295h166l-81 207zM177 848q0 32 22 54.5q22 22.5 54 22.5q32 0 54.5 -22.5q22.5 -22.5 22.5 -54.5q0 -32 -22.5 -54q-22.5 -22 -54.5 -22q-32 0 -54 22q-22 22 -22 54zt0 0zM397 848q0 32 22.5 54.5q22.5 22.5 54.5 22.5q32 0 54 -22.5q22 -22.5 22 -54.5q0 -32 -22 -54q-22 -22 -54 -22q-32 0 -54.5 22t-22.5 54z" />
<glyph unicode="&#197;" horiz-adv-x="723" d="M720 0h-158l-54 138h-289l-55 -138h-161l287 718h144zM279 295h166l-81 207zM250 852q0 23 9 43.5q9 20.5 24.5 36q15.5 15.5 36 24.5q20.5 9 44.5 9q24 0 44.5 -9q20.5 -9 36 -24.5q15.5 -15.5 24.5 -36q9 -20.5 9 -43.5q0 -23 -9 -43.5q-9 -20.5 -24.5 -36q-15.5 -15.5 -36 -24.5q-20.5 -9 -44.5 -9q-24 0 -44.5 9q-20.5 9 -36 24.5q-15.5 15.5 -24.5 36q-9 20.5 -9 43.5zt0 0zM399 852q0 14 -10 23q-10 9 -25 9q-15 0 -25 -9q-10 -9 -10 -23q0 -14 10 -23q10 -9 25 -9q15 0 25 9t10 23z" />
<glyph unicode="&#198;" horiz-adv-x="948" d="M485 137h-244l-85 -137h-174l446 718h460v-164h-251v-103h221v-164h-221v-123h251v-164h-403zM339 296h146l0 235z" />
<glyph unicode="&#199;" horiz-adv-x="706" d="M436 -119q0 12 -9 17.5q-9 5.5 -23 5.5q-8 0 -19 -1.5q-11 -1.5 -20 -5.5l-18 40l14 51q-66 8 -125.5 38q-59.5 30 -105 78.5q-45.5 48.5 -72 113q-26.5 64.5 -26.5 141.5q0 83 31.5 151.5q31.5 68.5 83.5 118q52 49.5 119.5 77q67.5 27.5 140.5 27.5q47 0 89 -9.5q42 -9.5 76 -26.5q34 -17 60 -39.5q26 -22.5 41 -47.5l-47 -134q-14 17 -34.5 34q-20.5 17 -47 30q-26.5 13 -58 21q-31.5 8 -66.5 8q-51 0 -93.5 -15q-42.5 -15 -73 -42q-30.5 -27 -48 -66q-17.5 -39 -17.5 -87q0 -48 17.5 -87q17.5 -39 48 -66q30.5 -27 73 -42q42.5 -15 93.5 -15q37 0 69.5 8.5q32.5 8.5 59.5 22q27 13.5 47 31q20 17.5 34 35.5l48 -137q-30 -51 -92.5 -84.5q-62.5 -33.5 -150.5 -38.5l-7 -25q45 2 73.5 -20q28.5 -22 28.5 -62q0 -24 -9.5 -42.5q-9.5 -18.5 -25.5 -31q-16 -12.5 -38 -19q-22 -6.5 -47 -6.5q-35 0 -67 14.5q-32 14.5 -46 33.5l13 63q25 -17 47 -24.5q22 -7.5 45 -7.5q34 0 34 22z" />
<glyph unicode="&#200;" horiz-adv-x="545" d="M82 718h403v-164h-251v-103h221v-164h-221v-123h251v-164h-403zM296 929l73 -157h-109l-126 157z" />
<glyph unicode="&#201;" horiz-adv-x="545" d="M82 718h403v-164h-251v-103h221v-164h-221v-123h251v-164h-403zM440 929l-125 -157h-110l73 157z" />
<glyph unicode="&#202;" horiz-adv-x="545" d="M82 718h403v-164h-251v-103h221v-164h-221v-123h251v-164h-403zM362 929l91 -157h-106l-67 72l-67 -72h-105l90 157z" />
<glyph unicode="&#203;" horiz-adv-x="545" d="M82 718h403v-164h-251v-103h221v-164h-221v-123h251v-164h-403zM94 848q0 32 22 54.5q22 22.5 54 22.5q32 0 54.5 -22.5q22.5 -22.5 22.5 -54.5q0 -32 -22.5 -54q-22.5 -22 -54.5 -22q-32 0 -54 22q-22 22 -22 54zt0 0zM314 848q0 32 22.5 54.5q22.5 22.5 54.5 22.5q32 0 54 -22.5q22 -22.5 22 -54.5q0 -32 -22 -54q-22 -22 -54 -22q-32 0 -54.5 22t-22.5 54z" />
<glyph unicode="&#204;" horiz-adv-x="316" d="M82 718h152v-718h-152zM145 929l73 -157h-109l-126 157z" />
<glyph unicode="&#205;" horiz-adv-x="316" d="M82 718h152v-718h-152zM337 929l-125 -157h-110l73 157z" />
<glyph unicode="&#206;" horiz-adv-x="316" d="M82 718h152v-718h-152zM241 929l91 -157h-106l-67 72l-67 -72h-105l90 157z" />
<glyph unicode="&#207;" horiz-adv-x="316" d="M82 718h152v-718h-152zM-30 848q0 32 22 54.5q22 22.5 54 22.5q32 0 54.5 -22.5q22.5 -22.5 22.5 -54.5q0 -32 -22.5 -54q-22.5 -22 -54.5 -22q-32 0 -54 22q-22 22 -22 54zt0 0zM190 848q0 32 22.5 54.5q22.5 22.5 54.5 22.5q32 0 54 -22.5q22 -22.5 22 -54.5q0 -32 -22 -54q-22 -22 -54 -22q-32 0 -54.5 22t-22.5 54z" />
<glyph unicode="&#208;" horiz-adv-x="762" d="M337 718q85 0 157.5 -24q72.5 -24 124.5 -69.5q52 -45.5 81.5 -112.5q29.5 -67 29.5 -153q0 -85 -30 -151.5q-30 -66.5 -82.5 -112.5q-52.5 -46 -124.5 -70.5q-72 -24.5 -156 -24.5h-227v287h-106v164h106v267zM574 359q0 41 -14.5 76.5q-14.5 35.5 -41 62q-26.5 26.5 -62.5 41.5q-36 15 -79 15h-115v-103h144v-164h-144v-123h115q42 0 78 14q36 14 62.5 39.5q26.5 25.5 41.5 61.5t15 80z" />
<glyph unicode="&#209;" horiz-adv-x="770" d="M82 718h147l307 -445v445h152v-718h-149l-305 442v-442h-152zM224 769q-8 17 -11.5 32q-3.5 15 -3.5 29q0 45 28 71q28 26 74 26q24 0 44.5 -8q20.5 -8 38.5 -17.5q18 -9.5 33 -17.5q15 -8 28 -8q20 0 20 18q0 13 -9 33l89 0q8 -17 11 -32.5q3 -15.5 3 -29.5q0 -44 -26.5 -70q-26.5 -26 -71.5 -26q-24 0 -45 8q-21 8 -39 17.5q-18 9.5 -33.5 17.5q-15.5 8 -28.5 8q-9 0 -15 -5q-6 -5 -6 -15q0 -13 9 -31z" />
<glyph unicode="&#210;" horiz-adv-x="816" d="M408 733q76 0 144.5 -27.5q68.5 -27.5 120 -77q51.5 -49.5 81.5 -118.5q30 -69 30 -151q0 -83 -30 -151.5q-30 -68.5 -81.5 -118q-51.5 -49.5 -120 -77q-68.5 -27.5 -144.5 -27.5q-76 0 -144.5 27.5q-68.5 27.5 -120 77q-51.5 49.5 -81.5 118q-30 68.5 -30 151.5q0 82 30 151q30 69 81.5 118.5q51.5 49.5 120 77q68.5 27.5 144.5 27.5zt0 0zM408 149q46 0 86.5 15.5q40.5 15.5 70 43q29.5 27.5 46.5 66q17 38.5 17 85.5q0 46 -17 85q-17 39 -46.5 66.5q-29.5 27.5 -70 43q-40.5 15.5 -86.5 15.5q-47 0 -87 -15.5q-40 -15.5 -69.5 -43q-29.5 -27.5 -46.5 -66.5q-17 -39 -17 -85q0 -47 17 -85.5q17 -38.5 46.5 -66q29.5 -27.5 69.5 -43q40 -15.5 87 -15.5zt0 0zM407 929l73 -157h-109l-126 157z" />
<glyph unicode="&#211;" horiz-adv-x="816" d="M408 733q76 0 144.5 -27.5q68.5 -27.5 120 -77q51.5 -49.5 81.5 -118.5q30 -69 30 -151q0 -83 -30 -151.5q-30 -68.5 -81.5 -118q-51.5 -49.5 -120 -77q-68.5 -27.5 -144.5 -27.5q-76 0 -144.5 27.5q-68.5 27.5 -120 77q-51.5 49.5 -81.5 118q-30 68.5 -30 151.5q0 82 30 151q30 69 81.5 118.5q51.5 49.5 120 77q68.5 27.5 144.5 27.5zt0 0zM408 149q46 0 86.5 15.5q40.5 15.5 70 43q29.5 27.5 46.5 66q17 38.5 17 85.5q0 46 -17 85q-17 39 -46.5 66.5q-29.5 27.5 -70 43q-40.5 15.5 -86.5 15.5q-47 0 -87 -15.5q-40 -15.5 -69.5 -43q-29.5 -27.5 -46.5 -66.5q-17 -39 -17 -85q0 -47 17 -85.5q17 -38.5 46.5 -66q29.5 -27.5 69.5 -43q40 -15.5 87 -15.5zt0 0zM571 929l-125 -157h-110l73 157z" />
<glyph unicode="&#212;" horiz-adv-x="816" d="M408 733q76 0 144.5 -27.5q68.5 -27.5 120 -77q51.5 -49.5 81.5 -118.5q30 -69 30 -151q0 -83 -30 -151.5q-30 -68.5 -81.5 -118q-51.5 -49.5 -120 -77q-68.5 -27.5 -144.5 -27.5q-76 0 -144.5 27.5q-68.5 27.5 -120 77q-51.5 49.5 -81.5 118q-30 68.5 -30 151.5q0 82 30 151q30 69 81.5 118.5q51.5 49.5 120 77q68.5 27.5 144.5 27.5zt0 0zM408 149q46 0 86.5 15.5q40.5 15.5 70 43q29.5 27.5 46.5 66q17 38.5 17 85.5q0 46 -17 85q-17 39 -46.5 66.5q-29.5 27.5 -70 43q-40.5 15.5 -86.5 15.5q-47 0 -87 -15.5q-40 -15.5 -69.5 -43q-29.5 -27.5 -46.5 -66.5q-17 -39 -17 -85q0 -47 17 -85.5q17 -38.5 46.5 -66q29.5 -27.5 69.5 -43q40 -15.5 87 -15.5zt0 0zM491 929l91 -157h-106l-67 72l-67 -72h-105l90 157z" />
<glyph unicode="&#213;" horiz-adv-x="816" d="M408 733q76 0 144.5 -27.5q68.5 -27.5 120 -77q51.5 -49.5 81.5 -118.5q30 -69 30 -151q0 -83 -30 -151.5q-30 -68.5 -81.5 -118q-51.5 -49.5 -120 -77q-68.5 -27.5 -144.5 -27.5q-76 0 -144.5 27.5q-68.5 27.5 -120 77q-51.5 49.5 -81.5 118q-30 68.5 -30 151.5q0 82 30 151q30 69 81.5 118.5q51.5 49.5 120 77q68.5 27.5 144.5 27.5zt0 0zM408 149q46 0 86.5 15.5q40.5 15.5 70 43q29.5 27.5 46.5 66q17 38.5 17 85.5q0 46 -17 85q-17 39 -46.5 66.5q-29.5 27.5 -70 43q-40.5 15.5 -86.5 15.5q-47 0 -87 -15.5q-40 -15.5 -69.5 -43q-29.5 -27.5 -46.5 -66.5q-17 -39 -17 -85q0 -47 17 -85.5q17 -38.5 46.5 -66q29.5 -27.5 69.5 -43q40 -15.5 87 -15.5zt0 0zM243 769q-8 17 -11.5 32q-3.5 15 -3.5 29q0 45 28 71q28 26 74 26q24 0 44.5 -8q20.5 -8 38.5 -17.5q18 -9.5 33 -17.5q15 -8 28 -8q20 0 20 18q0 13 -9 33l89 0q8 -17 11 -32.5q3 -15.5 3 -29.5q0 -44 -26.5 -70q-26.5 -26 -71.5 -26q-24 0 -45 8q-21 8 -39 17.5q-18 9.5 -33.5 17.5q-15.5 8 -28.5 8q-9 0 -15 -5q-6 -5 -6 -15q0 -13 9 -31z" />
<glyph unicode="&#214;" horiz-adv-x="816" d="M408 733q76 0 144.5 -27.5q68.5 -27.5 120 -77q51.5 -49.5 81.5 -118.5q30 -69 30 -151q0 -83 -30 -151.5q-30 -68.5 -81.5 -118q-51.5 -49.5 -120 -77q-68.5 -27.5 -144.5 -27.5q-76 0 -144.5 27.5q-68.5 27.5 -120 77q-51.5 49.5 -81.5 118q-30 68.5 -30 151.5q0 82 30 151q30 69 81.5 118.5q51.5 49.5 120 77q68.5 27.5 144.5 27.5zt0 0zM408 149q46 0 86.5 15.5q40.5 15.5 70 43q29.5 27.5 46.5 66q17 38.5 17 85.5q0 46 -17 85q-17 39 -46.5 66.5q-29.5 27.5 -70 43q-40.5 15.5 -86.5 15.5q-47 0 -87 -15.5q-40 -15.5 -69.5 -43q-29.5 -27.5 -46.5 -66.5q-17 -39 -17 -85q0 -47 17 -85.5q17 -38.5 46.5 -66q29.5 -27.5 69.5 -43q40 -15.5 87 -15.5zt0 0zM221 848q0 32 22 54.5q22 22.5 54 22.5q32 0 54.5 -22.5q22.5 -22.5 22.5 -54.5q0 -32 -22.5 -54q-22.5 -22 -54.5 -22q-32 0 -54 22q-22 22 -22 54zt0 0zM441 848q0 32 22.5 54.5q22.5 22.5 54.5 22.5q32 0 54 -22.5q22 -22.5 22 -54.5q0 -32 -22 -54q-22 -22 -54 -22q-32 0 -54.5 22t-22.5 54z" />
<glyph unicode="&#216;" horiz-adv-x="826" d="M705 598q39 -48 61.5 -108q22.5 -60 22.5 -131q0 -83 -30 -151.5q-30 -68.5 -81.5 -118q-51.5 -49.5 -120 -77q-68.5 -27.5 -144.5 -27.5q-51 0 -98 12.5q-47 12.5 -89 35.5l-41 -48h-179l114 135q-39 48 -61 108q-22 60 -22 131q0 82 30 151q30 69 81.5 118.5q51.5 49.5 120 77q68.5 27.5 144.5 27.5q51 0 97.5 -12.5q46.5 -12.5 88.5 -35.5l41 48h179zM413 149q47 0 87.5 15q40.5 15 70 42q29.5 27 46 66q16.5 39 16.5 87q0 66 -33 116l-266 -314q36 -12 79 -12zt0 0zM193 359q0 -67 32 -116l266 314q-36 12 -78 12q-47 0 -87.5 -15q-40.5 -15 -70 -42q-29.5 -27 -46 -66t-16.5 -87z" />
<glyph unicode="&#217;" horiz-adv-x="732" d="M503 718h152v-434q0 -65 -20.5 -120q-20.5 -55 -58 -95q-37.5 -40 -91 -62q-53.5 -22 -120.5 -22q-65 0 -118 21.5q-53 21.5 -90.5 60.5q-37.5 39 -58.5 94q-21 55 -21 122v435h152v-430q0 -64 37.5 -101.5q37.5 -37.5 100.5 -37.5q63 0 99.5 38.5q36.5 38.5 36.5 101.5zM370 929l73 -157h-109l-126 157z" />
<glyph unicode="&#218;" horiz-adv-x="732" d="M503 718h152v-434q0 -65 -20.5 -120q-20.5 -55 -58 -95q-37.5 -40 -91 -62q-53.5 -22 -120.5 -22q-65 0 -118 21.5q-53 21.5 -90.5 60.5q-37.5 39 -58.5 94q-21 55 -21 122v435h152v-430q0 -64 37.5 -101.5q37.5 -37.5 100.5 -37.5q63 0 99.5 38.5q36.5 38.5 36.5 101.5zM523 929l-125 -157h-110l73 157z" />
<glyph unicode="&#219;" horiz-adv-x="732" d="M503 718h152v-434q0 -65 -20.5 -120q-20.5 -55 -58 -95q-37.5 -40 -91 -62q-53.5 -22 -120.5 -22q-65 0 -118 21.5q-53 21.5 -90.5 60.5q-37.5 39 -58.5 94q-21 55 -21 122v435h152v-430q0 -64 37.5 -101.5q37.5 -37.5 100.5 -37.5q63 0 99.5 38.5q36.5 38.5 36.5 101.5zM449 929l91 -157h-106l-67 72l-67 -72h-105l90 157z" />
<glyph unicode="&#220;" horiz-adv-x="732" d="M503 718h152v-434q0 -65 -20.5 -120q-20.5 -55 -58 -95q-37.5 -40 -91 -62q-53.5 -22 -120.5 -22q-65 0 -118 21.5q-53 21.5 -90.5 60.5q-37.5 39 -58.5 94q-21 55 -21 122v435h152v-430q0 -64 37.5 -101.5q37.5 -37.5 100.5 -37.5q63 0 99.5 38.5q36.5 38.5 36.5 101.5zM179 848q0 32 22 54.5q22 22.5 54 22.5q32 0 54.5 -22.5q22.5 -22.5 22.5 -54.5q0 -32 -22.5 -54q-22.5 -22 -54.5 -22q-32 0 -54 22q-22 22 -22 54zt0 0zM399 848q0 32 22.5 54.5q22.5 22.5 54.5 22.5q32 0 54 -22.5q22 -22.5 22 -54.5q0 -32 -22 -54q-22 -22 -54 -22q-32 0 -54.5 22t-22.5 54z" />
<glyph unicode="&#221;" horiz-adv-x="615" d="M3 718h167l136 -243l137 243h169l-228 -417v-301h-151v301zM479 929l-125 -157h-110l73 157z" />
<glyph unicode="&#222;" horiz-adv-x="552" d="M234 718v-132h57q51 0 94.5 -16q43.5 -16 76 -46q32.5 -30 50.5 -72q18 -42 18 -93q0 -50 -17.5 -91.5q-17.5 -41.5 -49 -71.5q-31.5 -30 -75.5 -46.5q-44 -16.5 -96 -16.5h-58v-133h-152v718zM234 427v-135h75q31 0 50.5 17.5q19.5 17.5 19.5 49.5q0 31 -19 49.5q-19 18.5 -51 18.5z" />
<glyph unicode="&#223;" horiz-adv-x="641" d="M385 524q0 29 -21.5 50q-21.5 21 -58.5 21q-38 0 -61.5 -25q-23.5 -25 -23.5 -65v-505h-147v513q0 53 17.5 95.5q17.5 42.5 48 72.5q30.5 30 72.5 46q42 16 92 16q49 0 91.5 -16.5q42.5 -16.5 73.5 -45q31 -28.5 48.5 -67q17.5 -38.5 17.5 -82.5q0 -37 -11.5 -68.5q-11.5 -31.5 -34.5 -52.5q25 -11 46.5 -30q21.5 -19 37 -44q15.5 -25 24.5 -54q9 -29 9 -60q0 -48 -17.5 -90.5q-17.5 -42.5 -47.5 -74q-30 -31.5 -71 -50q-41 -18.5 -88 -18.5q-44 0 -73.5 11.5q-29.5 11.5 -46.5 29.5l29 128q15 -11 33.5 -16q18.5 -5 37.5 -5q45 0 70 24.5q25 24.5 25 59.5q0 45 -32.5 69.5q-32.5 24.5 -81.5 24.5h-51v137h8q43 0 64.5 18.5t21.5 52.5z" />
<glyph unicode="&#224;" horiz-adv-x="574" d="M358 190q-5 11 -27.5 20.5q-22.5 9.5 -54.5 9.5q-45 0 -66.5 -14.5q-21.5 -14.5 -21.5 -37.5q0 -25 23 -38.5q23 -13.5 64 -13.5q32 0 53.5 11q21.5 11 29.5 26zM66 450q13 21 36 37.5q23 16.5 51 28q28 11.5 59.5 17.5q31.5 6 60.5 6q52 0 94.5 -14q42.5 -14 73 -41q30.5 -27 47.5 -66.5q17 -39.5 17 -90.5v-327h-142v45q-19 -29 -58.5 -44.5q-39.5 -15.5 -81.5 -15.5q-38 0 -71.5 12.5q-33.5 12.5 -58.5 35q-25 22.5 -39.5 54.5q-14.5 32 -14.5 71q0 42 17 74.5q17 32.5 45.5 54q28.5 21.5 65 33q36.5 11.5 75.5 11.5q58 0 85 -13q27 -13 31 -20l0 14q0 42 -30 60.5q-30 18.5 -72 18.5q-48 0 -91 -17q-43 -17 -65 -42zM293 757l73 -167h-112l-125 167z" />
<glyph unicode="&#225;" horiz-adv-x="574" d="M358 190q-5 11 -27.5 20.5q-22.5 9.5 -54.5 9.5q-45 0 -66.5 -14.5q-21.5 -14.5 -21.5 -37.5q0 -25 23 -38.5q23 -13.5 64 -13.5q32 0 53.5 11q21.5 11 29.5 26zM66 450q13 21 36 37.5q23 16.5 51 28q28 11.5 59.5 17.5q31.5 6 60.5 6q52 0 94.5 -14q42.5 -14 73 -41q30.5 -27 47.5 -66.5q17 -39.5 17 -90.5v-327h-142v45q-19 -29 -58.5 -44.5q-39.5 -15.5 -81.5 -15.5q-38 0 -71.5 12.5q-33.5 12.5 -58.5 35q-25 22.5 -39.5 54.5q-14.5 32 -14.5 71q0 42 17 74.5q17 32.5 45.5 54q28.5 21.5 65 33q36.5 11.5 75.5 11.5q58 0 85 -13q27 -13 31 -20l0 14q0 42 -30 60.5q-30 18.5 -72 18.5q-48 0 -91 -17q-43 -17 -65 -42zM441 757l-125 -167h-112l73 167z" />
<glyph unicode="&#226;" horiz-adv-x="574" d="M358 190q-5 11 -27.5 20.5q-22.5 9.5 -54.5 9.5q-45 0 -66.5 -14.5q-21.5 -14.5 -21.5 -37.5q0 -25 23 -38.5q23 -13.5 64 -13.5q32 0 53.5 11q21.5 11 29.5 26zM66 450q13 21 36 37.5q23 16.5 51 28q28 11.5 59.5 17.5q31.5 6 60.5 6q52 0 94.5 -14q42.5 -14 73 -41q30.5 -27 47.5 -66.5q17 -39.5 17 -90.5v-327h-142v45q-19 -29 -58.5 -44.5q-39.5 -15.5 -81.5 -15.5q-38 0 -71.5 12.5q-33.5 12.5 -58.5 35q-25 22.5 -39.5 54.5q-14.5 32 -14.5 71q0 42 17 74.5q17 32.5 45.5 54q28.5 21.5 65 33q36.5 11.5 75.5 11.5q58 0 85 -13q27 -13 31 -20l0 14q0 42 -30 60.5q-30 18.5 -72 18.5q-48 0 -91 -17q-43 -17 -65 -42zM373 757l90 -167h-110l-67 82l-67 -82h-110l91 167z" />
<glyph unicode="&#227;" horiz-adv-x="574" d="M358 190q-5 11 -27.5 20.5q-22.5 9.5 -54.5 9.5q-45 0 -66.5 -14.5q-21.5 -14.5 -21.5 -37.5q0 -25 23 -38.5q23 -13.5 64 -13.5q32 0 53.5 11q21.5 11 29.5 26zM66 450q13 21 36 37.5q23 16.5 51 28q28 11.5 59.5 17.5q31.5 6 60.5 6q52 0 94.5 -14q42.5 -14 73 -41q30.5 -27 47.5 -66.5q17 -39.5 17 -90.5v-327h-142v45q-19 -29 -58.5 -44.5q-39.5 -15.5 -81.5 -15.5q-38 0 -71.5 12.5q-33.5 12.5 -58.5 35q-25 22.5 -39.5 54.5q-14.5 32 -14.5 71q0 42 17 74.5q17 32.5 45.5 54q28.5 21.5 65 33q36.5 11.5 75.5 11.5q58 0 85 -13q27 -13 31 -20l0 14q0 42 -30 60.5q-30 18.5 -72 18.5q-48 0 -91 -17q-43 -17 -65 -42zM122 592q-8 17 -11.5 32q-3.5 15 -3.5 29q0 45 28 71q28 26 74 26q24 0 44.5 -8q20.5 -8 38.5 -17.5q18 -9.5 33 -17.5q15 -8 28 -8q20 0 20 18q0 13 -9 33l89 0q8 -17 11 -32.5q3 -15.5 3 -29.5q0 -44 -26.5 -70q-26.5 -26 -71.5 -26q-24 0 -45 8q-21 8 -39 17.5q-18 9.5 -33.5 17.5q-15.5 8 -28.5 8q-9 0 -15 -5q-6 -5 -6 -15q0 -13 9 -31z" />
<glyph unicode="&#228;" horiz-adv-x="574" d="M358 190q-5 11 -27.5 20.5q-22.5 9.5 -54.5 9.5q-45 0 -66.5 -14.5q-21.5 -14.5 -21.5 -37.5q0 -25 23 -38.5q23 -13.5 64 -13.5q32 0 53.5 11q21.5 11 29.5 26zM66 450q13 21 36 37.5q23 16.5 51 28q28 11.5 59.5 17.5q31.5 6 60.5 6q52 0 94.5 -14q42.5 -14 73 -41q30.5 -27 47.5 -66.5q17 -39.5 17 -90.5v-327h-142v45q-19 -29 -58.5 -44.5q-39.5 -15.5 -81.5 -15.5q-38 0 -71.5 12.5q-33.5 12.5 -58.5 35q-25 22.5 -39.5 54.5q-14.5 32 -14.5 71q0 42 17 74.5q17 32.5 45.5 54q28.5 21.5 65 33q36.5 11.5 75.5 11.5q58 0 85 -13q27 -13 31 -20l0 14q0 42 -30 60.5q-30 18.5 -72 18.5q-48 0 -91 -17q-43 -17 -65 -42zM100 671q0 34 24 57q24 23 57 23q34 0 57.5 -23q23.5 -23 23.5 -57q0 -34 -23.5 -57q-23.5 -23 -57.5 -23q-33 0 -57 23q-24 23 -24 57zt0 0zM309 671q0 34 23.5 57q23.5 23 57.5 23q33 0 56.5 -23q23.5 -23 23.5 -57q0 -34 -23.5 -57q-23.5 -23 -56.5 -23q-34 0 -57.5 23t-23.5 57z" />
<glyph unicode="&#229;" horiz-adv-x="574" d="M358 190q-5 11 -27.5 20.5q-22.5 9.5 -54.5 9.5q-45 0 -66.5 -14.5q-21.5 -14.5 -21.5 -37.5q0 -25 23 -38.5q23 -13.5 64 -13.5q32 0 53.5 11q21.5 11 29.5 26zM66 450q13 21 36 37.5q23 16.5 51 28q28 11.5 59.5 17.5q31.5 6 60.5 6q52 0 94.5 -14q42.5 -14 73 -41q30.5 -27 47.5 -66.5q17 -39.5 17 -90.5v-327h-142v45q-19 -29 -58.5 -44.5q-39.5 -15.5 -81.5 -15.5q-38 0 -71.5 12.5q-33.5 12.5 -58.5 35q-25 22.5 -39.5 54.5q-14.5 32 -14.5 71q0 42 17 74.5q17 32.5 45.5 54q28.5 21.5 65 33q36.5 11.5 75.5 11.5q58 0 85 -13q27 -13 31 -20l0 14q0 42 -30 60.5q-30 18.5 -72 18.5q-48 0 -91 -17q-43 -17 -65 -42zM173 689q0 24 9 44.5q9 20.5 24.5 36q15.5 15.5 36.5 24.5q21 9 45 9q24 0 45 -9q21 -9 36.5 -24.5q15.5 -15.5 24.5 -36q9 -20.5 9 -44.5q0 -24 -9 -44.5q-9 -20.5 -24.5 -36q-15.5 -15.5 -36.5 -24.5q-21 -9 -45 -9q-24 0 -45 9q-21 9 -36.5 24.5q-15.5 15.5 -24.5 36q-9 20.5 -9 44.5zt0 0zM323 689q0 14 -10 23q-10 9 -25 9q-15 0 -25 -9q-10 -9 -10 -23q0 -14 10 -23q10 -9 25 -9q15 0 25 9t10 23z" />
<glyph unicode="&#230;" horiz-adv-x="925" d="M64 448q13 21 35.5 38q22.5 17 51 29q28.5 12 59.5 18q31 6 60 6q112 0 177 -62q35 29 79.5 45.5q44.5 16.5 98.5 16.5q59 0 107 -23q48 -23 82.5 -61.5q34.5 -38.5 53 -88.5q18.5 -50 18.5 -105q0 -13 -0.5 -28q-0.5 -15 -2.5 -24l-381 0q11 -42 48.5 -61.5q37.5 -19.5 89.5 -19.5q48 0 92 17q44 17 67 49l49 -117q-29 -44 -84.5 -68q-55.5 -24 -127.5 -24q-66 0 -121 22q-55 22 -94 64q-31 -42 -79 -64q-48 -22 -117 -22q-39 0 -73 12.5q-34 12.5 -59 35q-25 22.5 -39.5 54.5q-14.5 32 -14.5 71q0 42 17 74.5q17 32.5 45.5 54q28.5 21.5 65 33q36.5 11.5 75.5 11.5q58 0 85 -13q27 -13 31 -20l0 13q0 23 -9 39q-9 16 -23.5 25.5q-14.5 9.5 -33 14q-18.5 4.5 -36.5 4.5q-51 0 -93.5 -19.5q-42.5 -19.5 -64.5 -44.5zM358 190q-5 11 -27.5 20.5q-22.5 9.5 -54.5 9.5q-45 0 -66.5 -14.5q-21.5 -14.5 -21.5 -37.5q0 -25 23 -38.5q23 -13.5 64 -13.5q32 0 53.5 11q21.5 11 29.5 26zM738 319q-8 38 -39.5 56.5q-31.5 18.5 -73.5 18.5q-43 0 -76.5 -18.5q-33.5 -18.5 -43.5 -56.5z" />
<glyph unicode="&#231;" horiz-adv-x="554" d="M333 -119q0 12 -9 17.5q-9 5.5 -23 5.5q-8 0 -19 -1.5q-11 -1.5 -20 -5.5l-18 40l15 53q-46 9 -86 32.5q-40 23.5 -70 58.5q-30 35 -47 81q-17 46 -17 100q0 61 22 112q22 51 59.5 88q37.5 37 87.5 57q50 20 105 20q69 0 121 -28q52 -28 78 -67l-43 -125q-19 25 -55.5 44.5q-36.5 19.5 -87.5 19.5q-63 0 -100.5 -33.5q-37.5 -33.5 -37.5 -87.5q0 -54 37.5 -87.5q37.5 -33.5 100.5 -33.5q51 0 87 20.5q36 20.5 57 45.5l46 -128q-26 -38 -74 -63.5q-48 -25.5 -110 -29.5l-7 -25q45 2 73.5 -20q28.5 -22 28.5 -62q0 -24 -9.5 -42.5q-9.5 -18.5 -25.5 -31q-16 -12.5 -38 -19q-22 -6.5 -47 -6.5q-35 0 -67 14.5q-32 14.5 -46 33.5l13 63q25 -17 47 -24.5q22 -7.5 45 -7.5q34 0 34 22z" />
<glyph unicode="&#232;" horiz-adv-x="613" d="M574 261q0 -13 -0.5 -28q-0.5 -15 -2.5 -24l-381 0q11 -42 48.5 -61.5q37.5 -19.5 89.5 -19.5q48 0 92.5 16.5q44.5 16.5 67.5 48.5l47 -113q-29 -44 -84 -69.5q-55 -25.5 -127 -25.5q-60 0 -112.5 19q-52.5 19 -90.5 55q-38 36 -60 87q-22 51 -22 115q0 56 19 106.5q19 50.5 55 88.5q36 38 86.5 60.5q50.5 22.5 113.5 22.5q59 0 107 -23q48 -23 82.5 -61.5q34.5 -38.5 53 -88.5q18.5 -50 18.5 -105zt0 0zM426 319q-8 38 -39.5 57q-31.5 19 -73.5 19q-43 0 -76.5 -19q-33.5 -19 -43.5 -57zM297 757l73 -167h-112l-125 167z" />
<glyph unicode="&#233;" horiz-adv-x="613" d="M574 261q0 -13 -0.5 -28q-0.5 -15 -2.5 -24l-381 0q11 -42 48.5 -61.5q37.5 -19.5 89.5 -19.5q48 0 92.5 16.5q44.5 16.5 67.5 48.5l47 -113q-29 -44 -84 -69.5q-55 -25.5 -127 -25.5q-60 0 -112.5 19q-52.5 19 -90.5 55q-38 36 -60 87q-22 51 -22 115q0 56 19 106.5q19 50.5 55 88.5q36 38 86.5 60.5q50.5 22.5 113.5 22.5q59 0 107 -23q48 -23 82.5 -61.5q34.5 -38.5 53 -88.5q18.5 -50 18.5 -105zt0 0zM426 319q-8 38 -39.5 57q-31.5 19 -73.5 19q-43 0 -76.5 -19q-33.5 -19 -43.5 -57zM479 757l-125 -167h-112l73 167z" />
<glyph unicode="&#234;" horiz-adv-x="613" d="M574 261q0 -13 -0.5 -28q-0.5 -15 -2.5 -24l-381 0q11 -42 48.5 -61.5q37.5 -19.5 89.5 -19.5q48 0 92.5 16.5q44.5 16.5 67.5 48.5l47 -113q-29 -44 -84 -69.5q-55 -25.5 -127 -25.5q-60 0 -112.5 19q-52.5 19 -90.5 55q-38 36 -60 87q-22 51 -22 115q0 56 19 106.5q19 50.5 55 88.5q36 38 86.5 60.5q50.5 22.5 113.5 22.5q59 0 107 -23q48 -23 82.5 -61.5q34.5 -38.5 53 -88.5q18.5 -50 18.5 -105zt0 0zM426 319q-8 38 -39.5 57q-31.5 19 -73.5 19q-43 0 -76.5 -19q-33.5 -19 -43.5 -57zM395 757l90 -167h-110l-67 82l-67 -82h-110l91 167z" />
<glyph unicode="&#235;" horiz-adv-x="613" d="M574 261q0 -13 -0.5 -28q-0.5 -15 -2.5 -24l-381 0q11 -42 48.5 -61.5q37.5 -19.5 89.5 -19.5q48 0 92.5 16.5q44.5 16.5 67.5 48.5l47 -113q-29 -44 -84 -69.5q-55 -25.5 -127 -25.5q-60 0 -112.5 19q-52.5 19 -90.5 55q-38 36 -60 87q-22 51 -22 115q0 56 19 106.5q19 50.5 55 88.5q36 38 86.5 60.5q50.5 22.5 113.5 22.5q59 0 107 -23q48 -23 82.5 -61.5q34.5 -38.5 53 -88.5q18.5 -50 18.5 -105zt0 0zM426 319q-8 38 -39.5 57q-31.5 19 -73.5 19q-43 0 -76.5 -19q-33.5 -19 -43.5 -57zM128 671q0 34 24 57q24 23 57 23q34 0 57.5 -23q23.5 -23 23.5 -57q0 -34 -23.5 -57q-23.5 -23 -57.5 -23q-33 0 -57 23q-24 23 -24 57zt0 0zM337 671q0 34 23.5 57q23.5 23 57.5 23q33 0 56.5 -23q23.5 -23 23.5 -57q0 -34 -23.5 -57q-23.5 -23 -56.5 -23q-34 0 -57.5 23t-23.5 57z" />
<glyph unicode="&#236;" horiz-adv-x="299" d="M76 524h147v-524h-147zM136 757l73 -167h-112l-125 167z" />
<glyph unicode="&#237;" horiz-adv-x="299" d="M76 524h147v-524h-147zM329 757l-125 -167h-112l73 167z" />
<glyph unicode="&#238;" horiz-adv-x="299" d="M76 524h147v-524h-147zM236 757l90 -167h-110l-67 82l-67 -82h-110l91 167z" />
<glyph unicode="&#239;" horiz-adv-x="299" d="M76 524h147v-524h-147zM-36 671q0 34 24 57q24 23 57 23q34 0 57.5 -23q23.5 -23 23.5 -57q0 -34 -23.5 -57q-23.5 -23 -57.5 -23q-33 0 -57 23q-24 23 -24 57zt0 0zM173 671q0 34 23.5 57q23.5 23 57.5 23q33 0 56.5 -23q23.5 -23 23.5 -57q0 -34 -23.5 -57q-23.5 -23 -56.5 -23q-34 0 -57.5 23t-23.5 57z" />
<glyph unicode="&#240;" horiz-adv-x="636" d="M364 702l102 43l42 -93l-85 -36l90 -134q16 -24 31 -50q15 -26 27 -54.5q12 -28.5 19.5 -59q7.5 -30.5 7.5 -62.5q0 -58 -20.5 -107.5q-20.5 -49.5 -57 -86q-36.5 -36.5 -87.5 -57q-51 -20.5 -111 -20.5q-57 0 -108 19q-51 19 -90 53.5q-39 34.5 -62 82.5q-23 48 -23 106q0 61 21 108.5q21 47.5 59.5 80.5q38.5 33 93 51.5q54.5 18.5 121.5 21.5l-37 55l-124 -51l-42 94l107 44l-51 78h160zM319 141q61 0 97.5 32q36.5 32 36.5 81q0 48 -36.5 80.5q-36.5 32.5 -97.5 32.5q-61 0 -98 -32.5q-37 -32.5 -37 -80.5q0 -49 37 -81t98 -32z" />
<glyph unicode="&#241;" horiz-adv-x="636" d="M353 539q40 0 79 -13.5q39 -13.5 70 -41.5q31 -28 50.5 -71.5q19.5 -43.5 19.5 -103.5v-309h-147v277q0 51 -29 78.5q-29 27.5 -72 27.5q-38 0 -68.5 -20q-30.5 -20 -35.5 -50l0 -313h-147v524h142v-51q11 29 46 47.5q35 18.5 92 18.5zt0 0zM159 592q-8 17 -11.5 32q-3.5 15 -3.5 29q0 45 28 71q28 26 74 26q24 0 44.5 -8q20.5 -8 38.5 -17.5q18 -9.5 33 -17.5q15 -8 28 -8q20 0 20 18q0 13 -9 33l89 0q8 -17 11 -32.5q3 -15.5 3 -29.5q0 -44 -26.5 -70q-26.5 -26 -71.5 -26q-24 0 -45 8q-21 8 -39 17.5q-18 9.5 -33.5 17.5q-15.5 8 -28.5 8q-9 0 -15 -5q-6 -5 -6 -15q0 -13 9 -31z" />
<glyph unicode="&#242;" horiz-adv-x="643" d="M322 539q57 0 108 -21q51 -21 90 -57.5q39 -36.5 62 -87.5q23 -51 23 -111q0 -60 -23 -111q-23 -51 -62 -87.5q-39 -36.5 -90 -57.5q-51 -21 -108 -21q-57 0 -108 21q-51 21 -90 57.5q-39 36.5 -62 87.5q-23 51 -23 111q0 60 23 111q23 51 62 87.5q39 36.5 90 57.5q51 21 108 21zt0 0zM322 141q27 0 51.5 9q24.5 9 43 24.5q18.5 15.5 29 38q10.5 22.5 10.5 49.5q0 27 -10.5 49.5q-10.5 22.5 -29 38q-18.5 15.5 -43 24.5q-24.5 9 -51.5 9q-27 0 -51.5 -9q-24.5 -9 -43 -24.5q-18.5 -15.5 -29 -38q-10.5 -22.5 -10.5 -49.5q0 -27 10.5 -49.5q10.5 -22.5 29 -38q18.5 -15.5 43 -24.5q24.5 -9 51.5 -9zt0 0zM316 757l73 -167h-112l-125 167z" />
<glyph unicode="&#243;" horiz-adv-x="643" d="M322 539q57 0 108 -21q51 -21 90 -57.5q39 -36.5 62 -87.5q23 -51 23 -111q0 -60 -23 -111q-23 -51 -62 -87.5q-39 -36.5 -90 -57.5q-51 -21 -108 -21q-57 0 -108 21q-51 21 -90 57.5q-39 36.5 -62 87.5q-23 51 -23 111q0 60 23 111q23 51 62 87.5q39 36.5 90 57.5q51 21 108 21zt0 0zM322 141q27 0 51.5 9q24.5 9 43 24.5q18.5 15.5 29 38q10.5 22.5 10.5 49.5q0 27 -10.5 49.5q-10.5 22.5 -29 38q-18.5 15.5 -43 24.5q-24.5 9 -51.5 9q-27 0 -51.5 -9q-24.5 -9 -43 -24.5q-18.5 -15.5 -29 -38q-10.5 -22.5 -10.5 -49.5q0 -27 10.5 -49.5q10.5 -22.5 29 -38q18.5 -15.5 43 -24.5q24.5 -9 51.5 -9zt0 0zM492 757l-125 -167h-112l73 167z" />
<glyph unicode="&#244;" horiz-adv-x="643" d="M322 539q57 0 108 -21q51 -21 90 -57.5q39 -36.5 62 -87.5q23 -51 23 -111q0 -60 -23 -111q-23 -51 -62 -87.5q-39 -36.5 -90 -57.5q-51 -21 -108 -21q-57 0 -108 21q-51 21 -90 57.5q-39 36.5 -62 87.5q-23 51 -23 111q0 60 23 111q23 51 62 87.5q39 36.5 90 57.5q51 21 108 21zt0 0zM322 141q27 0 51.5 9q24.5 9 43 24.5q18.5 15.5 29 38q10.5 22.5 10.5 49.5q0 27 -10.5 49.5q-10.5 22.5 -29 38q-18.5 15.5 -43 24.5q-24.5 9 -51.5 9q-27 0 -51.5 -9q-24.5 -9 -43 -24.5q-18.5 -15.5 -29 -38q-10.5 -22.5 -10.5 -49.5q0 -27 10.5 -49.5q10.5 -22.5 29 -38q18.5 -15.5 43 -24.5q24.5 -9 51.5 -9zt0 0zM408 757l90 -167h-110l-67 82l-67 -82h-110l91 167z" />
<glyph unicode="&#245;" horiz-adv-x="643" d="M322 539q57 0 108 -21q51 -21 90 -57.5q39 -36.5 62 -87.5q23 -51 23 -111q0 -60 -23 -111q-23 -51 -62 -87.5q-39 -36.5 -90 -57.5q-51 -21 -108 -21q-57 0 -108 21q-51 21 -90 57.5q-39 36.5 -62 87.5q-23 51 -23 111q0 60 23 111q23 51 62 87.5q39 36.5 90 57.5q51 21 108 21zt0 0zM322 141q27 0 51.5 9q24.5 9 43 24.5q18.5 15.5 29 38q10.5 22.5 10.5 49.5q0 27 -10.5 49.5q-10.5 22.5 -29 38q-18.5 15.5 -43 24.5q-24.5 9 -51.5 9q-27 0 -51.5 -9q-24.5 -9 -43 -24.5q-18.5 -15.5 -29 -38q-10.5 -22.5 -10.5 -49.5q0 -27 10.5 -49.5q10.5 -22.5 29 -38q18.5 -15.5 43 -24.5q24.5 -9 51.5 -9zt0 0zM156 592q-8 17 -11.5 32q-3.5 15 -3.5 29q0 45 28 71q28 26 74 26q24 0 44.5 -8q20.5 -8 38.5 -17.5q18 -9.5 33 -17.5q15 -8 28 -8q20 0 20 18q0 13 -9 33l89 0q8 -17 11 -32.5q3 -15.5 3 -29.5q0 -44 -26.5 -70q-26.5 -26 -71.5 -26q-24 0 -45 8q-21 8 -39 17.5q-18 9.5 -33.5 17.5q-15.5 8 -28.5 8q-9 0 -15 -5q-6 -5 -6 -15q0 -13 9 -31z" />
<glyph unicode="&#246;" horiz-adv-x="643" d="M322 539q57 0 108 -21q51 -21 90 -57.5q39 -36.5 62 -87.5q23 -51 23 -111q0 -60 -23 -111q-23 -51 -62 -87.5q-39 -36.5 -90 -57.5q-51 -21 -108 -21q-57 0 -108 21q-51 21 -90 57.5q-39 36.5 -62 87.5q-23 51 -23 111q0 60 23 111q23 51 62 87.5q39 36.5 90 57.5q51 21 108 21zt0 0zM322 141q27 0 51.5 9q24.5 9 43 24.5q18.5 15.5 29 38q10.5 22.5 10.5 49.5q0 27 -10.5 49.5q-10.5 22.5 -29 38q-18.5 15.5 -43 24.5q-24.5 9 -51.5 9q-27 0 -51.5 -9q-24.5 -9 -43 -24.5q-18.5 -15.5 -29 -38q-10.5 -22.5 -10.5 -49.5q0 -27 10.5 -49.5q10.5 -22.5 29 -38q18.5 -15.5 43 -24.5q24.5 -9 51.5 -9zt0 0zM137 671q0 34 24 57q24 23 57 23q34 0 57.5 -23q23.5 -23 23.5 -57q0 -34 -23.5 -57q-23.5 -23 -57.5 -23q-33 0 -57 23q-24 23 -24 57zt0 0zM346 671q0 34 23.5 57q23.5 23 57.5 23q33 0 56.5 -23q23.5 -23 23.5 -57q0 -34 -23.5 -57q-23.5 -23 -56.5 -23q-34 0 -57.5 23t-23.5 57z" />
<glyph unicode="&#248;" horiz-adv-x="652" d="M327 539q66 0 126 -29h24h167l-92 -80q27 -35 42.5 -77q15.5 -42 15.5 -91q0 -60 -23 -111q-23 -51 -62 -87.5q-39 -36.5 -90 -57.5q-51 -21 -108 -21q-34 0 -66 7.5q-32 7.5 -61 21.5l-25 -29h-167l93 109q-27 35 -42 77q-15 42 -15 91q0 60 23 111q23 51 62 87.5q39 36.5 90 57.5q51 21 108 21zt0 0zM327 135q29 0 54.5 9q25.5 9 45 26q19.5 17 31 40q11.5 23 11.5 52q0 29 -13 55l-153 -181q6 -1 12 -1q6 0 12 0zt0 0zM185 262q0 -30 12 -54l152 179q-5 1 -11 1.5q-6 0.5 -11 0.5q-29 0 -54.5 -9q-25.5 -9 -45 -26q-19.5 -17 -31 -40.5t-11.5 -51.5z" />
<glyph unicode="&#249;" horiz-adv-x="632" d="M281 -15q-40 0 -79 13.5q-39 13.5 -69.5 41.5q-30.5 28 -49.5 71.5q-19 43.5 -19 103.5v309h147v-277q0 -51 28 -78.5q28 -27.5 71 -27.5q38 0 68 20q30 20 35 50l0 313h147v-524h-142v51q-11 -29 -45.5 -47.5q-34.5 -18.5 -91.5 -18.5zt0 0zM312 757l73 -167h-112l-125 167z" />
<glyph unicode="&#250;" horiz-adv-x="632" d="M281 -15q-40 0 -79 13.5q-39 13.5 -69.5 41.5q-30.5 28 -49.5 71.5q-19 43.5 -19 103.5v309h147v-277q0 -51 28 -78.5q28 -27.5 71 -27.5q38 0 68 20q30 20 35 50l0 313h147v-524h-142v51q-11 -29 -45.5 -47.5q-34.5 -18.5 -91.5 -18.5zt0 0zM476 757l-125 -167h-112l73 167z" />
<glyph unicode="&#251;" horiz-adv-x="632" d="M281 -15q-40 0 -79 13.5q-39 13.5 -69.5 41.5q-30.5 28 -49.5 71.5q-19 43.5 -19 103.5v309h147v-277q0 -51 28 -78.5q28 -27.5 71 -27.5q38 0 68 20q30 20 35 50l0 313h147v-524h-142v51q-11 -29 -45.5 -47.5q-34.5 -18.5 -91.5 -18.5zt0 0zM400 757l90 -167h-110l-67 82l-67 -82h-110l91 167z" />
<glyph unicode="&#252;" horiz-adv-x="632" d="M281 -15q-40 0 -79 13.5q-39 13.5 -69.5 41.5q-30.5 28 -49.5 71.5q-19 43.5 -19 103.5v309h147v-277q0 -51 28 -78.5q28 -27.5 71 -27.5q38 0 68 20q30 20 35 50l0 313h147v-524h-142v51q-11 -29 -45.5 -47.5q-34.5 -18.5 -91.5 -18.5zt0 0zM129 671q0 34 24 57q24 23 57 23q34 0 57.5 -23q23.5 -23 23.5 -57q0 -34 -23.5 -57q-23.5 -23 -57.5 -23q-33 0 -57 23q-24 23 -24 57zt0 0zM338 671q0 34 23.5 57q23.5 23 57.5 23q33 0 56.5 -23q23.5 -23 23.5 -57q0 -34 -23.5 -57q-23.5 -23 -56.5 -23q-34 0 -57.5 23t-23.5 57z" />
<glyph unicode="&#253;" horiz-adv-x="604" d="M16 524h158l125 -294l125 294h162l-314 -737h-160l109 255zM462 757l-125 -167h-112l73 167z" />
<glyph unicode="&#254;" horiz-adv-x="671" d="M633 262q0 -62 -21.5 -113q-21.5 -51 -57.5 -87.5q-36 -36.5 -83.5 -56.5q-47.5 -20 -99.5 -20q-57 0 -97 20q-40 20 -54 49l0 -267h-147v941h147v-258q14 29 54 49q40 20 97 20q52 0 99.5 -20q47.5 -20 83.5 -56.5q36 -36.5 57.5 -87.5q21.5 -51 21.5 -113zt0 0zM484 262q0 53 -38.5 87q-38.5 34 -99.5 34q-45 0 -80 -17q-35 -17 -46 -43l0 -122q11 -26 46 -43q35 -17 80 -17q61 0 99.5 34t38.5 87z" />
<glyph unicode="&#255;" horiz-adv-x="604" d="M16 524h158l125 -294l125 294h162l-314 -737h-160l109 255zM116 671q0 34 24 57q24 23 57 23q34 0 57.5 -23q23.5 -23 23.5 -57q0 -34 -23.5 -57q-23.5 -23 -57.5 -23q-33 0 -57 23q-24 23 -24 57zt0 0zM325 671q0 34 23.5 57q23.5 23 57.5 23q33 0 56.5 -23q23.5 -23 23.5 -57q0 -34 -23.5 -57q-23.5 -23 -56.5 -23q-34 0 -57.5 23t-23.5 57z" />
<glyph unicode="&#256;" horiz-adv-x="723" d="M720 0h-158l-54 138h-289l-55 -138h-161l287 718h144zM279 295h166l-81 207zM529 889v-105h-336l0 105z" />
<glyph unicode="&#257;" horiz-adv-x="574" d="M358 190q-5 11 -27.5 20.5q-22.5 9.5 -54.5 9.5q-45 0 -66.5 -14.5q-21.5 -14.5 -21.5 -37.5q0 -25 23 -38.5q23 -13.5 64 -13.5q32 0 53.5 11q21.5 11 29.5 26zM66 450q13 21 36 37.5q23 16.5 51 28q28 11.5 59.5 17.5q31.5 6 60.5 6q52 0 94.5 -14q42.5 -14 73 -41q30.5 -27 47.5 -66.5q17 -39.5 17 -90.5v-327h-142v45q-19 -29 -58.5 -44.5q-39.5 -15.5 -81.5 -15.5q-38 0 -71.5 12.5q-33.5 12.5 -58.5 35q-25 22.5 -39.5 54.5q-14.5 32 -14.5 71q0 42 17 74.5q17 32.5 45.5 54q28.5 21.5 65 33q36.5 11.5 75.5 11.5q58 0 85 -13q27 -13 31 -20l0 14q0 42 -30 60.5q-30 18.5 -72 18.5q-48 0 -91 -17q-43 -17 -65 -42zM455 715v-108h-336l0 108z" />
<glyph unicode="&#259;" horiz-adv-x="574" d="M358 190q-5 11 -27.5 20.5q-22.5 9.5 -54.5 9.5q-45 0 -66.5 -14.5q-21.5 -14.5 -21.5 -37.5q0 -25 23 -38.5q23 -13.5 64 -13.5q32 0 53.5 11q21.5 11 29.5 26zM66 450q13 21 36 37.5q23 16.5 51 28q28 11.5 59.5 17.5q31.5 6 60.5 6q52 0 94.5 -14q42.5 -14 73 -41q30.5 -27 47.5 -66.5q17 -39.5 17 -90.5v-327h-142v45q-19 -29 -58.5 -44.5q-39.5 -15.5 -81.5 -15.5q-38 0 -71.5 12.5q-33.5 12.5 -58.5 35q-25 22.5 -39.5 54.5q-14.5 32 -14.5 71q0 42 17 74.5q17 32.5 45.5 54q28.5 21.5 65 33q36.5 11.5 75.5 11.5q58 0 85 -13q27 -13 31 -20l0 14q0 42 -30 60.5q-30 18.5 -72 18.5q-48 0 -91 -17q-43 -17 -65 -42zM441 750q1 -32 -11 -60.5q-12 -28.5 -33 -50q-21 -21.5 -49 -34q-28 -12.5 -60 -12.5q-32 0 -60 12.5q-28 12.5 -49 34q-21 21.5 -33 50q-12 28.5 -11 60.5l107 0q-2 -18 12 -31q14 -13 34 -13q21 0 35 13q14 13 12 31z" />
<glyph unicode="&#260;" horiz-adv-x="723" d="M562 0l-54 138h-289l-55 -138h-161l287 718h144l286 -718q-3 -3 -9.5 -9q-6.5 -6 -13.5 -15q-7 -9 -12 -20.5q-5 -11.5 -5 -24.5q0 -15 11 -24q11 -9 24 -9q12 0 20.5 3.5q8.5 3.5 11.5 6.5l15 -103q-7 -8 -26 -19.5q-19 -11.5 -49 -11.5q-58 0 -90.5 31.5q-32.5 31.5 -32.5 79.5q0 23 9 42q9 19 21 33.5q12 14.5 24.5 24.5q12.5 10 20.5 15zM279 295h166l-81 207z" />
<glyph unicode="&#261;" horiz-adv-x="574" d="M363 0v45q-19 -29 -58.5 -44.5q-39.5 -15.5 -81.5 -15.5q-38 0 -71.5 12.5q-33.5 12.5 -58.5 35q-25 22.5 -39.5 54.5q-14.5 32 -14.5 71q0 42 17 74.5q17 32.5 45.5 54q28.5 21.5 65 33q36.5 11.5 75.5 11.5q58 0 85 -13q27 -13 31 -20l0 14q0 42 -30 60.5q-30 18.5 -72 18.5q-48 0 -91 -17q-43 -17 -65 -42l-34 118q13 21 36 37.5q23 16.5 51 28q28 11.5 59.5 17.5q31.5 6 60.5 6q52 0 94.5 -14q42.5 -14 73 -41q30.5 -27 47.5 -66.5q17 -39.5 17 -90.5v-327q-3 -3 -9.5 -9q-6.5 -6 -13.5 -15q-7 -9 -12 -20.5q-5 -11.5 -5 -24.5q0 -15 11 -24q11 -9 24 -9q12 0 20.5 3.5q8.5 3.5 11.5 6.5l15 -103q-7 -8 -26 -19.5q-19 -11.5 -49 -11.5q-58 0 -90.5 31.5q-32.5 31.5 -32.5 79.5q0 23 9 42q9 19 21 33.5q12 14.5 24.5 24.5q12.5 10 20.5 15zM358 190q-5 11 -27.5 20.5q-22.5 9.5 -54.5 9.5q-45 0 -66.5 -14.5q-21.5 -14.5 -21.5 -37.5q0 -25 23 -38.5q23 -13.5 64 -13.5q32 0 53.5 11q21.5 11 29.5 26z" />
<glyph unicode="&#262;" horiz-adv-x="706" d="M420 149q37 0 69.5 8.5q32.5 8.5 59.5 22q27 13.5 47 31q20 17.5 34 35.5l48 -137q-32 -54 -102 -89q-70 -35 -169 -35q-73 0 -140.5 27.5q-67.5 27.5 -119.5 77q-52 49.5 -83.5 118q-31.5 68.5 -31.5 151.5q0 83 31.5 151.5q31.5 68.5 83.5 118q52 49.5 119.5 77q67.5 27.5 140.5 27.5q47 0 89 -9.5q42 -9.5 76 -26.5q34 -17 60 -39.5q26 -22.5 41 -47.5l-47 -134q-14 17 -34.5 34q-20.5 17 -47 30q-26.5 13 -58 21q-31.5 8 -66.5 8q-51 0 -93.5 -15q-42.5 -15 -73 -42q-30.5 -27 -48 -66q-17.5 -39 -17.5 -87q0 -48 17.5 -87q17.5 -39 48 -66q30.5 -27 73 -42q42.5 -15 93.5 -15zt0 0zM563 929l-125 -157h-110l73 157z" />
<glyph unicode="&#263;" horiz-adv-x="554" d="M326 141q51 0 87 20.5q36 20.5 57 45.5l46 -128q-27 -41 -80.5 -67.5q-53.5 -26.5 -122.5 -26.5q-55 0 -105 20q-50 20 -87.5 57q-37.5 37 -59.5 87.5q-22 50.5 -22 112.5q0 61 22 112q22 51 59.5 88q37.5 37 87.5 57q50 20 105 20q69 0 121 -28q52 -28 78 -67l-43 -125q-19 25 -55.5 44.5q-36.5 19.5 -87.5 19.5q-63 0 -100.5 -33.5q-37.5 -33.5 -37.5 -87.5q0 -54 37.5 -87.5q37.5 -33.5 100.5 -33.5zt0 0zM476 757l-125 -167h-112l73 167z" />
<glyph unicode="&#268;" horiz-adv-x="706" d="M420 149q37 0 69.5 8.5q32.5 8.5 59.5 22q27 13.5 47 31q20 17.5 34 35.5l48 -137q-32 -54 -102 -89q-70 -35 -169 -35q-73 0 -140.5 27.5q-67.5 27.5 -119.5 77q-52 49.5 -83.5 118q-31.5 68.5 -31.5 151.5q0 83 31.5 151.5q31.5 68.5 83.5 118q52 49.5 119.5 77q67.5 27.5 140.5 27.5q47 0 89 -9.5q42 -9.5 76 -26.5q34 -17 60 -39.5q26 -22.5 41 -47.5l-47 -134q-14 17 -34.5 34q-20.5 17 -47 30q-26.5 13 -58 21q-31.5 8 -66.5 8q-51 0 -93.5 -15q-42.5 -15 -73 -42q-30.5 -27 -48 -66q-17.5 -39 -17.5 -87q0 -48 17.5 -87q17.5 -39 48 -66q30.5 -27 73 -42q42.5 -15 93.5 -15zt0 0zM307 772l-91 157h106l67 -72l67 72h105l-90 -157z" />
<glyph unicode="&#269;" horiz-adv-x="554" d="M326 141q51 0 87 20.5q36 20.5 57 45.5l46 -128q-27 -41 -80.5 -67.5q-53.5 -26.5 -122.5 -26.5q-55 0 -105 20q-50 20 -87.5 57q-37.5 37 -59.5 87.5q-22 50.5 -22 112.5q0 61 22 112q22 51 59.5 88q37.5 37 87.5 57q50 20 105 20q69 0 121 -28q52 -28 78 -67l-43 -125q-19 25 -55.5 44.5q-36.5 19.5 -87.5 19.5q-63 0 -100.5 -33.5q-37.5 -33.5 -37.5 -87.5q0 -54 37.5 -87.5q37.5 -33.5 100.5 -33.5zt0 0zM210 590l-90 167h110l67 -82l67 82h110l-91 -167z" />
<glyph unicode="&#270;" horiz-adv-x="734" d="M546 359q0 41 -14.5 76.5q-14.5 35.5 -41 62q-26.5 26.5 -62.5 41.5q-36 15 -79 15h-115v-390h115q42 0 78 14q36 14 62.5 39.5q26.5 25.5 41.5 61.5q15 36 15 80zt0 0zM309 718q85 0 157.5 -24q72.5 -24 124.5 -69.5q52 -45.5 81.5 -112.5q29.5 -67 29.5 -153q0 -85 -30 -151.5q-30 -66.5 -82.5 -112.5q-52.5 -46 -124.5 -70.5q-72 -24.5 -156 -24.5h-227v718zM262 772l-91 157h106l67 -72l67 72h105l-90 -157z" />
<glyph unicode="&#271;" horiz-adv-x="820" d="M452 728h147v-728h-142v54q-14 -29 -54 -49q-40 -20 -102 -20q-52 0 -99.5 20q-47.5 20 -83.5 56.5q-36 36.5 -57.5 87.5q-21.5 51 -21.5 113q0 62 21.5 113q21.5 51 57.5 87.5q36 36.5 83.5 56.5q47.5 20 99.5 20q57 0 97 -20q40 -20 54 -49zM452 323q-11 26 -46 43q-35 17 -80 17q-61 0 -99.5 -34q-38.5 -34 -38.5 -87q0 -53 38.5 -87q38.5 -34 99.5 -34q45 0 80 17q35 17 46 43zM766 493h-80l50 100q-19 5 -34.5 21.5q-15.5 16.5 -15.5 45.5q0 29 24 51q24 22 59 22q35 0 57 -23q22 -23 22 -54q0 -26 -9 -46.5q-9 -20.5 -23 -41.5z" />
<glyph unicode="&#272;" horiz-adv-x="762" d="M337 718q85 0 157.5 -24q72.5 -24 124.5 -69.5q52 -45.5 81.5 -112.5q29.5 -67 29.5 -153q0 -85 -30 -151.5q-30 -66.5 -82.5 -112.5q-52.5 -46 -124.5 -70.5q-72 -24.5 -156 -24.5h-227v287h-106v164h106v267zM574 359q0 41 -14.5 76.5q-14.5 35.5 -41 62q-26.5 26.5 -62.5 41.5q-36 15 -79 15h-115v-103h144v-164h-144v-123h115q42 0 78 14q36 14 62.5 39.5q26.5 25.5 41.5 61.5t15 80z" />
<glyph unicode="&#273;" horiz-adv-x="674" d="M452 558h-150v101h150v69h147v-69h75v-101h-75v-558h-142v52q-14 -27 -54 -47q-40 -20 -102 -20q-52 0 -99.5 19q-47.5 19 -83.5 53.5q-36 34.5 -57.5 83.5q-21.5 49 -21.5 109q0 60 21.5 109q21.5 49 57.5 84.5q36 35.5 83.5 54.5q47.5 19 99.5 19q57 0 97 -20.5q40 -20.5 54 -47.5zM452 305q-11 24 -46 40q-35 16 -80 16q-61 0 -99.5 -31q-38.5 -31 -38.5 -80q0 -49 38.5 -79q38.5 -30 99.5 -30q45 0 80 16q35 16 46 40z" />
<glyph unicode="&#274;" horiz-adv-x="545" d="M82 718h403v-164h-251v-103h221v-164h-221v-123h251v-164h-403zM448 889v-105h-336l0 105z" />
<glyph unicode="&#275;" horiz-adv-x="613" d="M574 261q0 -13 -0.5 -28q-0.5 -15 -2.5 -24l-381 0q11 -42 48.5 -61.5q37.5 -19.5 89.5 -19.5q48 0 92.5 16.5q44.5 16.5 67.5 48.5l47 -113q-29 -44 -84 -69.5q-55 -25.5 -127 -25.5q-60 0 -112.5 19q-52.5 19 -90.5 55q-38 36 -60 87q-22 51 -22 115q0 56 19 106.5q19 50.5 55 88.5q36 38 86.5 60.5q50.5 22.5 113.5 22.5q59 0 107 -23q48 -23 82.5 -61.5q34.5 -38.5 53 -88.5q18.5 -50 18.5 -105zt0 0zM426 319q-8 38 -39.5 57q-31.5 19 -73.5 19q-43 0 -76.5 -19q-33.5 -19 -43.5 -57zM485 715v-108h-336l0 108z" />
<glyph unicode="&#278;" horiz-adv-x="545" d="M82 718h403v-164h-251v-103h221v-164h-221v-123h251v-164h-403zM197 847q0 18 6.5 33q6.5 15 17.5 26.5q11 11.5 26 18q15 6.5 32 6.5q35 0 59.5 -24.5q24.5 -24.5 24.5 -59.5q0 -17 -6.5 -32q-6.5 -15 -18 -26q-11.5 -11 -26.5 -17.5q-15 -6.5 -33 -6.5q-34 0 -58 24t-24 58z" />
<glyph unicode="&#279;" horiz-adv-x="613" d="M574 261q0 -13 -0.5 -28q-0.5 -15 -2.5 -24l-381 0q11 -42 48.5 -61.5q37.5 -19.5 89.5 -19.5q48 0 92.5 16.5q44.5 16.5 67.5 48.5l47 -113q-29 -44 -84 -69.5q-55 -25.5 -127 -25.5q-60 0 -112.5 19q-52.5 19 -90.5 55q-38 36 -60 87q-22 51 -22 115q0 56 19 106.5q19 50.5 55 88.5q36 38 86.5 60.5q50.5 22.5 113.5 22.5q59 0 107 -23q48 -23 82.5 -61.5q34.5 -38.5 53 -88.5q18.5 -50 18.5 -105zt0 0zM426 319q-8 38 -39.5 57q-31.5 19 -73.5 19q-43 0 -76.5 -19q-33.5 -19 -43.5 -57zM222 677q0 40 27.5 68q27.5 28 67.5 28q40 0 68 -28q28 -28 28 -68q0 -40 -28 -67.5q-28 -27.5 -68 -27.5q-40 0 -67.5 27.5t-27.5 67.5z" />
<glyph unicode="&#280;" horiz-adv-x="537" d="M82 718h403v-164h-251v-103h221v-164h-221v-123h251v-164q-3 -3 -9.5 -9q-6.5 -6 -13.5 -15q-7 -9 -12 -20.5q-5 -11.5 -5 -24.5q0 -15 11 -24q11 -9 24 -9q12 0 20.5 3.5q8.5 3.5 11.5 6.5l15 -103q-7 -8 -26 -19.5q-19 -11.5 -49 -11.5q-58 0 -90.5 31.5q-32.5 31.5 -32.5 79.5q0 23 9 42q9 19 21 33.5q12 14.5 24.5 24.5q12.5 10 20.5 15l-322 0z" />
<glyph unicode="&#281;" horiz-adv-x="613" d="M574 261q0 -13 -0.5 -28q-0.5 -15 -2.5 -24l-381 0q11 -42 48.5 -61.5q37.5 -19.5 89.5 -19.5q48 0 92.5 16.5q44.5 16.5 67.5 48.5l47 -113q-17 -16 -29 -32q-12 -16 -12 -37q0 -17 11 -25.5q11 -8.5 26 -8.5q11 0 19 3.5q8 3.5 11 6.5l15 -103q-7 -8 -26 -19.5q-19 -11.5 -49 -11.5q-58 0 -90.5 31.5q-32.5 31.5 -32.5 79.5q0 14 3 26q-14 -2 -28 -3.5q-14 -1.5 -29 -1.5q-60 0 -112.5 19q-52.5 19 -90.5 55q-38 36 -60 87q-22 51 -22 115q0 56 19 106.5q19 50.5 55 88.5q36 38 86.5 60.5q50.5 22.5 113.5 22.5q59 0 107 -23q48 -23 82.5 -61.5q34.5 -38.5 53 -88.5q18.5 -50 18.5 -105zt0 0zM426 319q-8 38 -39.5 57q-31.5 19 -73.5 19q-43 0 -76.5 -19q-33.5 -19 -43.5 -57z" />
<glyph unicode="&#282;" horiz-adv-x="545" d="M82 718h403v-164h-251v-103h221v-164h-221v-123h251v-164h-403zM198 772l-91 157h106l67 -72l67 72h105l-90 -157z" />
<glyph unicode="&#283;" horiz-adv-x="613" d="M574 261q0 -13 -0.5 -28q-0.5 -15 -2.5 -24l-381 0q11 -42 48.5 -61.5q37.5 -19.5 89.5 -19.5q48 0 92.5 16.5q44.5 16.5 67.5 48.5l47 -113q-29 -44 -84 -69.5q-55 -25.5 -127 -25.5q-60 0 -112.5 19q-52.5 19 -90.5 55q-38 36 -60 87q-22 51 -22 115q0 56 19 106.5q19 50.5 55 88.5q36 38 86.5 60.5q50.5 22.5 113.5 22.5q59 0 107 -23q48 -23 82.5 -61.5q34.5 -38.5 53 -88.5q18.5 -50 18.5 -105zt0 0zM426 319q-8 38 -39.5 57q-31.5 19 -73.5 19q-43 0 -76.5 -19q-33.5 -19 -43.5 -57zM221 590l-90 167h110l67 -82l67 82h110l-91 -167z" />
<glyph unicode="&#290;" horiz-adv-x="757" d="M420 569q-52 0 -95 -15q-43 -15 -73.5 -42.5q-30.5 -27.5 -47 -66.5q-16.5 -39 -16.5 -87q0 -49 17 -88q17 -39 48 -66q31 -27 75 -41q44 -14 97 -14q43 0 76 11.5q33 11.5 57 31.5l0 51h-138v157h285v-259q-19 -30 -45 -58.5q-26 -28.5 -62 -50q-36 -21.5 -83 -34.5q-47 -13 -108 -13q-73 0 -140.5 27.5q-67.5 27.5 -119.5 76.5q-52 49 -83.5 117.5q-31.5 68.5 -31.5 151.5q0 83 31.5 152q31.5 69 83.5 118.5q52 49.5 119.5 77q67.5 27.5 140.5 27.5q47 0 89 -9.5q42 -9.5 76 -26.5q34 -17 60 -39.5q26 -22.5 41 -47.5l-47 -134q-14 17 -34.5 34q-20.5 17 -47 30q-26.5 13 -58 21q-31.5 8 -66.5 8zt0 0zM402 -288h-80l50 100q-19 5 -34.5 21.5q-15.5 16.5 -15.5 45.5q0 29 24 51q24 22 59 22q35 0 57 -23q22 -23 22 -54q0 -26 -9 -46.5q-9 -20.5 -23 -41.5z" />
<glyph unicode="&#291;" horiz-adv-x="661" d="M442 72q-14 -28 -53.5 -48q-39.5 -20 -96.5 -20q-52 0 -99.5 19q-47.5 19 -84 54.5q-36.5 35.5 -58 84.5q-21.5 49 -21.5 109q0 60 21.5 109q21.5 49 58 84.5q36.5 35.5 84 55q47.5 19.5 99.5 19.5q62 0 101.5 -20.5q39.5 -20.5 53.5 -48.5l0 54h142v-510q0 -54 -19 -98.5q-19 -44.5 -53.5 -76.5q-34.5 -32 -84.5 -50q-50 -18 -111 -18q-42 0 -80 9q-38 9 -68.5 22.5q-30.5 13.5 -52 30.5q-21.5 17 -30.5 34l44 132q11 -13 28.5 -26.5q17.5 -13.5 39.5 -24q22 -10.5 49 -17.5q27 -7 58 -7q22 0 45.5 4.5q23.5 4.5 43 17q19.5 12.5 32 34q12.5 21.5 12.5 55.5zM442 325q-11 25 -46 41.5q-35 16.5 -81 16.5q-61 0 -99 -32q-38 -32 -38 -83q0 -51 38 -84q38 -33 99 -33q46 0 81 16.5q35 16.5 46 41.5zM322 816h80l-50 -100q19 -5 34.5 -21.5q15.5 -16.5 15.5 -45.5q0 -29 -24 -51q-24 -22 -59 -22q-35 0 -57 23q-22 23 -22 54q0 26 9 46.5q9 20.5 23 41.5z" />
<glyph unicode="&#296;" horiz-adv-x="316" d="M82 718h152v-718h-152zM-7 769q-8 17 -11.5 32q-3.5 15 -3.5 29q0 45 28 71q28 26 74 26q24 0 44.5 -8q20.5 -8 38.5 -17.5q18 -9.5 33 -17.5q15 -8 28 -8q20 0 20 18q0 13 -9 33l89 0q8 -17 11 -32.5q3 -15.5 3 -29.5q0 -44 -26.5 -70q-26.5 -26 -71.5 -26q-24 0 -45 8q-21 8 -39 17.5q-18 9.5 -33.5 17.5q-15.5 8 -28.5 8q-9 0 -15 -5q-6 -5 -6 -15q0 -13 9 -31z" />
<glyph unicode="&#297;" horiz-adv-x="299" d="M76 524h147v-524h-147zM-16 592q-8 17 -11.5 32q-3.5 15 -3.5 29q0 45 28 71q28 26 74 26q24 0 44.5 -8q20.5 -8 38.5 -17.5q18 -9.5 33 -17.5q15 -8 28 -8q20 0 20 18q0 13 -9 33l89 0q8 -17 11 -32.5q3 -15.5 3 -29.5q0 -44 -26.5 -70q-26.5 -26 -71.5 -26q-24 0 -45 8q-21 8 -39 17.5q-18 9.5 -33.5 17.5q-15.5 8 -28.5 8q-9 0 -15 -5q-6 -5 -6 -15q0 -13 9 -31z" />
<glyph unicode="&#298;" horiz-adv-x="316" d="M82 718h152v-718h-152zM326 889v-105h-336l0 105z" />
<glyph unicode="&#299;" horiz-adv-x="299" d="M76 524h147v-524h-147zM317 715v-108h-336l0 108z" />
<glyph unicode="&#302;" horiz-adv-x="316" d="M82 718h152v-718q-3 -3 -9.5 -9q-6.5 -6 -13.5 -15q-7 -9 -12 -20.5q-5 -11.5 -5 -24.5q0 -15 11 -24q11 -9 24 -9q12 0 20.5 3.5q8.5 3.5 11.5 6.5l15 -103q-7 -8 -26 -19.5q-19 -11.5 -49 -11.5q-58 0 -90.5 31.5q-32.5 31.5 -32.5 79.5q0 23 9 42q9 19 21 33.5q12 14.5 24.5 24.5q12.5 10 20.5 15l-71 0z" />
<glyph unicode="&#303;" horiz-adv-x="298" d="M76 524h147v-524q-3 -3 -9.5 -9q-6.5 -6 -13.5 -15q-7 -9 -12 -20.5q-5 -11.5 -5 -24.5q0 -15 11 -24q11 -9 24 -9q12 0 20.5 3.5q8.5 3.5 11.5 6.5l15 -103q-7 -8 -26 -19.5q-19 -11.5 -49 -11.5q-58 0 -90.5 31.5q-32.5 31.5 -32.5 79.5q0 23 9 42q9 19 21 33.5q12 14.5 24.5 24.5q12.5 10 20.5 15l-66 0zM54 677q0 40 27.5 68q27.5 28 67.5 28q40 0 68 -28q28 -28 28 -68q0 -40 -28 -67.5q-28 -27.5 -68 -27.5q-40 0 -67.5 27.5t-27.5 67.5z" />
<glyph unicode="&#305;" horiz-adv-x="299" d="M76 524h147v-524l-147 0z" />
<glyph unicode="&#310;" horiz-adv-x="682" d="M82 718h152v-252l219 252h195l-296 -341l332 -377h-205l-245 282v-282h-152zM357 -288h-80l50 100q-19 5 -34.5 21.5q-15.5 16.5 -15.5 45.5q0 29 24 51q24 22 59 22q35 0 57 -23q22 -23 22 -54q0 -26 -9 -46.5q-9 -20.5 -23 -41.5z" />
<glyph unicode="&#311;" horiz-adv-x="598" d="M73 728h147v-389l172 185h193l-230 -247l253 -277h-195l-193 211v-211h-147zM314 -288h-80l50 100q-19 5 -34.5 21.5q-15.5 16.5 -15.5 45.5q0 29 24 51q24 22 59 22q35 0 57 -23q22 -23 22 -54q0 -26 -9 -46.5q-9 -20.5 -23 -41.5z" />
<glyph unicode="&#312;" horiz-adv-x="598" d="M73 524h147v-187l173 187h194l-232 -249l253 -275h-195l-193 209v-209l-147 0z" />
<glyph unicode="&#313;" horiz-adv-x="489" d="M82 718h152v-554h235v-164h-387zM336 929l-125 -157h-110l73 157z" />
<glyph unicode="&#314;" horiz-adv-x="292" d="M73 728h147v-728h-147zM320 929l-125 -157h-110l73 157z" />
<glyph unicode="&#315;" horiz-adv-x="489" d="M82 718h152v-554h235v-164h-387zM277 -288h-80l50 100q-19 5 -34.5 21.5q-15.5 16.5 -15.5 45.5q0 29 24 51q24 22 59 22q35 0 57 -23q22 -23 22 -54q0 -26 -9 -46.5q-9 -20.5 -23 -41.5z" />
<glyph unicode="&#316;" horiz-adv-x="292" d="M73 728h147v-728h-147zM147 -288h-80l50 100q-19 5 -34.5 21.5q-15.5 16.5 -15.5 45.5q0 29 24 51q24 22 59 22q35 0 57 -23q22 -23 22 -54q0 -26 -9 -46.5q-9 -20.5 -23 -41.5z" />
<glyph unicode="&#317;" horiz-adv-x="508" d="M82 718h152v-554h235v-164h-387zM400 493h-80l50 100q-19 5 -34.5 21.5q-15.5 16.5 -15.5 45.5q0 29 24 51q24 22 59 22q35 0 57 -23q22 -23 22 -54q0 -26 -9 -46.5q-9 -20.5 -23 -41.5z" />
<glyph unicode="&#318;" horiz-adv-x="441" d="M73 728h147v-728h-147zM387 493h-80l50 100q-19 5 -34.5 21.5q-15.5 16.5 -15.5 45.5q0 29 24 51q24 22 59 22q35 0 57 -23q22 -23 22 -54q0 -26 -9 -46.5q-9 -20.5 -23 -41.5z" />
<glyph unicode="&#321;" horiz-adv-x="525" d="M118 219l-114 -63v153l114 63v346h152v-262l170 95v-153l-170 -95v-139h235v-164l-387 0z" />
<glyph unicode="&#322;" horiz-adv-x="371" d="M112 271l-91 -50v153l91 50v304h147v-222l91 51v-154l-91 -51v-352l-147 0z" />
<glyph unicode="&#323;" horiz-adv-x="770" d="M82 718h147l307 -445v445h152v-718h-149l-305 442v-442h-152zM549 929l-125 -157h-110l73 157z" />
<glyph unicode="&#324;" horiz-adv-x="636" d="M353 539q40 0 79 -13.5q39 -13.5 70 -41.5q31 -28 50.5 -71.5q19.5 -43.5 19.5 -103.5v-309h-147v277q0 51 -29 78.5q-29 27.5 -72 27.5q-38 0 -68.5 -20q-30.5 -20 -35.5 -50l0 -313h-147v524h142v-51q11 29 46 47.5q35 18.5 92 18.5zt0 0zM490 757l-125 -167h-112l73 167z" />
<glyph unicode="&#325;" horiz-adv-x="770" d="M82 718h147l307 -445v445h152v-718h-149l-305 442v-442h-152zM385 -288h-80l50 100q-19 5 -34.5 21.5q-15.5 16.5 -15.5 45.5q0 29 24 51q24 22 59 22q35 0 57 -23q22 -23 22 -54q0 -26 -9 -46.5q-9 -20.5 -23 -41.5z" />
<glyph unicode="&#326;" horiz-adv-x="636" d="M353 539q40 0 79 -13.5q39 -13.5 70 -41.5q31 -28 50.5 -71.5q19.5 -43.5 19.5 -103.5v-309h-147v277q0 51 -29 78.5q-29 27.5 -72 27.5q-38 0 -68.5 -20q-30.5 -20 -35.5 -50l0 -313h-147v524h142v-51q11 29 46 47.5q35 18.5 92 18.5zt0 0zM321 -288h-80l50 100q-19 5 -34.5 21.5q-15.5 16.5 -15.5 45.5q0 29 24 51q24 22 59 22q35 0 57 -23q22 -23 22 -54q0 -26 -9 -46.5q-9 -20.5 -23 -41.5z" />
<glyph unicode="&#327;" horiz-adv-x="770" d="M82 718h147l307 -445v445h152v-718h-149l-305 442v-442h-152zM303 772l-91 157h106l67 -72l67 72h105l-90 -157z" />
<glyph unicode="&#328;" horiz-adv-x="636" d="M353 539q40 0 79 -13.5q39 -13.5 70 -41.5q31 -28 50.5 -71.5q19.5 -43.5 19.5 -103.5v-309h-147v277q0 51 -29 78.5q-29 27.5 -72 27.5q-38 0 -68.5 -20q-30.5 -20 -35.5 -50l0 -313h-147v524h142v-51q11 29 46 47.5q35 18.5 92 18.5zt0 0zM236 590l-90 167h110l67 -82l67 82h110l-91 -167z" />
<glyph unicode="&#330;" horiz-adv-x="770" d="M82 718h147l307 -445v445h152v-743q0 -96 -50 -149.5q-50 -53.5 -150 -53.5q-18 0 -38.5 4.5q-20.5 4.5 -40.5 12.5q-20 8 -37 20.5q-17 12.5 -27 28.5l15 149q21 -22 46.5 -36.5q25.5 -14.5 63.5 -14.5q26 0 45 15.5q19 15.5 21 52.5l-302 438v-442l-152 0z" />
<glyph unicode="&#331;" horiz-adv-x="636" d="M425 277q0 51 -29 78.5q-29 27.5 -72 27.5q-38 0 -68.5 -20q-30.5 -20 -35.5 -50l0 -313h-147v524h142v-51q11 29 46 47.5q35 18.5 92 18.5q40 0 79 -13.5q39 -13.5 70 -41.5q31 -28 50.5 -71.5q19.5 -43.5 19.5 -103.5v-359q0 -178 -148 -178q-35 0 -64.5 9q-29.5 9 -49.5 27l15 142q13 -10 27.5 -16q14.5 -6 30.5 -6q23 0 32.5 12q9.5 12 9.5 43z" />
<glyph unicode="&#332;" horiz-adv-x="816" d="M408 733q76 0 144.5 -27.5q68.5 -27.5 120 -77q51.5 -49.5 81.5 -118.5q30 -69 30 -151q0 -83 -30 -151.5q-30 -68.5 -81.5 -118q-51.5 -49.5 -120 -77q-68.5 -27.5 -144.5 -27.5q-76 0 -144.5 27.5q-68.5 27.5 -120 77q-51.5 49.5 -81.5 118q-30 68.5 -30 151.5q0 82 30 151q30 69 81.5 118.5q51.5 49.5 120 77q68.5 27.5 144.5 27.5zt0 0zM408 149q46 0 86.5 15.5q40.5 15.5 70 43q29.5 27.5 46.5 66q17 38.5 17 85.5q0 46 -17 85q-17 39 -46.5 66.5q-29.5 27.5 -70 43q-40.5 15.5 -86.5 15.5q-47 0 -87 -15.5q-40 -15.5 -69.5 -43q-29.5 -27.5 -46.5 -66.5q-17 -39 -17 -85q0 -47 17 -85.5q17 -38.5 46.5 -66q29.5 -27.5 69.5 -43q40 -15.5 87 -15.5zt0 0zM577 889v-105h-336l0 105z" />
<glyph unicode="&#333;" horiz-adv-x="643" d="M322 539q57 0 108 -21q51 -21 90 -57.5q39 -36.5 62 -87.5q23 -51 23 -111q0 -60 -23 -111q-23 -51 -62 -87.5q-39 -36.5 -90 -57.5q-51 -21 -108 -21q-57 0 -108 21q-51 21 -90 57.5q-39 36.5 -62 87.5q-23 51 -23 111q0 60 23 111q23 51 62 87.5q39 36.5 90 57.5q51 21 108 21zt0 0zM322 141q27 0 51.5 9q24.5 9 43 24.5q18.5 15.5 29 38q10.5 22.5 10.5 49.5q0 27 -10.5 49.5q-10.5 22.5 -29 38q-18.5 15.5 -43 24.5q-24.5 9 -51.5 9q-27 0 -51.5 -9q-24.5 -9 -43 -24.5q-18.5 -15.5 -29 -38q-10.5 -22.5 -10.5 -49.5q0 -27 10.5 -49.5q10.5 -22.5 29 -38q18.5 -15.5 43 -24.5q24.5 -9 51.5 -9zt0 0zM489 715v-108h-336l0 108z" />
<glyph unicode="&#336;" horiz-adv-x="816" d="M408 733q76 0 144.5 -27.5q68.5 -27.5 120 -77q51.5 -49.5 81.5 -118.5q30 -69 30 -151q0 -83 -30 -151.5q-30 -68.5 -81.5 -118q-51.5 -49.5 -120 -77q-68.5 -27.5 -144.5 -27.5q-76 0 -144.5 27.5q-68.5 27.5 -120 77q-51.5 49.5 -81.5 118q-30 68.5 -30 151.5q0 82 30 151q30 69 81.5 118.5q51.5 49.5 120 77q68.5 27.5 144.5 27.5zt0 0zM408 149q46 0 86.5 15.5q40.5 15.5 70 43q29.5 27.5 46.5 66q17 38.5 17 85.5q0 46 -17 85q-17 39 -46.5 66.5q-29.5 27.5 -70 43q-40.5 15.5 -86.5 15.5q-47 0 -87 -15.5q-40 -15.5 -69.5 -43q-29.5 -27.5 -46.5 -66.5q-17 -39 -17 -85q0 -47 17 -85.5q17 -38.5 46.5 -66q29.5 -27.5 69.5 -43q40 -15.5 87 -15.5zt0 0zM463 923l-125 -151h-100l73 151zM669 923l-126 -151h-99l73 151z" />
<glyph unicode="&#337;" horiz-adv-x="641" d="M322 539q57 0 108 -21q51 -21 90 -57.5q39 -36.5 62 -87.5q23 -51 23 -111q0 -60 -23 -111q-23 -51 -62 -87.5q-39 -36.5 -90 -57.5q-51 -21 -108 -21q-57 0 -108 21q-51 21 -90 57.5q-39 36.5 -62 87.5q-23 51 -23 111q0 60 23 111q23 51 62 87.5q39 36.5 90 57.5q51 21 108 21zt0 0zM322 141q27 0 51.5 9q24.5 9 43 24.5q18.5 15.5 29 38q10.5 22.5 10.5 49.5q0 27 -10.5 49.5q-10.5 22.5 -29 38q-18.5 15.5 -43 24.5q-24.5 9 -51.5 9q-27 0 -51.5 -9q-24.5 -9 -43 -24.5q-18.5 -15.5 -29 -38q-10.5 -22.5 -10.5 -49.5q0 -27 10.5 -49.5q10.5 -22.5 29 -38q18.5 -15.5 43 -24.5q24.5 -9 51.5 -9zt0 0zM389 757l-125 -167h-100l73 167zM591 757l-126 -167h-99l73 167z" />
<glyph unicode="&#338;" horiz-adv-x="1091" d="M629 54q-48 -33 -104 -51q-56 -18 -117 -18q-76 0 -144.5 27.5q-68.5 27.5 -120 77q-51.5 49.5 -81.5 118q-30 68.5 -30 151.5q0 82 30 151q30 69 81.5 118.5q51.5 49.5 120 77q68.5 27.5 144.5 27.5q61 0 117 -18q56 -18 104 -51l0 54h402v-164h-251v-103h221v-164h-221v-123h251v-164h-402zM408 149q46 0 86.5 15.5q40.5 15.5 70 43q29.5 27.5 46.5 66q17 38.5 17 85.5q0 46 -17 85q-17 39 -46.5 66.5q-29.5 27.5 -70 43q-40.5 15.5 -86.5 15.5q-47 0 -87 -15.5q-40 -15.5 -69.5 -43q-29.5 -27.5 -46.5 -66.5q-17 -39 -17 -85q0 -47 17 -85.5q17 -38.5 46.5 -66q29.5 -27.5 69.5 -43t87 -15.5z" />
<glyph unicode="&#339;" horiz-adv-x="1025" d="M725 539q59 0 107 -23q48 -23 82.5 -61.5q34.5 -38.5 53 -88.5q18.5 -50 18.5 -105q0 -13 -0.5 -28q-0.5 -15 -2.5 -24l-381 0q11 -42 48.5 -61.5q37.5 -19.5 89.5 -19.5q48 0 92 17q44 17 67 49l49 -117q-29 -44 -84.5 -68q-55.5 -24 -127.5 -24q-64 0 -118.5 21q-54.5 21 -93.5 61q-39 -38 -91.5 -60q-52.5 -22 -110.5 -22q-57 0 -108 21q-51 21 -90 57.5q-39 36.5 -62 87.5q-23 51 -23 111q0 60 23 111q23 51 62 87.5q39 36.5 90 57.5q51 21 108 21q58 0 110.5 -22q52.5 -22 91.5 -61q36 38 87 60.5q51 22.5 114 22.5zt0 0zM322 141q27 0 51.5 9q24.5 9 43 24.5q18.5 15.5 29 38q10.5 22.5 10.5 49.5q0 27 -10.5 49.5q-10.5 22.5 -29 38q-18.5 15.5 -43 24.5q-24.5 9 -51.5 9q-27 0 -51.5 -9q-24.5 -9 -43 -24.5q-18.5 -15.5 -29 -38q-10.5 -22.5 -10.5 -49.5q0 -27 10.5 -49.5q10.5 -22.5 29 -38q18.5 -15.5 43 -24.5q24.5 -9 51.5 -9zt0 0zM838 319q-8 38 -39.5 56.5q-31.5 18.5 -73.5 18.5q-43 0 -76.5 -18.5q-33.5 -18.5 -43.5 -56.5z" />
<glyph unicode="&#340;" horiz-adv-x="576" d="M82 718h222q40 0 78.5 -13q38.5 -13 69 -39.5q30.5 -26.5 49 -66.5q18.5 -40 18.5 -95q0 -33 -8 -63q-8 -30 -23.5 -55.5q-15.5 -25.5 -38.5 -45q-23 -19.5 -52 -31.5l160 -309h-167l-150 292h-6v-292h-152zM234 559v-121h72q27 0 44.5 16.5q17.5 16.5 17.5 45.5q0 26 -16.5 42.5q-16.5 16.5 -45.5 16.5zM437 929l-125 -157h-110l73 157z" />
<glyph unicode="&#341;" horiz-adv-x="428" d="M393 362q-11 8 -28.5 14.5q-17.5 6.5 -39.5 6.5q-39 0 -67 -19.5q-28 -19.5 -38 -58.5l0 -305h-147v524h142v-69q12 38 42 61q30 23 73 23q29 0 52 -12.5q23 -12.5 32 -28.5zM242 757l-73 -167h112l125 167z" />
<glyph unicode="&#342;" horiz-adv-x="576" d="M82 718h222q40 0 78.5 -13q38.5 -13 69 -39.5q30.5 -26.5 49 -66.5q18.5 -40 18.5 -95q0 -33 -8 -63q-8 -30 -23.5 -55.5q-15.5 -25.5 -38.5 -45q-23 -19.5 -52 -31.5l160 -309h-167l-150 292h-6v-292h-152zM234 559v-121h72q27 0 44.5 16.5q17.5 16.5 17.5 45.5q0 26 -16.5 42.5q-16.5 16.5 -45.5 16.5zM310 -288h-80l50 100q-19 5 -34.5 21.5q-15.5 16.5 -15.5 45.5q0 29 24 51q24 22 59 22q35 0 57 -23q22 -23 22 -54q0 -26 -9 -46.5q-9 -20.5 -23 -41.5z" />
<glyph unicode="&#343;" horiz-adv-x="428" d="M393 362q-11 8 -28.5 14.5q-17.5 6.5 -39.5 6.5q-39 0 -67 -19.5q-28 -19.5 -38 -58.5l0 -305h-147v524h142v-69q12 38 42 61q30 23 73 23q29 0 52 -12.5q23 -12.5 32 -28.5zM145 -288h-80l50 100q-19 5 -34.5 21.5q-15.5 16.5 -15.5 45.5q0 29 24 51q24 22 59 22q35 0 57 -23q22 -23 22 -54q0 -26 -9 -46.5q-9 -20.5 -23 -41.5z" />
<glyph unicode="&#344;" horiz-adv-x="576" d="M82 718h222q40 0 78.5 -13q38.5 -13 69 -39.5q30.5 -26.5 49 -66.5q18.5 -40 18.5 -95q0 -33 -8 -63q-8 -30 -23.5 -55.5q-15.5 -25.5 -38.5 -45q-23 -19.5 -52 -31.5l160 -309h-167l-150 292h-6v-292h-152zM234 559v-121h72q27 0 44.5 16.5q17.5 16.5 17.5 45.5q0 26 -16.5 42.5q-16.5 16.5 -45.5 16.5zM204 772l-91 157h106l67 -72l67 72h105l-90 -157z" />
<glyph unicode="&#345;" horiz-adv-x="428" d="M393 362q-11 8 -28.5 14.5q-17.5 6.5 -39.5 6.5q-39 0 -67 -19.5q-28 -19.5 -38 -58.5l0 -305h-147v524h142v-69q12 38 42 61q30 23 73 23q29 0 52 -12.5q23 -12.5 32 -28.5zM150 590l-90 167h110l67 -82l67 82h110l-91 -167z" />
<glyph unicode="&#346;" horiz-adv-x="511" d="M379 382q20 -17 38.5 -36q18.5 -19 33 -41.5q14.5 -22.5 23 -49.5q8.5 -27 8.5 -60q0 -48 -17 -86.5q-17 -38.5 -47 -66q-30 -27.5 -71.5 -42.5q-41.5 -15 -90.5 -15q-39 0 -76 10.5q-37 10.5 -67.5 27.5q-30.5 17 -52.5 39.5q-22 22.5 -32 45.5l45 140q13 -21 33.5 -39q20.5 -18 45 -31.5q24.5 -13.5 51.5 -21q27 -7.5 54 -7.5q11 0 24 2q13 2 23.5 7.5q10.5 5.5 17.5 14q7 8.5 7 21.5q0 17 -11.5 30.5q-11.5 13.5 -37.5 34.5q-45 37 -84.5 68q-39.5 31 -73.5 66q-12 12 -24 28q-12 16 -22.5 35.5q-10.5 19.5 -17 42.5q-6.5 23 -6.5 49q0 45 17 80q17 35 45.5 58q28.5 23 66.5 35q38 12 79 12q37 0 68 -8.5q31 -8.5 55.5 -22q24.5 -13.5 42.5 -30q18 -16.5 29 -33.5l-29 -143q-34 35 -80 54q-46 19 -87 19q-7 0 -16.5 -1q-9.5 -1 -17.5 -4q-8 -3 -14 -8.5q-6 -5.5 -6 -14.5q0 -14 15 -27.5q15 -13.5 35 -29.5q26 -20 58 -46q32 -26 66 -56zt0 0zM411 929l-125 -157h-110l73 157z" />
<glyph unicode="&#347;" horiz-adv-x="452" d="M186 213q-135 67 -135 170q0 33 13.5 61.5q13.5 28.5 37 49.5q23.5 21 56 33q32.5 12 70.5 12q63 0 103 -21.5q40 -21.5 61 -51.5l-29 -125q-32 29 -66 40q-34 11 -61 11q-21 0 -28.5 -6q-7.5 -6 -7.5 -12q0 -8 6.5 -14.5q6.5 -6.5 25.5 -15.5l44 -22q66 -33 101 -71q35 -38 35 -99q0 -36 -13.5 -66.5q-13.5 -30.5 -38.5 -53q-25 -22.5 -60.5 -35q-35.5 -12.5 -78.5 -12.5q-34 0 -63.5 8q-29.5 8 -53 21.5q-23.5 13.5 -40.5 29.5q-17 16 -25 33l41 125q9 -11 22 -24q13 -13 30.5 -23.5q17.5 -10.5 39 -17.5q21.5 -7 47.5 -7q19 0 33 6.5q14 6.5 14 20.5q0 11 -10 18.5q-10 7.5 -33 18.5zM390 757l-125 -167h-112l73 167z" />
<glyph unicode="&#352;" horiz-adv-x="511" d="M379 382q20 -17 38.5 -36q18.5 -19 33 -41.5q14.5 -22.5 23 -49.5q8.5 -27 8.5 -60q0 -48 -17 -86.5q-17 -38.5 -47 -66q-30 -27.5 -71.5 -42.5q-41.5 -15 -90.5 -15q-39 0 -76 10.5q-37 10.5 -67.5 27.5q-30.5 17 -52.5 39.5q-22 22.5 -32 45.5l45 140q13 -21 33.5 -39q20.5 -18 45 -31.5q24.5 -13.5 51.5 -21q27 -7.5 54 -7.5q11 0 24 2q13 2 23.5 7.5q10.5 5.5 17.5 14q7 8.5 7 21.5q0 17 -11.5 30.5q-11.5 13.5 -37.5 34.5q-45 37 -84.5 68q-39.5 31 -73.5 66q-12 12 -24 28q-12 16 -22.5 35.5q-10.5 19.5 -17 42.5q-6.5 23 -6.5 49q0 45 17 80q17 35 45.5 58q28.5 23 66.5 35q38 12 79 12q37 0 68 -8.5q31 -8.5 55.5 -22q24.5 -13.5 42.5 -30q18 -16.5 29 -33.5l-29 -143q-34 35 -80 54q-46 19 -87 19q-7 0 -16.5 -1q-9.5 -1 -17.5 -4q-8 -3 -14 -8.5q-6 -5.5 -6 -14.5q0 -14 15 -27.5q15 -13.5 35 -29.5q26 -20 58 -46q32 -26 66 -56zt0 0zM177 772l-91 157h106l67 -72l67 72h105l-90 -157z" />
<glyph unicode="&#353;" horiz-adv-x="452" d="M186 213q-135 67 -135 170q0 33 13.5 61.5q13.5 28.5 37 49.5q23.5 21 56 33q32.5 12 70.5 12q63 0 103 -21.5q40 -21.5 61 -51.5l-29 -125q-32 29 -66 40q-34 11 -61 11q-21 0 -28.5 -6q-7.5 -6 -7.5 -12q0 -8 6.5 -14.5q6.5 -6.5 25.5 -15.5l44 -22q66 -33 101 -71q35 -38 35 -99q0 -36 -13.5 -66.5q-13.5 -30.5 -38.5 -53q-25 -22.5 -60.5 -35q-35.5 -12.5 -78.5 -12.5q-34 0 -63.5 8q-29.5 8 -53 21.5q-23.5 13.5 -40.5 29.5q-17 16 -25 33l41 125q9 -11 22 -24q13 -13 30.5 -23.5q17.5 -10.5 39 -17.5q21.5 -7 47.5 -7q19 0 33 6.5q14 6.5 14 20.5q0 11 -10 18.5q-10 7.5 -33 18.5zM136 590l-90 167h110l67 -82l67 82h110l-91 -167z" />
<glyph unicode="&#356;" horiz-adv-x="581" d="M12 718h557v-162h-203v-556h-151v556h-203zM209 772l-91 157h106l67 -72l67 72h105l-90 -157z" />
<glyph unicode="&#357;" horiz-adv-x="621" d="M420 43q-20 -25 -54.5 -41.5q-34.5 -16.5 -81.5 -16.5q-89 0 -132 50q-43 50 -43 130v205h-89v42l200 244h36v-132h157v-154h-157v-171q0 -32 16.5 -45q16.5 -13 39.5 -13q41 0 77 37zM542 455h-80l50 100q-19 5 -34.5 21.5q-15.5 16.5 -15.5 45.5q0 29 24 51q24 22 59 22q35 0 57 -23q22 -23 22 -54q0 -26 -9 -46.5q-9 -20.5 -23 -41.5z" />
<glyph unicode="&#358;" horiz-adv-x="581" d="M12 718h557v-162h-203v-105h116v-164h-116v-287h-151v287h-116v164h116v105l-203 0z" />
<glyph unicode="&#359;" horiz-adv-x="468" d="M420 43q-20 -25 -54.5 -41.5q-34.5 -16.5 -81.5 -16.5q-89 0 -132 50q-43 50 -43 130v52h-89v112h89v41h-89v42l200 244h36v-132h157v-154h-157v-41h157v-112h-157v-18q0 -32 16.5 -45q16.5 -13 39.5 -13q41 0 77 37z" />
<glyph unicode="&#360;" horiz-adv-x="732" d="M503 718h152v-434q0 -65 -20.5 -120q-20.5 -55 -58 -95q-37.5 -40 -91 -62q-53.5 -22 -120.5 -22q-65 0 -118 21.5q-53 21.5 -90.5 60.5q-37.5 39 -58.5 94q-21 55 -21 122v435h152v-430q0 -64 37.5 -101.5q37.5 -37.5 100.5 -37.5q63 0 99.5 38.5q36.5 38.5 36.5 101.5zM201 769q-8 17 -11.5 32q-3.5 15 -3.5 29q0 45 28 71q28 26 74 26q24 0 44.5 -8q20.5 -8 38.5 -17.5q18 -9.5 33 -17.5q15 -8 28 -8q20 0 20 18q0 13 -9 33l89 0q8 -17 11 -32.5q3 -15.5 3 -29.5q0 -44 -26.5 -70q-26.5 -26 -71.5 -26q-24 0 -45 8q-21 8 -39 17.5q-18 9.5 -33.5 17.5q-15.5 8 -28.5 8q-9 0 -15 -5q-6 -5 -6 -15q0 -13 9 -31z" />
<glyph unicode="&#361;" horiz-adv-x="632" d="M281 -15q-40 0 -79 13.5q-39 13.5 -69.5 41.5q-30.5 28 -49.5 71.5q-19 43.5 -19 103.5v309h147v-277q0 -51 28 -78.5q28 -27.5 71 -27.5q38 0 68 20q30 20 35 50l0 313h147v-524h-142v51q-11 -29 -45.5 -47.5q-34.5 -18.5 -91.5 -18.5zt0 0zM148 592q-8 17 -11.5 32q-3.5 15 -3.5 29q0 45 28 71q28 26 74 26q24 0 44.5 -8q20.5 -8 38.5 -17.5q18 -9.5 33 -17.5q15 -8 28 -8q20 0 20 18q0 13 -9 33l89 0q8 -17 11 -32.5q3 -15.5 3 -29.5q0 -44 -26.5 -70q-26.5 -26 -71.5 -26q-24 0 -45 8q-21 8 -39 17.5q-18 9.5 -33.5 17.5q-15.5 8 -28.5 8q-9 0 -15 -5q-6 -5 -6 -15q0 -13 9 -31z" />
<glyph unicode="&#362;" horiz-adv-x="732" d="M503 718h152v-434q0 -65 -20.5 -120q-20.5 -55 -58 -95q-37.5 -40 -91 -62q-53.5 -22 -120.5 -22q-65 0 -118 21.5q-53 21.5 -90.5 60.5q-37.5 39 -58.5 94q-21 55 -21 122v435h152v-430q0 -64 37.5 -101.5q37.5 -37.5 100.5 -37.5q63 0 99.5 38.5q36.5 38.5 36.5 101.5zM534 889v-105h-336l0 105z" />
<glyph unicode="&#363;" horiz-adv-x="632" d="M281 -15q-40 0 -79 13.5q-39 13.5 -69.5 41.5q-30.5 28 -49.5 71.5q-19 43.5 -19 103.5v309h147v-277q0 -51 28 -78.5q28 -27.5 71 -27.5q38 0 68 20q30 20 35 50l0 313h147v-524h-142v51q-11 -29 -45.5 -47.5q-34.5 -18.5 -91.5 -18.5zt0 0zM482 715v-108h-336l0 108z" />
<glyph unicode="&#366;" horiz-adv-x="732" d="M503 718h152v-434q0 -65 -20.5 -120q-20.5 -55 -58 -95q-37.5 -40 -91 -62q-53.5 -22 -120.5 -22q-65 0 -118 21.5q-53 21.5 -90.5 60.5q-37.5 39 -58.5 94q-21 55 -21 122v435h152v-430q0 -64 37.5 -101.5q37.5 -37.5 100.5 -37.5q63 0 99.5 38.5q36.5 38.5 36.5 101.5zM252 852q0 23 9 43.5q9 20.5 24.5 36q15.5 15.5 36 24.5q20.5 9 44.5 9q24 0 44.5 -9q20.5 -9 36 -24.5q15.5 -15.5 24.5 -36q9 -20.5 9 -43.5q0 -23 -9 -43.5q-9 -20.5 -24.5 -36q-15.5 -15.5 -36 -24.5q-20.5 -9 -44.5 -9q-24 0 -44.5 9q-20.5 9 -36 24.5q-15.5 15.5 -24.5 36q-9 20.5 -9 43.5zt0 0zM401 852q0 14 -10 23q-10 9 -25 9q-15 0 -25 -9q-10 -9 -10 -23q0 -14 10 -23q10 -9 25 -9q15 0 25 9t10 23z" />
<glyph unicode="&#367;" horiz-adv-x="632" d="M281 -15q-40 0 -79 13.5q-39 13.5 -69.5 41.5q-30.5 28 -49.5 71.5q-19 43.5 -19 103.5v309h147v-277q0 -51 28 -78.5q28 -27.5 71 -27.5q38 0 68 20q30 20 35 50l0 313h147v-524h-142v51q-11 -29 -45.5 -47.5q-34.5 -18.5 -91.5 -18.5zt0 0zM197 689q0 24 9 44.5q9 20.5 24.5 36q15.5 15.5 36.5 24.5q21 9 45 9q24 0 45 -9q21 -9 36.5 -24.5q15.5 -15.5 24.5 -36q9 -20.5 9 -44.5q0 -24 -9 -44.5q-9 -20.5 -24.5 -36q-15.5 -15.5 -36.5 -24.5q-21 -9 -45 -9q-24 0 -45 9q-21 9 -36.5 24.5q-15.5 15.5 -24.5 36q-9 20.5 -9 44.5zt0 0zM347 689q0 14 -10 23q-10 9 -25 9q-15 0 -25 -9q-10 -9 -10 -23q0 -14 10 -23q10 -9 25 -9q15 0 25 9t10 23z" />
<glyph unicode="&#368;" horiz-adv-x="732" d="M503 718h152v-434q0 -65 -20.5 -120q-20.5 -55 -58 -95q-37.5 -40 -91 -62q-53.5 -22 -120.5 -22q-65 0 -118 21.5q-53 21.5 -90.5 60.5q-37.5 39 -58.5 94q-21 55 -21 122v435h152v-430q0 -64 37.5 -101.5q37.5 -37.5 100.5 -37.5q63 0 99.5 38.5q36.5 38.5 36.5 101.5zM417 923l-125 -151h-100l73 151zM623 923l-126 -151h-99l73 151z" />
<glyph unicode="&#369;" horiz-adv-x="632" d="M281 -15q-40 0 -79 13.5q-39 13.5 -69.5 41.5q-30.5 28 -49.5 71.5q-19 43.5 -19 103.5v309h147v-277q0 -51 28 -78.5q28 -27.5 71 -27.5q38 0 68 20q30 20 35 50l0 313h147v-524h-142v51q-11 -29 -45.5 -47.5q-34.5 -18.5 -91.5 -18.5zt0 0zM371 757l-125 -167h-100l73 167zM573 757l-126 -167h-99l73 167z" />
<glyph unicode="&#370;" horiz-adv-x="732" d="M503 718h152v-434q0 -53 -13.5 -99q-13.5 -46 -39 -83q-25.5 -37 -61.5 -64q-36 -27 -82 -40q-4 -3 -10.5 -9.5q-6.5 -6.5 -12.5 -15.5q-6 -9 -10.5 -19.5q-4.5 -10.5 -4.5 -22.5q0 -15 11 -24q11 -9 24 -9q12 0 20.5 3.5q8.5 3.5 11.5 6.5l15 -103q-7 -8 -26 -19.5q-19 -11.5 -49 -11.5q-58 0 -90.5 31.5q-32.5 31.5 -32.5 79.5q0 35 18 60.5q18 25.5 36 39.5q-63 1 -115 23q-52 22 -89 61q-37 39 -57.5 93.5q-20.5 54.5 -20.5 120.5v435h152v-430q0 -64 38 -101.5q38 -37.5 101 -37.5q63 0 99 38.5q36 38.5 36 101.5z" />
<glyph unicode="&#371;" horiz-adv-x="632" d="M418 0v51q-11 -29 -45.5 -47.5q-34.5 -18.5 -91.5 -18.5q-40 0 -79 13.5q-39 13.5 -69.5 41.5q-30.5 28 -49.5 71.5q-19 43.5 -19 103.5v309h147v-277q0 -51 28 -78.5q28 -27.5 71 -27.5q38 0 68 20q30 20 35 50l0 313h147v-524q-3 -3 -9.5 -9q-6.5 -6 -13.5 -15q-7 -9 -12 -20.5q-5 -11.5 -5 -24.5q0 -15 11 -24q11 -9 24 -9q12 0 20.5 3.5q8.5 3.5 11.5 6.5l15 -103q-7 -8 -26 -19.5q-19 -11.5 -49 -11.5q-58 0 -90.5 31.5q-32.5 31.5 -32.5 79.5q0 23 9 42q9 19 21 33.5q12 14.5 24.5 24.5q12.5 10 20.5 15z" />
<glyph unicode="&#376;" horiz-adv-x="615" d="M3 718h167l136 -243l137 243h169l-228 -417v-301h-151v301zM121 848q0 32 22 54.5q22 22.5 54 22.5q32 0 54.5 -22.5q22.5 -22.5 22.5 -54.5q0 -32 -22.5 -54q-22.5 -22 -54.5 -22q-32 0 -54 22q-22 22 -22 54zt0 0zM341 848q0 32 22.5 54.5q22.5 22.5 54.5 22.5q32 0 54 -22.5q22 -22.5 22 -54.5q0 -32 -22 -54q-22 -22 -54 -22q-32 0 -54.5 22t-22.5 54z" />
<glyph unicode="&#377;" horiz-adv-x="528" d="M42 718h419v-130l-234 -424h236v-164h-424v126l235 428h-232zM407 929l-125 -157h-110l73 157z" />
<glyph unicode="&#378;" horiz-adv-x="476" d="M52 524h367v-124l-178 -246h189v-154h-384v120l181 250h-175zM396 757l-125 -167h-112l73 167z" />
</font>
</defs>
</svg>
