<svg xmlns="http://www.w3.org/2000/svg" width="26" height="32" viewBox="0 0 26 32">
  <path id="Icon_color" data-name="Icon color" d="M22.75,32H3.25A3.229,3.229,0,0,1,0,28.8V11.583A4.791,4.791,0,0,1,1.43,8.192L8.32,1.408A4.942,4.942,0,0,1,11.764,0H22.75A3.229,3.229,0,0,1,26,3.2V28.8A3.229,3.229,0,0,1,22.75,32ZM3.25,12.8v16h19.5V3.2H13v8a1.614,1.614,0,0,1-1.625,1.6ZM13.812,25.6h-6.5a.808.808,0,0,1-.813-.8V23.2a.807.807,0,0,1,.813-.8h6.5a.807.807,0,0,1,.813.8v1.6A.808.808,0,0,1,13.812,25.6Zm4.876-6.4H7.312a.807.807,0,0,1-.813-.8V16.8a.808.808,0,0,1,.813-.8H18.688a.807.807,0,0,1,.812.8v1.6A.806.806,0,0,1,18.688,19.2Z" transform="translate(0 0)" fill="#3e434e"/>
</svg>
