<svg xmlns="http://www.w3.org/2000/svg" width="32" height="32" viewBox="0 0 32 32">
  <path id="Icon_color" data-name="Icon color" d="M26.182,32H8.728a2.913,2.913,0,0,1-2.91-2.909H26.182a2.912,2.912,0,0,0,2.909-2.909V5.818A2.913,2.913,0,0,1,32,8.728V26.182A5.824,5.824,0,0,1,26.182,32Zm-2.909-5.818H2.909A2.912,2.912,0,0,1,0,23.273V2.909A2.912,2.912,0,0,1,2.909,0H23.273a2.912,2.912,0,0,1,2.909,2.909V23.273A2.912,2.912,0,0,1,23.273,26.182ZM15.585,13.018h.008a.718.718,0,0,1,.567.278l5.819,7.272a.708.708,0,0,0,.563.276.741.741,0,0,0,.524-.217.721.721,0,0,0,.208-.524V2.909H2.909V20.117a.713.713,0,0,0,.713.727h.03a.7.7,0,0,0,.566-.291l3.753-4.989a.741.741,0,0,1,.581-.291.784.784,0,0,1,.6.291L10.6,17.542a.741.741,0,0,0,.581.291H11.2a.705.705,0,0,0,.556-.276L15.026,13.3A.7.7,0,0,1,15.585,13.018ZM9.454,11.637a2.182,2.182,0,1,1,2.182-2.182A2.184,2.184,0,0,1,9.454,11.637Z" transform="translate(0 0)" fill="#3e434e"/>
</svg>
