<svg xmlns="http://www.w3.org/2000/svg" width="32" height="26" viewBox="0 0 32 26">
  <g id="book_opened" transform="translate(-2 -4)">
    <path id="Icon_color" data-name="Icon color" d="M18.545,26H13.455a1.577,1.577,0,0,1-1.119-.471l-.672-.683a1.579,1.579,0,0,0-1.12-.471H1.6A1.614,1.614,0,0,1,0,22.75V1.625A1.614,1.614,0,0,1,1.6,0h9.6A6.355,6.355,0,0,1,16,2.226,6.361,6.361,0,0,1,20.8,0h9.6A1.614,1.614,0,0,1,32,1.625V22.75a1.614,1.614,0,0,1-1.6,1.625H21.456a1.6,1.6,0,0,0-1.12.471l-.671.683A1.6,1.6,0,0,1,18.545,26ZM20.8,3.25A3.229,3.229,0,0,0,17.6,6.5V20.377a6.352,6.352,0,0,1,3.2-.877h8V3.25Zm-17.6,0V19.5h8a6.342,6.342,0,0,1,3.2.877V6.5a3.229,3.229,0,0,0-3.2-3.25Z" transform="translate(2 4)" fill="#3e434e"/>
  </g>
</svg>
