<svg xmlns="http://www.w3.org/2000/svg" width="32" height="32" viewBox="0 0 32 32">
  <g id="instagram" transform="translate(-3 -3)">
    <path id="Icon_color" data-name="Icon color" d="M23.11,32H8.89A8.9,8.9,0,0,1,0,23.11V8.89A8.9,8.9,0,0,1,8.89,0H23.11A8.9,8.9,0,0,1,32,8.89V23.11A8.9,8.9,0,0,1,23.11,32ZM8.89,3.11A5.815,5.815,0,0,0,3.11,8.89V23.11A5.815,5.815,0,0,0,8.89,28.89H23.11A5.815,5.815,0,0,0,28.89,23.11V8.89A5.815,5.815,0,0,0,23.11,3.11ZM16,24A8,8,0,0,1,16,8h.018A8,8,0,0,1,16,24Zm0-12.89A4.89,4.89,0,1,0,20.89,16,4.9,4.9,0,0,0,16,11.11Zm8.445-1.778a1.778,1.778,0,1,1,1.778-1.778A1.78,1.78,0,0,1,24.445,9.333Z" transform="translate(3 3)" fill="#3e434e"/>
  </g>
</svg>
