<svg xmlns="http://www.w3.org/2000/svg" width="260" height="30" viewBox="0 0 260 30">
  <g id="Group_19" data-name="Group 19" transform="translate(-43.887 -19.75)">
    <g id="Group_4" data-name="Group 4" transform="translate(104.894 22.877)">
      <g id="Group_3" data-name="Group 3">
        <g id="Group_2" data-name="Group 2">
          <g id="Group_1" data-name="Group 1">
            <path id="Path_1" data-name="Path 1" d="M174.356,28.252a6.068,6.068,0,0,1,0,8.795,6.458,6.458,0,0,1-8.955,0,6.068,6.068,0,0,1,0-8.795,6.417,6.417,0,0,1,8.955,0Zm.36,4.39a4.6,4.6,0,0,0-1.424-3.334,4.892,4.892,0,0,0-6.827,0,4.634,4.634,0,0,0,0,6.684,4.892,4.892,0,0,0,6.827,0A4.628,4.628,0,0,0,174.715,32.642Z" transform="translate(-163.219 -26.138)" fill="#3e434e"/>
            <path id="Path_2" data-name="Path 2" d="M174.584,30.87a4.661,4.661,0,0,0-6.506,0,4.414,4.414,0,0,0,0,6.394,4.7,4.7,0,0,0,6.506,0,4.415,4.415,0,0,0,0-6.394Zm-8.09,3.189a4.6,4.6,0,0,1,1.424-3.334,4.892,4.892,0,0,1,6.827,0,4.635,4.635,0,0,1,0,6.684,4.892,4.892,0,0,1-6.827,0A4.628,4.628,0,0,1,166.494,34.059Z" transform="translate(-164.672 -27.555)" fill="#3e434e"/>
            <path id="Path_3" data-name="Path 3" d="M164.9,27.769a6.732,6.732,0,0,1,9.4,0,6.38,6.38,0,0,1,0,9.2,6.732,6.732,0,0,1-9.4,0,6.379,6.379,0,0,1,0-9.2Zm.222.2a6.068,6.068,0,0,0,0,8.795,6.458,6.458,0,0,0,8.955,0,6.068,6.068,0,0,0,0-8.795,6.417,6.417,0,0,0-8.955,0Z" transform="translate(-162.939 -25.857)" fill="#3e434e"/>
          </g>
        </g>
      </g>
      <path id="Path_4" data-name="Path 4" d="M163.458,55.31V53.318h12.785l-5.977,6.122,5.977,5.4H163.458v-1.85l8.015.107-4.308-3.7,4.165-4.019Z" transform="translate(-163.192 -39.258)" fill="#3e434e"/>
    </g>
    <g id="Group_9" data-name="Group 9" transform="translate(43.887 19.75)">
      <g id="Group_5" data-name="Group 5">
        <path id="Path_5" data-name="Path 5" d="M59.641,42.217H50l-2.341,6.768H43.887L55.008,19.75,65.643,48.985H61.8Zm-1.333-3.953-3.371-9.093-3.57,9.093Z" transform="translate(-43.887 -19.75)" fill="#3e434e"/>
      </g>
      <g id="Group_6" data-name="Group 6" transform="translate(22.811 3.651)">
        <path id="Path_6" data-name="Path 6" d="M92.345,26.881v21.9h8.812v3.68H88.4V26.881Z" transform="translate(-88.401 -26.881)" fill="#3e434e"/>
      </g>
      <g id="Group_7" data-name="Group 7" transform="translate(36.622 3.651)">
        <path id="Path_7" data-name="Path 7" d="M119.3,26.881v21.9h8.812v3.68H115.352V26.881Z" transform="translate(-115.352 -26.881)" fill="#3e434e"/>
      </g>
      <g id="Group_8" data-name="Group 8" transform="translate(44.586 3.536)">
        <path id="Path_8" data-name="Path 8" d="M140.518,30.3V52.355H136.7V30.3H130.9V26.656h15.416V30.3Z" transform="translate(-130.895 -26.656)" fill="#3e434e"/>
      </g>
    </g>
    <g id="Group_18" data-name="Group 18" transform="translate(118.901 22.1)">
      <g id="Group_10" data-name="Group 10" transform="translate(0 1.51)">
        <path id="Path_9" data-name="Path 9" d="M205.333,31.407l-3,1.774a5.145,5.145,0,0,0-1.6-1.9,3.738,3.738,0,0,0-2.045-.507,3.781,3.781,0,0,0-2.552.871,2.7,2.7,0,0,0-1.015,2.155q0,1.789,2.664,2.883l2.441,1a10.417,10.417,0,0,1,4.359,2.938,6.619,6.619,0,0,1,1.38,4.253,7.469,7.469,0,0,1-2.251,5.575,7.729,7.729,0,0,1-5.628,2.218,7.533,7.533,0,0,1-5.263-1.885,8.675,8.675,0,0,1-2.552-5.306l3.741-.824a6.355,6.355,0,0,0,.888,2.978,4.221,4.221,0,0,0,6.2.428,4,4,0,0,0,1.142-2.93,4.1,4.1,0,0,0-.2-1.307,3.321,3.321,0,0,0-.618-1.093,4.933,4.933,0,0,0-1.086-.934,10.441,10.441,0,0,0-1.585-.832l-2.362-.982q-5.025-2.123-5.025-6.209a5.888,5.888,0,0,1,2.108-4.609,7.621,7.621,0,0,1,5.247-1.869Q202.956,27.289,205.333,31.407Z" transform="translate(-190.273 -27.289)" fill="#3e434e"/>
      </g>
      <g id="Group_11" data-name="Group 11" transform="translate(17.149 1.785)">
        <path id="Path_10" data-name="Path 10" d="M227.352,27.825v16.1A6.633,6.633,0,0,0,228.36,48a5.758,5.758,0,0,0,8.484,0,6.525,6.525,0,0,0,1.008-4.08v-16.1h3.614v17a7.4,7.4,0,0,1-2.358,5.637,9.813,9.813,0,0,1-13.013,0,7.4,7.4,0,0,1-2.358-5.637v-17Z" transform="translate(-223.738 -27.825)" fill="#3e434e"/>
      </g>
      <path id="Path_11" data-name="Path 11" d="M261.444,51l-.383-26.66,17.23,18.5v-16.5h3.845V51.99l-16.8-18.117.1,17.127Z" transform="translate(-224.787 -24.339)" fill="#3e434e"/>
      <g id="Group_12" data-name="Group 12" transform="translate(59.198 2.106)">
        <path id="Path_12" data-name="Path 12" d="M305.8,53.232V28.453H311a18.956,18.956,0,0,1,5.91.738,11.064,11.064,0,0,1,4.225,2.456,11.852,11.852,0,0,1,3.839,9.2,12.059,12.059,0,0,1-8.208,11.7,19.178,19.178,0,0,1-5.831.69Zm3.742-3.514h1.686a14.093,14.093,0,0,0,4.192-.529,8.506,8.506,0,0,0,5.782-8.345,8.607,8.607,0,0,0-2.73-6.612q-2.457-2.263-7.244-2.263h-1.686Z" transform="translate(-305.795 -28.453)" fill="#3e434e"/>
      </g>
      <g id="Group_13" data-name="Group 13" transform="translate(79.864 2.541)">
        <path id="Path_13" data-name="Path 13" d="M346.123,53.646V29.3h3.661a16.036,16.036,0,0,1,3.9.378,5.852,5.852,0,0,1,2.477,1.277,6.62,6.62,0,0,1,1.625,2.318,7,7,0,0,1,.615,2.838,5.748,5.748,0,0,1-2,4.43,5.887,5.887,0,0,1,3.062,2.318,6.857,6.857,0,0,1-.884,8.64,6.633,6.633,0,0,1-2.73,1.687,15.881,15.881,0,0,1-4.15.457ZM349.8,39.755h1.152a4.25,4.25,0,0,0,3.006-.906,3.516,3.516,0,0,0,.955-2.673,3.352,3.352,0,0,0-.979-2.61,4.081,4.081,0,0,0-2.84-.89H349.8Zm0,10.438h2.273a5.644,5.644,0,0,0,3.661-.977,3.378,3.378,0,0,0,1.231-2.68,3.432,3.432,0,0,0-1.184-2.649q-1.151-1.057-4.118-1.057H349.8Z" transform="translate(-346.123 -29.302)" fill="#3e434e"/>
      </g>
      <g id="Group_14" data-name="Group 14" transform="translate(114.689 2.541)">
        <path id="Path_14" data-name="Path 14" d="M414.083,53.646V29.3h3.661a16.036,16.036,0,0,1,3.9.378,5.851,5.851,0,0,1,2.477,1.277,6.619,6.619,0,0,1,1.625,2.318,7,7,0,0,1,.615,2.838,5.748,5.748,0,0,1-2,4.43,5.886,5.886,0,0,1,3.062,2.318,6.857,6.857,0,0,1-.884,8.64,6.632,6.632,0,0,1-2.73,1.687,15.88,15.88,0,0,1-4.15.457Zm3.677-13.891h1.152a4.25,4.25,0,0,0,3.006-.906,3.516,3.516,0,0,0,.955-2.673,3.352,3.352,0,0,0-.979-2.61,4.081,4.081,0,0,0-2.84-.89H417.76Zm0,10.438h2.273a5.644,5.644,0,0,0,3.661-.977,3.378,3.378,0,0,0,1.231-2.68,3.432,3.432,0,0,0-1.184-2.649q-1.151-1.057-4.118-1.057H417.76Z" transform="translate(-414.083 -29.302)" fill="#3e434e"/>
      </g>
      <g id="Group_15" data-name="Group 15" transform="translate(92.292 2.543)">
        <path id="Path_15" data-name="Path 15" d="M378.7,43.785l-8.327-14.478H374.8l5.832,10.186,5.849-10.186h4.428l-8.36,14.478v9.864H378.7Z" transform="translate(-370.376 -29.307)" fill="#3e434e"/>
      </g>
      <g id="Group_16" data-name="Group 16" transform="translate(130.38 2.541)">
        <path id="Path_16" data-name="Path 16" d="M458.2,32.755h-9.805V38.6h9.52v3.453h-9.52v8.136H458.2v3.453H444.7V29.3h13.5Z" transform="translate(-444.702 -29.302)" fill="#3e434e"/>
      </g>
      <g id="Group_17" data-name="Group 17" transform="translate(145.606 2.629)">
        <path id="Path_17" data-name="Path 17" d="M482.638,43.394l7.516,10.337h-4.481L478.738,43.8h-.66v9.928h-3.663V29.475h4.292q4.811,0,6.949,1.806a6.635,6.635,0,0,1,2.359,5.31,6.889,6.889,0,0,1-1.478,4.43A6.589,6.589,0,0,1,482.638,43.394Zm-4.559-2.78h1.163q5.2,0,5.2-3.975,0-3.723-5.063-3.723h-1.3Z" transform="translate(-474.415 -29.475)" fill="#3e434e"/>
      </g>
      <path id="Path_18" data-name="Path 18" d="M528.155,41.2l-10.95,0v3.3h7.431a8.806,8.806,0,1,1-1.277-7.928h3.708a12.125,12.125,0,1,0,1.1,5.039C528.165,41.466,528.159,41.331,528.155,41.2Z" transform="translate(-343.18 -26.846)" fill="#3e434e"/>
    </g>
  </g>
</svg>
