<svg xmlns="http://www.w3.org/2000/svg" width="24" height="24" viewBox="0 0 24 24">
  <path id="Icon_color" data-name="Icon color" d="M16.8,24H15.2a3.959,3.959,0,0,1-1.534-.307L8,21.334,2.093,23.8a2.642,2.642,0,0,1-1.016.2H.667A.668.668,0,0,1,0,23.333V3.56A1.329,1.329,0,0,1,.827,2.32L5.666.307A3.959,3.959,0,0,1,7.2,0H8.8a3.959,3.959,0,0,1,1.534.307L16,2.666,21.907.2A2.642,2.642,0,0,1,22.924,0h.409A.668.668,0,0,1,24,.667V20.44a1.329,1.329,0,0,1-.827,1.241l-4.84,2.012A3.959,3.959,0,0,1,16.8,24ZM21.334,3.334,17.333,5V21.227l4-1.667V3.334Zm-12-.56V19l5.333,2.227V5Zm-2.666,0-4,1.667V20.666l4-1.667V2.773Z" transform="translate(0 0)" fill="#207dff"/>
</svg>
