<svg xmlns="http://www.w3.org/2000/svg" width="27" height="21.001" viewBox="0 0 27 21.001">
  <g id="menu_hamburger" transform="translate(-3 -5)">
    <path id="Icon_color" data-name="Icon color" d="M26.249,21H.751A.751.751,0,0,1,0,20.25v-1.5A.751.751,0,0,1,.751,18h25.5A.751.751,0,0,1,27,18.75v1.5A.751.751,0,0,1,26.249,21Zm0-9H.751A.751.751,0,0,1,0,11.25V9.75A.751.751,0,0,1,.751,9h25.5A.751.751,0,0,1,27,9.75v1.5A.751.751,0,0,1,26.249,12Zm0-9H.751A.751.751,0,0,1,0,2.25V.751A.751.751,0,0,1,.751,0h25.5A.751.751,0,0,1,27,.751v1.5A.751.751,0,0,1,26.249,3Z" transform="translate(3 5)" fill="#142d4c"/>
  </g>
</svg>
