<svg xmlns="http://www.w3.org/2000/svg" width="30" height="30" viewBox="0 0 30 30">
  <g id="Group_701" data-name="Group 701" transform="translate(-20 -202.5)">
    <rect id="Rectangle_498" data-name="Rectangle 498" width="30" height="30" rx="15" transform="translate(20 202.5)" fill="#ffca00" opacity="0.9"/>
    <path id="download" d="M8,6.641l1.121-1.12a1,1,0,1,1,1.415,1.413L7.707,9.763a1,1,0,0,1-1.414,0L3.464,6.934A1,1,0,1,1,4.88,5.52L6,6.641V1A1,1,0,1,1,8,1ZM1,12H13a1,1,0,0,1,0,2H1a1,1,0,0,1,0-2Z" transform="translate(28 210.5)" fill="#262931"/>
  </g>
</svg>
