<svg xmlns="http://www.w3.org/2000/svg" xmlns:xlink="http://www.w3.org/1999/xlink" width="504" height="297" viewBox="0 0 504 297">
  <defs>
    <filter id="Subtraction_2" x="0" y="0" width="504" height="297" filterUnits="userSpaceOnUse">
      <feOffset dy="5" input="SourceAlpha"/>
      <feGaussianBlur stdDeviation="15" result="blur"/>
      <feFlood flood-color="#d6d6d6"/>
      <feComposite operator="in" in2="blur"/>
      <feComposite in="SourceGraphic"/>
    </filter>
  </defs>
  <g id="Group_1671" data-name="Group 1671" transform="translate(-334 -855)">
    <g transform="matrix(1, 0, 0, 1, 334, 855)" filter="url(#Subtraction_2)">
      <path id="Subtraction_2-2" data-name="Subtraction 2" d="M207,142a208.53,208.53,0,0,1-41.718-4.206,205.959,205.959,0,0,1-38.856-12.062,207.02,207.02,0,0,1-35.162-19.085A208.49,208.49,0,0,1,60.629,81.371,208.489,208.489,0,0,1,35.352,50.736,207.02,207.02,0,0,1,16.267,15.574,205.959,205.959,0,0,1,4.206-23.282,208.531,208.531,0,0,1,0-65H414a208.527,208.527,0,0,1-4.205,41.718,205.958,205.958,0,0,1-12.062,38.856,207.014,207.014,0,0,1-19.085,35.162,208.484,208.484,0,0,1-25.277,30.636,208.487,208.487,0,0,1-30.635,25.277,207.019,207.019,0,0,1-35.162,19.085,205.96,205.96,0,0,1-38.856,12.062A208.532,208.532,0,0,1,207,142Z" transform="translate(45 105)" fill="#d8d8d8"/>
    </g>
    <path id="Subtraction_1" data-name="Subtraction 1" d="M119.5,98a123.4,123.4,0,0,1-24.688-2.489,121.882,121.882,0,0,1-22.995-7.138A122.514,122.514,0,0,1,51.009,77.079a123.385,123.385,0,0,1-18.13-14.958,123.381,123.381,0,0,1-14.959-18.13A122.512,122.512,0,0,1,6.626,23.182,121.88,121.88,0,0,1-.512.188,123.4,123.4,0,0,1-3-24.5c0-.165,0-.334,0-.5H242c0,.109,0,.219,0,.329v.171A123.407,123.407,0,0,1,239.511.188a121.882,121.882,0,0,1-7.138,22.995,122.512,122.512,0,0,1-11.294,20.809,123.379,123.379,0,0,1-14.958,18.13,123.383,123.383,0,0,1-18.13,14.958,122.511,122.511,0,0,1-20.808,11.294,121.88,121.88,0,0,1-22.994,7.138A123.4,123.4,0,0,1,119.5,98Z" transform="translate(469 920)" fill="#fff"/>
  </g>
</svg>
