<svg xmlns="http://www.w3.org/2000/svg" width="32" height="24" viewBox="0 0 32 24">
  <g id="youtube" transform="translate(-0.999 -4.003)">
    <path id="Icon_color" data-name="Icon color" d="M16.044,24a90.789,90.789,0,0,1-9.556-.506l-2.123-.224A5.005,5.005,0,0,1,0,18.153V5.849A5,5,0,0,1,4.365.732L6.4.506a90.41,90.41,0,0,1,19.112,0l2.125.226A5,5,0,0,1,32,5.849v12.3a5,5,0,0,1-4.363,5.117l-2.037.224A90.789,90.789,0,0,1,16.044,24ZM14.182,6.975a1.067,1.067,0,0,0-.51.131,1.132,1.132,0,0,0-.581.993v7.8a1.128,1.128,0,0,0,.558.926,1.064,1.064,0,0,0,1.058,0l5.658-3.9h.088a1.131,1.131,0,0,0,0-1.861l-5.659-3.9A1.065,1.065,0,0,0,14.182,6.975Z" transform="translate(0.999 4.003)" fill="#3e434e"/>
  </g>
</svg>
